M48
INCH,TZ
T1C0.0157
T2C0.0394
%
G90
G05
T1
X45777Y-18627
X45777Y-20738
X45784Y-19462
X45784Y-19904
X45786Y-24252
X45786Y-26363
X45788Y-18100
X45788Y-21265
X45794Y-25087
X45794Y-25529
X45796Y-18990
X45796Y-20375
X45798Y-23725
X45798Y-26890
X45802Y-52453
X45806Y-24615
X45806Y-26000
X45806Y-29892
X45806Y-32003
X45806Y-35531
X45806Y-37643
X45806Y-41171
X45806Y-43283
X45806Y-46811
X45806Y-48923
X45806Y-54563
X45809Y-53287
X45813Y-55091
X45814Y-30726
X45814Y-31169
X45814Y-36366
X45814Y-36809
X45814Y-42006
X45814Y-42449
X45814Y-47646
X45814Y-48089
X45814Y-53729
X45814Y-60203
X45818Y-29365
X45818Y-32530
X45818Y-35005
X45818Y-38169
X45818Y-40646
X45818Y-43809
X45818Y-46286
X45818Y-49449
X45818Y-51926
X45818Y-58089
X45821Y-54201
X45822Y-59369
X45826Y-30255
X45826Y-31640
X45826Y-35895
X45826Y-37280
X45826Y-41535
X45826Y-42919
X45826Y-47175
X45826Y-48559
X45826Y-52815
X45826Y-57566
X45826Y-58923
X45830Y-60726
X45834Y-58455
X45838Y-59837
X49543Y-25339
X49543Y-25870
X49551Y-24803
X49551Y-59173
X49551Y-59705
X49555Y-19689
X49555Y-20220
X49559Y-36614
X49559Y-37146
X49559Y-53508
X49559Y-54039
X49559Y-58638
X49563Y-19154
X49567Y-30992
X49567Y-31524
X49567Y-36079
X49567Y-42232
X49567Y-42764
X49567Y-52972
X49575Y-30457
X49575Y-41697
X49583Y-47886
X49583Y-48417
X49591Y-47350
X50087Y-25343
X50087Y-25874
X50094Y-24807
X50094Y-59177
X50094Y-59709
X50098Y-19693
X50098Y-20224
X50102Y-36618
X50102Y-37150
X50102Y-53512
X50102Y-54043
X50102Y-58642
X50106Y-19157
X50110Y-30996
X50110Y-31528
X50110Y-36083
X50110Y-42236
X50110Y-42768
X50110Y-52976
X50118Y-30461
X50118Y-41701
X50126Y-47890
X50126Y-48421
X50134Y-47354
X50145Y-17092
X50145Y-22274
X50155Y-22717
X50155Y-27899
X50170Y-50917
X50174Y-28356
X50174Y-33539
X50174Y-33996
X50174Y-39179
X50174Y-39636
X50174Y-44819
X50174Y-45276
X50174Y-50459
X50174Y-56099
X50182Y-61739
X50186Y-56553
X50479Y-17092
X50479Y-22274
X50489Y-22717
X50489Y-27899
X50504Y-50917
X50509Y-28356
X50509Y-33539
X50509Y-33996
X50509Y-39179
X50509Y-39636
X50509Y-44819
X50509Y-45276
X50509Y-50459
X50509Y-56099
X50517Y-61739
X50521Y-56553
X50814Y-17092
X50814Y-22274
X50824Y-22717
X50824Y-27899
X50839Y-50917
X50844Y-28356
X50844Y-33539
X50844Y-33996
X50844Y-39179
X50844Y-39636
X50844Y-44819
X50844Y-45276
X50844Y-50459
X50844Y-56099
X50851Y-61739
X50856Y-56553
X51670Y-18663
X51670Y-20702
X51680Y-24288
X51680Y-26327
X51695Y-54528
X51700Y-29928
X51700Y-31967
X51700Y-35568
X51700Y-37606
X51700Y-41209
X51700Y-43246
X51700Y-46849
X51700Y-48886
X51700Y-52489
X51708Y-58129
X51712Y-60163
X53958Y-18549
X53958Y-20816
X53968Y-24174
X53968Y-26441
X53983Y-54642
X53987Y-29814
X53987Y-32081
X53987Y-35454
X53987Y-37720
X53987Y-41094
X53987Y-43360
X53987Y-46734
X53987Y-49000
X53987Y-52374
X53995Y-58014
X53999Y-60278
X54104Y-44246
X54150Y-36835
X54163Y-19906
X54173Y-42437
X54193Y-59382
X54213Y-25535
X54264Y-53752
X54350Y-40585
X54370Y-31156
X54406Y-47213
X54675Y-41077
X54843Y-43931
X54892Y-48557
X55059Y-37543
X55413Y-38252
X55659Y-34876
X55817Y-47740
X55817Y-49807
X55935Y-35693
X56368Y-32022
X56535Y-50299
X56781Y-32652
X57303Y-30704
X57303Y-52287
X57776Y-31156
X57894Y-53026
X58474Y-54925
X58484Y-42390
X58917Y-36333
X58988Y-41984
X59094Y-54961
X59240Y-58783
X59240Y-59344
X59244Y-59906
X59244Y-60467
X59248Y-61028
X59307Y-36835
X59439Y-51392
X59622Y-47094
X59626Y-48557
X59695Y-25535
X59870Y-58783
X59870Y-59344
X59874Y-59906
X59874Y-60467
X59878Y-61028
X59911Y-51766
X60500Y-58783
X60500Y-59344
X60504Y-59906
X60504Y-60467
X60508Y-61028
X60541Y-25033
X63197Y-55406
X63197Y-55811
X63197Y-56236
X63846Y-55406
X63846Y-55811
X63846Y-56236
X64476Y-55406
X64476Y-55811
X64476Y-56236
X64585Y-32819
X64585Y-49472
X64594Y-35585
X64594Y-38370
X64594Y-41146
X64594Y-43911
X64594Y-46687
X64606Y-52248
X66965Y-32819
X66965Y-49472
X66974Y-35585
X66974Y-38370
X66974Y-41146
X66974Y-43911
X66974Y-46687
X66986Y-52248
X67205Y-26264
X67264Y-37238
X67264Y-54866
X67500Y-49482
X67579Y-41126
X67579Y-52652
X67589Y-34846
X68022Y-31608
X68120Y-37622
X68145Y-54162
X68219Y-21736
X68425Y-32022
X69240Y-21358
X69327Y-32819
X69327Y-49472
X69337Y-35585
X69337Y-38370
X69337Y-41146
X69337Y-43911
X69337Y-46687
X69348Y-52248
X69626Y-40181
X69813Y-34571
X69852Y-31835
X69961Y-43862
X70020Y-41136
X70236Y-23291
X70492Y-30211
X70492Y-34886
X70507Y-37647
X71719Y-32829
X71719Y-49482
X71728Y-35594
X71728Y-38380
X71728Y-41156
X71728Y-43921
X71728Y-46697
X71740Y-52258
T2
X39983Y-23874
X39983Y-24874
X39983Y-25874
X39983Y-26874
X39983Y-27874
X39983Y-28874
X39983Y-29874
X39983Y-30874
X39983Y-31874
X39983Y-32874
X39983Y-33874
X39983Y-34874
X39983Y-35874
X39983Y-36874
X39983Y-37874
X39983Y-38874
X39993Y-40724
X39993Y-41724
X39993Y-42724
X39993Y-43724
X39993Y-44724
X39993Y-45724
X39993Y-46724
X39993Y-47724
X39993Y-48724
X39993Y-49724
X39993Y-50724
X39993Y-51724
X39993Y-52724
X39993Y-53724
X39993Y-54724
X39993Y-55724
X41983Y-23874
X41983Y-24874
X41983Y-25874
X41983Y-26874
X41983Y-27874
X41983Y-28874
X41983Y-29874
X41983Y-30874
X41983Y-31874
X41983Y-32874
X41983Y-33874
X41983Y-34874
X41983Y-35874
X41983Y-36874
X41983Y-37874
X41983Y-38874
X41993Y-40724
X41993Y-41724
X41993Y-42724
X41993Y-43724
X41993Y-44724
X41993Y-45724
X41993Y-46724
X41993Y-47724
X41993Y-48724
X41993Y-49724
X41993Y-50724
X41993Y-51724
X41993Y-52724
X41993Y-53724
X41993Y-54724
X41993Y-55724
X58747Y-19366
X58747Y-20366
X58747Y-28378
X58747Y-29378
X59747Y-19366
X59747Y-20366
X59747Y-28378
X59747Y-29378
X60747Y-19366
X60747Y-20366
X60747Y-28378
X60747Y-29378
X61747Y-19366
X61747Y-20366
X61747Y-28378
X61747Y-29378
X62747Y-19366
X62747Y-20366
X62747Y-28378
X62747Y-29378
X63747Y-19366
X63747Y-20366
X63747Y-28378
X63747Y-29378
X64747Y-19366
X64747Y-20366
X64747Y-28378
X64747Y-29378
X65747Y-19366
X65747Y-20366
X65747Y-28378
X65747Y-29378
X66747Y-19366
X66747Y-20366
X66747Y-28378
X66747Y-29378
X67747Y-19366
X67747Y-20366
X67747Y-28378
X67747Y-29378
X68747Y-19366
X68747Y-20366
X68747Y-28378
X68747Y-29378
X69747Y-19366
X69747Y-20366
X69747Y-28378
X69747Y-29378
X70743Y-29378
X70747Y-19366
X70747Y-20366
X70747Y-28378
T2
G00X67305Y-57186
M15
G01X67305Y-57974
M16
G05
G00X69667Y-57324
M15
G01X69667Y-57836
M16
G05
G00X69766Y-55809
M15
G01X70356Y-55809
M16
G05
G00X69766Y-59352
M15
G01X70356Y-59352
M16
G05
M30
