M48
INCH,TZ
T1C0.0492
T2C0.0630
T3C0.1260
%
G90
G05
T1
X62984Y-33843
X62984Y-36618
X62984Y-50496
X62984Y-44945
X62984Y-39394
X62984Y-42169
X62984Y-47720
X62984Y-53272
X71646Y-31795
X71646Y-34571
X71646Y-48449
X71646Y-42898
X71646Y-37346
X71646Y-40122
X71646Y-45673
X71646Y-51224
T2
X70848Y-57580
T3
X37037Y-16470
X37037Y-62622
X72057Y-16470
X72057Y-62622
M30
