%TF.GenerationSoftware,KiCad,Pcbnew,8.0.1*%
%TF.CreationDate,2024-09-04T11:05:25-04:00*%
%TF.ProjectId,16ch-driver-v1,31366368-2d64-4726-9976-65722d76312e,rev?*%
%TF.SameCoordinates,Original*%
%TF.FileFunction,Copper,L1,Top*%
%TF.FilePolarity,Positive*%
%FSLAX46Y46*%
G04 Gerber Fmt 4.6, Leading zero omitted, Abs format (unit mm)*
G04 Created by KiCad (PCBNEW 8.0.1) date 2024-09-04 11:05:25*
%MOMM*%
%LPD*%
G01*
G04 APERTURE LIST*
G04 Aperture macros list*
%AMRoundRect*
0 Rectangle with rounded corners*
0 $1 Rounding radius*
0 $2 $3 $4 $5 $6 $7 $8 $9 X,Y pos of 4 corners*
0 Add a 4 corners polygon primitive as box body*
4,1,4,$2,$3,$4,$5,$6,$7,$8,$9,$2,$3,0*
0 Add four circle primitives for the rounded corners*
1,1,$1+$1,$2,$3*
1,1,$1+$1,$4,$5*
1,1,$1+$1,$6,$7*
1,1,$1+$1,$8,$9*
0 Add four rect primitives between the rounded corners*
20,1,$1+$1,$2,$3,$4,$5,0*
20,1,$1+$1,$4,$5,$6,$7,0*
20,1,$1+$1,$6,$7,$8,$9,0*
20,1,$1+$1,$8,$9,$2,$3,0*%
G04 Aperture macros list end*
%TA.AperFunction,SMDPad,CuDef*%
%ADD10RoundRect,0.250000X-0.312500X-0.625000X0.312500X-0.625000X0.312500X0.625000X-0.312500X0.625000X0*%
%TD*%
%TA.AperFunction,SMDPad,CuDef*%
%ADD11RoundRect,0.250000X-0.325000X-0.650000X0.325000X-0.650000X0.325000X0.650000X-0.325000X0.650000X0*%
%TD*%
%TA.AperFunction,SMDPad,CuDef*%
%ADD12RoundRect,0.250000X0.312500X0.625000X-0.312500X0.625000X-0.312500X-0.625000X0.312500X-0.625000X0*%
%TD*%
%TA.AperFunction,SMDPad,CuDef*%
%ADD13RoundRect,0.250000X0.325000X1.100000X-0.325000X1.100000X-0.325000X-1.100000X0.325000X-1.100000X0*%
%TD*%
%TA.AperFunction,SMDPad,CuDef*%
%ADD14RoundRect,0.243750X-0.243750X-0.456250X0.243750X-0.456250X0.243750X0.456250X-0.243750X0.456250X0*%
%TD*%
%TA.AperFunction,SMDPad,CuDef*%
%ADD15R,1.600000X0.300000*%
%TD*%
%TA.AperFunction,SMDPad,CuDef*%
%ADD16R,3.400000X5.000000*%
%TD*%
%TA.AperFunction,SMDPad,CuDef*%
%ADD17R,1.200000X1.200000*%
%TD*%
%TA.AperFunction,SMDPad,CuDef*%
%ADD18RoundRect,0.250000X-0.875000X-1.025000X0.875000X-1.025000X0.875000X1.025000X-0.875000X1.025000X0*%
%TD*%
%TA.AperFunction,ComponentPad*%
%ADD19R,1.508000X1.508000*%
%TD*%
%TA.AperFunction,ComponentPad*%
%ADD20C,1.508000*%
%TD*%
%TA.AperFunction,SMDPad,CuDef*%
%ADD21RoundRect,0.150000X0.150000X-0.587500X0.150000X0.587500X-0.150000X0.587500X-0.150000X-0.587500X0*%
%TD*%
%TA.AperFunction,SMDPad,CuDef*%
%ADD22RoundRect,0.250000X0.712500X2.475000X-0.712500X2.475000X-0.712500X-2.475000X0.712500X-2.475000X0*%
%TD*%
%TA.AperFunction,ComponentPad*%
%ADD23O,2.250000X4.500000*%
%TD*%
%TA.AperFunction,ComponentPad*%
%ADD24O,2.000000X4.000000*%
%TD*%
%TA.AperFunction,ComponentPad*%
%ADD25O,4.000000X2.000000*%
%TD*%
%TA.AperFunction,ViaPad*%
%ADD26C,0.800000*%
%TD*%
%TA.AperFunction,Conductor*%
%ADD27C,0.250000*%
%TD*%
%TA.AperFunction,Conductor*%
%ADD28C,1.000000*%
%TD*%
%TA.AperFunction,Conductor*%
%ADD29C,2.000000*%
%TD*%
G04 APERTURE END LIST*
D10*
%TO.P,R23,1*%
%TO.N,GND*%
X117836503Y-91183927D03*
%TO.P,R23,2*%
%TO.N,Net-(U4-OSC_FREQ_ADJ)*%
X120761503Y-91183927D03*
%TD*%
D11*
%TO.P,C3,1*%
%TO.N,GND*%
X117757502Y-45964999D03*
%TO.P,C3,2*%
%TO.N,Net-(U1-DELAY_ADJ)*%
X120707502Y-45964999D03*
%TD*%
D12*
%TO.P,R16,1*%
%TO.N,GND*%
X135848803Y-75729913D03*
%TO.P,R16,2*%
%TO.N,Net-(Q3-G)*%
X132923803Y-75729913D03*
%TD*%
D13*
%TO.P,C23,1*%
%TO.N,+12V*%
X128437502Y-154741783D03*
%TO.P,C23,2*%
%TO.N,GND*%
X125487502Y-154741783D03*
%TD*%
D14*
%TO.P,D33,1,K*%
%TO.N,Net-(D33-K)*%
X161003481Y-97457731D03*
%TO.P,D33,2,A*%
%TO.N,+12V*%
X162878481Y-97457731D03*
%TD*%
D11*
%TO.P,C4,1*%
%TO.N,GND*%
X117757502Y-50534999D03*
%TO.P,C4,2*%
%TO.N,Net-(U1-BOOT)*%
X120707502Y-50534999D03*
%TD*%
%TO.P,C16,1*%
%TO.N,GND*%
X117832502Y-107799641D03*
%TO.P,C16,2*%
%TO.N,Net-(U5-BOOT)*%
X120782502Y-107799641D03*
%TD*%
D14*
%TO.P,D38,1,K*%
%TO.N,Net-(D38-K)*%
X167053481Y-111557731D03*
%TO.P,D38,2,A*%
%TO.N,+12V*%
X168928481Y-111557731D03*
%TD*%
D12*
%TO.P,R3,1*%
%TO.N,/SpikeAndHoldDriverAndLEDs-1/TTLInput*%
X135771503Y-49374999D03*
%TO.P,R3,2*%
%TO.N,Net-(Q1-G)*%
X132846503Y-49374999D03*
%TD*%
D14*
%TO.P,D42,1,K*%
%TO.N,Net-(D42-K)*%
X161003481Y-118607731D03*
%TO.P,D42,2,A*%
%TO.N,+12V*%
X162878481Y-118607731D03*
%TD*%
%TO.P,D29,1,K*%
%TO.N,Net-(D29-K)*%
X167053481Y-90407731D03*
%TO.P,D29,2,A*%
%TO.N,+12V*%
X168928481Y-90407731D03*
%TD*%
D15*
%TO.P,U3,1,DUTY_CYCLE_ADJ*%
%TO.N,Net-(U3-DUTY_CYCLE_ADJ)*%
X123786503Y-76658213D03*
%TO.P,U3,2,DELAY_ADJ*%
%TO.N,Net-(U3-DELAY_ADJ)*%
X123786503Y-77308213D03*
%TO.P,U3,3,OSC_FREQ_ADJ*%
%TO.N,Net-(U3-OSC_FREQ_ADJ)*%
X123786503Y-77958213D03*
%TO.P,U3,4,MASTER*%
%TO.N,unconnected-(U3-MASTER-Pad4)*%
X123786503Y-78608213D03*
%TO.P,U3,5,BOOT*%
%TO.N,Net-(U3-BOOT)*%
X123786503Y-79258213D03*
%TO.P,U3,6,OUT1*%
%TO.N,/SpikeAndHoldDriverAndLEDs-3/DriveOut*%
X123786503Y-79908213D03*
%TO.P,U3,7,OUT2*%
X123786503Y-80558213D03*
%TO.P,U3,8,VPS2*%
%TO.N,+12V*%
X129386503Y-80558213D03*
%TO.P,U3,9,VPS1*%
X129386503Y-79908213D03*
%TO.P,U3,10,+VS*%
X129386503Y-79258213D03*
%TO.P,U3,11,GND*%
%TO.N,GND*%
X129386503Y-78608213D03*
%TO.P,U3,12,SYNC*%
%TO.N,unconnected-(U3-SYNC-Pad12)*%
X129386503Y-77958213D03*
%TO.P,U3,13,STATUS_OK_FLAG*%
%TO.N,Net-(U3-STATUS_OK_FLAG)*%
X129386503Y-77308213D03*
%TO.P,U3,14,INPUT*%
%TO.N,Net-(Q3-G)*%
X129386503Y-76658213D03*
D16*
%TO.P,U3,15,EPAD*%
%TO.N,GND*%
X126586503Y-78608213D03*
%TD*%
D14*
%TO.P,D39,1,K*%
%TO.N,Net-(D39-K)*%
X161003481Y-111557731D03*
%TO.P,D39,2,A*%
%TO.N,+12V*%
X162878481Y-111557731D03*
%TD*%
D12*
%TO.P,R9,1*%
%TO.N,/SpikeAndHoldDriverAndLEDs-2/TTLInput*%
X135796503Y-63662499D03*
%TO.P,R9,2*%
%TO.N,Net-(Q2-G)*%
X132871503Y-63662499D03*
%TD*%
D17*
%TO.P,D13,1,K*%
%TO.N,/SpikeAndHoldDriverAndLEDs-5/DriveOut*%
X120695002Y-110069641D03*
%TO.P,D13,2,A*%
%TO.N,GND*%
X117895002Y-110069641D03*
%TD*%
D12*
%TO.P,R40,1*%
%TO.N,GND*%
X135848803Y-133032769D03*
%TO.P,R40,2*%
%TO.N,Net-(Q7-G)*%
X132923803Y-133032769D03*
%TD*%
D15*
%TO.P,U8,1,DUTY_CYCLE_ADJ*%
%TO.N,Net-(U8-DUTY_CYCLE_ADJ)*%
X123806503Y-148286783D03*
%TO.P,U8,2,DELAY_ADJ*%
%TO.N,Net-(U8-DELAY_ADJ)*%
X123806503Y-148936783D03*
%TO.P,U8,3,OSC_FREQ_ADJ*%
%TO.N,Net-(U8-OSC_FREQ_ADJ)*%
X123806503Y-149586783D03*
%TO.P,U8,4,MASTER*%
%TO.N,unconnected-(U8-MASTER-Pad4)*%
X123806503Y-150236783D03*
%TO.P,U8,5,BOOT*%
%TO.N,Net-(U8-BOOT)*%
X123806503Y-150886783D03*
%TO.P,U8,6,OUT1*%
%TO.N,/SpikeAndHoldDriverAndLEDs-8/DriveOut*%
X123806503Y-151536783D03*
%TO.P,U8,7,OUT2*%
X123806503Y-152186783D03*
%TO.P,U8,8,VPS2*%
%TO.N,+12V*%
X129406503Y-152186783D03*
%TO.P,U8,9,VPS1*%
X129406503Y-151536783D03*
%TO.P,U8,10,+VS*%
X129406503Y-150886783D03*
%TO.P,U8,11,GND*%
%TO.N,GND*%
X129406503Y-150236783D03*
%TO.P,U8,12,SYNC*%
%TO.N,unconnected-(U8-SYNC-Pad12)*%
X129406503Y-149586783D03*
%TO.P,U8,13,STATUS_OK_FLAG*%
%TO.N,Net-(U8-STATUS_OK_FLAG)*%
X129406503Y-148936783D03*
%TO.P,U8,14,INPUT*%
%TO.N,Net-(Q8-G)*%
X129406503Y-148286783D03*
D16*
%TO.P,U8,15,EPAD*%
%TO.N,GND*%
X126606503Y-150236783D03*
%TD*%
D11*
%TO.P,C13,1*%
%TO.N,GND*%
X117832502Y-93473927D03*
%TO.P,C13,2*%
%TO.N,Net-(U4-BOOT)*%
X120782502Y-93473927D03*
%TD*%
%TO.P,C6,1*%
%TO.N,GND*%
X117782502Y-60252499D03*
%TO.P,C6,2*%
%TO.N,Net-(U2-DELAY_ADJ)*%
X120732502Y-60252499D03*
%TD*%
D10*
%TO.P,R11,1*%
%TO.N,GND*%
X117786503Y-62532499D03*
%TO.P,R11,2*%
%TO.N,Net-(U2-OSC_FREQ_ADJ)*%
X120711503Y-62532499D03*
%TD*%
D14*
%TO.P,D5,1,K*%
%TO.N,Net-(D5-K)*%
X179087500Y-90410000D03*
%TO.P,D5,2,A*%
%TO.N,+12V*%
X180962500Y-90410000D03*
%TD*%
D12*
%TO.P,R37,1*%
%TO.N,Net-(D20-K)*%
X135850002Y-130731069D03*
%TO.P,R37,2*%
%TO.N,Net-(Q7-D)*%
X132925002Y-130731069D03*
%TD*%
D14*
%TO.P,D41,1,K*%
%TO.N,Net-(D41-K)*%
X167053481Y-118607731D03*
%TO.P,D41,2,A*%
%TO.N,+12V*%
X168928481Y-118607731D03*
%TD*%
D11*
%TO.P,C18,1*%
%TO.N,GND*%
X117832502Y-117555355D03*
%TO.P,C18,2*%
%TO.N,Net-(U6-DELAY_ADJ)*%
X120782502Y-117555355D03*
%TD*%
D17*
%TO.P,D22,1,K*%
%TO.N,/SpikeAndHoldDriverAndLEDs-8/DriveOut*%
X120715002Y-153046783D03*
%TO.P,D22,2,A*%
%TO.N,GND*%
X117915002Y-153046783D03*
%TD*%
%TO.P,D7,1,K*%
%TO.N,/SpikeAndHoldDriverAndLEDs-3/DriveOut*%
X120695002Y-81418213D03*
%TO.P,D7,2,A*%
%TO.N,GND*%
X117895002Y-81418213D03*
%TD*%
D10*
%TO.P,R35,1*%
%TO.N,GND*%
X117836503Y-119835355D03*
%TO.P,R35,2*%
%TO.N,Net-(U6-OSC_FREQ_ADJ)*%
X120761503Y-119835355D03*
%TD*%
D11*
%TO.P,C19,1*%
%TO.N,GND*%
X117832502Y-122125355D03*
%TO.P,C19,2*%
%TO.N,Net-(U6-BOOT)*%
X120782502Y-122125355D03*
%TD*%
D18*
%TO.P,C1,1*%
%TO.N,+12V*%
X155906489Y-144837930D03*
%TO.P,C1,2*%
%TO.N,GND*%
X162306489Y-144837930D03*
%TD*%
D14*
%TO.P,D11,1,K*%
%TO.N,Net-(D11-K)*%
X179087500Y-104510000D03*
%TO.P,D11,2,A*%
%TO.N,+12V*%
X180962500Y-104510000D03*
%TD*%
D17*
%TO.P,D10,1,K*%
%TO.N,/SpikeAndHoldDriverAndLEDs-4/DriveOut*%
X120695002Y-95743927D03*
%TO.P,D10,2,A*%
%TO.N,GND*%
X117895002Y-95743927D03*
%TD*%
D13*
%TO.P,C11,1*%
%TO.N,+12V*%
X128417502Y-97438927D03*
%TO.P,C11,2*%
%TO.N,GND*%
X125467502Y-97438927D03*
%TD*%
D14*
%TO.P,D26,1,K*%
%TO.N,Net-(D26-K)*%
X167053481Y-83357731D03*
%TO.P,D26,2,A*%
%TO.N,+12V*%
X168928481Y-83357731D03*
%TD*%
D17*
%TO.P,D4,1,K*%
%TO.N,/SpikeAndHoldDriverAndLEDs-2/DriveOut*%
X120645002Y-67092499D03*
%TO.P,D4,2,A*%
%TO.N,GND*%
X117845002Y-67092499D03*
%TD*%
D12*
%TO.P,R19,1*%
%TO.N,Net-(D11-K)*%
X135850002Y-87753927D03*
%TO.P,R19,2*%
%TO.N,Net-(Q4-D)*%
X132925002Y-87753927D03*
%TD*%
D14*
%TO.P,D24,1,K*%
%TO.N,Net-(D24-K)*%
X173037500Y-132710000D03*
%TO.P,D24,2,A*%
%TO.N,+12V*%
X174912500Y-132710000D03*
%TD*%
D19*
%TO.P,J3,1_A,1*%
%TO.N,/SpikeAndHoldDriverAndLEDs-1/DriveOut*%
X106637502Y-60639998D03*
%TO.P,J3,1_B,1*%
X101557502Y-60639998D03*
D20*
%TO.P,J3,2_A,2*%
%TO.N,GND*%
X106637502Y-63179998D03*
%TO.P,J3,2_B,2*%
X101557502Y-63179998D03*
%TO.P,J3,3_A,3*%
%TO.N,/SpikeAndHoldDriverAndLEDs-9/DriveOut*%
X106637502Y-65719998D03*
%TO.P,J3,3_B,3*%
X101557502Y-65719998D03*
%TO.P,J3,4_A,4*%
%TO.N,GND*%
X106637502Y-68259998D03*
%TO.P,J3,4_B,4*%
X101557502Y-68259998D03*
%TO.P,J3,5_A,5*%
%TO.N,/SpikeAndHoldDriverAndLEDs-2/DriveOut*%
X106637502Y-70799998D03*
%TO.P,J3,5_B,5*%
X101557502Y-70799998D03*
%TO.P,J3,6_A,6*%
%TO.N,GND*%
X106637502Y-73339998D03*
%TO.P,J3,6_B,6*%
X101557502Y-73339998D03*
%TO.P,J3,7_A,7*%
%TO.N,/SpikeAndHoldDriverAndLEDs-10/DriveOut*%
X106637502Y-75879998D03*
%TO.P,J3,7_B,7*%
X101557502Y-75879998D03*
%TO.P,J3,8_A,8*%
%TO.N,GND*%
X106637502Y-78419998D03*
%TO.P,J3,8_B,8*%
X101557502Y-78419998D03*
%TO.P,J3,9_A,9*%
%TO.N,/SpikeAndHoldDriverAndLEDs-3/DriveOut*%
X106637502Y-80959998D03*
%TO.P,J3,9_B,9*%
X101557502Y-80959998D03*
%TO.P,J3,10_A,10*%
%TO.N,GND*%
X106637502Y-83499998D03*
%TO.P,J3,10_B,10*%
X101557502Y-83499998D03*
%TO.P,J3,11_A,11*%
%TO.N,/SpikeAndHoldDriverAndLEDs-11/DriveOut*%
X106637502Y-86039998D03*
%TO.P,J3,11_B,11*%
X101557502Y-86039998D03*
%TO.P,J3,12_A,12*%
%TO.N,GND*%
X106637502Y-88579998D03*
%TO.P,J3,12_B,12*%
X101557502Y-88579998D03*
%TO.P,J3,13_A,13*%
%TO.N,/SpikeAndHoldDriverAndLEDs-4/DriveOut*%
X106637502Y-91119998D03*
%TO.P,J3,13_B,13*%
X101557502Y-91119998D03*
%TO.P,J3,14_A,14*%
%TO.N,GND*%
X106637502Y-93659998D03*
%TO.P,J3,14_B,14*%
X101557502Y-93659998D03*
%TO.P,J3,15_A,15*%
%TO.N,/SpikeAndHoldDriverAndLEDs-12/DriveOut*%
X106637502Y-96199998D03*
%TO.P,J3,15_B,15*%
X101557502Y-96199998D03*
%TO.P,J3,16_A,16*%
%TO.N,GND*%
X106637502Y-98739998D03*
%TO.P,J3,16_B,16*%
X101557502Y-98739998D03*
%TD*%
D12*
%TO.P,R28,1*%
%TO.N,GND*%
X135848803Y-104381341D03*
%TO.P,R28,2*%
%TO.N,Net-(Q5-G)*%
X132923803Y-104381341D03*
%TD*%
D21*
%TO.P,Q6,1,G*%
%TO.N,Net-(Q6-G)*%
X129417502Y-117652855D03*
%TO.P,Q6,2,S*%
%TO.N,GND*%
X131317502Y-117652855D03*
%TO.P,Q6,3,D*%
%TO.N,Net-(Q6-D)*%
X130367502Y-115777855D03*
%TD*%
D12*
%TO.P,R48,1*%
%TO.N,Net-(D24-K)*%
X135850002Y-151896783D03*
%TO.P,R48,2*%
%TO.N,Net-(U8-STATUS_OK_FLAG)*%
X132925002Y-151896783D03*
%TD*%
%TO.P,R33,1*%
%TO.N,/SpikeAndHoldDriverAndLEDs-6/TTLInput*%
X135846503Y-120965355D03*
%TO.P,R33,2*%
%TO.N,Net-(Q6-G)*%
X132921503Y-120965355D03*
%TD*%
D21*
%TO.P,Q2,1,G*%
%TO.N,Net-(Q2-G)*%
X129367502Y-60349999D03*
%TO.P,Q2,2,S*%
%TO.N,GND*%
X131267502Y-60349999D03*
%TO.P,Q2,3,D*%
%TO.N,Net-(Q2-D)*%
X130317502Y-58474999D03*
%TD*%
D11*
%TO.P,C12,1*%
%TO.N,GND*%
X117832502Y-88903927D03*
%TO.P,C12,2*%
%TO.N,Net-(U4-DELAY_ADJ)*%
X120782502Y-88903927D03*
%TD*%
D12*
%TO.P,R45,1*%
%TO.N,/SpikeAndHoldDriverAndLEDs-8/TTLInput*%
X135866503Y-149616783D03*
%TO.P,R45,2*%
%TO.N,Net-(Q8-G)*%
X132941503Y-149616783D03*
%TD*%
D14*
%TO.P,D23,1,K*%
%TO.N,Net-(D23-K)*%
X179087500Y-132710000D03*
%TO.P,D23,2,A*%
%TO.N,+12V*%
X180962500Y-132710000D03*
%TD*%
D11*
%TO.P,C7,1*%
%TO.N,GND*%
X117782502Y-64822499D03*
%TO.P,C7,2*%
%TO.N,Net-(U2-BOOT)*%
X120732502Y-64822499D03*
%TD*%
D12*
%TO.P,R4,1*%
%TO.N,GND*%
X135773803Y-47116699D03*
%TO.P,R4,2*%
%TO.N,Net-(Q1-G)*%
X132848803Y-47116699D03*
%TD*%
D14*
%TO.P,D47,1,K*%
%TO.N,Net-(D47-K)*%
X167053481Y-132707731D03*
%TO.P,D47,2,A*%
%TO.N,+12V*%
X168928481Y-132707731D03*
%TD*%
%TO.P,D27,1,K*%
%TO.N,Net-(D27-K)*%
X161003481Y-83357731D03*
%TO.P,D27,2,A*%
%TO.N,+12V*%
X162878481Y-83357731D03*
%TD*%
D12*
%TO.P,R46,1*%
%TO.N,GND*%
X135868803Y-147358483D03*
%TO.P,R46,2*%
%TO.N,Net-(Q8-G)*%
X132943803Y-147358483D03*
%TD*%
D17*
%TO.P,D16,1,K*%
%TO.N,/SpikeAndHoldDriverAndLEDs-6/DriveOut*%
X120695002Y-124395355D03*
%TO.P,D16,2,A*%
%TO.N,GND*%
X117895002Y-124395355D03*
%TD*%
D12*
%TO.P,R14,1*%
%TO.N,GND*%
X126720002Y-74528213D03*
%TO.P,R14,2*%
%TO.N,Net-(U3-DUTY_CYCLE_ADJ)*%
X123795002Y-74528213D03*
%TD*%
D13*
%TO.P,C14,1*%
%TO.N,+12V*%
X128417502Y-111764641D03*
%TO.P,C14,2*%
%TO.N,GND*%
X125467502Y-111764641D03*
%TD*%
%TO.P,C17,1*%
%TO.N,+12V*%
X128417502Y-126090355D03*
%TO.P,C17,2*%
%TO.N,GND*%
X125467502Y-126090355D03*
%TD*%
D22*
%TO.P,F1,1*%
%TO.N,/12V_IN*%
X162537500Y-153185000D03*
%TO.P,F1,2*%
%TO.N,+12V*%
X155762500Y-153185000D03*
%TD*%
D23*
%TO.P,J1,1*%
%TO.N,/12V_IN*%
X170955086Y-146253591D03*
D24*
%TO.P,J1,2*%
%TO.N,GND*%
X176955086Y-146253591D03*
D25*
%TO.P,J1,S1,SHIELD*%
X177955086Y-141753591D03*
%TO.P,J1,S2,SHIELD*%
X177955086Y-150753591D03*
%TD*%
D10*
%TO.P,R29,1*%
%TO.N,GND*%
X117836503Y-105509641D03*
%TO.P,R29,2*%
%TO.N,Net-(U5-OSC_FREQ_ADJ)*%
X120761503Y-105509641D03*
%TD*%
D12*
%TO.P,R30,1*%
%TO.N,Net-(D15-K)*%
X135830002Y-108919641D03*
%TO.P,R30,2*%
%TO.N,Net-(U5-STATUS_OK_FLAG)*%
X132905002Y-108919641D03*
%TD*%
%TO.P,R39,1*%
%TO.N,/SpikeAndHoldDriverAndLEDs-7/TTLInput*%
X135846503Y-135291069D03*
%TO.P,R39,2*%
%TO.N,Net-(Q7-G)*%
X132921503Y-135291069D03*
%TD*%
D14*
%TO.P,D45,1,K*%
%TO.N,Net-(D45-K)*%
X161003481Y-125657731D03*
%TO.P,D45,2,A*%
%TO.N,+12V*%
X162878481Y-125657731D03*
%TD*%
D13*
%TO.P,C2,1*%
%TO.N,+12V*%
X128342502Y-54499999D03*
%TO.P,C2,2*%
%TO.N,GND*%
X125392502Y-54499999D03*
%TD*%
D21*
%TO.P,Q7,1,G*%
%TO.N,Net-(Q7-G)*%
X129417502Y-131978569D03*
%TO.P,Q7,2,S*%
%TO.N,GND*%
X131317502Y-131978569D03*
%TO.P,Q7,3,D*%
%TO.N,Net-(Q7-D)*%
X130367502Y-130103569D03*
%TD*%
D15*
%TO.P,U1,1,DUTY_CYCLE_ADJ*%
%TO.N,Net-(U1-DUTY_CYCLE_ADJ)*%
X123711503Y-48044999D03*
%TO.P,U1,2,DELAY_ADJ*%
%TO.N,Net-(U1-DELAY_ADJ)*%
X123711503Y-48694999D03*
%TO.P,U1,3,OSC_FREQ_ADJ*%
%TO.N,Net-(U1-OSC_FREQ_ADJ)*%
X123711503Y-49344999D03*
%TO.P,U1,4,MASTER*%
%TO.N,unconnected-(U1-MASTER-Pad4)*%
X123711503Y-49994999D03*
%TO.P,U1,5,BOOT*%
%TO.N,Net-(U1-BOOT)*%
X123711503Y-50644999D03*
%TO.P,U1,6,OUT1*%
%TO.N,/SpikeAndHoldDriverAndLEDs-1/DriveOut*%
X123711503Y-51294999D03*
%TO.P,U1,7,OUT2*%
X123711503Y-51944999D03*
%TO.P,U1,8,VPS2*%
%TO.N,+12V*%
X129311503Y-51944999D03*
%TO.P,U1,9,VPS1*%
X129311503Y-51294999D03*
%TO.P,U1,10,+VS*%
X129311503Y-50644999D03*
%TO.P,U1,11,GND*%
%TO.N,GND*%
X129311503Y-49994999D03*
%TO.P,U1,12,SYNC*%
%TO.N,unconnected-(U1-SYNC-Pad12)*%
X129311503Y-49344999D03*
%TO.P,U1,13,STATUS_OK_FLAG*%
%TO.N,Net-(U1-STATUS_OK_FLAG)*%
X129311503Y-48694999D03*
%TO.P,U1,14,INPUT*%
%TO.N,Net-(Q1-G)*%
X129311503Y-48044999D03*
D16*
%TO.P,U1,15,EPAD*%
%TO.N,GND*%
X126511503Y-49994999D03*
%TD*%
D15*
%TO.P,U2,1,DUTY_CYCLE_ADJ*%
%TO.N,Net-(U2-DUTY_CYCLE_ADJ)*%
X123736503Y-62332499D03*
%TO.P,U2,2,DELAY_ADJ*%
%TO.N,Net-(U2-DELAY_ADJ)*%
X123736503Y-62982499D03*
%TO.P,U2,3,OSC_FREQ_ADJ*%
%TO.N,Net-(U2-OSC_FREQ_ADJ)*%
X123736503Y-63632499D03*
%TO.P,U2,4,MASTER*%
%TO.N,unconnected-(U2-MASTER-Pad4)*%
X123736503Y-64282499D03*
%TO.P,U2,5,BOOT*%
%TO.N,Net-(U2-BOOT)*%
X123736503Y-64932499D03*
%TO.P,U2,6,OUT1*%
%TO.N,/SpikeAndHoldDriverAndLEDs-2/DriveOut*%
X123736503Y-65582499D03*
%TO.P,U2,7,OUT2*%
X123736503Y-66232499D03*
%TO.P,U2,8,VPS2*%
%TO.N,+12V*%
X129336503Y-66232499D03*
%TO.P,U2,9,VPS1*%
X129336503Y-65582499D03*
%TO.P,U2,10,+VS*%
X129336503Y-64932499D03*
%TO.P,U2,11,GND*%
%TO.N,GND*%
X129336503Y-64282499D03*
%TO.P,U2,12,SYNC*%
%TO.N,unconnected-(U2-SYNC-Pad12)*%
X129336503Y-63632499D03*
%TO.P,U2,13,STATUS_OK_FLAG*%
%TO.N,Net-(U2-STATUS_OK_FLAG)*%
X129336503Y-62982499D03*
%TO.P,U2,14,INPUT*%
%TO.N,Net-(Q2-G)*%
X129336503Y-62332499D03*
D16*
%TO.P,U2,15,EPAD*%
%TO.N,GND*%
X126536503Y-64282499D03*
%TD*%
D12*
%TO.P,R1,1*%
%TO.N,Net-(D2-K)*%
X135775002Y-44814999D03*
%TO.P,R1,2*%
%TO.N,Net-(Q1-D)*%
X132850002Y-44814999D03*
%TD*%
D11*
%TO.P,C24,1*%
%TO.N,GND*%
X117852502Y-146206783D03*
%TO.P,C24,2*%
%TO.N,Net-(U8-DELAY_ADJ)*%
X120802502Y-146206783D03*
%TD*%
D14*
%TO.P,D3,1,K*%
%TO.N,Net-(D3-K)*%
X173037500Y-83360000D03*
%TO.P,D3,2,A*%
%TO.N,+12V*%
X174912500Y-83360000D03*
%TD*%
D12*
%TO.P,R8,1*%
%TO.N,GND*%
X126670002Y-60202499D03*
%TO.P,R8,2*%
%TO.N,Net-(U2-DUTY_CYCLE_ADJ)*%
X123745002Y-60202499D03*
%TD*%
%TO.P,R34,1*%
%TO.N,GND*%
X135848803Y-118707055D03*
%TO.P,R34,2*%
%TO.N,Net-(Q6-G)*%
X132923803Y-118707055D03*
%TD*%
%TO.P,R44,1*%
%TO.N,GND*%
X126740002Y-146156783D03*
%TO.P,R44,2*%
%TO.N,Net-(U8-DUTY_CYCLE_ADJ)*%
X123815002Y-146156783D03*
%TD*%
D14*
%TO.P,D44,1,K*%
%TO.N,Net-(D44-K)*%
X167053481Y-125657731D03*
%TO.P,D44,2,A*%
%TO.N,+12V*%
X168928481Y-125657731D03*
%TD*%
D11*
%TO.P,C25,1*%
%TO.N,GND*%
X117852502Y-150776783D03*
%TO.P,C25,2*%
%TO.N,Net-(U8-BOOT)*%
X120802502Y-150776783D03*
%TD*%
D12*
%TO.P,R38,1*%
%TO.N,GND*%
X126720002Y-131831069D03*
%TO.P,R38,2*%
%TO.N,Net-(U7-DUTY_CYCLE_ADJ)*%
X123795002Y-131831069D03*
%TD*%
D21*
%TO.P,Q4,1,G*%
%TO.N,Net-(Q4-G)*%
X129417502Y-89001427D03*
%TO.P,Q4,2,S*%
%TO.N,GND*%
X131317502Y-89001427D03*
%TO.P,Q4,3,D*%
%TO.N,Net-(Q4-D)*%
X130367502Y-87126427D03*
%TD*%
D14*
%TO.P,D9,1,K*%
%TO.N,Net-(D9-K)*%
X173037500Y-97460000D03*
%TO.P,D9,2,A*%
%TO.N,+12V*%
X174912500Y-97460000D03*
%TD*%
%TO.P,D20,1,K*%
%TO.N,Net-(D20-K)*%
X179087500Y-125660000D03*
%TO.P,D20,2,A*%
%TO.N,+12V*%
X180962500Y-125660000D03*
%TD*%
D19*
%TO.P,J4,1_A,1*%
%TO.N,/SpikeAndHoldDriverAndLEDs-5/DriveOut*%
X106662502Y-103439998D03*
%TO.P,J4,1_B,1*%
X101582502Y-103439998D03*
D20*
%TO.P,J4,2_A,2*%
%TO.N,GND*%
X106662502Y-105979998D03*
%TO.P,J4,2_B,2*%
X101582502Y-105979998D03*
%TO.P,J4,3_A,3*%
%TO.N,/SpikeAndHoldDriverAndLEDs-13/DriveOut*%
X106662502Y-108519998D03*
%TO.P,J4,3_B,3*%
X101582502Y-108519998D03*
%TO.P,J4,4_A,4*%
%TO.N,GND*%
X106662502Y-111059998D03*
%TO.P,J4,4_B,4*%
X101582502Y-111059998D03*
%TO.P,J4,5_A,5*%
%TO.N,/SpikeAndHoldDriverAndLEDs-6/DriveOut*%
X106662502Y-113599998D03*
%TO.P,J4,5_B,5*%
X101582502Y-113599998D03*
%TO.P,J4,6_A,6*%
%TO.N,GND*%
X106662502Y-116139998D03*
%TO.P,J4,6_B,6*%
X101582502Y-116139998D03*
%TO.P,J4,7_A,7*%
%TO.N,/SpikeAndHoldDriverAndLEDs-14/DriveOut*%
X106662502Y-118679998D03*
%TO.P,J4,7_B,7*%
X101582502Y-118679998D03*
%TO.P,J4,8_A,8*%
%TO.N,GND*%
X106662502Y-121219998D03*
%TO.P,J4,8_B,8*%
X101582502Y-121219998D03*
%TO.P,J4,9_A,9*%
%TO.N,/SpikeAndHoldDriverAndLEDs-7/DriveOut*%
X106662502Y-123759998D03*
%TO.P,J4,9_B,9*%
X101582502Y-123759998D03*
%TO.P,J4,10_A,10*%
%TO.N,GND*%
X106662502Y-126299998D03*
%TO.P,J4,10_B,10*%
X101582502Y-126299998D03*
%TO.P,J4,11_A,11*%
%TO.N,/SpikeAndHoldDriverAndLEDs-15/DriveOut*%
X106662502Y-128839998D03*
%TO.P,J4,11_B,11*%
X101582502Y-128839998D03*
%TO.P,J4,12_A,12*%
%TO.N,GND*%
X106662502Y-131379998D03*
%TO.P,J4,12_B,12*%
X101582502Y-131379998D03*
%TO.P,J4,13_A,13*%
%TO.N,/SpikeAndHoldDriverAndLEDs-8/DriveOut*%
X106662502Y-133919998D03*
%TO.P,J4,13_B,13*%
X101582502Y-133919998D03*
%TO.P,J4,14_A,14*%
%TO.N,GND*%
X106662502Y-136459998D03*
%TO.P,J4,14_B,14*%
X101582502Y-136459998D03*
%TO.P,J4,15_A,15*%
%TO.N,/SpikeAndHoldDriverAndLEDs-16/DriveOut*%
X106662502Y-138999998D03*
%TO.P,J4,15_B,15*%
X101582502Y-138999998D03*
%TO.P,J4,16_A,16*%
%TO.N,GND*%
X106662502Y-141539998D03*
%TO.P,J4,16_B,16*%
X101582502Y-141539998D03*
%TD*%
D12*
%TO.P,R43,1*%
%TO.N,Net-(D23-K)*%
X135870002Y-145056783D03*
%TO.P,R43,2*%
%TO.N,Net-(Q8-D)*%
X132945002Y-145056783D03*
%TD*%
D14*
%TO.P,D30,1,K*%
%TO.N,Net-(D30-K)*%
X161003481Y-90407731D03*
%TO.P,D30,2,A*%
%TO.N,+12V*%
X162878481Y-90407731D03*
%TD*%
D21*
%TO.P,Q3,1,G*%
%TO.N,Net-(Q3-G)*%
X129417502Y-74675713D03*
%TO.P,Q3,2,S*%
%TO.N,GND*%
X131317502Y-74675713D03*
%TO.P,Q3,3,D*%
%TO.N,Net-(Q3-D)*%
X130367502Y-72800713D03*
%TD*%
%TO.P,Q1,1,G*%
%TO.N,Net-(Q1-G)*%
X129342502Y-46062499D03*
%TO.P,Q1,2,S*%
%TO.N,GND*%
X131242502Y-46062499D03*
%TO.P,Q1,3,D*%
%TO.N,Net-(Q1-D)*%
X130292502Y-44187499D03*
%TD*%
D10*
%TO.P,R47,1*%
%TO.N,GND*%
X117856503Y-148486783D03*
%TO.P,R47,2*%
%TO.N,Net-(U8-OSC_FREQ_ADJ)*%
X120781503Y-148486783D03*
%TD*%
D15*
%TO.P,U5,1,DUTY_CYCLE_ADJ*%
%TO.N,Net-(U5-DUTY_CYCLE_ADJ)*%
X123786503Y-105309641D03*
%TO.P,U5,2,DELAY_ADJ*%
%TO.N,Net-(U5-DELAY_ADJ)*%
X123786503Y-105959641D03*
%TO.P,U5,3,OSC_FREQ_ADJ*%
%TO.N,Net-(U5-OSC_FREQ_ADJ)*%
X123786503Y-106609641D03*
%TO.P,U5,4,MASTER*%
%TO.N,unconnected-(U5-MASTER-Pad4)*%
X123786503Y-107259641D03*
%TO.P,U5,5,BOOT*%
%TO.N,Net-(U5-BOOT)*%
X123786503Y-107909641D03*
%TO.P,U5,6,OUT1*%
%TO.N,/SpikeAndHoldDriverAndLEDs-5/DriveOut*%
X123786503Y-108559641D03*
%TO.P,U5,7,OUT2*%
X123786503Y-109209641D03*
%TO.P,U5,8,VPS2*%
%TO.N,+12V*%
X129386503Y-109209641D03*
%TO.P,U5,9,VPS1*%
X129386503Y-108559641D03*
%TO.P,U5,10,+VS*%
X129386503Y-107909641D03*
%TO.P,U5,11,GND*%
%TO.N,GND*%
X129386503Y-107259641D03*
%TO.P,U5,12,SYNC*%
%TO.N,unconnected-(U5-SYNC-Pad12)*%
X129386503Y-106609641D03*
%TO.P,U5,13,STATUS_OK_FLAG*%
%TO.N,Net-(U5-STATUS_OK_FLAG)*%
X129386503Y-105959641D03*
%TO.P,U5,14,INPUT*%
%TO.N,Net-(Q5-G)*%
X129386503Y-105309641D03*
D16*
%TO.P,U5,15,EPAD*%
%TO.N,GND*%
X126586503Y-107259641D03*
%TD*%
D12*
%TO.P,R15,1*%
%TO.N,/SpikeAndHoldDriverAndLEDs-3/TTLInput*%
X135846503Y-77988213D03*
%TO.P,R15,2*%
%TO.N,Net-(Q3-G)*%
X132921503Y-77988213D03*
%TD*%
D19*
%TO.P,U18,CN2-1,V3V3*%
%TO.N,+3.3V*%
X179697064Y-49188987D03*
D20*
%TO.P,U18,CN2-2,GND*%
%TO.N,GND*%
X179697064Y-51728987D03*
%TO.P,U18,CN2-3,V3V3*%
%TO.N,+3.3V*%
X177157064Y-49188987D03*
%TO.P,U18,CN2-4,GND*%
%TO.N,GND*%
X177157064Y-51728987D03*
%TO.P,U18,CN2-5,V3V3*%
%TO.N,+3.3V*%
X174617064Y-49188987D03*
%TO.P,U18,CN2-6,GND*%
%TO.N,GND*%
X174617064Y-51728987D03*
%TO.P,U18,CN2-7,AD0*%
%TO.N,unconnected-(U18-AD0-PadCN2-7)*%
X172077064Y-49188987D03*
%TO.P,U18,CN2-8,RESET#*%
%TO.N,+3.3V*%
X172077064Y-51728987D03*
%TO.P,U18,CN2-9,AD2*%
%TO.N,unconnected-(U18-AD2-PadCN2-9)*%
X169537064Y-49188987D03*
%TO.P,U18,CN2-10,AD1*%
%TO.N,unconnected-(U18-AD1-PadCN2-10)*%
X169537064Y-51728987D03*
%TO.P,U18,CN2-11,VIO*%
%TO.N,+3.3V*%
X166997064Y-49188987D03*
%TO.P,U18,CN2-12,AD3*%
%TO.N,unconnected-(U18-AD3-PadCN2-12)*%
X166997064Y-51728987D03*
%TO.P,U18,CN2-13,AD5*%
%TO.N,unconnected-(U18-AD5-PadCN2-13)*%
X164457064Y-49188987D03*
%TO.P,U18,CN2-14,AD4*%
%TO.N,unconnected-(U18-AD4-PadCN2-14)*%
X164457064Y-51728987D03*
%TO.P,U18,CN2-15,AD7*%
%TO.N,unconnected-(U18-AD7-PadCN2-15)*%
X161917064Y-49188987D03*
%TO.P,U18,CN2-16,AD6*%
%TO.N,unconnected-(U18-AD6-PadCN2-16)*%
X161917064Y-51728987D03*
%TO.P,U18,CN2-17,BD1*%
%TO.N,unconnected-(U18-BD1-PadCN2-17)*%
X159377064Y-49188987D03*
%TO.P,U18,CN2-18,BD0*%
%TO.N,unconnected-(U18-BD0-PadCN2-18)*%
X159377064Y-51728987D03*
%TO.P,U18,CN2-19,BD3*%
%TO.N,unconnected-(U18-BD3-PadCN2-19)*%
X156837064Y-49188987D03*
%TO.P,U18,CN2-20,BD2*%
%TO.N,unconnected-(U18-BD2-PadCN2-20)*%
X156837064Y-51728987D03*
%TO.P,U18,CN2-21,VIO*%
%TO.N,+3.3V*%
X154297064Y-49188987D03*
%TO.P,U18,CN2-22,BD4*%
%TO.N,/SpikeAndHoldDriverAndLEDs-2/TTLInput*%
X154297064Y-51728987D03*
%TO.P,U18,CN2-23,BD6*%
%TO.N,/SpikeAndHoldDriverAndLEDs-10/TTLInput*%
X151757064Y-49188987D03*
%TO.P,U18,CN2-24,BD5*%
%TO.N,/SpikeAndHoldDriverAndLEDs-1/TTLInput*%
X151757064Y-51728987D03*
%TO.P,U18,CN2-25,SUSPEND#*%
%TO.N,unconnected-(U18-SUSPEND#-PadCN2-25)*%
X149217064Y-49188987D03*
%TO.P,U18,CN2-26,BD7*%
%TO.N,/SpikeAndHoldDriverAndLEDs-9/TTLInput*%
X149217064Y-51728987D03*
D19*
%TO.P,U18,CN3-1,VBUS*%
%TO.N,Net-(U18-VBUS)*%
X179697064Y-72078987D03*
D20*
%TO.P,U18,CN3-2,GND*%
%TO.N,unconnected-(U18-GND-PadCN3-2)*%
X179687064Y-74618987D03*
%TO.P,U18,CN3-3,VCC*%
%TO.N,Net-(U18-VBUS)*%
X177157064Y-72078987D03*
%TO.P,U18,CN3-4,GND*%
%TO.N,unconnected-(U18-GND-PadCN3-4)*%
X177157064Y-74618987D03*
%TO.P,U18,CN3-5,CS*%
%TO.N,unconnected-(U18-CS-PadCN3-5)*%
X174617064Y-72078987D03*
%TO.P,U18,CN3-6,CLK*%
%TO.N,unconnected-(U18-CLK-PadCN3-6)*%
X174617064Y-74618987D03*
%TO.P,U18,CN3-7,DATA*%
%TO.N,unconnected-(U18-DATA-PadCN3-7)*%
X172077064Y-72078987D03*
%TO.P,U18,CN3-8,PWREN#*%
%TO.N,unconnected-(U18-PWREN#-PadCN3-8)*%
X172077064Y-74618987D03*
%TO.P,U18,CN3-9,DD7*%
%TO.N,unconnected-(U18-DD7-PadCN3-9)*%
X169537064Y-72078987D03*
%TO.P,U18,CN3-10,DD6*%
%TO.N,unconnected-(U18-DD6-PadCN3-10)*%
X169537064Y-74618987D03*
%TO.P,U18,CN3-11,DD5*%
%TO.N,unconnected-(U18-DD5-PadCN3-11)*%
X166997064Y-72078987D03*
%TO.P,U18,CN3-12,VIO*%
%TO.N,+3.3V*%
X166997064Y-74618987D03*
%TO.P,U18,CN3-13,DD4*%
%TO.N,/SpikeAndHoldDriverAndLEDs-16/TTLInput*%
X164457064Y-72078987D03*
%TO.P,U18,CN3-14,DD3*%
%TO.N,/SpikeAndHoldDriverAndLEDs-8/TTLInput*%
X164457064Y-74618987D03*
%TO.P,U18,CN3-15,DD2*%
%TO.N,/SpikeAndHoldDriverAndLEDs-15/TTLInput*%
X161917064Y-72078987D03*
%TO.P,U18,CN3-16,DD1*%
%TO.N,/SpikeAndHoldDriverAndLEDs-7/TTLInput*%
X161917064Y-74618987D03*
%TO.P,U18,CN3-17,DD0*%
%TO.N,/SpikeAndHoldDriverAndLEDs-14/TTLInput*%
X159377064Y-72078987D03*
%TO.P,U18,CN3-18,CD7*%
%TO.N,/SpikeAndHoldDriverAndLEDs-6/TTLInput*%
X159377064Y-74618987D03*
%TO.P,U18,CN3-19,CD6*%
%TO.N,unconnected-(U18-CD6-PadCN3-19)*%
X156837064Y-72078987D03*
%TO.P,U18,CN3-20,CD5*%
%TO.N,/SpikeAndHoldDriverAndLEDs-5/TTLInput*%
X156837064Y-74618987D03*
%TO.P,U18,CN3-21,CD4*%
%TO.N,/SpikeAndHoldDriverAndLEDs-13/TTLInput*%
X154297064Y-72078987D03*
%TO.P,U18,CN3-22,VIO*%
%TO.N,+3.3V*%
X154297064Y-74618987D03*
%TO.P,U18,CN3-23,CD3*%
%TO.N,/SpikeAndHoldDriverAndLEDs-4/TTLInput*%
X151757064Y-72078987D03*
%TO.P,U18,CN3-24,CD2*%
%TO.N,/SpikeAndHoldDriverAndLEDs-12/TTLInput*%
X151757064Y-74618987D03*
%TO.P,U18,CN3-25,CD1*%
%TO.N,/SpikeAndHoldDriverAndLEDs-3/TTLInput*%
X149217064Y-72078987D03*
%TO.P,U18,CN3-26,CD0*%
%TO.N,/SpikeAndHoldDriverAndLEDs-11/TTLInput*%
X149217064Y-74618987D03*
%TD*%
D12*
%TO.P,R10,1*%
%TO.N,GND*%
X135798803Y-61404199D03*
%TO.P,R10,2*%
%TO.N,Net-(Q2-G)*%
X132873803Y-61404199D03*
%TD*%
D13*
%TO.P,C20,1*%
%TO.N,+12V*%
X128417502Y-140416069D03*
%TO.P,C20,2*%
%TO.N,GND*%
X125467502Y-140416069D03*
%TD*%
D17*
%TO.P,D19,1,K*%
%TO.N,/SpikeAndHoldDriverAndLEDs-7/DriveOut*%
X120695002Y-138721069D03*
%TO.P,D19,2,A*%
%TO.N,GND*%
X117895002Y-138721069D03*
%TD*%
D12*
%TO.P,R6,1*%
%TO.N,Net-(D3-K)*%
X135755002Y-51654999D03*
%TO.P,R6,2*%
%TO.N,Net-(U1-STATUS_OK_FLAG)*%
X132830002Y-51654999D03*
%TD*%
D14*
%TO.P,D18,1,K*%
%TO.N,Net-(D18-K)*%
X173037500Y-118610000D03*
%TO.P,D18,2,A*%
%TO.N,+12V*%
X174912500Y-118610000D03*
%TD*%
D12*
%TO.P,R7,1*%
%TO.N,Net-(D5-K)*%
X135800002Y-59102499D03*
%TO.P,R7,2*%
%TO.N,Net-(Q2-D)*%
X132875002Y-59102499D03*
%TD*%
D14*
%TO.P,D15,1,K*%
%TO.N,Net-(D15-K)*%
X173062500Y-111560000D03*
%TO.P,D15,2,A*%
%TO.N,+12V*%
X174937500Y-111560000D03*
%TD*%
D13*
%TO.P,C5,1*%
%TO.N,+12V*%
X128367502Y-68787499D03*
%TO.P,C5,2*%
%TO.N,GND*%
X125417502Y-68787499D03*
%TD*%
D15*
%TO.P,U4,1,DUTY_CYCLE_ADJ*%
%TO.N,Net-(U4-DUTY_CYCLE_ADJ)*%
X123786503Y-90983927D03*
%TO.P,U4,2,DELAY_ADJ*%
%TO.N,Net-(U4-DELAY_ADJ)*%
X123786503Y-91633927D03*
%TO.P,U4,3,OSC_FREQ_ADJ*%
%TO.N,Net-(U4-OSC_FREQ_ADJ)*%
X123786503Y-92283927D03*
%TO.P,U4,4,MASTER*%
%TO.N,unconnected-(U4-MASTER-Pad4)*%
X123786503Y-92933927D03*
%TO.P,U4,5,BOOT*%
%TO.N,Net-(U4-BOOT)*%
X123786503Y-93583927D03*
%TO.P,U4,6,OUT1*%
%TO.N,/SpikeAndHoldDriverAndLEDs-4/DriveOut*%
X123786503Y-94233927D03*
%TO.P,U4,7,OUT2*%
X123786503Y-94883927D03*
%TO.P,U4,8,VPS2*%
%TO.N,+12V*%
X129386503Y-94883927D03*
%TO.P,U4,9,VPS1*%
X129386503Y-94233927D03*
%TO.P,U4,10,+VS*%
X129386503Y-93583927D03*
%TO.P,U4,11,GND*%
%TO.N,GND*%
X129386503Y-92933927D03*
%TO.P,U4,12,SYNC*%
%TO.N,unconnected-(U4-SYNC-Pad12)*%
X129386503Y-92283927D03*
%TO.P,U4,13,STATUS_OK_FLAG*%
%TO.N,Net-(U4-STATUS_OK_FLAG)*%
X129386503Y-91633927D03*
%TO.P,U4,14,INPUT*%
%TO.N,Net-(Q4-G)*%
X129386503Y-90983927D03*
D16*
%TO.P,U4,15,EPAD*%
%TO.N,GND*%
X126586503Y-92933927D03*
%TD*%
D12*
%TO.P,R18,1*%
%TO.N,Net-(D9-K)*%
X135830002Y-80268213D03*
%TO.P,R18,2*%
%TO.N,Net-(U3-STATUS_OK_FLAG)*%
X132905002Y-80268213D03*
%TD*%
D21*
%TO.P,Q8,1,G*%
%TO.N,Net-(Q8-G)*%
X129437502Y-146304283D03*
%TO.P,Q8,2,S*%
%TO.N,GND*%
X131337502Y-146304283D03*
%TO.P,Q8,3,D*%
%TO.N,Net-(Q8-D)*%
X130387502Y-144429283D03*
%TD*%
D12*
%TO.P,R24,1*%
%TO.N,Net-(D12-K)*%
X135830002Y-94593927D03*
%TO.P,R24,2*%
%TO.N,Net-(U4-STATUS_OK_FLAG)*%
X132905002Y-94593927D03*
%TD*%
D17*
%TO.P,D1,1,K*%
%TO.N,/SpikeAndHoldDriverAndLEDs-1/DriveOut*%
X120620002Y-52804999D03*
%TO.P,D1,2,A*%
%TO.N,GND*%
X117820002Y-52804999D03*
%TD*%
D12*
%TO.P,R13,1*%
%TO.N,Net-(D8-K)*%
X135850002Y-73428213D03*
%TO.P,R13,2*%
%TO.N,Net-(Q3-D)*%
X132925002Y-73428213D03*
%TD*%
%TO.P,R27,1*%
%TO.N,/SpikeAndHoldDriverAndLEDs-5/TTLInput*%
X135846503Y-106639641D03*
%TO.P,R27,2*%
%TO.N,Net-(Q5-G)*%
X132921503Y-106639641D03*
%TD*%
D14*
%TO.P,D2,1,K*%
%TO.N,Net-(D2-K)*%
X179087500Y-83360000D03*
%TO.P,D2,2,A*%
%TO.N,+12V*%
X180962500Y-83360000D03*
%TD*%
D12*
%TO.P,R21,1*%
%TO.N,/SpikeAndHoldDriverAndLEDs-4/TTLInput*%
X135846503Y-92313927D03*
%TO.P,R21,2*%
%TO.N,Net-(Q4-G)*%
X132921503Y-92313927D03*
%TD*%
D14*
%TO.P,D14,1,K*%
%TO.N,Net-(D14-K)*%
X179087500Y-111560000D03*
%TO.P,D14,2,A*%
%TO.N,+12V*%
X180962500Y-111560000D03*
%TD*%
D12*
%TO.P,R42,1*%
%TO.N,Net-(D21-K)*%
X135830002Y-137571069D03*
%TO.P,R42,2*%
%TO.N,Net-(U7-STATUS_OK_FLAG)*%
X132905002Y-137571069D03*
%TD*%
D14*
%TO.P,D21,1,K*%
%TO.N,Net-(D21-K)*%
X173037500Y-125660000D03*
%TO.P,D21,2,A*%
%TO.N,+12V*%
X174912500Y-125660000D03*
%TD*%
D12*
%TO.P,R12,1*%
%TO.N,Net-(D6-K)*%
X135780002Y-65942499D03*
%TO.P,R12,2*%
%TO.N,Net-(U2-STATUS_OK_FLAG)*%
X132855002Y-65942499D03*
%TD*%
%TO.P,R31,1*%
%TO.N,Net-(D17-K)*%
X135850002Y-116405355D03*
%TO.P,R31,2*%
%TO.N,Net-(Q6-D)*%
X132925002Y-116405355D03*
%TD*%
D21*
%TO.P,Q5,1,G*%
%TO.N,Net-(Q5-G)*%
X129417502Y-103327141D03*
%TO.P,Q5,2,S*%
%TO.N,GND*%
X131317502Y-103327141D03*
%TO.P,Q5,3,D*%
%TO.N,Net-(Q5-D)*%
X130367502Y-101452141D03*
%TD*%
D14*
%TO.P,D48,1,K*%
%TO.N,Net-(D48-K)*%
X161006830Y-132708222D03*
%TO.P,D48,2,A*%
%TO.N,+12V*%
X162881830Y-132708222D03*
%TD*%
D12*
%TO.P,R20,1*%
%TO.N,GND*%
X126720002Y-88853927D03*
%TO.P,R20,2*%
%TO.N,Net-(U4-DUTY_CYCLE_ADJ)*%
X123795002Y-88853927D03*
%TD*%
%TO.P,R32,1*%
%TO.N,GND*%
X126720002Y-117505355D03*
%TO.P,R32,2*%
%TO.N,Net-(U6-DUTY_CYCLE_ADJ)*%
X123795002Y-117505355D03*
%TD*%
D11*
%TO.P,C9,1*%
%TO.N,GND*%
X117832502Y-74578213D03*
%TO.P,C9,2*%
%TO.N,Net-(U3-DELAY_ADJ)*%
X120782502Y-74578213D03*
%TD*%
D12*
%TO.P,R2,1*%
%TO.N,GND*%
X126645002Y-45914999D03*
%TO.P,R2,2*%
%TO.N,Net-(U1-DUTY_CYCLE_ADJ)*%
X123720002Y-45914999D03*
%TD*%
D11*
%TO.P,C22,1*%
%TO.N,GND*%
X117832502Y-136451069D03*
%TO.P,C22,2*%
%TO.N,Net-(U7-BOOT)*%
X120782502Y-136451069D03*
%TD*%
D10*
%TO.P,R5,1*%
%TO.N,GND*%
X117761503Y-48244999D03*
%TO.P,R5,2*%
%TO.N,Net-(U1-OSC_FREQ_ADJ)*%
X120686503Y-48244999D03*
%TD*%
D14*
%TO.P,D8,1,K*%
%TO.N,Net-(D8-K)*%
X179087500Y-97460000D03*
%TO.P,D8,2,A*%
%TO.N,+12V*%
X180962500Y-97460000D03*
%TD*%
%TO.P,D32,1,K*%
%TO.N,Net-(D32-K)*%
X167053481Y-97457731D03*
%TO.P,D32,2,A*%
%TO.N,+12V*%
X168928481Y-97457731D03*
%TD*%
D11*
%TO.P,C21,1*%
%TO.N,GND*%
X117832502Y-131881069D03*
%TO.P,C21,2*%
%TO.N,Net-(U7-DELAY_ADJ)*%
X120782502Y-131881069D03*
%TD*%
D12*
%TO.P,R26,1*%
%TO.N,GND*%
X126720002Y-103179641D03*
%TO.P,R26,2*%
%TO.N,Net-(U5-DUTY_CYCLE_ADJ)*%
X123795002Y-103179641D03*
%TD*%
D14*
%TO.P,D36,1,K*%
%TO.N,Net-(D36-K)*%
X161003481Y-104507731D03*
%TO.P,D36,2,A*%
%TO.N,+12V*%
X162878481Y-104507731D03*
%TD*%
%TO.P,D12,1,K*%
%TO.N,Net-(D12-K)*%
X173037500Y-104510000D03*
%TO.P,D12,2,A*%
%TO.N,+12V*%
X174912500Y-104510000D03*
%TD*%
D10*
%TO.P,R17,1*%
%TO.N,GND*%
X117836503Y-76858213D03*
%TO.P,R17,2*%
%TO.N,Net-(U3-OSC_FREQ_ADJ)*%
X120761503Y-76858213D03*
%TD*%
D15*
%TO.P,U6,1,DUTY_CYCLE_ADJ*%
%TO.N,Net-(U6-DUTY_CYCLE_ADJ)*%
X123786503Y-119635355D03*
%TO.P,U6,2,DELAY_ADJ*%
%TO.N,Net-(U6-DELAY_ADJ)*%
X123786503Y-120285355D03*
%TO.P,U6,3,OSC_FREQ_ADJ*%
%TO.N,Net-(U6-OSC_FREQ_ADJ)*%
X123786503Y-120935355D03*
%TO.P,U6,4,MASTER*%
%TO.N,unconnected-(U6-MASTER-Pad4)*%
X123786503Y-121585355D03*
%TO.P,U6,5,BOOT*%
%TO.N,Net-(U6-BOOT)*%
X123786503Y-122235355D03*
%TO.P,U6,6,OUT1*%
%TO.N,/SpikeAndHoldDriverAndLEDs-6/DriveOut*%
X123786503Y-122885355D03*
%TO.P,U6,7,OUT2*%
X123786503Y-123535355D03*
%TO.P,U6,8,VPS2*%
%TO.N,+12V*%
X129386503Y-123535355D03*
%TO.P,U6,9,VPS1*%
X129386503Y-122885355D03*
%TO.P,U6,10,+VS*%
X129386503Y-122235355D03*
%TO.P,U6,11,GND*%
%TO.N,GND*%
X129386503Y-121585355D03*
%TO.P,U6,12,SYNC*%
%TO.N,unconnected-(U6-SYNC-Pad12)*%
X129386503Y-120935355D03*
%TO.P,U6,13,STATUS_OK_FLAG*%
%TO.N,Net-(U6-STATUS_OK_FLAG)*%
X129386503Y-120285355D03*
%TO.P,U6,14,INPUT*%
%TO.N,Net-(Q6-G)*%
X129386503Y-119635355D03*
D16*
%TO.P,U6,15,EPAD*%
%TO.N,GND*%
X126586503Y-121585355D03*
%TD*%
D12*
%TO.P,R22,1*%
%TO.N,GND*%
X135848803Y-90055627D03*
%TO.P,R22,2*%
%TO.N,Net-(Q4-G)*%
X132923803Y-90055627D03*
%TD*%
%TO.P,R36,1*%
%TO.N,Net-(D18-K)*%
X135830002Y-123245355D03*
%TO.P,R36,2*%
%TO.N,Net-(U6-STATUS_OK_FLAG)*%
X132905002Y-123245355D03*
%TD*%
D11*
%TO.P,C10,1*%
%TO.N,GND*%
X117832502Y-79148213D03*
%TO.P,C10,2*%
%TO.N,Net-(U3-BOOT)*%
X120782502Y-79148213D03*
%TD*%
%TO.P,C15,1*%
%TO.N,GND*%
X117832502Y-103229641D03*
%TO.P,C15,2*%
%TO.N,Net-(U5-DELAY_ADJ)*%
X120782502Y-103229641D03*
%TD*%
D15*
%TO.P,U7,1,DUTY_CYCLE_ADJ*%
%TO.N,Net-(U7-DUTY_CYCLE_ADJ)*%
X123786503Y-133961069D03*
%TO.P,U7,2,DELAY_ADJ*%
%TO.N,Net-(U7-DELAY_ADJ)*%
X123786503Y-134611069D03*
%TO.P,U7,3,OSC_FREQ_ADJ*%
%TO.N,Net-(U7-OSC_FREQ_ADJ)*%
X123786503Y-135261069D03*
%TO.P,U7,4,MASTER*%
%TO.N,unconnected-(U7-MASTER-Pad4)*%
X123786503Y-135911069D03*
%TO.P,U7,5,BOOT*%
%TO.N,Net-(U7-BOOT)*%
X123786503Y-136561069D03*
%TO.P,U7,6,OUT1*%
%TO.N,/SpikeAndHoldDriverAndLEDs-7/DriveOut*%
X123786503Y-137211069D03*
%TO.P,U7,7,OUT2*%
X123786503Y-137861069D03*
%TO.P,U7,8,VPS2*%
%TO.N,+12V*%
X129386503Y-137861069D03*
%TO.P,U7,9,VPS1*%
X129386503Y-137211069D03*
%TO.P,U7,10,+VS*%
X129386503Y-136561069D03*
%TO.P,U7,11,GND*%
%TO.N,GND*%
X129386503Y-135911069D03*
%TO.P,U7,12,SYNC*%
%TO.N,unconnected-(U7-SYNC-Pad12)*%
X129386503Y-135261069D03*
%TO.P,U7,13,STATUS_OK_FLAG*%
%TO.N,Net-(U7-STATUS_OK_FLAG)*%
X129386503Y-134611069D03*
%TO.P,U7,14,INPUT*%
%TO.N,Net-(Q7-G)*%
X129386503Y-133961069D03*
D16*
%TO.P,U7,15,EPAD*%
%TO.N,GND*%
X126586503Y-135911069D03*
%TD*%
D14*
%TO.P,D35,1,K*%
%TO.N,Net-(D35-K)*%
X167053481Y-104507731D03*
%TO.P,D35,2,A*%
%TO.N,+12V*%
X168928481Y-104507731D03*
%TD*%
D10*
%TO.P,R41,1*%
%TO.N,GND*%
X117836503Y-134161069D03*
%TO.P,R41,2*%
%TO.N,Net-(U7-OSC_FREQ_ADJ)*%
X120761503Y-134161069D03*
%TD*%
D12*
%TO.P,R25,1*%
%TO.N,Net-(D14-K)*%
X135850002Y-102079641D03*
%TO.P,R25,2*%
%TO.N,Net-(Q5-D)*%
X132925002Y-102079641D03*
%TD*%
D14*
%TO.P,D17,1,K*%
%TO.N,Net-(D17-K)*%
X179087500Y-118610000D03*
%TO.P,D17,2,A*%
%TO.N,+12V*%
X180962500Y-118610000D03*
%TD*%
D13*
%TO.P,C8,1*%
%TO.N,+12V*%
X128417502Y-83113213D03*
%TO.P,C8,2*%
%TO.N,GND*%
X125467502Y-83113213D03*
%TD*%
D14*
%TO.P,D6,1,K*%
%TO.N,Net-(D6-K)*%
X173037500Y-90410000D03*
%TO.P,D6,2,A*%
%TO.N,+12V*%
X174912500Y-90410000D03*
%TD*%
D26*
%TO.N,+12V*%
X164100000Y-132710000D03*
X127442502Y-114999999D03*
X127442502Y-100674999D03*
X128312502Y-156816783D03*
X150470000Y-149310000D03*
X128292502Y-128165355D03*
X127442502Y-86349999D03*
X170115000Y-118585000D03*
X170115000Y-111535000D03*
X129142502Y-99513927D03*
X164045000Y-125660000D03*
X129067502Y-43412499D03*
X153690000Y-155010000D03*
X127442502Y-85188213D03*
X127392502Y-70862499D03*
X182190000Y-118610000D03*
X176115000Y-118585000D03*
X153670000Y-149310000D03*
X129142502Y-142491069D03*
X170115000Y-97460000D03*
X128292502Y-85188213D03*
X128292502Y-114999999D03*
X127442502Y-128165355D03*
X153680000Y-153585000D03*
X128292502Y-100674999D03*
X127442502Y-113839641D03*
X182220000Y-132735000D03*
X152070000Y-149310000D03*
X182165000Y-83385000D03*
X176115000Y-104510000D03*
X176090000Y-83360000D03*
X129142502Y-113839641D03*
X129173501Y-143644999D03*
X164070000Y-97460000D03*
X164070000Y-104510000D03*
X150470000Y-150735000D03*
X182190000Y-104535000D03*
X128292502Y-142491069D03*
X170145000Y-132710000D03*
X152080000Y-152160000D03*
X128323501Y-143644999D03*
X129067502Y-56574999D03*
X128242502Y-70862499D03*
X152090000Y-155010000D03*
X128292502Y-99513927D03*
X150490000Y-155010000D03*
X153680000Y-152160000D03*
X176115000Y-97460000D03*
X170115000Y-90385000D03*
X129142502Y-85188213D03*
X128292502Y-86349999D03*
X176115000Y-90385000D03*
X127462502Y-156816783D03*
X129130999Y-129330000D03*
X150480000Y-153585000D03*
X153670000Y-150735000D03*
X129142502Y-128165355D03*
X170115000Y-104510000D03*
X128292502Y-113839641D03*
X127367502Y-43412499D03*
X128217502Y-56574999D03*
X127430999Y-129330000D03*
X182190000Y-90410000D03*
X127367502Y-56574999D03*
X129142502Y-86349999D03*
X128280999Y-129330000D03*
X129092502Y-70862499D03*
X176115000Y-111535000D03*
X129142502Y-72024999D03*
X129162502Y-156816783D03*
X182165000Y-125685000D03*
X127442502Y-99513927D03*
X129142502Y-114999999D03*
X176145000Y-132710000D03*
X129092502Y-57699999D03*
X182190000Y-111560000D03*
X164070000Y-111535000D03*
X128217502Y-43412499D03*
X182190000Y-97485000D03*
X152070000Y-150735000D03*
X128242502Y-57699999D03*
X164070000Y-90385000D03*
X127442502Y-72024999D03*
X129142502Y-100674999D03*
X127442502Y-142491069D03*
X176090000Y-125660000D03*
X128292502Y-72024999D03*
X127392502Y-57699999D03*
X164045000Y-83360000D03*
X164070000Y-118585000D03*
X152080000Y-153585000D03*
X127473501Y-143644999D03*
X170090000Y-83360000D03*
X170090000Y-125660000D03*
X150480000Y-152160000D03*
%TO.N,GND*%
X116367502Y-152916783D03*
X116367502Y-78044999D03*
X116377502Y-82624999D03*
X131317502Y-81194999D03*
X127280000Y-108630000D03*
X116302502Y-54012499D03*
X131317502Y-76018213D03*
X127270000Y-48660000D03*
X127250000Y-50020000D03*
X131317502Y-124169999D03*
X116377502Y-117565355D03*
X116377502Y-125599999D03*
X125840000Y-64360000D03*
X127260000Y-148950000D03*
X127250000Y-51370000D03*
X127280000Y-91650000D03*
X116428501Y-151984999D03*
X131317502Y-133321069D03*
X116327502Y-68299999D03*
X116377502Y-74588213D03*
X125870000Y-50010000D03*
X163770000Y-140730000D03*
X116397502Y-80364999D03*
X131317502Y-109844999D03*
X116272502Y-52674999D03*
X116377502Y-96949999D03*
X163770000Y-142840000D03*
X116335999Y-133230000D03*
X125880000Y-94350000D03*
X125900000Y-91640000D03*
X125880000Y-137260000D03*
X127260000Y-137270000D03*
X116302502Y-45974999D03*
X116397502Y-146216783D03*
X127300000Y-105920000D03*
X127260000Y-93010000D03*
X116347502Y-62522499D03*
X162170000Y-140730000D03*
X131317502Y-90343927D03*
X127220000Y-64370000D03*
X116365999Y-139930000D03*
X116397502Y-105499641D03*
X116347502Y-104574999D03*
X131317502Y-118995355D03*
X127280000Y-78730000D03*
X116347502Y-66039999D03*
X116272502Y-47312499D03*
X162170000Y-141760000D03*
X125960000Y-120270000D03*
X116367502Y-93493927D03*
X127340000Y-120280000D03*
X116377502Y-111274999D03*
X116322502Y-48234999D03*
X125920000Y-77360000D03*
X137115999Y-138790000D03*
X131267502Y-66869999D03*
X116397502Y-94689999D03*
X137052502Y-52872499D03*
X125940000Y-121630000D03*
X127320000Y-121640000D03*
X125900000Y-107270000D03*
X116347502Y-109939641D03*
X116367502Y-79168213D03*
X131317502Y-104669641D03*
X116292502Y-50554999D03*
X125900000Y-108620000D03*
X127240000Y-150310000D03*
X137127502Y-104379641D03*
X116367502Y-107819641D03*
X127280000Y-134560000D03*
X137127502Y-118705355D03*
X125880000Y-93000000D03*
X125880000Y-148940000D03*
X137147502Y-147356783D03*
X137127502Y-81484999D03*
X116408501Y-154244999D03*
X127260000Y-94360000D03*
X131317502Y-95519999D03*
X116398501Y-149664999D03*
X116367502Y-121019999D03*
X137127502Y-110134999D03*
X137077502Y-67159999D03*
X127220000Y-65720000D03*
X160520000Y-142840000D03*
X131267502Y-61692499D03*
X125870000Y-51360000D03*
X116322502Y-51752499D03*
X116347502Y-138591069D03*
X127240000Y-151660000D03*
X116397502Y-134151069D03*
X116377502Y-88913927D03*
X137127502Y-90053927D03*
X160520000Y-141760000D03*
X163770000Y-141760000D03*
X127260000Y-135920000D03*
X125940000Y-122980000D03*
X160520000Y-140730000D03*
X116397502Y-91173927D03*
X116397502Y-76848213D03*
X116367502Y-92369999D03*
X116327502Y-60262499D03*
X125840000Y-65710000D03*
X127320000Y-122990000D03*
X116387502Y-150796783D03*
X162170000Y-142840000D03*
X116377502Y-103239641D03*
X137127502Y-75728213D03*
X116317502Y-64842499D03*
X116347502Y-118899999D03*
X125860000Y-151650000D03*
X116317502Y-63719999D03*
X125880000Y-135910000D03*
X116377502Y-131891069D03*
X137127502Y-124459999D03*
X116385999Y-137670000D03*
X127240000Y-63010000D03*
X116397502Y-109014999D03*
X116347502Y-90249999D03*
X137077502Y-61402499D03*
X116347502Y-81288213D03*
X125860000Y-63000000D03*
X116417502Y-148476783D03*
X116297502Y-61599999D03*
X116397502Y-119825355D03*
X127300000Y-77370000D03*
X127280000Y-80080000D03*
X116367502Y-122145355D03*
X125900000Y-80070000D03*
X137127502Y-133031069D03*
X116292502Y-49432499D03*
X131337502Y-147646783D03*
X116355999Y-135350000D03*
X116347502Y-124265355D03*
X116378501Y-147544999D03*
X116367502Y-106694999D03*
X125900000Y-134550000D03*
X116297502Y-66962499D03*
X131242502Y-47404999D03*
X137052502Y-47114999D03*
X137127502Y-95809999D03*
X127280000Y-107280000D03*
X131242502Y-52582499D03*
X116347502Y-75924999D03*
X137158501Y-153104999D03*
X131305999Y-138500000D03*
X116397502Y-123339999D03*
X125920000Y-105910000D03*
X125860000Y-150300000D03*
X125900000Y-78720000D03*
X116347502Y-95613927D03*
X131348501Y-152814999D03*
X116367502Y-136471069D03*
X125890000Y-48650000D03*
%TO.N,Net-(D2-K)*%
X177425000Y-80860000D03*
X175870000Y-54250000D03*
%TO.N,Net-(D5-K)*%
X178400000Y-59160000D03*
X179050000Y-88610000D03*
%TO.N,Net-(D8-K)*%
X179087500Y-95622500D03*
X179050000Y-76735000D03*
%TO.N,Net-(D11-K)*%
X177325000Y-87810000D03*
X177850000Y-104485000D03*
%TO.N,Net-(D14-K)*%
X177700000Y-111410000D03*
X176850000Y-102060000D03*
%TO.N,Net-(D26-K)*%
X143175000Y-81335000D03*
%TO.N,Net-(D3-K)*%
X173800000Y-81335000D03*
X173275000Y-55210000D03*
%TO.N,Net-(D6-K)*%
X171675000Y-88510000D03*
X170700000Y-66710000D03*
%TO.N,Net-(D29-K)*%
X141375000Y-88585000D03*
%TO.N,Net-(D9-K)*%
X173025000Y-95560000D03*
X172775000Y-80285000D03*
%TO.N,Net-(D12-K)*%
X170850000Y-94585000D03*
X171650000Y-104460000D03*
%TO.N,Net-(D32-K)*%
X139850000Y-95360000D03*
%TO.N,Net-(D21-K)*%
X171450000Y-125685000D03*
X173088931Y-137571069D03*
%TO.N,Net-(D35-K)*%
X138050000Y-103085000D03*
%TO.N,Net-(D24-K)*%
X171650000Y-133735000D03*
X170850000Y-139360000D03*
%TO.N,Net-(D27-K)*%
X144225000Y-82935000D03*
%TO.N,Net-(D38-K)*%
X137425000Y-112385000D03*
%TO.N,Net-(D30-K)*%
X142075000Y-90660000D03*
%TO.N,Net-(D33-K)*%
X140750000Y-97160000D03*
%TO.N,Net-(D41-K)*%
X141775000Y-121260000D03*
%TO.N,Net-(D36-K)*%
X138875000Y-104335000D03*
%TO.N,Net-(D39-K)*%
X139300000Y-111585000D03*
%TO.N,Net-(D44-K)*%
X143600000Y-127760000D03*
%TO.N,Net-(D42-K)*%
X138190000Y-119920000D03*
%TO.N,Net-(D45-K)*%
X141775000Y-126510000D03*
%TO.N,Net-(D47-K)*%
X147050000Y-134685000D03*
%TO.N,Net-(D48-K)*%
X145550000Y-132810000D03*
%TO.N,/SpikeAndHoldDriverAndLEDs-2/TTLInput*%
X153775000Y-63585000D03*
%TO.N,/SpikeAndHoldDriverAndLEDs-3/TTLInput*%
X145550000Y-77988213D03*
%TO.N,/SpikeAndHoldDriverAndLEDs-4/TTLInput*%
X149650000Y-92285000D03*
%TO.N,/SpikeAndHoldDriverAndLEDs-5/TTLInput*%
X149830000Y-106640000D03*
%TO.N,/SpikeAndHoldDriverAndLEDs-6/TTLInput*%
X151440000Y-119620000D03*
%TO.N,/SpikeAndHoldDriverAndLEDs-7/TTLInput*%
X150975000Y-130535000D03*
%TO.N,/SpikeAndHoldDriverAndLEDs-8/TTLInput*%
X148525000Y-139510000D03*
%TO.N,/SpikeAndHoldDriverAndLEDs-9/TTLInput*%
X137575000Y-50560000D03*
%TO.N,/SpikeAndHoldDriverAndLEDs-10/TTLInput*%
X137700000Y-64860000D03*
X151625000Y-64860000D03*
%TO.N,/SpikeAndHoldDriverAndLEDs-11/TTLInput*%
X146750000Y-79135000D03*
X138100000Y-79135000D03*
%TO.N,/SpikeAndHoldDriverAndLEDs-12/TTLInput*%
X150640000Y-93560000D03*
X137540000Y-93560000D03*
%TO.N,/SpikeAndHoldDriverAndLEDs-13/TTLInput*%
X148550000Y-107670000D03*
X137600000Y-107790000D03*
%TO.N,/SpikeAndHoldDriverAndLEDs-14/TTLInput*%
X151450000Y-123335000D03*
X139425000Y-123335000D03*
%TO.N,/SpikeAndHoldDriverAndLEDs-15/TTLInput*%
X137829999Y-136530001D03*
X152175000Y-131485000D03*
%TO.N,/SpikeAndHoldDriverAndLEDs-16/TTLInput*%
X150100000Y-139600000D03*
X137650000Y-150830000D03*
%TD*%
D27*
%TO.N,+12V*%
X182188222Y-90408222D02*
X182190000Y-90410000D01*
X164043222Y-83358222D02*
X164045000Y-83360000D01*
X164068222Y-97458222D02*
X164070000Y-97460000D01*
X162826830Y-125658222D02*
X164043222Y-125658222D01*
X164068222Y-104508222D02*
X164070000Y-104510000D01*
X162851830Y-90383222D02*
X164068222Y-90383222D01*
X168896830Y-118583222D02*
X170113222Y-118583222D01*
X174871830Y-125658222D02*
X176088222Y-125658222D01*
X182188222Y-97483222D02*
X182190000Y-97485000D01*
X164068222Y-90383222D02*
X164070000Y-90385000D01*
X168926830Y-132708222D02*
X170143222Y-132708222D01*
X162881830Y-132708222D02*
X164098222Y-132708222D01*
X170113222Y-111533222D02*
X170115000Y-111535000D01*
X162851830Y-104508222D02*
X164068222Y-104508222D01*
X129386503Y-122235355D02*
X129386503Y-122885355D01*
X182163222Y-83383222D02*
X182165000Y-83385000D01*
X180946830Y-83383222D02*
X182163222Y-83383222D01*
X162851830Y-118583222D02*
X164068222Y-118583222D01*
X176113222Y-90383222D02*
X176115000Y-90385000D01*
X170088222Y-125658222D02*
X170090000Y-125660000D01*
X176088222Y-125658222D02*
X176090000Y-125660000D01*
X164043222Y-125658222D02*
X164045000Y-125660000D01*
X176088222Y-83358222D02*
X176090000Y-83360000D01*
X181001830Y-132733222D02*
X182218222Y-132733222D01*
X170113222Y-97458222D02*
X170115000Y-97460000D01*
X129406503Y-150886783D02*
X129406503Y-151536783D01*
X174896830Y-97458222D02*
X176113222Y-97458222D01*
X129386503Y-79258213D02*
X129386503Y-79908213D01*
X129386503Y-93583927D02*
X129386503Y-94233927D01*
X170113222Y-104508222D02*
X170115000Y-104510000D01*
X180946830Y-125683222D02*
X182163222Y-125683222D01*
X168871830Y-125658222D02*
X170088222Y-125658222D01*
X180971830Y-90408222D02*
X182188222Y-90408222D01*
X176143222Y-132708222D02*
X176145000Y-132710000D01*
X176113222Y-104508222D02*
X176115000Y-104510000D01*
X164068222Y-118583222D02*
X164070000Y-118585000D01*
X162851830Y-111533222D02*
X164068222Y-111533222D01*
X168896830Y-97458222D02*
X170113222Y-97458222D01*
X174871830Y-83358222D02*
X176088222Y-83358222D01*
X176113222Y-97458222D02*
X176115000Y-97460000D01*
X170113222Y-90383222D02*
X170115000Y-90385000D01*
X182218222Y-132733222D02*
X182220000Y-132735000D01*
X168871830Y-83358222D02*
X170088222Y-83358222D01*
X162851830Y-97458222D02*
X164068222Y-97458222D01*
X129386503Y-136561069D02*
X129386503Y-137211069D01*
X182188222Y-111558222D02*
X182190000Y-111560000D01*
X182188222Y-104533222D02*
X182190000Y-104535000D01*
X174896830Y-90383222D02*
X176113222Y-90383222D01*
X129386503Y-107909641D02*
X129386503Y-108559641D01*
X164068222Y-111533222D02*
X164070000Y-111535000D01*
X180971830Y-104533222D02*
X182188222Y-104533222D01*
X168896830Y-90383222D02*
X170113222Y-90383222D01*
X174926830Y-132708222D02*
X176143222Y-132708222D01*
X168896830Y-104508222D02*
X170113222Y-104508222D01*
X129336503Y-64932499D02*
X129336503Y-65582499D01*
X176113222Y-111533222D02*
X176115000Y-111535000D01*
X182188222Y-118608222D02*
X182190000Y-118610000D01*
X174896830Y-104508222D02*
X176113222Y-104508222D01*
X164098222Y-132708222D02*
X164100000Y-132710000D01*
X162826830Y-83358222D02*
X164043222Y-83358222D01*
X180971830Y-118608222D02*
X182188222Y-118608222D01*
X170088222Y-83358222D02*
X170090000Y-83360000D01*
X176113222Y-118583222D02*
X176115000Y-118585000D01*
X174896830Y-118583222D02*
X176113222Y-118583222D01*
X180971830Y-111558222D02*
X182188222Y-111558222D01*
X182163222Y-125683222D02*
X182165000Y-125685000D01*
X174896830Y-111533222D02*
X176113222Y-111533222D01*
X180971830Y-97483222D02*
X182188222Y-97483222D01*
X168896830Y-111533222D02*
X170113222Y-111533222D01*
X170143222Y-132708222D02*
X170145000Y-132710000D01*
X129311503Y-50644999D02*
X129311503Y-51294999D01*
X170113222Y-118583222D02*
X170115000Y-118585000D01*
%TO.N,GND*%
X116407502Y-119835355D02*
X116397502Y-119825355D01*
X135848803Y-90055627D02*
X137125802Y-90055627D01*
X137050802Y-47116699D02*
X137052502Y-47114999D01*
X129386503Y-92933927D02*
X127336503Y-92933927D01*
X131317502Y-131978569D02*
X131317502Y-133321069D01*
X137125802Y-104381341D02*
X137127502Y-104379641D01*
X129386503Y-107259641D02*
X127336503Y-107259641D01*
X116407502Y-105509641D02*
X116397502Y-105499641D01*
X129311503Y-49994999D02*
X127261503Y-49994999D01*
X117856503Y-148486783D02*
X116427502Y-148486783D01*
X129336503Y-64282499D02*
X127286503Y-64282499D01*
X129406503Y-150236783D02*
X127356503Y-150236783D01*
X135848803Y-118707055D02*
X137125802Y-118707055D01*
X117836503Y-105509641D02*
X116407502Y-105509641D01*
X137125802Y-90055627D02*
X137127502Y-90053927D01*
X135868803Y-147358483D02*
X137145802Y-147358483D01*
X135848803Y-75729913D02*
X137125802Y-75729913D01*
X137125802Y-133032769D02*
X137127502Y-133031069D01*
X116407502Y-76858213D02*
X116397502Y-76848213D01*
X129386503Y-78608213D02*
X127336503Y-78608213D01*
X135848803Y-133032769D02*
X137125802Y-133032769D01*
X116357502Y-62532499D02*
X116347502Y-62522499D01*
X129386503Y-135911069D02*
X127336503Y-135911069D01*
X116407502Y-134161069D02*
X116397502Y-134151069D01*
X137145802Y-147358483D02*
X137147502Y-147356783D01*
X131267502Y-60349999D02*
X131267502Y-61692499D01*
X131317502Y-74675713D02*
X131317502Y-76018213D01*
X135848803Y-104381341D02*
X137125802Y-104381341D01*
X117786503Y-62532499D02*
X116357502Y-62532499D01*
X116332502Y-48244999D02*
X116322502Y-48234999D01*
X117836503Y-76858213D02*
X116407502Y-76858213D01*
X117836503Y-91183927D02*
X116407502Y-91183927D01*
X131317502Y-103327141D02*
X131317502Y-104669641D01*
X135773803Y-47116699D02*
X137050802Y-47116699D01*
X117836503Y-119835355D02*
X116407502Y-119835355D01*
X131317502Y-89001427D02*
X131317502Y-90343927D01*
X131337502Y-146304283D02*
X131337502Y-147646783D01*
X135798803Y-61404199D02*
X137075802Y-61404199D01*
X116427502Y-148486783D02*
X116417502Y-148476783D01*
X129386503Y-121585355D02*
X127336503Y-121585355D01*
X137125802Y-118707055D02*
X137127502Y-118705355D01*
X117761503Y-48244999D02*
X116332502Y-48244999D01*
X137125802Y-75729913D02*
X137127502Y-75728213D01*
X137075802Y-61404199D02*
X137077502Y-61402499D01*
X131242502Y-46062499D02*
X131242502Y-47404999D01*
X117836503Y-134161069D02*
X116407502Y-134161069D01*
X116407502Y-91183927D02*
X116397502Y-91173927D01*
X131317502Y-117652855D02*
X131317502Y-118995355D01*
%TO.N,Net-(U1-BOOT)*%
X120817502Y-50644999D02*
X120707502Y-50534999D01*
X123711503Y-50644999D02*
X120817502Y-50644999D01*
%TO.N,Net-(U2-BOOT)*%
X123736503Y-64932499D02*
X120842502Y-64932499D01*
X120842502Y-64932499D02*
X120732502Y-64822499D01*
%TO.N,Net-(U3-BOOT)*%
X123786503Y-79258213D02*
X120892502Y-79258213D01*
X120892502Y-79258213D02*
X120782502Y-79148213D01*
%TO.N,Net-(U4-BOOT)*%
X120892502Y-93583927D02*
X120782502Y-93473927D01*
X123786503Y-93583927D02*
X120892502Y-93583927D01*
%TO.N,Net-(U5-BOOT)*%
X123786503Y-107909641D02*
X120892502Y-107909641D01*
X120892502Y-107909641D02*
X120782502Y-107799641D01*
%TO.N,Net-(U6-BOOT)*%
X123786503Y-122235355D02*
X120892502Y-122235355D01*
X120892502Y-122235355D02*
X120782502Y-122125355D01*
%TO.N,Net-(U7-BOOT)*%
X123786503Y-136561069D02*
X120892502Y-136561069D01*
X120892502Y-136561069D02*
X120782502Y-136451069D01*
%TO.N,Net-(U8-BOOT)*%
X120912502Y-150886783D02*
X120802502Y-150776783D01*
X123806503Y-150886783D02*
X120912502Y-150886783D01*
%TO.N,Net-(U1-DELAY_ADJ)*%
X123711503Y-48694999D02*
X122761503Y-48694999D01*
X122761503Y-48694999D02*
X122122502Y-48055998D01*
X120992501Y-45964998D02*
X120707502Y-45964998D01*
X122122502Y-47094999D02*
X120992501Y-45964998D01*
X122122502Y-48055998D02*
X122122502Y-47094999D01*
%TO.N,Net-(U2-DELAY_ADJ)*%
X122786503Y-62982499D02*
X122147502Y-62343498D01*
X122147502Y-61382499D02*
X121017501Y-60252498D01*
X122147502Y-62343498D02*
X122147502Y-61382499D01*
X123736503Y-62982499D02*
X122786503Y-62982499D01*
X121017501Y-60252498D02*
X120732502Y-60252498D01*
%TO.N,Net-(U3-DELAY_ADJ)*%
X122836503Y-77308213D02*
X122197502Y-76669212D01*
X122197502Y-75708213D02*
X121067501Y-74578212D01*
X122197502Y-76669212D02*
X122197502Y-75708213D01*
X121067501Y-74578212D02*
X120782502Y-74578212D01*
X123786503Y-77308213D02*
X122836503Y-77308213D01*
%TO.N,Net-(U4-DELAY_ADJ)*%
X122197502Y-90033927D02*
X121067501Y-88903926D01*
X123786503Y-91633927D02*
X122836503Y-91633927D01*
X122197502Y-90994926D02*
X122197502Y-90033927D01*
X122836503Y-91633927D02*
X122197502Y-90994926D01*
X121067501Y-88903926D02*
X120782502Y-88903926D01*
%TO.N,Net-(D17-K)*%
X176882855Y-116405355D02*
X179087500Y-118610000D01*
X135850002Y-116405355D02*
X176882855Y-116405355D01*
%TO.N,Net-(U5-DELAY_ADJ)*%
X122197502Y-104359641D02*
X121067501Y-103229640D01*
X123786503Y-105959641D02*
X122836503Y-105959641D01*
X121067501Y-103229640D02*
X120782502Y-103229640D01*
X122836503Y-105959641D02*
X122197502Y-105320640D01*
X122197502Y-105320640D02*
X122197502Y-104359641D01*
%TO.N,Net-(U6-DELAY_ADJ)*%
X123786503Y-120285355D02*
X122836503Y-120285355D01*
X122836503Y-120285355D02*
X122197502Y-119646354D01*
X122197502Y-118685355D02*
X121067501Y-117555354D01*
X122197502Y-119646354D02*
X122197502Y-118685355D01*
X121067501Y-117555354D02*
X120782502Y-117555354D01*
%TO.N,Net-(D20-K)*%
X175362500Y-129385000D02*
X179087500Y-125660000D01*
X137196071Y-129385000D02*
X175362500Y-129385000D01*
X135850002Y-130731069D02*
X137196071Y-129385000D01*
%TO.N,Net-(U7-DELAY_ADJ)*%
X122197502Y-133011069D02*
X121067501Y-131881068D01*
X123786503Y-134611069D02*
X122836503Y-134611069D01*
X122836503Y-134611069D02*
X122197502Y-133972068D01*
X122197502Y-133972068D02*
X122197502Y-133011069D01*
X121067501Y-131881068D02*
X120782502Y-131881068D01*
%TO.N,Net-(U8-DELAY_ADJ)*%
X122217502Y-147336783D02*
X121087501Y-146206782D01*
X121087501Y-146206782D02*
X120802502Y-146206782D01*
X122217502Y-148297782D02*
X122217502Y-147336783D01*
X122856503Y-148936783D02*
X122217502Y-148297782D01*
X123806503Y-148936783D02*
X122856503Y-148936783D01*
%TO.N,Net-(D23-K)*%
X175575000Y-138460000D02*
X175600000Y-138485000D01*
X135870002Y-145056783D02*
X142466785Y-138460000D01*
X142466785Y-138460000D02*
X175575000Y-138460000D01*
X175600000Y-138485000D02*
X179087500Y-134997500D01*
X179087500Y-134997500D02*
X179087500Y-132710000D01*
D28*
%TO.N,+3.3V*%
X166997064Y-76782936D02*
X166990000Y-76790000D01*
X154360000Y-76280000D02*
X154297062Y-76217062D01*
X166990000Y-76790000D02*
X166390000Y-76790000D01*
X166390000Y-76790000D02*
X166370000Y-76770000D01*
D27*
X177091012Y-49188988D02*
X177091007Y-49188983D01*
D28*
X154360000Y-76770000D02*
X154360000Y-76280000D01*
D27*
X177157064Y-49188988D02*
X177091012Y-49188988D01*
D28*
X154297062Y-76217062D02*
X154297062Y-74618991D01*
D27*
X174617064Y-49188987D02*
X174617064Y-49188983D01*
D28*
X166997064Y-74618987D02*
X166997064Y-76782936D01*
X166370000Y-76770000D02*
X154360000Y-76770000D01*
D27*
X177157067Y-49188985D02*
X177157064Y-49188988D01*
%TO.N,Net-(D2-K)*%
X173625000Y-44815000D02*
X135775000Y-44815000D01*
X175870000Y-54250000D02*
X175870000Y-47060000D01*
X179087500Y-83360000D02*
X179087500Y-82522500D01*
X175870000Y-47060000D02*
X173625000Y-44815000D01*
X179087500Y-82522500D02*
X177425000Y-80860000D01*
%TO.N,Net-(D5-K)*%
X178342499Y-59102499D02*
X178400000Y-59160000D01*
X179087500Y-90410000D02*
X179087500Y-88647500D01*
X135800002Y-59102499D02*
X178342499Y-59102499D01*
X179087500Y-88647500D02*
X179050000Y-88610000D01*
%TO.N,Net-(D8-K)*%
X177135000Y-78650000D02*
X148250000Y-78650000D01*
X179075000Y-95610000D02*
X179087500Y-95622500D01*
X146730000Y-77130000D02*
X142370000Y-77130000D01*
X138668213Y-73428213D02*
X135850002Y-73428213D01*
X179050000Y-76735000D02*
X177135000Y-78650000D01*
X148250000Y-78650000D02*
X146730000Y-77130000D01*
X142370000Y-77130000D02*
X138668213Y-73428213D01*
X179087500Y-97460000D02*
X179087500Y-95622500D01*
%TO.N,Net-(D11-K)*%
X179087500Y-104510000D02*
X177875000Y-104510000D01*
X177875000Y-104510000D02*
X177850000Y-104485000D01*
X177268927Y-87753927D02*
X177325000Y-87810000D01*
X135850002Y-87753927D02*
X177268927Y-87753927D01*
%TO.N,Net-(D14-K)*%
X135850002Y-102079641D02*
X176830359Y-102079641D01*
X176830359Y-102079641D02*
X176850000Y-102060000D01*
X178937500Y-111410000D02*
X179087500Y-111560000D01*
X177700000Y-111410000D02*
X178937500Y-111410000D01*
%TO.N,Net-(D26-K)*%
X165030750Y-81335000D02*
X143175000Y-81335000D01*
X167053481Y-83357731D02*
X165030750Y-81335000D01*
%TO.N,Net-(D3-K)*%
X143620000Y-51655000D02*
X147175000Y-55210000D01*
X173037500Y-82097500D02*
X173800000Y-81335000D01*
X147175000Y-55210000D02*
X173275000Y-55210000D01*
X173037500Y-83360000D02*
X173037500Y-82097500D01*
X135755000Y-51655000D02*
X143620000Y-51655000D01*
%TO.N,Net-(D6-K)*%
X173037500Y-89872500D02*
X171675000Y-88510000D01*
X147882499Y-65942499D02*
X148613996Y-66673996D01*
X170663996Y-66673996D02*
X170700000Y-66710000D01*
X148613996Y-66673996D02*
X170663996Y-66673996D01*
X173037500Y-90410000D02*
X173037500Y-89872500D01*
X135780002Y-65942499D02*
X147882499Y-65942499D01*
%TO.N,Net-(D29-K)*%
X141400000Y-88610000D02*
X165255750Y-88610000D01*
X141375000Y-88585000D02*
X141400000Y-88610000D01*
X165255750Y-88610000D02*
X167053481Y-90407731D01*
%TO.N,Net-(D9-K)*%
X173037500Y-97460000D02*
X173037500Y-95572500D01*
X172758213Y-80268213D02*
X172775000Y-80285000D01*
X135830002Y-80268213D02*
X172758213Y-80268213D01*
X173037500Y-95572500D02*
X173025000Y-95560000D01*
%TO.N,Net-(D12-K)*%
X170841073Y-94593927D02*
X170850000Y-94585000D01*
X135830002Y-94593927D02*
X170841073Y-94593927D01*
X173037500Y-104510000D02*
X171700000Y-104510000D01*
X171700000Y-104510000D02*
X171650000Y-104460000D01*
%TO.N,Net-(D15-K)*%
X170422141Y-108919641D02*
X173062500Y-111560000D01*
X135830002Y-108919641D02*
X170422141Y-108919641D01*
%TO.N,Net-(D32-K)*%
X165130750Y-95535000D02*
X167053481Y-97457731D01*
X140025000Y-95535000D02*
X165130750Y-95535000D01*
X139850000Y-95360000D02*
X140025000Y-95535000D01*
%TO.N,Net-(D18-K)*%
X136665357Y-122410000D02*
X169237500Y-122410000D01*
X169237500Y-122410000D02*
X173037500Y-118610000D01*
X135830002Y-123245355D02*
X136665357Y-122410000D01*
%TO.N,Net-(D21-K)*%
X135830002Y-137571069D02*
X173088931Y-137571069D01*
X173088931Y-137571069D02*
X173100000Y-137560000D01*
X173037500Y-125660000D02*
X171475000Y-125660000D01*
X171475000Y-125660000D02*
X171450000Y-125685000D01*
%TO.N,Net-(D35-K)*%
X138050000Y-103085000D02*
X138150000Y-102985000D01*
X138150000Y-102985000D02*
X165530750Y-102985000D01*
X165530750Y-102985000D02*
X167053481Y-104507731D01*
%TO.N,Net-(D24-K)*%
X135850002Y-151896783D02*
X140033217Y-151896783D01*
X172675000Y-132710000D02*
X173037500Y-132710000D01*
X152570000Y-139360000D02*
X170850000Y-139360000D01*
X171650000Y-133735000D02*
X172675000Y-132710000D01*
X140033217Y-151896783D02*
X152570000Y-139360000D01*
%TO.N,Net-(D27-K)*%
X161003481Y-83357731D02*
X144647731Y-83357731D01*
X144647731Y-83357731D02*
X144225000Y-82935000D01*
%TO.N,Net-(D38-K)*%
X138199998Y-113159998D02*
X137425000Y-112385000D01*
X165451214Y-113159998D02*
X138199998Y-113159998D01*
X167053481Y-111557731D02*
X165451214Y-113159998D01*
%TO.N,Net-(D30-K)*%
X142075000Y-90660000D02*
X142327269Y-90407731D01*
X142327269Y-90407731D02*
X161003481Y-90407731D01*
%TO.N,Net-(D33-K)*%
X141047731Y-97457731D02*
X161003481Y-97457731D01*
X140750000Y-97160000D02*
X141047731Y-97457731D01*
%TO.N,Net-(D41-K)*%
X141775000Y-121260000D02*
X152575000Y-121260000D01*
X165601212Y-120060000D02*
X167053481Y-118607731D01*
X152575000Y-121260000D02*
X153775000Y-120060000D01*
X153775000Y-120060000D02*
X165601212Y-120060000D01*
%TO.N,Net-(D36-K)*%
X138875000Y-104335000D02*
X139047731Y-104507731D01*
X139047731Y-104507731D02*
X161003481Y-104507731D01*
%TO.N,Net-(D39-K)*%
X139327269Y-111557731D02*
X139300000Y-111585000D01*
X161003481Y-111557731D02*
X139327269Y-111557731D01*
%TO.N,Net-(D44-K)*%
X144025000Y-127760000D02*
X144700000Y-127085000D01*
X143600000Y-127760000D02*
X144025000Y-127760000D01*
X165626212Y-127085000D02*
X167053481Y-125657731D01*
X144700000Y-127085000D02*
X165626212Y-127085000D01*
%TO.N,Net-(D42-K)*%
X139502269Y-118607731D02*
X138190000Y-119920000D01*
X161003481Y-118607731D02*
X139502269Y-118607731D01*
%TO.N,Net-(D45-K)*%
X160151212Y-126510000D02*
X141775000Y-126510000D01*
X161003481Y-125657731D02*
X160151212Y-126510000D01*
%TO.N,Net-(D47-K)*%
X165676212Y-134085000D02*
X147650000Y-134085000D01*
X167053481Y-132707731D02*
X165676212Y-134085000D01*
X147650000Y-134085000D02*
X147050000Y-134685000D01*
%TO.N,Net-(D48-K)*%
X161006830Y-132708222D02*
X145651778Y-132708222D01*
X145651778Y-132708222D02*
X145550000Y-132810000D01*
%TO.N,Net-(U18-VBUS)*%
X179697064Y-72078987D02*
X177157064Y-72078987D01*
D29*
%TO.N,/SpikeAndHoldDriverAndLEDs-1/DriveOut*%
X122500000Y-53560000D02*
X119525000Y-56535000D01*
X110742500Y-56535000D02*
X106637502Y-60639998D01*
X119525000Y-56535000D02*
X110742500Y-56535000D01*
D27*
X123711503Y-51294999D02*
X123711503Y-51944999D01*
D29*
%TO.N,/SpikeAndHoldDriverAndLEDs-2/DriveOut*%
X122425000Y-67760000D02*
X121725000Y-68460000D01*
X119385002Y-70799998D02*
X122425000Y-67760000D01*
D27*
X123736503Y-65582499D02*
X123736503Y-66232499D01*
D29*
X106637501Y-70799998D02*
X119385002Y-70799998D01*
%TO.N,/SpikeAndHoldDriverAndLEDs-3/DriveOut*%
X118525000Y-84910000D02*
X119300000Y-84910000D01*
X109175001Y-80960001D02*
X112400000Y-84185000D01*
X119300000Y-84910000D02*
X122350000Y-81860000D01*
D27*
X123786503Y-79908213D02*
X123786503Y-80558213D01*
D29*
X106637500Y-80960001D02*
X109175001Y-80960001D01*
X112400000Y-84185000D02*
X113125000Y-84910000D01*
X113125000Y-84910000D02*
X118525000Y-84910000D01*
%TO.N,/SpikeAndHoldDriverAndLEDs-4/DriveOut*%
X122350000Y-96185000D02*
X122350000Y-96085000D01*
X112225000Y-93460000D02*
X112425000Y-93660000D01*
X109884999Y-91119999D02*
X112225000Y-93460000D01*
X119100000Y-99435000D02*
X119225000Y-99310000D01*
D27*
X123786503Y-94233927D02*
X123786503Y-94883927D01*
D29*
X112425000Y-97735000D02*
X112425000Y-97810000D01*
X119225000Y-99310000D02*
X122350000Y-96185000D01*
X112425000Y-93660000D02*
X112425000Y-97735000D01*
X106637500Y-91119999D02*
X109884999Y-91119999D01*
X112425000Y-97810000D02*
X114050000Y-99435000D01*
X114050000Y-99435000D02*
X119100000Y-99435000D01*
%TO.N,/SpikeAndHoldDriverAndLEDs-5/DriveOut*%
X110329998Y-103439998D02*
X112250000Y-105360000D01*
X118800000Y-113910000D02*
X122000000Y-110710000D01*
X114025000Y-113910000D02*
X118800000Y-113910000D01*
X112250000Y-105360000D02*
X112325000Y-105435000D01*
X112325000Y-105435000D02*
X112325000Y-111210000D01*
X112325000Y-112210000D02*
X113725000Y-113610000D01*
X112325000Y-111210000D02*
X112325000Y-112210000D01*
X122000000Y-110710000D02*
X122100000Y-110710000D01*
X113725000Y-113610000D02*
X114025000Y-113910000D01*
D27*
X123786503Y-108559641D02*
X123786503Y-109209641D01*
D29*
X106662502Y-103439998D02*
X110329998Y-103439998D01*
%TO.N,/SpikeAndHoldDriverAndLEDs-6/DriveOut*%
X114050000Y-125860000D02*
X116650000Y-128460000D01*
X106662501Y-113599998D02*
X108339998Y-113599998D01*
X108339998Y-113599998D02*
X114050000Y-119310000D01*
X119500000Y-128460000D02*
X122250000Y-125710000D01*
X114050000Y-119310000D02*
X114050000Y-125860000D01*
X116650000Y-128460000D02*
X119500000Y-128460000D01*
X122250000Y-125710000D02*
X122250000Y-124985000D01*
D27*
X123786503Y-122885355D02*
X123786503Y-123535355D01*
D29*
%TO.N,/SpikeAndHoldDriverAndLEDs-7/DriveOut*%
X113850000Y-129881184D02*
X113850000Y-140635000D01*
D27*
X123786503Y-137211069D02*
X123786503Y-137861069D01*
D29*
X119425000Y-142510000D02*
X122475000Y-139460000D01*
X115725000Y-142510000D02*
X119425000Y-142510000D01*
X107728817Y-123760001D02*
X113850000Y-129881184D01*
X106662500Y-123760001D02*
X107728817Y-123760001D01*
X113850000Y-140635000D02*
X115725000Y-142510000D01*
D27*
%TO.N,/SpikeAndHoldDriverAndLEDs-8/DriveOut*%
X123806503Y-151536783D02*
X123806503Y-152186783D01*
D29*
X110750000Y-154935000D02*
X112200000Y-156385000D01*
X110675000Y-135210000D02*
X110675000Y-145310000D01*
X109384999Y-133919999D02*
X110675000Y-135210000D01*
X106662500Y-133919999D02*
X109384999Y-133919999D01*
X110750000Y-145385000D02*
X110750000Y-154935000D01*
X120250000Y-156385000D02*
X122775000Y-153860000D01*
X110675000Y-145310000D02*
X110750000Y-145385000D01*
X112200000Y-156385000D02*
X120250000Y-156385000D01*
D27*
%TO.N,Net-(Q1-G)*%
X132846503Y-47118999D02*
X132848803Y-47116699D01*
X132846503Y-49374999D02*
X132846503Y-47118999D01*
X129311503Y-48044999D02*
X129396503Y-48129999D01*
X129396503Y-48129999D02*
X131835503Y-48129999D01*
X131835503Y-48129999D02*
X132848803Y-47116699D01*
X129311503Y-48044999D02*
X129311503Y-46093498D01*
X129311503Y-46093498D02*
X129342502Y-46062499D01*
%TO.N,Net-(Q2-G)*%
X131860503Y-62417499D02*
X132873803Y-61404199D01*
X129421503Y-62417499D02*
X131860503Y-62417499D01*
X129336503Y-62332499D02*
X129421503Y-62417499D01*
X132871503Y-63662499D02*
X132871503Y-61406499D01*
X132871503Y-61406499D02*
X132873803Y-61404199D01*
X129336503Y-62332499D02*
X129336503Y-60380998D01*
X129336503Y-60380998D02*
X129367502Y-60349999D01*
%TO.N,Net-(Q3-G)*%
X132921503Y-75732213D02*
X132923803Y-75729913D01*
X131910503Y-76743213D02*
X132923803Y-75729913D01*
X129386503Y-76658213D02*
X129386503Y-74706712D01*
X129386503Y-74706712D02*
X129417502Y-74675713D01*
X132921503Y-77988213D02*
X132921503Y-75732213D01*
X129471503Y-76743213D02*
X131910503Y-76743213D01*
X129386503Y-76658213D02*
X129471503Y-76743213D01*
%TO.N,Net-(Q4-G)*%
X132921503Y-90057927D02*
X132923803Y-90055627D01*
X129386503Y-89032426D02*
X129417502Y-89001427D01*
X129471503Y-91068927D02*
X131910503Y-91068927D01*
X129386503Y-90983927D02*
X129471503Y-91068927D01*
X129386503Y-90983927D02*
X129386503Y-89032426D01*
X132921503Y-92313927D02*
X132921503Y-90057927D01*
X131910503Y-91068927D02*
X132923803Y-90055627D01*
%TO.N,Net-(Q5-G)*%
X129471503Y-105394641D02*
X131910503Y-105394641D01*
X129386503Y-105309641D02*
X129386503Y-103358140D01*
X132921503Y-104383641D02*
X132923803Y-104381341D01*
X131910503Y-105394641D02*
X132923803Y-104381341D01*
X132921503Y-106639641D02*
X132921503Y-104383641D01*
X129386503Y-105309641D02*
X129471503Y-105394641D01*
X129386503Y-103358140D02*
X129417502Y-103327141D01*
%TO.N,Net-(Q6-G)*%
X129386503Y-119635355D02*
X129386503Y-117683854D01*
X131910503Y-119720355D02*
X132923803Y-118707055D01*
X129471503Y-119720355D02*
X131910503Y-119720355D01*
X132921503Y-118709355D02*
X132923803Y-118707055D01*
X129386503Y-119635355D02*
X129471503Y-119720355D01*
X129386503Y-117683854D02*
X129417502Y-117652855D01*
X132921503Y-120965355D02*
X132921503Y-118709355D01*
%TO.N,Net-(Q7-G)*%
X129386503Y-132009568D02*
X129417502Y-131978569D01*
X132921503Y-133035069D02*
X132923803Y-133032769D01*
X131910503Y-134046069D02*
X132923803Y-133032769D01*
X132921503Y-135291069D02*
X132921503Y-133035069D01*
X129471503Y-134046069D02*
X131910503Y-134046069D01*
X129386503Y-133961069D02*
X129386503Y-132009568D01*
X129386503Y-133961069D02*
X129471503Y-134046069D01*
%TO.N,Net-(Q8-G)*%
X129406503Y-146335282D02*
X129437502Y-146304283D01*
X132941503Y-147360783D02*
X132943803Y-147358483D01*
X129491503Y-148371783D02*
X131930503Y-148371783D01*
X132941503Y-149616783D02*
X132941503Y-147360783D01*
X131930503Y-148371783D02*
X132943803Y-147358483D01*
X129406503Y-148286783D02*
X129491503Y-148371783D01*
X129406503Y-148286783D02*
X129406503Y-146335282D01*
%TO.N,/SpikeAndHoldDriverAndLEDs-1/TTLInput*%
X147499472Y-49374999D02*
X138585001Y-49374999D01*
X151757060Y-51728985D02*
X150363075Y-50335000D01*
X135771503Y-49374999D02*
X138585001Y-49374999D01*
X148459473Y-50335000D02*
X147499472Y-49374999D01*
X150363075Y-50335000D02*
X148459473Y-50335000D01*
%TO.N,/SpikeAndHoldDriverAndLEDs-2/TTLInput*%
X135796503Y-63662499D02*
X153697501Y-63662499D01*
X153697501Y-63662499D02*
X153775000Y-63585000D01*
%TO.N,/SpikeAndHoldDriverAndLEDs-3/TTLInput*%
X145550000Y-77988213D02*
X135846503Y-77988213D01*
%TO.N,/SpikeAndHoldDriverAndLEDs-4/TTLInput*%
X149621073Y-92313927D02*
X149650000Y-92285000D01*
X135846503Y-92313927D02*
X149621073Y-92313927D01*
%TO.N,/SpikeAndHoldDriverAndLEDs-5/TTLInput*%
X149829641Y-106639641D02*
X149830000Y-106640000D01*
X135846503Y-106639641D02*
X149829641Y-106639641D01*
%TO.N,/SpikeAndHoldDriverAndLEDs-6/TTLInput*%
X139419645Y-120965355D02*
X139985000Y-120400000D01*
X150660000Y-120400000D02*
X151440000Y-119620000D01*
X135846503Y-120965355D02*
X139419645Y-120965355D01*
X139985000Y-120400000D02*
X150660000Y-120400000D01*
%TO.N,/SpikeAndHoldDriverAndLEDs-7/TTLInput*%
X142750000Y-133785000D02*
X142750000Y-131185000D01*
X142750000Y-131185000D02*
X143350000Y-130585000D01*
X135846503Y-135291069D02*
X141243931Y-135291069D01*
X143350000Y-130585000D02*
X150925000Y-130585000D01*
X150925000Y-130585000D02*
X150975000Y-130535000D01*
X141243931Y-135291069D02*
X142750000Y-133785000D01*
%TO.N,/SpikeAndHoldDriverAndLEDs-8/TTLInput*%
X138418217Y-149616783D02*
X148525000Y-139510000D01*
X135866503Y-149616783D02*
X138418217Y-149616783D01*
%TO.N,/SpikeAndHoldDriverAndLEDs-9/TTLInput*%
X137575000Y-50560000D02*
X138700000Y-50560000D01*
X138850000Y-50710000D02*
X145175000Y-50710000D01*
X138700000Y-50560000D02*
X138850000Y-50710000D01*
X145175000Y-50710000D02*
X146193987Y-51728987D01*
X146193987Y-51728987D02*
X149217064Y-51728987D01*
%TO.N,/SpikeAndHoldDriverAndLEDs-10/TTLInput*%
X151625000Y-64860000D02*
X137700000Y-64860000D01*
%TO.N,/SpikeAndHoldDriverAndLEDs-11/TTLInput*%
X146750000Y-79135000D02*
X138100000Y-79135000D01*
%TO.N,/SpikeAndHoldDriverAndLEDs-12/TTLInput*%
X150650000Y-93570000D02*
X150640000Y-93560000D01*
X137540000Y-93560000D02*
X150640000Y-93560000D01*
%TO.N,/SpikeAndHoldDriverAndLEDs-13/TTLInput*%
X148550000Y-107670000D02*
X137720000Y-107670000D01*
X137720000Y-107670000D02*
X137600000Y-107790000D01*
%TO.N,/SpikeAndHoldDriverAndLEDs-14/TTLInput*%
X139425000Y-123335000D02*
X151450000Y-123335000D01*
%TO.N,/SpikeAndHoldDriverAndLEDs-15/TTLInput*%
X143500000Y-134485000D02*
X143500000Y-132510000D01*
X143500000Y-132510000D02*
X144525000Y-131485000D01*
X137829999Y-136530001D02*
X141454999Y-136530001D01*
X144525000Y-131485000D02*
X152175000Y-131485000D01*
X141454999Y-136530001D02*
X143500000Y-134485000D01*
%TO.N,/SpikeAndHoldDriverAndLEDs-16/TTLInput*%
X148980000Y-140720000D02*
X150100000Y-139600000D01*
X148340305Y-140720000D02*
X148980000Y-140720000D01*
X138230305Y-150830000D02*
X148340305Y-140720000D01*
X137650000Y-150830000D02*
X138230305Y-150830000D01*
%TO.N,Net-(Q1-D)*%
X130292502Y-44187499D02*
X131610002Y-44187499D01*
X132220005Y-44184999D02*
X132850004Y-44814998D01*
X131612502Y-44184999D02*
X132220005Y-44184999D01*
X131610002Y-44187499D02*
X131612502Y-44184999D01*
%TO.N,Net-(Q2-D)*%
X131637502Y-58472499D02*
X132245005Y-58472499D01*
X132245005Y-58472499D02*
X132875004Y-59102498D01*
X130317502Y-58474999D02*
X131635002Y-58474999D01*
X131635002Y-58474999D02*
X131637502Y-58472499D01*
%TO.N,Net-(Q3-D)*%
X130367502Y-72800713D02*
X131685002Y-72800713D01*
X131685002Y-72800713D02*
X131687502Y-72798213D01*
X132295005Y-72798213D02*
X132925004Y-73428212D01*
X131687502Y-72798213D02*
X132295005Y-72798213D01*
%TO.N,Net-(Q4-D)*%
X131685002Y-87126427D02*
X131687502Y-87123927D01*
X132295005Y-87123927D02*
X132925004Y-87753926D01*
X131687502Y-87123927D02*
X132295005Y-87123927D01*
X130367502Y-87126427D02*
X131685002Y-87126427D01*
%TO.N,Net-(Q5-D)*%
X131685002Y-101452141D02*
X131687502Y-101449641D01*
X131687502Y-101449641D02*
X132295005Y-101449641D01*
X130367502Y-101452141D02*
X131685002Y-101452141D01*
X132295005Y-101449641D02*
X132925004Y-102079640D01*
%TO.N,Net-(Q6-D)*%
X130367502Y-115777855D02*
X131685002Y-115777855D01*
X131685002Y-115777855D02*
X131687502Y-115775355D01*
X132295005Y-115775355D02*
X132925004Y-116405354D01*
X131687502Y-115775355D02*
X132295005Y-115775355D01*
%TO.N,Net-(Q7-D)*%
X130367502Y-130103569D02*
X131685002Y-130103569D01*
X131687502Y-130101069D02*
X132295005Y-130101069D01*
X132295005Y-130101069D02*
X132925004Y-130731068D01*
X131685002Y-130103569D02*
X131687502Y-130101069D01*
%TO.N,Net-(Q8-D)*%
X131705002Y-144429283D02*
X131707502Y-144426783D01*
X131707502Y-144426783D02*
X132315005Y-144426783D01*
X130387502Y-144429283D02*
X131705002Y-144429283D01*
X132315005Y-144426783D02*
X132945004Y-145056782D01*
%TO.N,Net-(U1-DUTY_CYCLE_ADJ)*%
X123711503Y-45923498D02*
X123720002Y-45914999D01*
X123711503Y-48044999D02*
X123711503Y-45923498D01*
%TO.N,Net-(U1-OSC_FREQ_ADJ)*%
X123711503Y-49344999D02*
X121786503Y-49344999D01*
X121786503Y-49344999D02*
X120686503Y-48244999D01*
%TO.N,Net-(U1-STATUS_OK_FLAG)*%
X129311503Y-48694999D02*
X130361503Y-48694999D01*
X131672502Y-50005998D02*
X131672502Y-50497496D01*
X130361503Y-48694999D02*
X131672502Y-50005998D01*
X131672502Y-50497496D02*
X132830004Y-51654998D01*
%TO.N,Net-(U2-DUTY_CYCLE_ADJ)*%
X123736503Y-62332499D02*
X123736503Y-60210998D01*
X123736503Y-60210998D02*
X123745002Y-60202499D01*
%TO.N,Net-(U2-OSC_FREQ_ADJ)*%
X123736503Y-63632499D02*
X121811503Y-63632499D01*
X121811503Y-63632499D02*
X120711503Y-62532499D01*
%TO.N,Net-(U2-STATUS_OK_FLAG)*%
X131697502Y-64784996D02*
X132855004Y-65942498D01*
X131697502Y-64293498D02*
X131697502Y-64784996D01*
X129336503Y-62982499D02*
X130386503Y-62982499D01*
X130386503Y-62982499D02*
X131697502Y-64293498D01*
%TO.N,Net-(U3-DUTY_CYCLE_ADJ)*%
X123786503Y-76658213D02*
X123786503Y-74536712D01*
X123786503Y-74536712D02*
X123795002Y-74528213D01*
%TO.N,Net-(U3-OSC_FREQ_ADJ)*%
X121861503Y-77958213D02*
X120761503Y-76858213D01*
X123786503Y-77958213D02*
X121861503Y-77958213D01*
%TO.N,Net-(U3-STATUS_OK_FLAG)*%
X131747502Y-78619212D02*
X131747502Y-79110710D01*
X131747502Y-79110710D02*
X132905004Y-80268212D01*
X129386503Y-77308213D02*
X130436503Y-77308213D01*
X130436503Y-77308213D02*
X131747502Y-78619212D01*
%TO.N,Net-(U4-DUTY_CYCLE_ADJ)*%
X123786503Y-90983927D02*
X123786503Y-88862426D01*
X123786503Y-88862426D02*
X123795002Y-88853927D01*
%TO.N,Net-(U4-OSC_FREQ_ADJ)*%
X121861503Y-92283927D02*
X120761503Y-91183927D01*
X123786503Y-92283927D02*
X121861503Y-92283927D01*
%TO.N,Net-(U4-STATUS_OK_FLAG)*%
X131747502Y-93436424D02*
X132905004Y-94593926D01*
X129386503Y-91633927D02*
X130436503Y-91633927D01*
X130436503Y-91633927D02*
X131747502Y-92944926D01*
X131747502Y-92944926D02*
X131747502Y-93436424D01*
%TO.N,Net-(U5-DUTY_CYCLE_ADJ)*%
X123786503Y-105309641D02*
X123786503Y-103188140D01*
X123786503Y-103188140D02*
X123795002Y-103179641D01*
%TO.N,Net-(U5-OSC_FREQ_ADJ)*%
X123786503Y-106609641D02*
X121861503Y-106609641D01*
X121861503Y-106609641D02*
X120761503Y-105509641D01*
%TO.N,Net-(U5-STATUS_OK_FLAG)*%
X131747502Y-107762138D02*
X132905004Y-108919640D01*
X130436503Y-105959641D02*
X131747502Y-107270640D01*
X129386503Y-105959641D02*
X130436503Y-105959641D01*
X131747502Y-107270640D02*
X131747502Y-107762138D01*
%TO.N,Net-(U6-DUTY_CYCLE_ADJ)*%
X123786503Y-117513854D02*
X123795002Y-117505355D01*
X123786503Y-119635355D02*
X123786503Y-117513854D01*
%TO.N,Net-(U6-OSC_FREQ_ADJ)*%
X123786503Y-120935355D02*
X121861503Y-120935355D01*
X121861503Y-120935355D02*
X120761503Y-119835355D01*
%TO.N,Net-(U6-STATUS_OK_FLAG)*%
X130436503Y-120285355D02*
X131747502Y-121596354D01*
X129386503Y-120285355D02*
X130436503Y-120285355D01*
X131747502Y-122087852D02*
X132905004Y-123245354D01*
X131747502Y-121596354D02*
X131747502Y-122087852D01*
%TO.N,Net-(U7-DUTY_CYCLE_ADJ)*%
X123786503Y-131839568D02*
X123795002Y-131831069D01*
X123786503Y-133961069D02*
X123786503Y-131839568D01*
%TO.N,Net-(U7-OSC_FREQ_ADJ)*%
X121861503Y-135261069D02*
X120761503Y-134161069D01*
X123786503Y-135261069D02*
X121861503Y-135261069D01*
%TO.N,Net-(U7-STATUS_OK_FLAG)*%
X130436503Y-134611069D02*
X131747502Y-135922068D01*
X131747502Y-136413566D02*
X132905004Y-137571068D01*
X129386503Y-134611069D02*
X130436503Y-134611069D01*
X131747502Y-135922068D02*
X131747502Y-136413566D01*
%TO.N,Net-(U8-DUTY_CYCLE_ADJ)*%
X123806503Y-148286783D02*
X123806503Y-146165282D01*
X123806503Y-146165282D02*
X123815002Y-146156783D01*
%TO.N,Net-(U8-OSC_FREQ_ADJ)*%
X123806503Y-149586783D02*
X121881503Y-149586783D01*
X121881503Y-149586783D02*
X120781503Y-148486783D01*
%TO.N,Net-(U8-STATUS_OK_FLAG)*%
X131767502Y-150739280D02*
X132925004Y-151896782D01*
X130456503Y-148936783D02*
X131767502Y-150247782D01*
X131767502Y-150247782D02*
X131767502Y-150739280D01*
X129406503Y-148936783D02*
X130456503Y-148936783D01*
%TD*%
%TA.AperFunction,Conductor*%
%TO.N,+12V*%
G36*
X156913039Y-143389685D02*
G01*
X156958794Y-143442489D01*
X156970000Y-143494000D01*
X156970000Y-156000638D01*
X156950315Y-156067677D01*
X156897511Y-156113432D01*
X156828353Y-156123376D01*
X156820961Y-156120000D01*
X156790000Y-156120000D01*
X156716319Y-156193681D01*
X156654996Y-156227166D01*
X156628638Y-156230000D01*
X149194000Y-156230000D01*
X149126961Y-156210315D01*
X149081206Y-156157511D01*
X149070000Y-156106000D01*
X149070000Y-144541362D01*
X149089685Y-144474323D01*
X149106319Y-144453681D01*
X150153681Y-143406319D01*
X150215004Y-143372834D01*
X150241362Y-143370000D01*
X156846000Y-143370000D01*
X156913039Y-143389685D01*
G37*
%TD.AperFunction*%
%TD*%
%TA.AperFunction,Conductor*%
%TO.N,GND*%
G36*
X118340541Y-145326468D02*
G01*
X118386296Y-145379272D01*
X118397502Y-145430783D01*
X118397502Y-153472783D01*
X118377817Y-153539822D01*
X118325013Y-153585577D01*
X118273502Y-153596783D01*
X115771502Y-153596783D01*
X115704463Y-153577098D01*
X115658708Y-153524294D01*
X115647502Y-153472783D01*
X115647502Y-145430783D01*
X115667187Y-145363744D01*
X115719991Y-145317989D01*
X115771502Y-145306783D01*
X118273502Y-145306783D01*
X118340541Y-145326468D01*
G37*
%TD.AperFunction*%
%TD*%
%TA.AperFunction,Conductor*%
%TO.N,GND*%
G36*
X127060541Y-108169326D02*
G01*
X127106296Y-108222130D01*
X127117502Y-108273641D01*
X127117502Y-112536927D01*
X127097817Y-112603966D01*
X127079545Y-112626217D01*
X126603522Y-113084931D01*
X126541589Y-113117274D01*
X126517479Y-113119641D01*
X125898864Y-113119641D01*
X125831825Y-113099956D01*
X125819025Y-113089641D01*
X125803935Y-113089641D01*
X125772498Y-113106807D01*
X125746140Y-113109641D01*
X125016502Y-113109641D01*
X124949463Y-113089956D01*
X124903708Y-113037152D01*
X124892502Y-112985641D01*
X124892502Y-109817844D01*
X124912187Y-109750805D01*
X124942188Y-109718579D01*
X124944049Y-109717187D01*
X125030299Y-109601972D01*
X125080594Y-109467124D01*
X125087003Y-109407514D01*
X125087002Y-109011769D01*
X125080594Y-108952158D01*
X125071573Y-108927974D01*
X125066588Y-108858285D01*
X125071569Y-108841318D01*
X125080594Y-108817124D01*
X125087003Y-108757514D01*
X125087002Y-108411501D01*
X125106686Y-108344463D01*
X125123312Y-108323830D01*
X125261185Y-108185957D01*
X125322506Y-108152475D01*
X125348864Y-108149641D01*
X126993502Y-108149641D01*
X127060541Y-108169326D01*
G37*
%TD.AperFunction*%
%TD*%
%TA.AperFunction,Conductor*%
%TO.N,GND*%
G36*
X127890541Y-73637898D02*
G01*
X127936296Y-73690702D01*
X127947502Y-73742213D01*
X127947502Y-77514213D01*
X127927817Y-77581252D01*
X127875013Y-77627007D01*
X127823502Y-77638213D01*
X125641502Y-77638213D01*
X125574463Y-77618528D01*
X125528708Y-77565724D01*
X125517502Y-77514213D01*
X125517502Y-73742213D01*
X125537187Y-73675174D01*
X125589991Y-73629419D01*
X125641502Y-73618213D01*
X127823502Y-73618213D01*
X127890541Y-73637898D01*
G37*
%TD.AperFunction*%
%TD*%
%TA.AperFunction,Conductor*%
%TO.N,GND*%
G36*
X127010541Y-65192184D02*
G01*
X127056296Y-65244988D01*
X127067502Y-65296499D01*
X127067502Y-69559785D01*
X127047817Y-69626824D01*
X127029545Y-69649075D01*
X126553522Y-70107789D01*
X126491589Y-70140132D01*
X126467479Y-70142499D01*
X125848864Y-70142499D01*
X125781825Y-70122814D01*
X125769025Y-70112499D01*
X125753935Y-70112499D01*
X125722498Y-70129665D01*
X125696140Y-70132499D01*
X124966502Y-70132499D01*
X124899463Y-70112814D01*
X124853708Y-70060010D01*
X124842502Y-70008499D01*
X124842502Y-66840702D01*
X124862187Y-66773663D01*
X124892188Y-66741437D01*
X124894049Y-66740045D01*
X124980299Y-66624830D01*
X125030594Y-66489982D01*
X125037003Y-66430372D01*
X125037002Y-66034627D01*
X125030594Y-65975016D01*
X125021573Y-65950832D01*
X125016588Y-65881143D01*
X125021569Y-65864176D01*
X125030594Y-65839982D01*
X125037003Y-65780372D01*
X125037002Y-65434359D01*
X125056686Y-65367321D01*
X125073312Y-65346688D01*
X125211185Y-65208815D01*
X125272506Y-65175333D01*
X125298864Y-65172499D01*
X126943502Y-65172499D01*
X127010541Y-65192184D01*
G37*
%TD.AperFunction*%
%TD*%
%TA.AperFunction,Conductor*%
%TO.N,/SpikeAndHoldDriverAndLEDs-2/DriveOut*%
G36*
X122800135Y-65565816D02*
G01*
X122829020Y-65576590D01*
X122888630Y-65582999D01*
X124068503Y-65582998D01*
X124135541Y-65602683D01*
X124181296Y-65655486D01*
X124192502Y-65706998D01*
X124192502Y-68708499D01*
X124172817Y-68775538D01*
X124120013Y-68821293D01*
X124068502Y-68832499D01*
X120161502Y-68832499D01*
X120094463Y-68812814D01*
X120048708Y-68760010D01*
X120037502Y-68708499D01*
X120037502Y-66606499D01*
X120057187Y-66539460D01*
X120109991Y-66493705D01*
X120161502Y-66482499D01*
X121176140Y-66482499D01*
X121210196Y-66492499D01*
X121237502Y-66492499D01*
X122135683Y-65594318D01*
X122197006Y-65560833D01*
X122223364Y-65557999D01*
X122756803Y-65557999D01*
X122800135Y-65565816D01*
G37*
%TD.AperFunction*%
%TD*%
%TA.AperFunction,Conductor*%
%TO.N,GND*%
G36*
X118320541Y-88023612D02*
G01*
X118366296Y-88076416D01*
X118377502Y-88127927D01*
X118377502Y-96169927D01*
X118357817Y-96236966D01*
X118305013Y-96282721D01*
X118253502Y-96293927D01*
X115751502Y-96293927D01*
X115684463Y-96274242D01*
X115638708Y-96221438D01*
X115627502Y-96169927D01*
X115627502Y-88127927D01*
X115647187Y-88060888D01*
X115699991Y-88015133D01*
X115751502Y-88003927D01*
X118253502Y-88003927D01*
X118320541Y-88023612D01*
G37*
%TD.AperFunction*%
%TD*%
%TA.AperFunction,Conductor*%
%TO.N,GND*%
G36*
X126985541Y-50904684D02*
G01*
X127031296Y-50957488D01*
X127042502Y-51008999D01*
X127042502Y-55272285D01*
X127022817Y-55339324D01*
X127004545Y-55361575D01*
X126528522Y-55820289D01*
X126466589Y-55852632D01*
X126442479Y-55854999D01*
X125823864Y-55854999D01*
X125756825Y-55835314D01*
X125744025Y-55824999D01*
X125728935Y-55824999D01*
X125697498Y-55842165D01*
X125671140Y-55844999D01*
X124941502Y-55844999D01*
X124874463Y-55825314D01*
X124828708Y-55772510D01*
X124817502Y-55720999D01*
X124817502Y-52553202D01*
X124837187Y-52486163D01*
X124867188Y-52453937D01*
X124869049Y-52452545D01*
X124955299Y-52337330D01*
X125005594Y-52202482D01*
X125012003Y-52142872D01*
X125012002Y-51747127D01*
X125005594Y-51687516D01*
X124996573Y-51663332D01*
X124991588Y-51593643D01*
X124996569Y-51576676D01*
X125005594Y-51552482D01*
X125012003Y-51492872D01*
X125012002Y-51146859D01*
X125031686Y-51079821D01*
X125048312Y-51059188D01*
X125186185Y-50921315D01*
X125247506Y-50887833D01*
X125273864Y-50884999D01*
X126918502Y-50884999D01*
X126985541Y-50904684D01*
G37*
%TD.AperFunction*%
%TD*%
%TA.AperFunction,Conductor*%
%TO.N,+12V*%
G36*
X130979473Y-122067736D02*
G01*
X131019848Y-122075767D01*
X131064545Y-122094282D01*
X131075446Y-122101566D01*
X131120250Y-122155178D01*
X131128171Y-122180476D01*
X131146037Y-122270294D01*
X131146039Y-122270303D01*
X131158063Y-122299334D01*
X131167502Y-122346783D01*
X131167502Y-123180851D01*
X131147817Y-123247890D01*
X131095013Y-123293645D01*
X131069284Y-123302141D01*
X131037698Y-123308855D01*
X131037694Y-123308856D01*
X130864772Y-123385847D01*
X130864767Y-123385850D01*
X130711631Y-123497110D01*
X130584968Y-123637784D01*
X130490323Y-123801714D01*
X130490320Y-123801721D01*
X130431829Y-123981739D01*
X130431828Y-123981743D01*
X130412042Y-124169999D01*
X130431828Y-124358255D01*
X130431829Y-124358258D01*
X130490320Y-124538276D01*
X130490323Y-124538283D01*
X130584969Y-124702215D01*
X130711631Y-124842887D01*
X130864767Y-124954147D01*
X130864772Y-124954150D01*
X131037699Y-125031143D01*
X131069285Y-125037856D01*
X131130764Y-125071048D01*
X131164541Y-125132210D01*
X131167502Y-125159146D01*
X131167502Y-128363144D01*
X131165119Y-128387337D01*
X131157090Y-128427699D01*
X131138574Y-128472398D01*
X131122624Y-128496268D01*
X131088415Y-128530477D01*
X131064545Y-128546427D01*
X131019846Y-128564943D01*
X131011451Y-128566613D01*
X130979480Y-128572972D01*
X130955291Y-128575355D01*
X128578087Y-128575355D01*
X128577502Y-128575354D01*
X128577502Y-128575353D01*
X128577184Y-128575352D01*
X128577090Y-128575352D01*
X127082589Y-128566612D01*
X127050647Y-128562232D01*
X127011435Y-128551520D01*
X126998753Y-128548056D01*
X126943493Y-128515863D01*
X126917435Y-128489652D01*
X126885567Y-128434204D01*
X126871696Y-128382233D01*
X126867502Y-128350257D01*
X126867502Y-127900648D01*
X126887187Y-127833609D01*
X126919042Y-127800022D01*
X126954285Y-127774644D01*
X126954288Y-127774640D01*
X126954291Y-127774639D01*
X127135451Y-127600066D01*
X127197384Y-127567722D01*
X127221494Y-127565355D01*
X127617503Y-127565355D01*
X127817502Y-127565355D01*
X127817502Y-124709854D01*
X127837187Y-124642815D01*
X127889991Y-124597060D01*
X127941502Y-124585854D01*
X128334374Y-124585854D01*
X128334375Y-124585854D01*
X128393986Y-124579446D01*
X128528834Y-124529151D01*
X128644049Y-124442901D01*
X128730299Y-124327686D01*
X128780594Y-124192838D01*
X128787003Y-124133228D01*
X128787002Y-122359853D01*
X128806687Y-122292815D01*
X128859490Y-122247060D01*
X128911002Y-122235854D01*
X130234374Y-122235854D01*
X130234375Y-122235854D01*
X130293986Y-122229446D01*
X130428834Y-122179151D01*
X130460858Y-122155178D01*
X130547806Y-122090089D01*
X130613270Y-122065671D01*
X130622117Y-122065355D01*
X130955291Y-122065355D01*
X130979473Y-122067736D01*
G37*
%TD.AperFunction*%
%TD*%
%TA.AperFunction,Conductor*%
%TO.N,+12V*%
G36*
X130904473Y-50477380D02*
G01*
X130944848Y-50485411D01*
X130989545Y-50503926D01*
X131000446Y-50511210D01*
X131045250Y-50564822D01*
X131053171Y-50590120D01*
X131071037Y-50679938D01*
X131071039Y-50679947D01*
X131083063Y-50708978D01*
X131092502Y-50756427D01*
X131092502Y-51593351D01*
X131072817Y-51660390D01*
X131020013Y-51706145D01*
X130994284Y-51714641D01*
X130962698Y-51721355D01*
X130962694Y-51721356D01*
X130789772Y-51798347D01*
X130789767Y-51798350D01*
X130636631Y-51909610D01*
X130509968Y-52050284D01*
X130415323Y-52214214D01*
X130415320Y-52214221D01*
X130356829Y-52394239D01*
X130356828Y-52394243D01*
X130337042Y-52582499D01*
X130356828Y-52770755D01*
X130356829Y-52770758D01*
X130415320Y-52950776D01*
X130415323Y-52950783D01*
X130509969Y-53114715D01*
X130514276Y-53119498D01*
X130636631Y-53255387D01*
X130789767Y-53366647D01*
X130789772Y-53366650D01*
X130962699Y-53443643D01*
X130994285Y-53450356D01*
X131055764Y-53483548D01*
X131089541Y-53544710D01*
X131092502Y-53571646D01*
X131092502Y-56772788D01*
X131090119Y-56796981D01*
X131082090Y-56837343D01*
X131063574Y-56882042D01*
X131047624Y-56905912D01*
X131013415Y-56940121D01*
X130989545Y-56956071D01*
X130944846Y-56974587D01*
X130936451Y-56976257D01*
X130904480Y-56982616D01*
X130880291Y-56984999D01*
X128503087Y-56984999D01*
X128502502Y-56984998D01*
X128502502Y-56984997D01*
X128502184Y-56984996D01*
X128502090Y-56984996D01*
X127007589Y-56976256D01*
X126975647Y-56971876D01*
X126936435Y-56961164D01*
X126923753Y-56957700D01*
X126868493Y-56925507D01*
X126842435Y-56899296D01*
X126810567Y-56843848D01*
X126796696Y-56791877D01*
X126792502Y-56759901D01*
X126792502Y-56310292D01*
X126812187Y-56243253D01*
X126844042Y-56209666D01*
X126879285Y-56184288D01*
X126879288Y-56184284D01*
X126879291Y-56184283D01*
X127060451Y-56009710D01*
X127122384Y-55977366D01*
X127146494Y-55974999D01*
X127542503Y-55974999D01*
X127742502Y-55974999D01*
X127742502Y-53119498D01*
X127762187Y-53052459D01*
X127814991Y-53006704D01*
X127866502Y-52995498D01*
X128259374Y-52995498D01*
X128259375Y-52995498D01*
X128318986Y-52989090D01*
X128453834Y-52938795D01*
X128569049Y-52852545D01*
X128655299Y-52737330D01*
X128705594Y-52602482D01*
X128712003Y-52542872D01*
X128712002Y-50769497D01*
X128731687Y-50702459D01*
X128784490Y-50656704D01*
X128836002Y-50645498D01*
X130159374Y-50645498D01*
X130159375Y-50645498D01*
X130218986Y-50639090D01*
X130353834Y-50588795D01*
X130385858Y-50564822D01*
X130472806Y-50499733D01*
X130538270Y-50475315D01*
X130547117Y-50474999D01*
X130880291Y-50474999D01*
X130904473Y-50477380D01*
G37*
%TD.AperFunction*%
%TD*%
%TA.AperFunction,Conductor*%
%TO.N,/SpikeAndHoldDriverAndLEDs-4/DriveOut*%
G36*
X122850135Y-94217244D02*
G01*
X122879020Y-94228018D01*
X122938630Y-94234427D01*
X124118503Y-94234426D01*
X124185541Y-94254111D01*
X124231296Y-94306914D01*
X124242502Y-94358426D01*
X124242502Y-97359927D01*
X124222817Y-97426966D01*
X124170013Y-97472721D01*
X124118502Y-97483927D01*
X120211502Y-97483927D01*
X120144463Y-97464242D01*
X120098708Y-97411438D01*
X120087502Y-97359927D01*
X120087502Y-95257927D01*
X120107187Y-95190888D01*
X120159991Y-95145133D01*
X120211502Y-95133927D01*
X121226140Y-95133927D01*
X121260196Y-95143927D01*
X121287502Y-95143927D01*
X122185683Y-94245746D01*
X122247006Y-94212261D01*
X122273364Y-94209427D01*
X122806803Y-94209427D01*
X122850135Y-94217244D01*
G37*
%TD.AperFunction*%
%TD*%
%TA.AperFunction,Conductor*%
%TO.N,+12V*%
G36*
X130979473Y-79090594D02*
G01*
X131019848Y-79098625D01*
X131064545Y-79117140D01*
X131075446Y-79124424D01*
X131120250Y-79178036D01*
X131128171Y-79203334D01*
X131146037Y-79293152D01*
X131146039Y-79293161D01*
X131158063Y-79322192D01*
X131167502Y-79369641D01*
X131167502Y-80205851D01*
X131147817Y-80272890D01*
X131095013Y-80318645D01*
X131069284Y-80327141D01*
X131037698Y-80333855D01*
X131037694Y-80333856D01*
X130864772Y-80410847D01*
X130864767Y-80410850D01*
X130711631Y-80522110D01*
X130584968Y-80662784D01*
X130490323Y-80826714D01*
X130490320Y-80826721D01*
X130431829Y-81006739D01*
X130431828Y-81006743D01*
X130412042Y-81194999D01*
X130431828Y-81383255D01*
X130431829Y-81383258D01*
X130490320Y-81563276D01*
X130490323Y-81563283D01*
X130584969Y-81727215D01*
X130589919Y-81732712D01*
X130711631Y-81867887D01*
X130864767Y-81979147D01*
X130864772Y-81979150D01*
X131037699Y-82056143D01*
X131069285Y-82062856D01*
X131130764Y-82096048D01*
X131164541Y-82157210D01*
X131167502Y-82184146D01*
X131167502Y-85386002D01*
X131165119Y-85410195D01*
X131157090Y-85450557D01*
X131138574Y-85495256D01*
X131122624Y-85519126D01*
X131088415Y-85553335D01*
X131064545Y-85569285D01*
X131019846Y-85587801D01*
X131011451Y-85589471D01*
X130979480Y-85595830D01*
X130955291Y-85598213D01*
X128578087Y-85598213D01*
X128577502Y-85598212D01*
X128577502Y-85598211D01*
X128577184Y-85598210D01*
X128577090Y-85598210D01*
X127082589Y-85589470D01*
X127050647Y-85585090D01*
X127011435Y-85574378D01*
X126998753Y-85570914D01*
X126943493Y-85538721D01*
X126917435Y-85512510D01*
X126885567Y-85457062D01*
X126871696Y-85405091D01*
X126867502Y-85373115D01*
X126867502Y-84923506D01*
X126887187Y-84856467D01*
X126919042Y-84822880D01*
X126954285Y-84797502D01*
X126954288Y-84797498D01*
X126954291Y-84797497D01*
X127135451Y-84622924D01*
X127197384Y-84590580D01*
X127221494Y-84588213D01*
X127617503Y-84588213D01*
X127817502Y-84588213D01*
X127817502Y-81732712D01*
X127837187Y-81665673D01*
X127889991Y-81619918D01*
X127941502Y-81608712D01*
X128334374Y-81608712D01*
X128334375Y-81608712D01*
X128393986Y-81602304D01*
X128528834Y-81552009D01*
X128644049Y-81465759D01*
X128730299Y-81350544D01*
X128780594Y-81215696D01*
X128787003Y-81156086D01*
X128787002Y-79382711D01*
X128806687Y-79315673D01*
X128859490Y-79269918D01*
X128911002Y-79258712D01*
X130234374Y-79258712D01*
X130234375Y-79258712D01*
X130293986Y-79252304D01*
X130428834Y-79202009D01*
X130460858Y-79178036D01*
X130547806Y-79112947D01*
X130613270Y-79088529D01*
X130622117Y-79088213D01*
X130955291Y-79088213D01*
X130979473Y-79090594D01*
G37*
%TD.AperFunction*%
%TD*%
%TA.AperFunction,Conductor*%
%TO.N,GND*%
G36*
X118320541Y-73697898D02*
G01*
X118366296Y-73750702D01*
X118377502Y-73802213D01*
X118377502Y-81844213D01*
X118357817Y-81911252D01*
X118305013Y-81957007D01*
X118253502Y-81968213D01*
X115751502Y-81968213D01*
X115684463Y-81948528D01*
X115638708Y-81895724D01*
X115627502Y-81844213D01*
X115627502Y-73802213D01*
X115647187Y-73735174D01*
X115699991Y-73689419D01*
X115751502Y-73678213D01*
X118253502Y-73678213D01*
X118320541Y-73697898D01*
G37*
%TD.AperFunction*%
%TD*%
%TA.AperFunction,Conductor*%
%TO.N,GND*%
G36*
X118320541Y-116675040D02*
G01*
X118366296Y-116727844D01*
X118377502Y-116779355D01*
X118377502Y-124821355D01*
X118357817Y-124888394D01*
X118305013Y-124934149D01*
X118253502Y-124945355D01*
X115751502Y-124945355D01*
X115684463Y-124925670D01*
X115638708Y-124872866D01*
X115627502Y-124821355D01*
X115627502Y-116779355D01*
X115647187Y-116712316D01*
X115699991Y-116666561D01*
X115751502Y-116655355D01*
X118253502Y-116655355D01*
X118320541Y-116675040D01*
G37*
%TD.AperFunction*%
%TD*%
%TA.AperFunction,Conductor*%
%TO.N,GND*%
G36*
X127060541Y-79517898D02*
G01*
X127106296Y-79570702D01*
X127117502Y-79622213D01*
X127117502Y-83885499D01*
X127097817Y-83952538D01*
X127079545Y-83974789D01*
X126603522Y-84433503D01*
X126541589Y-84465846D01*
X126517479Y-84468213D01*
X125898864Y-84468213D01*
X125831825Y-84448528D01*
X125819025Y-84438213D01*
X125803935Y-84438213D01*
X125772498Y-84455379D01*
X125746140Y-84458213D01*
X125016502Y-84458213D01*
X124949463Y-84438528D01*
X124903708Y-84385724D01*
X124892502Y-84334213D01*
X124892502Y-81166416D01*
X124912187Y-81099377D01*
X124942188Y-81067151D01*
X124944049Y-81065759D01*
X125030299Y-80950544D01*
X125080594Y-80815696D01*
X125087003Y-80756086D01*
X125087002Y-80360341D01*
X125080594Y-80300730D01*
X125071573Y-80276546D01*
X125066588Y-80206857D01*
X125071569Y-80189890D01*
X125080594Y-80165696D01*
X125087003Y-80106086D01*
X125087002Y-79760073D01*
X125106686Y-79693035D01*
X125123312Y-79672402D01*
X125261185Y-79534529D01*
X125322506Y-79501047D01*
X125348864Y-79498213D01*
X126993502Y-79498213D01*
X127060541Y-79517898D01*
G37*
%TD.AperFunction*%
%TD*%
%TA.AperFunction,Conductor*%
%TO.N,+12V*%
G36*
X130979473Y-93416308D02*
G01*
X131019848Y-93424339D01*
X131064545Y-93442854D01*
X131075446Y-93450138D01*
X131120250Y-93503750D01*
X131128171Y-93529048D01*
X131146037Y-93618866D01*
X131146039Y-93618875D01*
X131158063Y-93647906D01*
X131167502Y-93695355D01*
X131167502Y-94530851D01*
X131147817Y-94597890D01*
X131095013Y-94643645D01*
X131069284Y-94652141D01*
X131037698Y-94658855D01*
X131037694Y-94658856D01*
X130864772Y-94735847D01*
X130864767Y-94735850D01*
X130711631Y-94847110D01*
X130584968Y-94987784D01*
X130490323Y-95151714D01*
X130490320Y-95151721D01*
X130431829Y-95331739D01*
X130431828Y-95331743D01*
X130412042Y-95519999D01*
X130431828Y-95708255D01*
X130431829Y-95708258D01*
X130490320Y-95888276D01*
X130490323Y-95888283D01*
X130584969Y-96052215D01*
X130711631Y-96192887D01*
X130864767Y-96304147D01*
X130864772Y-96304150D01*
X131037699Y-96381143D01*
X131069285Y-96387856D01*
X131130764Y-96421048D01*
X131164541Y-96482210D01*
X131167502Y-96509146D01*
X131167502Y-99711716D01*
X131165119Y-99735909D01*
X131157090Y-99776271D01*
X131138574Y-99820970D01*
X131122624Y-99844840D01*
X131088415Y-99879049D01*
X131064545Y-99894999D01*
X131019846Y-99913515D01*
X131011451Y-99915185D01*
X130979480Y-99921544D01*
X130955291Y-99923927D01*
X128578087Y-99923927D01*
X128577502Y-99923926D01*
X128577502Y-99923925D01*
X128577184Y-99923924D01*
X128577090Y-99923924D01*
X127082589Y-99915184D01*
X127050647Y-99910804D01*
X127011435Y-99900092D01*
X126998753Y-99896628D01*
X126943493Y-99864435D01*
X126917435Y-99838224D01*
X126885567Y-99782776D01*
X126871696Y-99730805D01*
X126867502Y-99698829D01*
X126867502Y-99249220D01*
X126887187Y-99182181D01*
X126919042Y-99148594D01*
X126954285Y-99123216D01*
X126954288Y-99123212D01*
X126954291Y-99123211D01*
X127135451Y-98948638D01*
X127197384Y-98916294D01*
X127221494Y-98913927D01*
X127617503Y-98913927D01*
X127817502Y-98913927D01*
X127817502Y-96058426D01*
X127837187Y-95991387D01*
X127889991Y-95945632D01*
X127941502Y-95934426D01*
X128334374Y-95934426D01*
X128334375Y-95934426D01*
X128393986Y-95928018D01*
X128528834Y-95877723D01*
X128644049Y-95791473D01*
X128730299Y-95676258D01*
X128780594Y-95541410D01*
X128787003Y-95481800D01*
X128787002Y-93708425D01*
X128806687Y-93641387D01*
X128859490Y-93595632D01*
X128911002Y-93584426D01*
X130234374Y-93584426D01*
X130234375Y-93584426D01*
X130293986Y-93578018D01*
X130428834Y-93527723D01*
X130460858Y-93503750D01*
X130547806Y-93438661D01*
X130613270Y-93414243D01*
X130622117Y-93413927D01*
X130955291Y-93413927D01*
X130979473Y-93416308D01*
G37*
%TD.AperFunction*%
%TD*%
%TA.AperFunction,Conductor*%
%TO.N,GND*%
G36*
X118320541Y-102349326D02*
G01*
X118366296Y-102402130D01*
X118377502Y-102453641D01*
X118377502Y-110495641D01*
X118357817Y-110562680D01*
X118305013Y-110608435D01*
X118253502Y-110619641D01*
X115751502Y-110619641D01*
X115684463Y-110599956D01*
X115638708Y-110547152D01*
X115627502Y-110495641D01*
X115627502Y-102453641D01*
X115647187Y-102386602D01*
X115699991Y-102340847D01*
X115751502Y-102329641D01*
X118253502Y-102329641D01*
X118320541Y-102349326D01*
G37*
%TD.AperFunction*%
%TD*%
%TA.AperFunction,Conductor*%
%TO.N,/SpikeAndHoldDriverAndLEDs-3/DriveOut*%
G36*
X122850135Y-79891530D02*
G01*
X122879020Y-79902304D01*
X122938630Y-79908713D01*
X124118503Y-79908712D01*
X124185541Y-79928397D01*
X124231296Y-79981200D01*
X124242502Y-80032712D01*
X124242502Y-83034213D01*
X124222817Y-83101252D01*
X124170013Y-83147007D01*
X124118502Y-83158213D01*
X120211502Y-83158213D01*
X120144463Y-83138528D01*
X120098708Y-83085724D01*
X120087502Y-83034213D01*
X120087502Y-80932213D01*
X120107187Y-80865174D01*
X120159991Y-80819419D01*
X120211502Y-80808213D01*
X121226140Y-80808213D01*
X121260196Y-80818213D01*
X121287502Y-80818213D01*
X122185683Y-79920032D01*
X122247006Y-79886547D01*
X122273364Y-79883713D01*
X122806803Y-79883713D01*
X122850135Y-79891530D01*
G37*
%TD.AperFunction*%
%TD*%
%TA.AperFunction,Conductor*%
%TO.N,+12V*%
G36*
X130999473Y-150719164D02*
G01*
X131039848Y-150727195D01*
X131084545Y-150745710D01*
X131095446Y-150752994D01*
X131140250Y-150806606D01*
X131148171Y-150831904D01*
X131166037Y-150921722D01*
X131166039Y-150921731D01*
X131178063Y-150950762D01*
X131187502Y-150998211D01*
X131187502Y-151828189D01*
X131167817Y-151895228D01*
X131115013Y-151940983D01*
X131089284Y-151949479D01*
X131068697Y-151953855D01*
X131068693Y-151953856D01*
X130895771Y-152030847D01*
X130895766Y-152030850D01*
X130742630Y-152142110D01*
X130615967Y-152282784D01*
X130521322Y-152446714D01*
X130521319Y-152446721D01*
X130462828Y-152626739D01*
X130462827Y-152626743D01*
X130443041Y-152814999D01*
X130462827Y-153003255D01*
X130462828Y-153003258D01*
X130521319Y-153183276D01*
X130521322Y-153183283D01*
X130615968Y-153347215D01*
X130742630Y-153487887D01*
X130895766Y-153599147D01*
X130895771Y-153599150D01*
X131068692Y-153676141D01*
X131068694Y-153676141D01*
X131068698Y-153676143D01*
X131089284Y-153680518D01*
X131150763Y-153713709D01*
X131184541Y-153774871D01*
X131187502Y-153801808D01*
X131187502Y-157014572D01*
X131185119Y-157038765D01*
X131177090Y-157079127D01*
X131158574Y-157123826D01*
X131142624Y-157147696D01*
X131108415Y-157181905D01*
X131084545Y-157197855D01*
X131039846Y-157216371D01*
X131031451Y-157218041D01*
X130999480Y-157224400D01*
X130975291Y-157226783D01*
X128598087Y-157226783D01*
X128597502Y-157226782D01*
X128597502Y-157226781D01*
X128597184Y-157226780D01*
X128597090Y-157226780D01*
X127102589Y-157218040D01*
X127070647Y-157213660D01*
X127031435Y-157202948D01*
X127018753Y-157199484D01*
X126963493Y-157167291D01*
X126937435Y-157141080D01*
X126905567Y-157085632D01*
X126891696Y-157033661D01*
X126887502Y-157001685D01*
X126887502Y-156552076D01*
X126907187Y-156485037D01*
X126939042Y-156451450D01*
X126974285Y-156426072D01*
X126974288Y-156426068D01*
X126974291Y-156426067D01*
X127155451Y-156251494D01*
X127217384Y-156219150D01*
X127241494Y-156216783D01*
X127637503Y-156216783D01*
X127837502Y-156216783D01*
X127837502Y-153361282D01*
X127857187Y-153294243D01*
X127909991Y-153248488D01*
X127961502Y-153237282D01*
X128354374Y-153237282D01*
X128354375Y-153237282D01*
X128413986Y-153230874D01*
X128548834Y-153180579D01*
X128664049Y-153094329D01*
X128750299Y-152979114D01*
X128800594Y-152844266D01*
X128807003Y-152784656D01*
X128807002Y-151011281D01*
X128826687Y-150944243D01*
X128879490Y-150898488D01*
X128931002Y-150887282D01*
X130254374Y-150887282D01*
X130254375Y-150887282D01*
X130313986Y-150880874D01*
X130448834Y-150830579D01*
X130480858Y-150806606D01*
X130567806Y-150741517D01*
X130633270Y-150717099D01*
X130642117Y-150716783D01*
X130975291Y-150716783D01*
X130999473Y-150719164D01*
G37*
%TD.AperFunction*%
%TD*%
%TA.AperFunction,Conductor*%
%TO.N,GND*%
G36*
X127060541Y-136820754D02*
G01*
X127106296Y-136873558D01*
X127117502Y-136925069D01*
X127117502Y-141188355D01*
X127097817Y-141255394D01*
X127079545Y-141277645D01*
X126603522Y-141736359D01*
X126541589Y-141768702D01*
X126517479Y-141771069D01*
X125898864Y-141771069D01*
X125831825Y-141751384D01*
X125819025Y-141741069D01*
X125803935Y-141741069D01*
X125772498Y-141758235D01*
X125746140Y-141761069D01*
X125016502Y-141761069D01*
X124949463Y-141741384D01*
X124903708Y-141688580D01*
X124892502Y-141637069D01*
X124892502Y-138469272D01*
X124912187Y-138402233D01*
X124942188Y-138370007D01*
X124944049Y-138368615D01*
X125030299Y-138253400D01*
X125080594Y-138118552D01*
X125087003Y-138058942D01*
X125087002Y-137663197D01*
X125080594Y-137603586D01*
X125071573Y-137579402D01*
X125066588Y-137509713D01*
X125071569Y-137492746D01*
X125080594Y-137468552D01*
X125087003Y-137408942D01*
X125087002Y-137062929D01*
X125106686Y-136995891D01*
X125123312Y-136975258D01*
X125261185Y-136837385D01*
X125322506Y-136803903D01*
X125348864Y-136801069D01*
X126993502Y-136801069D01*
X127060541Y-136820754D01*
G37*
%TD.AperFunction*%
%TD*%
%TA.AperFunction,Conductor*%
%TO.N,/SpikeAndHoldDriverAndLEDs-6/DriveOut*%
G36*
X122850135Y-122868672D02*
G01*
X122879020Y-122879446D01*
X122938630Y-122885855D01*
X124118503Y-122885854D01*
X124185541Y-122905539D01*
X124231296Y-122958342D01*
X124242502Y-123009854D01*
X124242502Y-126011355D01*
X124222817Y-126078394D01*
X124170013Y-126124149D01*
X124118502Y-126135355D01*
X120211502Y-126135355D01*
X120144463Y-126115670D01*
X120098708Y-126062866D01*
X120087502Y-126011355D01*
X120087502Y-123909355D01*
X120107187Y-123842316D01*
X120159991Y-123796561D01*
X120211502Y-123785355D01*
X121226140Y-123785355D01*
X121260196Y-123795355D01*
X121287502Y-123795355D01*
X122185683Y-122897174D01*
X122247006Y-122863689D01*
X122273364Y-122860855D01*
X122806803Y-122860855D01*
X122850135Y-122868672D01*
G37*
%TD.AperFunction*%
%TD*%
%TA.AperFunction,Conductor*%
%TO.N,GND*%
G36*
X127840541Y-59312184D02*
G01*
X127886296Y-59364988D01*
X127897502Y-59416499D01*
X127897502Y-63188499D01*
X127877817Y-63255538D01*
X127825013Y-63301293D01*
X127773502Y-63312499D01*
X125591502Y-63312499D01*
X125524463Y-63292814D01*
X125478708Y-63240010D01*
X125467502Y-63188499D01*
X125467502Y-59416499D01*
X125487187Y-59349460D01*
X125539991Y-59303705D01*
X125591502Y-59292499D01*
X127773502Y-59292499D01*
X127840541Y-59312184D01*
G37*
%TD.AperFunction*%
%TD*%
%TA.AperFunction,Conductor*%
%TO.N,GND*%
G36*
X127060541Y-122495040D02*
G01*
X127106296Y-122547844D01*
X127117502Y-122599355D01*
X127117502Y-126862641D01*
X127097817Y-126929680D01*
X127079545Y-126951931D01*
X126603522Y-127410645D01*
X126541589Y-127442988D01*
X126517479Y-127445355D01*
X125898864Y-127445355D01*
X125831825Y-127425670D01*
X125819025Y-127415355D01*
X125803935Y-127415355D01*
X125772498Y-127432521D01*
X125746140Y-127435355D01*
X125016502Y-127435355D01*
X124949463Y-127415670D01*
X124903708Y-127362866D01*
X124892502Y-127311355D01*
X124892502Y-124143558D01*
X124912187Y-124076519D01*
X124942188Y-124044293D01*
X124944049Y-124042901D01*
X125030299Y-123927686D01*
X125080594Y-123792838D01*
X125087003Y-123733228D01*
X125087002Y-123337483D01*
X125080594Y-123277872D01*
X125071573Y-123253688D01*
X125066588Y-123183999D01*
X125071569Y-123167032D01*
X125080594Y-123142838D01*
X125087003Y-123083228D01*
X125087002Y-122737215D01*
X125106686Y-122670177D01*
X125123312Y-122649544D01*
X125261185Y-122511671D01*
X125322506Y-122478189D01*
X125348864Y-122475355D01*
X126993502Y-122475355D01*
X127060541Y-122495040D01*
G37*
%TD.AperFunction*%
%TD*%
%TA.AperFunction,Conductor*%
%TO.N,GND*%
G36*
X118245541Y-45084684D02*
G01*
X118291296Y-45137488D01*
X118302502Y-45188999D01*
X118302502Y-53230999D01*
X118282817Y-53298038D01*
X118230013Y-53343793D01*
X118178502Y-53354999D01*
X115676502Y-53354999D01*
X115609463Y-53335314D01*
X115563708Y-53282510D01*
X115552502Y-53230999D01*
X115552502Y-45188999D01*
X115572187Y-45121960D01*
X115624991Y-45076205D01*
X115676502Y-45064999D01*
X118178502Y-45064999D01*
X118245541Y-45084684D01*
G37*
%TD.AperFunction*%
%TD*%
%TA.AperFunction,Conductor*%
%TO.N,GND*%
G36*
X164673039Y-140089685D02*
G01*
X164718794Y-140142489D01*
X164730000Y-140194000D01*
X164730000Y-146086000D01*
X164710315Y-146153039D01*
X164657511Y-146198794D01*
X164606000Y-146210000D01*
X159664000Y-146210000D01*
X159596961Y-146190315D01*
X159551206Y-146137511D01*
X159540000Y-146086000D01*
X159540000Y-140194000D01*
X159559685Y-140126961D01*
X159612489Y-140081206D01*
X159664000Y-140070000D01*
X164606000Y-140070000D01*
X164673039Y-140089685D01*
G37*
%TD.AperFunction*%
%TD*%
%TA.AperFunction,Conductor*%
%TO.N,/SpikeAndHoldDriverAndLEDs-1/DriveOut*%
G36*
X122775135Y-51278316D02*
G01*
X122804020Y-51289090D01*
X122863630Y-51295499D01*
X124043503Y-51295498D01*
X124110541Y-51315183D01*
X124156296Y-51367986D01*
X124167502Y-51419498D01*
X124167502Y-54420999D01*
X124147817Y-54488038D01*
X124095013Y-54533793D01*
X124043502Y-54544999D01*
X120136502Y-54544999D01*
X120069463Y-54525314D01*
X120023708Y-54472510D01*
X120012502Y-54420999D01*
X120012502Y-52318999D01*
X120032187Y-52251960D01*
X120084991Y-52206205D01*
X120136502Y-52194999D01*
X121151140Y-52194999D01*
X121185196Y-52204999D01*
X121212502Y-52204999D01*
X122110683Y-51306818D01*
X122172006Y-51273333D01*
X122198364Y-51270499D01*
X122731803Y-51270499D01*
X122775135Y-51278316D01*
G37*
%TD.AperFunction*%
%TD*%
%TA.AperFunction,Conductor*%
%TO.N,GND*%
G36*
X127890541Y-116615040D02*
G01*
X127936296Y-116667844D01*
X127947502Y-116719355D01*
X127947502Y-120491355D01*
X127927817Y-120558394D01*
X127875013Y-120604149D01*
X127823502Y-120615355D01*
X125641502Y-120615355D01*
X125574463Y-120595670D01*
X125528708Y-120542866D01*
X125517502Y-120491355D01*
X125517502Y-116719355D01*
X125537187Y-116652316D01*
X125589991Y-116606561D01*
X125641502Y-116595355D01*
X127823502Y-116595355D01*
X127890541Y-116615040D01*
G37*
%TD.AperFunction*%
%TD*%
%TA.AperFunction,Conductor*%
%TO.N,/SpikeAndHoldDriverAndLEDs-7/DriveOut*%
G36*
X122850135Y-137194386D02*
G01*
X122879020Y-137205160D01*
X122938630Y-137211569D01*
X124118503Y-137211568D01*
X124185541Y-137231253D01*
X124231296Y-137284056D01*
X124242502Y-137335568D01*
X124242502Y-140337069D01*
X124222817Y-140404108D01*
X124170013Y-140449863D01*
X124118502Y-140461069D01*
X120211502Y-140461069D01*
X120144463Y-140441384D01*
X120098708Y-140388580D01*
X120087502Y-140337069D01*
X120087502Y-138235069D01*
X120107187Y-138168030D01*
X120159991Y-138122275D01*
X120211502Y-138111069D01*
X121226140Y-138111069D01*
X121260196Y-138121069D01*
X121287502Y-138121069D01*
X122185683Y-137222888D01*
X122247006Y-137189403D01*
X122273364Y-137186569D01*
X122806803Y-137186569D01*
X122850135Y-137194386D01*
G37*
%TD.AperFunction*%
%TD*%
%TA.AperFunction,Conductor*%
%TO.N,/SpikeAndHoldDriverAndLEDs-5/DriveOut*%
G36*
X122850135Y-108542958D02*
G01*
X122879020Y-108553732D01*
X122938630Y-108560141D01*
X124118503Y-108560140D01*
X124185541Y-108579825D01*
X124231296Y-108632628D01*
X124242502Y-108684140D01*
X124242502Y-111685641D01*
X124222817Y-111752680D01*
X124170013Y-111798435D01*
X124118502Y-111809641D01*
X120211502Y-111809641D01*
X120144463Y-111789956D01*
X120098708Y-111737152D01*
X120087502Y-111685641D01*
X120087502Y-109583641D01*
X120107187Y-109516602D01*
X120159991Y-109470847D01*
X120211502Y-109459641D01*
X121226140Y-109459641D01*
X121260196Y-109469641D01*
X121287502Y-109469641D01*
X122185683Y-108571460D01*
X122247006Y-108537975D01*
X122273364Y-108535141D01*
X122806803Y-108535141D01*
X122850135Y-108542958D01*
G37*
%TD.AperFunction*%
%TD*%
%TA.AperFunction,Conductor*%
%TO.N,GND*%
G36*
X118320541Y-131000754D02*
G01*
X118366296Y-131053558D01*
X118377502Y-131105069D01*
X118377502Y-139147069D01*
X118357817Y-139214108D01*
X118305013Y-139259863D01*
X118253502Y-139271069D01*
X115751502Y-139271069D01*
X115684463Y-139251384D01*
X115638708Y-139198580D01*
X115627502Y-139147069D01*
X115627502Y-131105069D01*
X115647187Y-131038030D01*
X115699991Y-130992275D01*
X115751502Y-130981069D01*
X118253502Y-130981069D01*
X118320541Y-131000754D01*
G37*
%TD.AperFunction*%
%TD*%
%TA.AperFunction,Conductor*%
%TO.N,/12V_IN*%
G36*
X172413039Y-143489685D02*
G01*
X172458794Y-143542489D01*
X172470000Y-143594000D01*
X172470000Y-155996000D01*
X172450315Y-156063039D01*
X172397511Y-156108794D01*
X172346000Y-156120000D01*
X161444000Y-156120000D01*
X161376961Y-156100315D01*
X161331206Y-156047511D01*
X161320000Y-155996000D01*
X161320000Y-148971362D01*
X161339685Y-148904323D01*
X161356319Y-148883681D01*
X161383681Y-148856319D01*
X161445004Y-148822834D01*
X161471362Y-148820000D01*
X166128638Y-148820000D01*
X166195677Y-148839685D01*
X166216319Y-148856319D01*
X166240000Y-148880000D01*
X166290000Y-148830000D01*
X166290000Y-143594000D01*
X166309685Y-143526961D01*
X166362489Y-143481206D01*
X166414000Y-143470000D01*
X172346000Y-143470000D01*
X172413039Y-143489685D01*
G37*
%TD.AperFunction*%
%TD*%
%TA.AperFunction,Conductor*%
%TO.N,+12V*%
G36*
X130929473Y-64764880D02*
G01*
X130969848Y-64772911D01*
X131014543Y-64791424D01*
X131025443Y-64798707D01*
X131070248Y-64852319D01*
X131078170Y-64877619D01*
X131092713Y-64950731D01*
X131096038Y-64967443D01*
X131096038Y-64967445D01*
X131108063Y-64996475D01*
X131117502Y-65043928D01*
X131117502Y-65880851D01*
X131097817Y-65947890D01*
X131045013Y-65993645D01*
X131019284Y-66002141D01*
X130987698Y-66008855D01*
X130987694Y-66008856D01*
X130814772Y-66085847D01*
X130814767Y-66085850D01*
X130661631Y-66197110D01*
X130534968Y-66337784D01*
X130440323Y-66501714D01*
X130440320Y-66501721D01*
X130381829Y-66681739D01*
X130381828Y-66681743D01*
X130362042Y-66869999D01*
X130381828Y-67058255D01*
X130381829Y-67058258D01*
X130440320Y-67238276D01*
X130440323Y-67238283D01*
X130534969Y-67402215D01*
X130539276Y-67406998D01*
X130661631Y-67542887D01*
X130814767Y-67654147D01*
X130814772Y-67654150D01*
X130987699Y-67731143D01*
X131019285Y-67737856D01*
X131080764Y-67771048D01*
X131114541Y-67832210D01*
X131117502Y-67859146D01*
X131117502Y-71060288D01*
X131115119Y-71084481D01*
X131107090Y-71124843D01*
X131088574Y-71169542D01*
X131072624Y-71193412D01*
X131038415Y-71227621D01*
X131014545Y-71243571D01*
X130969846Y-71262087D01*
X130961451Y-71263757D01*
X130929480Y-71270116D01*
X130905291Y-71272499D01*
X128528087Y-71272499D01*
X128527502Y-71272498D01*
X128527502Y-71272497D01*
X128527184Y-71272496D01*
X128527090Y-71272496D01*
X127032589Y-71263756D01*
X127000647Y-71259376D01*
X126961435Y-71248664D01*
X126948753Y-71245200D01*
X126893493Y-71213007D01*
X126867435Y-71186796D01*
X126835567Y-71131348D01*
X126821696Y-71079377D01*
X126817502Y-71047401D01*
X126817502Y-70597792D01*
X126837187Y-70530753D01*
X126869042Y-70497166D01*
X126904285Y-70471788D01*
X126904288Y-70471784D01*
X126904291Y-70471783D01*
X127085451Y-70297210D01*
X127147384Y-70264866D01*
X127171494Y-70262499D01*
X127567503Y-70262499D01*
X127767502Y-70262499D01*
X127767502Y-67406998D01*
X127787187Y-67339959D01*
X127839991Y-67294204D01*
X127891502Y-67282998D01*
X128284374Y-67282998D01*
X128284375Y-67282998D01*
X128343986Y-67276590D01*
X128478834Y-67226295D01*
X128594049Y-67140045D01*
X128680299Y-67024830D01*
X128730594Y-66889982D01*
X128737003Y-66830372D01*
X128737002Y-65056997D01*
X128756687Y-64989959D01*
X128809490Y-64944204D01*
X128861002Y-64932998D01*
X130184374Y-64932998D01*
X130184375Y-64932998D01*
X130243986Y-64926590D01*
X130378834Y-64876295D01*
X130418499Y-64846602D01*
X130497806Y-64787233D01*
X130563270Y-64762815D01*
X130572117Y-64762499D01*
X130905291Y-64762499D01*
X130929473Y-64764880D01*
G37*
%TD.AperFunction*%
%TD*%
%TA.AperFunction,Conductor*%
%TO.N,GND*%
G36*
X127910541Y-145266468D02*
G01*
X127956296Y-145319272D01*
X127967502Y-145370783D01*
X127967502Y-149142783D01*
X127947817Y-149209822D01*
X127895013Y-149255577D01*
X127843502Y-149266783D01*
X125661502Y-149266783D01*
X125594463Y-149247098D01*
X125548708Y-149194294D01*
X125537502Y-149142783D01*
X125537502Y-145370783D01*
X125557187Y-145303744D01*
X125609991Y-145257989D01*
X125661502Y-145246783D01*
X127843502Y-145246783D01*
X127910541Y-145266468D01*
G37*
%TD.AperFunction*%
%TD*%
%TA.AperFunction,Conductor*%
%TO.N,+12V*%
G36*
X130979473Y-136393450D02*
G01*
X131019848Y-136401481D01*
X131064545Y-136419996D01*
X131075446Y-136427280D01*
X131120250Y-136480892D01*
X131128171Y-136506190D01*
X131146036Y-136596007D01*
X131146041Y-136596024D01*
X131151916Y-136610207D01*
X131151918Y-136610210D01*
X131158062Y-136625044D01*
X131167502Y-136672497D01*
X131167502Y-137508407D01*
X131147817Y-137575446D01*
X131095013Y-137621201D01*
X131069284Y-137629697D01*
X131026195Y-137638856D01*
X131026191Y-137638857D01*
X130853269Y-137715848D01*
X130853264Y-137715851D01*
X130700128Y-137827111D01*
X130573465Y-137967785D01*
X130478820Y-138131715D01*
X130478817Y-138131722D01*
X130420326Y-138311740D01*
X130420325Y-138311744D01*
X130400539Y-138500000D01*
X130420325Y-138688256D01*
X130420326Y-138688259D01*
X130478817Y-138868277D01*
X130478820Y-138868284D01*
X130573466Y-139032216D01*
X130700128Y-139172888D01*
X130853264Y-139284148D01*
X130853269Y-139284151D01*
X131026196Y-139361144D01*
X131069285Y-139370302D01*
X131130764Y-139403494D01*
X131164541Y-139464656D01*
X131167502Y-139491592D01*
X131167502Y-142688858D01*
X131165119Y-142713051D01*
X131157090Y-142753413D01*
X131138574Y-142798112D01*
X131122624Y-142821982D01*
X131088415Y-142856191D01*
X131064545Y-142872141D01*
X131019846Y-142890657D01*
X131011451Y-142892327D01*
X130979480Y-142898686D01*
X130955291Y-142901069D01*
X128578087Y-142901069D01*
X128577502Y-142901068D01*
X128577502Y-142901067D01*
X128577184Y-142901066D01*
X128577090Y-142901066D01*
X127082589Y-142892326D01*
X127050647Y-142887946D01*
X127011435Y-142877234D01*
X126998753Y-142873770D01*
X126943493Y-142841577D01*
X126917435Y-142815366D01*
X126885567Y-142759918D01*
X126871696Y-142707947D01*
X126867502Y-142675971D01*
X126867502Y-142226362D01*
X126887187Y-142159323D01*
X126919042Y-142125736D01*
X126954285Y-142100358D01*
X126954288Y-142100354D01*
X126954291Y-142100353D01*
X127135451Y-141925780D01*
X127197384Y-141893436D01*
X127221494Y-141891069D01*
X127617503Y-141891069D01*
X127817502Y-141891069D01*
X127817502Y-139035568D01*
X127837187Y-138968529D01*
X127889991Y-138922774D01*
X127941502Y-138911568D01*
X128334374Y-138911568D01*
X128334375Y-138911568D01*
X128393986Y-138905160D01*
X128528834Y-138854865D01*
X128644049Y-138768615D01*
X128730299Y-138653400D01*
X128780594Y-138518552D01*
X128787003Y-138458942D01*
X128787002Y-136685567D01*
X128806687Y-136618529D01*
X128859490Y-136572774D01*
X128911002Y-136561568D01*
X130234374Y-136561568D01*
X130234375Y-136561568D01*
X130293986Y-136555160D01*
X130428834Y-136504865D01*
X130468499Y-136475172D01*
X130547806Y-136415803D01*
X130613270Y-136391385D01*
X130622117Y-136391069D01*
X130955291Y-136391069D01*
X130979473Y-136393450D01*
G37*
%TD.AperFunction*%
%TD*%
%TA.AperFunction,Conductor*%
%TO.N,GND*%
G36*
X127080541Y-151146468D02*
G01*
X127126296Y-151199272D01*
X127137502Y-151250783D01*
X127137502Y-155514069D01*
X127117817Y-155581108D01*
X127099545Y-155603359D01*
X126623522Y-156062073D01*
X126561589Y-156094416D01*
X126537479Y-156096783D01*
X125918864Y-156096783D01*
X125851825Y-156077098D01*
X125839025Y-156066783D01*
X125823935Y-156066783D01*
X125792498Y-156083949D01*
X125766140Y-156086783D01*
X125036502Y-156086783D01*
X124969463Y-156067098D01*
X124923708Y-156014294D01*
X124912502Y-155962783D01*
X124912502Y-152794986D01*
X124932187Y-152727947D01*
X124962188Y-152695721D01*
X124964049Y-152694329D01*
X125050299Y-152579114D01*
X125100594Y-152444266D01*
X125107003Y-152384656D01*
X125107002Y-151988911D01*
X125100594Y-151929300D01*
X125091573Y-151905116D01*
X125086588Y-151835427D01*
X125091569Y-151818460D01*
X125100594Y-151794266D01*
X125107003Y-151734656D01*
X125107002Y-151388643D01*
X125126686Y-151321605D01*
X125143312Y-151300972D01*
X125281185Y-151163099D01*
X125342506Y-151129617D01*
X125368864Y-151126783D01*
X127013502Y-151126783D01*
X127080541Y-151146468D01*
G37*
%TD.AperFunction*%
%TD*%
%TA.AperFunction,Conductor*%
%TO.N,GND*%
G36*
X127890541Y-130940754D02*
G01*
X127936296Y-130993558D01*
X127947502Y-131045069D01*
X127947502Y-134817069D01*
X127927817Y-134884108D01*
X127875013Y-134929863D01*
X127823502Y-134941069D01*
X125641502Y-134941069D01*
X125574463Y-134921384D01*
X125528708Y-134868580D01*
X125517502Y-134817069D01*
X125517502Y-131045069D01*
X125537187Y-130978030D01*
X125589991Y-130932275D01*
X125641502Y-130921069D01*
X127823502Y-130921069D01*
X127890541Y-130940754D01*
G37*
%TD.AperFunction*%
%TD*%
%TA.AperFunction,Conductor*%
%TO.N,+12V*%
G36*
X130979473Y-107742022D02*
G01*
X131019848Y-107750053D01*
X131064545Y-107768568D01*
X131075446Y-107775852D01*
X131120250Y-107829464D01*
X131128171Y-107854762D01*
X131146037Y-107944580D01*
X131146039Y-107944589D01*
X131158063Y-107973620D01*
X131167502Y-108021069D01*
X131167502Y-108855851D01*
X131147817Y-108922890D01*
X131095013Y-108968645D01*
X131069284Y-108977141D01*
X131037698Y-108983855D01*
X131037694Y-108983856D01*
X130864772Y-109060847D01*
X130864767Y-109060850D01*
X130711631Y-109172110D01*
X130584968Y-109312784D01*
X130490323Y-109476714D01*
X130490320Y-109476721D01*
X130431829Y-109656739D01*
X130431828Y-109656743D01*
X130412042Y-109844999D01*
X130431828Y-110033255D01*
X130431829Y-110033258D01*
X130490320Y-110213276D01*
X130490323Y-110213283D01*
X130584969Y-110377215D01*
X130711631Y-110517887D01*
X130864767Y-110629147D01*
X130864772Y-110629150D01*
X131037699Y-110706143D01*
X131069285Y-110712856D01*
X131130764Y-110746048D01*
X131164541Y-110807210D01*
X131167502Y-110834146D01*
X131167502Y-114037430D01*
X131165119Y-114061623D01*
X131157090Y-114101985D01*
X131138574Y-114146684D01*
X131122624Y-114170554D01*
X131088415Y-114204763D01*
X131064545Y-114220713D01*
X131019846Y-114239229D01*
X131011451Y-114240899D01*
X130979480Y-114247258D01*
X130955291Y-114249641D01*
X128578087Y-114249641D01*
X128577502Y-114249640D01*
X128577502Y-114249639D01*
X128577184Y-114249638D01*
X128577090Y-114249638D01*
X127082589Y-114240898D01*
X127050647Y-114236518D01*
X127011435Y-114225806D01*
X126998753Y-114222342D01*
X126943493Y-114190149D01*
X126917435Y-114163938D01*
X126885567Y-114108490D01*
X126871696Y-114056519D01*
X126867502Y-114024543D01*
X126867502Y-113574934D01*
X126887187Y-113507895D01*
X126919042Y-113474308D01*
X126954285Y-113448930D01*
X126954288Y-113448926D01*
X126954291Y-113448925D01*
X127135451Y-113274352D01*
X127197384Y-113242008D01*
X127221494Y-113239641D01*
X127617503Y-113239641D01*
X127817502Y-113239641D01*
X127817502Y-110384140D01*
X127837187Y-110317101D01*
X127889991Y-110271346D01*
X127941502Y-110260140D01*
X128334374Y-110260140D01*
X128334375Y-110260140D01*
X128393986Y-110253732D01*
X128528834Y-110203437D01*
X128644049Y-110117187D01*
X128730299Y-110001972D01*
X128780594Y-109867124D01*
X128787003Y-109807514D01*
X128787002Y-108034139D01*
X128806687Y-107967101D01*
X128859490Y-107921346D01*
X128911002Y-107910140D01*
X130234374Y-107910140D01*
X130234375Y-107910140D01*
X130293986Y-107903732D01*
X130428834Y-107853437D01*
X130460858Y-107829464D01*
X130547806Y-107764375D01*
X130613270Y-107739957D01*
X130622117Y-107739641D01*
X130955291Y-107739641D01*
X130979473Y-107742022D01*
G37*
%TD.AperFunction*%
%TD*%
%TA.AperFunction,Conductor*%
%TO.N,GND*%
G36*
X127815541Y-45024684D02*
G01*
X127861296Y-45077488D01*
X127872502Y-45128999D01*
X127872502Y-48900999D01*
X127852817Y-48968038D01*
X127800013Y-49013793D01*
X127748502Y-49024999D01*
X125566502Y-49024999D01*
X125499463Y-49005314D01*
X125453708Y-48952510D01*
X125442502Y-48900999D01*
X125442502Y-45128999D01*
X125462187Y-45061960D01*
X125514991Y-45016205D01*
X125566502Y-45004999D01*
X127748502Y-45004999D01*
X127815541Y-45024684D01*
G37*
%TD.AperFunction*%
%TD*%
%TA.AperFunction,Conductor*%
%TO.N,GND*%
G36*
X118270541Y-59372184D02*
G01*
X118316296Y-59424988D01*
X118327502Y-59476499D01*
X118327502Y-67518499D01*
X118307817Y-67585538D01*
X118255013Y-67631293D01*
X118203502Y-67642499D01*
X115701502Y-67642499D01*
X115634463Y-67622814D01*
X115588708Y-67570010D01*
X115577502Y-67518499D01*
X115577502Y-59476499D01*
X115597187Y-59409460D01*
X115649991Y-59363705D01*
X115701502Y-59352499D01*
X118203502Y-59352499D01*
X118270541Y-59372184D01*
G37*
%TD.AperFunction*%
%TD*%
%TA.AperFunction,Conductor*%
%TO.N,GND*%
G36*
X127890541Y-102289326D02*
G01*
X127936296Y-102342130D01*
X127947502Y-102393641D01*
X127947502Y-106165641D01*
X127927817Y-106232680D01*
X127875013Y-106278435D01*
X127823502Y-106289641D01*
X125641502Y-106289641D01*
X125574463Y-106269956D01*
X125528708Y-106217152D01*
X125517502Y-106165641D01*
X125517502Y-102393641D01*
X125537187Y-102326602D01*
X125589991Y-102280847D01*
X125641502Y-102269641D01*
X127823502Y-102269641D01*
X127890541Y-102289326D01*
G37*
%TD.AperFunction*%
%TD*%
%TA.AperFunction,Conductor*%
%TO.N,GND*%
G36*
X127060541Y-93843612D02*
G01*
X127106296Y-93896416D01*
X127117502Y-93947927D01*
X127117502Y-98211213D01*
X127097817Y-98278252D01*
X127079545Y-98300503D01*
X126603522Y-98759217D01*
X126541589Y-98791560D01*
X126517479Y-98793927D01*
X125898864Y-98793927D01*
X125831825Y-98774242D01*
X125819025Y-98763927D01*
X125803935Y-98763927D01*
X125772498Y-98781093D01*
X125746140Y-98783927D01*
X125016502Y-98783927D01*
X124949463Y-98764242D01*
X124903708Y-98711438D01*
X124892502Y-98659927D01*
X124892502Y-95492130D01*
X124912187Y-95425091D01*
X124942188Y-95392865D01*
X124944049Y-95391473D01*
X125030299Y-95276258D01*
X125080594Y-95141410D01*
X125087003Y-95081800D01*
X125087002Y-94686055D01*
X125080594Y-94626444D01*
X125071573Y-94602260D01*
X125066588Y-94532571D01*
X125071569Y-94515604D01*
X125080594Y-94491410D01*
X125087003Y-94431800D01*
X125087002Y-94085787D01*
X125106686Y-94018749D01*
X125123312Y-93998116D01*
X125261185Y-93860243D01*
X125322506Y-93826761D01*
X125348864Y-93823927D01*
X126993502Y-93823927D01*
X127060541Y-93843612D01*
G37*
%TD.AperFunction*%
%TD*%
%TA.AperFunction,Conductor*%
%TO.N,GND*%
G36*
X127890541Y-87963612D02*
G01*
X127936296Y-88016416D01*
X127947502Y-88067927D01*
X127947502Y-91839927D01*
X127927817Y-91906966D01*
X127875013Y-91952721D01*
X127823502Y-91963927D01*
X125641502Y-91963927D01*
X125574463Y-91944242D01*
X125528708Y-91891438D01*
X125517502Y-91839927D01*
X125517502Y-88067927D01*
X125537187Y-88000888D01*
X125589991Y-87955133D01*
X125641502Y-87943927D01*
X127823502Y-87943927D01*
X127890541Y-87963612D01*
G37*
%TD.AperFunction*%
%TD*%
%TA.AperFunction,Conductor*%
%TO.N,/SpikeAndHoldDriverAndLEDs-8/DriveOut*%
G36*
X122870135Y-151520100D02*
G01*
X122899020Y-151530874D01*
X122958630Y-151537283D01*
X124138503Y-151537282D01*
X124205541Y-151556967D01*
X124251296Y-151609770D01*
X124262502Y-151661282D01*
X124262502Y-154662783D01*
X124242817Y-154729822D01*
X124190013Y-154775577D01*
X124138502Y-154786783D01*
X120231502Y-154786783D01*
X120164463Y-154767098D01*
X120118708Y-154714294D01*
X120107502Y-154662783D01*
X120107502Y-152560783D01*
X120127187Y-152493744D01*
X120179991Y-152447989D01*
X120231502Y-152436783D01*
X121246140Y-152436783D01*
X121280196Y-152446783D01*
X121307502Y-152446783D01*
X122205683Y-151548602D01*
X122267006Y-151515117D01*
X122293364Y-151512283D01*
X122826803Y-151512283D01*
X122870135Y-151520100D01*
G37*
%TD.AperFunction*%
%TD*%
M02*
