%TF.GenerationSoftware,KiCad,Pcbnew,8.0.1*%
%TF.CreationDate,2024-09-04T11:15:50-04:00*%
%TF.ProjectId,16ch-driver-v1,31366368-2d64-4726-9976-65722d76312e,rev?*%
%TF.SameCoordinates,Original*%
%TF.FileFunction,Soldermask,Bot*%
%TF.FilePolarity,Negative*%
%FSLAX46Y46*%
G04 Gerber Fmt 4.6, Leading zero omitted, Abs format (unit mm)*
G04 Created by KiCad (PCBNEW 8.0.1) date 2024-09-04 11:15:50*
%MOMM*%
%LPD*%
G01*
G04 APERTURE LIST*
G04 Aperture macros list*
%AMRoundRect*
0 Rectangle with rounded corners*
0 $1 Rounding radius*
0 $2 $3 $4 $5 $6 $7 $8 $9 X,Y pos of 4 corners*
0 Add a 4 corners polygon primitive as box body*
4,1,4,$2,$3,$4,$5,$6,$7,$8,$9,$2,$3,0*
0 Add four circle primitives for the rounded corners*
1,1,$1+$1,$2,$3*
1,1,$1+$1,$4,$5*
1,1,$1+$1,$6,$7*
1,1,$1+$1,$8,$9*
0 Add four rect primitives between the rounded corners*
20,1,$1+$1,$2,$3,$4,$5,0*
20,1,$1+$1,$4,$5,$6,$7,0*
20,1,$1+$1,$6,$7,$8,$9,0*
20,1,$1+$1,$8,$9,$2,$3,0*%
G04 Aperture macros list end*
%ADD10C,0.010000*%
%ADD11C,3.200000*%
%ADD12C,1.250000*%
%ADD13RoundRect,0.102000X-0.754000X0.754000X-0.754000X-0.754000X0.754000X-0.754000X0.754000X0.754000X0*%
%ADD14C,1.712000*%
%ADD15C,1.600000*%
%ADD16O,2.454000X4.704000*%
%ADD17O,2.204000X4.204000*%
%ADD18O,4.204000X2.204000*%
%ADD19RoundRect,0.250000X0.312500X0.625000X-0.312500X0.625000X-0.312500X-0.625000X0.312500X-0.625000X0*%
%ADD20RoundRect,0.150000X-0.150000X0.587500X-0.150000X-0.587500X0.150000X-0.587500X0.150000X0.587500X0*%
%ADD21RoundRect,0.250000X0.325000X1.100000X-0.325000X1.100000X-0.325000X-1.100000X0.325000X-1.100000X0*%
%ADD22RoundRect,0.250000X-0.325000X-0.650000X0.325000X-0.650000X0.325000X0.650000X-0.325000X0.650000X0*%
%ADD23RoundRect,0.102000X-0.800000X-0.150000X0.800000X-0.150000X0.800000X0.150000X-0.800000X0.150000X0*%
%ADD24R,1.200000X1.200000*%
%ADD25RoundRect,0.250000X-0.312500X-0.625000X0.312500X-0.625000X0.312500X0.625000X-0.312500X0.625000X0*%
G04 APERTURE END LIST*
D10*
%TO.C,U12*%
X127816503Y-94084999D02*
X125356503Y-94084999D01*
X125356503Y-91774999D01*
X127816503Y-91774999D01*
X127816503Y-94084999D01*
G36*
X127816503Y-94084999D02*
G01*
X125356503Y-94084999D01*
X125356503Y-91774999D01*
X127816503Y-91774999D01*
X127816503Y-94084999D01*
G37*
%TO.C,U13*%
X127816503Y-108409999D02*
X125356503Y-108409999D01*
X125356503Y-106099999D01*
X127816503Y-106099999D01*
X127816503Y-108409999D01*
G36*
X127816503Y-108409999D02*
G01*
X125356503Y-108409999D01*
X125356503Y-106099999D01*
X127816503Y-106099999D01*
X127816503Y-108409999D01*
G37*
%TO.C,U9*%
X127741503Y-51147499D02*
X125281503Y-51147499D01*
X125281503Y-48837499D01*
X127741503Y-48837499D01*
X127741503Y-51147499D01*
G36*
X127741503Y-51147499D02*
G01*
X125281503Y-51147499D01*
X125281503Y-48837499D01*
X127741503Y-48837499D01*
X127741503Y-51147499D01*
G37*
%TO.C,U16*%
X127847502Y-151379999D02*
X125387502Y-151379999D01*
X125387502Y-149069999D01*
X127847502Y-149069999D01*
X127847502Y-151379999D01*
G36*
X127847502Y-151379999D02*
G01*
X125387502Y-151379999D01*
X125387502Y-149069999D01*
X127847502Y-149069999D01*
X127847502Y-151379999D01*
G37*
%TO.C,U10*%
X127766503Y-65434999D02*
X125306503Y-65434999D01*
X125306503Y-63124999D01*
X127766503Y-63124999D01*
X127766503Y-65434999D01*
G36*
X127766503Y-65434999D02*
G01*
X125306503Y-65434999D01*
X125306503Y-63124999D01*
X127766503Y-63124999D01*
X127766503Y-65434999D01*
G37*
%TO.C,U14*%
X127816503Y-122734999D02*
X125356503Y-122734999D01*
X125356503Y-120424999D01*
X127816503Y-120424999D01*
X127816503Y-122734999D01*
G36*
X127816503Y-122734999D02*
G01*
X125356503Y-122734999D01*
X125356503Y-120424999D01*
X127816503Y-120424999D01*
X127816503Y-122734999D01*
G37*
%TO.C,U15*%
X127805000Y-137065000D02*
X125345000Y-137065000D01*
X125345000Y-134755000D01*
X127805000Y-134755000D01*
X127805000Y-137065000D01*
G36*
X127805000Y-137065000D02*
G01*
X125345000Y-137065000D01*
X125345000Y-134755000D01*
X127805000Y-134755000D01*
X127805000Y-137065000D01*
G37*
%TO.C,U11*%
X127816503Y-79759999D02*
X125356503Y-79759999D01*
X125356503Y-77449999D01*
X127816503Y-77449999D01*
X127816503Y-79759999D01*
G36*
X127816503Y-79759999D02*
G01*
X125356503Y-79759999D01*
X125356503Y-77449999D01*
X127816503Y-77449999D01*
X127816503Y-79759999D01*
G37*
%TD*%
D11*
%TO.C,H3*%
X94075000Y-41835000D03*
%TD*%
D12*
%TO.C,LP4*%
X181980000Y-101910000D03*
X159980000Y-107110000D03*
%TD*%
D13*
%TO.C,J3*%
X106637502Y-60639998D03*
X101557502Y-60639998D03*
D14*
X106637502Y-63179998D03*
X101557502Y-63179998D03*
X106637502Y-65719998D03*
X101557502Y-65719998D03*
X106637502Y-68259998D03*
X101557502Y-68259998D03*
X106637502Y-70799998D03*
X101557502Y-70799998D03*
X106637502Y-73339998D03*
X101557502Y-73339998D03*
X106637502Y-75879998D03*
X101557502Y-75879998D03*
X106637502Y-78419998D03*
X101557502Y-78419998D03*
X106637502Y-80959998D03*
X101557502Y-80959998D03*
X106637502Y-83499998D03*
X101557502Y-83499998D03*
X106637502Y-86039998D03*
X101557502Y-86039998D03*
X106637502Y-88579998D03*
X101557502Y-88579998D03*
X106637502Y-91119998D03*
X101557502Y-91119998D03*
X106637502Y-93659998D03*
X101557502Y-93659998D03*
X106637502Y-96199998D03*
X101557502Y-96199998D03*
X106637502Y-98739998D03*
X101557502Y-98739998D03*
%TD*%
D12*
%TO.C,LP7*%
X181979997Y-123060001D03*
X159979997Y-128260001D03*
%TD*%
%TO.C,LP5*%
X181979998Y-108959998D03*
X159979998Y-114159998D03*
%TD*%
D15*
%TO.C,J1*%
X179955086Y-146253591D03*
D16*
X170955086Y-146253591D03*
D17*
X176955086Y-146253591D03*
D18*
X177955086Y-141753591D03*
X177955086Y-150753591D03*
%TD*%
D11*
%TO.C,H1*%
X94075000Y-159060000D03*
%TD*%
D13*
%TO.C,J4*%
X106662502Y-103439998D03*
X101582502Y-103439998D03*
D14*
X106662502Y-105979998D03*
X101582502Y-105979998D03*
X106662502Y-108519998D03*
X101582502Y-108519998D03*
X106662502Y-111059998D03*
X101582502Y-111059998D03*
X106662502Y-113599998D03*
X101582502Y-113599998D03*
X106662502Y-116139998D03*
X101582502Y-116139998D03*
X106662502Y-118679998D03*
X101582502Y-118679998D03*
X106662502Y-121219998D03*
X101582502Y-121219998D03*
X106662502Y-123759998D03*
X101582502Y-123759998D03*
X106662502Y-126299998D03*
X101582502Y-126299998D03*
X106662502Y-128839998D03*
X101582502Y-128839998D03*
X106662502Y-131379998D03*
X101582502Y-131379998D03*
X106662502Y-133919998D03*
X101582502Y-133919998D03*
X106662502Y-136459998D03*
X101582502Y-136459998D03*
X106662502Y-138999998D03*
X101582502Y-138999998D03*
X106662502Y-141539998D03*
X101582502Y-141539998D03*
%TD*%
D11*
%TO.C,H2*%
X183025000Y-159060000D03*
%TD*%
D13*
%TO.C,U18*%
X179697064Y-49188987D03*
D14*
X179697064Y-51728987D03*
X177157064Y-49188987D03*
X177157064Y-51728987D03*
X174617064Y-49188987D03*
X174617064Y-51728987D03*
X172077064Y-49188987D03*
X172077064Y-51728987D03*
X169537064Y-49188987D03*
X169537064Y-51728987D03*
X166997064Y-49188987D03*
X166997064Y-51728987D03*
X164457064Y-49188987D03*
X164457064Y-51728987D03*
X161917064Y-49188987D03*
X161917064Y-51728987D03*
X159377064Y-49188987D03*
X159377064Y-51728987D03*
X156837064Y-49188987D03*
X156837064Y-51728987D03*
X154297064Y-49188987D03*
X154297064Y-51728987D03*
X151757064Y-49188987D03*
X151757064Y-51728987D03*
X149217064Y-49188987D03*
X149217064Y-51728987D03*
D13*
X179697064Y-72078987D03*
D14*
X179687064Y-74618987D03*
X177157064Y-72078987D03*
X177157064Y-74618987D03*
X174617064Y-72078987D03*
X174617064Y-74618987D03*
X172077064Y-72078987D03*
X172077064Y-74618987D03*
X169537064Y-72078987D03*
X169537064Y-74618987D03*
X166997064Y-72078987D03*
X166997064Y-74618987D03*
X164457064Y-72078987D03*
X164457064Y-74618987D03*
X161917064Y-72078987D03*
X161917064Y-74618987D03*
X159377064Y-72078987D03*
X159377064Y-74618987D03*
X156837064Y-72078987D03*
X156837064Y-74618987D03*
X154297064Y-72078987D03*
X154297064Y-74618987D03*
X151757064Y-72078987D03*
X151757064Y-74618987D03*
X149217064Y-72078987D03*
X149217064Y-74618987D03*
%TD*%
D12*
%TO.C,LP8*%
X181980000Y-130110000D03*
X159980000Y-135310000D03*
%TD*%
%TO.C,LP2*%
X181979997Y-87810002D03*
X159979997Y-93010002D03*
%TD*%
D11*
%TO.C,H4*%
X183025000Y-41835000D03*
%TD*%
D12*
%TO.C,LP6*%
X181980000Y-116010002D03*
X159980000Y-121210002D03*
%TD*%
%TO.C,LP1*%
X181979997Y-80759998D03*
X159979997Y-85959998D03*
%TD*%
%TO.C,LP3*%
X181980000Y-94860000D03*
X159980000Y-100060000D03*
%TD*%
D19*
%TO.C,R78*%
X135830002Y-105594999D03*
X132905002Y-105594999D03*
%TD*%
%TO.C,R55*%
X135800002Y-69459999D03*
X132875002Y-69459999D03*
%TD*%
%TO.C,R67*%
X135850002Y-98109999D03*
X132925002Y-98109999D03*
%TD*%
D20*
%TO.C,Q9*%
X129342502Y-53924999D03*
X131242502Y-53924999D03*
X130292502Y-55799999D03*
%TD*%
D19*
%TO.C,R60*%
X135780002Y-62619999D03*
X132855002Y-62619999D03*
%TD*%
D21*
%TO.C,C38*%
X128417502Y-102749999D03*
X125467502Y-102749999D03*
%TD*%
%TO.C,C32*%
X128417502Y-74099999D03*
X125467502Y-74099999D03*
%TD*%
D22*
%TO.C,C27*%
X117757502Y-54022499D03*
X120707502Y-54022499D03*
%TD*%
D20*
%TO.C,Q16*%
X129448501Y-154157499D03*
X131348501Y-154157499D03*
X130398501Y-156032499D03*
%TD*%
D19*
%TO.C,R70*%
X135848803Y-95808299D03*
X132923803Y-95808299D03*
%TD*%
D21*
%TO.C,C35*%
X128417502Y-88424999D03*
X125467502Y-88424999D03*
%TD*%
D19*
%TO.C,R57*%
X135796503Y-64899999D03*
X132871503Y-64899999D03*
%TD*%
D23*
%TO.C,U12*%
X123786503Y-94879999D03*
X123786503Y-94229999D03*
X123786503Y-93579999D03*
X123786503Y-92929999D03*
X123786503Y-92279999D03*
X123786503Y-91629999D03*
X123786503Y-90979999D03*
X129386503Y-90979999D03*
X129386503Y-91629999D03*
X129386503Y-92279999D03*
X129386503Y-92929999D03*
X129386503Y-93579999D03*
X129386503Y-94229999D03*
X129386503Y-94879999D03*
%TD*%
D19*
%TO.C,R92*%
X126751001Y-154304999D03*
X123826001Y-154304999D03*
%TD*%
%TO.C,R76*%
X135848803Y-110133299D03*
X132923803Y-110133299D03*
%TD*%
%TO.C,R90*%
X135818499Y-134250000D03*
X132893499Y-134250000D03*
%TD*%
D22*
%TO.C,C49*%
X117863501Y-149684999D03*
X120813501Y-149684999D03*
%TD*%
%TO.C,C39*%
X117832502Y-111284999D03*
X120782502Y-111284999D03*
%TD*%
D19*
%TO.C,R74*%
X126720002Y-111334999D03*
X123795002Y-111334999D03*
%TD*%
%TO.C,R63*%
X135846503Y-79224999D03*
X132921503Y-79224999D03*
%TD*%
D20*
%TO.C,Q15*%
X129405999Y-139842500D03*
X131305999Y-139842500D03*
X130355999Y-141717500D03*
%TD*%
D19*
%TO.C,R62*%
X126720002Y-82684999D03*
X123795002Y-82684999D03*
%TD*%
D24*
%TO.C,D28*%
X120645002Y-61469999D03*
X117845002Y-61469999D03*
%TD*%
D23*
%TO.C,U13*%
X123786503Y-109204999D03*
X123786503Y-108554999D03*
X123786503Y-107904999D03*
X123786503Y-107254999D03*
X123786503Y-106604999D03*
X123786503Y-105954999D03*
X123786503Y-105304999D03*
X129386503Y-105304999D03*
X129386503Y-105954999D03*
X129386503Y-106604999D03*
X129386503Y-107254999D03*
X129386503Y-107904999D03*
X129386503Y-108554999D03*
X129386503Y-109204999D03*
%TD*%
D22*
%TO.C,C30*%
X117782502Y-68309999D03*
X120732502Y-68309999D03*
%TD*%
D24*
%TO.C,D25*%
X120620002Y-47182499D03*
X117820002Y-47182499D03*
%TD*%
D19*
%TO.C,R69*%
X135846503Y-93549999D03*
X132921503Y-93549999D03*
%TD*%
%TO.C,R61*%
X135850002Y-83784999D03*
X132925002Y-83784999D03*
%TD*%
%TO.C,R68*%
X126720002Y-97009999D03*
X123795002Y-97009999D03*
%TD*%
D21*
%TO.C,C29*%
X128367502Y-59774999D03*
X125417502Y-59774999D03*
%TD*%
D19*
%TO.C,R94*%
X135879802Y-153103299D03*
X132954802Y-153103299D03*
%TD*%
%TO.C,R85*%
X135838499Y-141090000D03*
X132913499Y-141090000D03*
%TD*%
%TO.C,R64*%
X135848803Y-81483299D03*
X132923803Y-81483299D03*
%TD*%
D25*
%TO.C,R59*%
X117786503Y-66029999D03*
X120711503Y-66029999D03*
%TD*%
D19*
%TO.C,R84*%
X135830002Y-119919999D03*
X132905002Y-119919999D03*
%TD*%
%TO.C,R54*%
X135755002Y-48332499D03*
X132830002Y-48332499D03*
%TD*%
D22*
%TO.C,C40*%
X117832502Y-106714999D03*
X120782502Y-106714999D03*
%TD*%
D24*
%TO.C,D37*%
X120695002Y-104444999D03*
X117895002Y-104444999D03*
%TD*%
D19*
%TO.C,R49*%
X135775002Y-55172499D03*
X132850002Y-55172499D03*
%TD*%
D23*
%TO.C,U9*%
X123711503Y-51942499D03*
X123711503Y-51292499D03*
X123711503Y-50642499D03*
X123711503Y-49992499D03*
X123711503Y-49342499D03*
X123711503Y-48692499D03*
X123711503Y-48042499D03*
X129311503Y-48042499D03*
X129311503Y-48692499D03*
X129311503Y-49342499D03*
X129311503Y-49992499D03*
X129311503Y-50642499D03*
X129311503Y-51292499D03*
X129311503Y-51942499D03*
%TD*%
D19*
%TO.C,R50*%
X126645002Y-54072499D03*
X123720002Y-54072499D03*
%TD*%
%TO.C,R73*%
X135850002Y-112434999D03*
X132925002Y-112434999D03*
%TD*%
D20*
%TO.C,Q10*%
X129367502Y-68212499D03*
X131267502Y-68212499D03*
X130317502Y-70087499D03*
%TD*%
D21*
%TO.C,C26*%
X128342502Y-45487499D03*
X125392502Y-45487499D03*
%TD*%
D24*
%TO.C,D34*%
X120695002Y-90119999D03*
X117895002Y-90119999D03*
%TD*%
D19*
%TO.C,R72*%
X135830002Y-91269999D03*
X132905002Y-91269999D03*
%TD*%
D22*
%TO.C,C45*%
X117820999Y-139940000D03*
X120770999Y-139940000D03*
%TD*%
%TO.C,C37*%
X117832502Y-92389999D03*
X120782502Y-92389999D03*
%TD*%
D19*
%TO.C,R66*%
X135830002Y-76944999D03*
X132905002Y-76944999D03*
%TD*%
D22*
%TO.C,C31*%
X117782502Y-63739999D03*
X120732502Y-63739999D03*
%TD*%
D19*
%TO.C,R96*%
X135861001Y-148564999D03*
X132936001Y-148564999D03*
%TD*%
D22*
%TO.C,C43*%
X117832502Y-121039999D03*
X120782502Y-121039999D03*
%TD*%
%TO.C,C46*%
X117820999Y-135370000D03*
X120770999Y-135370000D03*
%TD*%
D25*
%TO.C,R71*%
X117836503Y-94679999D03*
X120761503Y-94679999D03*
%TD*%
D19*
%TO.C,R75*%
X135846503Y-107874999D03*
X132921503Y-107874999D03*
%TD*%
D24*
%TO.C,D40*%
X120695002Y-118769999D03*
X117895002Y-118769999D03*
%TD*%
D23*
%TO.C,U16*%
X123817502Y-152174999D03*
X123817502Y-151524999D03*
X123817502Y-150874999D03*
X123817502Y-150224999D03*
X123817502Y-149574999D03*
X123817502Y-148924999D03*
X123817502Y-148274999D03*
X129417502Y-148274999D03*
X129417502Y-148924999D03*
X129417502Y-149574999D03*
X129417502Y-150224999D03*
X129417502Y-150874999D03*
X129417502Y-151524999D03*
X129417502Y-152174999D03*
%TD*%
D21*
%TO.C,C41*%
X128417502Y-117074999D03*
X125467502Y-117074999D03*
%TD*%
D19*
%TO.C,R93*%
X135877502Y-150844999D03*
X132952502Y-150844999D03*
%TD*%
D23*
%TO.C,U10*%
X123736503Y-66229999D03*
X123736503Y-65579999D03*
X123736503Y-64929999D03*
X123736503Y-64279999D03*
X123736503Y-63629999D03*
X123736503Y-62979999D03*
X123736503Y-62329999D03*
X129336503Y-62329999D03*
X129336503Y-62979999D03*
X129336503Y-63629999D03*
X129336503Y-64279999D03*
X129336503Y-64929999D03*
X129336503Y-65579999D03*
X129336503Y-66229999D03*
%TD*%
D19*
%TO.C,R51*%
X135771503Y-50612499D03*
X132846503Y-50612499D03*
%TD*%
D25*
%TO.C,R77*%
X117836503Y-109004999D03*
X120761503Y-109004999D03*
%TD*%
D24*
%TO.C,D43*%
X120683499Y-133100000D03*
X117883499Y-133100000D03*
%TD*%
D22*
%TO.C,C42*%
X117832502Y-125609999D03*
X120782502Y-125609999D03*
%TD*%
%TO.C,C36*%
X117832502Y-96959999D03*
X120782502Y-96959999D03*
%TD*%
D21*
%TO.C,C47*%
X128448501Y-145719999D03*
X125498501Y-145719999D03*
%TD*%
D22*
%TO.C,C34*%
X117832502Y-78064999D03*
X120782502Y-78064999D03*
%TD*%
D19*
%TO.C,R91*%
X135881001Y-155404999D03*
X132956001Y-155404999D03*
%TD*%
D23*
%TO.C,U14*%
X123786503Y-123529999D03*
X123786503Y-122879999D03*
X123786503Y-122229999D03*
X123786503Y-121579999D03*
X123786503Y-120929999D03*
X123786503Y-120279999D03*
X123786503Y-119629999D03*
X129386503Y-119629999D03*
X129386503Y-120279999D03*
X129386503Y-120929999D03*
X129386503Y-121579999D03*
X129386503Y-122229999D03*
X129386503Y-122879999D03*
X129386503Y-123529999D03*
%TD*%
D19*
%TO.C,R58*%
X135798803Y-67158299D03*
X132873803Y-67158299D03*
%TD*%
D25*
%TO.C,R65*%
X117836503Y-80354999D03*
X120761503Y-80354999D03*
%TD*%
D20*
%TO.C,Q11*%
X129417502Y-82537499D03*
X131317502Y-82537499D03*
X130367502Y-84412499D03*
%TD*%
%TO.C,Q14*%
X129417502Y-125512499D03*
X131317502Y-125512499D03*
X130367502Y-127387499D03*
%TD*%
D25*
%TO.C,R89*%
X117825000Y-137660000D03*
X120750000Y-137660000D03*
%TD*%
D19*
%TO.C,R80*%
X126720002Y-125659999D03*
X123795002Y-125659999D03*
%TD*%
D22*
%TO.C,C28*%
X117757502Y-49452499D03*
X120707502Y-49452499D03*
%TD*%
D23*
%TO.C,U15*%
X123775000Y-137860000D03*
X123775000Y-137210000D03*
X123775000Y-136560000D03*
X123775000Y-135910000D03*
X123775000Y-135260000D03*
X123775000Y-134610000D03*
X123775000Y-133960000D03*
X129375000Y-133960000D03*
X129375000Y-134610000D03*
X129375000Y-135260000D03*
X129375000Y-135910000D03*
X129375000Y-136560000D03*
X129375000Y-137210000D03*
X129375000Y-137860000D03*
%TD*%
D24*
%TO.C,D46*%
X120726001Y-147414999D03*
X117926001Y-147414999D03*
%TD*%
D19*
%TO.C,R81*%
X135846503Y-122199999D03*
X132921503Y-122199999D03*
%TD*%
%TO.C,R52*%
X135773803Y-52870799D03*
X132848803Y-52870799D03*
%TD*%
%TO.C,R56*%
X126670002Y-68359999D03*
X123745002Y-68359999D03*
%TD*%
%TO.C,R82*%
X135848803Y-124458299D03*
X132923803Y-124458299D03*
%TD*%
D25*
%TO.C,R95*%
X117867502Y-151974999D03*
X120792502Y-151974999D03*
%TD*%
D19*
%TO.C,R79*%
X135850002Y-126759999D03*
X132925002Y-126759999D03*
%TD*%
D21*
%TO.C,C44*%
X128405999Y-131405000D03*
X125455999Y-131405000D03*
%TD*%
D23*
%TO.C,U11*%
X123786503Y-80554999D03*
X123786503Y-79904999D03*
X123786503Y-79254999D03*
X123786503Y-78604999D03*
X123786503Y-77954999D03*
X123786503Y-77304999D03*
X123786503Y-76654999D03*
X129386503Y-76654999D03*
X129386503Y-77304999D03*
X129386503Y-77954999D03*
X129386503Y-78604999D03*
X129386503Y-79254999D03*
X129386503Y-79904999D03*
X129386503Y-80554999D03*
%TD*%
D19*
%TO.C,R86*%
X126708499Y-139990000D03*
X123783499Y-139990000D03*
%TD*%
D20*
%TO.C,Q12*%
X129417502Y-96862499D03*
X131317502Y-96862499D03*
X130367502Y-98737499D03*
%TD*%
D19*
%TO.C,R88*%
X135837300Y-138788300D03*
X132912300Y-138788300D03*
%TD*%
D20*
%TO.C,Q13*%
X129417502Y-111187499D03*
X131317502Y-111187499D03*
X130367502Y-113062499D03*
%TD*%
D25*
%TO.C,R83*%
X117836503Y-123329999D03*
X120761503Y-123329999D03*
%TD*%
D19*
%TO.C,R87*%
X135835000Y-136530000D03*
X132910000Y-136530000D03*
%TD*%
D25*
%TO.C,R53*%
X117761503Y-51742499D03*
X120686503Y-51742499D03*
%TD*%
D24*
%TO.C,D31*%
X120695002Y-75794999D03*
X117895002Y-75794999D03*
%TD*%
D22*
%TO.C,C33*%
X117832502Y-82634999D03*
X120782502Y-82634999D03*
%TD*%
%TO.C,C48*%
X117863501Y-154254999D03*
X120813501Y-154254999D03*
%TD*%
M02*
