%TF.GenerationSoftware,KiCad,Pcbnew,8.0.1*%
%TF.CreationDate,2024-09-04T11:05:25-04:00*%
%TF.ProjectId,16ch-driver-v1,31366368-2d64-4726-9976-65722d76312e,rev?*%
%TF.SameCoordinates,Original*%
%TF.FileFunction,Copper,L4,Bot*%
%TF.FilePolarity,Positive*%
%FSLAX46Y46*%
G04 Gerber Fmt 4.6, Leading zero omitted, Abs format (unit mm)*
G04 Created by KiCad (PCBNEW 8.0.1) date 2024-09-04 11:05:25*
%MOMM*%
%LPD*%
G01*
G04 APERTURE LIST*
G04 Aperture macros list*
%AMRoundRect*
0 Rectangle with rounded corners*
0 $1 Rounding radius*
0 $2 $3 $4 $5 $6 $7 $8 $9 X,Y pos of 4 corners*
0 Add a 4 corners polygon primitive as box body*
4,1,4,$2,$3,$4,$5,$6,$7,$8,$9,$2,$3,0*
0 Add four circle primitives for the rounded corners*
1,1,$1+$1,$2,$3*
1,1,$1+$1,$4,$5*
1,1,$1+$1,$6,$7*
1,1,$1+$1,$8,$9*
0 Add four rect primitives between the rounded corners*
20,1,$1+$1,$2,$3,$4,$5,0*
20,1,$1+$1,$4,$5,$6,$7,0*
20,1,$1+$1,$6,$7,$8,$9,0*
20,1,$1+$1,$8,$9,$2,$3,0*%
G04 Aperture macros list end*
%TA.AperFunction,ComponentPad*%
%ADD10R,1.508000X1.508000*%
%TD*%
%TA.AperFunction,ComponentPad*%
%ADD11C,1.508000*%
%TD*%
%TA.AperFunction,ComponentPad*%
%ADD12O,2.250000X4.500000*%
%TD*%
%TA.AperFunction,ComponentPad*%
%ADD13O,2.000000X4.000000*%
%TD*%
%TA.AperFunction,ComponentPad*%
%ADD14O,4.000000X2.000000*%
%TD*%
%TA.AperFunction,SMDPad,CuDef*%
%ADD15RoundRect,0.250000X0.312500X0.625000X-0.312500X0.625000X-0.312500X-0.625000X0.312500X-0.625000X0*%
%TD*%
%TA.AperFunction,SMDPad,CuDef*%
%ADD16RoundRect,0.150000X-0.150000X0.587500X-0.150000X-0.587500X0.150000X-0.587500X0.150000X0.587500X0*%
%TD*%
%TA.AperFunction,SMDPad,CuDef*%
%ADD17RoundRect,0.250000X0.325000X1.100000X-0.325000X1.100000X-0.325000X-1.100000X0.325000X-1.100000X0*%
%TD*%
%TA.AperFunction,SMDPad,CuDef*%
%ADD18RoundRect,0.250000X-0.325000X-0.650000X0.325000X-0.650000X0.325000X0.650000X-0.325000X0.650000X0*%
%TD*%
%TA.AperFunction,SMDPad,CuDef*%
%ADD19R,1.600000X0.300000*%
%TD*%
%TA.AperFunction,SMDPad,CuDef*%
%ADD20R,3.400000X5.000000*%
%TD*%
%TA.AperFunction,SMDPad,CuDef*%
%ADD21R,1.200000X1.200000*%
%TD*%
%TA.AperFunction,SMDPad,CuDef*%
%ADD22RoundRect,0.250000X-0.312500X-0.625000X0.312500X-0.625000X0.312500X0.625000X-0.312500X0.625000X0*%
%TD*%
%TA.AperFunction,ViaPad*%
%ADD23C,0.800000*%
%TD*%
%TA.AperFunction,Conductor*%
%ADD24C,0.250000*%
%TD*%
%TA.AperFunction,Conductor*%
%ADD25C,2.000000*%
%TD*%
%TA.AperFunction,Conductor*%
%ADD26C,1.000000*%
%TD*%
G04 APERTURE END LIST*
D10*
%TO.P,J3,1_A,1*%
%TO.N,/SpikeAndHoldDriverAndLEDs-1/DriveOut*%
X106637502Y-60639998D03*
%TO.P,J3,1_B,1*%
X101557502Y-60639998D03*
D11*
%TO.P,J3,2_A,2*%
%TO.N,GND*%
X106637502Y-63179998D03*
%TO.P,J3,2_B,2*%
X101557502Y-63179998D03*
%TO.P,J3,3_A,3*%
%TO.N,/SpikeAndHoldDriverAndLEDs-9/DriveOut*%
X106637502Y-65719998D03*
%TO.P,J3,3_B,3*%
X101557502Y-65719998D03*
%TO.P,J3,4_A,4*%
%TO.N,GND*%
X106637502Y-68259998D03*
%TO.P,J3,4_B,4*%
X101557502Y-68259998D03*
%TO.P,J3,5_A,5*%
%TO.N,/SpikeAndHoldDriverAndLEDs-2/DriveOut*%
X106637502Y-70799998D03*
%TO.P,J3,5_B,5*%
X101557502Y-70799998D03*
%TO.P,J3,6_A,6*%
%TO.N,GND*%
X106637502Y-73339998D03*
%TO.P,J3,6_B,6*%
X101557502Y-73339998D03*
%TO.P,J3,7_A,7*%
%TO.N,/SpikeAndHoldDriverAndLEDs-10/DriveOut*%
X106637502Y-75879998D03*
%TO.P,J3,7_B,7*%
X101557502Y-75879998D03*
%TO.P,J3,8_A,8*%
%TO.N,GND*%
X106637502Y-78419998D03*
%TO.P,J3,8_B,8*%
X101557502Y-78419998D03*
%TO.P,J3,9_A,9*%
%TO.N,/SpikeAndHoldDriverAndLEDs-3/DriveOut*%
X106637502Y-80959998D03*
%TO.P,J3,9_B,9*%
X101557502Y-80959998D03*
%TO.P,J3,10_A,10*%
%TO.N,GND*%
X106637502Y-83499998D03*
%TO.P,J3,10_B,10*%
X101557502Y-83499998D03*
%TO.P,J3,11_A,11*%
%TO.N,/SpikeAndHoldDriverAndLEDs-11/DriveOut*%
X106637502Y-86039998D03*
%TO.P,J3,11_B,11*%
X101557502Y-86039998D03*
%TO.P,J3,12_A,12*%
%TO.N,GND*%
X106637502Y-88579998D03*
%TO.P,J3,12_B,12*%
X101557502Y-88579998D03*
%TO.P,J3,13_A,13*%
%TO.N,/SpikeAndHoldDriverAndLEDs-4/DriveOut*%
X106637502Y-91119998D03*
%TO.P,J3,13_B,13*%
X101557502Y-91119998D03*
%TO.P,J3,14_A,14*%
%TO.N,GND*%
X106637502Y-93659998D03*
%TO.P,J3,14_B,14*%
X101557502Y-93659998D03*
%TO.P,J3,15_A,15*%
%TO.N,/SpikeAndHoldDriverAndLEDs-12/DriveOut*%
X106637502Y-96199998D03*
%TO.P,J3,15_B,15*%
X101557502Y-96199998D03*
%TO.P,J3,16_A,16*%
%TO.N,GND*%
X106637502Y-98739998D03*
%TO.P,J3,16_B,16*%
X101557502Y-98739998D03*
%TD*%
D12*
%TO.P,J1,1*%
%TO.N,/12V_IN*%
X170955086Y-146253591D03*
D13*
%TO.P,J1,2*%
%TO.N,GND*%
X176955086Y-146253591D03*
D14*
%TO.P,J1,S1,SHIELD*%
X177955086Y-141753591D03*
%TO.P,J1,S2,SHIELD*%
X177955086Y-150753591D03*
%TD*%
D10*
%TO.P,J4,1_A,1*%
%TO.N,/SpikeAndHoldDriverAndLEDs-5/DriveOut*%
X106662502Y-103439998D03*
%TO.P,J4,1_B,1*%
X101582502Y-103439998D03*
D11*
%TO.P,J4,2_A,2*%
%TO.N,GND*%
X106662502Y-105979998D03*
%TO.P,J4,2_B,2*%
X101582502Y-105979998D03*
%TO.P,J4,3_A,3*%
%TO.N,/SpikeAndHoldDriverAndLEDs-13/DriveOut*%
X106662502Y-108519998D03*
%TO.P,J4,3_B,3*%
X101582502Y-108519998D03*
%TO.P,J4,4_A,4*%
%TO.N,GND*%
X106662502Y-111059998D03*
%TO.P,J4,4_B,4*%
X101582502Y-111059998D03*
%TO.P,J4,5_A,5*%
%TO.N,/SpikeAndHoldDriverAndLEDs-6/DriveOut*%
X106662502Y-113599998D03*
%TO.P,J4,5_B,5*%
X101582502Y-113599998D03*
%TO.P,J4,6_A,6*%
%TO.N,GND*%
X106662502Y-116139998D03*
%TO.P,J4,6_B,6*%
X101582502Y-116139998D03*
%TO.P,J4,7_A,7*%
%TO.N,/SpikeAndHoldDriverAndLEDs-14/DriveOut*%
X106662502Y-118679998D03*
%TO.P,J4,7_B,7*%
X101582502Y-118679998D03*
%TO.P,J4,8_A,8*%
%TO.N,GND*%
X106662502Y-121219998D03*
%TO.P,J4,8_B,8*%
X101582502Y-121219998D03*
%TO.P,J4,9_A,9*%
%TO.N,/SpikeAndHoldDriverAndLEDs-7/DriveOut*%
X106662502Y-123759998D03*
%TO.P,J4,9_B,9*%
X101582502Y-123759998D03*
%TO.P,J4,10_A,10*%
%TO.N,GND*%
X106662502Y-126299998D03*
%TO.P,J4,10_B,10*%
X101582502Y-126299998D03*
%TO.P,J4,11_A,11*%
%TO.N,/SpikeAndHoldDriverAndLEDs-15/DriveOut*%
X106662502Y-128839998D03*
%TO.P,J4,11_B,11*%
X101582502Y-128839998D03*
%TO.P,J4,12_A,12*%
%TO.N,GND*%
X106662502Y-131379998D03*
%TO.P,J4,12_B,12*%
X101582502Y-131379998D03*
%TO.P,J4,13_A,13*%
%TO.N,/SpikeAndHoldDriverAndLEDs-8/DriveOut*%
X106662502Y-133919998D03*
%TO.P,J4,13_B,13*%
X101582502Y-133919998D03*
%TO.P,J4,14_A,14*%
%TO.N,GND*%
X106662502Y-136459998D03*
%TO.P,J4,14_B,14*%
X101582502Y-136459998D03*
%TO.P,J4,15_A,15*%
%TO.N,/SpikeAndHoldDriverAndLEDs-16/DriveOut*%
X106662502Y-138999998D03*
%TO.P,J4,15_B,15*%
X101582502Y-138999998D03*
%TO.P,J4,16_A,16*%
%TO.N,GND*%
X106662502Y-141539998D03*
%TO.P,J4,16_B,16*%
X101582502Y-141539998D03*
%TD*%
D10*
%TO.P,U18,CN2-1,V3V3*%
%TO.N,+3.3V*%
X179697064Y-49188987D03*
D11*
%TO.P,U18,CN2-2,GND*%
%TO.N,GND*%
X179697064Y-51728987D03*
%TO.P,U18,CN2-3,V3V3*%
%TO.N,+3.3V*%
X177157064Y-49188987D03*
%TO.P,U18,CN2-4,GND*%
%TO.N,GND*%
X177157064Y-51728987D03*
%TO.P,U18,CN2-5,V3V3*%
%TO.N,+3.3V*%
X174617064Y-49188987D03*
%TO.P,U18,CN2-6,GND*%
%TO.N,GND*%
X174617064Y-51728987D03*
%TO.P,U18,CN2-7,AD0*%
%TO.N,unconnected-(U18-AD0-PadCN2-7)*%
X172077064Y-49188987D03*
%TO.P,U18,CN2-8,RESET#*%
%TO.N,+3.3V*%
X172077064Y-51728987D03*
%TO.P,U18,CN2-9,AD2*%
%TO.N,unconnected-(U18-AD2-PadCN2-9)*%
X169537064Y-49188987D03*
%TO.P,U18,CN2-10,AD1*%
%TO.N,unconnected-(U18-AD1-PadCN2-10)*%
X169537064Y-51728987D03*
%TO.P,U18,CN2-11,VIO*%
%TO.N,+3.3V*%
X166997064Y-49188987D03*
%TO.P,U18,CN2-12,AD3*%
%TO.N,unconnected-(U18-AD3-PadCN2-12)*%
X166997064Y-51728987D03*
%TO.P,U18,CN2-13,AD5*%
%TO.N,unconnected-(U18-AD5-PadCN2-13)*%
X164457064Y-49188987D03*
%TO.P,U18,CN2-14,AD4*%
%TO.N,unconnected-(U18-AD4-PadCN2-14)*%
X164457064Y-51728987D03*
%TO.P,U18,CN2-15,AD7*%
%TO.N,unconnected-(U18-AD7-PadCN2-15)*%
X161917064Y-49188987D03*
%TO.P,U18,CN2-16,AD6*%
%TO.N,unconnected-(U18-AD6-PadCN2-16)*%
X161917064Y-51728987D03*
%TO.P,U18,CN2-17,BD1*%
%TO.N,unconnected-(U18-BD1-PadCN2-17)*%
X159377064Y-49188987D03*
%TO.P,U18,CN2-18,BD0*%
%TO.N,unconnected-(U18-BD0-PadCN2-18)*%
X159377064Y-51728987D03*
%TO.P,U18,CN2-19,BD3*%
%TO.N,unconnected-(U18-BD3-PadCN2-19)*%
X156837064Y-49188987D03*
%TO.P,U18,CN2-20,BD2*%
%TO.N,unconnected-(U18-BD2-PadCN2-20)*%
X156837064Y-51728987D03*
%TO.P,U18,CN2-21,VIO*%
%TO.N,+3.3V*%
X154297064Y-49188987D03*
%TO.P,U18,CN2-22,BD4*%
%TO.N,/SpikeAndHoldDriverAndLEDs-2/TTLInput*%
X154297064Y-51728987D03*
%TO.P,U18,CN2-23,BD6*%
%TO.N,/SpikeAndHoldDriverAndLEDs-10/TTLInput*%
X151757064Y-49188987D03*
%TO.P,U18,CN2-24,BD5*%
%TO.N,/SpikeAndHoldDriverAndLEDs-1/TTLInput*%
X151757064Y-51728987D03*
%TO.P,U18,CN2-25,SUSPEND#*%
%TO.N,unconnected-(U18-SUSPEND#-PadCN2-25)*%
X149217064Y-49188987D03*
%TO.P,U18,CN2-26,BD7*%
%TO.N,/SpikeAndHoldDriverAndLEDs-9/TTLInput*%
X149217064Y-51728987D03*
D10*
%TO.P,U18,CN3-1,VBUS*%
%TO.N,Net-(U18-VBUS)*%
X179697064Y-72078987D03*
D11*
%TO.P,U18,CN3-2,GND*%
%TO.N,unconnected-(U18-GND-PadCN3-2)*%
X179687064Y-74618987D03*
%TO.P,U18,CN3-3,VCC*%
%TO.N,Net-(U18-VBUS)*%
X177157064Y-72078987D03*
%TO.P,U18,CN3-4,GND*%
%TO.N,unconnected-(U18-GND-PadCN3-4)*%
X177157064Y-74618987D03*
%TO.P,U18,CN3-5,CS*%
%TO.N,unconnected-(U18-CS-PadCN3-5)*%
X174617064Y-72078987D03*
%TO.P,U18,CN3-6,CLK*%
%TO.N,unconnected-(U18-CLK-PadCN3-6)*%
X174617064Y-74618987D03*
%TO.P,U18,CN3-7,DATA*%
%TO.N,unconnected-(U18-DATA-PadCN3-7)*%
X172077064Y-72078987D03*
%TO.P,U18,CN3-8,PWREN#*%
%TO.N,unconnected-(U18-PWREN#-PadCN3-8)*%
X172077064Y-74618987D03*
%TO.P,U18,CN3-9,DD7*%
%TO.N,unconnected-(U18-DD7-PadCN3-9)*%
X169537064Y-72078987D03*
%TO.P,U18,CN3-10,DD6*%
%TO.N,unconnected-(U18-DD6-PadCN3-10)*%
X169537064Y-74618987D03*
%TO.P,U18,CN3-11,DD5*%
%TO.N,unconnected-(U18-DD5-PadCN3-11)*%
X166997064Y-72078987D03*
%TO.P,U18,CN3-12,VIO*%
%TO.N,+3.3V*%
X166997064Y-74618987D03*
%TO.P,U18,CN3-13,DD4*%
%TO.N,/SpikeAndHoldDriverAndLEDs-16/TTLInput*%
X164457064Y-72078987D03*
%TO.P,U18,CN3-14,DD3*%
%TO.N,/SpikeAndHoldDriverAndLEDs-8/TTLInput*%
X164457064Y-74618987D03*
%TO.P,U18,CN3-15,DD2*%
%TO.N,/SpikeAndHoldDriverAndLEDs-15/TTLInput*%
X161917064Y-72078987D03*
%TO.P,U18,CN3-16,DD1*%
%TO.N,/SpikeAndHoldDriverAndLEDs-7/TTLInput*%
X161917064Y-74618987D03*
%TO.P,U18,CN3-17,DD0*%
%TO.N,/SpikeAndHoldDriverAndLEDs-14/TTLInput*%
X159377064Y-72078987D03*
%TO.P,U18,CN3-18,CD7*%
%TO.N,/SpikeAndHoldDriverAndLEDs-6/TTLInput*%
X159377064Y-74618987D03*
%TO.P,U18,CN3-19,CD6*%
%TO.N,unconnected-(U18-CD6-PadCN3-19)*%
X156837064Y-72078987D03*
%TO.P,U18,CN3-20,CD5*%
%TO.N,/SpikeAndHoldDriverAndLEDs-5/TTLInput*%
X156837064Y-74618987D03*
%TO.P,U18,CN3-21,CD4*%
%TO.N,/SpikeAndHoldDriverAndLEDs-13/TTLInput*%
X154297064Y-72078987D03*
%TO.P,U18,CN3-22,VIO*%
%TO.N,+3.3V*%
X154297064Y-74618987D03*
%TO.P,U18,CN3-23,CD3*%
%TO.N,/SpikeAndHoldDriverAndLEDs-4/TTLInput*%
X151757064Y-72078987D03*
%TO.P,U18,CN3-24,CD2*%
%TO.N,/SpikeAndHoldDriverAndLEDs-12/TTLInput*%
X151757064Y-74618987D03*
%TO.P,U18,CN3-25,CD1*%
%TO.N,/SpikeAndHoldDriverAndLEDs-3/TTLInput*%
X149217064Y-72078987D03*
%TO.P,U18,CN3-26,CD0*%
%TO.N,/SpikeAndHoldDriverAndLEDs-11/TTLInput*%
X149217064Y-74618987D03*
%TD*%
D15*
%TO.P,R78,1*%
%TO.N,Net-(D39-K)*%
X135830002Y-105594999D03*
%TO.P,R78,2*%
%TO.N,Net-(U13-STATUS_OK_FLAG)*%
X132905002Y-105594999D03*
%TD*%
%TO.P,R55,1*%
%TO.N,Net-(D29-K)*%
X135800002Y-69459999D03*
%TO.P,R55,2*%
%TO.N,Net-(Q10-D)*%
X132875002Y-69459999D03*
%TD*%
%TO.P,R67,1*%
%TO.N,Net-(D35-K)*%
X135850002Y-98109999D03*
%TO.P,R67,2*%
%TO.N,Net-(Q12-D)*%
X132925002Y-98109999D03*
%TD*%
D16*
%TO.P,Q9,1,G*%
%TO.N,Net-(Q9-G)*%
X129342502Y-53924999D03*
%TO.P,Q9,2,S*%
%TO.N,GND*%
X131242502Y-53924999D03*
%TO.P,Q9,3,D*%
%TO.N,Net-(Q9-D)*%
X130292502Y-55799999D03*
%TD*%
D15*
%TO.P,R60,1*%
%TO.N,Net-(D30-K)*%
X135780002Y-62619999D03*
%TO.P,R60,2*%
%TO.N,Net-(U10-STATUS_OK_FLAG)*%
X132855002Y-62619999D03*
%TD*%
D17*
%TO.P,C38,1*%
%TO.N,+12V*%
X128417502Y-102749999D03*
%TO.P,C38,2*%
%TO.N,GND*%
X125467502Y-102749999D03*
%TD*%
%TO.P,C32,1*%
%TO.N,+12V*%
X128417502Y-74099999D03*
%TO.P,C32,2*%
%TO.N,GND*%
X125467502Y-74099999D03*
%TD*%
D18*
%TO.P,C27,1*%
%TO.N,GND*%
X117757502Y-54022499D03*
%TO.P,C27,2*%
%TO.N,Net-(U9-DELAY_ADJ)*%
X120707502Y-54022499D03*
%TD*%
D16*
%TO.P,Q16,1,G*%
%TO.N,Net-(Q16-G)*%
X129448501Y-154157499D03*
%TO.P,Q16,2,S*%
%TO.N,GND*%
X131348501Y-154157499D03*
%TO.P,Q16,3,D*%
%TO.N,Net-(Q16-D)*%
X130398501Y-156032499D03*
%TD*%
D15*
%TO.P,R70,1*%
%TO.N,GND*%
X135848803Y-95808299D03*
%TO.P,R70,2*%
%TO.N,Net-(Q12-G)*%
X132923803Y-95808299D03*
%TD*%
D17*
%TO.P,C35,1*%
%TO.N,+12V*%
X128417502Y-88424999D03*
%TO.P,C35,2*%
%TO.N,GND*%
X125467502Y-88424999D03*
%TD*%
D15*
%TO.P,R57,1*%
%TO.N,/SpikeAndHoldDriverAndLEDs-10/TTLInput*%
X135796503Y-64899999D03*
%TO.P,R57,2*%
%TO.N,Net-(Q10-G)*%
X132871503Y-64899999D03*
%TD*%
D19*
%TO.P,U12,1,DUTY_CYCLE_ADJ*%
%TO.N,Net-(U12-DUTY_CYCLE_ADJ)*%
X123786503Y-94879999D03*
%TO.P,U12,2,DELAY_ADJ*%
%TO.N,Net-(U12-DELAY_ADJ)*%
X123786503Y-94229999D03*
%TO.P,U12,3,OSC_FREQ_ADJ*%
%TO.N,Net-(U12-OSC_FREQ_ADJ)*%
X123786503Y-93579999D03*
%TO.P,U12,4,MASTER*%
%TO.N,unconnected-(U12-MASTER-Pad4)*%
X123786503Y-92929999D03*
%TO.P,U12,5,BOOT*%
%TO.N,Net-(U12-BOOT)*%
X123786503Y-92279999D03*
%TO.P,U12,6,OUT1*%
%TO.N,/SpikeAndHoldDriverAndLEDs-12/DriveOut*%
X123786503Y-91629999D03*
%TO.P,U12,7,OUT2*%
X123786503Y-90979999D03*
%TO.P,U12,8,VPS2*%
%TO.N,+12V*%
X129386503Y-90979999D03*
%TO.P,U12,9,VPS1*%
X129386503Y-91629999D03*
%TO.P,U12,10,+VS*%
X129386503Y-92279999D03*
%TO.P,U12,11,GND*%
%TO.N,GND*%
X129386503Y-92929999D03*
%TO.P,U12,12,SYNC*%
%TO.N,unconnected-(U12-SYNC-Pad12)*%
X129386503Y-93579999D03*
%TO.P,U12,13,STATUS_OK_FLAG*%
%TO.N,Net-(U12-STATUS_OK_FLAG)*%
X129386503Y-94229999D03*
%TO.P,U12,14,INPUT*%
%TO.N,Net-(Q12-G)*%
X129386503Y-94879999D03*
D20*
%TO.P,U12,15,EPAD*%
%TO.N,GND*%
X126586503Y-92929999D03*
%TD*%
D15*
%TO.P,R92,1*%
%TO.N,GND*%
X126751001Y-154304999D03*
%TO.P,R92,2*%
%TO.N,Net-(U16-DUTY_CYCLE_ADJ)*%
X123826001Y-154304999D03*
%TD*%
%TO.P,R76,1*%
%TO.N,GND*%
X135848803Y-110133299D03*
%TO.P,R76,2*%
%TO.N,Net-(Q13-G)*%
X132923803Y-110133299D03*
%TD*%
%TO.P,R90,1*%
%TO.N,Net-(D45-K)*%
X135818499Y-134250000D03*
%TO.P,R90,2*%
%TO.N,Net-(U15-STATUS_OK_FLAG)*%
X132893499Y-134250000D03*
%TD*%
D18*
%TO.P,C49,1*%
%TO.N,GND*%
X117863501Y-149684999D03*
%TO.P,C49,2*%
%TO.N,Net-(U16-BOOT)*%
X120813501Y-149684999D03*
%TD*%
%TO.P,C39,1*%
%TO.N,GND*%
X117832502Y-111284999D03*
%TO.P,C39,2*%
%TO.N,Net-(U13-DELAY_ADJ)*%
X120782502Y-111284999D03*
%TD*%
D15*
%TO.P,R74,1*%
%TO.N,GND*%
X126720002Y-111334999D03*
%TO.P,R74,2*%
%TO.N,Net-(U13-DUTY_CYCLE_ADJ)*%
X123795002Y-111334999D03*
%TD*%
%TO.P,R63,1*%
%TO.N,/SpikeAndHoldDriverAndLEDs-11/TTLInput*%
X135846503Y-79224999D03*
%TO.P,R63,2*%
%TO.N,Net-(Q11-G)*%
X132921503Y-79224999D03*
%TD*%
D16*
%TO.P,Q15,1,G*%
%TO.N,Net-(Q15-G)*%
X129405999Y-139842500D03*
%TO.P,Q15,2,S*%
%TO.N,GND*%
X131305999Y-139842500D03*
%TO.P,Q15,3,D*%
%TO.N,Net-(Q15-D)*%
X130355999Y-141717500D03*
%TD*%
D15*
%TO.P,R62,1*%
%TO.N,GND*%
X126720002Y-82684999D03*
%TO.P,R62,2*%
%TO.N,Net-(U11-DUTY_CYCLE_ADJ)*%
X123795002Y-82684999D03*
%TD*%
D21*
%TO.P,D28,1,K*%
%TO.N,/SpikeAndHoldDriverAndLEDs-10/DriveOut*%
X120645002Y-61469999D03*
%TO.P,D28,2,A*%
%TO.N,GND*%
X117845002Y-61469999D03*
%TD*%
D19*
%TO.P,U13,1,DUTY_CYCLE_ADJ*%
%TO.N,Net-(U13-DUTY_CYCLE_ADJ)*%
X123786503Y-109204999D03*
%TO.P,U13,2,DELAY_ADJ*%
%TO.N,Net-(U13-DELAY_ADJ)*%
X123786503Y-108554999D03*
%TO.P,U13,3,OSC_FREQ_ADJ*%
%TO.N,Net-(U13-OSC_FREQ_ADJ)*%
X123786503Y-107904999D03*
%TO.P,U13,4,MASTER*%
%TO.N,unconnected-(U13-MASTER-Pad4)*%
X123786503Y-107254999D03*
%TO.P,U13,5,BOOT*%
%TO.N,Net-(U13-BOOT)*%
X123786503Y-106604999D03*
%TO.P,U13,6,OUT1*%
%TO.N,/SpikeAndHoldDriverAndLEDs-13/DriveOut*%
X123786503Y-105954999D03*
%TO.P,U13,7,OUT2*%
X123786503Y-105304999D03*
%TO.P,U13,8,VPS2*%
%TO.N,+12V*%
X129386503Y-105304999D03*
%TO.P,U13,9,VPS1*%
X129386503Y-105954999D03*
%TO.P,U13,10,+VS*%
X129386503Y-106604999D03*
%TO.P,U13,11,GND*%
%TO.N,GND*%
X129386503Y-107254999D03*
%TO.P,U13,12,SYNC*%
%TO.N,unconnected-(U13-SYNC-Pad12)*%
X129386503Y-107904999D03*
%TO.P,U13,13,STATUS_OK_FLAG*%
%TO.N,Net-(U13-STATUS_OK_FLAG)*%
X129386503Y-108554999D03*
%TO.P,U13,14,INPUT*%
%TO.N,Net-(Q13-G)*%
X129386503Y-109204999D03*
D20*
%TO.P,U13,15,EPAD*%
%TO.N,GND*%
X126586503Y-107254999D03*
%TD*%
D18*
%TO.P,C30,1*%
%TO.N,GND*%
X117782502Y-68309999D03*
%TO.P,C30,2*%
%TO.N,Net-(U10-DELAY_ADJ)*%
X120732502Y-68309999D03*
%TD*%
D21*
%TO.P,D25,1,K*%
%TO.N,/SpikeAndHoldDriverAndLEDs-9/DriveOut*%
X120620002Y-47182499D03*
%TO.P,D25,2,A*%
%TO.N,GND*%
X117820002Y-47182499D03*
%TD*%
D15*
%TO.P,R69,1*%
%TO.N,/SpikeAndHoldDriverAndLEDs-12/TTLInput*%
X135846503Y-93549999D03*
%TO.P,R69,2*%
%TO.N,Net-(Q12-G)*%
X132921503Y-93549999D03*
%TD*%
%TO.P,R61,1*%
%TO.N,Net-(D32-K)*%
X135850002Y-83784999D03*
%TO.P,R61,2*%
%TO.N,Net-(Q11-D)*%
X132925002Y-83784999D03*
%TD*%
%TO.P,R68,1*%
%TO.N,GND*%
X126720002Y-97009999D03*
%TO.P,R68,2*%
%TO.N,Net-(U12-DUTY_CYCLE_ADJ)*%
X123795002Y-97009999D03*
%TD*%
D17*
%TO.P,C29,1*%
%TO.N,+12V*%
X128367502Y-59774999D03*
%TO.P,C29,2*%
%TO.N,GND*%
X125417502Y-59774999D03*
%TD*%
D15*
%TO.P,R94,1*%
%TO.N,GND*%
X135879802Y-153103299D03*
%TO.P,R94,2*%
%TO.N,Net-(Q16-G)*%
X132954802Y-153103299D03*
%TD*%
%TO.P,R85,1*%
%TO.N,Net-(D44-K)*%
X135838499Y-141090000D03*
%TO.P,R85,2*%
%TO.N,Net-(Q15-D)*%
X132913499Y-141090000D03*
%TD*%
%TO.P,R64,1*%
%TO.N,GND*%
X135848803Y-81483299D03*
%TO.P,R64,2*%
%TO.N,Net-(Q11-G)*%
X132923803Y-81483299D03*
%TD*%
D22*
%TO.P,R59,1*%
%TO.N,GND*%
X117786503Y-66029999D03*
%TO.P,R59,2*%
%TO.N,Net-(U10-OSC_FREQ_ADJ)*%
X120711503Y-66029999D03*
%TD*%
D15*
%TO.P,R84,1*%
%TO.N,Net-(D42-K)*%
X135830002Y-119919999D03*
%TO.P,R84,2*%
%TO.N,Net-(U14-STATUS_OK_FLAG)*%
X132905002Y-119919999D03*
%TD*%
%TO.P,R54,1*%
%TO.N,Net-(D27-K)*%
X135755002Y-48332499D03*
%TO.P,R54,2*%
%TO.N,Net-(U9-STATUS_OK_FLAG)*%
X132830002Y-48332499D03*
%TD*%
D18*
%TO.P,C40,1*%
%TO.N,GND*%
X117832502Y-106714999D03*
%TO.P,C40,2*%
%TO.N,Net-(U13-BOOT)*%
X120782502Y-106714999D03*
%TD*%
D21*
%TO.P,D37,1,K*%
%TO.N,/SpikeAndHoldDriverAndLEDs-13/DriveOut*%
X120695002Y-104444999D03*
%TO.P,D37,2,A*%
%TO.N,GND*%
X117895002Y-104444999D03*
%TD*%
D15*
%TO.P,R49,1*%
%TO.N,Net-(D26-K)*%
X135775002Y-55172499D03*
%TO.P,R49,2*%
%TO.N,Net-(Q9-D)*%
X132850002Y-55172499D03*
%TD*%
D19*
%TO.P,U9,1,DUTY_CYCLE_ADJ*%
%TO.N,Net-(U9-DUTY_CYCLE_ADJ)*%
X123711503Y-51942499D03*
%TO.P,U9,2,DELAY_ADJ*%
%TO.N,Net-(U9-DELAY_ADJ)*%
X123711503Y-51292499D03*
%TO.P,U9,3,OSC_FREQ_ADJ*%
%TO.N,Net-(U9-OSC_FREQ_ADJ)*%
X123711503Y-50642499D03*
%TO.P,U9,4,MASTER*%
%TO.N,unconnected-(U9-MASTER-Pad4)*%
X123711503Y-49992499D03*
%TO.P,U9,5,BOOT*%
%TO.N,Net-(U9-BOOT)*%
X123711503Y-49342499D03*
%TO.P,U9,6,OUT1*%
%TO.N,/SpikeAndHoldDriverAndLEDs-9/DriveOut*%
X123711503Y-48692499D03*
%TO.P,U9,7,OUT2*%
X123711503Y-48042499D03*
%TO.P,U9,8,VPS2*%
%TO.N,+12V*%
X129311503Y-48042499D03*
%TO.P,U9,9,VPS1*%
X129311503Y-48692499D03*
%TO.P,U9,10,+VS*%
X129311503Y-49342499D03*
%TO.P,U9,11,GND*%
%TO.N,GND*%
X129311503Y-49992499D03*
%TO.P,U9,12,SYNC*%
%TO.N,unconnected-(U9-SYNC-Pad12)*%
X129311503Y-50642499D03*
%TO.P,U9,13,STATUS_OK_FLAG*%
%TO.N,Net-(U9-STATUS_OK_FLAG)*%
X129311503Y-51292499D03*
%TO.P,U9,14,INPUT*%
%TO.N,Net-(Q9-G)*%
X129311503Y-51942499D03*
D20*
%TO.P,U9,15,EPAD*%
%TO.N,GND*%
X126511503Y-49992499D03*
%TD*%
D15*
%TO.P,R50,1*%
%TO.N,GND*%
X126645002Y-54072499D03*
%TO.P,R50,2*%
%TO.N,Net-(U9-DUTY_CYCLE_ADJ)*%
X123720002Y-54072499D03*
%TD*%
%TO.P,R73,1*%
%TO.N,Net-(D38-K)*%
X135850002Y-112434999D03*
%TO.P,R73,2*%
%TO.N,Net-(Q13-D)*%
X132925002Y-112434999D03*
%TD*%
D16*
%TO.P,Q10,1,G*%
%TO.N,Net-(Q10-G)*%
X129367502Y-68212499D03*
%TO.P,Q10,2,S*%
%TO.N,GND*%
X131267502Y-68212499D03*
%TO.P,Q10,3,D*%
%TO.N,Net-(Q10-D)*%
X130317502Y-70087499D03*
%TD*%
D17*
%TO.P,C26,1*%
%TO.N,+12V*%
X128342502Y-45487499D03*
%TO.P,C26,2*%
%TO.N,GND*%
X125392502Y-45487499D03*
%TD*%
D21*
%TO.P,D34,1,K*%
%TO.N,/SpikeAndHoldDriverAndLEDs-12/DriveOut*%
X120695002Y-90119999D03*
%TO.P,D34,2,A*%
%TO.N,GND*%
X117895002Y-90119999D03*
%TD*%
D15*
%TO.P,R72,1*%
%TO.N,Net-(D36-K)*%
X135830002Y-91269999D03*
%TO.P,R72,2*%
%TO.N,Net-(U12-STATUS_OK_FLAG)*%
X132905002Y-91269999D03*
%TD*%
D18*
%TO.P,C45,1*%
%TO.N,GND*%
X117820999Y-139940000D03*
%TO.P,C45,2*%
%TO.N,Net-(U15-DELAY_ADJ)*%
X120770999Y-139940000D03*
%TD*%
%TO.P,C37,1*%
%TO.N,GND*%
X117832502Y-92389999D03*
%TO.P,C37,2*%
%TO.N,Net-(U12-BOOT)*%
X120782502Y-92389999D03*
%TD*%
D15*
%TO.P,R66,1*%
%TO.N,Net-(D33-K)*%
X135830002Y-76944999D03*
%TO.P,R66,2*%
%TO.N,Net-(U11-STATUS_OK_FLAG)*%
X132905002Y-76944999D03*
%TD*%
D18*
%TO.P,C31,1*%
%TO.N,GND*%
X117782502Y-63739999D03*
%TO.P,C31,2*%
%TO.N,Net-(U10-BOOT)*%
X120732502Y-63739999D03*
%TD*%
D15*
%TO.P,R96,1*%
%TO.N,Net-(D48-K)*%
X135861001Y-148564999D03*
%TO.P,R96,2*%
%TO.N,Net-(U16-STATUS_OK_FLAG)*%
X132936001Y-148564999D03*
%TD*%
D18*
%TO.P,C43,1*%
%TO.N,GND*%
X117832502Y-121039999D03*
%TO.P,C43,2*%
%TO.N,Net-(U14-BOOT)*%
X120782502Y-121039999D03*
%TD*%
%TO.P,C46,1*%
%TO.N,GND*%
X117820999Y-135370000D03*
%TO.P,C46,2*%
%TO.N,Net-(U15-BOOT)*%
X120770999Y-135370000D03*
%TD*%
D22*
%TO.P,R71,1*%
%TO.N,GND*%
X117836503Y-94679999D03*
%TO.P,R71,2*%
%TO.N,Net-(U12-OSC_FREQ_ADJ)*%
X120761503Y-94679999D03*
%TD*%
D15*
%TO.P,R75,1*%
%TO.N,/SpikeAndHoldDriverAndLEDs-13/TTLInput*%
X135846503Y-107874999D03*
%TO.P,R75,2*%
%TO.N,Net-(Q13-G)*%
X132921503Y-107874999D03*
%TD*%
D21*
%TO.P,D40,1,K*%
%TO.N,/SpikeAndHoldDriverAndLEDs-14/DriveOut*%
X120695002Y-118769999D03*
%TO.P,D40,2,A*%
%TO.N,GND*%
X117895002Y-118769999D03*
%TD*%
D19*
%TO.P,U16,1,DUTY_CYCLE_ADJ*%
%TO.N,Net-(U16-DUTY_CYCLE_ADJ)*%
X123817502Y-152174999D03*
%TO.P,U16,2,DELAY_ADJ*%
%TO.N,Net-(U16-DELAY_ADJ)*%
X123817502Y-151524999D03*
%TO.P,U16,3,OSC_FREQ_ADJ*%
%TO.N,Net-(U16-OSC_FREQ_ADJ)*%
X123817502Y-150874999D03*
%TO.P,U16,4,MASTER*%
%TO.N,unconnected-(U16-MASTER-Pad4)*%
X123817502Y-150224999D03*
%TO.P,U16,5,BOOT*%
%TO.N,Net-(U16-BOOT)*%
X123817502Y-149574999D03*
%TO.P,U16,6,OUT1*%
%TO.N,/SpikeAndHoldDriverAndLEDs-16/DriveOut*%
X123817502Y-148924999D03*
%TO.P,U16,7,OUT2*%
X123817502Y-148274999D03*
%TO.P,U16,8,VPS2*%
%TO.N,+12V*%
X129417502Y-148274999D03*
%TO.P,U16,9,VPS1*%
X129417502Y-148924999D03*
%TO.P,U16,10,+VS*%
X129417502Y-149574999D03*
%TO.P,U16,11,GND*%
%TO.N,GND*%
X129417502Y-150224999D03*
%TO.P,U16,12,SYNC*%
%TO.N,unconnected-(U16-SYNC-Pad12)*%
X129417502Y-150874999D03*
%TO.P,U16,13,STATUS_OK_FLAG*%
%TO.N,Net-(U16-STATUS_OK_FLAG)*%
X129417502Y-151524999D03*
%TO.P,U16,14,INPUT*%
%TO.N,Net-(Q16-G)*%
X129417502Y-152174999D03*
D20*
%TO.P,U16,15,EPAD*%
%TO.N,GND*%
X126617502Y-150224999D03*
%TD*%
D17*
%TO.P,C41,1*%
%TO.N,+12V*%
X128417502Y-117074999D03*
%TO.P,C41,2*%
%TO.N,GND*%
X125467502Y-117074999D03*
%TD*%
D15*
%TO.P,R93,1*%
%TO.N,/SpikeAndHoldDriverAndLEDs-16/TTLInput*%
X135877502Y-150844999D03*
%TO.P,R93,2*%
%TO.N,Net-(Q16-G)*%
X132952502Y-150844999D03*
%TD*%
D19*
%TO.P,U10,1,DUTY_CYCLE_ADJ*%
%TO.N,Net-(U10-DUTY_CYCLE_ADJ)*%
X123736503Y-66229999D03*
%TO.P,U10,2,DELAY_ADJ*%
%TO.N,Net-(U10-DELAY_ADJ)*%
X123736503Y-65579999D03*
%TO.P,U10,3,OSC_FREQ_ADJ*%
%TO.N,Net-(U10-OSC_FREQ_ADJ)*%
X123736503Y-64929999D03*
%TO.P,U10,4,MASTER*%
%TO.N,unconnected-(U10-MASTER-Pad4)*%
X123736503Y-64279999D03*
%TO.P,U10,5,BOOT*%
%TO.N,Net-(U10-BOOT)*%
X123736503Y-63629999D03*
%TO.P,U10,6,OUT1*%
%TO.N,/SpikeAndHoldDriverAndLEDs-10/DriveOut*%
X123736503Y-62979999D03*
%TO.P,U10,7,OUT2*%
X123736503Y-62329999D03*
%TO.P,U10,8,VPS2*%
%TO.N,+12V*%
X129336503Y-62329999D03*
%TO.P,U10,9,VPS1*%
X129336503Y-62979999D03*
%TO.P,U10,10,+VS*%
X129336503Y-63629999D03*
%TO.P,U10,11,GND*%
%TO.N,GND*%
X129336503Y-64279999D03*
%TO.P,U10,12,SYNC*%
%TO.N,unconnected-(U10-SYNC-Pad12)*%
X129336503Y-64929999D03*
%TO.P,U10,13,STATUS_OK_FLAG*%
%TO.N,Net-(U10-STATUS_OK_FLAG)*%
X129336503Y-65579999D03*
%TO.P,U10,14,INPUT*%
%TO.N,Net-(Q10-G)*%
X129336503Y-66229999D03*
D20*
%TO.P,U10,15,EPAD*%
%TO.N,GND*%
X126536503Y-64279999D03*
%TD*%
D15*
%TO.P,R51,1*%
%TO.N,/SpikeAndHoldDriverAndLEDs-9/TTLInput*%
X135771503Y-50612499D03*
%TO.P,R51,2*%
%TO.N,Net-(Q9-G)*%
X132846503Y-50612499D03*
%TD*%
D22*
%TO.P,R77,1*%
%TO.N,GND*%
X117836503Y-109004999D03*
%TO.P,R77,2*%
%TO.N,Net-(U13-OSC_FREQ_ADJ)*%
X120761503Y-109004999D03*
%TD*%
D21*
%TO.P,D43,1,K*%
%TO.N,/SpikeAndHoldDriverAndLEDs-15/DriveOut*%
X120683499Y-133100000D03*
%TO.P,D43,2,A*%
%TO.N,GND*%
X117883499Y-133100000D03*
%TD*%
D18*
%TO.P,C42,1*%
%TO.N,GND*%
X117832502Y-125609999D03*
%TO.P,C42,2*%
%TO.N,Net-(U14-DELAY_ADJ)*%
X120782502Y-125609999D03*
%TD*%
%TO.P,C36,1*%
%TO.N,GND*%
X117832502Y-96959999D03*
%TO.P,C36,2*%
%TO.N,Net-(U12-DELAY_ADJ)*%
X120782502Y-96959999D03*
%TD*%
D17*
%TO.P,C47,1*%
%TO.N,+12V*%
X128448501Y-145719999D03*
%TO.P,C47,2*%
%TO.N,GND*%
X125498501Y-145719999D03*
%TD*%
D18*
%TO.P,C34,1*%
%TO.N,GND*%
X117832502Y-78064999D03*
%TO.P,C34,2*%
%TO.N,Net-(U11-BOOT)*%
X120782502Y-78064999D03*
%TD*%
D15*
%TO.P,R91,1*%
%TO.N,Net-(D47-K)*%
X135881001Y-155404999D03*
%TO.P,R91,2*%
%TO.N,Net-(Q16-D)*%
X132956001Y-155404999D03*
%TD*%
D19*
%TO.P,U14,1,DUTY_CYCLE_ADJ*%
%TO.N,Net-(U14-DUTY_CYCLE_ADJ)*%
X123786503Y-123529999D03*
%TO.P,U14,2,DELAY_ADJ*%
%TO.N,Net-(U14-DELAY_ADJ)*%
X123786503Y-122879999D03*
%TO.P,U14,3,OSC_FREQ_ADJ*%
%TO.N,Net-(U14-OSC_FREQ_ADJ)*%
X123786503Y-122229999D03*
%TO.P,U14,4,MASTER*%
%TO.N,unconnected-(U14-MASTER-Pad4)*%
X123786503Y-121579999D03*
%TO.P,U14,5,BOOT*%
%TO.N,Net-(U14-BOOT)*%
X123786503Y-120929999D03*
%TO.P,U14,6,OUT1*%
%TO.N,/SpikeAndHoldDriverAndLEDs-14/DriveOut*%
X123786503Y-120279999D03*
%TO.P,U14,7,OUT2*%
X123786503Y-119629999D03*
%TO.P,U14,8,VPS2*%
%TO.N,+12V*%
X129386503Y-119629999D03*
%TO.P,U14,9,VPS1*%
X129386503Y-120279999D03*
%TO.P,U14,10,+VS*%
X129386503Y-120929999D03*
%TO.P,U14,11,GND*%
%TO.N,GND*%
X129386503Y-121579999D03*
%TO.P,U14,12,SYNC*%
%TO.N,unconnected-(U14-SYNC-Pad12)*%
X129386503Y-122229999D03*
%TO.P,U14,13,STATUS_OK_FLAG*%
%TO.N,Net-(U14-STATUS_OK_FLAG)*%
X129386503Y-122879999D03*
%TO.P,U14,14,INPUT*%
%TO.N,Net-(Q14-G)*%
X129386503Y-123529999D03*
D20*
%TO.P,U14,15,EPAD*%
%TO.N,GND*%
X126586503Y-121579999D03*
%TD*%
D15*
%TO.P,R58,1*%
%TO.N,GND*%
X135798803Y-67158299D03*
%TO.P,R58,2*%
%TO.N,Net-(Q10-G)*%
X132873803Y-67158299D03*
%TD*%
D22*
%TO.P,R65,1*%
%TO.N,GND*%
X117836503Y-80354999D03*
%TO.P,R65,2*%
%TO.N,Net-(U11-OSC_FREQ_ADJ)*%
X120761503Y-80354999D03*
%TD*%
D16*
%TO.P,Q11,1,G*%
%TO.N,Net-(Q11-G)*%
X129417502Y-82537499D03*
%TO.P,Q11,2,S*%
%TO.N,GND*%
X131317502Y-82537499D03*
%TO.P,Q11,3,D*%
%TO.N,Net-(Q11-D)*%
X130367502Y-84412499D03*
%TD*%
%TO.P,Q14,1,G*%
%TO.N,Net-(Q14-G)*%
X129417502Y-125512499D03*
%TO.P,Q14,2,S*%
%TO.N,GND*%
X131317502Y-125512499D03*
%TO.P,Q14,3,D*%
%TO.N,Net-(Q14-D)*%
X130367502Y-127387499D03*
%TD*%
D22*
%TO.P,R89,1*%
%TO.N,GND*%
X117825000Y-137660000D03*
%TO.P,R89,2*%
%TO.N,Net-(U15-OSC_FREQ_ADJ)*%
X120750000Y-137660000D03*
%TD*%
D15*
%TO.P,R80,1*%
%TO.N,GND*%
X126720002Y-125659999D03*
%TO.P,R80,2*%
%TO.N,Net-(U14-DUTY_CYCLE_ADJ)*%
X123795002Y-125659999D03*
%TD*%
D18*
%TO.P,C28,1*%
%TO.N,GND*%
X117757502Y-49452499D03*
%TO.P,C28,2*%
%TO.N,Net-(U9-BOOT)*%
X120707502Y-49452499D03*
%TD*%
D19*
%TO.P,U15,1,DUTY_CYCLE_ADJ*%
%TO.N,Net-(U15-DUTY_CYCLE_ADJ)*%
X123775000Y-137860000D03*
%TO.P,U15,2,DELAY_ADJ*%
%TO.N,Net-(U15-DELAY_ADJ)*%
X123775000Y-137210000D03*
%TO.P,U15,3,OSC_FREQ_ADJ*%
%TO.N,Net-(U15-OSC_FREQ_ADJ)*%
X123775000Y-136560000D03*
%TO.P,U15,4,MASTER*%
%TO.N,unconnected-(U15-MASTER-Pad4)*%
X123775000Y-135910000D03*
%TO.P,U15,5,BOOT*%
%TO.N,Net-(U15-BOOT)*%
X123775000Y-135260000D03*
%TO.P,U15,6,OUT1*%
%TO.N,/SpikeAndHoldDriverAndLEDs-15/DriveOut*%
X123775000Y-134610000D03*
%TO.P,U15,7,OUT2*%
X123775000Y-133960000D03*
%TO.P,U15,8,VPS2*%
%TO.N,+12V*%
X129375000Y-133960000D03*
%TO.P,U15,9,VPS1*%
X129375000Y-134610000D03*
%TO.P,U15,10,+VS*%
X129375000Y-135260000D03*
%TO.P,U15,11,GND*%
%TO.N,GND*%
X129375000Y-135910000D03*
%TO.P,U15,12,SYNC*%
%TO.N,unconnected-(U15-SYNC-Pad12)*%
X129375000Y-136560000D03*
%TO.P,U15,13,STATUS_OK_FLAG*%
%TO.N,Net-(U15-STATUS_OK_FLAG)*%
X129375000Y-137210000D03*
%TO.P,U15,14,INPUT*%
%TO.N,Net-(Q15-G)*%
X129375000Y-137860000D03*
D20*
%TO.P,U15,15,EPAD*%
%TO.N,GND*%
X126575000Y-135910000D03*
%TD*%
D21*
%TO.P,D46,1,K*%
%TO.N,/SpikeAndHoldDriverAndLEDs-16/DriveOut*%
X120726001Y-147414999D03*
%TO.P,D46,2,A*%
%TO.N,GND*%
X117926001Y-147414999D03*
%TD*%
D15*
%TO.P,R81,1*%
%TO.N,/SpikeAndHoldDriverAndLEDs-14/TTLInput*%
X135846503Y-122199999D03*
%TO.P,R81,2*%
%TO.N,Net-(Q14-G)*%
X132921503Y-122199999D03*
%TD*%
%TO.P,R52,1*%
%TO.N,GND*%
X135773803Y-52870799D03*
%TO.P,R52,2*%
%TO.N,Net-(Q9-G)*%
X132848803Y-52870799D03*
%TD*%
%TO.P,R56,1*%
%TO.N,GND*%
X126670002Y-68359999D03*
%TO.P,R56,2*%
%TO.N,Net-(U10-DUTY_CYCLE_ADJ)*%
X123745002Y-68359999D03*
%TD*%
%TO.P,R82,1*%
%TO.N,GND*%
X135848803Y-124458299D03*
%TO.P,R82,2*%
%TO.N,Net-(Q14-G)*%
X132923803Y-124458299D03*
%TD*%
D22*
%TO.P,R95,1*%
%TO.N,GND*%
X117867502Y-151974999D03*
%TO.P,R95,2*%
%TO.N,Net-(U16-OSC_FREQ_ADJ)*%
X120792502Y-151974999D03*
%TD*%
D15*
%TO.P,R79,1*%
%TO.N,Net-(D41-K)*%
X135850002Y-126759999D03*
%TO.P,R79,2*%
%TO.N,Net-(Q14-D)*%
X132925002Y-126759999D03*
%TD*%
D17*
%TO.P,C44,1*%
%TO.N,+12V*%
X128405999Y-131405000D03*
%TO.P,C44,2*%
%TO.N,GND*%
X125455999Y-131405000D03*
%TD*%
D19*
%TO.P,U11,1,DUTY_CYCLE_ADJ*%
%TO.N,Net-(U11-DUTY_CYCLE_ADJ)*%
X123786503Y-80554999D03*
%TO.P,U11,2,DELAY_ADJ*%
%TO.N,Net-(U11-DELAY_ADJ)*%
X123786503Y-79904999D03*
%TO.P,U11,3,OSC_FREQ_ADJ*%
%TO.N,Net-(U11-OSC_FREQ_ADJ)*%
X123786503Y-79254999D03*
%TO.P,U11,4,MASTER*%
%TO.N,unconnected-(U11-MASTER-Pad4)*%
X123786503Y-78604999D03*
%TO.P,U11,5,BOOT*%
%TO.N,Net-(U11-BOOT)*%
X123786503Y-77954999D03*
%TO.P,U11,6,OUT1*%
%TO.N,/SpikeAndHoldDriverAndLEDs-11/DriveOut*%
X123786503Y-77304999D03*
%TO.P,U11,7,OUT2*%
X123786503Y-76654999D03*
%TO.P,U11,8,VPS2*%
%TO.N,+12V*%
X129386503Y-76654999D03*
%TO.P,U11,9,VPS1*%
X129386503Y-77304999D03*
%TO.P,U11,10,+VS*%
X129386503Y-77954999D03*
%TO.P,U11,11,GND*%
%TO.N,GND*%
X129386503Y-78604999D03*
%TO.P,U11,12,SYNC*%
%TO.N,unconnected-(U11-SYNC-Pad12)*%
X129386503Y-79254999D03*
%TO.P,U11,13,STATUS_OK_FLAG*%
%TO.N,Net-(U11-STATUS_OK_FLAG)*%
X129386503Y-79904999D03*
%TO.P,U11,14,INPUT*%
%TO.N,Net-(Q11-G)*%
X129386503Y-80554999D03*
D20*
%TO.P,U11,15,EPAD*%
%TO.N,GND*%
X126586503Y-78604999D03*
%TD*%
D15*
%TO.P,R86,1*%
%TO.N,GND*%
X126708499Y-139990000D03*
%TO.P,R86,2*%
%TO.N,Net-(U15-DUTY_CYCLE_ADJ)*%
X123783499Y-139990000D03*
%TD*%
D16*
%TO.P,Q12,1,G*%
%TO.N,Net-(Q12-G)*%
X129417502Y-96862499D03*
%TO.P,Q12,2,S*%
%TO.N,GND*%
X131317502Y-96862499D03*
%TO.P,Q12,3,D*%
%TO.N,Net-(Q12-D)*%
X130367502Y-98737499D03*
%TD*%
D15*
%TO.P,R88,1*%
%TO.N,GND*%
X135837300Y-138788300D03*
%TO.P,R88,2*%
%TO.N,Net-(Q15-G)*%
X132912300Y-138788300D03*
%TD*%
D16*
%TO.P,Q13,1,G*%
%TO.N,Net-(Q13-G)*%
X129417502Y-111187499D03*
%TO.P,Q13,2,S*%
%TO.N,GND*%
X131317502Y-111187499D03*
%TO.P,Q13,3,D*%
%TO.N,Net-(Q13-D)*%
X130367502Y-113062499D03*
%TD*%
D22*
%TO.P,R83,1*%
%TO.N,GND*%
X117836503Y-123329999D03*
%TO.P,R83,2*%
%TO.N,Net-(U14-OSC_FREQ_ADJ)*%
X120761503Y-123329999D03*
%TD*%
D15*
%TO.P,R87,1*%
%TO.N,/SpikeAndHoldDriverAndLEDs-15/TTLInput*%
X135835000Y-136530000D03*
%TO.P,R87,2*%
%TO.N,Net-(Q15-G)*%
X132910000Y-136530000D03*
%TD*%
D22*
%TO.P,R53,1*%
%TO.N,GND*%
X117761503Y-51742499D03*
%TO.P,R53,2*%
%TO.N,Net-(U9-OSC_FREQ_ADJ)*%
X120686503Y-51742499D03*
%TD*%
D21*
%TO.P,D31,1,K*%
%TO.N,/SpikeAndHoldDriverAndLEDs-11/DriveOut*%
X120695002Y-75794999D03*
%TO.P,D31,2,A*%
%TO.N,GND*%
X117895002Y-75794999D03*
%TD*%
D18*
%TO.P,C33,1*%
%TO.N,GND*%
X117832502Y-82634999D03*
%TO.P,C33,2*%
%TO.N,Net-(U11-DELAY_ADJ)*%
X120782502Y-82634999D03*
%TD*%
%TO.P,C48,1*%
%TO.N,GND*%
X117863501Y-154254999D03*
%TO.P,C48,2*%
%TO.N,Net-(U16-DELAY_ADJ)*%
X120813501Y-154254999D03*
%TD*%
D23*
%TO.N,+12V*%
X164100000Y-132710000D03*
X127442502Y-114999999D03*
X127442502Y-100674999D03*
X128312502Y-156816783D03*
X150470000Y-149310000D03*
X128292502Y-128165355D03*
X127442502Y-86349999D03*
X170115000Y-118585000D03*
X170115000Y-111535000D03*
X129142502Y-99513927D03*
X164045000Y-125660000D03*
X129067502Y-43412499D03*
X153690000Y-155010000D03*
X127442502Y-85188213D03*
X127392502Y-70862499D03*
X182190000Y-118610000D03*
X176115000Y-118585000D03*
X153670000Y-149310000D03*
X129142502Y-142491069D03*
X170115000Y-97460000D03*
X128292502Y-85188213D03*
X128292502Y-114999999D03*
X127442502Y-128165355D03*
X153680000Y-153585000D03*
X128292502Y-100674999D03*
X127442502Y-113839641D03*
X182220000Y-132735000D03*
X152070000Y-149310000D03*
X182165000Y-83385000D03*
X176115000Y-104510000D03*
X176090000Y-83360000D03*
X129142502Y-113839641D03*
X129173501Y-143644999D03*
X164070000Y-97460000D03*
X164070000Y-104510000D03*
X150470000Y-150735000D03*
X182190000Y-104535000D03*
X128292502Y-142491069D03*
X170145000Y-132710000D03*
X152080000Y-152160000D03*
X128323501Y-143644999D03*
X129067502Y-56574999D03*
X128242502Y-70862499D03*
X152090000Y-155010000D03*
X128292502Y-99513927D03*
X150490000Y-155010000D03*
X153680000Y-152160000D03*
X176115000Y-97460000D03*
X170115000Y-90385000D03*
X129142502Y-85188213D03*
X128292502Y-86349999D03*
X176115000Y-90385000D03*
X127462502Y-156816783D03*
X129130999Y-129330000D03*
X150480000Y-153585000D03*
X153670000Y-150735000D03*
X129142502Y-128165355D03*
X170115000Y-104510000D03*
X128292502Y-113839641D03*
X127367502Y-43412499D03*
X128217502Y-56574999D03*
X127430999Y-129330000D03*
X182190000Y-90410000D03*
X127367502Y-56574999D03*
X129142502Y-86349999D03*
X128280999Y-129330000D03*
X129092502Y-70862499D03*
X176115000Y-111535000D03*
X129142502Y-72024999D03*
X129162502Y-156816783D03*
X182165000Y-125685000D03*
X127442502Y-99513927D03*
X129142502Y-114999999D03*
X176145000Y-132710000D03*
X129092502Y-57699999D03*
X182190000Y-111560000D03*
X164070000Y-111535000D03*
X128217502Y-43412499D03*
X182190000Y-97485000D03*
X152070000Y-150735000D03*
X128242502Y-57699999D03*
X164070000Y-90385000D03*
X127442502Y-72024999D03*
X129142502Y-100674999D03*
X127442502Y-142491069D03*
X176090000Y-125660000D03*
X128292502Y-72024999D03*
X127392502Y-57699999D03*
X164045000Y-83360000D03*
X164070000Y-118585000D03*
X152080000Y-153585000D03*
X127473501Y-143644999D03*
X170090000Y-83360000D03*
X170090000Y-125660000D03*
X150480000Y-152160000D03*
%TO.N,GND*%
X116367502Y-152916783D03*
X116367502Y-78044999D03*
X116377502Y-82624999D03*
X131317502Y-81194999D03*
X127280000Y-108630000D03*
X116302502Y-54012499D03*
X131317502Y-76018213D03*
X127270000Y-48660000D03*
X127250000Y-50020000D03*
X131317502Y-124169999D03*
X116377502Y-117565355D03*
X116377502Y-125599999D03*
X125840000Y-64360000D03*
X127260000Y-148950000D03*
X127250000Y-51370000D03*
X127280000Y-91650000D03*
X116428501Y-151984999D03*
X131317502Y-133321069D03*
X116327502Y-68299999D03*
X116377502Y-74588213D03*
X125870000Y-50010000D03*
X163770000Y-140730000D03*
X116397502Y-80364999D03*
X131317502Y-109844999D03*
X116272502Y-52674999D03*
X116377502Y-96949999D03*
X163770000Y-142840000D03*
X116335999Y-133230000D03*
X125880000Y-94350000D03*
X125900000Y-91640000D03*
X125880000Y-137260000D03*
X127260000Y-137270000D03*
X116302502Y-45974999D03*
X116397502Y-146216783D03*
X127300000Y-105920000D03*
X127260000Y-93010000D03*
X116347502Y-62522499D03*
X162170000Y-140730000D03*
X131317502Y-90343927D03*
X127220000Y-64370000D03*
X116365999Y-139930000D03*
X116397502Y-105499641D03*
X116347502Y-104574999D03*
X131317502Y-118995355D03*
X127280000Y-78730000D03*
X116347502Y-66039999D03*
X116272502Y-47312499D03*
X162170000Y-141760000D03*
X125960000Y-120270000D03*
X116367502Y-93493927D03*
X127340000Y-120280000D03*
X116377502Y-111274999D03*
X116322502Y-48234999D03*
X125920000Y-77360000D03*
X137115999Y-138790000D03*
X131267502Y-66869999D03*
X116397502Y-94689999D03*
X137052502Y-52872499D03*
X125940000Y-121630000D03*
X127320000Y-121640000D03*
X125900000Y-107270000D03*
X116347502Y-109939641D03*
X116367502Y-79168213D03*
X131317502Y-104669641D03*
X116292502Y-50554999D03*
X125900000Y-108620000D03*
X127240000Y-150310000D03*
X137127502Y-104379641D03*
X116367502Y-107819641D03*
X127280000Y-134560000D03*
X137127502Y-118705355D03*
X125880000Y-93000000D03*
X125880000Y-148940000D03*
X137147502Y-147356783D03*
X137127502Y-81484999D03*
X116408501Y-154244999D03*
X127260000Y-94360000D03*
X131317502Y-95519999D03*
X116398501Y-149664999D03*
X116367502Y-121019999D03*
X137127502Y-110134999D03*
X137077502Y-67159999D03*
X127220000Y-65720000D03*
X160520000Y-142840000D03*
X131267502Y-61692499D03*
X125870000Y-51360000D03*
X116322502Y-51752499D03*
X116347502Y-138591069D03*
X127240000Y-151660000D03*
X116397502Y-134151069D03*
X116377502Y-88913927D03*
X137127502Y-90053927D03*
X160520000Y-141760000D03*
X163770000Y-141760000D03*
X127260000Y-135920000D03*
X125940000Y-122980000D03*
X160520000Y-140730000D03*
X116397502Y-91173927D03*
X116397502Y-76848213D03*
X116367502Y-92369999D03*
X116327502Y-60262499D03*
X125840000Y-65710000D03*
X127320000Y-122990000D03*
X116387502Y-150796783D03*
X162170000Y-142840000D03*
X116377502Y-103239641D03*
X137127502Y-75728213D03*
X116317502Y-64842499D03*
X116347502Y-118899999D03*
X125860000Y-151650000D03*
X116317502Y-63719999D03*
X125880000Y-135910000D03*
X116377502Y-131891069D03*
X137127502Y-124459999D03*
X116385999Y-137670000D03*
X127240000Y-63010000D03*
X116397502Y-109014999D03*
X116347502Y-90249999D03*
X137077502Y-61402499D03*
X116347502Y-81288213D03*
X125860000Y-63000000D03*
X116417502Y-148476783D03*
X116297502Y-61599999D03*
X116397502Y-119825355D03*
X127300000Y-77370000D03*
X127280000Y-80080000D03*
X116367502Y-122145355D03*
X125900000Y-80070000D03*
X137127502Y-133031069D03*
X116292502Y-49432499D03*
X131337502Y-147646783D03*
X116355999Y-135350000D03*
X116347502Y-124265355D03*
X116378501Y-147544999D03*
X116367502Y-106694999D03*
X125900000Y-134550000D03*
X116297502Y-66962499D03*
X131242502Y-47404999D03*
X137052502Y-47114999D03*
X137127502Y-95809999D03*
X127280000Y-107280000D03*
X131242502Y-52582499D03*
X116347502Y-75924999D03*
X137158501Y-153104999D03*
X131305999Y-138500000D03*
X116397502Y-123339999D03*
X125920000Y-105910000D03*
X125860000Y-150300000D03*
X125900000Y-78720000D03*
X116347502Y-95613927D03*
X131348501Y-152814999D03*
X116367502Y-136471069D03*
X125890000Y-48650000D03*
%TO.N,Net-(D2-K)*%
X177425000Y-80860000D03*
X175870000Y-54250000D03*
%TO.N,Net-(D5-K)*%
X178400000Y-59160000D03*
X179050000Y-88610000D03*
%TO.N,Net-(D8-K)*%
X179087500Y-95622500D03*
X179050000Y-76735000D03*
%TO.N,Net-(D11-K)*%
X177325000Y-87810000D03*
X177850000Y-104485000D03*
%TO.N,Net-(D14-K)*%
X177700000Y-111410000D03*
X176850000Y-102060000D03*
%TO.N,Net-(D26-K)*%
X143175000Y-81335000D03*
%TO.N,Net-(D3-K)*%
X173800000Y-81335000D03*
X173275000Y-55210000D03*
%TO.N,Net-(D6-K)*%
X171675000Y-88510000D03*
X170700000Y-66710000D03*
%TO.N,Net-(D29-K)*%
X141375000Y-88585000D03*
%TO.N,Net-(D9-K)*%
X173025000Y-95560000D03*
X172775000Y-80285000D03*
%TO.N,Net-(D12-K)*%
X170850000Y-94585000D03*
X171650000Y-104460000D03*
%TO.N,Net-(D32-K)*%
X139850000Y-95360000D03*
%TO.N,Net-(D21-K)*%
X171450000Y-125685000D03*
X173088931Y-137571069D03*
%TO.N,Net-(D35-K)*%
X138050000Y-103085000D03*
%TO.N,Net-(D24-K)*%
X171650000Y-133735000D03*
X170850000Y-139360000D03*
%TO.N,Net-(D27-K)*%
X144225000Y-82935000D03*
%TO.N,Net-(D38-K)*%
X137425000Y-112385000D03*
%TO.N,Net-(D30-K)*%
X142075000Y-90660000D03*
%TO.N,Net-(D33-K)*%
X140750000Y-97160000D03*
%TO.N,Net-(D41-K)*%
X141775000Y-121260000D03*
%TO.N,Net-(D36-K)*%
X138875000Y-104335000D03*
%TO.N,Net-(D39-K)*%
X139300000Y-111585000D03*
%TO.N,Net-(D44-K)*%
X143600000Y-127760000D03*
%TO.N,Net-(D42-K)*%
X138190000Y-119920000D03*
%TO.N,Net-(D45-K)*%
X141775000Y-126510000D03*
%TO.N,Net-(D47-K)*%
X147050000Y-134685000D03*
%TO.N,Net-(D48-K)*%
X145550000Y-132810000D03*
%TO.N,/SpikeAndHoldDriverAndLEDs-2/TTLInput*%
X153775000Y-63585000D03*
%TO.N,/SpikeAndHoldDriverAndLEDs-3/TTLInput*%
X145550000Y-77988213D03*
%TO.N,/SpikeAndHoldDriverAndLEDs-4/TTLInput*%
X149650000Y-92285000D03*
%TO.N,/SpikeAndHoldDriverAndLEDs-5/TTLInput*%
X149830000Y-106640000D03*
%TO.N,/SpikeAndHoldDriverAndLEDs-6/TTLInput*%
X151440000Y-119620000D03*
%TO.N,/SpikeAndHoldDriverAndLEDs-7/TTLInput*%
X150975000Y-130535000D03*
%TO.N,/SpikeAndHoldDriverAndLEDs-8/TTLInput*%
X148525000Y-139510000D03*
%TO.N,/SpikeAndHoldDriverAndLEDs-9/TTLInput*%
X137575000Y-50560000D03*
%TO.N,/SpikeAndHoldDriverAndLEDs-10/TTLInput*%
X137700000Y-64860000D03*
X151625000Y-64860000D03*
%TO.N,/SpikeAndHoldDriverAndLEDs-11/TTLInput*%
X146750000Y-79135000D03*
X138100000Y-79135000D03*
%TO.N,/SpikeAndHoldDriverAndLEDs-12/TTLInput*%
X150640000Y-93560000D03*
X137540000Y-93560000D03*
%TO.N,/SpikeAndHoldDriverAndLEDs-13/TTLInput*%
X148550000Y-107670000D03*
X137600000Y-107790000D03*
%TO.N,/SpikeAndHoldDriverAndLEDs-14/TTLInput*%
X151450000Y-123335000D03*
X139425000Y-123335000D03*
%TO.N,/SpikeAndHoldDriverAndLEDs-15/TTLInput*%
X137829999Y-136530001D03*
X152175000Y-131485000D03*
%TO.N,/SpikeAndHoldDriverAndLEDs-16/TTLInput*%
X150100000Y-139600000D03*
X137650000Y-150830000D03*
%TD*%
D24*
%TO.N,+12V*%
X129386503Y-92279999D02*
X129386503Y-91629999D01*
X129386503Y-106604999D02*
X129386503Y-105954999D01*
X129336503Y-63629999D02*
X129336503Y-62979999D01*
X129386503Y-77954999D02*
X129386503Y-77304999D01*
X129375000Y-135260000D02*
X129375000Y-134610000D01*
X129311503Y-49342499D02*
X129311503Y-48692499D01*
X129386503Y-120929999D02*
X129386503Y-120279999D01*
X129417502Y-149574999D02*
X129417502Y-148924999D01*
%TO.N,GND*%
X129386503Y-121579999D02*
X127336503Y-121579999D01*
X116407502Y-123329999D02*
X116397502Y-123339999D01*
X137125802Y-95808299D02*
X137127502Y-95809999D01*
X135848803Y-110133299D02*
X137125802Y-110133299D01*
X116438501Y-151974999D02*
X116428501Y-151984999D01*
D25*
X106662505Y-121220001D02*
X101582500Y-121220001D01*
D24*
X135879802Y-153103299D02*
X137156801Y-153103299D01*
X131267502Y-68212499D02*
X131267502Y-66869999D01*
D25*
X106662502Y-141539997D02*
X101582505Y-141539998D01*
X101582500Y-121220001D02*
X101582498Y-121219999D01*
D24*
X131317502Y-111187499D02*
X131317502Y-109844999D01*
X129417502Y-150224999D02*
X127367502Y-150224999D01*
X116357502Y-66029999D02*
X116347502Y-66039999D01*
X129336503Y-64279999D02*
X127286503Y-64279999D01*
X129375000Y-135910000D02*
X127325000Y-135910000D01*
D25*
X101557500Y-93659999D02*
X101557498Y-93659997D01*
D24*
X129311503Y-49992499D02*
X127261503Y-49992499D01*
X137156801Y-153103299D02*
X137158501Y-153104999D01*
D25*
X106662502Y-111059998D02*
X101582505Y-111059999D01*
D24*
X117836503Y-123329999D02*
X116407502Y-123329999D01*
D25*
X106637502Y-88579998D02*
X101557506Y-88579999D01*
D24*
X137125802Y-81483299D02*
X137127502Y-81484999D01*
X117836503Y-80354999D02*
X116407502Y-80354999D01*
D25*
X106637502Y-68259998D02*
X101557505Y-68259999D01*
D24*
X116407502Y-80354999D02*
X116397502Y-80364999D01*
X129386503Y-107254999D02*
X127336503Y-107254999D01*
X131317502Y-125512499D02*
X131317502Y-124169999D01*
D25*
X101557500Y-78420001D02*
X101557498Y-78419999D01*
D24*
X137050802Y-52870799D02*
X137052502Y-52872499D01*
X135837300Y-138788300D02*
X137114299Y-138788300D01*
X116401002Y-136174999D02*
X116391002Y-136184999D01*
D25*
X106662498Y-126299998D02*
X101582500Y-126299999D01*
D24*
X129386503Y-78604999D02*
X127336503Y-78604999D01*
D25*
X106662506Y-116139997D02*
X101582502Y-116139997D01*
D24*
X131317502Y-96862499D02*
X131317502Y-95519999D01*
X117786503Y-66029999D02*
X116357502Y-66029999D01*
X117867502Y-151974999D02*
X116438501Y-151974999D01*
X116407502Y-109004999D02*
X116397502Y-109014999D01*
X135773803Y-52870799D02*
X137050802Y-52870799D01*
X117761503Y-51742499D02*
X116332502Y-51742499D01*
X135798803Y-67158299D02*
X137075802Y-67158299D01*
X137075802Y-67158299D02*
X137077502Y-67159999D01*
X129386503Y-92929999D02*
X127336503Y-92929999D01*
X135848803Y-81483299D02*
X137125802Y-81483299D01*
X135848803Y-124458299D02*
X137125802Y-124458299D01*
D25*
X101582501Y-136459999D02*
X101582498Y-136459996D01*
D24*
X117836503Y-94679999D02*
X116407502Y-94679999D01*
X137125802Y-124458299D02*
X137127502Y-124459999D01*
X131242502Y-53924999D02*
X131242502Y-52582499D01*
X117830003Y-136174999D02*
X116401002Y-136174999D01*
D25*
X106637502Y-93659999D02*
X101557500Y-93659999D01*
D24*
X137125802Y-110133299D02*
X137127502Y-110134999D01*
D25*
X106637498Y-83499998D02*
X101557500Y-83499999D01*
X106637502Y-63179998D02*
X101557504Y-63179998D01*
X106662502Y-131379998D02*
X101582506Y-131379999D01*
X106662502Y-105979998D02*
X101582504Y-105979998D01*
D24*
X116332502Y-51742499D02*
X116322502Y-51752499D01*
X117836503Y-109004999D02*
X116407502Y-109004999D01*
X131317502Y-82537499D02*
X131317502Y-81194999D01*
D25*
X106662502Y-136459999D02*
X101582501Y-136459999D01*
D24*
X131348501Y-154157499D02*
X131348501Y-152814999D01*
D25*
X106637505Y-78420001D02*
X101557500Y-78420001D01*
X106637502Y-98739997D02*
X101557505Y-98739998D01*
X106637506Y-73339997D02*
X101557502Y-73339997D01*
D24*
X135848803Y-95808299D02*
X137125802Y-95808299D01*
X116407502Y-94679999D02*
X116397502Y-94689999D01*
X131305999Y-139842500D02*
X131305999Y-138500000D01*
%TO.N,Net-(U9-DELAY_ADJ)*%
X122122502Y-51931500D02*
X122122502Y-52892499D01*
X120992501Y-54022500D02*
X120707502Y-54022500D01*
X123711503Y-51292499D02*
X122761503Y-51292499D01*
X122761503Y-51292499D02*
X122122502Y-51931500D01*
X122122502Y-52892499D02*
X120992501Y-54022500D01*
%TO.N,Net-(U10-DELAY_ADJ)*%
X122147502Y-67179999D02*
X121017501Y-68310000D01*
X123736503Y-65579999D02*
X122786503Y-65579999D01*
X121017501Y-68310000D02*
X120732502Y-68310000D01*
X122786503Y-65579999D02*
X122147502Y-66219000D01*
X122147502Y-66219000D02*
X122147502Y-67179999D01*
%TO.N,Net-(U11-DELAY_ADJ)*%
X122197502Y-80544000D02*
X122197502Y-81504999D01*
X121067501Y-82635000D02*
X120782502Y-82635000D01*
X123786503Y-79904999D02*
X122836503Y-79904999D01*
X122197502Y-81504999D02*
X121067501Y-82635000D01*
X122836503Y-79904999D02*
X122197502Y-80544000D01*
%TO.N,Net-(U9-BOOT)*%
X123711503Y-49342499D02*
X120817502Y-49342499D01*
X120817502Y-49342499D02*
X120707502Y-49452499D01*
%TO.N,Net-(U10-BOOT)*%
X120842502Y-63629999D02*
X120732502Y-63739999D01*
X123736503Y-63629999D02*
X120842502Y-63629999D01*
%TO.N,Net-(U11-BOOT)*%
X120892502Y-77954999D02*
X120782502Y-78064999D01*
X123786503Y-77954999D02*
X120892502Y-77954999D01*
%TO.N,Net-(U12-BOOT)*%
X120892502Y-92279999D02*
X120782502Y-92389999D01*
X123786503Y-92279999D02*
X120892502Y-92279999D01*
%TO.N,Net-(U13-BOOT)*%
X120892502Y-106604999D02*
X120782502Y-106714999D01*
X123786503Y-106604999D02*
X120892502Y-106604999D01*
%TO.N,Net-(U14-BOOT)*%
X123786503Y-120929999D02*
X120892502Y-120929999D01*
X120892502Y-120929999D02*
X120782502Y-121039999D01*
%TO.N,Net-(U15-BOOT)*%
X120880999Y-135260000D02*
X120770999Y-135370000D01*
X123775000Y-135260000D02*
X120880999Y-135260000D01*
%TO.N,Net-(U16-BOOT)*%
X120923501Y-149574999D02*
X120813501Y-149684999D01*
X123817502Y-149574999D02*
X120923501Y-149574999D01*
D26*
%TO.N,+3.3V*%
X166997064Y-49188987D02*
X166997064Y-46637064D01*
X154660000Y-46580000D02*
X154350000Y-46890000D01*
X154350000Y-47410000D02*
X154297063Y-47462937D01*
D24*
X172077064Y-51728987D02*
X174617064Y-49188987D01*
X174617064Y-49188987D02*
X174617064Y-49188983D01*
D26*
X174210000Y-46580000D02*
X166940000Y-46580000D01*
X154297063Y-47462937D02*
X154297063Y-49188987D01*
X174617064Y-47012936D02*
X174630000Y-47000000D01*
X174617064Y-49188983D02*
X174617064Y-47012936D01*
X177157064Y-49188988D02*
X174617069Y-49188988D01*
X174630000Y-47000000D02*
X174210000Y-46580000D01*
X154350000Y-46890000D02*
X154350000Y-47410000D01*
X166997064Y-46637064D02*
X166940000Y-46580000D01*
X166940000Y-46580000D02*
X154660000Y-46580000D01*
X177157067Y-49188985D02*
X177157064Y-49188988D01*
X179697061Y-49188985D02*
X177157067Y-49188985D01*
X174617069Y-49188988D02*
X174617064Y-49188983D01*
D24*
%TO.N,Net-(D2-K)*%
X176078064Y-79513064D02*
X177425000Y-80860000D01*
X175870000Y-54250000D02*
X176078064Y-54458064D01*
X176078064Y-54458064D02*
X176078064Y-79513064D01*
%TO.N,Net-(U12-DELAY_ADJ)*%
X122197502Y-95829999D02*
X121067501Y-96960000D01*
X122836503Y-94229999D02*
X122197502Y-94869000D01*
X122197502Y-94869000D02*
X122197502Y-95829999D01*
X123786503Y-94229999D02*
X122836503Y-94229999D01*
X121067501Y-96960000D02*
X120782502Y-96960000D01*
%TO.N,Net-(D5-K)*%
X178400000Y-59160000D02*
X178300000Y-59260000D01*
X178300000Y-59260000D02*
X178300000Y-87860000D01*
X178300000Y-87860000D02*
X179050000Y-88610000D01*
%TO.N,Net-(U13-DELAY_ADJ)*%
X122197502Y-109194000D02*
X122197502Y-110154999D01*
X121067501Y-111285000D02*
X120782502Y-111285000D01*
X122197502Y-110154999D02*
X121067501Y-111285000D01*
X123786503Y-108554999D02*
X122836503Y-108554999D01*
X122836503Y-108554999D02*
X122197502Y-109194000D01*
%TO.N,Net-(D8-K)*%
X179775000Y-94885000D02*
X179775000Y-94935000D01*
X180000000Y-77685000D02*
X180000000Y-94660000D01*
X180000000Y-94660000D02*
X179775000Y-94885000D01*
X179775000Y-94935000D02*
X179087500Y-95622500D01*
X179050000Y-76735000D02*
X180000000Y-77685000D01*
%TO.N,Net-(U14-DELAY_ADJ)*%
X122836503Y-122879999D02*
X122197502Y-123519000D01*
X123786503Y-122879999D02*
X122836503Y-122879999D01*
X121067501Y-125610000D02*
X120782502Y-125610000D01*
X122197502Y-124479999D02*
X121067501Y-125610000D01*
X122197502Y-123519000D02*
X122197502Y-124479999D01*
%TO.N,Net-(D11-K)*%
X177575000Y-88060000D02*
X177575000Y-104210000D01*
X177575000Y-104210000D02*
X177850000Y-104485000D01*
X177325000Y-87810000D02*
X177575000Y-88060000D01*
%TO.N,Net-(U15-DELAY_ADJ)*%
X122185999Y-138810000D02*
X121055998Y-139940001D01*
X122825000Y-137210000D02*
X122185999Y-137849001D01*
X123775000Y-137210000D02*
X122825000Y-137210000D01*
X122185999Y-137849001D02*
X122185999Y-138810000D01*
X121055998Y-139940001D02*
X120770999Y-139940001D01*
%TO.N,Net-(D14-K)*%
X177700000Y-111435000D02*
X177700000Y-111410000D01*
X176850000Y-110785000D02*
X177600000Y-111535000D01*
X176850000Y-102060000D02*
X176850000Y-110785000D01*
X177600000Y-111535000D02*
X177700000Y-111435000D01*
%TO.N,Net-(U16-DELAY_ADJ)*%
X122228501Y-153124999D02*
X121098500Y-154255000D01*
X123817502Y-151524999D02*
X122867502Y-151524999D01*
X122867502Y-151524999D02*
X122228501Y-152164000D01*
X121098500Y-154255000D02*
X120813501Y-154255000D01*
X122228501Y-152164000D02*
X122228501Y-153124999D01*
%TO.N,Net-(D26-K)*%
X143175000Y-62572500D02*
X143175000Y-81335000D01*
X135775000Y-55172500D02*
X143175000Y-62572500D01*
%TO.N,Net-(D3-K)*%
X173275000Y-74802870D02*
X173800000Y-75327870D01*
X173275000Y-55210000D02*
X173275000Y-74802870D01*
X173800000Y-75327870D02*
X173800000Y-81335000D01*
%TO.N,Net-(D6-K)*%
X170850000Y-66860000D02*
X170850000Y-87685000D01*
X170700000Y-66710000D02*
X170850000Y-66860000D01*
X170850000Y-87685000D02*
X171675000Y-88510000D01*
%TO.N,Net-(D29-K)*%
X141175000Y-74835000D02*
X135800000Y-69460000D01*
X141375000Y-85385000D02*
X141175000Y-85185000D01*
X141375000Y-88585000D02*
X141375000Y-85385000D01*
X141175000Y-85185000D02*
X141175000Y-74835000D01*
%TO.N,Net-(D9-K)*%
X172775000Y-80285000D02*
X172775000Y-95310000D01*
X172775000Y-95310000D02*
X173025000Y-95560000D01*
%TO.N,Net-(D12-K)*%
X170850000Y-94585000D02*
X170850000Y-103660000D01*
X170850000Y-103660000D02*
X171650000Y-104460000D01*
%TO.N,Net-(D32-K)*%
X139850000Y-92685000D02*
X139825000Y-92660000D01*
X139825000Y-92660000D02*
X139825000Y-87760000D01*
X139850000Y-95360000D02*
X139850000Y-92685000D01*
X139825000Y-87760000D02*
X135850000Y-83785000D01*
%TO.N,Net-(D21-K)*%
X173088931Y-137571069D02*
X173088931Y-127323931D01*
X173088931Y-127323931D02*
X171450000Y-125685000D01*
%TO.N,Net-(D35-K)*%
X138050000Y-99610000D02*
X136550000Y-98110000D01*
X138050000Y-103085000D02*
X138050000Y-99610000D01*
X136550000Y-98110000D02*
X135850000Y-98110000D01*
%TO.N,Net-(D24-K)*%
X170850000Y-134535000D02*
X171650000Y-133735000D01*
X170850000Y-139360000D02*
X170850000Y-134535000D01*
%TO.N,Net-(D27-K)*%
X138997500Y-48332500D02*
X144225000Y-53560000D01*
X144225000Y-53560000D02*
X144225000Y-82935000D01*
X135755000Y-48332500D02*
X138997500Y-48332500D01*
%TO.N,Net-(D38-K)*%
X137375000Y-112435000D02*
X137425000Y-112385000D01*
X135850000Y-112435000D02*
X137375000Y-112435000D01*
%TO.N,Net-(D30-K)*%
X142125000Y-90610000D02*
X142125000Y-66060000D01*
X142075000Y-90660000D02*
X142125000Y-90610000D01*
X142125000Y-66060000D02*
X138685000Y-62620000D01*
X138685000Y-62620000D02*
X135780000Y-62620000D01*
%TO.N,Net-(D33-K)*%
X138660000Y-76945000D02*
X135830000Y-76945000D01*
X140750000Y-94385000D02*
X140475000Y-94110000D01*
X140475000Y-94110000D02*
X140475000Y-78760000D01*
X140475000Y-78760000D02*
X138660000Y-76945000D01*
X140750000Y-97160000D02*
X140750000Y-94385000D01*
%TO.N,Net-(D41-K)*%
X135850000Y-126760000D02*
X138875000Y-126760000D01*
X141900000Y-121410000D02*
X141775000Y-121285000D01*
X138950000Y-126685000D02*
X141900000Y-123735000D01*
X141900000Y-123735000D02*
X141900000Y-121410000D01*
X138875000Y-126760000D02*
X138950000Y-126685000D01*
X141775000Y-121285000D02*
X141775000Y-121260000D01*
%TO.N,Net-(D36-K)*%
X138035000Y-91270000D02*
X135830000Y-91270000D01*
X138875000Y-101685000D02*
X138800000Y-101610000D01*
X138800000Y-101610000D02*
X138800000Y-92035000D01*
X138800000Y-92035000D02*
X138035000Y-91270000D01*
X138875000Y-104335000D02*
X138875000Y-101685000D01*
%TO.N,Net-(D39-K)*%
X137960000Y-105595000D02*
X139300000Y-106935000D01*
X135830000Y-105595000D02*
X137960000Y-105595000D01*
X139300000Y-106935000D02*
X139300000Y-111585000D01*
%TO.N,Net-(D44-K)*%
X143525000Y-127910000D02*
X143600000Y-127835000D01*
X135838497Y-141090001D02*
X139169999Y-141090001D01*
X139169999Y-141090001D02*
X143675000Y-136585000D01*
X143600000Y-127835000D02*
X143600000Y-127760000D01*
X143675000Y-128060000D02*
X143525000Y-127910000D01*
X143675000Y-136585000D02*
X143675000Y-128060000D01*
%TO.N,Net-(D42-K)*%
X138200000Y-119910000D02*
X138190000Y-119920000D01*
X135830000Y-119920000D02*
X138190000Y-119920000D01*
%TO.N,Net-(D45-K)*%
X140259999Y-134250001D02*
X141775000Y-132735000D01*
X135818497Y-134250001D02*
X140259999Y-134250001D01*
X141775000Y-132735000D02*
X141775000Y-126510000D01*
%TO.N,Net-(D47-K)*%
X135880999Y-155405000D02*
X137730000Y-155405000D01*
X147050000Y-146085000D02*
X147050000Y-134685000D01*
X137730000Y-155405000D02*
X147050000Y-146085000D01*
%TO.N,Net-(D48-K)*%
X145550000Y-139979590D02*
X145550000Y-132810000D01*
X135860999Y-148565000D02*
X136964590Y-148565000D01*
X136964590Y-148565000D02*
X145550000Y-139979590D01*
D25*
%TO.N,/SpikeAndHoldDriverAndLEDs-1/DriveOut*%
X106637502Y-60639998D02*
X101557507Y-60639998D01*
X101557507Y-60639998D02*
X101557503Y-60640002D01*
%TO.N,/SpikeAndHoldDriverAndLEDs-2/DriveOut*%
X106637501Y-70799998D02*
X101557504Y-70799998D01*
X101557504Y-70799998D02*
X101557502Y-70800000D01*
%TO.N,/SpikeAndHoldDriverAndLEDs-3/DriveOut*%
X101557505Y-80960001D02*
X101557502Y-80959998D01*
X106637500Y-80960001D02*
X101557505Y-80960001D01*
%TO.N,/SpikeAndHoldDriverAndLEDs-4/DriveOut*%
X106637500Y-91119999D02*
X101557502Y-91119998D01*
%TO.N,/SpikeAndHoldDriverAndLEDs-5/DriveOut*%
X101582507Y-103439998D02*
X101582503Y-103440002D01*
X106662502Y-103439998D02*
X101582507Y-103439998D01*
%TO.N,/SpikeAndHoldDriverAndLEDs-6/DriveOut*%
X106662501Y-113599998D02*
X101582502Y-113599999D01*
%TO.N,/SpikeAndHoldDriverAndLEDs-7/DriveOut*%
X106662500Y-123760001D02*
X101582505Y-123760001D01*
X101582505Y-123760001D02*
X101582502Y-123759998D01*
%TO.N,/SpikeAndHoldDriverAndLEDs-8/DriveOut*%
X106662500Y-133919999D02*
X101582502Y-133919998D01*
%TO.N,/SpikeAndHoldDriverAndLEDs-9/DriveOut*%
X110200000Y-63223820D02*
X110200000Y-47235000D01*
X120125000Y-43860000D02*
X122700000Y-46435000D01*
X110200000Y-47235000D02*
X113575000Y-43860000D01*
X107703823Y-65719997D02*
X110200000Y-63223820D01*
X106637506Y-65719997D02*
X107703823Y-65719997D01*
D24*
X123711503Y-48692499D02*
X123711503Y-48042499D01*
D25*
X106637506Y-65719997D02*
X101557500Y-65719998D01*
X113575000Y-43860000D02*
X120125000Y-43860000D01*
%TO.N,/SpikeAndHoldDriverAndLEDs-10/DriveOut*%
X117700000Y-57360000D02*
X117725000Y-57385000D01*
X106637502Y-75879998D02*
X107703819Y-75879998D01*
X114675000Y-57360000D02*
X117700000Y-57360000D01*
X117725000Y-57385000D02*
X119500000Y-57385000D01*
X119500000Y-57385000D02*
X119525000Y-57360000D01*
D24*
X123736503Y-62979999D02*
X123736503Y-62329999D01*
D25*
X119525000Y-57360000D02*
X122575000Y-60410000D01*
X107703819Y-75879998D02*
X113700000Y-69883817D01*
X106637502Y-75879998D02*
X101557505Y-75879998D01*
X113700000Y-58335000D02*
X114675000Y-57360000D01*
X113700000Y-69883817D02*
X113700000Y-58335000D01*
%TO.N,/SpikeAndHoldDriverAndLEDs-11/DriveOut*%
X115100000Y-72360000D02*
X119975000Y-72360000D01*
X107703819Y-86039998D02*
X112550000Y-81193817D01*
X106637502Y-86039998D02*
X101557502Y-86039998D01*
X112550000Y-75810000D02*
X112550000Y-74910000D01*
X112550000Y-74910000D02*
X115100000Y-72360000D01*
X106637502Y-86039998D02*
X107703819Y-86039998D01*
X119975000Y-72360000D02*
X122575000Y-74960000D01*
X112550000Y-81193817D02*
X112550000Y-75810000D01*
D24*
X123786503Y-77304999D02*
X123786503Y-76654999D01*
D25*
%TO.N,/SpikeAndHoldDriverAndLEDs-12/DriveOut*%
X101557508Y-96199998D02*
X101557504Y-96199994D01*
X110900000Y-93710000D02*
X111900000Y-92710000D01*
X106637502Y-96199998D02*
X101557508Y-96199998D01*
X106637502Y-96199998D02*
X108410002Y-96199998D01*
X113250000Y-86085000D02*
X119625000Y-86085000D01*
X111900000Y-87485000D02*
X113250000Y-86135000D01*
X111900000Y-92710000D02*
X111900000Y-87485000D01*
X119625000Y-86085000D02*
X122700000Y-89160000D01*
D24*
X123786503Y-91629999D02*
X123786503Y-90979999D01*
D25*
X108410002Y-96199998D02*
X110900000Y-93710000D01*
X113250000Y-86135000D02*
X113250000Y-86085000D01*
%TO.N,/SpikeAndHoldDriverAndLEDs-13/DriveOut*%
X113525000Y-100410000D02*
X117575000Y-100410000D01*
X106662506Y-108519997D02*
X101582500Y-108519997D01*
X111175000Y-102760000D02*
X113525000Y-100410000D01*
X106662506Y-108519997D02*
X109640003Y-108519997D01*
D24*
X123786503Y-105954999D02*
X123786503Y-105304999D01*
D25*
X117575000Y-100410000D02*
X119200000Y-100410000D01*
X119200000Y-100410000D02*
X122300000Y-103510000D01*
X111175000Y-106985000D02*
X111175000Y-102760000D01*
X109640003Y-108519997D02*
X111175000Y-106985000D01*
%TO.N,/SpikeAndHoldDriverAndLEDs-14/DriveOut*%
X112450000Y-114885000D02*
X119275000Y-114885000D01*
X108655002Y-118679998D02*
X112450000Y-114885000D01*
X106662502Y-118679998D02*
X108655002Y-118679998D01*
D24*
X123786503Y-120279999D02*
X123786503Y-119629999D01*
D25*
X119275000Y-114885000D02*
X122625000Y-118235000D01*
X106662502Y-118679998D02*
X101582505Y-118679998D01*
%TO.N,/SpikeAndHoldDriverAndLEDs-15/DriveOut*%
X118829998Y-128839998D02*
X122325000Y-132335000D01*
X106662502Y-128839998D02*
X118829998Y-128839998D01*
D24*
X123775000Y-134610000D02*
X123775000Y-133960000D01*
D25*
X106662502Y-128839998D02*
X101582502Y-128839998D01*
%TO.N,/SpikeAndHoldDriverAndLEDs-16/DriveOut*%
X106662502Y-138999998D02*
X108714998Y-138999998D01*
X106662502Y-138999998D02*
X101582508Y-138999998D01*
X108714998Y-138999998D02*
X112825000Y-143110000D01*
D24*
X123817502Y-148924999D02*
X123817502Y-148274999D01*
D25*
X113175000Y-143460000D02*
X118925000Y-143460000D01*
X118925000Y-143460000D02*
X122275000Y-146810000D01*
X112825000Y-143110000D02*
X113175000Y-143460000D01*
X101582508Y-138999998D02*
X101582504Y-138999994D01*
D24*
%TO.N,Net-(Q9-G)*%
X129311503Y-51942499D02*
X129396503Y-51857499D01*
X129311503Y-51942499D02*
X129311503Y-53894000D01*
X132846503Y-52868499D02*
X132848803Y-52870799D01*
X132846503Y-50612499D02*
X132846503Y-52868499D01*
X129311503Y-53894000D02*
X129342502Y-53924999D01*
X131835503Y-51857499D02*
X132848803Y-52870799D01*
X129396503Y-51857499D02*
X131835503Y-51857499D01*
%TO.N,Net-(Q10-G)*%
X132871503Y-64899999D02*
X132871503Y-67155999D01*
X132871503Y-67155999D02*
X132873803Y-67158299D01*
X129421503Y-66144999D02*
X131860503Y-66144999D01*
X129336503Y-68181500D02*
X129367502Y-68212499D01*
X131860503Y-66144999D02*
X132873803Y-67158299D01*
X129336503Y-66229999D02*
X129421503Y-66144999D01*
X129336503Y-66229999D02*
X129336503Y-68181500D01*
%TO.N,Net-(Q11-G)*%
X129386503Y-80554999D02*
X129471503Y-80469999D01*
X132921503Y-81480999D02*
X132923803Y-81483299D01*
X129386503Y-82506500D02*
X129417502Y-82537499D01*
X129471503Y-80469999D02*
X131910503Y-80469999D01*
X129386503Y-80554999D02*
X129386503Y-82506500D01*
X132921503Y-79224999D02*
X132921503Y-81480999D01*
X131910503Y-80469999D02*
X132923803Y-81483299D01*
%TO.N,Net-(Q12-G)*%
X129386503Y-94879999D02*
X129386503Y-96831500D01*
X131910503Y-94794999D02*
X132923803Y-95808299D01*
X129386503Y-94879999D02*
X129471503Y-94794999D01*
X129386503Y-96831500D02*
X129417502Y-96862499D01*
X132921503Y-93549999D02*
X132921503Y-95805999D01*
X132921503Y-95805999D02*
X132923803Y-95808299D01*
X129471503Y-94794999D02*
X131910503Y-94794999D01*
%TO.N,Net-(Q13-G)*%
X129386503Y-111156500D02*
X129417502Y-111187499D01*
X132921503Y-107874999D02*
X132921503Y-110130999D01*
X132921503Y-110130999D02*
X132923803Y-110133299D01*
X129471503Y-109119999D02*
X131910503Y-109119999D01*
X129386503Y-109204999D02*
X129386503Y-111156500D01*
X129386503Y-109204999D02*
X129471503Y-109119999D01*
X131910503Y-109119999D02*
X132923803Y-110133299D01*
%TO.N,Net-(Q14-G)*%
X129471503Y-123444999D02*
X131910503Y-123444999D01*
X132921503Y-124455999D02*
X132923803Y-124458299D01*
X132921503Y-122199999D02*
X132921503Y-124455999D01*
X129386503Y-123529999D02*
X129471503Y-123444999D01*
X131910503Y-123444999D02*
X132923803Y-124458299D01*
X129386503Y-125481500D02*
X129417502Y-125512499D01*
X129386503Y-123529999D02*
X129386503Y-125481500D01*
%TO.N,Net-(Q15-G)*%
X131899000Y-137775000D02*
X132912300Y-138788300D01*
X129375000Y-137860000D02*
X129375000Y-139811501D01*
X129375000Y-137860000D02*
X129460000Y-137775000D01*
X132910000Y-136530000D02*
X132910000Y-138786000D01*
X129460000Y-137775000D02*
X131899000Y-137775000D01*
X132915003Y-137300999D02*
X132917303Y-137303299D01*
%TO.N,Net-(Q16-G)*%
X129502502Y-152089999D02*
X131941502Y-152089999D01*
X129417502Y-154126500D02*
X129448501Y-154157499D01*
X129417502Y-152174999D02*
X129502502Y-152089999D01*
X132952502Y-153100999D02*
X132954802Y-153103299D01*
X131941502Y-152089999D02*
X132954802Y-153103299D01*
X129417502Y-152174999D02*
X129417502Y-154126500D01*
X132952502Y-150844999D02*
X132952502Y-153100999D01*
%TO.N,/SpikeAndHoldDriverAndLEDs-2/TTLInput*%
X154297064Y-63062936D02*
X154297064Y-51728987D01*
X153775000Y-63585000D02*
X154297064Y-63062936D01*
%TO.N,/SpikeAndHoldDriverAndLEDs-3/TTLInput*%
X145600000Y-75696050D02*
X149217063Y-72078987D01*
X145600000Y-77938213D02*
X145600000Y-75696050D01*
X145550000Y-77988213D02*
X145600000Y-77938213D01*
%TO.N,/SpikeAndHoldDriverAndLEDs-4/TTLInput*%
X149650000Y-92285000D02*
X150678064Y-91256936D01*
X150500000Y-75785000D02*
X150500000Y-73320000D01*
X150740000Y-73080000D02*
X150756054Y-73080000D01*
X150678064Y-91256936D02*
X150678064Y-75963064D01*
X150756054Y-73080000D02*
X151757064Y-72078990D01*
X150500000Y-73320000D02*
X150740000Y-73080000D01*
X150678064Y-75963064D02*
X150500000Y-75785000D01*
%TO.N,/SpikeAndHoldDriverAndLEDs-5/TTLInput*%
X153060000Y-93270000D02*
X153060000Y-81130000D01*
X152790000Y-93540000D02*
X153060000Y-93270000D01*
X149830000Y-96500000D02*
X152790000Y-93540000D01*
X156837064Y-74618987D02*
X156837064Y-77352936D01*
X149830000Y-106640000D02*
X149830000Y-96500000D01*
X156837064Y-77352936D02*
X153060000Y-81130000D01*
%TO.N,/SpikeAndHoldDriverAndLEDs-6/TTLInput*%
X152520000Y-97770000D02*
X152520000Y-118540000D01*
X152520000Y-118540000D02*
X151440000Y-119620000D01*
X159400000Y-76220000D02*
X155376062Y-80243938D01*
X155376062Y-94913938D02*
X152520000Y-97770000D01*
X159400000Y-74641923D02*
X159400000Y-76220000D01*
X155376062Y-80243938D02*
X155376062Y-94913938D01*
X159377064Y-74618987D02*
X159400000Y-74641923D01*
%TO.N,/SpikeAndHoldDriverAndLEDs-7/TTLInput*%
X154275000Y-98210000D02*
X154275000Y-127235000D01*
X161917064Y-74618987D02*
X161917064Y-76362936D01*
X157640000Y-80640000D02*
X157640000Y-94845000D01*
X157640000Y-94845000D02*
X154275000Y-98210000D01*
X161917064Y-76362936D02*
X157640000Y-80640000D01*
X154275000Y-127235000D02*
X150975000Y-130535000D01*
%TO.N,/SpikeAndHoldDriverAndLEDs-8/TTLInput*%
X148525000Y-137360000D02*
X156400000Y-129485000D01*
X161950000Y-78740000D02*
X164457064Y-76232936D01*
X164457064Y-76232936D02*
X164457064Y-74618987D01*
X148525000Y-139510000D02*
X148525000Y-137360000D01*
X161950000Y-93735000D02*
X161950000Y-78740000D01*
X156400000Y-129485000D02*
X156400000Y-99285000D01*
X156400000Y-99285000D02*
X161950000Y-93735000D01*
%TO.N,/SpikeAndHoldDriverAndLEDs-9/TTLInput*%
X135771501Y-50612500D02*
X137522500Y-50612500D01*
X137522500Y-50612500D02*
X137575000Y-50560000D01*
%TO.N,/SpikeAndHoldDriverAndLEDs-10/TTLInput*%
X152900000Y-63585000D02*
X152900000Y-50331913D01*
X137660000Y-64900000D02*
X137700000Y-64860000D01*
X135796501Y-64900000D02*
X137660000Y-64900000D01*
X152900000Y-50331913D02*
X151757068Y-49188981D01*
X151625000Y-64860000D02*
X152900000Y-63585000D01*
%TO.N,/SpikeAndHoldDriverAndLEDs-11/TTLInput*%
X146750000Y-79135000D02*
X146750000Y-77710000D01*
X149217064Y-75242936D02*
X149217064Y-74618986D01*
X135846501Y-79225000D02*
X138010000Y-79225000D01*
X138010000Y-79225000D02*
X138100000Y-79135000D01*
X146750000Y-77710000D02*
X149217064Y-75242936D01*
%TO.N,/SpikeAndHoldDriverAndLEDs-12/TTLInput*%
X137530000Y-93550000D02*
X137540000Y-93560000D01*
X151830000Y-75990000D02*
X151757064Y-75917064D01*
X151757064Y-75917064D02*
X151757064Y-74618991D01*
X150640000Y-93560000D02*
X151830000Y-92370000D01*
X135846501Y-93550000D02*
X137530000Y-93550000D01*
X151830000Y-92370000D02*
X151830000Y-75990000D01*
%TO.N,/SpikeAndHoldDriverAndLEDs-13/TTLInput*%
X153030000Y-73346051D02*
X153030000Y-80030000D01*
X153030000Y-80030000D02*
X152430000Y-80630000D01*
X137515000Y-107875000D02*
X137600000Y-107790000D01*
X135846501Y-107875000D02*
X137515000Y-107875000D01*
X154297064Y-72078987D02*
X153030000Y-73346051D01*
X152430000Y-80630000D02*
X152430000Y-92990000D01*
X152430000Y-92990000D02*
X148550000Y-96870000D01*
X148550000Y-96870000D02*
X148550000Y-107670000D01*
%TO.N,/SpikeAndHoldDriverAndLEDs-14/TTLInput*%
X159377064Y-72078987D02*
X160700000Y-73401923D01*
X160700000Y-76085000D02*
X156875000Y-79910000D01*
X138125000Y-122160000D02*
X139300000Y-123335000D01*
X156875000Y-94685000D02*
X153650000Y-97910000D01*
X156875000Y-79910000D02*
X156875000Y-94685000D01*
X138085000Y-122200000D02*
X138125000Y-122160000D01*
X139300000Y-123335000D02*
X139425000Y-123335000D01*
X160700000Y-73401923D02*
X160700000Y-76085000D01*
X153650000Y-121135000D02*
X151450000Y-123335000D01*
X153650000Y-97910000D02*
X153650000Y-121135000D01*
X135846501Y-122200000D02*
X138085000Y-122200000D01*
%TO.N,/SpikeAndHoldDriverAndLEDs-15/TTLInput*%
X158290000Y-81340000D02*
X158290000Y-95345000D01*
X135834998Y-136530001D02*
X137829999Y-136530001D01*
X155350000Y-98285000D02*
X155350000Y-128310000D01*
X163190000Y-76440000D02*
X158290000Y-81340000D01*
X137900000Y-136460000D02*
X137829999Y-136530001D01*
X161917064Y-72937064D02*
X163190000Y-74210000D01*
X155350000Y-128310000D02*
X152175000Y-131485000D01*
X163190000Y-74210000D02*
X163190000Y-76440000D01*
X158290000Y-95345000D02*
X155350000Y-98285000D01*
X161917064Y-72078987D02*
X161917064Y-72937064D01*
%TO.N,/SpikeAndHoldDriverAndLEDs-16/TTLInput*%
X157380000Y-99540000D02*
X157380000Y-132320000D01*
X164457064Y-73093050D02*
X165536064Y-74172050D01*
X137635000Y-150845000D02*
X137650000Y-150830000D01*
X162770000Y-94150000D02*
X157380000Y-99540000D01*
X165536064Y-74172050D02*
X165536064Y-76463936D01*
X157380000Y-132320000D02*
X150100000Y-139600000D01*
X135877500Y-150845000D02*
X137635000Y-150845000D01*
X162770000Y-79230000D02*
X162770000Y-94150000D01*
X165536064Y-76463936D02*
X162770000Y-79230000D01*
X164457064Y-72078987D02*
X164457064Y-73093050D01*
%TO.N,Net-(Q9-D)*%
X130292502Y-55799999D02*
X131610002Y-55799999D01*
X132220005Y-55802499D02*
X132850004Y-55172500D01*
X131612502Y-55802499D02*
X132220005Y-55802499D01*
X131610002Y-55799999D02*
X131612502Y-55802499D01*
%TO.N,Net-(Q10-D)*%
X130317502Y-70087499D02*
X131635002Y-70087499D01*
X132245005Y-70089999D02*
X132875004Y-69460000D01*
X131635002Y-70087499D02*
X131637502Y-70089999D01*
X131637502Y-70089999D02*
X132245005Y-70089999D01*
%TO.N,Net-(Q11-D)*%
X131685002Y-84412499D02*
X131687502Y-84414999D01*
X130367502Y-84412499D02*
X131685002Y-84412499D01*
X131687502Y-84414999D02*
X132295005Y-84414999D01*
X132295005Y-84414999D02*
X132925004Y-83785000D01*
%TO.N,Net-(Q12-D)*%
X131685002Y-98737499D02*
X131687502Y-98739999D01*
X131687502Y-98739999D02*
X132295005Y-98739999D01*
X130367502Y-98737499D02*
X131685002Y-98737499D01*
X132295005Y-98739999D02*
X132925004Y-98110000D01*
%TO.N,Net-(Q13-D)*%
X131687502Y-113064999D02*
X132295005Y-113064999D01*
X130367502Y-113062499D02*
X131685002Y-113062499D01*
X131685002Y-113062499D02*
X131687502Y-113064999D01*
X132295005Y-113064999D02*
X132925004Y-112435000D01*
%TO.N,Net-(Q14-D)*%
X132295005Y-127389999D02*
X132925004Y-126760000D01*
X130367502Y-127387499D02*
X131685002Y-127387499D01*
X131685002Y-127387499D02*
X131687502Y-127389999D01*
X131687502Y-127389999D02*
X132295005Y-127389999D01*
%TO.N,Net-(Q15-D)*%
X130355999Y-141717500D02*
X132285999Y-141717500D01*
X132285999Y-141717500D02*
X132913499Y-141090000D01*
%TO.N,Net-(Q16-D)*%
X131718501Y-156034999D02*
X132326004Y-156034999D01*
X131716001Y-156032499D02*
X131718501Y-156034999D01*
X132326004Y-156034999D02*
X132956003Y-155405000D01*
X130398501Y-156032499D02*
X131716001Y-156032499D01*
%TO.N,Net-(U9-DUTY_CYCLE_ADJ)*%
X123711503Y-54064000D02*
X123720002Y-54072499D01*
X123711503Y-51942499D02*
X123711503Y-54064000D01*
%TO.N,Net-(U9-OSC_FREQ_ADJ)*%
X123711503Y-50642499D02*
X121786503Y-50642499D01*
X121786503Y-50642499D02*
X120686503Y-51742499D01*
%TO.N,Net-(U9-STATUS_OK_FLAG)*%
X131672502Y-49490002D02*
X132830004Y-48332500D01*
X131672502Y-49981500D02*
X131672502Y-49490002D01*
X129311503Y-51292499D02*
X130361503Y-51292499D01*
X130361503Y-51292499D02*
X131672502Y-49981500D01*
%TO.N,Net-(U10-DUTY_CYCLE_ADJ)*%
X123736503Y-66229999D02*
X123736503Y-68351500D01*
X123736503Y-68351500D02*
X123745002Y-68359999D01*
%TO.N,Net-(U10-OSC_FREQ_ADJ)*%
X123736503Y-64929999D02*
X121811503Y-64929999D01*
X121811503Y-64929999D02*
X120711503Y-66029999D01*
%TO.N,Net-(U10-STATUS_OK_FLAG)*%
X129336503Y-65579999D02*
X130386503Y-65579999D01*
X131697502Y-64269000D02*
X131697502Y-63777502D01*
X131697502Y-63777502D02*
X132855004Y-62620000D01*
X130386503Y-65579999D02*
X131697502Y-64269000D01*
%TO.N,Net-(U11-DUTY_CYCLE_ADJ)*%
X123786503Y-80554999D02*
X123786503Y-82676500D01*
X123786503Y-82676500D02*
X123795002Y-82684999D01*
%TO.N,Net-(U11-OSC_FREQ_ADJ)*%
X123786503Y-79254999D02*
X121861503Y-79254999D01*
X121861503Y-79254999D02*
X120761503Y-80354999D01*
%TO.N,Net-(U11-STATUS_OK_FLAG)*%
X130436503Y-79904999D02*
X131747502Y-78594000D01*
X131747502Y-78102502D02*
X132905004Y-76945000D01*
X129386503Y-79904999D02*
X130436503Y-79904999D01*
X131747502Y-78594000D02*
X131747502Y-78102502D01*
%TO.N,Net-(U12-DUTY_CYCLE_ADJ)*%
X123786503Y-94879999D02*
X123786503Y-97001500D01*
X123786503Y-97001500D02*
X123795002Y-97009999D01*
%TO.N,Net-(U12-OSC_FREQ_ADJ)*%
X123786503Y-93579999D02*
X121861503Y-93579999D01*
X121861503Y-93579999D02*
X120761503Y-94679999D01*
%TO.N,Net-(U12-STATUS_OK_FLAG)*%
X131747502Y-92427502D02*
X132905004Y-91270000D01*
X131747502Y-92919000D02*
X131747502Y-92427502D01*
X129386503Y-94229999D02*
X130436503Y-94229999D01*
X130436503Y-94229999D02*
X131747502Y-92919000D01*
%TO.N,Net-(U13-DUTY_CYCLE_ADJ)*%
X123786503Y-109204999D02*
X123786503Y-111326500D01*
X123786503Y-111326500D02*
X123795002Y-111334999D01*
%TO.N,Net-(U13-OSC_FREQ_ADJ)*%
X121861503Y-107904999D02*
X120761503Y-109004999D01*
X123786503Y-107904999D02*
X121861503Y-107904999D01*
%TO.N,Net-(U13-STATUS_OK_FLAG)*%
X131747502Y-107244000D02*
X131747502Y-106752502D01*
X130436503Y-108554999D02*
X131747502Y-107244000D01*
X131747502Y-106752502D02*
X132905004Y-105595000D01*
X129386503Y-108554999D02*
X130436503Y-108554999D01*
%TO.N,Net-(U14-DUTY_CYCLE_ADJ)*%
X123786503Y-125651500D02*
X123795002Y-125659999D01*
X123786503Y-123529999D02*
X123786503Y-125651500D01*
%TO.N,Net-(U14-OSC_FREQ_ADJ)*%
X121861503Y-122229999D02*
X120761503Y-123329999D01*
X123786503Y-122229999D02*
X121861503Y-122229999D01*
%TO.N,Net-(U14-STATUS_OK_FLAG)*%
X131747502Y-121569000D02*
X131747502Y-121077502D01*
X130436503Y-122879999D02*
X131747502Y-121569000D01*
X129386503Y-122879999D02*
X130436503Y-122879999D01*
X131747502Y-121077502D02*
X132905004Y-119920000D01*
%TO.N,Net-(U15-DUTY_CYCLE_ADJ)*%
X123775000Y-137860000D02*
X123775000Y-139981501D01*
%TO.N,Net-(U15-OSC_FREQ_ADJ)*%
X123775000Y-136560000D02*
X121850000Y-136560000D01*
X121850000Y-136560000D02*
X120750000Y-137660000D01*
%TO.N,Net-(U15-STATUS_OK_FLAG)*%
X130425000Y-137210000D02*
X131735999Y-135899001D01*
X131735999Y-135407503D02*
X132893501Y-134250001D01*
X129375000Y-137210000D02*
X130425000Y-137210000D01*
X131735999Y-135899001D02*
X131735999Y-135407503D01*
%TO.N,Net-(U16-DUTY_CYCLE_ADJ)*%
X123817502Y-154296500D02*
X123826001Y-154304999D01*
X123817502Y-152174999D02*
X123817502Y-154296500D01*
%TO.N,Net-(U16-OSC_FREQ_ADJ)*%
X123817502Y-150874999D02*
X121892502Y-150874999D01*
X121892502Y-150874999D02*
X120792502Y-151974999D01*
%TO.N,Net-(U16-STATUS_OK_FLAG)*%
X131778501Y-150214000D02*
X131778501Y-149722502D01*
X129417502Y-151524999D02*
X130467502Y-151524999D01*
X131778501Y-149722502D02*
X132936003Y-148565000D01*
X130467502Y-151524999D02*
X131778501Y-150214000D01*
%TD*%
%TA.AperFunction,Conductor*%
%TO.N,GND*%
G36*
X126584518Y-87089684D02*
G01*
X126603522Y-87104709D01*
X127079545Y-87563422D01*
X127114159Y-87624115D01*
X127117502Y-87652712D01*
X127117502Y-91915999D01*
X127097817Y-91983038D01*
X127045013Y-92028793D01*
X126993502Y-92039999D01*
X125348864Y-92039999D01*
X125281825Y-92020314D01*
X125261183Y-92003680D01*
X125123321Y-91865818D01*
X125089836Y-91804495D01*
X125087002Y-91778145D01*
X125087002Y-91432127D01*
X125080594Y-91372516D01*
X125071573Y-91348332D01*
X125066588Y-91278643D01*
X125071569Y-91261676D01*
X125080594Y-91237482D01*
X125087003Y-91177872D01*
X125087002Y-90782127D01*
X125080594Y-90722516D01*
X125030299Y-90587668D01*
X125030298Y-90587667D01*
X125030296Y-90587663D01*
X124944050Y-90472454D01*
X124944046Y-90472450D01*
X124942184Y-90471056D01*
X124940791Y-90469195D01*
X124937779Y-90466183D01*
X124938212Y-90465749D01*
X124900317Y-90415119D01*
X124892502Y-90371795D01*
X124892502Y-87203999D01*
X124912187Y-87136960D01*
X124964991Y-87091205D01*
X125016502Y-87079999D01*
X125746140Y-87079999D01*
X125813179Y-87099684D01*
X125813570Y-87099999D01*
X125817502Y-87099999D01*
X125822755Y-87099999D01*
X125872506Y-87072833D01*
X125898864Y-87069999D01*
X126517479Y-87069999D01*
X126584518Y-87089684D01*
G37*
%TD.AperFunction*%
%TD*%
%TA.AperFunction,Conductor*%
%TO.N,GND*%
G36*
X127840541Y-65269684D02*
G01*
X127886296Y-65322488D01*
X127897502Y-65373999D01*
X127897502Y-69145999D01*
X127877817Y-69213038D01*
X127825013Y-69258793D01*
X127773502Y-69269999D01*
X125591502Y-69269999D01*
X125524463Y-69250314D01*
X125478708Y-69197510D01*
X125467502Y-69145999D01*
X125467502Y-65373999D01*
X125487187Y-65306960D01*
X125539991Y-65261205D01*
X125591502Y-65249999D01*
X127773502Y-65249999D01*
X127840541Y-65269684D01*
G37*
%TD.AperFunction*%
%TD*%
%TA.AperFunction,Conductor*%
%TO.N,/SpikeAndHoldDriverAndLEDs-11/DriveOut*%
G36*
X124185541Y-74074684D02*
G01*
X124231296Y-74127488D01*
X124242502Y-74178999D01*
X124242502Y-77180499D01*
X124222817Y-77247538D01*
X124170013Y-77293293D01*
X124118502Y-77304499D01*
X122938632Y-77304499D01*
X122938626Y-77304500D01*
X122879021Y-77310907D01*
X122860050Y-77317983D01*
X122850135Y-77321681D01*
X122806803Y-77329499D01*
X122273364Y-77329499D01*
X122206325Y-77309814D01*
X122185683Y-77293180D01*
X121287502Y-76394999D01*
X121265622Y-76394999D01*
X121252498Y-76402165D01*
X121226140Y-76404999D01*
X120211502Y-76404999D01*
X120144463Y-76385314D01*
X120098708Y-76332510D01*
X120087502Y-76280999D01*
X120087502Y-74178999D01*
X120107187Y-74111960D01*
X120159991Y-74066205D01*
X120211502Y-74054999D01*
X124118502Y-74054999D01*
X124185541Y-74074684D01*
G37*
%TD.AperFunction*%
%TD*%
%TA.AperFunction,Conductor*%
%TO.N,GND*%
G36*
X127890541Y-79594684D02*
G01*
X127936296Y-79647488D01*
X127947502Y-79698999D01*
X127947502Y-83470999D01*
X127927817Y-83538038D01*
X127875013Y-83583793D01*
X127823502Y-83594999D01*
X125641502Y-83594999D01*
X125574463Y-83575314D01*
X125528708Y-83522510D01*
X125517502Y-83470999D01*
X125517502Y-79698999D01*
X125537187Y-79631960D01*
X125589991Y-79586205D01*
X125641502Y-79574999D01*
X127823502Y-79574999D01*
X127890541Y-79594684D01*
G37*
%TD.AperFunction*%
%TD*%
%TA.AperFunction,Conductor*%
%TO.N,GND*%
G36*
X118320541Y-118239684D02*
G01*
X118366296Y-118292488D01*
X118377502Y-118343999D01*
X118377502Y-126385999D01*
X118357817Y-126453038D01*
X118305013Y-126498793D01*
X118253502Y-126509999D01*
X115751502Y-126509999D01*
X115684463Y-126490314D01*
X115638708Y-126437510D01*
X115627502Y-126385999D01*
X115627502Y-118343999D01*
X115647187Y-118276960D01*
X115699991Y-118231205D01*
X115751502Y-118219999D01*
X118253502Y-118219999D01*
X118320541Y-118239684D01*
G37*
%TD.AperFunction*%
%TD*%
%TA.AperFunction,Conductor*%
%TO.N,GND*%
G36*
X118320541Y-89589684D02*
G01*
X118366296Y-89642488D01*
X118377502Y-89693999D01*
X118377502Y-97735999D01*
X118357817Y-97803038D01*
X118305013Y-97848793D01*
X118253502Y-97859999D01*
X115751502Y-97859999D01*
X115684463Y-97840314D01*
X115638708Y-97787510D01*
X115627502Y-97735999D01*
X115627502Y-89693999D01*
X115647187Y-89626960D01*
X115699991Y-89581205D01*
X115751502Y-89569999D01*
X118253502Y-89569999D01*
X118320541Y-89589684D01*
G37*
%TD.AperFunction*%
%TD*%
%TA.AperFunction,Conductor*%
%TO.N,/SpikeAndHoldDriverAndLEDs-15/DriveOut*%
G36*
X124174038Y-131379685D02*
G01*
X124219793Y-131432489D01*
X124230999Y-131484000D01*
X124230999Y-134485500D01*
X124211314Y-134552539D01*
X124158510Y-134598294D01*
X124106999Y-134609500D01*
X122927129Y-134609500D01*
X122927123Y-134609501D01*
X122867518Y-134615908D01*
X122848547Y-134622984D01*
X122838632Y-134626682D01*
X122795300Y-134634500D01*
X122261861Y-134634500D01*
X122194822Y-134614815D01*
X122174180Y-134598181D01*
X121275999Y-133700000D01*
X121254119Y-133700000D01*
X121240995Y-133707166D01*
X121214637Y-133710000D01*
X120199999Y-133710000D01*
X120132960Y-133690315D01*
X120087205Y-133637511D01*
X120075999Y-133586000D01*
X120075999Y-131484000D01*
X120095684Y-131416961D01*
X120148488Y-131371206D01*
X120199999Y-131360000D01*
X124106999Y-131360000D01*
X124174038Y-131379685D01*
G37*
%TD.AperFunction*%
%TD*%
%TA.AperFunction,Conductor*%
%TO.N,GND*%
G36*
X127921540Y-151214684D02*
G01*
X127967295Y-151267488D01*
X127978501Y-151318999D01*
X127978501Y-155090999D01*
X127958816Y-155158038D01*
X127906012Y-155203793D01*
X127854501Y-155214999D01*
X125672501Y-155214999D01*
X125605462Y-155195314D01*
X125559707Y-155142510D01*
X125548501Y-155090999D01*
X125548501Y-151318999D01*
X125568186Y-151251960D01*
X125620990Y-151206205D01*
X125672501Y-151194999D01*
X127854501Y-151194999D01*
X127921540Y-151214684D01*
G37*
%TD.AperFunction*%
%TD*%
%TA.AperFunction,Conductor*%
%TO.N,GND*%
G36*
X127815541Y-50982184D02*
G01*
X127861296Y-51034988D01*
X127872502Y-51086499D01*
X127872502Y-54858499D01*
X127852817Y-54925538D01*
X127800013Y-54971293D01*
X127748502Y-54982499D01*
X125566502Y-54982499D01*
X125499463Y-54962814D01*
X125453708Y-54910010D01*
X125442502Y-54858499D01*
X125442502Y-51086499D01*
X125462187Y-51019460D01*
X125514991Y-50973705D01*
X125566502Y-50962499D01*
X127748502Y-50962499D01*
X127815541Y-50982184D01*
G37*
%TD.AperFunction*%
%TD*%
%TA.AperFunction,Conductor*%
%TO.N,+12V*%
G36*
X130904473Y-43004880D02*
G01*
X130944848Y-43012911D01*
X130989545Y-43031426D01*
X131013415Y-43047376D01*
X131047624Y-43081585D01*
X131063574Y-43105455D01*
X131082090Y-43150154D01*
X131090119Y-43190521D01*
X131092502Y-43214709D01*
X131092502Y-46415851D01*
X131072817Y-46482890D01*
X131020013Y-46528645D01*
X130994284Y-46537141D01*
X130962698Y-46543855D01*
X130962694Y-46543856D01*
X130789772Y-46620847D01*
X130789767Y-46620850D01*
X130636631Y-46732110D01*
X130509968Y-46872784D01*
X130415323Y-47036714D01*
X130415320Y-47036721D01*
X130356829Y-47216739D01*
X130356828Y-47216743D01*
X130337042Y-47404999D01*
X130356828Y-47593255D01*
X130356829Y-47593258D01*
X130415320Y-47773276D01*
X130415323Y-47773283D01*
X130509969Y-47937215D01*
X130636631Y-48077887D01*
X130789767Y-48189147D01*
X130789772Y-48189150D01*
X130962699Y-48266143D01*
X130994285Y-48272856D01*
X131055764Y-48306048D01*
X131089541Y-48367210D01*
X131092502Y-48394146D01*
X131092502Y-49231069D01*
X131083064Y-49278517D01*
X131071039Y-49307550D01*
X131071037Y-49307556D01*
X131065998Y-49332887D01*
X131065999Y-49332888D01*
X131053172Y-49397376D01*
X131020787Y-49459288D01*
X131000446Y-49476287D01*
X130989545Y-49483571D01*
X130944846Y-49502087D01*
X130928343Y-49505369D01*
X130904480Y-49510116D01*
X130880291Y-49512499D01*
X130547117Y-49512499D01*
X130480078Y-49492814D01*
X130472806Y-49487765D01*
X130353838Y-49398705D01*
X130353831Y-49398701D01*
X130218985Y-49348407D01*
X130218986Y-49348407D01*
X130159386Y-49342000D01*
X130159384Y-49341999D01*
X130159376Y-49341999D01*
X130159368Y-49341999D01*
X128836002Y-49341999D01*
X128768963Y-49322314D01*
X128723208Y-49269510D01*
X128712002Y-49217999D01*
X128712002Y-47444628D01*
X128712001Y-47444622D01*
X128705594Y-47385015D01*
X128655300Y-47250170D01*
X128655296Y-47250163D01*
X128569050Y-47134954D01*
X128569047Y-47134951D01*
X128453838Y-47048705D01*
X128453831Y-47048701D01*
X128318985Y-46998407D01*
X128318986Y-46998407D01*
X128259386Y-46992000D01*
X128259384Y-46991999D01*
X128259376Y-46991999D01*
X128259368Y-46991999D01*
X127866502Y-46991999D01*
X127799463Y-46972314D01*
X127753708Y-46919510D01*
X127742502Y-46867999D01*
X127742502Y-44212498D01*
X127742502Y-44012499D01*
X127542506Y-44012499D01*
X127146495Y-44012499D01*
X127079456Y-43992814D01*
X127060452Y-43977789D01*
X126983031Y-43903183D01*
X126879285Y-43803210D01*
X126842033Y-43770673D01*
X126842025Y-43770666D01*
X126842019Y-43770662D01*
X126839594Y-43768744D01*
X126799216Y-43711724D01*
X126792502Y-43671476D01*
X126792502Y-43227596D01*
X126796696Y-43195620D01*
X126810567Y-43143649D01*
X126842435Y-43088201D01*
X126868494Y-43061989D01*
X126923751Y-43029797D01*
X126975648Y-43015620D01*
X127007589Y-43011240D01*
X128501917Y-43002502D01*
X128501917Y-43002524D01*
X128502502Y-43002503D01*
X128502502Y-43002500D01*
X128503087Y-43002499D01*
X130880291Y-43002499D01*
X130904473Y-43004880D01*
G37*
%TD.AperFunction*%
%TD*%
%TA.AperFunction,Conductor*%
%TO.N,+12V*%
G36*
X130929473Y-57292380D02*
G01*
X130969848Y-57300411D01*
X131014545Y-57318926D01*
X131038415Y-57334876D01*
X131072624Y-57369085D01*
X131088574Y-57392955D01*
X131107090Y-57437654D01*
X131115119Y-57478021D01*
X131117502Y-57502209D01*
X131117502Y-60703351D01*
X131097817Y-60770390D01*
X131045013Y-60816145D01*
X131019284Y-60824641D01*
X130987698Y-60831355D01*
X130987694Y-60831356D01*
X130814772Y-60908347D01*
X130814767Y-60908350D01*
X130661631Y-61019610D01*
X130534968Y-61160284D01*
X130440323Y-61324214D01*
X130440320Y-61324221D01*
X130381829Y-61504239D01*
X130381828Y-61504243D01*
X130362042Y-61692499D01*
X130381828Y-61880755D01*
X130381829Y-61880758D01*
X130440320Y-62060776D01*
X130440323Y-62060783D01*
X130534969Y-62224715D01*
X130661631Y-62365387D01*
X130814767Y-62476647D01*
X130814772Y-62476650D01*
X130987699Y-62553643D01*
X131019285Y-62560356D01*
X131080764Y-62593548D01*
X131114541Y-62654710D01*
X131117502Y-62681646D01*
X131117502Y-63518568D01*
X131108064Y-63566020D01*
X131096038Y-63595051D01*
X131096037Y-63595056D01*
X131089186Y-63629501D01*
X131078171Y-63684877D01*
X131045787Y-63746788D01*
X131025446Y-63763787D01*
X131014545Y-63771071D01*
X130969846Y-63789587D01*
X130953343Y-63792869D01*
X130929480Y-63797616D01*
X130905291Y-63799999D01*
X130572117Y-63799999D01*
X130505078Y-63780314D01*
X130497806Y-63775265D01*
X130378838Y-63686205D01*
X130378831Y-63686201D01*
X130243985Y-63635907D01*
X130243986Y-63635907D01*
X130184386Y-63629500D01*
X130184384Y-63629499D01*
X130184376Y-63629499D01*
X130184368Y-63629499D01*
X128861002Y-63629499D01*
X128793963Y-63609814D01*
X128748208Y-63557010D01*
X128737002Y-63505499D01*
X128737002Y-61732128D01*
X128737001Y-61732122D01*
X128730594Y-61672515D01*
X128680300Y-61537670D01*
X128680296Y-61537663D01*
X128594050Y-61422454D01*
X128594047Y-61422451D01*
X128478838Y-61336205D01*
X128478831Y-61336201D01*
X128343985Y-61285907D01*
X128343986Y-61285907D01*
X128284386Y-61279500D01*
X128284384Y-61279499D01*
X128284376Y-61279499D01*
X128284368Y-61279499D01*
X127891502Y-61279499D01*
X127824463Y-61259814D01*
X127778708Y-61207010D01*
X127767502Y-61155499D01*
X127767502Y-58499998D01*
X127767502Y-58299999D01*
X127567506Y-58299999D01*
X127171495Y-58299999D01*
X127104456Y-58280314D01*
X127085452Y-58265289D01*
X127008031Y-58190683D01*
X126904285Y-58090710D01*
X126867033Y-58058173D01*
X126867025Y-58058166D01*
X126867019Y-58058162D01*
X126864594Y-58056244D01*
X126824216Y-57999224D01*
X126817502Y-57958976D01*
X126817502Y-57515096D01*
X126821696Y-57483120D01*
X126835567Y-57431149D01*
X126867435Y-57375701D01*
X126893494Y-57349489D01*
X126948751Y-57317297D01*
X127000648Y-57303120D01*
X127032589Y-57298740D01*
X128526917Y-57290002D01*
X128526917Y-57290024D01*
X128527502Y-57290003D01*
X128527502Y-57290000D01*
X128528087Y-57289999D01*
X130905291Y-57289999D01*
X130929473Y-57292380D01*
G37*
%TD.AperFunction*%
%TD*%
%TA.AperFunction,Conductor*%
%TO.N,+12V*%
G36*
X130979473Y-100267380D02*
G01*
X131019848Y-100275411D01*
X131064545Y-100293926D01*
X131088415Y-100309876D01*
X131122624Y-100344085D01*
X131138574Y-100367955D01*
X131157090Y-100412654D01*
X131165119Y-100453021D01*
X131167502Y-100477209D01*
X131167502Y-103680493D01*
X131147817Y-103747532D01*
X131095013Y-103793287D01*
X131069284Y-103801783D01*
X131037698Y-103808497D01*
X131037694Y-103808498D01*
X130864772Y-103885489D01*
X130864767Y-103885492D01*
X130711631Y-103996752D01*
X130584968Y-104137426D01*
X130490323Y-104301356D01*
X130490320Y-104301363D01*
X130431829Y-104481381D01*
X130431828Y-104481385D01*
X130412042Y-104669641D01*
X130431828Y-104857897D01*
X130431829Y-104857900D01*
X130490320Y-105037918D01*
X130490323Y-105037925D01*
X130584969Y-105201857D01*
X130672180Y-105298714D01*
X130711631Y-105342529D01*
X130864767Y-105453789D01*
X130864772Y-105453792D01*
X131037699Y-105530785D01*
X131069285Y-105537498D01*
X131130764Y-105570690D01*
X131164541Y-105631852D01*
X131167502Y-105658788D01*
X131167502Y-106493568D01*
X131158063Y-106541021D01*
X131146041Y-106570043D01*
X131146037Y-106570054D01*
X131139186Y-106604501D01*
X131128171Y-106659877D01*
X131095787Y-106721788D01*
X131075446Y-106738787D01*
X131064545Y-106746071D01*
X131019846Y-106764587D01*
X131003343Y-106767869D01*
X130979480Y-106772616D01*
X130955291Y-106774999D01*
X130622117Y-106774999D01*
X130555078Y-106755314D01*
X130547806Y-106750265D01*
X130428838Y-106661205D01*
X130428831Y-106661201D01*
X130293985Y-106610907D01*
X130293986Y-106610907D01*
X130234386Y-106604500D01*
X130234384Y-106604499D01*
X130234376Y-106604499D01*
X130234368Y-106604499D01*
X128911002Y-106604499D01*
X128843963Y-106584814D01*
X128798208Y-106532010D01*
X128787002Y-106480499D01*
X128787002Y-104707128D01*
X128787001Y-104707122D01*
X128780594Y-104647515D01*
X128730300Y-104512670D01*
X128730296Y-104512663D01*
X128644050Y-104397454D01*
X128644047Y-104397451D01*
X128528838Y-104311205D01*
X128528831Y-104311201D01*
X128393985Y-104260907D01*
X128393986Y-104260907D01*
X128334386Y-104254500D01*
X128334384Y-104254499D01*
X128334376Y-104254499D01*
X128334368Y-104254499D01*
X127941502Y-104254499D01*
X127874463Y-104234814D01*
X127828708Y-104182010D01*
X127817502Y-104130499D01*
X127817502Y-101474998D01*
X127817502Y-101274999D01*
X127617506Y-101274999D01*
X127221495Y-101274999D01*
X127154456Y-101255314D01*
X127135452Y-101240289D01*
X127058031Y-101165683D01*
X126954285Y-101065710D01*
X126917033Y-101033173D01*
X126917025Y-101033166D01*
X126917019Y-101033162D01*
X126914594Y-101031244D01*
X126874216Y-100974224D01*
X126867502Y-100933976D01*
X126867502Y-100490096D01*
X126871696Y-100458120D01*
X126885567Y-100406149D01*
X126917435Y-100350701D01*
X126943494Y-100324489D01*
X126998751Y-100292297D01*
X127050648Y-100278120D01*
X127082589Y-100273740D01*
X128576917Y-100265002D01*
X128576917Y-100265024D01*
X128577502Y-100265003D01*
X128577502Y-100265000D01*
X128578087Y-100264999D01*
X130955291Y-100264999D01*
X130979473Y-100267380D01*
G37*
%TD.AperFunction*%
%TD*%
%TA.AperFunction,Conductor*%
%TO.N,GND*%
G36*
X127890541Y-108244684D02*
G01*
X127936296Y-108297488D01*
X127947502Y-108348999D01*
X127947502Y-112120999D01*
X127927817Y-112188038D01*
X127875013Y-112233793D01*
X127823502Y-112244999D01*
X125641502Y-112244999D01*
X125574463Y-112225314D01*
X125528708Y-112172510D01*
X125517502Y-112120999D01*
X125517502Y-108348999D01*
X125537187Y-108281960D01*
X125589991Y-108236205D01*
X125641502Y-108224999D01*
X127823502Y-108224999D01*
X127890541Y-108244684D01*
G37*
%TD.AperFunction*%
%TD*%
%TA.AperFunction,Conductor*%
%TO.N,/SpikeAndHoldDriverAndLEDs-9/DriveOut*%
G36*
X124110541Y-45462184D02*
G01*
X124156296Y-45514988D01*
X124167502Y-45566499D01*
X124167502Y-48567999D01*
X124147817Y-48635038D01*
X124095013Y-48680793D01*
X124043502Y-48691999D01*
X122863632Y-48691999D01*
X122863626Y-48692000D01*
X122804021Y-48698407D01*
X122785050Y-48705483D01*
X122775135Y-48709181D01*
X122731803Y-48716999D01*
X122198364Y-48716999D01*
X122131325Y-48697314D01*
X122110683Y-48680680D01*
X121212502Y-47782499D01*
X121190622Y-47782499D01*
X121177498Y-47789665D01*
X121151140Y-47792499D01*
X120136502Y-47792499D01*
X120069463Y-47772814D01*
X120023708Y-47720010D01*
X120012502Y-47668499D01*
X120012502Y-45566499D01*
X120032187Y-45499460D01*
X120084991Y-45453705D01*
X120136502Y-45442499D01*
X124043502Y-45442499D01*
X124110541Y-45462184D01*
G37*
%TD.AperFunction*%
%TD*%
%TA.AperFunction,Conductor*%
%TO.N,GND*%
G36*
X126584518Y-72764684D02*
G01*
X126603522Y-72779709D01*
X127079545Y-73238422D01*
X127114159Y-73299115D01*
X127117502Y-73327712D01*
X127117502Y-77590999D01*
X127097817Y-77658038D01*
X127045013Y-77703793D01*
X126993502Y-77714999D01*
X125348864Y-77714999D01*
X125281825Y-77695314D01*
X125261183Y-77678680D01*
X125123321Y-77540818D01*
X125089836Y-77479495D01*
X125087002Y-77453145D01*
X125087002Y-77107127D01*
X125080594Y-77047516D01*
X125071573Y-77023332D01*
X125066588Y-76953643D01*
X125071569Y-76936676D01*
X125080594Y-76912482D01*
X125087003Y-76852872D01*
X125087002Y-76457127D01*
X125080594Y-76397516D01*
X125030299Y-76262668D01*
X125030298Y-76262667D01*
X125030296Y-76262663D01*
X124944050Y-76147454D01*
X124944046Y-76147450D01*
X124942184Y-76146056D01*
X124940791Y-76144195D01*
X124937779Y-76141183D01*
X124938212Y-76140749D01*
X124900317Y-76090119D01*
X124892502Y-76046795D01*
X124892502Y-72878999D01*
X124912187Y-72811960D01*
X124964991Y-72766205D01*
X125016502Y-72754999D01*
X125746140Y-72754999D01*
X125813179Y-72774684D01*
X125813570Y-72774999D01*
X125817502Y-72774999D01*
X125822755Y-72774999D01*
X125872506Y-72747833D01*
X125898864Y-72744999D01*
X126517479Y-72744999D01*
X126584518Y-72764684D01*
G37*
%TD.AperFunction*%
%TD*%
%TA.AperFunction,Conductor*%
%TO.N,+12V*%
G36*
X131010472Y-143237380D02*
G01*
X131050847Y-143245411D01*
X131095544Y-143263926D01*
X131119414Y-143279876D01*
X131153623Y-143314085D01*
X131169573Y-143337955D01*
X131188089Y-143382654D01*
X131196118Y-143423021D01*
X131198501Y-143447209D01*
X131198501Y-146655297D01*
X131178816Y-146722336D01*
X131126012Y-146768091D01*
X131100283Y-146776587D01*
X131057698Y-146785639D01*
X131057694Y-146785640D01*
X130884772Y-146862631D01*
X130884767Y-146862634D01*
X130731631Y-146973894D01*
X130604968Y-147114568D01*
X130510323Y-147278498D01*
X130510320Y-147278505D01*
X130451829Y-147458523D01*
X130451828Y-147458527D01*
X130432042Y-147646783D01*
X130451828Y-147835039D01*
X130451829Y-147835042D01*
X130510320Y-148015060D01*
X130510323Y-148015067D01*
X130604969Y-148178999D01*
X130685749Y-148268714D01*
X130731631Y-148319671D01*
X130884767Y-148430931D01*
X130884772Y-148430934D01*
X131057693Y-148507925D01*
X131057695Y-148507925D01*
X131057699Y-148507927D01*
X131100284Y-148516978D01*
X131161763Y-148550170D01*
X131195540Y-148611332D01*
X131198501Y-148638268D01*
X131198501Y-149463568D01*
X131189063Y-149511020D01*
X131177037Y-149540051D01*
X131177036Y-149540056D01*
X131170185Y-149574501D01*
X131159170Y-149629877D01*
X131126786Y-149691788D01*
X131106445Y-149708787D01*
X131095544Y-149716071D01*
X131050845Y-149734587D01*
X131034342Y-149737869D01*
X131010479Y-149742616D01*
X130986290Y-149744999D01*
X130653116Y-149744999D01*
X130586077Y-149725314D01*
X130578805Y-149720265D01*
X130459837Y-149631205D01*
X130459830Y-149631201D01*
X130324984Y-149580907D01*
X130324985Y-149580907D01*
X130265385Y-149574500D01*
X130265383Y-149574499D01*
X130265375Y-149574499D01*
X130265367Y-149574499D01*
X128942001Y-149574499D01*
X128874962Y-149554814D01*
X128829207Y-149502010D01*
X128818001Y-149450499D01*
X128818001Y-147677128D01*
X128818000Y-147677122D01*
X128811593Y-147617515D01*
X128761299Y-147482670D01*
X128761295Y-147482663D01*
X128675049Y-147367454D01*
X128675046Y-147367451D01*
X128559837Y-147281205D01*
X128559830Y-147281201D01*
X128424984Y-147230907D01*
X128424985Y-147230907D01*
X128365385Y-147224500D01*
X128365383Y-147224499D01*
X128365375Y-147224499D01*
X128365367Y-147224499D01*
X127972501Y-147224499D01*
X127905462Y-147204814D01*
X127859707Y-147152010D01*
X127848501Y-147100499D01*
X127848501Y-144444998D01*
X127848501Y-144244999D01*
X127648505Y-144244999D01*
X127252494Y-144244999D01*
X127185455Y-144225314D01*
X127166451Y-144210289D01*
X127089030Y-144135683D01*
X126985284Y-144035710D01*
X126948032Y-144003173D01*
X126948024Y-144003166D01*
X126948018Y-144003162D01*
X126945593Y-144001244D01*
X126905215Y-143944224D01*
X126898501Y-143903976D01*
X126898501Y-143460096D01*
X126902695Y-143428120D01*
X126916566Y-143376149D01*
X126948434Y-143320701D01*
X126974493Y-143294489D01*
X127029750Y-143262297D01*
X127081647Y-143248120D01*
X127113588Y-143243740D01*
X128607916Y-143235002D01*
X128607916Y-143235024D01*
X128608501Y-143235003D01*
X128608501Y-143235000D01*
X128609086Y-143234999D01*
X130986290Y-143234999D01*
X131010472Y-143237380D01*
G37*
%TD.AperFunction*%
%TD*%
%TA.AperFunction,Conductor*%
%TO.N,+12V*%
G36*
X130967970Y-128922381D02*
G01*
X131008345Y-128930412D01*
X131053042Y-128948927D01*
X131076912Y-128964877D01*
X131111121Y-128999086D01*
X131127071Y-129022956D01*
X131145587Y-129067655D01*
X131153616Y-129108022D01*
X131155999Y-129132210D01*
X131155999Y-132334366D01*
X131136314Y-132401405D01*
X131083510Y-132447160D01*
X131057782Y-132455656D01*
X131037696Y-132459925D01*
X131037694Y-132459926D01*
X130864772Y-132536917D01*
X130864767Y-132536920D01*
X130711631Y-132648180D01*
X130584968Y-132788854D01*
X130490323Y-132952784D01*
X130490320Y-132952791D01*
X130431829Y-133132809D01*
X130431828Y-133132813D01*
X130412042Y-133321069D01*
X130431828Y-133509325D01*
X130431829Y-133509328D01*
X130490320Y-133689346D01*
X130490323Y-133689353D01*
X130584969Y-133853285D01*
X130675397Y-133953715D01*
X130711631Y-133993957D01*
X130864767Y-134105217D01*
X130864772Y-134105220D01*
X131037693Y-134182211D01*
X131037695Y-134182211D01*
X131037699Y-134182213D01*
X131057780Y-134186481D01*
X131119261Y-134219672D01*
X131153038Y-134280835D01*
X131155999Y-134307771D01*
X131155999Y-135148569D01*
X131146560Y-135196022D01*
X131134538Y-135225044D01*
X131134534Y-135225055D01*
X131130147Y-135247114D01*
X131116668Y-135314878D01*
X131084284Y-135376789D01*
X131063943Y-135393788D01*
X131053042Y-135401072D01*
X131008343Y-135419588D01*
X130991840Y-135422870D01*
X130967977Y-135427617D01*
X130943788Y-135430000D01*
X130610614Y-135430000D01*
X130543575Y-135410315D01*
X130536303Y-135405266D01*
X130417335Y-135316206D01*
X130417328Y-135316202D01*
X130282482Y-135265908D01*
X130282483Y-135265908D01*
X130222883Y-135259501D01*
X130222881Y-135259500D01*
X130222873Y-135259500D01*
X130222865Y-135259500D01*
X128899499Y-135259500D01*
X128832460Y-135239815D01*
X128786705Y-135187011D01*
X128775499Y-135135500D01*
X128775499Y-133362129D01*
X128775498Y-133362123D01*
X128769091Y-133302516D01*
X128718797Y-133167671D01*
X128718793Y-133167664D01*
X128632547Y-133052455D01*
X128632544Y-133052452D01*
X128517335Y-132966206D01*
X128517328Y-132966202D01*
X128382482Y-132915908D01*
X128382483Y-132915908D01*
X128322883Y-132909501D01*
X128322881Y-132909500D01*
X128322873Y-132909500D01*
X128322865Y-132909500D01*
X127929999Y-132909500D01*
X127862960Y-132889815D01*
X127817205Y-132837011D01*
X127805999Y-132785500D01*
X127805999Y-130129999D01*
X127805999Y-129930000D01*
X127606003Y-129930000D01*
X127209992Y-129930000D01*
X127142953Y-129910315D01*
X127123949Y-129895290D01*
X127046528Y-129820684D01*
X126942782Y-129720711D01*
X126905530Y-129688174D01*
X126905522Y-129688167D01*
X126905516Y-129688163D01*
X126903091Y-129686245D01*
X126862713Y-129629225D01*
X126855999Y-129588977D01*
X126855999Y-129145097D01*
X126860193Y-129113121D01*
X126874064Y-129061150D01*
X126905932Y-129005702D01*
X126931991Y-128979490D01*
X126987248Y-128947298D01*
X127039145Y-128933121D01*
X127071086Y-128928741D01*
X128565414Y-128920003D01*
X128565414Y-128920025D01*
X128565999Y-128920004D01*
X128565999Y-128920001D01*
X128566584Y-128920000D01*
X130943788Y-128920000D01*
X130967970Y-128922381D01*
G37*
%TD.AperFunction*%
%TD*%
%TA.AperFunction,Conductor*%
%TO.N,GND*%
G36*
X126573015Y-130069685D02*
G01*
X126592019Y-130084710D01*
X127068042Y-130543423D01*
X127102656Y-130604116D01*
X127105999Y-130632713D01*
X127105999Y-134896000D01*
X127086314Y-134963039D01*
X127033510Y-135008794D01*
X126981999Y-135020000D01*
X125337361Y-135020000D01*
X125270322Y-135000315D01*
X125249680Y-134983681D01*
X125111818Y-134845819D01*
X125078333Y-134784496D01*
X125075499Y-134758146D01*
X125075499Y-134412128D01*
X125069091Y-134352517D01*
X125060070Y-134328333D01*
X125055085Y-134258644D01*
X125060066Y-134241677D01*
X125069091Y-134217483D01*
X125075500Y-134157873D01*
X125075499Y-133762128D01*
X125069091Y-133702517D01*
X125018796Y-133567669D01*
X125018795Y-133567668D01*
X125018793Y-133567664D01*
X124932547Y-133452455D01*
X124932543Y-133452451D01*
X124930681Y-133451057D01*
X124929288Y-133449196D01*
X124926276Y-133446184D01*
X124926709Y-133445750D01*
X124888814Y-133395120D01*
X124880999Y-133351796D01*
X124880999Y-130184000D01*
X124900684Y-130116961D01*
X124953488Y-130071206D01*
X125004999Y-130060000D01*
X125734637Y-130060000D01*
X125801676Y-130079685D01*
X125802067Y-130080000D01*
X125805999Y-130080000D01*
X125811252Y-130080000D01*
X125861003Y-130052834D01*
X125887361Y-130050000D01*
X126505976Y-130050000D01*
X126573015Y-130069685D01*
G37*
%TD.AperFunction*%
%TD*%
%TA.AperFunction,Conductor*%
%TO.N,/SpikeAndHoldDriverAndLEDs-16/DriveOut*%
G36*
X124216540Y-145694684D02*
G01*
X124262295Y-145747488D01*
X124273501Y-145798999D01*
X124273501Y-148800499D01*
X124253816Y-148867538D01*
X124201012Y-148913293D01*
X124149501Y-148924499D01*
X122969631Y-148924499D01*
X122969625Y-148924500D01*
X122910020Y-148930907D01*
X122891049Y-148937983D01*
X122881134Y-148941681D01*
X122837802Y-148949499D01*
X122304363Y-148949499D01*
X122237324Y-148929814D01*
X122216682Y-148913180D01*
X121318501Y-148014999D01*
X121296621Y-148014999D01*
X121283497Y-148022165D01*
X121257139Y-148024999D01*
X120242501Y-148024999D01*
X120175462Y-148005314D01*
X120129707Y-147952510D01*
X120118501Y-147900999D01*
X120118501Y-145798999D01*
X120138186Y-145731960D01*
X120190990Y-145686205D01*
X120242501Y-145674999D01*
X124149501Y-145674999D01*
X124216540Y-145694684D01*
G37*
%TD.AperFunction*%
%TD*%
%TA.AperFunction,Conductor*%
%TO.N,/SpikeAndHoldDriverAndLEDs-12/DriveOut*%
G36*
X124185541Y-88399684D02*
G01*
X124231296Y-88452488D01*
X124242502Y-88503999D01*
X124242502Y-91505499D01*
X124222817Y-91572538D01*
X124170013Y-91618293D01*
X124118502Y-91629499D01*
X122938632Y-91629499D01*
X122938626Y-91629500D01*
X122879021Y-91635907D01*
X122860050Y-91642983D01*
X122850135Y-91646681D01*
X122806803Y-91654499D01*
X122273364Y-91654499D01*
X122206325Y-91634814D01*
X122185683Y-91618180D01*
X121287502Y-90719999D01*
X121265622Y-90719999D01*
X121252498Y-90727165D01*
X121226140Y-90729999D01*
X120211502Y-90729999D01*
X120144463Y-90710314D01*
X120098708Y-90657510D01*
X120087502Y-90605999D01*
X120087502Y-88503999D01*
X120107187Y-88436960D01*
X120159991Y-88391205D01*
X120211502Y-88379999D01*
X124118502Y-88379999D01*
X124185541Y-88399684D01*
G37*
%TD.AperFunction*%
%TD*%
%TA.AperFunction,Conductor*%
%TO.N,+12V*%
G36*
X130979473Y-85942380D02*
G01*
X131019848Y-85950411D01*
X131064545Y-85968926D01*
X131088415Y-85984876D01*
X131122624Y-86019085D01*
X131138574Y-86042955D01*
X131157090Y-86087654D01*
X131165119Y-86128021D01*
X131167502Y-86152209D01*
X131167502Y-89354779D01*
X131147817Y-89421818D01*
X131095013Y-89467573D01*
X131069284Y-89476069D01*
X131037698Y-89482783D01*
X131037694Y-89482784D01*
X130864772Y-89559775D01*
X130864767Y-89559778D01*
X130711631Y-89671038D01*
X130584968Y-89811712D01*
X130490323Y-89975642D01*
X130490320Y-89975649D01*
X130431829Y-90155667D01*
X130431828Y-90155671D01*
X130412042Y-90343927D01*
X130431828Y-90532183D01*
X130431829Y-90532186D01*
X130490320Y-90712204D01*
X130490323Y-90712211D01*
X130584969Y-90876143D01*
X130672823Y-90973714D01*
X130711631Y-91016815D01*
X130864767Y-91128075D01*
X130864772Y-91128078D01*
X131037699Y-91205071D01*
X131069285Y-91211784D01*
X131130764Y-91244976D01*
X131164541Y-91306138D01*
X131167502Y-91333074D01*
X131167502Y-92168568D01*
X131158064Y-92216020D01*
X131146038Y-92245051D01*
X131146037Y-92245056D01*
X131139186Y-92279501D01*
X131128171Y-92334877D01*
X131095787Y-92396788D01*
X131075446Y-92413787D01*
X131064545Y-92421071D01*
X131019846Y-92439587D01*
X131003343Y-92442869D01*
X130979480Y-92447616D01*
X130955291Y-92449999D01*
X130622117Y-92449999D01*
X130555078Y-92430314D01*
X130547806Y-92425265D01*
X130428838Y-92336205D01*
X130428831Y-92336201D01*
X130293985Y-92285907D01*
X130293986Y-92285907D01*
X130234386Y-92279500D01*
X130234384Y-92279499D01*
X130234376Y-92279499D01*
X130234368Y-92279499D01*
X128911002Y-92279499D01*
X128843963Y-92259814D01*
X128798208Y-92207010D01*
X128787002Y-92155499D01*
X128787002Y-90382128D01*
X128787001Y-90382122D01*
X128780594Y-90322515D01*
X128730300Y-90187670D01*
X128730296Y-90187663D01*
X128644050Y-90072454D01*
X128644047Y-90072451D01*
X128528838Y-89986205D01*
X128528831Y-89986201D01*
X128393985Y-89935907D01*
X128393986Y-89935907D01*
X128334386Y-89929500D01*
X128334384Y-89929499D01*
X128334376Y-89929499D01*
X128334368Y-89929499D01*
X127941502Y-89929499D01*
X127874463Y-89909814D01*
X127828708Y-89857010D01*
X127817502Y-89805499D01*
X127817502Y-87149998D01*
X127817502Y-86949999D01*
X127617506Y-86949999D01*
X127221495Y-86949999D01*
X127154456Y-86930314D01*
X127135452Y-86915289D01*
X127058031Y-86840683D01*
X126954285Y-86740710D01*
X126917033Y-86708173D01*
X126917025Y-86708166D01*
X126917019Y-86708162D01*
X126914594Y-86706244D01*
X126874216Y-86649224D01*
X126867502Y-86608976D01*
X126867502Y-86165096D01*
X126871696Y-86133120D01*
X126885567Y-86081149D01*
X126917435Y-86025701D01*
X126943494Y-85999489D01*
X126998751Y-85967297D01*
X127050648Y-85953120D01*
X127082589Y-85948740D01*
X128576917Y-85940002D01*
X128576917Y-85940024D01*
X128577502Y-85940003D01*
X128577502Y-85940000D01*
X128578087Y-85939999D01*
X130955291Y-85939999D01*
X130979473Y-85942380D01*
G37*
%TD.AperFunction*%
%TD*%
%TA.AperFunction,Conductor*%
%TO.N,GND*%
G36*
X118320541Y-103914684D02*
G01*
X118366296Y-103967488D01*
X118377502Y-104018999D01*
X118377502Y-112060999D01*
X118357817Y-112128038D01*
X118305013Y-112173793D01*
X118253502Y-112184999D01*
X115751502Y-112184999D01*
X115684463Y-112165314D01*
X115638708Y-112112510D01*
X115627502Y-112060999D01*
X115627502Y-104018999D01*
X115647187Y-103951960D01*
X115699991Y-103906205D01*
X115751502Y-103894999D01*
X118253502Y-103894999D01*
X118320541Y-103914684D01*
G37*
%TD.AperFunction*%
%TD*%
%TA.AperFunction,Conductor*%
%TO.N,GND*%
G36*
X127879038Y-136899685D02*
G01*
X127924793Y-136952489D01*
X127935999Y-137004000D01*
X127935999Y-140776000D01*
X127916314Y-140843039D01*
X127863510Y-140888794D01*
X127811999Y-140900000D01*
X125629999Y-140900000D01*
X125562960Y-140880315D01*
X125517205Y-140827511D01*
X125505999Y-140776000D01*
X125505999Y-137004000D01*
X125525684Y-136936961D01*
X125578488Y-136891206D01*
X125629999Y-136880000D01*
X127811999Y-136880000D01*
X127879038Y-136899685D01*
G37*
%TD.AperFunction*%
%TD*%
%TA.AperFunction,Conductor*%
%TO.N,/SpikeAndHoldDriverAndLEDs-14/DriveOut*%
G36*
X124185541Y-117049684D02*
G01*
X124231296Y-117102488D01*
X124242502Y-117153999D01*
X124242502Y-120155499D01*
X124222817Y-120222538D01*
X124170013Y-120268293D01*
X124118502Y-120279499D01*
X122938632Y-120279499D01*
X122938626Y-120279500D01*
X122879021Y-120285907D01*
X122860050Y-120292983D01*
X122850135Y-120296681D01*
X122806803Y-120304499D01*
X122273364Y-120304499D01*
X122206325Y-120284814D01*
X122185683Y-120268180D01*
X121287502Y-119369999D01*
X121265622Y-119369999D01*
X121252498Y-119377165D01*
X121226140Y-119379999D01*
X120211502Y-119379999D01*
X120144463Y-119360314D01*
X120098708Y-119307510D01*
X120087502Y-119255999D01*
X120087502Y-117153999D01*
X120107187Y-117086960D01*
X120159991Y-117041205D01*
X120211502Y-117029999D01*
X124118502Y-117029999D01*
X124185541Y-117049684D01*
G37*
%TD.AperFunction*%
%TD*%
%TA.AperFunction,Conductor*%
%TO.N,GND*%
G36*
X126509518Y-44152184D02*
G01*
X126528522Y-44167209D01*
X127004545Y-44625922D01*
X127039159Y-44686615D01*
X127042502Y-44715212D01*
X127042502Y-48978499D01*
X127022817Y-49045538D01*
X126970013Y-49091293D01*
X126918502Y-49102499D01*
X125273864Y-49102499D01*
X125206825Y-49082814D01*
X125186183Y-49066180D01*
X125048321Y-48928318D01*
X125014836Y-48866995D01*
X125012002Y-48840645D01*
X125012002Y-48494627D01*
X125005594Y-48435016D01*
X124996573Y-48410832D01*
X124991588Y-48341143D01*
X124996569Y-48324176D01*
X125005594Y-48299982D01*
X125012003Y-48240372D01*
X125012002Y-47844627D01*
X125005594Y-47785016D01*
X124955299Y-47650168D01*
X124955298Y-47650167D01*
X124955296Y-47650163D01*
X124869050Y-47534954D01*
X124869046Y-47534950D01*
X124867184Y-47533556D01*
X124865791Y-47531695D01*
X124862779Y-47528683D01*
X124863212Y-47528249D01*
X124825317Y-47477619D01*
X124817502Y-47434295D01*
X124817502Y-44266499D01*
X124837187Y-44199460D01*
X124889991Y-44153705D01*
X124941502Y-44142499D01*
X125671140Y-44142499D01*
X125738179Y-44162184D01*
X125738570Y-44162499D01*
X125742502Y-44162499D01*
X125747755Y-44162499D01*
X125797506Y-44135333D01*
X125823864Y-44132499D01*
X126442479Y-44132499D01*
X126509518Y-44152184D01*
G37*
%TD.AperFunction*%
%TD*%
%TA.AperFunction,Conductor*%
%TO.N,GND*%
G36*
X126534518Y-58439684D02*
G01*
X126553522Y-58454709D01*
X127029545Y-58913422D01*
X127064159Y-58974115D01*
X127067502Y-59002712D01*
X127067502Y-63265999D01*
X127047817Y-63333038D01*
X126995013Y-63378793D01*
X126943502Y-63389999D01*
X125298864Y-63389999D01*
X125231825Y-63370314D01*
X125211183Y-63353680D01*
X125073321Y-63215818D01*
X125039836Y-63154495D01*
X125037002Y-63128145D01*
X125037002Y-62782127D01*
X125030594Y-62722516D01*
X125021573Y-62698332D01*
X125016588Y-62628643D01*
X125021569Y-62611676D01*
X125030594Y-62587482D01*
X125037003Y-62527872D01*
X125037002Y-62132127D01*
X125030594Y-62072516D01*
X124980299Y-61937668D01*
X124980298Y-61937667D01*
X124980296Y-61937663D01*
X124894050Y-61822454D01*
X124894046Y-61822450D01*
X124892184Y-61821056D01*
X124890791Y-61819195D01*
X124887779Y-61816183D01*
X124888212Y-61815749D01*
X124850317Y-61765119D01*
X124842502Y-61721795D01*
X124842502Y-58553999D01*
X124862187Y-58486960D01*
X124914991Y-58441205D01*
X124966502Y-58429999D01*
X125696140Y-58429999D01*
X125763179Y-58449684D01*
X125763570Y-58449999D01*
X125767502Y-58449999D01*
X125772755Y-58449999D01*
X125822506Y-58422833D01*
X125848864Y-58419999D01*
X126467479Y-58419999D01*
X126534518Y-58439684D01*
G37*
%TD.AperFunction*%
%TD*%
%TA.AperFunction,Conductor*%
%TO.N,+3.3V*%
G36*
X163842263Y-48119685D02*
G01*
X163888018Y-48172489D01*
X163897962Y-48241647D01*
X163868937Y-48305203D01*
X163853888Y-48319854D01*
X163707811Y-48439735D01*
X163576038Y-48600302D01*
X163576033Y-48600309D01*
X163478120Y-48783490D01*
X163417821Y-48982270D01*
X163397462Y-49188987D01*
X163417821Y-49395703D01*
X163478120Y-49594483D01*
X163576033Y-49777664D01*
X163576038Y-49777671D01*
X163707811Y-49938239D01*
X163819547Y-50029937D01*
X163868381Y-50070014D01*
X163868384Y-50070015D01*
X163868386Y-50070017D01*
X164051567Y-50167930D01*
X164051569Y-50167930D01*
X164051572Y-50167932D01*
X164250346Y-50228229D01*
X164457064Y-50248589D01*
X164663782Y-50228229D01*
X164862556Y-50167932D01*
X164869679Y-50164125D01*
X165045741Y-50070017D01*
X165045739Y-50070017D01*
X165045747Y-50070014D01*
X165206316Y-49938239D01*
X165338091Y-49777670D01*
X165436009Y-49594479D01*
X165496306Y-49395705D01*
X165516666Y-49188987D01*
X165496306Y-48982269D01*
X165436009Y-48783495D01*
X165436007Y-48783492D01*
X165436007Y-48783490D01*
X165338094Y-48600309D01*
X165338092Y-48600307D01*
X165338091Y-48600304D01*
X165206316Y-48439735D01*
X165060240Y-48319854D01*
X165020905Y-48262108D01*
X165019034Y-48192263D01*
X165055221Y-48132495D01*
X165117977Y-48101779D01*
X165138904Y-48100000D01*
X168058638Y-48100000D01*
X168125677Y-48119685D01*
X168146319Y-48136319D01*
X168575077Y-48565077D01*
X168608562Y-48626400D01*
X168603578Y-48696092D01*
X168596755Y-48711210D01*
X168558120Y-48783492D01*
X168497821Y-48982270D01*
X168477462Y-49188987D01*
X168497821Y-49395703D01*
X168558120Y-49594483D01*
X168656033Y-49777664D01*
X168656038Y-49777671D01*
X168787811Y-49938239D01*
X168948379Y-50070012D01*
X168948381Y-50070014D01*
X169124457Y-50164128D01*
X169174297Y-50213088D01*
X169190000Y-50273484D01*
X169190000Y-50644488D01*
X169170315Y-50711527D01*
X169124453Y-50753846D01*
X168948386Y-50847955D01*
X168948379Y-50847961D01*
X168787811Y-50979734D01*
X168656038Y-51140302D01*
X168656033Y-51140309D01*
X168558120Y-51323490D01*
X168497821Y-51522270D01*
X168477462Y-51728987D01*
X168497821Y-51935703D01*
X168558120Y-52134483D01*
X168656033Y-52317664D01*
X168656038Y-52317671D01*
X168787811Y-52478239D01*
X168948379Y-52610012D01*
X168948381Y-52610014D01*
X169124457Y-52704128D01*
X169174297Y-52753088D01*
X169190000Y-52813484D01*
X169190000Y-70994488D01*
X169170315Y-71061527D01*
X169124453Y-71103846D01*
X168948386Y-71197955D01*
X168948379Y-71197961D01*
X168787811Y-71329734D01*
X168656038Y-71490302D01*
X168656033Y-71490309D01*
X168558120Y-71673490D01*
X168497821Y-71872270D01*
X168477462Y-72078987D01*
X168497821Y-72285703D01*
X168558120Y-72484483D01*
X168656033Y-72667664D01*
X168656038Y-72667671D01*
X168787811Y-72828239D01*
X168948379Y-72960012D01*
X168948381Y-72960014D01*
X169124457Y-73054128D01*
X169174297Y-73103088D01*
X169190000Y-73163484D01*
X169190000Y-73534488D01*
X169170315Y-73601527D01*
X169124453Y-73643846D01*
X168948386Y-73737955D01*
X168948379Y-73737961D01*
X168787811Y-73869734D01*
X168656038Y-74030302D01*
X168656033Y-74030309D01*
X168558120Y-74213490D01*
X168497821Y-74412270D01*
X168477462Y-74618987D01*
X168497821Y-74825703D01*
X168558120Y-75024483D01*
X168656033Y-75207664D01*
X168656037Y-75207670D01*
X168729623Y-75297336D01*
X168756935Y-75361646D01*
X168745144Y-75430513D01*
X168697991Y-75482073D01*
X168633769Y-75500000D01*
X166085564Y-75500000D01*
X166018525Y-75480315D01*
X165972770Y-75427511D01*
X165961564Y-75376000D01*
X165961564Y-74116034D01*
X165961564Y-74116032D01*
X165932567Y-74007813D01*
X165876549Y-73910787D01*
X165797327Y-73831565D01*
X165636319Y-73670557D01*
X165602834Y-73609234D01*
X165600000Y-73582876D01*
X165600000Y-72078987D01*
X165937462Y-72078987D01*
X165957821Y-72285703D01*
X166018120Y-72484483D01*
X166116033Y-72667664D01*
X166116038Y-72667671D01*
X166247811Y-72828239D01*
X166359547Y-72919937D01*
X166408381Y-72960014D01*
X166408384Y-72960015D01*
X166408386Y-72960017D01*
X166591567Y-73057930D01*
X166591569Y-73057930D01*
X166591572Y-73057932D01*
X166790346Y-73118229D01*
X166997064Y-73138589D01*
X167203782Y-73118229D01*
X167402556Y-73057932D01*
X167409679Y-73054125D01*
X167475832Y-73018764D01*
X167585747Y-72960014D01*
X167746316Y-72828239D01*
X167878091Y-72667670D01*
X167976009Y-72484479D01*
X168036306Y-72285705D01*
X168056666Y-72078987D01*
X168036306Y-71872269D01*
X167976009Y-71673495D01*
X167976007Y-71673492D01*
X167976007Y-71673490D01*
X167878094Y-71490309D01*
X167878092Y-71490307D01*
X167878091Y-71490304D01*
X167838014Y-71441470D01*
X167746316Y-71329734D01*
X167585748Y-71197961D01*
X167585741Y-71197956D01*
X167402560Y-71100043D01*
X167203780Y-71039744D01*
X166997064Y-71019385D01*
X166790347Y-71039744D01*
X166591567Y-71100043D01*
X166408386Y-71197956D01*
X166408379Y-71197961D01*
X166247811Y-71329734D01*
X166116038Y-71490302D01*
X166116033Y-71490309D01*
X166018120Y-71673490D01*
X165957821Y-71872270D01*
X165937462Y-72078987D01*
X165600000Y-72078987D01*
X165600000Y-70800000D01*
X163178346Y-68486631D01*
X163143468Y-68426089D01*
X163140000Y-68396968D01*
X163140000Y-51728987D01*
X163397462Y-51728987D01*
X163417821Y-51935703D01*
X163478120Y-52134483D01*
X163576033Y-52317664D01*
X163576038Y-52317671D01*
X163707811Y-52478239D01*
X163819547Y-52569937D01*
X163868381Y-52610014D01*
X163868384Y-52610015D01*
X163868386Y-52610017D01*
X164051567Y-52707930D01*
X164051569Y-52707930D01*
X164051572Y-52707932D01*
X164250346Y-52768229D01*
X164457064Y-52788589D01*
X164663782Y-52768229D01*
X164862556Y-52707932D01*
X164869679Y-52704125D01*
X165045741Y-52610017D01*
X165045739Y-52610017D01*
X165045747Y-52610014D01*
X165206316Y-52478239D01*
X165338091Y-52317670D01*
X165436009Y-52134479D01*
X165496306Y-51935705D01*
X165516666Y-51728987D01*
X165937462Y-51728987D01*
X165957821Y-51935703D01*
X166018120Y-52134483D01*
X166116033Y-52317664D01*
X166116038Y-52317671D01*
X166247811Y-52478239D01*
X166359547Y-52569937D01*
X166408381Y-52610014D01*
X166408384Y-52610015D01*
X166408386Y-52610017D01*
X166591567Y-52707930D01*
X166591569Y-52707930D01*
X166591572Y-52707932D01*
X166790346Y-52768229D01*
X166997064Y-52788589D01*
X167203782Y-52768229D01*
X167402556Y-52707932D01*
X167409679Y-52704125D01*
X167585741Y-52610017D01*
X167585739Y-52610017D01*
X167585747Y-52610014D01*
X167746316Y-52478239D01*
X167878091Y-52317670D01*
X167976009Y-52134479D01*
X168036306Y-51935705D01*
X168056666Y-51728987D01*
X168036306Y-51522269D01*
X167976009Y-51323495D01*
X167976007Y-51323492D01*
X167976007Y-51323490D01*
X167878094Y-51140309D01*
X167878092Y-51140307D01*
X167878091Y-51140304D01*
X167838014Y-51091470D01*
X167746316Y-50979734D01*
X167585748Y-50847961D01*
X167585741Y-50847956D01*
X167402560Y-50750043D01*
X167203780Y-50689744D01*
X166997064Y-50669385D01*
X166790347Y-50689744D01*
X166591567Y-50750043D01*
X166408386Y-50847956D01*
X166408379Y-50847961D01*
X166247811Y-50979734D01*
X166116038Y-51140302D01*
X166116033Y-51140309D01*
X166018120Y-51323490D01*
X165957821Y-51522270D01*
X165937462Y-51728987D01*
X165516666Y-51728987D01*
X165496306Y-51522269D01*
X165436009Y-51323495D01*
X165436007Y-51323492D01*
X165436007Y-51323490D01*
X165338094Y-51140309D01*
X165338092Y-51140307D01*
X165338091Y-51140304D01*
X165298014Y-51091470D01*
X165206316Y-50979734D01*
X165045748Y-50847961D01*
X165045741Y-50847956D01*
X164862560Y-50750043D01*
X164663780Y-50689744D01*
X164457064Y-50669385D01*
X164250347Y-50689744D01*
X164051567Y-50750043D01*
X163868386Y-50847956D01*
X163868379Y-50847961D01*
X163707811Y-50979734D01*
X163576038Y-51140302D01*
X163576033Y-51140309D01*
X163478120Y-51323490D01*
X163417821Y-51522270D01*
X163397462Y-51728987D01*
X163140000Y-51728987D01*
X163140000Y-48224000D01*
X163159685Y-48156961D01*
X163212489Y-48111206D01*
X163264000Y-48100000D01*
X163775224Y-48100000D01*
X163842263Y-48119685D01*
G37*
%TD.AperFunction*%
%TD*%
%TA.AperFunction,Conductor*%
%TO.N,GND*%
G36*
X126584518Y-101414684D02*
G01*
X126603522Y-101429709D01*
X127079545Y-101888422D01*
X127114159Y-101949115D01*
X127117502Y-101977712D01*
X127117502Y-106240999D01*
X127097817Y-106308038D01*
X127045013Y-106353793D01*
X126993502Y-106364999D01*
X125348864Y-106364999D01*
X125281825Y-106345314D01*
X125261183Y-106328680D01*
X125123321Y-106190818D01*
X125089836Y-106129495D01*
X125087002Y-106103145D01*
X125087002Y-105757127D01*
X125080594Y-105697516D01*
X125071573Y-105673332D01*
X125066588Y-105603643D01*
X125071569Y-105586676D01*
X125080594Y-105562482D01*
X125087003Y-105502872D01*
X125087002Y-105107127D01*
X125080594Y-105047516D01*
X125030299Y-104912668D01*
X125030298Y-104912667D01*
X125030296Y-104912663D01*
X124944050Y-104797454D01*
X124944046Y-104797450D01*
X124942184Y-104796056D01*
X124940791Y-104794195D01*
X124937779Y-104791183D01*
X124938212Y-104790749D01*
X124900317Y-104740119D01*
X124892502Y-104696795D01*
X124892502Y-101528999D01*
X124912187Y-101461960D01*
X124964991Y-101416205D01*
X125016502Y-101404999D01*
X125746140Y-101404999D01*
X125813179Y-101424684D01*
X125813570Y-101424999D01*
X125817502Y-101424999D01*
X125822755Y-101424999D01*
X125872506Y-101397833D01*
X125898864Y-101394999D01*
X126517479Y-101394999D01*
X126584518Y-101414684D01*
G37*
%TD.AperFunction*%
%TD*%
%TA.AperFunction,Conductor*%
%TO.N,+12V*%
G36*
X130979473Y-71617380D02*
G01*
X131019848Y-71625411D01*
X131064545Y-71643926D01*
X131088415Y-71659876D01*
X131122624Y-71694085D01*
X131138574Y-71717955D01*
X131157090Y-71762654D01*
X131165119Y-71803021D01*
X131167502Y-71827209D01*
X131167502Y-75029065D01*
X131147817Y-75096104D01*
X131095013Y-75141859D01*
X131069284Y-75150355D01*
X131037698Y-75157069D01*
X131037694Y-75157070D01*
X130864772Y-75234061D01*
X130864767Y-75234064D01*
X130711631Y-75345324D01*
X130584968Y-75485998D01*
X130490323Y-75649928D01*
X130490320Y-75649935D01*
X130431829Y-75829953D01*
X130431828Y-75829957D01*
X130412042Y-76018213D01*
X130431828Y-76206469D01*
X130431829Y-76206472D01*
X130490320Y-76386490D01*
X130490323Y-76386497D01*
X130584969Y-76550429D01*
X130711631Y-76691101D01*
X130864767Y-76802361D01*
X130864772Y-76802364D01*
X131037699Y-76879357D01*
X131069285Y-76886070D01*
X131130764Y-76919262D01*
X131164541Y-76980424D01*
X131167502Y-77007360D01*
X131167502Y-77843568D01*
X131158063Y-77891021D01*
X131146041Y-77920043D01*
X131146037Y-77920056D01*
X131139935Y-77950735D01*
X131128171Y-78009877D01*
X131095786Y-78071788D01*
X131075446Y-78088787D01*
X131064545Y-78096071D01*
X131019846Y-78114587D01*
X131003343Y-78117869D01*
X130979480Y-78122616D01*
X130955291Y-78124999D01*
X130622117Y-78124999D01*
X130555078Y-78105314D01*
X130547806Y-78100265D01*
X130428838Y-78011205D01*
X130428831Y-78011201D01*
X130293985Y-77960907D01*
X130293986Y-77960907D01*
X130234386Y-77954500D01*
X130234384Y-77954499D01*
X130234376Y-77954499D01*
X130234368Y-77954499D01*
X128911002Y-77954499D01*
X128843963Y-77934814D01*
X128798208Y-77882010D01*
X128787002Y-77830499D01*
X128787002Y-76057128D01*
X128787001Y-76057122D01*
X128780594Y-75997515D01*
X128730300Y-75862670D01*
X128730296Y-75862663D01*
X128644050Y-75747454D01*
X128644047Y-75747451D01*
X128528838Y-75661205D01*
X128528831Y-75661201D01*
X128393985Y-75610907D01*
X128393986Y-75610907D01*
X128334386Y-75604500D01*
X128334384Y-75604499D01*
X128334376Y-75604499D01*
X128334368Y-75604499D01*
X127941502Y-75604499D01*
X127874463Y-75584814D01*
X127828708Y-75532010D01*
X127817502Y-75480499D01*
X127817502Y-72824998D01*
X127817502Y-72624999D01*
X127617506Y-72624999D01*
X127221495Y-72624999D01*
X127154456Y-72605314D01*
X127135452Y-72590289D01*
X127058031Y-72515683D01*
X126954285Y-72415710D01*
X126917033Y-72383173D01*
X126917025Y-72383166D01*
X126917019Y-72383162D01*
X126914594Y-72381244D01*
X126874216Y-72324224D01*
X126867502Y-72283976D01*
X126867502Y-71840096D01*
X126871696Y-71808120D01*
X126885567Y-71756149D01*
X126917435Y-71700701D01*
X126943494Y-71674489D01*
X126998751Y-71642297D01*
X127050648Y-71628120D01*
X127082589Y-71623740D01*
X128576917Y-71615002D01*
X128576917Y-71615024D01*
X128577502Y-71615003D01*
X128577502Y-71615000D01*
X128578087Y-71614999D01*
X130955291Y-71614999D01*
X130979473Y-71617380D01*
G37*
%TD.AperFunction*%
%TD*%
%TA.AperFunction,Conductor*%
%TO.N,GND*%
G36*
X118309038Y-132569685D02*
G01*
X118354793Y-132622489D01*
X118365999Y-132674000D01*
X118365999Y-140716000D01*
X118346314Y-140783039D01*
X118293510Y-140828794D01*
X118241999Y-140840000D01*
X115739999Y-140840000D01*
X115672960Y-140820315D01*
X115627205Y-140767511D01*
X115615999Y-140716000D01*
X115615999Y-132674000D01*
X115635684Y-132606961D01*
X115688488Y-132561206D01*
X115739999Y-132550000D01*
X118241999Y-132550000D01*
X118309038Y-132569685D01*
G37*
%TD.AperFunction*%
%TD*%
%TA.AperFunction,Conductor*%
%TO.N,GND*%
G36*
X126615517Y-144384684D02*
G01*
X126634521Y-144399709D01*
X127110544Y-144858422D01*
X127145158Y-144919115D01*
X127148501Y-144947712D01*
X127148501Y-149210999D01*
X127128816Y-149278038D01*
X127076012Y-149323793D01*
X127024501Y-149334999D01*
X125379863Y-149334999D01*
X125312824Y-149315314D01*
X125292182Y-149298680D01*
X125154320Y-149160818D01*
X125120835Y-149099495D01*
X125118001Y-149073145D01*
X125118001Y-148727127D01*
X125111593Y-148667516D01*
X125102572Y-148643332D01*
X125097587Y-148573643D01*
X125102568Y-148556676D01*
X125111593Y-148532482D01*
X125118002Y-148472872D01*
X125118001Y-148077127D01*
X125111593Y-148017516D01*
X125061298Y-147882668D01*
X125061297Y-147882667D01*
X125061295Y-147882663D01*
X124975049Y-147767454D01*
X124975045Y-147767450D01*
X124973183Y-147766056D01*
X124971790Y-147764195D01*
X124968778Y-147761183D01*
X124969211Y-147760749D01*
X124931316Y-147710119D01*
X124923501Y-147666795D01*
X124923501Y-144498999D01*
X124943186Y-144431960D01*
X124995990Y-144386205D01*
X125047501Y-144374999D01*
X125777139Y-144374999D01*
X125844178Y-144394684D01*
X125844569Y-144394999D01*
X125848501Y-144394999D01*
X125853754Y-144394999D01*
X125903505Y-144367833D01*
X125929863Y-144364999D01*
X126548478Y-144364999D01*
X126615517Y-144384684D01*
G37*
%TD.AperFunction*%
%TD*%
%TA.AperFunction,Conductor*%
%TO.N,GND*%
G36*
X118320541Y-75264684D02*
G01*
X118366296Y-75317488D01*
X118377502Y-75368999D01*
X118377502Y-83410999D01*
X118357817Y-83478038D01*
X118305013Y-83523793D01*
X118253502Y-83534999D01*
X115751502Y-83534999D01*
X115684463Y-83515314D01*
X115638708Y-83462510D01*
X115627502Y-83410999D01*
X115627502Y-75368999D01*
X115647187Y-75301960D01*
X115699991Y-75256205D01*
X115751502Y-75244999D01*
X118253502Y-75244999D01*
X118320541Y-75264684D01*
G37*
%TD.AperFunction*%
%TD*%
%TA.AperFunction,Conductor*%
%TO.N,/SpikeAndHoldDriverAndLEDs-10/DriveOut*%
G36*
X124135541Y-59749684D02*
G01*
X124181296Y-59802488D01*
X124192502Y-59853999D01*
X124192502Y-62855499D01*
X124172817Y-62922538D01*
X124120013Y-62968293D01*
X124068502Y-62979499D01*
X122888632Y-62979499D01*
X122888626Y-62979500D01*
X122829021Y-62985907D01*
X122810050Y-62992983D01*
X122800135Y-62996681D01*
X122756803Y-63004499D01*
X122223364Y-63004499D01*
X122156325Y-62984814D01*
X122135683Y-62968180D01*
X121237502Y-62069999D01*
X121215622Y-62069999D01*
X121202498Y-62077165D01*
X121176140Y-62079999D01*
X120161502Y-62079999D01*
X120094463Y-62060314D01*
X120048708Y-62007510D01*
X120037502Y-61955999D01*
X120037502Y-59853999D01*
X120057187Y-59786960D01*
X120109991Y-59741205D01*
X120161502Y-59729999D01*
X124068502Y-59729999D01*
X124135541Y-59749684D01*
G37*
%TD.AperFunction*%
%TD*%
%TA.AperFunction,Conductor*%
%TO.N,/SpikeAndHoldDriverAndLEDs-13/DriveOut*%
G36*
X124185541Y-102724684D02*
G01*
X124231296Y-102777488D01*
X124242502Y-102828999D01*
X124242502Y-105830499D01*
X124222817Y-105897538D01*
X124170013Y-105943293D01*
X124118502Y-105954499D01*
X122938632Y-105954499D01*
X122938626Y-105954500D01*
X122879021Y-105960907D01*
X122860050Y-105967983D01*
X122850135Y-105971681D01*
X122806803Y-105979499D01*
X122273364Y-105979499D01*
X122206325Y-105959814D01*
X122185683Y-105943180D01*
X121287502Y-105044999D01*
X121265622Y-105044999D01*
X121252498Y-105052165D01*
X121226140Y-105054999D01*
X120211502Y-105054999D01*
X120144463Y-105035314D01*
X120098708Y-104982510D01*
X120087502Y-104930999D01*
X120087502Y-102828999D01*
X120107187Y-102761960D01*
X120159991Y-102716205D01*
X120211502Y-102704999D01*
X124118502Y-102704999D01*
X124185541Y-102724684D01*
G37*
%TD.AperFunction*%
%TD*%
%TA.AperFunction,Conductor*%
%TO.N,GND*%
G36*
X126584518Y-115739684D02*
G01*
X126603522Y-115754709D01*
X127079545Y-116213422D01*
X127114159Y-116274115D01*
X127117502Y-116302712D01*
X127117502Y-120565999D01*
X127097817Y-120633038D01*
X127045013Y-120678793D01*
X126993502Y-120689999D01*
X125348864Y-120689999D01*
X125281825Y-120670314D01*
X125261183Y-120653680D01*
X125123321Y-120515818D01*
X125089836Y-120454495D01*
X125087002Y-120428145D01*
X125087002Y-120082127D01*
X125080594Y-120022516D01*
X125071573Y-119998332D01*
X125066588Y-119928643D01*
X125071569Y-119911676D01*
X125080594Y-119887482D01*
X125087003Y-119827872D01*
X125087002Y-119432127D01*
X125080594Y-119372516D01*
X125030299Y-119237668D01*
X125030298Y-119237667D01*
X125030296Y-119237663D01*
X124944050Y-119122454D01*
X124944046Y-119122450D01*
X124942184Y-119121056D01*
X124940791Y-119119195D01*
X124937779Y-119116183D01*
X124938212Y-119115749D01*
X124900317Y-119065119D01*
X124892502Y-119021795D01*
X124892502Y-115853999D01*
X124912187Y-115786960D01*
X124964991Y-115741205D01*
X125016502Y-115729999D01*
X125746140Y-115729999D01*
X125813179Y-115749684D01*
X125813570Y-115749999D01*
X125817502Y-115749999D01*
X125822755Y-115749999D01*
X125872506Y-115722833D01*
X125898864Y-115719999D01*
X126517479Y-115719999D01*
X126584518Y-115739684D01*
G37*
%TD.AperFunction*%
%TD*%
%TA.AperFunction,Conductor*%
%TO.N,GND*%
G36*
X118351540Y-146884684D02*
G01*
X118397295Y-146937488D01*
X118408501Y-146988999D01*
X118408501Y-155030999D01*
X118388816Y-155098038D01*
X118336012Y-155143793D01*
X118284501Y-155154999D01*
X115782501Y-155154999D01*
X115715462Y-155135314D01*
X115669707Y-155082510D01*
X115658501Y-155030999D01*
X115658501Y-146988999D01*
X115678186Y-146921960D01*
X115730990Y-146876205D01*
X115782501Y-146864999D01*
X118284501Y-146864999D01*
X118351540Y-146884684D01*
G37*
%TD.AperFunction*%
%TD*%
%TA.AperFunction,Conductor*%
%TO.N,+12V*%
G36*
X130979473Y-114592380D02*
G01*
X131019848Y-114600411D01*
X131064545Y-114618926D01*
X131088415Y-114634876D01*
X131122624Y-114669085D01*
X131138574Y-114692955D01*
X131157090Y-114737654D01*
X131165119Y-114778021D01*
X131167502Y-114802209D01*
X131167502Y-118006207D01*
X131147817Y-118073246D01*
X131095013Y-118119001D01*
X131069284Y-118127497D01*
X131037698Y-118134211D01*
X131037694Y-118134212D01*
X130864772Y-118211203D01*
X130864767Y-118211206D01*
X130711631Y-118322466D01*
X130584968Y-118463140D01*
X130490323Y-118627070D01*
X130490320Y-118627077D01*
X130431829Y-118807095D01*
X130431828Y-118807099D01*
X130412042Y-118995355D01*
X130431828Y-119183611D01*
X130431829Y-119183614D01*
X130490320Y-119363632D01*
X130490323Y-119363639D01*
X130584969Y-119527571D01*
X130671537Y-119623714D01*
X130711631Y-119668243D01*
X130864767Y-119779503D01*
X130864772Y-119779506D01*
X131037699Y-119856499D01*
X131069285Y-119863212D01*
X131130764Y-119896404D01*
X131164541Y-119957566D01*
X131167502Y-119984502D01*
X131167502Y-120818568D01*
X131158063Y-120866021D01*
X131146041Y-120895043D01*
X131146037Y-120895054D01*
X131139186Y-120929501D01*
X131128171Y-120984877D01*
X131095787Y-121046788D01*
X131075446Y-121063787D01*
X131064545Y-121071071D01*
X131019846Y-121089587D01*
X131003343Y-121092869D01*
X130979480Y-121097616D01*
X130955291Y-121099999D01*
X130622117Y-121099999D01*
X130555078Y-121080314D01*
X130547806Y-121075265D01*
X130428838Y-120986205D01*
X130428831Y-120986201D01*
X130293985Y-120935907D01*
X130293986Y-120935907D01*
X130234386Y-120929500D01*
X130234384Y-120929499D01*
X130234376Y-120929499D01*
X130234368Y-120929499D01*
X128911002Y-120929499D01*
X128843963Y-120909814D01*
X128798208Y-120857010D01*
X128787002Y-120805499D01*
X128787002Y-119032128D01*
X128787001Y-119032122D01*
X128780594Y-118972515D01*
X128730300Y-118837670D01*
X128730296Y-118837663D01*
X128644050Y-118722454D01*
X128644047Y-118722451D01*
X128528838Y-118636205D01*
X128528831Y-118636201D01*
X128393985Y-118585907D01*
X128393986Y-118585907D01*
X128334386Y-118579500D01*
X128334384Y-118579499D01*
X128334376Y-118579499D01*
X128334368Y-118579499D01*
X127941502Y-118579499D01*
X127874463Y-118559814D01*
X127828708Y-118507010D01*
X127817502Y-118455499D01*
X127817502Y-115799998D01*
X127817502Y-115599999D01*
X127617506Y-115599999D01*
X127221495Y-115599999D01*
X127154456Y-115580314D01*
X127135452Y-115565289D01*
X127058031Y-115490683D01*
X126954285Y-115390710D01*
X126917033Y-115358173D01*
X126917025Y-115358166D01*
X126917019Y-115358162D01*
X126914594Y-115356244D01*
X126874216Y-115299224D01*
X126867502Y-115258976D01*
X126867502Y-114815096D01*
X126871696Y-114783120D01*
X126885567Y-114731149D01*
X126917435Y-114675701D01*
X126943494Y-114649489D01*
X126998751Y-114617297D01*
X127050648Y-114603120D01*
X127082589Y-114598740D01*
X128576917Y-114590002D01*
X128576917Y-114590024D01*
X128577502Y-114590003D01*
X128577502Y-114590000D01*
X128578087Y-114589999D01*
X130955291Y-114589999D01*
X130979473Y-114592380D01*
G37*
%TD.AperFunction*%
%TD*%
%TA.AperFunction,Conductor*%
%TO.N,GND*%
G36*
X118270541Y-60939684D02*
G01*
X118316296Y-60992488D01*
X118327502Y-61043999D01*
X118327502Y-69085999D01*
X118307817Y-69153038D01*
X118255013Y-69198793D01*
X118203502Y-69209999D01*
X115701502Y-69209999D01*
X115634463Y-69190314D01*
X115588708Y-69137510D01*
X115577502Y-69085999D01*
X115577502Y-61043999D01*
X115597187Y-60976960D01*
X115649991Y-60931205D01*
X115701502Y-60919999D01*
X118203502Y-60919999D01*
X118270541Y-60939684D01*
G37*
%TD.AperFunction*%
%TD*%
%TA.AperFunction,Conductor*%
%TO.N,GND*%
G36*
X127890541Y-122569684D02*
G01*
X127936296Y-122622488D01*
X127947502Y-122673999D01*
X127947502Y-126445999D01*
X127927817Y-126513038D01*
X127875013Y-126558793D01*
X127823502Y-126569999D01*
X125641502Y-126569999D01*
X125574463Y-126550314D01*
X125528708Y-126497510D01*
X125517502Y-126445999D01*
X125517502Y-122673999D01*
X125537187Y-122606960D01*
X125589991Y-122561205D01*
X125641502Y-122549999D01*
X127823502Y-122549999D01*
X127890541Y-122569684D01*
G37*
%TD.AperFunction*%
%TD*%
%TA.AperFunction,Conductor*%
%TO.N,GND*%
G36*
X118245541Y-46652184D02*
G01*
X118291296Y-46704988D01*
X118302502Y-46756499D01*
X118302502Y-54798499D01*
X118282817Y-54865538D01*
X118230013Y-54911293D01*
X118178502Y-54922499D01*
X115676502Y-54922499D01*
X115609463Y-54902814D01*
X115563708Y-54850010D01*
X115552502Y-54798499D01*
X115552502Y-46756499D01*
X115572187Y-46689460D01*
X115624991Y-46643705D01*
X115676502Y-46632499D01*
X118178502Y-46632499D01*
X118245541Y-46652184D01*
G37*
%TD.AperFunction*%
%TD*%
%TA.AperFunction,Conductor*%
%TO.N,GND*%
G36*
X127890541Y-93919684D02*
G01*
X127936296Y-93972488D01*
X127947502Y-94023999D01*
X127947502Y-97795999D01*
X127927817Y-97863038D01*
X127875013Y-97908793D01*
X127823502Y-97919999D01*
X125641502Y-97919999D01*
X125574463Y-97900314D01*
X125528708Y-97847510D01*
X125517502Y-97795999D01*
X125517502Y-94023999D01*
X125537187Y-93956960D01*
X125589991Y-93911205D01*
X125641502Y-93899999D01*
X127823502Y-93899999D01*
X127890541Y-93919684D01*
G37*
%TD.AperFunction*%
%TD*%
M02*
