%TF.GenerationSoftware,KiCad,Pcbnew,7.0.7*%
%TF.CreationDate,2024-03-31T21:20:54-04:00*%
%TF.ProjectId,4ch-driver-v0,3463682d-6472-4697-9665-722d76302e6b,rev?*%
%TF.SameCoordinates,Original*%
%TF.FileFunction,Legend,Top*%
%TF.FilePolarity,Positive*%
%FSLAX46Y46*%
G04 Gerber Fmt 4.6, Leading zero omitted, Abs format (unit mm)*
G04 Created by KiCad (PCBNEW 7.0.7) date 2024-03-31 21:20:54*
%MOMM*%
%LPD*%
G01*
G04 APERTURE LIST*
%ADD10C,0.150000*%
%ADD11C,0.120000*%
%ADD12C,0.127000*%
%ADD13C,0.200000*%
G04 APERTURE END LIST*
D10*
X110057142Y-101134819D02*
X109723809Y-100658628D01*
X109485714Y-101134819D02*
X109485714Y-100134819D01*
X109485714Y-100134819D02*
X109866666Y-100134819D01*
X109866666Y-100134819D02*
X109961904Y-100182438D01*
X109961904Y-100182438D02*
X110009523Y-100230057D01*
X110009523Y-100230057D02*
X110057142Y-100325295D01*
X110057142Y-100325295D02*
X110057142Y-100468152D01*
X110057142Y-100468152D02*
X110009523Y-100563390D01*
X110009523Y-100563390D02*
X109961904Y-100611009D01*
X109961904Y-100611009D02*
X109866666Y-100658628D01*
X109866666Y-100658628D02*
X109485714Y-100658628D01*
X111009523Y-101134819D02*
X110438095Y-101134819D01*
X110723809Y-101134819D02*
X110723809Y-100134819D01*
X110723809Y-100134819D02*
X110628571Y-100277676D01*
X110628571Y-100277676D02*
X110533333Y-100372914D01*
X110533333Y-100372914D02*
X110438095Y-100420533D01*
X111390476Y-100230057D02*
X111438095Y-100182438D01*
X111438095Y-100182438D02*
X111533333Y-100134819D01*
X111533333Y-100134819D02*
X111771428Y-100134819D01*
X111771428Y-100134819D02*
X111866666Y-100182438D01*
X111866666Y-100182438D02*
X111914285Y-100230057D01*
X111914285Y-100230057D02*
X111961904Y-100325295D01*
X111961904Y-100325295D02*
X111961904Y-100420533D01*
X111961904Y-100420533D02*
X111914285Y-100563390D01*
X111914285Y-100563390D02*
X111342857Y-101134819D01*
X111342857Y-101134819D02*
X111961904Y-101134819D01*
X122259580Y-109546666D02*
X122307200Y-109594285D01*
X122307200Y-109594285D02*
X122354819Y-109737142D01*
X122354819Y-109737142D02*
X122354819Y-109832380D01*
X122354819Y-109832380D02*
X122307200Y-109975237D01*
X122307200Y-109975237D02*
X122211961Y-110070475D01*
X122211961Y-110070475D02*
X122116723Y-110118094D01*
X122116723Y-110118094D02*
X121926247Y-110165713D01*
X121926247Y-110165713D02*
X121783390Y-110165713D01*
X121783390Y-110165713D02*
X121592914Y-110118094D01*
X121592914Y-110118094D02*
X121497676Y-110070475D01*
X121497676Y-110070475D02*
X121402438Y-109975237D01*
X121402438Y-109975237D02*
X121354819Y-109832380D01*
X121354819Y-109832380D02*
X121354819Y-109737142D01*
X121354819Y-109737142D02*
X121402438Y-109594285D01*
X121402438Y-109594285D02*
X121450057Y-109546666D01*
X122354819Y-109070475D02*
X122354819Y-108879999D01*
X122354819Y-108879999D02*
X122307200Y-108784761D01*
X122307200Y-108784761D02*
X122259580Y-108737142D01*
X122259580Y-108737142D02*
X122116723Y-108641904D01*
X122116723Y-108641904D02*
X121926247Y-108594285D01*
X121926247Y-108594285D02*
X121545295Y-108594285D01*
X121545295Y-108594285D02*
X121450057Y-108641904D01*
X121450057Y-108641904D02*
X121402438Y-108689523D01*
X121402438Y-108689523D02*
X121354819Y-108784761D01*
X121354819Y-108784761D02*
X121354819Y-108975237D01*
X121354819Y-108975237D02*
X121402438Y-109070475D01*
X121402438Y-109070475D02*
X121450057Y-109118094D01*
X121450057Y-109118094D02*
X121545295Y-109165713D01*
X121545295Y-109165713D02*
X121783390Y-109165713D01*
X121783390Y-109165713D02*
X121878628Y-109118094D01*
X121878628Y-109118094D02*
X121926247Y-109070475D01*
X121926247Y-109070475D02*
X121973866Y-108975237D01*
X121973866Y-108975237D02*
X121973866Y-108784761D01*
X121973866Y-108784761D02*
X121926247Y-108689523D01*
X121926247Y-108689523D02*
X121878628Y-108641904D01*
X121878628Y-108641904D02*
X121783390Y-108594285D01*
X139864095Y-85724819D02*
X139864095Y-86534342D01*
X139864095Y-86534342D02*
X139911714Y-86629580D01*
X139911714Y-86629580D02*
X139959333Y-86677200D01*
X139959333Y-86677200D02*
X140054571Y-86724819D01*
X140054571Y-86724819D02*
X140245047Y-86724819D01*
X140245047Y-86724819D02*
X140340285Y-86677200D01*
X140340285Y-86677200D02*
X140387904Y-86629580D01*
X140387904Y-86629580D02*
X140435523Y-86534342D01*
X140435523Y-86534342D02*
X140435523Y-85724819D01*
X141340285Y-86058152D02*
X141340285Y-86724819D01*
X141102190Y-85677200D02*
X140864095Y-86391485D01*
X140864095Y-86391485D02*
X141483142Y-86391485D01*
X122911905Y-100424819D02*
X122911905Y-99424819D01*
X122911905Y-99424819D02*
X123150000Y-99424819D01*
X123150000Y-99424819D02*
X123292857Y-99472438D01*
X123292857Y-99472438D02*
X123388095Y-99567676D01*
X123388095Y-99567676D02*
X123435714Y-99662914D01*
X123435714Y-99662914D02*
X123483333Y-99853390D01*
X123483333Y-99853390D02*
X123483333Y-99996247D01*
X123483333Y-99996247D02*
X123435714Y-100186723D01*
X123435714Y-100186723D02*
X123388095Y-100281961D01*
X123388095Y-100281961D02*
X123292857Y-100377200D01*
X123292857Y-100377200D02*
X123150000Y-100424819D01*
X123150000Y-100424819D02*
X122911905Y-100424819D01*
X124388095Y-99424819D02*
X123911905Y-99424819D01*
X123911905Y-99424819D02*
X123864286Y-99901009D01*
X123864286Y-99901009D02*
X123911905Y-99853390D01*
X123911905Y-99853390D02*
X124007143Y-99805771D01*
X124007143Y-99805771D02*
X124245238Y-99805771D01*
X124245238Y-99805771D02*
X124340476Y-99853390D01*
X124340476Y-99853390D02*
X124388095Y-99901009D01*
X124388095Y-99901009D02*
X124435714Y-99996247D01*
X124435714Y-99996247D02*
X124435714Y-100234342D01*
X124435714Y-100234342D02*
X124388095Y-100329580D01*
X124388095Y-100329580D02*
X124340476Y-100377200D01*
X124340476Y-100377200D02*
X124245238Y-100424819D01*
X124245238Y-100424819D02*
X124007143Y-100424819D01*
X124007143Y-100424819D02*
X123911905Y-100377200D01*
X123911905Y-100377200D02*
X123864286Y-100329580D01*
X170358819Y-96276857D02*
X169882628Y-96610190D01*
X170358819Y-96848285D02*
X169358819Y-96848285D01*
X169358819Y-96848285D02*
X169358819Y-96467333D01*
X169358819Y-96467333D02*
X169406438Y-96372095D01*
X169406438Y-96372095D02*
X169454057Y-96324476D01*
X169454057Y-96324476D02*
X169549295Y-96276857D01*
X169549295Y-96276857D02*
X169692152Y-96276857D01*
X169692152Y-96276857D02*
X169787390Y-96324476D01*
X169787390Y-96324476D02*
X169835009Y-96372095D01*
X169835009Y-96372095D02*
X169882628Y-96467333D01*
X169882628Y-96467333D02*
X169882628Y-96848285D01*
X170358819Y-95324476D02*
X170358819Y-95895904D01*
X170358819Y-95610190D02*
X169358819Y-95610190D01*
X169358819Y-95610190D02*
X169501676Y-95705428D01*
X169501676Y-95705428D02*
X169596914Y-95800666D01*
X169596914Y-95800666D02*
X169644533Y-95895904D01*
X169692152Y-94467333D02*
X170358819Y-94467333D01*
X169311200Y-94705428D02*
X170025485Y-94943523D01*
X170025485Y-94943523D02*
X170025485Y-94324476D01*
X110533333Y-106769580D02*
X110485714Y-106817200D01*
X110485714Y-106817200D02*
X110342857Y-106864819D01*
X110342857Y-106864819D02*
X110247619Y-106864819D01*
X110247619Y-106864819D02*
X110104762Y-106817200D01*
X110104762Y-106817200D02*
X110009524Y-106721961D01*
X110009524Y-106721961D02*
X109961905Y-106626723D01*
X109961905Y-106626723D02*
X109914286Y-106436247D01*
X109914286Y-106436247D02*
X109914286Y-106293390D01*
X109914286Y-106293390D02*
X109961905Y-106102914D01*
X109961905Y-106102914D02*
X110009524Y-106007676D01*
X110009524Y-106007676D02*
X110104762Y-105912438D01*
X110104762Y-105912438D02*
X110247619Y-105864819D01*
X110247619Y-105864819D02*
X110342857Y-105864819D01*
X110342857Y-105864819D02*
X110485714Y-105912438D01*
X110485714Y-105912438D02*
X110533333Y-105960057D01*
X111104762Y-106293390D02*
X111009524Y-106245771D01*
X111009524Y-106245771D02*
X110961905Y-106198152D01*
X110961905Y-106198152D02*
X110914286Y-106102914D01*
X110914286Y-106102914D02*
X110914286Y-106055295D01*
X110914286Y-106055295D02*
X110961905Y-105960057D01*
X110961905Y-105960057D02*
X111009524Y-105912438D01*
X111009524Y-105912438D02*
X111104762Y-105864819D01*
X111104762Y-105864819D02*
X111295238Y-105864819D01*
X111295238Y-105864819D02*
X111390476Y-105912438D01*
X111390476Y-105912438D02*
X111438095Y-105960057D01*
X111438095Y-105960057D02*
X111485714Y-106055295D01*
X111485714Y-106055295D02*
X111485714Y-106102914D01*
X111485714Y-106102914D02*
X111438095Y-106198152D01*
X111438095Y-106198152D02*
X111390476Y-106245771D01*
X111390476Y-106245771D02*
X111295238Y-106293390D01*
X111295238Y-106293390D02*
X111104762Y-106293390D01*
X111104762Y-106293390D02*
X111009524Y-106341009D01*
X111009524Y-106341009D02*
X110961905Y-106388628D01*
X110961905Y-106388628D02*
X110914286Y-106483866D01*
X110914286Y-106483866D02*
X110914286Y-106674342D01*
X110914286Y-106674342D02*
X110961905Y-106769580D01*
X110961905Y-106769580D02*
X111009524Y-106817200D01*
X111009524Y-106817200D02*
X111104762Y-106864819D01*
X111104762Y-106864819D02*
X111295238Y-106864819D01*
X111295238Y-106864819D02*
X111390476Y-106817200D01*
X111390476Y-106817200D02*
X111438095Y-106769580D01*
X111438095Y-106769580D02*
X111485714Y-106674342D01*
X111485714Y-106674342D02*
X111485714Y-106483866D01*
X111485714Y-106483866D02*
X111438095Y-106388628D01*
X111438095Y-106388628D02*
X111390476Y-106341009D01*
X111390476Y-106341009D02*
X111295238Y-106293390D01*
X140186666Y-102941009D02*
X139853333Y-102941009D01*
X139853333Y-103464819D02*
X139853333Y-102464819D01*
X139853333Y-102464819D02*
X140329523Y-102464819D01*
X141234285Y-103464819D02*
X140662857Y-103464819D01*
X140948571Y-103464819D02*
X140948571Y-102464819D01*
X140948571Y-102464819D02*
X140853333Y-102607676D01*
X140853333Y-102607676D02*
X140758095Y-102702914D01*
X140758095Y-102702914D02*
X140662857Y-102750533D01*
X177075905Y-98528819D02*
X177075905Y-97528819D01*
X177075905Y-97528819D02*
X177314000Y-97528819D01*
X177314000Y-97528819D02*
X177456857Y-97576438D01*
X177456857Y-97576438D02*
X177552095Y-97671676D01*
X177552095Y-97671676D02*
X177599714Y-97766914D01*
X177599714Y-97766914D02*
X177647333Y-97957390D01*
X177647333Y-97957390D02*
X177647333Y-98100247D01*
X177647333Y-98100247D02*
X177599714Y-98290723D01*
X177599714Y-98290723D02*
X177552095Y-98385961D01*
X177552095Y-98385961D02*
X177456857Y-98481200D01*
X177456857Y-98481200D02*
X177314000Y-98528819D01*
X177314000Y-98528819D02*
X177075905Y-98528819D01*
X177980667Y-97528819D02*
X178647333Y-97528819D01*
X178647333Y-97528819D02*
X178218762Y-98528819D01*
X112269405Y-113064819D02*
X112269405Y-112064819D01*
X112269405Y-112064819D02*
X112507500Y-112064819D01*
X112507500Y-112064819D02*
X112650357Y-112112438D01*
X112650357Y-112112438D02*
X112745595Y-112207676D01*
X112745595Y-112207676D02*
X112793214Y-112302914D01*
X112793214Y-112302914D02*
X112840833Y-112493390D01*
X112840833Y-112493390D02*
X112840833Y-112636247D01*
X112840833Y-112636247D02*
X112793214Y-112826723D01*
X112793214Y-112826723D02*
X112745595Y-112921961D01*
X112745595Y-112921961D02*
X112650357Y-113017200D01*
X112650357Y-113017200D02*
X112507500Y-113064819D01*
X112507500Y-113064819D02*
X112269405Y-113064819D01*
X113697976Y-112064819D02*
X113507500Y-112064819D01*
X113507500Y-112064819D02*
X113412262Y-112112438D01*
X113412262Y-112112438D02*
X113364643Y-112160057D01*
X113364643Y-112160057D02*
X113269405Y-112302914D01*
X113269405Y-112302914D02*
X113221786Y-112493390D01*
X113221786Y-112493390D02*
X113221786Y-112874342D01*
X113221786Y-112874342D02*
X113269405Y-112969580D01*
X113269405Y-112969580D02*
X113317024Y-113017200D01*
X113317024Y-113017200D02*
X113412262Y-113064819D01*
X113412262Y-113064819D02*
X113602738Y-113064819D01*
X113602738Y-113064819D02*
X113697976Y-113017200D01*
X113697976Y-113017200D02*
X113745595Y-112969580D01*
X113745595Y-112969580D02*
X113793214Y-112874342D01*
X113793214Y-112874342D02*
X113793214Y-112636247D01*
X113793214Y-112636247D02*
X113745595Y-112541009D01*
X113745595Y-112541009D02*
X113697976Y-112493390D01*
X113697976Y-112493390D02*
X113602738Y-112445771D01*
X113602738Y-112445771D02*
X113412262Y-112445771D01*
X113412262Y-112445771D02*
X113317024Y-112493390D01*
X113317024Y-112493390D02*
X113269405Y-112541009D01*
X113269405Y-112541009D02*
X113221786Y-112636247D01*
X121484761Y-95440057D02*
X121389523Y-95392438D01*
X121389523Y-95392438D02*
X121294285Y-95297200D01*
X121294285Y-95297200D02*
X121151428Y-95154342D01*
X121151428Y-95154342D02*
X121056190Y-95106723D01*
X121056190Y-95106723D02*
X120960952Y-95106723D01*
X121008571Y-95344819D02*
X120913333Y-95297200D01*
X120913333Y-95297200D02*
X120818095Y-95201961D01*
X120818095Y-95201961D02*
X120770476Y-95011485D01*
X120770476Y-95011485D02*
X120770476Y-94678152D01*
X120770476Y-94678152D02*
X120818095Y-94487676D01*
X120818095Y-94487676D02*
X120913333Y-94392438D01*
X120913333Y-94392438D02*
X121008571Y-94344819D01*
X121008571Y-94344819D02*
X121199047Y-94344819D01*
X121199047Y-94344819D02*
X121294285Y-94392438D01*
X121294285Y-94392438D02*
X121389523Y-94487676D01*
X121389523Y-94487676D02*
X121437142Y-94678152D01*
X121437142Y-94678152D02*
X121437142Y-95011485D01*
X121437142Y-95011485D02*
X121389523Y-95201961D01*
X121389523Y-95201961D02*
X121294285Y-95297200D01*
X121294285Y-95297200D02*
X121199047Y-95344819D01*
X121199047Y-95344819D02*
X121008571Y-95344819D01*
X121818095Y-94440057D02*
X121865714Y-94392438D01*
X121865714Y-94392438D02*
X121960952Y-94344819D01*
X121960952Y-94344819D02*
X122199047Y-94344819D01*
X122199047Y-94344819D02*
X122294285Y-94392438D01*
X122294285Y-94392438D02*
X122341904Y-94440057D01*
X122341904Y-94440057D02*
X122389523Y-94535295D01*
X122389523Y-94535295D02*
X122389523Y-94630533D01*
X122389523Y-94630533D02*
X122341904Y-94773390D01*
X122341904Y-94773390D02*
X121770476Y-95344819D01*
X121770476Y-95344819D02*
X122389523Y-95344819D01*
X164768095Y-90164819D02*
X164768095Y-90974342D01*
X164768095Y-90974342D02*
X164815714Y-91069580D01*
X164815714Y-91069580D02*
X164863333Y-91117200D01*
X164863333Y-91117200D02*
X164958571Y-91164819D01*
X164958571Y-91164819D02*
X165149047Y-91164819D01*
X165149047Y-91164819D02*
X165244285Y-91117200D01*
X165244285Y-91117200D02*
X165291904Y-91069580D01*
X165291904Y-91069580D02*
X165339523Y-90974342D01*
X165339523Y-90974342D02*
X165339523Y-90164819D01*
X165958571Y-90593390D02*
X165863333Y-90545771D01*
X165863333Y-90545771D02*
X165815714Y-90498152D01*
X165815714Y-90498152D02*
X165768095Y-90402914D01*
X165768095Y-90402914D02*
X165768095Y-90355295D01*
X165768095Y-90355295D02*
X165815714Y-90260057D01*
X165815714Y-90260057D02*
X165863333Y-90212438D01*
X165863333Y-90212438D02*
X165958571Y-90164819D01*
X165958571Y-90164819D02*
X166149047Y-90164819D01*
X166149047Y-90164819D02*
X166244285Y-90212438D01*
X166244285Y-90212438D02*
X166291904Y-90260057D01*
X166291904Y-90260057D02*
X166339523Y-90355295D01*
X166339523Y-90355295D02*
X166339523Y-90402914D01*
X166339523Y-90402914D02*
X166291904Y-90498152D01*
X166291904Y-90498152D02*
X166244285Y-90545771D01*
X166244285Y-90545771D02*
X166149047Y-90593390D01*
X166149047Y-90593390D02*
X165958571Y-90593390D01*
X165958571Y-90593390D02*
X165863333Y-90641009D01*
X165863333Y-90641009D02*
X165815714Y-90688628D01*
X165815714Y-90688628D02*
X165768095Y-90783866D01*
X165768095Y-90783866D02*
X165768095Y-90974342D01*
X165768095Y-90974342D02*
X165815714Y-91069580D01*
X165815714Y-91069580D02*
X165863333Y-91117200D01*
X165863333Y-91117200D02*
X165958571Y-91164819D01*
X165958571Y-91164819D02*
X166149047Y-91164819D01*
X166149047Y-91164819D02*
X166244285Y-91117200D01*
X166244285Y-91117200D02*
X166291904Y-91069580D01*
X166291904Y-91069580D02*
X166339523Y-90974342D01*
X166339523Y-90974342D02*
X166339523Y-90783866D01*
X166339523Y-90783866D02*
X166291904Y-90688628D01*
X166291904Y-90688628D02*
X166244285Y-90641009D01*
X166244285Y-90641009D02*
X166149047Y-90593390D01*
X171677142Y-109909580D02*
X171629523Y-109957200D01*
X171629523Y-109957200D02*
X171486666Y-110004819D01*
X171486666Y-110004819D02*
X171391428Y-110004819D01*
X171391428Y-110004819D02*
X171248571Y-109957200D01*
X171248571Y-109957200D02*
X171153333Y-109861961D01*
X171153333Y-109861961D02*
X171105714Y-109766723D01*
X171105714Y-109766723D02*
X171058095Y-109576247D01*
X171058095Y-109576247D02*
X171058095Y-109433390D01*
X171058095Y-109433390D02*
X171105714Y-109242914D01*
X171105714Y-109242914D02*
X171153333Y-109147676D01*
X171153333Y-109147676D02*
X171248571Y-109052438D01*
X171248571Y-109052438D02*
X171391428Y-109004819D01*
X171391428Y-109004819D02*
X171486666Y-109004819D01*
X171486666Y-109004819D02*
X171629523Y-109052438D01*
X171629523Y-109052438D02*
X171677142Y-109100057D01*
X172629523Y-110004819D02*
X172058095Y-110004819D01*
X172343809Y-110004819D02*
X172343809Y-109004819D01*
X172343809Y-109004819D02*
X172248571Y-109147676D01*
X172248571Y-109147676D02*
X172153333Y-109242914D01*
X172153333Y-109242914D02*
X172058095Y-109290533D01*
X172962857Y-109004819D02*
X173581904Y-109004819D01*
X173581904Y-109004819D02*
X173248571Y-109385771D01*
X173248571Y-109385771D02*
X173391428Y-109385771D01*
X173391428Y-109385771D02*
X173486666Y-109433390D01*
X173486666Y-109433390D02*
X173534285Y-109481009D01*
X173534285Y-109481009D02*
X173581904Y-109576247D01*
X173581904Y-109576247D02*
X173581904Y-109814342D01*
X173581904Y-109814342D02*
X173534285Y-109909580D01*
X173534285Y-109909580D02*
X173486666Y-109957200D01*
X173486666Y-109957200D02*
X173391428Y-110004819D01*
X173391428Y-110004819D02*
X173105714Y-110004819D01*
X173105714Y-110004819D02*
X173010476Y-109957200D01*
X173010476Y-109957200D02*
X172962857Y-109909580D01*
X115893095Y-99122819D02*
X115893095Y-99932342D01*
X115893095Y-99932342D02*
X115940714Y-100027580D01*
X115940714Y-100027580D02*
X115988333Y-100075200D01*
X115988333Y-100075200D02*
X116083571Y-100122819D01*
X116083571Y-100122819D02*
X116274047Y-100122819D01*
X116274047Y-100122819D02*
X116369285Y-100075200D01*
X116369285Y-100075200D02*
X116416904Y-100027580D01*
X116416904Y-100027580D02*
X116464523Y-99932342D01*
X116464523Y-99932342D02*
X116464523Y-99122819D01*
X116845476Y-99122819D02*
X117464523Y-99122819D01*
X117464523Y-99122819D02*
X117131190Y-99503771D01*
X117131190Y-99503771D02*
X117274047Y-99503771D01*
X117274047Y-99503771D02*
X117369285Y-99551390D01*
X117369285Y-99551390D02*
X117416904Y-99599009D01*
X117416904Y-99599009D02*
X117464523Y-99694247D01*
X117464523Y-99694247D02*
X117464523Y-99932342D01*
X117464523Y-99932342D02*
X117416904Y-100027580D01*
X117416904Y-100027580D02*
X117369285Y-100075200D01*
X117369285Y-100075200D02*
X117274047Y-100122819D01*
X117274047Y-100122819D02*
X116988333Y-100122819D01*
X116988333Y-100122819D02*
X116893095Y-100075200D01*
X116893095Y-100075200D02*
X116845476Y-100027580D01*
X169687095Y-97216819D02*
X169687095Y-98026342D01*
X169687095Y-98026342D02*
X169734714Y-98121580D01*
X169734714Y-98121580D02*
X169782333Y-98169200D01*
X169782333Y-98169200D02*
X169877571Y-98216819D01*
X169877571Y-98216819D02*
X170068047Y-98216819D01*
X170068047Y-98216819D02*
X170163285Y-98169200D01*
X170163285Y-98169200D02*
X170210904Y-98121580D01*
X170210904Y-98121580D02*
X170258523Y-98026342D01*
X170258523Y-98026342D02*
X170258523Y-97216819D01*
X171210904Y-97216819D02*
X170734714Y-97216819D01*
X170734714Y-97216819D02*
X170687095Y-97693009D01*
X170687095Y-97693009D02*
X170734714Y-97645390D01*
X170734714Y-97645390D02*
X170829952Y-97597771D01*
X170829952Y-97597771D02*
X171068047Y-97597771D01*
X171068047Y-97597771D02*
X171163285Y-97645390D01*
X171163285Y-97645390D02*
X171210904Y-97693009D01*
X171210904Y-97693009D02*
X171258523Y-97788247D01*
X171258523Y-97788247D02*
X171258523Y-98026342D01*
X171258523Y-98026342D02*
X171210904Y-98121580D01*
X171210904Y-98121580D02*
X171163285Y-98169200D01*
X171163285Y-98169200D02*
X171068047Y-98216819D01*
X171068047Y-98216819D02*
X170829952Y-98216819D01*
X170829952Y-98216819D02*
X170734714Y-98169200D01*
X170734714Y-98169200D02*
X170687095Y-98121580D01*
X147819580Y-90586666D02*
X147867200Y-90634285D01*
X147867200Y-90634285D02*
X147914819Y-90777142D01*
X147914819Y-90777142D02*
X147914819Y-90872380D01*
X147914819Y-90872380D02*
X147867200Y-91015237D01*
X147867200Y-91015237D02*
X147771961Y-91110475D01*
X147771961Y-91110475D02*
X147676723Y-91158094D01*
X147676723Y-91158094D02*
X147486247Y-91205713D01*
X147486247Y-91205713D02*
X147343390Y-91205713D01*
X147343390Y-91205713D02*
X147152914Y-91158094D01*
X147152914Y-91158094D02*
X147057676Y-91110475D01*
X147057676Y-91110475D02*
X146962438Y-91015237D01*
X146962438Y-91015237D02*
X146914819Y-90872380D01*
X146914819Y-90872380D02*
X146914819Y-90777142D01*
X146914819Y-90777142D02*
X146962438Y-90634285D01*
X146962438Y-90634285D02*
X147010057Y-90586666D01*
X146914819Y-89681904D02*
X146914819Y-90158094D01*
X146914819Y-90158094D02*
X147391009Y-90205713D01*
X147391009Y-90205713D02*
X147343390Y-90158094D01*
X147343390Y-90158094D02*
X147295771Y-90062856D01*
X147295771Y-90062856D02*
X147295771Y-89824761D01*
X147295771Y-89824761D02*
X147343390Y-89729523D01*
X147343390Y-89729523D02*
X147391009Y-89681904D01*
X147391009Y-89681904D02*
X147486247Y-89634285D01*
X147486247Y-89634285D02*
X147724342Y-89634285D01*
X147724342Y-89634285D02*
X147819580Y-89681904D01*
X147819580Y-89681904D02*
X147867200Y-89729523D01*
X147867200Y-89729523D02*
X147914819Y-89824761D01*
X147914819Y-89824761D02*
X147914819Y-90062856D01*
X147914819Y-90062856D02*
X147867200Y-90158094D01*
X147867200Y-90158094D02*
X147819580Y-90205713D01*
X164576666Y-113714819D02*
X164576666Y-114429104D01*
X164576666Y-114429104D02*
X164529047Y-114571961D01*
X164529047Y-114571961D02*
X164433809Y-114667200D01*
X164433809Y-114667200D02*
X164290952Y-114714819D01*
X164290952Y-114714819D02*
X164195714Y-114714819D01*
X165005238Y-113810057D02*
X165052857Y-113762438D01*
X165052857Y-113762438D02*
X165148095Y-113714819D01*
X165148095Y-113714819D02*
X165386190Y-113714819D01*
X165386190Y-113714819D02*
X165481428Y-113762438D01*
X165481428Y-113762438D02*
X165529047Y-113810057D01*
X165529047Y-113810057D02*
X165576666Y-113905295D01*
X165576666Y-113905295D02*
X165576666Y-114000533D01*
X165576666Y-114000533D02*
X165529047Y-114143390D01*
X165529047Y-114143390D02*
X164957619Y-114714819D01*
X164957619Y-114714819D02*
X165576666Y-114714819D01*
X180403333Y-102754819D02*
X180070000Y-102278628D01*
X179831905Y-102754819D02*
X179831905Y-101754819D01*
X179831905Y-101754819D02*
X180212857Y-101754819D01*
X180212857Y-101754819D02*
X180308095Y-101802438D01*
X180308095Y-101802438D02*
X180355714Y-101850057D01*
X180355714Y-101850057D02*
X180403333Y-101945295D01*
X180403333Y-101945295D02*
X180403333Y-102088152D01*
X180403333Y-102088152D02*
X180355714Y-102183390D01*
X180355714Y-102183390D02*
X180308095Y-102231009D01*
X180308095Y-102231009D02*
X180212857Y-102278628D01*
X180212857Y-102278628D02*
X179831905Y-102278628D01*
X180974762Y-102183390D02*
X180879524Y-102135771D01*
X180879524Y-102135771D02*
X180831905Y-102088152D01*
X180831905Y-102088152D02*
X180784286Y-101992914D01*
X180784286Y-101992914D02*
X180784286Y-101945295D01*
X180784286Y-101945295D02*
X180831905Y-101850057D01*
X180831905Y-101850057D02*
X180879524Y-101802438D01*
X180879524Y-101802438D02*
X180974762Y-101754819D01*
X180974762Y-101754819D02*
X181165238Y-101754819D01*
X181165238Y-101754819D02*
X181260476Y-101802438D01*
X181260476Y-101802438D02*
X181308095Y-101850057D01*
X181308095Y-101850057D02*
X181355714Y-101945295D01*
X181355714Y-101945295D02*
X181355714Y-101992914D01*
X181355714Y-101992914D02*
X181308095Y-102088152D01*
X181308095Y-102088152D02*
X181260476Y-102135771D01*
X181260476Y-102135771D02*
X181165238Y-102183390D01*
X181165238Y-102183390D02*
X180974762Y-102183390D01*
X180974762Y-102183390D02*
X180879524Y-102231009D01*
X180879524Y-102231009D02*
X180831905Y-102278628D01*
X180831905Y-102278628D02*
X180784286Y-102373866D01*
X180784286Y-102373866D02*
X180784286Y-102564342D01*
X180784286Y-102564342D02*
X180831905Y-102659580D01*
X180831905Y-102659580D02*
X180879524Y-102707200D01*
X180879524Y-102707200D02*
X180974762Y-102754819D01*
X180974762Y-102754819D02*
X181165238Y-102754819D01*
X181165238Y-102754819D02*
X181260476Y-102707200D01*
X181260476Y-102707200D02*
X181308095Y-102659580D01*
X181308095Y-102659580D02*
X181355714Y-102564342D01*
X181355714Y-102564342D02*
X181355714Y-102373866D01*
X181355714Y-102373866D02*
X181308095Y-102278628D01*
X181308095Y-102278628D02*
X181260476Y-102231009D01*
X181260476Y-102231009D02*
X181165238Y-102183390D01*
X110533333Y-98029580D02*
X110485714Y-98077200D01*
X110485714Y-98077200D02*
X110342857Y-98124819D01*
X110342857Y-98124819D02*
X110247619Y-98124819D01*
X110247619Y-98124819D02*
X110104762Y-98077200D01*
X110104762Y-98077200D02*
X110009524Y-97981961D01*
X110009524Y-97981961D02*
X109961905Y-97886723D01*
X109961905Y-97886723D02*
X109914286Y-97696247D01*
X109914286Y-97696247D02*
X109914286Y-97553390D01*
X109914286Y-97553390D02*
X109961905Y-97362914D01*
X109961905Y-97362914D02*
X110009524Y-97267676D01*
X110009524Y-97267676D02*
X110104762Y-97172438D01*
X110104762Y-97172438D02*
X110247619Y-97124819D01*
X110247619Y-97124819D02*
X110342857Y-97124819D01*
X110342857Y-97124819D02*
X110485714Y-97172438D01*
X110485714Y-97172438D02*
X110533333Y-97220057D01*
X110866667Y-97124819D02*
X111533333Y-97124819D01*
X111533333Y-97124819D02*
X111104762Y-98124819D01*
X171081142Y-94968819D02*
X170747809Y-94492628D01*
X170509714Y-94968819D02*
X170509714Y-93968819D01*
X170509714Y-93968819D02*
X170890666Y-93968819D01*
X170890666Y-93968819D02*
X170985904Y-94016438D01*
X170985904Y-94016438D02*
X171033523Y-94064057D01*
X171033523Y-94064057D02*
X171081142Y-94159295D01*
X171081142Y-94159295D02*
X171081142Y-94302152D01*
X171081142Y-94302152D02*
X171033523Y-94397390D01*
X171033523Y-94397390D02*
X170985904Y-94445009D01*
X170985904Y-94445009D02*
X170890666Y-94492628D01*
X170890666Y-94492628D02*
X170509714Y-94492628D01*
X172033523Y-94968819D02*
X171462095Y-94968819D01*
X171747809Y-94968819D02*
X171747809Y-93968819D01*
X171747809Y-93968819D02*
X171652571Y-94111676D01*
X171652571Y-94111676D02*
X171557333Y-94206914D01*
X171557333Y-94206914D02*
X171462095Y-94254533D01*
X172366857Y-93968819D02*
X172985904Y-93968819D01*
X172985904Y-93968819D02*
X172652571Y-94349771D01*
X172652571Y-94349771D02*
X172795428Y-94349771D01*
X172795428Y-94349771D02*
X172890666Y-94397390D01*
X172890666Y-94397390D02*
X172938285Y-94445009D01*
X172938285Y-94445009D02*
X172985904Y-94540247D01*
X172985904Y-94540247D02*
X172985904Y-94778342D01*
X172985904Y-94778342D02*
X172938285Y-94873580D01*
X172938285Y-94873580D02*
X172890666Y-94921200D01*
X172890666Y-94921200D02*
X172795428Y-94968819D01*
X172795428Y-94968819D02*
X172509714Y-94968819D01*
X172509714Y-94968819D02*
X172414476Y-94921200D01*
X172414476Y-94921200D02*
X172366857Y-94873580D01*
X166049905Y-110028819D02*
X166049905Y-109028819D01*
X166049905Y-109028819D02*
X166288000Y-109028819D01*
X166288000Y-109028819D02*
X166430857Y-109076438D01*
X166430857Y-109076438D02*
X166526095Y-109171676D01*
X166526095Y-109171676D02*
X166573714Y-109266914D01*
X166573714Y-109266914D02*
X166621333Y-109457390D01*
X166621333Y-109457390D02*
X166621333Y-109600247D01*
X166621333Y-109600247D02*
X166573714Y-109790723D01*
X166573714Y-109790723D02*
X166526095Y-109885961D01*
X166526095Y-109885961D02*
X166430857Y-109981200D01*
X166430857Y-109981200D02*
X166288000Y-110028819D01*
X166288000Y-110028819D02*
X166049905Y-110028819D01*
X167192762Y-109457390D02*
X167097524Y-109409771D01*
X167097524Y-109409771D02*
X167049905Y-109362152D01*
X167049905Y-109362152D02*
X167002286Y-109266914D01*
X167002286Y-109266914D02*
X167002286Y-109219295D01*
X167002286Y-109219295D02*
X167049905Y-109124057D01*
X167049905Y-109124057D02*
X167097524Y-109076438D01*
X167097524Y-109076438D02*
X167192762Y-109028819D01*
X167192762Y-109028819D02*
X167383238Y-109028819D01*
X167383238Y-109028819D02*
X167478476Y-109076438D01*
X167478476Y-109076438D02*
X167526095Y-109124057D01*
X167526095Y-109124057D02*
X167573714Y-109219295D01*
X167573714Y-109219295D02*
X167573714Y-109266914D01*
X167573714Y-109266914D02*
X167526095Y-109362152D01*
X167526095Y-109362152D02*
X167478476Y-109409771D01*
X167478476Y-109409771D02*
X167383238Y-109457390D01*
X167383238Y-109457390D02*
X167192762Y-109457390D01*
X167192762Y-109457390D02*
X167097524Y-109505009D01*
X167097524Y-109505009D02*
X167049905Y-109552628D01*
X167049905Y-109552628D02*
X167002286Y-109647866D01*
X167002286Y-109647866D02*
X167002286Y-109838342D01*
X167002286Y-109838342D02*
X167049905Y-109933580D01*
X167049905Y-109933580D02*
X167097524Y-109981200D01*
X167097524Y-109981200D02*
X167192762Y-110028819D01*
X167192762Y-110028819D02*
X167383238Y-110028819D01*
X167383238Y-110028819D02*
X167478476Y-109981200D01*
X167478476Y-109981200D02*
X167526095Y-109933580D01*
X167526095Y-109933580D02*
X167573714Y-109838342D01*
X167573714Y-109838342D02*
X167573714Y-109647866D01*
X167573714Y-109647866D02*
X167526095Y-109552628D01*
X167526095Y-109552628D02*
X167478476Y-109505009D01*
X167478476Y-109505009D02*
X167383238Y-109457390D01*
X162749580Y-92166666D02*
X162797200Y-92214285D01*
X162797200Y-92214285D02*
X162844819Y-92357142D01*
X162844819Y-92357142D02*
X162844819Y-92452380D01*
X162844819Y-92452380D02*
X162797200Y-92595237D01*
X162797200Y-92595237D02*
X162701961Y-92690475D01*
X162701961Y-92690475D02*
X162606723Y-92738094D01*
X162606723Y-92738094D02*
X162416247Y-92785713D01*
X162416247Y-92785713D02*
X162273390Y-92785713D01*
X162273390Y-92785713D02*
X162082914Y-92738094D01*
X162082914Y-92738094D02*
X161987676Y-92690475D01*
X161987676Y-92690475D02*
X161892438Y-92595237D01*
X161892438Y-92595237D02*
X161844819Y-92452380D01*
X161844819Y-92452380D02*
X161844819Y-92357142D01*
X161844819Y-92357142D02*
X161892438Y-92214285D01*
X161892438Y-92214285D02*
X161940057Y-92166666D01*
X161844819Y-91309523D02*
X161844819Y-91499999D01*
X161844819Y-91499999D02*
X161892438Y-91595237D01*
X161892438Y-91595237D02*
X161940057Y-91642856D01*
X161940057Y-91642856D02*
X162082914Y-91738094D01*
X162082914Y-91738094D02*
X162273390Y-91785713D01*
X162273390Y-91785713D02*
X162654342Y-91785713D01*
X162654342Y-91785713D02*
X162749580Y-91738094D01*
X162749580Y-91738094D02*
X162797200Y-91690475D01*
X162797200Y-91690475D02*
X162844819Y-91595237D01*
X162844819Y-91595237D02*
X162844819Y-91404761D01*
X162844819Y-91404761D02*
X162797200Y-91309523D01*
X162797200Y-91309523D02*
X162749580Y-91261904D01*
X162749580Y-91261904D02*
X162654342Y-91214285D01*
X162654342Y-91214285D02*
X162416247Y-91214285D01*
X162416247Y-91214285D02*
X162321009Y-91261904D01*
X162321009Y-91261904D02*
X162273390Y-91309523D01*
X162273390Y-91309523D02*
X162225771Y-91404761D01*
X162225771Y-91404761D02*
X162225771Y-91595237D01*
X162225771Y-91595237D02*
X162273390Y-91690475D01*
X162273390Y-91690475D02*
X162321009Y-91738094D01*
X162321009Y-91738094D02*
X162416247Y-91785713D01*
X164291142Y-98968819D02*
X163957809Y-98492628D01*
X163719714Y-98968819D02*
X163719714Y-97968819D01*
X163719714Y-97968819D02*
X164100666Y-97968819D01*
X164100666Y-97968819D02*
X164195904Y-98016438D01*
X164195904Y-98016438D02*
X164243523Y-98064057D01*
X164243523Y-98064057D02*
X164291142Y-98159295D01*
X164291142Y-98159295D02*
X164291142Y-98302152D01*
X164291142Y-98302152D02*
X164243523Y-98397390D01*
X164243523Y-98397390D02*
X164195904Y-98445009D01*
X164195904Y-98445009D02*
X164100666Y-98492628D01*
X164100666Y-98492628D02*
X163719714Y-98492628D01*
X165243523Y-98968819D02*
X164672095Y-98968819D01*
X164957809Y-98968819D02*
X164957809Y-97968819D01*
X164957809Y-97968819D02*
X164862571Y-98111676D01*
X164862571Y-98111676D02*
X164767333Y-98206914D01*
X164767333Y-98206914D02*
X164672095Y-98254533D01*
X166148285Y-97968819D02*
X165672095Y-97968819D01*
X165672095Y-97968819D02*
X165624476Y-98445009D01*
X165624476Y-98445009D02*
X165672095Y-98397390D01*
X165672095Y-98397390D02*
X165767333Y-98349771D01*
X165767333Y-98349771D02*
X166005428Y-98349771D01*
X166005428Y-98349771D02*
X166100666Y-98397390D01*
X166100666Y-98397390D02*
X166148285Y-98445009D01*
X166148285Y-98445009D02*
X166195904Y-98540247D01*
X166195904Y-98540247D02*
X166195904Y-98778342D01*
X166195904Y-98778342D02*
X166148285Y-98873580D01*
X166148285Y-98873580D02*
X166100666Y-98921200D01*
X166100666Y-98921200D02*
X166005428Y-98968819D01*
X166005428Y-98968819D02*
X165767333Y-98968819D01*
X165767333Y-98968819D02*
X165672095Y-98921200D01*
X165672095Y-98921200D02*
X165624476Y-98873580D01*
X115814819Y-98142857D02*
X115338628Y-98476190D01*
X115814819Y-98714285D02*
X114814819Y-98714285D01*
X114814819Y-98714285D02*
X114814819Y-98333333D01*
X114814819Y-98333333D02*
X114862438Y-98238095D01*
X114862438Y-98238095D02*
X114910057Y-98190476D01*
X114910057Y-98190476D02*
X115005295Y-98142857D01*
X115005295Y-98142857D02*
X115148152Y-98142857D01*
X115148152Y-98142857D02*
X115243390Y-98190476D01*
X115243390Y-98190476D02*
X115291009Y-98238095D01*
X115291009Y-98238095D02*
X115338628Y-98333333D01*
X115338628Y-98333333D02*
X115338628Y-98714285D01*
X115814819Y-97190476D02*
X115814819Y-97761904D01*
X115814819Y-97476190D02*
X114814819Y-97476190D01*
X114814819Y-97476190D02*
X114957676Y-97571428D01*
X114957676Y-97571428D02*
X115052914Y-97666666D01*
X115052914Y-97666666D02*
X115100533Y-97761904D01*
X115814819Y-96238095D02*
X115814819Y-96809523D01*
X115814819Y-96523809D02*
X114814819Y-96523809D01*
X114814819Y-96523809D02*
X114957676Y-96619047D01*
X114957676Y-96619047D02*
X115052914Y-96714285D01*
X115052914Y-96714285D02*
X115100533Y-96809523D01*
X133857142Y-87884819D02*
X133523809Y-87408628D01*
X133285714Y-87884819D02*
X133285714Y-86884819D01*
X133285714Y-86884819D02*
X133666666Y-86884819D01*
X133666666Y-86884819D02*
X133761904Y-86932438D01*
X133761904Y-86932438D02*
X133809523Y-86980057D01*
X133809523Y-86980057D02*
X133857142Y-87075295D01*
X133857142Y-87075295D02*
X133857142Y-87218152D01*
X133857142Y-87218152D02*
X133809523Y-87313390D01*
X133809523Y-87313390D02*
X133761904Y-87361009D01*
X133761904Y-87361009D02*
X133666666Y-87408628D01*
X133666666Y-87408628D02*
X133285714Y-87408628D01*
X134238095Y-86980057D02*
X134285714Y-86932438D01*
X134285714Y-86932438D02*
X134380952Y-86884819D01*
X134380952Y-86884819D02*
X134619047Y-86884819D01*
X134619047Y-86884819D02*
X134714285Y-86932438D01*
X134714285Y-86932438D02*
X134761904Y-86980057D01*
X134761904Y-86980057D02*
X134809523Y-87075295D01*
X134809523Y-87075295D02*
X134809523Y-87170533D01*
X134809523Y-87170533D02*
X134761904Y-87313390D01*
X134761904Y-87313390D02*
X134190476Y-87884819D01*
X134190476Y-87884819D02*
X134809523Y-87884819D01*
X135428571Y-86884819D02*
X135523809Y-86884819D01*
X135523809Y-86884819D02*
X135619047Y-86932438D01*
X135619047Y-86932438D02*
X135666666Y-86980057D01*
X135666666Y-86980057D02*
X135714285Y-87075295D01*
X135714285Y-87075295D02*
X135761904Y-87265771D01*
X135761904Y-87265771D02*
X135761904Y-87503866D01*
X135761904Y-87503866D02*
X135714285Y-87694342D01*
X135714285Y-87694342D02*
X135666666Y-87789580D01*
X135666666Y-87789580D02*
X135619047Y-87837200D01*
X135619047Y-87837200D02*
X135523809Y-87884819D01*
X135523809Y-87884819D02*
X135428571Y-87884819D01*
X135428571Y-87884819D02*
X135333333Y-87837200D01*
X135333333Y-87837200D02*
X135285714Y-87789580D01*
X135285714Y-87789580D02*
X135238095Y-87694342D01*
X135238095Y-87694342D02*
X135190476Y-87503866D01*
X135190476Y-87503866D02*
X135190476Y-87265771D01*
X135190476Y-87265771D02*
X135238095Y-87075295D01*
X135238095Y-87075295D02*
X135285714Y-86980057D01*
X135285714Y-86980057D02*
X135333333Y-86932438D01*
X135333333Y-86932438D02*
X135428571Y-86884819D01*
X126023333Y-104584819D02*
X125690000Y-104108628D01*
X125451905Y-104584819D02*
X125451905Y-103584819D01*
X125451905Y-103584819D02*
X125832857Y-103584819D01*
X125832857Y-103584819D02*
X125928095Y-103632438D01*
X125928095Y-103632438D02*
X125975714Y-103680057D01*
X125975714Y-103680057D02*
X126023333Y-103775295D01*
X126023333Y-103775295D02*
X126023333Y-103918152D01*
X126023333Y-103918152D02*
X125975714Y-104013390D01*
X125975714Y-104013390D02*
X125928095Y-104061009D01*
X125928095Y-104061009D02*
X125832857Y-104108628D01*
X125832857Y-104108628D02*
X125451905Y-104108628D01*
X126499524Y-104584819D02*
X126690000Y-104584819D01*
X126690000Y-104584819D02*
X126785238Y-104537200D01*
X126785238Y-104537200D02*
X126832857Y-104489580D01*
X126832857Y-104489580D02*
X126928095Y-104346723D01*
X126928095Y-104346723D02*
X126975714Y-104156247D01*
X126975714Y-104156247D02*
X126975714Y-103775295D01*
X126975714Y-103775295D02*
X126928095Y-103680057D01*
X126928095Y-103680057D02*
X126880476Y-103632438D01*
X126880476Y-103632438D02*
X126785238Y-103584819D01*
X126785238Y-103584819D02*
X126594762Y-103584819D01*
X126594762Y-103584819D02*
X126499524Y-103632438D01*
X126499524Y-103632438D02*
X126451905Y-103680057D01*
X126451905Y-103680057D02*
X126404286Y-103775295D01*
X126404286Y-103775295D02*
X126404286Y-104013390D01*
X126404286Y-104013390D02*
X126451905Y-104108628D01*
X126451905Y-104108628D02*
X126499524Y-104156247D01*
X126499524Y-104156247D02*
X126594762Y-104203866D01*
X126594762Y-104203866D02*
X126785238Y-104203866D01*
X126785238Y-104203866D02*
X126880476Y-104156247D01*
X126880476Y-104156247D02*
X126928095Y-104108628D01*
X126928095Y-104108628D02*
X126975714Y-104013390D01*
X124183333Y-106684819D02*
X123850000Y-106208628D01*
X123611905Y-106684819D02*
X123611905Y-105684819D01*
X123611905Y-105684819D02*
X123992857Y-105684819D01*
X123992857Y-105684819D02*
X124088095Y-105732438D01*
X124088095Y-105732438D02*
X124135714Y-105780057D01*
X124135714Y-105780057D02*
X124183333Y-105875295D01*
X124183333Y-105875295D02*
X124183333Y-106018152D01*
X124183333Y-106018152D02*
X124135714Y-106113390D01*
X124135714Y-106113390D02*
X124088095Y-106161009D01*
X124088095Y-106161009D02*
X123992857Y-106208628D01*
X123992857Y-106208628D02*
X123611905Y-106208628D01*
X124516667Y-105684819D02*
X125183333Y-105684819D01*
X125183333Y-105684819D02*
X124754762Y-106684819D01*
X117027142Y-96994819D02*
X116693809Y-96518628D01*
X116455714Y-96994819D02*
X116455714Y-95994819D01*
X116455714Y-95994819D02*
X116836666Y-95994819D01*
X116836666Y-95994819D02*
X116931904Y-96042438D01*
X116931904Y-96042438D02*
X116979523Y-96090057D01*
X116979523Y-96090057D02*
X117027142Y-96185295D01*
X117027142Y-96185295D02*
X117027142Y-96328152D01*
X117027142Y-96328152D02*
X116979523Y-96423390D01*
X116979523Y-96423390D02*
X116931904Y-96471009D01*
X116931904Y-96471009D02*
X116836666Y-96518628D01*
X116836666Y-96518628D02*
X116455714Y-96518628D01*
X117979523Y-96994819D02*
X117408095Y-96994819D01*
X117693809Y-96994819D02*
X117693809Y-95994819D01*
X117693809Y-95994819D02*
X117598571Y-96137676D01*
X117598571Y-96137676D02*
X117503333Y-96232914D01*
X117503333Y-96232914D02*
X117408095Y-96280533D01*
X118598571Y-95994819D02*
X118693809Y-95994819D01*
X118693809Y-95994819D02*
X118789047Y-96042438D01*
X118789047Y-96042438D02*
X118836666Y-96090057D01*
X118836666Y-96090057D02*
X118884285Y-96185295D01*
X118884285Y-96185295D02*
X118931904Y-96375771D01*
X118931904Y-96375771D02*
X118931904Y-96613866D01*
X118931904Y-96613866D02*
X118884285Y-96804342D01*
X118884285Y-96804342D02*
X118836666Y-96899580D01*
X118836666Y-96899580D02*
X118789047Y-96947200D01*
X118789047Y-96947200D02*
X118693809Y-96994819D01*
X118693809Y-96994819D02*
X118598571Y-96994819D01*
X118598571Y-96994819D02*
X118503333Y-96947200D01*
X118503333Y-96947200D02*
X118455714Y-96899580D01*
X118455714Y-96899580D02*
X118408095Y-96804342D01*
X118408095Y-96804342D02*
X118360476Y-96613866D01*
X118360476Y-96613866D02*
X118360476Y-96375771D01*
X118360476Y-96375771D02*
X118408095Y-96185295D01*
X118408095Y-96185295D02*
X118455714Y-96090057D01*
X118455714Y-96090057D02*
X118503333Y-96042438D01*
X118503333Y-96042438D02*
X118598571Y-95994819D01*
X150884819Y-88101904D02*
X151694342Y-88101904D01*
X151694342Y-88101904D02*
X151789580Y-88054285D01*
X151789580Y-88054285D02*
X151837200Y-88006666D01*
X151837200Y-88006666D02*
X151884819Y-87911428D01*
X151884819Y-87911428D02*
X151884819Y-87720952D01*
X151884819Y-87720952D02*
X151837200Y-87625714D01*
X151837200Y-87625714D02*
X151789580Y-87578095D01*
X151789580Y-87578095D02*
X151694342Y-87530476D01*
X151694342Y-87530476D02*
X150884819Y-87530476D01*
X150980057Y-87101904D02*
X150932438Y-87054285D01*
X150932438Y-87054285D02*
X150884819Y-86959047D01*
X150884819Y-86959047D02*
X150884819Y-86720952D01*
X150884819Y-86720952D02*
X150932438Y-86625714D01*
X150932438Y-86625714D02*
X150980057Y-86578095D01*
X150980057Y-86578095D02*
X151075295Y-86530476D01*
X151075295Y-86530476D02*
X151170533Y-86530476D01*
X151170533Y-86530476D02*
X151313390Y-86578095D01*
X151313390Y-86578095D02*
X151884819Y-87149523D01*
X151884819Y-87149523D02*
X151884819Y-86530476D01*
X164207142Y-105049580D02*
X164159523Y-105097200D01*
X164159523Y-105097200D02*
X164016666Y-105144819D01*
X164016666Y-105144819D02*
X163921428Y-105144819D01*
X163921428Y-105144819D02*
X163778571Y-105097200D01*
X163778571Y-105097200D02*
X163683333Y-105001961D01*
X163683333Y-105001961D02*
X163635714Y-104906723D01*
X163635714Y-104906723D02*
X163588095Y-104716247D01*
X163588095Y-104716247D02*
X163588095Y-104573390D01*
X163588095Y-104573390D02*
X163635714Y-104382914D01*
X163635714Y-104382914D02*
X163683333Y-104287676D01*
X163683333Y-104287676D02*
X163778571Y-104192438D01*
X163778571Y-104192438D02*
X163921428Y-104144819D01*
X163921428Y-104144819D02*
X164016666Y-104144819D01*
X164016666Y-104144819D02*
X164159523Y-104192438D01*
X164159523Y-104192438D02*
X164207142Y-104240057D01*
X165159523Y-105144819D02*
X164588095Y-105144819D01*
X164873809Y-105144819D02*
X164873809Y-104144819D01*
X164873809Y-104144819D02*
X164778571Y-104287676D01*
X164778571Y-104287676D02*
X164683333Y-104382914D01*
X164683333Y-104382914D02*
X164588095Y-104430533D01*
X165540476Y-104240057D02*
X165588095Y-104192438D01*
X165588095Y-104192438D02*
X165683333Y-104144819D01*
X165683333Y-104144819D02*
X165921428Y-104144819D01*
X165921428Y-104144819D02*
X166016666Y-104192438D01*
X166016666Y-104192438D02*
X166064285Y-104240057D01*
X166064285Y-104240057D02*
X166111904Y-104335295D01*
X166111904Y-104335295D02*
X166111904Y-104430533D01*
X166111904Y-104430533D02*
X166064285Y-104573390D01*
X166064285Y-104573390D02*
X165492857Y-105144819D01*
X165492857Y-105144819D02*
X166111904Y-105144819D01*
X164221142Y-95823580D02*
X164173523Y-95871200D01*
X164173523Y-95871200D02*
X164030666Y-95918819D01*
X164030666Y-95918819D02*
X163935428Y-95918819D01*
X163935428Y-95918819D02*
X163792571Y-95871200D01*
X163792571Y-95871200D02*
X163697333Y-95775961D01*
X163697333Y-95775961D02*
X163649714Y-95680723D01*
X163649714Y-95680723D02*
X163602095Y-95490247D01*
X163602095Y-95490247D02*
X163602095Y-95347390D01*
X163602095Y-95347390D02*
X163649714Y-95156914D01*
X163649714Y-95156914D02*
X163697333Y-95061676D01*
X163697333Y-95061676D02*
X163792571Y-94966438D01*
X163792571Y-94966438D02*
X163935428Y-94918819D01*
X163935428Y-94918819D02*
X164030666Y-94918819D01*
X164030666Y-94918819D02*
X164173523Y-94966438D01*
X164173523Y-94966438D02*
X164221142Y-95014057D01*
X165173523Y-95918819D02*
X164602095Y-95918819D01*
X164887809Y-95918819D02*
X164887809Y-94918819D01*
X164887809Y-94918819D02*
X164792571Y-95061676D01*
X164792571Y-95061676D02*
X164697333Y-95156914D01*
X164697333Y-95156914D02*
X164602095Y-95204533D01*
X166125904Y-95918819D02*
X165554476Y-95918819D01*
X165840190Y-95918819D02*
X165840190Y-94918819D01*
X165840190Y-94918819D02*
X165744952Y-95061676D01*
X165744952Y-95061676D02*
X165649714Y-95156914D01*
X165649714Y-95156914D02*
X165554476Y-95204533D01*
X173658095Y-86024819D02*
X173658095Y-86834342D01*
X173658095Y-86834342D02*
X173705714Y-86929580D01*
X173705714Y-86929580D02*
X173753333Y-86977200D01*
X173753333Y-86977200D02*
X173848571Y-87024819D01*
X173848571Y-87024819D02*
X174039047Y-87024819D01*
X174039047Y-87024819D02*
X174134285Y-86977200D01*
X174134285Y-86977200D02*
X174181904Y-86929580D01*
X174181904Y-86929580D02*
X174229523Y-86834342D01*
X174229523Y-86834342D02*
X174229523Y-86024819D01*
X174610476Y-86024819D02*
X175277142Y-86024819D01*
X175277142Y-86024819D02*
X174848571Y-87024819D01*
X175698761Y-93534057D02*
X175603523Y-93486438D01*
X175603523Y-93486438D02*
X175508285Y-93391200D01*
X175508285Y-93391200D02*
X175365428Y-93248342D01*
X175365428Y-93248342D02*
X175270190Y-93200723D01*
X175270190Y-93200723D02*
X175174952Y-93200723D01*
X175222571Y-93438819D02*
X175127333Y-93391200D01*
X175127333Y-93391200D02*
X175032095Y-93295961D01*
X175032095Y-93295961D02*
X174984476Y-93105485D01*
X174984476Y-93105485D02*
X174984476Y-92772152D01*
X174984476Y-92772152D02*
X175032095Y-92581676D01*
X175032095Y-92581676D02*
X175127333Y-92486438D01*
X175127333Y-92486438D02*
X175222571Y-92438819D01*
X175222571Y-92438819D02*
X175413047Y-92438819D01*
X175413047Y-92438819D02*
X175508285Y-92486438D01*
X175508285Y-92486438D02*
X175603523Y-92581676D01*
X175603523Y-92581676D02*
X175651142Y-92772152D01*
X175651142Y-92772152D02*
X175651142Y-93105485D01*
X175651142Y-93105485D02*
X175603523Y-93295961D01*
X175603523Y-93295961D02*
X175508285Y-93391200D01*
X175508285Y-93391200D02*
X175413047Y-93438819D01*
X175413047Y-93438819D02*
X175222571Y-93438819D01*
X175984476Y-92438819D02*
X176603523Y-92438819D01*
X176603523Y-92438819D02*
X176270190Y-92819771D01*
X176270190Y-92819771D02*
X176413047Y-92819771D01*
X176413047Y-92819771D02*
X176508285Y-92867390D01*
X176508285Y-92867390D02*
X176555904Y-92915009D01*
X176555904Y-92915009D02*
X176603523Y-93010247D01*
X176603523Y-93010247D02*
X176603523Y-93248342D01*
X176603523Y-93248342D02*
X176555904Y-93343580D01*
X176555904Y-93343580D02*
X176508285Y-93391200D01*
X176508285Y-93391200D02*
X176413047Y-93438819D01*
X176413047Y-93438819D02*
X176127333Y-93438819D01*
X176127333Y-93438819D02*
X176032095Y-93391200D01*
X176032095Y-93391200D02*
X175984476Y-93343580D01*
X177673333Y-104754819D02*
X177340000Y-104278628D01*
X177101905Y-104754819D02*
X177101905Y-103754819D01*
X177101905Y-103754819D02*
X177482857Y-103754819D01*
X177482857Y-103754819D02*
X177578095Y-103802438D01*
X177578095Y-103802438D02*
X177625714Y-103850057D01*
X177625714Y-103850057D02*
X177673333Y-103945295D01*
X177673333Y-103945295D02*
X177673333Y-104088152D01*
X177673333Y-104088152D02*
X177625714Y-104183390D01*
X177625714Y-104183390D02*
X177578095Y-104231009D01*
X177578095Y-104231009D02*
X177482857Y-104278628D01*
X177482857Y-104278628D02*
X177101905Y-104278628D01*
X178054286Y-103850057D02*
X178101905Y-103802438D01*
X178101905Y-103802438D02*
X178197143Y-103754819D01*
X178197143Y-103754819D02*
X178435238Y-103754819D01*
X178435238Y-103754819D02*
X178530476Y-103802438D01*
X178530476Y-103802438D02*
X178578095Y-103850057D01*
X178578095Y-103850057D02*
X178625714Y-103945295D01*
X178625714Y-103945295D02*
X178625714Y-104040533D01*
X178625714Y-104040533D02*
X178578095Y-104183390D01*
X178578095Y-104183390D02*
X178006667Y-104754819D01*
X178006667Y-104754819D02*
X178625714Y-104754819D01*
D11*
%TO.C,R12*%
X110492936Y-101335000D02*
X110947064Y-101335000D01*
X110492936Y-102805000D02*
X110947064Y-102805000D01*
%TO.C,C9*%
X120960000Y-108668748D02*
X120960000Y-110091252D01*
X118240000Y-108668748D02*
X118240000Y-110091252D01*
%TO.C,U4*%
X141726000Y-87170000D02*
X138726000Y-87170000D01*
X141726000Y-89370000D02*
X139526000Y-89370000D01*
%TO.C,D5*%
X121965000Y-100660000D02*
X121965000Y-102580000D01*
X121965000Y-102580000D02*
X124650000Y-102580000D01*
X124650000Y-100660000D02*
X121965000Y-100660000D01*
%TO.C,R14*%
X168989000Y-95406936D02*
X168989000Y-95861064D01*
X167519000Y-95406936D02*
X167519000Y-95861064D01*
%TO.C,C8*%
X110458748Y-104215000D02*
X110981252Y-104215000D01*
X110458748Y-105685000D02*
X110981252Y-105685000D01*
%TO.C,F1*%
X142743752Y-105570000D02*
X138336248Y-105570000D01*
X142743752Y-100230000D02*
X138336248Y-100230000D01*
%TO.C,D7*%
X176129000Y-98764000D02*
X176129000Y-100684000D01*
X176129000Y-100684000D02*
X178814000Y-100684000D01*
X178814000Y-98764000D02*
X176129000Y-98764000D01*
%TO.C,D6*%
X115267500Y-111560000D02*
X115267500Y-109660000D01*
X115267500Y-111560000D02*
X111607500Y-111560000D01*
X115267500Y-109660000D02*
X111607500Y-109660000D01*
%TO.C,Q2*%
X121580000Y-95730000D02*
X119905000Y-95730000D01*
X121580000Y-95730000D02*
X122230000Y-95730000D01*
X121580000Y-98850000D02*
X120930000Y-98850000D01*
X121580000Y-98850000D02*
X122230000Y-98850000D01*
%TO.C,U8*%
X165450000Y-86780000D02*
X163650000Y-86780000D01*
X165450000Y-86780000D02*
X166250000Y-86780000D01*
X165450000Y-89900000D02*
X164650000Y-89900000D01*
X165450000Y-89900000D02*
X166250000Y-89900000D01*
%TO.C,C13*%
X173031252Y-108610000D02*
X171608748Y-108610000D01*
X173031252Y-105890000D02*
X171608748Y-105890000D01*
D12*
%TO.C,U3*%
X115100000Y-100630000D02*
X119500000Y-100630000D01*
X115100000Y-105630000D02*
X119500000Y-105630000D01*
D13*
X113200000Y-101170000D02*
G75*
G03*
X113200000Y-101170000I-100000J0D01*
G01*
D12*
%TO.C,U5*%
X168894000Y-98724000D02*
X173294000Y-98724000D01*
X168894000Y-103724000D02*
X173294000Y-103724000D01*
D13*
X166994000Y-99264000D02*
G75*
G03*
X166994000Y-99264000I-100000J0D01*
G01*
D11*
%TO.C,C5*%
X149785000Y-90198748D02*
X149785000Y-90721252D01*
X148315000Y-90198748D02*
X148315000Y-90721252D01*
%TO.C,J2*%
X154630000Y-113310000D02*
X154630000Y-120930000D01*
X154630000Y-113310000D02*
X174950000Y-113310000D01*
X154630000Y-120930000D02*
X174950000Y-120930000D01*
X174950000Y-119660000D02*
X154630000Y-119660000D01*
X174950000Y-120930000D02*
X174950000Y-113310000D01*
%TO.C,R8*%
X177586936Y-101489000D02*
X178041064Y-101489000D01*
X177586936Y-102959000D02*
X178041064Y-102959000D01*
%TO.C,C7*%
X110458748Y-98325000D02*
X110981252Y-98325000D01*
X110458748Y-99795000D02*
X110981252Y-99795000D01*
%TO.C,R13*%
X171496936Y-95429000D02*
X171951064Y-95429000D01*
X171496936Y-96899000D02*
X171951064Y-96899000D01*
%TO.C,D8*%
X169048000Y-108524000D02*
X169048000Y-106624000D01*
X169048000Y-108524000D02*
X165388000Y-108524000D01*
X169048000Y-106624000D02*
X165388000Y-106624000D01*
%TO.C,C1*%
X145035000Y-97470000D02*
X145035000Y-92950000D01*
X145035000Y-92950000D02*
X136800000Y-92950000D01*
X136800000Y-97470000D02*
X145035000Y-97470000D01*
%TO.C,C6*%
X161450000Y-91288748D02*
X161450000Y-92711252D01*
X158730000Y-91288748D02*
X158730000Y-92711252D01*
%TO.C,R15*%
X164706936Y-99429000D02*
X165161064Y-99429000D01*
X164706936Y-100899000D02*
X165161064Y-100899000D01*
%TO.C,R11*%
X114775000Y-97312936D02*
X114775000Y-97767064D01*
X113305000Y-97312936D02*
X113305000Y-97767064D01*
%TO.C,R20*%
X134272936Y-88345000D02*
X134727064Y-88345000D01*
X134272936Y-89815000D02*
X134727064Y-89815000D01*
%TO.C,R9*%
X123372936Y-103395000D02*
X123827064Y-103395000D01*
X123372936Y-104865000D02*
X123827064Y-104865000D01*
%TO.C,R7*%
X124122936Y-107145000D02*
X124577064Y-107145000D01*
X124122936Y-108615000D02*
X124577064Y-108615000D01*
%TO.C,R10*%
X117282936Y-97335000D02*
X117737064Y-97335000D01*
X117282936Y-98805000D02*
X117737064Y-98805000D01*
%TO.C,U2*%
X150770000Y-94420000D02*
X150770000Y-88410000D01*
X157590000Y-92170000D02*
X157590000Y-88410000D01*
X150770000Y-88410000D02*
X152030000Y-88410000D01*
X157590000Y-88410000D02*
X156330000Y-88410000D01*
%TO.C,C12*%
X164672748Y-102339000D02*
X165195252Y-102339000D01*
X164672748Y-103809000D02*
X165195252Y-103809000D01*
%TO.C,C11*%
X164602748Y-96409000D02*
X165125252Y-96409000D01*
X164602748Y-97879000D02*
X165125252Y-97879000D01*
%TO.C,U7*%
X175520000Y-87470000D02*
X172520000Y-87470000D01*
X175520000Y-89670000D02*
X173320000Y-89670000D01*
%TO.C,Q3*%
X175794000Y-93824000D02*
X174119000Y-93824000D01*
X175794000Y-93824000D02*
X176444000Y-93824000D01*
X175794000Y-96944000D02*
X175144000Y-96944000D01*
X175794000Y-96944000D02*
X176444000Y-96944000D01*
%TO.C,R2*%
X177612936Y-105215000D02*
X178067064Y-105215000D01*
X177612936Y-106685000D02*
X178067064Y-106685000D01*
%TD*%
M02*
