M48
; DRILL file {KiCad 7.0.7} date 2024 March 31, Sunday 21:20:36
; FORMAT={-:-/ absolute / inch / decimal}
; #@! TF.CreationDate,2024-03-31T21:20:36-04:00
; #@! TF.GenerationSoftware,Kicad,Pcbnew,7.0.7
; #@! TF.FileFunction,Plated,1,2,PTH
FMAT,2
INCH
; #@! TA.AperFunction,Plated,PTH,ComponentDrill
T1C0.0130
; #@! TA.AperFunction,Plated,PTH,ViaDrill
T2C0.0157
; #@! TA.AperFunction,Plated,PTH,ComponentDrill
T3C0.0394
; #@! TA.AperFunction,Plated,PTH,ComponentDrill
T4C0.0598
; #@! TA.AperFunction,Plated,PTH,ComponentDrill
T5C0.1181
%
G90
G05
T1
X4.5886Y-4.0012
X4.5886Y-4.0602
X4.5886Y-4.1193
X4.6476Y-4.0012
X4.6476Y-4.0602
X4.6476Y-4.1193
X4.9917Y-3.9476
X4.9917Y-4.0067
X5.0508Y-3.9476
X5.0508Y-4.0067
X5.1098Y-3.9476
X5.1098Y-4.0067
X6.2074Y-3.9354
X6.2074Y-3.9945
X6.2665Y-3.9354
X6.2665Y-3.9945
X6.3255Y-3.9354
X6.3255Y-3.9945
X6.7065Y-3.9261
X6.7065Y-3.9852
X6.7065Y-4.0443
X6.7655Y-3.9261
X6.7655Y-3.9852
X6.7655Y-4.0443
T2
X4.2736Y-4.0169
X4.2756Y-4.1319
X4.2831Y-3.9409
X4.3398Y-4.3555
X4.3933Y-4.3004
X4.4319Y-3.8039
X4.4906Y-3.7535
X4.5551Y-3.7524
X4.5591Y-4.2925
X4.5894Y-3.9173
X4.5917Y-4.3476
X4.6661Y-4.3181
X4.7079Y-3.6772
X4.7457Y-4.415
X4.7732Y-4.3287
X4.7831Y-3.9409
X4.7846Y-4.0492
X4.7992Y-3.7161
X4.8012Y-3.8917
X4.8205Y-4.4283
X4.9299Y-3.7473
X4.9453Y-4.328
X4.9732Y-4.3945
X5.0256Y-3.8012
X5.0547Y-4.3402
X5.128Y-4.3504
X5.1736Y-4.2965
X5.1819Y-3.8331
X5.2028Y-3.6543
X5.2614Y-3.7445
X5.285Y-4.2472
X5.3189Y-3.6315
X5.3765Y-3.4652
X5.4043Y-3.8346
X5.437Y-3.415
X5.4665Y-3.5352
X5.472Y-3.7476
X5.5965Y-3.4152
X5.6165Y-3.5352
X5.6866Y-3.4661
X5.798Y-3.5787
X5.8681Y-3.4787
X5.9417Y-4.4012
X6.0142Y-3.7579
X6.0146Y-3.6043
X6.0713Y-3.365
X6.078Y-3.9402
X6.0917Y-3.5579
X6.1102Y-4.3291
X6.1406Y-3.7776
X6.1638Y-3.4898
X6.1882Y-4.4126
X6.2157Y-4.3252
X6.2413Y-3.7862
X6.2783Y-4.3283
X6.3024Y-3.5181
X6.3028Y-3.6094
X6.3902Y-3.4453
X6.4Y-4.2799
X6.4008Y-3.7118
X6.4079Y-3.9441
X6.4091Y-4.0583
X6.4094Y-3.8728
X6.4673Y-3.5587
X6.5114Y-4.4122
X6.5118Y-4.1756
X6.5122Y-4.2937
X6.5161Y-3.5657
X6.5646Y-3.678
X6.6185Y-3.4374
X6.6201Y-4.2894
X6.6307Y-3.6925
X6.6583Y-3.5138
X6.6882Y-4.3004
X6.7252Y-3.7272
X6.7252Y-3.8437
X6.7252Y-4.1461
X6.8047Y-3.5528
X6.8055Y-3.3878
X6.8634Y-3.5598
X6.8957Y-3.8429
X6.9114Y-3.9803
X6.9268Y-3.4169
X6.9307Y-3.6122
X6.9756Y-3.8016
X6.9866Y-3.4677
X7.0362Y-4.2453
T4
X4.5512Y-4.6154
X4.7512Y-4.6154
X4.8768Y-3.4323
X4.9512Y-4.6154
X5.0768Y-3.4323
X5.1512Y-4.6154
X6.1878Y-4.611
X6.3878Y-4.611
X6.5878Y-4.611
X6.7878Y-4.611
T5
X4.2969Y-4.6528
X7.0488Y-4.6528
T3
G00X5.4937Y-4.5839
M15
G01X5.4937Y-4.5248
M16
G05
G00X5.7102Y-4.2787
M15
G01X5.6315Y-4.2787
M16
G05
G00X5.6965Y-4.515
M15
G01X5.6453Y-4.515
M16
G05
G00X5.848Y-4.5839
M15
G01X5.848Y-4.5248
M16
G05
T0
M30
