%TF.GenerationSoftware,KiCad,Pcbnew,7.0.7*%
%TF.CreationDate,2024-03-31T21:20:54-04:00*%
%TF.ProjectId,4ch-driver-v0,3463682d-6472-4697-9665-722d76302e6b,rev?*%
%TF.SameCoordinates,Original*%
%TF.FileFunction,Legend,Bot*%
%TF.FilePolarity,Positive*%
%FSLAX46Y46*%
G04 Gerber Fmt 4.6, Leading zero omitted, Abs format (unit mm)*
G04 Created by KiCad (PCBNEW 7.0.7) date 2024-03-31 21:20:54*
%MOMM*%
%LPD*%
G01*
G04 APERTURE LIST*
%ADD10C,0.300000*%
%ADD11C,0.230000*%
%ADD12C,0.150000*%
%ADD13C,0.120000*%
%ADD14C,0.127000*%
%ADD15C,0.200000*%
G04 APERTURE END LIST*
D10*
X135349774Y-84002257D02*
X135492632Y-83930828D01*
X135492632Y-83930828D02*
X135706917Y-83930828D01*
X135706917Y-83930828D02*
X135921203Y-84002257D01*
X135921203Y-84002257D02*
X136064060Y-84145114D01*
X136064060Y-84145114D02*
X136135489Y-84287971D01*
X136135489Y-84287971D02*
X136206917Y-84573685D01*
X136206917Y-84573685D02*
X136206917Y-84787971D01*
X136206917Y-84787971D02*
X136135489Y-85073685D01*
X136135489Y-85073685D02*
X136064060Y-85216542D01*
X136064060Y-85216542D02*
X135921203Y-85359400D01*
X135921203Y-85359400D02*
X135706917Y-85430828D01*
X135706917Y-85430828D02*
X135564060Y-85430828D01*
X135564060Y-85430828D02*
X135349774Y-85359400D01*
X135349774Y-85359400D02*
X135278346Y-85287971D01*
X135278346Y-85287971D02*
X135278346Y-84787971D01*
X135278346Y-84787971D02*
X135564060Y-84787971D01*
X134635489Y-85430828D02*
X134635489Y-83930828D01*
X134635489Y-83930828D02*
X133778346Y-85430828D01*
X133778346Y-85430828D02*
X133778346Y-83930828D01*
X133064060Y-85430828D02*
X133064060Y-83930828D01*
X133064060Y-83930828D02*
X132706917Y-83930828D01*
X132706917Y-83930828D02*
X132492631Y-84002257D01*
X132492631Y-84002257D02*
X132349774Y-84145114D01*
X132349774Y-84145114D02*
X132278345Y-84287971D01*
X132278345Y-84287971D02*
X132206917Y-84573685D01*
X132206917Y-84573685D02*
X132206917Y-84787971D01*
X132206917Y-84787971D02*
X132278345Y-85073685D01*
X132278345Y-85073685D02*
X132349774Y-85216542D01*
X132349774Y-85216542D02*
X132492631Y-85359400D01*
X132492631Y-85359400D02*
X132706917Y-85430828D01*
X132706917Y-85430828D02*
X133064060Y-85430828D01*
X107148971Y-84026917D02*
X107206114Y-84198345D01*
X107206114Y-84198345D02*
X107263257Y-84255488D01*
X107263257Y-84255488D02*
X107377542Y-84312631D01*
X107377542Y-84312631D02*
X107548971Y-84312631D01*
X107548971Y-84312631D02*
X107663257Y-84255488D01*
X107663257Y-84255488D02*
X107720400Y-84198345D01*
X107720400Y-84198345D02*
X107777542Y-84084060D01*
X107777542Y-84084060D02*
X107777542Y-83626917D01*
X107777542Y-83626917D02*
X106577542Y-83626917D01*
X106577542Y-83626917D02*
X106577542Y-84026917D01*
X106577542Y-84026917D02*
X106634685Y-84141203D01*
X106634685Y-84141203D02*
X106691828Y-84198345D01*
X106691828Y-84198345D02*
X106806114Y-84255488D01*
X106806114Y-84255488D02*
X106920400Y-84255488D01*
X106920400Y-84255488D02*
X107034685Y-84198345D01*
X107034685Y-84198345D02*
X107091828Y-84141203D01*
X107091828Y-84141203D02*
X107148971Y-84026917D01*
X107148971Y-84026917D02*
X107148971Y-83626917D01*
X107777542Y-84998345D02*
X107720400Y-84884060D01*
X107720400Y-84884060D02*
X107663257Y-84826917D01*
X107663257Y-84826917D02*
X107548971Y-84769774D01*
X107548971Y-84769774D02*
X107206114Y-84769774D01*
X107206114Y-84769774D02*
X107091828Y-84826917D01*
X107091828Y-84826917D02*
X107034685Y-84884060D01*
X107034685Y-84884060D02*
X106977542Y-84998345D01*
X106977542Y-84998345D02*
X106977542Y-85169774D01*
X106977542Y-85169774D02*
X107034685Y-85284060D01*
X107034685Y-85284060D02*
X107091828Y-85341203D01*
X107091828Y-85341203D02*
X107206114Y-85398345D01*
X107206114Y-85398345D02*
X107548971Y-85398345D01*
X107548971Y-85398345D02*
X107663257Y-85341203D01*
X107663257Y-85341203D02*
X107720400Y-85284060D01*
X107720400Y-85284060D02*
X107777542Y-85169774D01*
X107777542Y-85169774D02*
X107777542Y-84998345D01*
X107720400Y-85855488D02*
X107777542Y-85969774D01*
X107777542Y-85969774D02*
X107777542Y-86198345D01*
X107777542Y-86198345D02*
X107720400Y-86312631D01*
X107720400Y-86312631D02*
X107606114Y-86369774D01*
X107606114Y-86369774D02*
X107548971Y-86369774D01*
X107548971Y-86369774D02*
X107434685Y-86312631D01*
X107434685Y-86312631D02*
X107377542Y-86198345D01*
X107377542Y-86198345D02*
X107377542Y-86026917D01*
X107377542Y-86026917D02*
X107320400Y-85912631D01*
X107320400Y-85912631D02*
X107206114Y-85855488D01*
X107206114Y-85855488D02*
X107148971Y-85855488D01*
X107148971Y-85855488D02*
X107034685Y-85912631D01*
X107034685Y-85912631D02*
X106977542Y-86026917D01*
X106977542Y-86026917D02*
X106977542Y-86198345D01*
X106977542Y-86198345D02*
X107034685Y-86312631D01*
X106977542Y-86712631D02*
X106977542Y-87169774D01*
X106577542Y-86884060D02*
X107606114Y-86884060D01*
X107606114Y-86884060D02*
X107720400Y-86941203D01*
X107720400Y-86941203D02*
X107777542Y-87055488D01*
X107777542Y-87055488D02*
X107777542Y-87169774D01*
X107777542Y-87741202D02*
X107720400Y-87626917D01*
X107720400Y-87626917D02*
X107663257Y-87569774D01*
X107663257Y-87569774D02*
X107548971Y-87512631D01*
X107548971Y-87512631D02*
X107206114Y-87512631D01*
X107206114Y-87512631D02*
X107091828Y-87569774D01*
X107091828Y-87569774D02*
X107034685Y-87626917D01*
X107034685Y-87626917D02*
X106977542Y-87741202D01*
X106977542Y-87741202D02*
X106977542Y-87912631D01*
X106977542Y-87912631D02*
X107034685Y-88026917D01*
X107034685Y-88026917D02*
X107091828Y-88084060D01*
X107091828Y-88084060D02*
X107206114Y-88141202D01*
X107206114Y-88141202D02*
X107548971Y-88141202D01*
X107548971Y-88141202D02*
X107663257Y-88084060D01*
X107663257Y-88084060D02*
X107720400Y-88026917D01*
X107720400Y-88026917D02*
X107777542Y-87912631D01*
X107777542Y-87912631D02*
X107777542Y-87741202D01*
X106977542Y-88655488D02*
X107777542Y-88655488D01*
X107091828Y-88655488D02*
X107034685Y-88712631D01*
X107034685Y-88712631D02*
X106977542Y-88826916D01*
X106977542Y-88826916D02*
X106977542Y-88998345D01*
X106977542Y-88998345D02*
X107034685Y-89112631D01*
X107034685Y-89112631D02*
X107148971Y-89169774D01*
X107148971Y-89169774D02*
X107777542Y-89169774D01*
X106577542Y-90655488D02*
X107548971Y-90655488D01*
X107548971Y-90655488D02*
X107663257Y-90712631D01*
X107663257Y-90712631D02*
X107720400Y-90769774D01*
X107720400Y-90769774D02*
X107777542Y-90884059D01*
X107777542Y-90884059D02*
X107777542Y-91112631D01*
X107777542Y-91112631D02*
X107720400Y-91226916D01*
X107720400Y-91226916D02*
X107663257Y-91284059D01*
X107663257Y-91284059D02*
X107548971Y-91341202D01*
X107548971Y-91341202D02*
X106577542Y-91341202D01*
X106977542Y-91912631D02*
X107777542Y-91912631D01*
X107091828Y-91912631D02*
X107034685Y-91969774D01*
X107034685Y-91969774D02*
X106977542Y-92084059D01*
X106977542Y-92084059D02*
X106977542Y-92255488D01*
X106977542Y-92255488D02*
X107034685Y-92369774D01*
X107034685Y-92369774D02*
X107148971Y-92426917D01*
X107148971Y-92426917D02*
X107777542Y-92426917D01*
X107777542Y-92998345D02*
X106977542Y-92998345D01*
X106577542Y-92998345D02*
X106634685Y-92941202D01*
X106634685Y-92941202D02*
X106691828Y-92998345D01*
X106691828Y-92998345D02*
X106634685Y-93055488D01*
X106634685Y-93055488D02*
X106577542Y-92998345D01*
X106577542Y-92998345D02*
X106691828Y-92998345D01*
X106977542Y-93455488D02*
X107777542Y-93741202D01*
X107777542Y-93741202D02*
X106977542Y-94026917D01*
X107720400Y-94941203D02*
X107777542Y-94826917D01*
X107777542Y-94826917D02*
X107777542Y-94598346D01*
X107777542Y-94598346D02*
X107720400Y-94484060D01*
X107720400Y-94484060D02*
X107606114Y-94426917D01*
X107606114Y-94426917D02*
X107148971Y-94426917D01*
X107148971Y-94426917D02*
X107034685Y-94484060D01*
X107034685Y-94484060D02*
X106977542Y-94598346D01*
X106977542Y-94598346D02*
X106977542Y-94826917D01*
X106977542Y-94826917D02*
X107034685Y-94941203D01*
X107034685Y-94941203D02*
X107148971Y-94998346D01*
X107148971Y-94998346D02*
X107263257Y-94998346D01*
X107263257Y-94998346D02*
X107377542Y-94426917D01*
X107777542Y-95512631D02*
X106977542Y-95512631D01*
X107206114Y-95512631D02*
X107091828Y-95569774D01*
X107091828Y-95569774D02*
X107034685Y-95626917D01*
X107034685Y-95626917D02*
X106977542Y-95741202D01*
X106977542Y-95741202D02*
X106977542Y-95855488D01*
X107720400Y-96198345D02*
X107777542Y-96312631D01*
X107777542Y-96312631D02*
X107777542Y-96541202D01*
X107777542Y-96541202D02*
X107720400Y-96655488D01*
X107720400Y-96655488D02*
X107606114Y-96712631D01*
X107606114Y-96712631D02*
X107548971Y-96712631D01*
X107548971Y-96712631D02*
X107434685Y-96655488D01*
X107434685Y-96655488D02*
X107377542Y-96541202D01*
X107377542Y-96541202D02*
X107377542Y-96369774D01*
X107377542Y-96369774D02*
X107320400Y-96255488D01*
X107320400Y-96255488D02*
X107206114Y-96198345D01*
X107206114Y-96198345D02*
X107148971Y-96198345D01*
X107148971Y-96198345D02*
X107034685Y-96255488D01*
X107034685Y-96255488D02*
X106977542Y-96369774D01*
X106977542Y-96369774D02*
X106977542Y-96541202D01*
X106977542Y-96541202D02*
X107034685Y-96655488D01*
X107777542Y-97226917D02*
X106977542Y-97226917D01*
X106577542Y-97226917D02*
X106634685Y-97169774D01*
X106634685Y-97169774D02*
X106691828Y-97226917D01*
X106691828Y-97226917D02*
X106634685Y-97284060D01*
X106634685Y-97284060D02*
X106577542Y-97226917D01*
X106577542Y-97226917D02*
X106691828Y-97226917D01*
X106977542Y-97626917D02*
X106977542Y-98084060D01*
X106577542Y-97798346D02*
X107606114Y-97798346D01*
X107606114Y-97798346D02*
X107720400Y-97855489D01*
X107720400Y-97855489D02*
X107777542Y-97969774D01*
X107777542Y-97969774D02*
X107777542Y-98084060D01*
X106977542Y-98369774D02*
X107777542Y-98655488D01*
X106977542Y-98941203D02*
X107777542Y-98655488D01*
X107777542Y-98655488D02*
X108063257Y-98541203D01*
X108063257Y-98541203D02*
X108120400Y-98484060D01*
X108120400Y-98484060D02*
X108177542Y-98369774D01*
D11*
X178207142Y-94151611D02*
X178254761Y-94103992D01*
X178254761Y-94103992D02*
X178349999Y-93961135D01*
X178349999Y-93961135D02*
X178397618Y-93865897D01*
X178397618Y-93865897D02*
X178445237Y-93723040D01*
X178445237Y-93723040D02*
X178492856Y-93484944D01*
X178492856Y-93484944D02*
X178492856Y-93294468D01*
X178492856Y-93294468D02*
X178445237Y-93056373D01*
X178445237Y-93056373D02*
X178397618Y-92913516D01*
X178397618Y-92913516D02*
X178349999Y-92818278D01*
X178349999Y-92818278D02*
X178254761Y-92675420D01*
X178254761Y-92675420D02*
X178207142Y-92627801D01*
X178159523Y-92675420D02*
X177302380Y-93961135D01*
X177397618Y-93865897D02*
X176635713Y-93865897D01*
X176635713Y-93865897D02*
X175873808Y-93865897D01*
X174921427Y-92723040D02*
X175778569Y-94008754D01*
X174683331Y-94151611D02*
X174635712Y-94103992D01*
X174635712Y-94103992D02*
X174540474Y-93961135D01*
X174540474Y-93961135D02*
X174492855Y-93865897D01*
X174492855Y-93865897D02*
X174445236Y-93723040D01*
X174445236Y-93723040D02*
X174397617Y-93484944D01*
X174397617Y-93484944D02*
X174397617Y-93294468D01*
X174397617Y-93294468D02*
X174445236Y-93056373D01*
X174445236Y-93056373D02*
X174492855Y-92913516D01*
X174492855Y-92913516D02*
X174540474Y-92818278D01*
X174540474Y-92818278D02*
X174635712Y-92675420D01*
X174635712Y-92675420D02*
X174683331Y-92627801D01*
X178826189Y-95761611D02*
X178873808Y-95713992D01*
X178873808Y-95713992D02*
X178969046Y-95571135D01*
X178969046Y-95571135D02*
X179016665Y-95475897D01*
X179016665Y-95475897D02*
X179064284Y-95333040D01*
X179064284Y-95333040D02*
X179111903Y-95094944D01*
X179111903Y-95094944D02*
X179111903Y-94904468D01*
X179111903Y-94904468D02*
X179064284Y-94666373D01*
X179064284Y-94666373D02*
X179016665Y-94523516D01*
X179016665Y-94523516D02*
X178969046Y-94428278D01*
X178969046Y-94428278D02*
X178873808Y-94285420D01*
X178873808Y-94285420D02*
X178826189Y-94237801D01*
X178159522Y-94904468D02*
X178159522Y-95094944D01*
X178111903Y-95094944D02*
X178111903Y-94904468D01*
X178064284Y-94856849D02*
X178064284Y-95142563D01*
X178016665Y-95094944D02*
X178016665Y-94904468D01*
X177969046Y-94904468D02*
X177969046Y-95094944D01*
X178159522Y-95047325D02*
X178064284Y-95142563D01*
X178064284Y-95142563D02*
X177969046Y-95047325D01*
X178159522Y-94952087D02*
X178064284Y-94856849D01*
X178064284Y-94856849D02*
X177969046Y-94952087D01*
X178159522Y-94904468D02*
X178064284Y-94856849D01*
X178064284Y-94856849D02*
X177969046Y-94904468D01*
X177969046Y-94904468D02*
X177921427Y-94999706D01*
X177921427Y-94999706D02*
X177969046Y-95094944D01*
X177969046Y-95094944D02*
X178064284Y-95142563D01*
X178064284Y-95142563D02*
X178159522Y-95094944D01*
X178159522Y-95094944D02*
X178207141Y-94999706D01*
X178207141Y-94999706D02*
X178159522Y-94904468D01*
X177207141Y-94999706D02*
X176445237Y-94999706D01*
X175683332Y-94904468D02*
X175683332Y-95094944D01*
X175635713Y-95094944D02*
X175635713Y-94904468D01*
X175588094Y-94856849D02*
X175588094Y-95142563D01*
X175540475Y-95094944D02*
X175540475Y-94904468D01*
X175492856Y-94904468D02*
X175492856Y-95094944D01*
X175683332Y-95047325D02*
X175588094Y-95142563D01*
X175588094Y-95142563D02*
X175492856Y-95047325D01*
X175683332Y-94952087D02*
X175588094Y-94856849D01*
X175588094Y-94856849D02*
X175492856Y-94952087D01*
X175683332Y-94904468D02*
X175588094Y-94856849D01*
X175588094Y-94856849D02*
X175492856Y-94904468D01*
X175492856Y-94904468D02*
X175445237Y-94999706D01*
X175445237Y-94999706D02*
X175492856Y-95094944D01*
X175492856Y-95094944D02*
X175588094Y-95142563D01*
X175588094Y-95142563D02*
X175683332Y-95094944D01*
X175683332Y-95094944D02*
X175730951Y-94999706D01*
X175730951Y-94999706D02*
X175683332Y-94904468D01*
X174064284Y-95761611D02*
X174016665Y-95713992D01*
X174016665Y-95713992D02*
X173921427Y-95571135D01*
X173921427Y-95571135D02*
X173873808Y-95475897D01*
X173873808Y-95475897D02*
X173826189Y-95333040D01*
X173826189Y-95333040D02*
X173778570Y-95094944D01*
X173778570Y-95094944D02*
X173778570Y-94904468D01*
X173778570Y-94904468D02*
X173826189Y-94666373D01*
X173826189Y-94666373D02*
X173873808Y-94523516D01*
X173873808Y-94523516D02*
X173921427Y-94428278D01*
X173921427Y-94428278D02*
X174016665Y-94285420D01*
X174016665Y-94285420D02*
X174064284Y-94237801D01*
X175254761Y-96323992D02*
X176016665Y-96609706D01*
X176016665Y-96609706D02*
X175254761Y-96895420D01*
X174349999Y-95895420D02*
X173492856Y-97181135D01*
D10*
X109146114Y-84141653D02*
X109717542Y-84141653D01*
X108517542Y-83741653D02*
X109146114Y-84141653D01*
X109146114Y-84141653D02*
X108517542Y-84541653D01*
X109717542Y-85113081D02*
X109660400Y-84998796D01*
X109660400Y-84998796D02*
X109603257Y-84941653D01*
X109603257Y-84941653D02*
X109488971Y-84884510D01*
X109488971Y-84884510D02*
X109146114Y-84884510D01*
X109146114Y-84884510D02*
X109031828Y-84941653D01*
X109031828Y-84941653D02*
X108974685Y-84998796D01*
X108974685Y-84998796D02*
X108917542Y-85113081D01*
X108917542Y-85113081D02*
X108917542Y-85284510D01*
X108917542Y-85284510D02*
X108974685Y-85398796D01*
X108974685Y-85398796D02*
X109031828Y-85455939D01*
X109031828Y-85455939D02*
X109146114Y-85513081D01*
X109146114Y-85513081D02*
X109488971Y-85513081D01*
X109488971Y-85513081D02*
X109603257Y-85455939D01*
X109603257Y-85455939D02*
X109660400Y-85398796D01*
X109660400Y-85398796D02*
X109717542Y-85284510D01*
X109717542Y-85284510D02*
X109717542Y-85113081D01*
X108917542Y-86541653D02*
X109717542Y-86541653D01*
X108917542Y-86027367D02*
X109546114Y-86027367D01*
X109546114Y-86027367D02*
X109660400Y-86084510D01*
X109660400Y-86084510D02*
X109717542Y-86198795D01*
X109717542Y-86198795D02*
X109717542Y-86370224D01*
X109717542Y-86370224D02*
X109660400Y-86484510D01*
X109660400Y-86484510D02*
X109603257Y-86541653D01*
X108917542Y-87113081D02*
X109717542Y-87113081D01*
X109031828Y-87113081D02*
X108974685Y-87170224D01*
X108974685Y-87170224D02*
X108917542Y-87284509D01*
X108917542Y-87284509D02*
X108917542Y-87455938D01*
X108917542Y-87455938D02*
X108974685Y-87570224D01*
X108974685Y-87570224D02*
X109088971Y-87627367D01*
X109088971Y-87627367D02*
X109717542Y-87627367D01*
X108917542Y-88713081D02*
X109888971Y-88713081D01*
X109888971Y-88713081D02*
X110003257Y-88655938D01*
X110003257Y-88655938D02*
X110060400Y-88598795D01*
X110060400Y-88598795D02*
X110117542Y-88484509D01*
X110117542Y-88484509D02*
X110117542Y-88313081D01*
X110117542Y-88313081D02*
X110060400Y-88198795D01*
X109660400Y-88713081D02*
X109717542Y-88598795D01*
X109717542Y-88598795D02*
X109717542Y-88370223D01*
X109717542Y-88370223D02*
X109660400Y-88255938D01*
X109660400Y-88255938D02*
X109603257Y-88198795D01*
X109603257Y-88198795D02*
X109488971Y-88141652D01*
X109488971Y-88141652D02*
X109146114Y-88141652D01*
X109146114Y-88141652D02*
X109031828Y-88198795D01*
X109031828Y-88198795D02*
X108974685Y-88255938D01*
X108974685Y-88255938D02*
X108917542Y-88370223D01*
X108917542Y-88370223D02*
X108917542Y-88598795D01*
X108917542Y-88598795D02*
X108974685Y-88713081D01*
X109660400Y-89741652D02*
X109717542Y-89627366D01*
X109717542Y-89627366D02*
X109717542Y-89398795D01*
X109717542Y-89398795D02*
X109660400Y-89284509D01*
X109660400Y-89284509D02*
X109546114Y-89227366D01*
X109546114Y-89227366D02*
X109088971Y-89227366D01*
X109088971Y-89227366D02*
X108974685Y-89284509D01*
X108974685Y-89284509D02*
X108917542Y-89398795D01*
X108917542Y-89398795D02*
X108917542Y-89627366D01*
X108917542Y-89627366D02*
X108974685Y-89741652D01*
X108974685Y-89741652D02*
X109088971Y-89798795D01*
X109088971Y-89798795D02*
X109203257Y-89798795D01*
X109203257Y-89798795D02*
X109317542Y-89227366D01*
X109717542Y-90313080D02*
X108917542Y-90313080D01*
X109146114Y-90313080D02*
X109031828Y-90370223D01*
X109031828Y-90370223D02*
X108974685Y-90427366D01*
X108974685Y-90427366D02*
X108917542Y-90541651D01*
X108917542Y-90541651D02*
X108917542Y-90655937D01*
X109717542Y-92541651D02*
X109717542Y-91970223D01*
X109717542Y-91970223D02*
X108517542Y-91970223D01*
X109717542Y-93455938D02*
X109088971Y-93455938D01*
X109088971Y-93455938D02*
X108974685Y-93398795D01*
X108974685Y-93398795D02*
X108917542Y-93284509D01*
X108917542Y-93284509D02*
X108917542Y-93055938D01*
X108917542Y-93055938D02*
X108974685Y-92941652D01*
X109660400Y-93455938D02*
X109717542Y-93341652D01*
X109717542Y-93341652D02*
X109717542Y-93055938D01*
X109717542Y-93055938D02*
X109660400Y-92941652D01*
X109660400Y-92941652D02*
X109546114Y-92884509D01*
X109546114Y-92884509D02*
X109431828Y-92884509D01*
X109431828Y-92884509D02*
X109317542Y-92941652D01*
X109317542Y-92941652D02*
X109260400Y-93055938D01*
X109260400Y-93055938D02*
X109260400Y-93341652D01*
X109260400Y-93341652D02*
X109203257Y-93455938D01*
X109717542Y-94027366D02*
X108517542Y-94027366D01*
X108974685Y-94027366D02*
X108917542Y-94141652D01*
X108917542Y-94141652D02*
X108917542Y-94370223D01*
X108917542Y-94370223D02*
X108974685Y-94484509D01*
X108974685Y-94484509D02*
X109031828Y-94541652D01*
X109031828Y-94541652D02*
X109146114Y-94598794D01*
X109146114Y-94598794D02*
X109488971Y-94598794D01*
X109488971Y-94598794D02*
X109603257Y-94541652D01*
X109603257Y-94541652D02*
X109660400Y-94484509D01*
X109660400Y-94484509D02*
X109717542Y-94370223D01*
X109717542Y-94370223D02*
X109717542Y-94141652D01*
X109717542Y-94141652D02*
X109660400Y-94027366D01*
X120649774Y-84030828D02*
X119792632Y-84030828D01*
X120221203Y-85530828D02*
X120221203Y-84030828D01*
X119506917Y-84030828D02*
X118649775Y-84030828D01*
X119078346Y-85530828D02*
X119078346Y-84030828D01*
X117435489Y-85530828D02*
X118149775Y-85530828D01*
X118149775Y-85530828D02*
X118149775Y-84030828D01*
X136699774Y-120480828D02*
X137556917Y-120480828D01*
X137128346Y-120480828D02*
X137128346Y-118980828D01*
X137128346Y-118980828D02*
X137271203Y-119195114D01*
X137271203Y-119195114D02*
X137414060Y-119337971D01*
X137414060Y-119337971D02*
X137556917Y-119409400D01*
X136128346Y-119123685D02*
X136056918Y-119052257D01*
X136056918Y-119052257D02*
X135914061Y-118980828D01*
X135914061Y-118980828D02*
X135556918Y-118980828D01*
X135556918Y-118980828D02*
X135414061Y-119052257D01*
X135414061Y-119052257D02*
X135342632Y-119123685D01*
X135342632Y-119123685D02*
X135271203Y-119266542D01*
X135271203Y-119266542D02*
X135271203Y-119409400D01*
X135271203Y-119409400D02*
X135342632Y-119623685D01*
X135342632Y-119623685D02*
X136199775Y-120480828D01*
X136199775Y-120480828D02*
X135271203Y-120480828D01*
X134842632Y-118980828D02*
X134342632Y-120480828D01*
X134342632Y-120480828D02*
X133842632Y-118980828D01*
D11*
X111193992Y-84232380D02*
X111860659Y-84232380D01*
X110813040Y-83994285D02*
X111527325Y-83756190D01*
X111527325Y-83756190D02*
X111527325Y-84375237D01*
X111765420Y-85327618D02*
X111813040Y-85279999D01*
X111813040Y-85279999D02*
X111860659Y-85137142D01*
X111860659Y-85137142D02*
X111860659Y-85041904D01*
X111860659Y-85041904D02*
X111813040Y-84899047D01*
X111813040Y-84899047D02*
X111717801Y-84803809D01*
X111717801Y-84803809D02*
X111622563Y-84756190D01*
X111622563Y-84756190D02*
X111432087Y-84708571D01*
X111432087Y-84708571D02*
X111289230Y-84708571D01*
X111289230Y-84708571D02*
X111098754Y-84756190D01*
X111098754Y-84756190D02*
X111003516Y-84803809D01*
X111003516Y-84803809D02*
X110908278Y-84899047D01*
X110908278Y-84899047D02*
X110860659Y-85041904D01*
X110860659Y-85041904D02*
X110860659Y-85137142D01*
X110860659Y-85137142D02*
X110908278Y-85279999D01*
X110908278Y-85279999D02*
X110955897Y-85327618D01*
X111860659Y-85756190D02*
X110860659Y-85756190D01*
X111860659Y-86184761D02*
X111336849Y-86184761D01*
X111336849Y-86184761D02*
X111241611Y-86137142D01*
X111241611Y-86137142D02*
X111193992Y-86041904D01*
X111193992Y-86041904D02*
X111193992Y-85899047D01*
X111193992Y-85899047D02*
X111241611Y-85803809D01*
X111241611Y-85803809D02*
X111289230Y-85756190D01*
X111955897Y-86422857D02*
X111955897Y-87184761D01*
X111860659Y-87422857D02*
X110860659Y-87422857D01*
X110860659Y-87422857D02*
X110860659Y-87660952D01*
X110860659Y-87660952D02*
X110908278Y-87803809D01*
X110908278Y-87803809D02*
X111003516Y-87899047D01*
X111003516Y-87899047D02*
X111098754Y-87946666D01*
X111098754Y-87946666D02*
X111289230Y-87994285D01*
X111289230Y-87994285D02*
X111432087Y-87994285D01*
X111432087Y-87994285D02*
X111622563Y-87946666D01*
X111622563Y-87946666D02*
X111717801Y-87899047D01*
X111717801Y-87899047D02*
X111813040Y-87803809D01*
X111813040Y-87803809D02*
X111860659Y-87660952D01*
X111860659Y-87660952D02*
X111860659Y-87422857D01*
X111860659Y-88422857D02*
X111193992Y-88422857D01*
X111384468Y-88422857D02*
X111289230Y-88470476D01*
X111289230Y-88470476D02*
X111241611Y-88518095D01*
X111241611Y-88518095D02*
X111193992Y-88613333D01*
X111193992Y-88613333D02*
X111193992Y-88708571D01*
X111860659Y-89041905D02*
X111193992Y-89041905D01*
X110860659Y-89041905D02*
X110908278Y-88994286D01*
X110908278Y-88994286D02*
X110955897Y-89041905D01*
X110955897Y-89041905D02*
X110908278Y-89089524D01*
X110908278Y-89089524D02*
X110860659Y-89041905D01*
X110860659Y-89041905D02*
X110955897Y-89041905D01*
X111193992Y-89422857D02*
X111860659Y-89660952D01*
X111860659Y-89660952D02*
X111193992Y-89899047D01*
X111813040Y-90660952D02*
X111860659Y-90565714D01*
X111860659Y-90565714D02*
X111860659Y-90375238D01*
X111860659Y-90375238D02*
X111813040Y-90280000D01*
X111813040Y-90280000D02*
X111717801Y-90232381D01*
X111717801Y-90232381D02*
X111336849Y-90232381D01*
X111336849Y-90232381D02*
X111241611Y-90280000D01*
X111241611Y-90280000D02*
X111193992Y-90375238D01*
X111193992Y-90375238D02*
X111193992Y-90565714D01*
X111193992Y-90565714D02*
X111241611Y-90660952D01*
X111241611Y-90660952D02*
X111336849Y-90708571D01*
X111336849Y-90708571D02*
X111432087Y-90708571D01*
X111432087Y-90708571D02*
X111527325Y-90232381D01*
X111860659Y-91137143D02*
X111193992Y-91137143D01*
X111384468Y-91137143D02*
X111289230Y-91184762D01*
X111289230Y-91184762D02*
X111241611Y-91232381D01*
X111241611Y-91232381D02*
X111193992Y-91327619D01*
X111193992Y-91327619D02*
X111193992Y-91422857D01*
X111955897Y-91518096D02*
X111955897Y-92280000D01*
X111193992Y-92422858D02*
X111860659Y-92660953D01*
X111860659Y-92660953D02*
X111193992Y-92899048D01*
X110860659Y-93470477D02*
X110860659Y-93565715D01*
X110860659Y-93565715D02*
X110908278Y-93660953D01*
X110908278Y-93660953D02*
X110955897Y-93708572D01*
X110955897Y-93708572D02*
X111051135Y-93756191D01*
X111051135Y-93756191D02*
X111241611Y-93803810D01*
X111241611Y-93803810D02*
X111479706Y-93803810D01*
X111479706Y-93803810D02*
X111670182Y-93756191D01*
X111670182Y-93756191D02*
X111765420Y-93708572D01*
X111765420Y-93708572D02*
X111813040Y-93660953D01*
X111813040Y-93660953D02*
X111860659Y-93565715D01*
X111860659Y-93565715D02*
X111860659Y-93470477D01*
X111860659Y-93470477D02*
X111813040Y-93375239D01*
X111813040Y-93375239D02*
X111765420Y-93327620D01*
X111765420Y-93327620D02*
X111670182Y-93280001D01*
X111670182Y-93280001D02*
X111479706Y-93232382D01*
X111479706Y-93232382D02*
X111241611Y-93232382D01*
X111241611Y-93232382D02*
X111051135Y-93280001D01*
X111051135Y-93280001D02*
X110955897Y-93327620D01*
X110955897Y-93327620D02*
X110908278Y-93375239D01*
X110908278Y-93375239D02*
X110860659Y-93470477D01*
D12*
X126349580Y-107823333D02*
X126397200Y-107775714D01*
X126397200Y-107775714D02*
X126444819Y-107632857D01*
X126444819Y-107632857D02*
X126444819Y-107537619D01*
X126444819Y-107537619D02*
X126397200Y-107394762D01*
X126397200Y-107394762D02*
X126301961Y-107299524D01*
X126301961Y-107299524D02*
X126206723Y-107251905D01*
X126206723Y-107251905D02*
X126016247Y-107204286D01*
X126016247Y-107204286D02*
X125873390Y-107204286D01*
X125873390Y-107204286D02*
X125682914Y-107251905D01*
X125682914Y-107251905D02*
X125587676Y-107299524D01*
X125587676Y-107299524D02*
X125492438Y-107394762D01*
X125492438Y-107394762D02*
X125444819Y-107537619D01*
X125444819Y-107537619D02*
X125444819Y-107632857D01*
X125444819Y-107632857D02*
X125492438Y-107775714D01*
X125492438Y-107775714D02*
X125540057Y-107823333D01*
X125444819Y-108156667D02*
X125444819Y-108775714D01*
X125444819Y-108775714D02*
X125825771Y-108442381D01*
X125825771Y-108442381D02*
X125825771Y-108585238D01*
X125825771Y-108585238D02*
X125873390Y-108680476D01*
X125873390Y-108680476D02*
X125921009Y-108728095D01*
X125921009Y-108728095D02*
X126016247Y-108775714D01*
X126016247Y-108775714D02*
X126254342Y-108775714D01*
X126254342Y-108775714D02*
X126349580Y-108728095D01*
X126349580Y-108728095D02*
X126397200Y-108680476D01*
X126397200Y-108680476D02*
X126444819Y-108585238D01*
X126444819Y-108585238D02*
X126444819Y-108299524D01*
X126444819Y-108299524D02*
X126397200Y-108204286D01*
X126397200Y-108204286D02*
X126349580Y-108156667D01*
X166522819Y-96847142D02*
X166046628Y-96513809D01*
X166522819Y-96275714D02*
X165522819Y-96275714D01*
X165522819Y-96275714D02*
X165522819Y-96656666D01*
X165522819Y-96656666D02*
X165570438Y-96751904D01*
X165570438Y-96751904D02*
X165618057Y-96799523D01*
X165618057Y-96799523D02*
X165713295Y-96847142D01*
X165713295Y-96847142D02*
X165856152Y-96847142D01*
X165856152Y-96847142D02*
X165951390Y-96799523D01*
X165951390Y-96799523D02*
X165999009Y-96751904D01*
X165999009Y-96751904D02*
X166046628Y-96656666D01*
X166046628Y-96656666D02*
X166046628Y-96275714D01*
X166522819Y-97799523D02*
X166522819Y-97228095D01*
X166522819Y-97513809D02*
X165522819Y-97513809D01*
X165522819Y-97513809D02*
X165665676Y-97418571D01*
X165665676Y-97418571D02*
X165760914Y-97323333D01*
X165760914Y-97323333D02*
X165808533Y-97228095D01*
X165522819Y-98132857D02*
X165522819Y-98799523D01*
X165522819Y-98799523D02*
X166522819Y-98370952D01*
X160002819Y-106931142D02*
X159526628Y-106597809D01*
X160002819Y-106359714D02*
X159002819Y-106359714D01*
X159002819Y-106359714D02*
X159002819Y-106740666D01*
X159002819Y-106740666D02*
X159050438Y-106835904D01*
X159050438Y-106835904D02*
X159098057Y-106883523D01*
X159098057Y-106883523D02*
X159193295Y-106931142D01*
X159193295Y-106931142D02*
X159336152Y-106931142D01*
X159336152Y-106931142D02*
X159431390Y-106883523D01*
X159431390Y-106883523D02*
X159479009Y-106835904D01*
X159479009Y-106835904D02*
X159526628Y-106740666D01*
X159526628Y-106740666D02*
X159526628Y-106359714D01*
X160002819Y-107883523D02*
X160002819Y-107312095D01*
X160002819Y-107597809D02*
X159002819Y-107597809D01*
X159002819Y-107597809D02*
X159145676Y-107502571D01*
X159145676Y-107502571D02*
X159240914Y-107407333D01*
X159240914Y-107407333D02*
X159288533Y-107312095D01*
X160002819Y-108359714D02*
X160002819Y-108550190D01*
X160002819Y-108550190D02*
X159955200Y-108645428D01*
X159955200Y-108645428D02*
X159907580Y-108693047D01*
X159907580Y-108693047D02*
X159764723Y-108788285D01*
X159764723Y-108788285D02*
X159574247Y-108835904D01*
X159574247Y-108835904D02*
X159193295Y-108835904D01*
X159193295Y-108835904D02*
X159098057Y-108788285D01*
X159098057Y-108788285D02*
X159050438Y-108740666D01*
X159050438Y-108740666D02*
X159002819Y-108645428D01*
X159002819Y-108645428D02*
X159002819Y-108454952D01*
X159002819Y-108454952D02*
X159050438Y-108359714D01*
X159050438Y-108359714D02*
X159098057Y-108312095D01*
X159098057Y-108312095D02*
X159193295Y-108264476D01*
X159193295Y-108264476D02*
X159431390Y-108264476D01*
X159431390Y-108264476D02*
X159526628Y-108312095D01*
X159526628Y-108312095D02*
X159574247Y-108359714D01*
X159574247Y-108359714D02*
X159621866Y-108454952D01*
X159621866Y-108454952D02*
X159621866Y-108645428D01*
X159621866Y-108645428D02*
X159574247Y-108740666D01*
X159574247Y-108740666D02*
X159526628Y-108788285D01*
X159526628Y-108788285D02*
X159431390Y-108835904D01*
X144373333Y-105834819D02*
X144373333Y-106549104D01*
X144373333Y-106549104D02*
X144420952Y-106691961D01*
X144420952Y-106691961D02*
X144516190Y-106787200D01*
X144516190Y-106787200D02*
X144659047Y-106834819D01*
X144659047Y-106834819D02*
X144754285Y-106834819D01*
X143373333Y-106834819D02*
X143944761Y-106834819D01*
X143659047Y-106834819D02*
X143659047Y-105834819D01*
X143659047Y-105834819D02*
X143754285Y-105977676D01*
X143754285Y-105977676D02*
X143849523Y-106072914D01*
X143849523Y-106072914D02*
X143944761Y-106120533D01*
X155339785Y-102064819D02*
X155339785Y-101064819D01*
X155339785Y-101064819D02*
X155101690Y-101064819D01*
X155101690Y-101064819D02*
X154958833Y-101112438D01*
X154958833Y-101112438D02*
X154863595Y-101207676D01*
X154863595Y-101207676D02*
X154815976Y-101302914D01*
X154815976Y-101302914D02*
X154768357Y-101493390D01*
X154768357Y-101493390D02*
X154768357Y-101636247D01*
X154768357Y-101636247D02*
X154815976Y-101826723D01*
X154815976Y-101826723D02*
X154863595Y-101921961D01*
X154863595Y-101921961D02*
X154958833Y-102017200D01*
X154958833Y-102017200D02*
X155101690Y-102064819D01*
X155101690Y-102064819D02*
X155339785Y-102064819D01*
X153815976Y-102064819D02*
X154387404Y-102064819D01*
X154101690Y-102064819D02*
X154101690Y-101064819D01*
X154101690Y-101064819D02*
X154196928Y-101207676D01*
X154196928Y-101207676D02*
X154292166Y-101302914D01*
X154292166Y-101302914D02*
X154387404Y-101350533D01*
X153196928Y-101064819D02*
X153101690Y-101064819D01*
X153101690Y-101064819D02*
X153006452Y-101112438D01*
X153006452Y-101112438D02*
X152958833Y-101160057D01*
X152958833Y-101160057D02*
X152911214Y-101255295D01*
X152911214Y-101255295D02*
X152863595Y-101445771D01*
X152863595Y-101445771D02*
X152863595Y-101683866D01*
X152863595Y-101683866D02*
X152911214Y-101874342D01*
X152911214Y-101874342D02*
X152958833Y-101969580D01*
X152958833Y-101969580D02*
X153006452Y-102017200D01*
X153006452Y-102017200D02*
X153101690Y-102064819D01*
X153101690Y-102064819D02*
X153196928Y-102064819D01*
X153196928Y-102064819D02*
X153292166Y-102017200D01*
X153292166Y-102017200D02*
X153339785Y-101969580D01*
X153339785Y-101969580D02*
X153387404Y-101874342D01*
X153387404Y-101874342D02*
X153435023Y-101683866D01*
X153435023Y-101683866D02*
X153435023Y-101445771D01*
X153435023Y-101445771D02*
X153387404Y-101255295D01*
X153387404Y-101255295D02*
X153339785Y-101160057D01*
X153339785Y-101160057D02*
X153292166Y-101112438D01*
X153292166Y-101112438D02*
X153196928Y-101064819D01*
X129344819Y-108143333D02*
X128868628Y-107810000D01*
X129344819Y-107571905D02*
X128344819Y-107571905D01*
X128344819Y-107571905D02*
X128344819Y-107952857D01*
X128344819Y-107952857D02*
X128392438Y-108048095D01*
X128392438Y-108048095D02*
X128440057Y-108095714D01*
X128440057Y-108095714D02*
X128535295Y-108143333D01*
X128535295Y-108143333D02*
X128678152Y-108143333D01*
X128678152Y-108143333D02*
X128773390Y-108095714D01*
X128773390Y-108095714D02*
X128821009Y-108048095D01*
X128821009Y-108048095D02*
X128868628Y-107952857D01*
X128868628Y-107952857D02*
X128868628Y-107571905D01*
X128344819Y-109000476D02*
X128344819Y-108810000D01*
X128344819Y-108810000D02*
X128392438Y-108714762D01*
X128392438Y-108714762D02*
X128440057Y-108667143D01*
X128440057Y-108667143D02*
X128582914Y-108571905D01*
X128582914Y-108571905D02*
X128773390Y-108524286D01*
X128773390Y-108524286D02*
X129154342Y-108524286D01*
X129154342Y-108524286D02*
X129249580Y-108571905D01*
X129249580Y-108571905D02*
X129297200Y-108619524D01*
X129297200Y-108619524D02*
X129344819Y-108714762D01*
X129344819Y-108714762D02*
X129344819Y-108905238D01*
X129344819Y-108905238D02*
X129297200Y-109000476D01*
X129297200Y-109000476D02*
X129249580Y-109048095D01*
X129249580Y-109048095D02*
X129154342Y-109095714D01*
X129154342Y-109095714D02*
X128916247Y-109095714D01*
X128916247Y-109095714D02*
X128821009Y-109048095D01*
X128821009Y-109048095D02*
X128773390Y-109000476D01*
X128773390Y-109000476D02*
X128725771Y-108905238D01*
X128725771Y-108905238D02*
X128725771Y-108714762D01*
X128725771Y-108714762D02*
X128773390Y-108619524D01*
X128773390Y-108619524D02*
X128821009Y-108571905D01*
X128821009Y-108571905D02*
X128916247Y-108524286D01*
X136700057Y-92924761D02*
X136652438Y-92829523D01*
X136652438Y-92829523D02*
X136557200Y-92734285D01*
X136557200Y-92734285D02*
X136414342Y-92591428D01*
X136414342Y-92591428D02*
X136366723Y-92496190D01*
X136366723Y-92496190D02*
X136366723Y-92400952D01*
X136604819Y-92448571D02*
X136557200Y-92353333D01*
X136557200Y-92353333D02*
X136461961Y-92258095D01*
X136461961Y-92258095D02*
X136271485Y-92210476D01*
X136271485Y-92210476D02*
X135938152Y-92210476D01*
X135938152Y-92210476D02*
X135747676Y-92258095D01*
X135747676Y-92258095D02*
X135652438Y-92353333D01*
X135652438Y-92353333D02*
X135604819Y-92448571D01*
X135604819Y-92448571D02*
X135604819Y-92639047D01*
X135604819Y-92639047D02*
X135652438Y-92734285D01*
X135652438Y-92734285D02*
X135747676Y-92829523D01*
X135747676Y-92829523D02*
X135938152Y-92877142D01*
X135938152Y-92877142D02*
X136271485Y-92877142D01*
X136271485Y-92877142D02*
X136461961Y-92829523D01*
X136461961Y-92829523D02*
X136557200Y-92734285D01*
X136557200Y-92734285D02*
X136604819Y-92639047D01*
X136604819Y-92639047D02*
X136604819Y-92448571D01*
X136604819Y-93829523D02*
X136604819Y-93258095D01*
X136604819Y-93543809D02*
X135604819Y-93543809D01*
X135604819Y-93543809D02*
X135747676Y-93448571D01*
X135747676Y-93448571D02*
X135842914Y-93353333D01*
X135842914Y-93353333D02*
X135890533Y-93258095D01*
X176369580Y-87617142D02*
X176417200Y-87569523D01*
X176417200Y-87569523D02*
X176464819Y-87426666D01*
X176464819Y-87426666D02*
X176464819Y-87331428D01*
X176464819Y-87331428D02*
X176417200Y-87188571D01*
X176417200Y-87188571D02*
X176321961Y-87093333D01*
X176321961Y-87093333D02*
X176226723Y-87045714D01*
X176226723Y-87045714D02*
X176036247Y-86998095D01*
X176036247Y-86998095D02*
X175893390Y-86998095D01*
X175893390Y-86998095D02*
X175702914Y-87045714D01*
X175702914Y-87045714D02*
X175607676Y-87093333D01*
X175607676Y-87093333D02*
X175512438Y-87188571D01*
X175512438Y-87188571D02*
X175464819Y-87331428D01*
X175464819Y-87331428D02*
X175464819Y-87426666D01*
X175464819Y-87426666D02*
X175512438Y-87569523D01*
X175512438Y-87569523D02*
X175560057Y-87617142D01*
X176464819Y-88569523D02*
X176464819Y-87998095D01*
X176464819Y-88283809D02*
X175464819Y-88283809D01*
X175464819Y-88283809D02*
X175607676Y-88188571D01*
X175607676Y-88188571D02*
X175702914Y-88093333D01*
X175702914Y-88093333D02*
X175750533Y-87998095D01*
X175893390Y-89140952D02*
X175845771Y-89045714D01*
X175845771Y-89045714D02*
X175798152Y-88998095D01*
X175798152Y-88998095D02*
X175702914Y-88950476D01*
X175702914Y-88950476D02*
X175655295Y-88950476D01*
X175655295Y-88950476D02*
X175560057Y-88998095D01*
X175560057Y-88998095D02*
X175512438Y-89045714D01*
X175512438Y-89045714D02*
X175464819Y-89140952D01*
X175464819Y-89140952D02*
X175464819Y-89331428D01*
X175464819Y-89331428D02*
X175512438Y-89426666D01*
X175512438Y-89426666D02*
X175560057Y-89474285D01*
X175560057Y-89474285D02*
X175655295Y-89521904D01*
X175655295Y-89521904D02*
X175702914Y-89521904D01*
X175702914Y-89521904D02*
X175798152Y-89474285D01*
X175798152Y-89474285D02*
X175845771Y-89426666D01*
X175845771Y-89426666D02*
X175893390Y-89331428D01*
X175893390Y-89331428D02*
X175893390Y-89140952D01*
X175893390Y-89140952D02*
X175941009Y-89045714D01*
X175941009Y-89045714D02*
X175988628Y-88998095D01*
X175988628Y-88998095D02*
X176083866Y-88950476D01*
X176083866Y-88950476D02*
X176274342Y-88950476D01*
X176274342Y-88950476D02*
X176369580Y-88998095D01*
X176369580Y-88998095D02*
X176417200Y-89045714D01*
X176417200Y-89045714D02*
X176464819Y-89140952D01*
X176464819Y-89140952D02*
X176464819Y-89331428D01*
X176464819Y-89331428D02*
X176417200Y-89426666D01*
X176417200Y-89426666D02*
X176369580Y-89474285D01*
X176369580Y-89474285D02*
X176274342Y-89521904D01*
X176274342Y-89521904D02*
X176083866Y-89521904D01*
X176083866Y-89521904D02*
X175988628Y-89474285D01*
X175988628Y-89474285D02*
X175941009Y-89426666D01*
X175941009Y-89426666D02*
X175893390Y-89331428D01*
X156700819Y-92961142D02*
X156224628Y-92627809D01*
X156700819Y-92389714D02*
X155700819Y-92389714D01*
X155700819Y-92389714D02*
X155700819Y-92770666D01*
X155700819Y-92770666D02*
X155748438Y-92865904D01*
X155748438Y-92865904D02*
X155796057Y-92913523D01*
X155796057Y-92913523D02*
X155891295Y-92961142D01*
X155891295Y-92961142D02*
X156034152Y-92961142D01*
X156034152Y-92961142D02*
X156129390Y-92913523D01*
X156129390Y-92913523D02*
X156177009Y-92865904D01*
X156177009Y-92865904D02*
X156224628Y-92770666D01*
X156224628Y-92770666D02*
X156224628Y-92389714D01*
X155796057Y-93342095D02*
X155748438Y-93389714D01*
X155748438Y-93389714D02*
X155700819Y-93484952D01*
X155700819Y-93484952D02*
X155700819Y-93723047D01*
X155700819Y-93723047D02*
X155748438Y-93818285D01*
X155748438Y-93818285D02*
X155796057Y-93865904D01*
X155796057Y-93865904D02*
X155891295Y-93913523D01*
X155891295Y-93913523D02*
X155986533Y-93913523D01*
X155986533Y-93913523D02*
X156129390Y-93865904D01*
X156129390Y-93865904D02*
X156700819Y-93294476D01*
X156700819Y-93294476D02*
X156700819Y-93913523D01*
X156700819Y-94865904D02*
X156700819Y-94294476D01*
X156700819Y-94580190D02*
X155700819Y-94580190D01*
X155700819Y-94580190D02*
X155843676Y-94484952D01*
X155843676Y-94484952D02*
X155938914Y-94389714D01*
X155938914Y-94389714D02*
X155986533Y-94294476D01*
X122414819Y-93173333D02*
X121938628Y-92840000D01*
X122414819Y-92601905D02*
X121414819Y-92601905D01*
X121414819Y-92601905D02*
X121414819Y-92982857D01*
X121414819Y-92982857D02*
X121462438Y-93078095D01*
X121462438Y-93078095D02*
X121510057Y-93125714D01*
X121510057Y-93125714D02*
X121605295Y-93173333D01*
X121605295Y-93173333D02*
X121748152Y-93173333D01*
X121748152Y-93173333D02*
X121843390Y-93125714D01*
X121843390Y-93125714D02*
X121891009Y-93078095D01*
X121891009Y-93078095D02*
X121938628Y-92982857D01*
X121938628Y-92982857D02*
X121938628Y-92601905D01*
X122414819Y-94125714D02*
X122414819Y-93554286D01*
X122414819Y-93840000D02*
X121414819Y-93840000D01*
X121414819Y-93840000D02*
X121557676Y-93744762D01*
X121557676Y-93744762D02*
X121652914Y-93649524D01*
X121652914Y-93649524D02*
X121700533Y-93554286D01*
X131894819Y-93531905D02*
X130894819Y-93531905D01*
X130894819Y-93531905D02*
X130894819Y-93770000D01*
X130894819Y-93770000D02*
X130942438Y-93912857D01*
X130942438Y-93912857D02*
X131037676Y-94008095D01*
X131037676Y-94008095D02*
X131132914Y-94055714D01*
X131132914Y-94055714D02*
X131323390Y-94103333D01*
X131323390Y-94103333D02*
X131466247Y-94103333D01*
X131466247Y-94103333D02*
X131656723Y-94055714D01*
X131656723Y-94055714D02*
X131751961Y-94008095D01*
X131751961Y-94008095D02*
X131847200Y-93912857D01*
X131847200Y-93912857D02*
X131894819Y-93770000D01*
X131894819Y-93770000D02*
X131894819Y-93531905D01*
X130990057Y-94484286D02*
X130942438Y-94531905D01*
X130942438Y-94531905D02*
X130894819Y-94627143D01*
X130894819Y-94627143D02*
X130894819Y-94865238D01*
X130894819Y-94865238D02*
X130942438Y-94960476D01*
X130942438Y-94960476D02*
X130990057Y-95008095D01*
X130990057Y-95008095D02*
X131085295Y-95055714D01*
X131085295Y-95055714D02*
X131180533Y-95055714D01*
X131180533Y-95055714D02*
X131323390Y-95008095D01*
X131323390Y-95008095D02*
X131894819Y-94436667D01*
X131894819Y-94436667D02*
X131894819Y-95055714D01*
X129394819Y-94103333D02*
X128918628Y-93770000D01*
X129394819Y-93531905D02*
X128394819Y-93531905D01*
X128394819Y-93531905D02*
X128394819Y-93912857D01*
X128394819Y-93912857D02*
X128442438Y-94008095D01*
X128442438Y-94008095D02*
X128490057Y-94055714D01*
X128490057Y-94055714D02*
X128585295Y-94103333D01*
X128585295Y-94103333D02*
X128728152Y-94103333D01*
X128728152Y-94103333D02*
X128823390Y-94055714D01*
X128823390Y-94055714D02*
X128871009Y-94008095D01*
X128871009Y-94008095D02*
X128918628Y-93912857D01*
X128918628Y-93912857D02*
X128918628Y-93531905D01*
X128394819Y-94436667D02*
X128394819Y-95055714D01*
X128394819Y-95055714D02*
X128775771Y-94722381D01*
X128775771Y-94722381D02*
X128775771Y-94865238D01*
X128775771Y-94865238D02*
X128823390Y-94960476D01*
X128823390Y-94960476D02*
X128871009Y-95008095D01*
X128871009Y-95008095D02*
X128966247Y-95055714D01*
X128966247Y-95055714D02*
X129204342Y-95055714D01*
X129204342Y-95055714D02*
X129299580Y-95008095D01*
X129299580Y-95008095D02*
X129347200Y-94960476D01*
X129347200Y-94960476D02*
X129394819Y-94865238D01*
X129394819Y-94865238D02*
X129394819Y-94579524D01*
X129394819Y-94579524D02*
X129347200Y-94484286D01*
X129347200Y-94484286D02*
X129299580Y-94436667D01*
X162084819Y-100593095D02*
X162894342Y-100593095D01*
X162894342Y-100593095D02*
X162989580Y-100640714D01*
X162989580Y-100640714D02*
X163037200Y-100688333D01*
X163037200Y-100688333D02*
X163084819Y-100783571D01*
X163084819Y-100783571D02*
X163084819Y-100974047D01*
X163084819Y-100974047D02*
X163037200Y-101069285D01*
X163037200Y-101069285D02*
X162989580Y-101116904D01*
X162989580Y-101116904D02*
X162894342Y-101164523D01*
X162894342Y-101164523D02*
X162084819Y-101164523D01*
X162084819Y-102069285D02*
X162084819Y-101878809D01*
X162084819Y-101878809D02*
X162132438Y-101783571D01*
X162132438Y-101783571D02*
X162180057Y-101735952D01*
X162180057Y-101735952D02*
X162322914Y-101640714D01*
X162322914Y-101640714D02*
X162513390Y-101593095D01*
X162513390Y-101593095D02*
X162894342Y-101593095D01*
X162894342Y-101593095D02*
X162989580Y-101640714D01*
X162989580Y-101640714D02*
X163037200Y-101688333D01*
X163037200Y-101688333D02*
X163084819Y-101783571D01*
X163084819Y-101783571D02*
X163084819Y-101974047D01*
X163084819Y-101974047D02*
X163037200Y-102069285D01*
X163037200Y-102069285D02*
X162989580Y-102116904D01*
X162989580Y-102116904D02*
X162894342Y-102164523D01*
X162894342Y-102164523D02*
X162656247Y-102164523D01*
X162656247Y-102164523D02*
X162561009Y-102116904D01*
X162561009Y-102116904D02*
X162513390Y-102069285D01*
X162513390Y-102069285D02*
X162465771Y-101974047D01*
X162465771Y-101974047D02*
X162465771Y-101783571D01*
X162465771Y-101783571D02*
X162513390Y-101688333D01*
X162513390Y-101688333D02*
X162561009Y-101640714D01*
X162561009Y-101640714D02*
X162656247Y-101593095D01*
X142665580Y-87627142D02*
X142713200Y-87579523D01*
X142713200Y-87579523D02*
X142760819Y-87436666D01*
X142760819Y-87436666D02*
X142760819Y-87341428D01*
X142760819Y-87341428D02*
X142713200Y-87198571D01*
X142713200Y-87198571D02*
X142617961Y-87103333D01*
X142617961Y-87103333D02*
X142522723Y-87055714D01*
X142522723Y-87055714D02*
X142332247Y-87008095D01*
X142332247Y-87008095D02*
X142189390Y-87008095D01*
X142189390Y-87008095D02*
X141998914Y-87055714D01*
X141998914Y-87055714D02*
X141903676Y-87103333D01*
X141903676Y-87103333D02*
X141808438Y-87198571D01*
X141808438Y-87198571D02*
X141760819Y-87341428D01*
X141760819Y-87341428D02*
X141760819Y-87436666D01*
X141760819Y-87436666D02*
X141808438Y-87579523D01*
X141808438Y-87579523D02*
X141856057Y-87627142D01*
X142760819Y-88579523D02*
X142760819Y-88008095D01*
X142760819Y-88293809D02*
X141760819Y-88293809D01*
X141760819Y-88293809D02*
X141903676Y-88198571D01*
X141903676Y-88198571D02*
X141998914Y-88103333D01*
X141998914Y-88103333D02*
X142046533Y-88008095D01*
X141760819Y-89198571D02*
X141760819Y-89293809D01*
X141760819Y-89293809D02*
X141808438Y-89389047D01*
X141808438Y-89389047D02*
X141856057Y-89436666D01*
X141856057Y-89436666D02*
X141951295Y-89484285D01*
X141951295Y-89484285D02*
X142141771Y-89531904D01*
X142141771Y-89531904D02*
X142379866Y-89531904D01*
X142379866Y-89531904D02*
X142570342Y-89484285D01*
X142570342Y-89484285D02*
X142665580Y-89436666D01*
X142665580Y-89436666D02*
X142713200Y-89389047D01*
X142713200Y-89389047D02*
X142760819Y-89293809D01*
X142760819Y-89293809D02*
X142760819Y-89198571D01*
X142760819Y-89198571D02*
X142713200Y-89103333D01*
X142713200Y-89103333D02*
X142665580Y-89055714D01*
X142665580Y-89055714D02*
X142570342Y-89008095D01*
X142570342Y-89008095D02*
X142379866Y-88960476D01*
X142379866Y-88960476D02*
X142141771Y-88960476D01*
X142141771Y-88960476D02*
X141951295Y-89008095D01*
X141951295Y-89008095D02*
X141856057Y-89055714D01*
X141856057Y-89055714D02*
X141808438Y-89103333D01*
X141808438Y-89103333D02*
X141760819Y-89198571D01*
X126743333Y-91714819D02*
X126743333Y-92429104D01*
X126743333Y-92429104D02*
X126790952Y-92571961D01*
X126790952Y-92571961D02*
X126886190Y-92667200D01*
X126886190Y-92667200D02*
X127029047Y-92714819D01*
X127029047Y-92714819D02*
X127124285Y-92714819D01*
X125838571Y-92048152D02*
X125838571Y-92714819D01*
X126076666Y-91667200D02*
X126314761Y-92381485D01*
X126314761Y-92381485D02*
X125695714Y-92381485D01*
X131839580Y-108183333D02*
X131887200Y-108135714D01*
X131887200Y-108135714D02*
X131934819Y-107992857D01*
X131934819Y-107992857D02*
X131934819Y-107897619D01*
X131934819Y-107897619D02*
X131887200Y-107754762D01*
X131887200Y-107754762D02*
X131791961Y-107659524D01*
X131791961Y-107659524D02*
X131696723Y-107611905D01*
X131696723Y-107611905D02*
X131506247Y-107564286D01*
X131506247Y-107564286D02*
X131363390Y-107564286D01*
X131363390Y-107564286D02*
X131172914Y-107611905D01*
X131172914Y-107611905D02*
X131077676Y-107659524D01*
X131077676Y-107659524D02*
X130982438Y-107754762D01*
X130982438Y-107754762D02*
X130934819Y-107897619D01*
X130934819Y-107897619D02*
X130934819Y-107992857D01*
X130934819Y-107992857D02*
X130982438Y-108135714D01*
X130982438Y-108135714D02*
X131030057Y-108183333D01*
X131030057Y-108564286D02*
X130982438Y-108611905D01*
X130982438Y-108611905D02*
X130934819Y-108707143D01*
X130934819Y-108707143D02*
X130934819Y-108945238D01*
X130934819Y-108945238D02*
X130982438Y-109040476D01*
X130982438Y-109040476D02*
X131030057Y-109088095D01*
X131030057Y-109088095D02*
X131125295Y-109135714D01*
X131125295Y-109135714D02*
X131220533Y-109135714D01*
X131220533Y-109135714D02*
X131363390Y-109088095D01*
X131363390Y-109088095D02*
X131934819Y-108516667D01*
X131934819Y-108516667D02*
X131934819Y-109135714D01*
X123675594Y-102374819D02*
X123675594Y-101374819D01*
X123675594Y-101374819D02*
X123437499Y-101374819D01*
X123437499Y-101374819D02*
X123294642Y-101422438D01*
X123294642Y-101422438D02*
X123199404Y-101517676D01*
X123199404Y-101517676D02*
X123151785Y-101612914D01*
X123151785Y-101612914D02*
X123104166Y-101803390D01*
X123104166Y-101803390D02*
X123104166Y-101946247D01*
X123104166Y-101946247D02*
X123151785Y-102136723D01*
X123151785Y-102136723D02*
X123199404Y-102231961D01*
X123199404Y-102231961D02*
X123294642Y-102327200D01*
X123294642Y-102327200D02*
X123437499Y-102374819D01*
X123437499Y-102374819D02*
X123675594Y-102374819D01*
X122770832Y-101374819D02*
X122151785Y-101374819D01*
X122151785Y-101374819D02*
X122485118Y-101755771D01*
X122485118Y-101755771D02*
X122342261Y-101755771D01*
X122342261Y-101755771D02*
X122247023Y-101803390D01*
X122247023Y-101803390D02*
X122199404Y-101851009D01*
X122199404Y-101851009D02*
X122151785Y-101946247D01*
X122151785Y-101946247D02*
X122151785Y-102184342D01*
X122151785Y-102184342D02*
X122199404Y-102279580D01*
X122199404Y-102279580D02*
X122247023Y-102327200D01*
X122247023Y-102327200D02*
X122342261Y-102374819D01*
X122342261Y-102374819D02*
X122627975Y-102374819D01*
X122627975Y-102374819D02*
X122723213Y-102327200D01*
X122723213Y-102327200D02*
X122770832Y-102279580D01*
X129008094Y-114654819D02*
X129008094Y-113654819D01*
X129008094Y-113654819D02*
X128769999Y-113654819D01*
X128769999Y-113654819D02*
X128627142Y-113702438D01*
X128627142Y-113702438D02*
X128531904Y-113797676D01*
X128531904Y-113797676D02*
X128484285Y-113892914D01*
X128484285Y-113892914D02*
X128436666Y-114083390D01*
X128436666Y-114083390D02*
X128436666Y-114226247D01*
X128436666Y-114226247D02*
X128484285Y-114416723D01*
X128484285Y-114416723D02*
X128531904Y-114511961D01*
X128531904Y-114511961D02*
X128627142Y-114607200D01*
X128627142Y-114607200D02*
X128769999Y-114654819D01*
X128769999Y-114654819D02*
X129008094Y-114654819D01*
X127484285Y-114654819D02*
X128055713Y-114654819D01*
X127769999Y-114654819D02*
X127769999Y-113654819D01*
X127769999Y-113654819D02*
X127865237Y-113797676D01*
X127865237Y-113797676D02*
X127960475Y-113892914D01*
X127960475Y-113892914D02*
X128055713Y-113940533D01*
X123513333Y-114194819D02*
X123513333Y-114909104D01*
X123513333Y-114909104D02*
X123560952Y-115051961D01*
X123560952Y-115051961D02*
X123656190Y-115147200D01*
X123656190Y-115147200D02*
X123799047Y-115194819D01*
X123799047Y-115194819D02*
X123894285Y-115194819D01*
X123132380Y-114194819D02*
X122513333Y-114194819D01*
X122513333Y-114194819D02*
X122846666Y-114575771D01*
X122846666Y-114575771D02*
X122703809Y-114575771D01*
X122703809Y-114575771D02*
X122608571Y-114623390D01*
X122608571Y-114623390D02*
X122560952Y-114671009D01*
X122560952Y-114671009D02*
X122513333Y-114766247D01*
X122513333Y-114766247D02*
X122513333Y-115004342D01*
X122513333Y-115004342D02*
X122560952Y-115099580D01*
X122560952Y-115099580D02*
X122608571Y-115147200D01*
X122608571Y-115147200D02*
X122703809Y-115194819D01*
X122703809Y-115194819D02*
X122989523Y-115194819D01*
X122989523Y-115194819D02*
X123084761Y-115147200D01*
X123084761Y-115147200D02*
X123132380Y-115099580D01*
X131206819Y-100903095D02*
X132016342Y-100903095D01*
X132016342Y-100903095D02*
X132111580Y-100950714D01*
X132111580Y-100950714D02*
X132159200Y-100998333D01*
X132159200Y-100998333D02*
X132206819Y-101093571D01*
X132206819Y-101093571D02*
X132206819Y-101284047D01*
X132206819Y-101284047D02*
X132159200Y-101379285D01*
X132159200Y-101379285D02*
X132111580Y-101426904D01*
X132111580Y-101426904D02*
X132016342Y-101474523D01*
X132016342Y-101474523D02*
X131206819Y-101474523D01*
X132206819Y-102474523D02*
X132206819Y-101903095D01*
X132206819Y-102188809D02*
X131206819Y-102188809D01*
X131206819Y-102188809D02*
X131349676Y-102093571D01*
X131349676Y-102093571D02*
X131444914Y-101998333D01*
X131444914Y-101998333D02*
X131492533Y-101903095D01*
X165336819Y-105915142D02*
X164860628Y-105581809D01*
X165336819Y-105343714D02*
X164336819Y-105343714D01*
X164336819Y-105343714D02*
X164336819Y-105724666D01*
X164336819Y-105724666D02*
X164384438Y-105819904D01*
X164384438Y-105819904D02*
X164432057Y-105867523D01*
X164432057Y-105867523D02*
X164527295Y-105915142D01*
X164527295Y-105915142D02*
X164670152Y-105915142D01*
X164670152Y-105915142D02*
X164765390Y-105867523D01*
X164765390Y-105867523D02*
X164813009Y-105819904D01*
X164813009Y-105819904D02*
X164860628Y-105724666D01*
X164860628Y-105724666D02*
X164860628Y-105343714D01*
X165336819Y-106867523D02*
X165336819Y-106296095D01*
X165336819Y-106581809D02*
X164336819Y-106581809D01*
X164336819Y-106581809D02*
X164479676Y-106486571D01*
X164479676Y-106486571D02*
X164574914Y-106391333D01*
X164574914Y-106391333D02*
X164622533Y-106296095D01*
X164765390Y-107438952D02*
X164717771Y-107343714D01*
X164717771Y-107343714D02*
X164670152Y-107296095D01*
X164670152Y-107296095D02*
X164574914Y-107248476D01*
X164574914Y-107248476D02*
X164527295Y-107248476D01*
X164527295Y-107248476D02*
X164432057Y-107296095D01*
X164432057Y-107296095D02*
X164384438Y-107343714D01*
X164384438Y-107343714D02*
X164336819Y-107438952D01*
X164336819Y-107438952D02*
X164336819Y-107629428D01*
X164336819Y-107629428D02*
X164384438Y-107724666D01*
X164384438Y-107724666D02*
X164432057Y-107772285D01*
X164432057Y-107772285D02*
X164527295Y-107819904D01*
X164527295Y-107819904D02*
X164574914Y-107819904D01*
X164574914Y-107819904D02*
X164670152Y-107772285D01*
X164670152Y-107772285D02*
X164717771Y-107724666D01*
X164717771Y-107724666D02*
X164765390Y-107629428D01*
X164765390Y-107629428D02*
X164765390Y-107438952D01*
X164765390Y-107438952D02*
X164813009Y-107343714D01*
X164813009Y-107343714D02*
X164860628Y-107296095D01*
X164860628Y-107296095D02*
X164955866Y-107248476D01*
X164955866Y-107248476D02*
X165146342Y-107248476D01*
X165146342Y-107248476D02*
X165241580Y-107296095D01*
X165241580Y-107296095D02*
X165289200Y-107343714D01*
X165289200Y-107343714D02*
X165336819Y-107438952D01*
X165336819Y-107438952D02*
X165336819Y-107629428D01*
X165336819Y-107629428D02*
X165289200Y-107724666D01*
X165289200Y-107724666D02*
X165241580Y-107772285D01*
X165241580Y-107772285D02*
X165146342Y-107819904D01*
X165146342Y-107819904D02*
X164955866Y-107819904D01*
X164955866Y-107819904D02*
X164860628Y-107772285D01*
X164860628Y-107772285D02*
X164813009Y-107724666D01*
X164813009Y-107724666D02*
X164765390Y-107629428D01*
X171804285Y-114324819D02*
X171804285Y-113324819D01*
X171804285Y-113324819D02*
X171566190Y-113324819D01*
X171566190Y-113324819D02*
X171423333Y-113372438D01*
X171423333Y-113372438D02*
X171328095Y-113467676D01*
X171328095Y-113467676D02*
X171280476Y-113562914D01*
X171280476Y-113562914D02*
X171232857Y-113753390D01*
X171232857Y-113753390D02*
X171232857Y-113896247D01*
X171232857Y-113896247D02*
X171280476Y-114086723D01*
X171280476Y-114086723D02*
X171328095Y-114181961D01*
X171328095Y-114181961D02*
X171423333Y-114277200D01*
X171423333Y-114277200D02*
X171566190Y-114324819D01*
X171566190Y-114324819D02*
X171804285Y-114324819D01*
X170280476Y-114324819D02*
X170851904Y-114324819D01*
X170566190Y-114324819D02*
X170566190Y-113324819D01*
X170566190Y-113324819D02*
X170661428Y-113467676D01*
X170661428Y-113467676D02*
X170756666Y-113562914D01*
X170756666Y-113562914D02*
X170851904Y-113610533D01*
X169328095Y-114324819D02*
X169899523Y-114324819D01*
X169613809Y-114324819D02*
X169613809Y-113324819D01*
X169613809Y-113324819D02*
X169709047Y-113467676D01*
X169709047Y-113467676D02*
X169804285Y-113562914D01*
X169804285Y-113562914D02*
X169899523Y-113610533D01*
X160964285Y-114414819D02*
X160964285Y-113414819D01*
X160964285Y-113414819D02*
X160726190Y-113414819D01*
X160726190Y-113414819D02*
X160583333Y-113462438D01*
X160583333Y-113462438D02*
X160488095Y-113557676D01*
X160488095Y-113557676D02*
X160440476Y-113652914D01*
X160440476Y-113652914D02*
X160392857Y-113843390D01*
X160392857Y-113843390D02*
X160392857Y-113986247D01*
X160392857Y-113986247D02*
X160440476Y-114176723D01*
X160440476Y-114176723D02*
X160488095Y-114271961D01*
X160488095Y-114271961D02*
X160583333Y-114367200D01*
X160583333Y-114367200D02*
X160726190Y-114414819D01*
X160726190Y-114414819D02*
X160964285Y-114414819D01*
X159440476Y-114414819D02*
X160011904Y-114414819D01*
X159726190Y-114414819D02*
X159726190Y-113414819D01*
X159726190Y-113414819D02*
X159821428Y-113557676D01*
X159821428Y-113557676D02*
X159916666Y-113652914D01*
X159916666Y-113652914D02*
X160011904Y-113700533D01*
X159059523Y-113510057D02*
X159011904Y-113462438D01*
X159011904Y-113462438D02*
X158916666Y-113414819D01*
X158916666Y-113414819D02*
X158678571Y-113414819D01*
X158678571Y-113414819D02*
X158583333Y-113462438D01*
X158583333Y-113462438D02*
X158535714Y-113510057D01*
X158535714Y-113510057D02*
X158488095Y-113605295D01*
X158488095Y-113605295D02*
X158488095Y-113700533D01*
X158488095Y-113700533D02*
X158535714Y-113843390D01*
X158535714Y-113843390D02*
X159107142Y-114414819D01*
X159107142Y-114414819D02*
X158488095Y-114414819D01*
X118988094Y-114624819D02*
X118988094Y-113624819D01*
X118988094Y-113624819D02*
X118749999Y-113624819D01*
X118749999Y-113624819D02*
X118607142Y-113672438D01*
X118607142Y-113672438D02*
X118511904Y-113767676D01*
X118511904Y-113767676D02*
X118464285Y-113862914D01*
X118464285Y-113862914D02*
X118416666Y-114053390D01*
X118416666Y-114053390D02*
X118416666Y-114196247D01*
X118416666Y-114196247D02*
X118464285Y-114386723D01*
X118464285Y-114386723D02*
X118511904Y-114481961D01*
X118511904Y-114481961D02*
X118607142Y-114577200D01*
X118607142Y-114577200D02*
X118749999Y-114624819D01*
X118749999Y-114624819D02*
X118988094Y-114624819D01*
X117559523Y-113958152D02*
X117559523Y-114624819D01*
X117797618Y-113577200D02*
X118035713Y-114291485D01*
X118035713Y-114291485D02*
X117416666Y-114291485D01*
X134644819Y-106753333D02*
X134168628Y-106420000D01*
X134644819Y-106181905D02*
X133644819Y-106181905D01*
X133644819Y-106181905D02*
X133644819Y-106562857D01*
X133644819Y-106562857D02*
X133692438Y-106658095D01*
X133692438Y-106658095D02*
X133740057Y-106705714D01*
X133740057Y-106705714D02*
X133835295Y-106753333D01*
X133835295Y-106753333D02*
X133978152Y-106753333D01*
X133978152Y-106753333D02*
X134073390Y-106705714D01*
X134073390Y-106705714D02*
X134121009Y-106658095D01*
X134121009Y-106658095D02*
X134168628Y-106562857D01*
X134168628Y-106562857D02*
X134168628Y-106181905D01*
X133644819Y-107658095D02*
X133644819Y-107181905D01*
X133644819Y-107181905D02*
X134121009Y-107134286D01*
X134121009Y-107134286D02*
X134073390Y-107181905D01*
X134073390Y-107181905D02*
X134025771Y-107277143D01*
X134025771Y-107277143D02*
X134025771Y-107515238D01*
X134025771Y-107515238D02*
X134073390Y-107610476D01*
X134073390Y-107610476D02*
X134121009Y-107658095D01*
X134121009Y-107658095D02*
X134216247Y-107705714D01*
X134216247Y-107705714D02*
X134454342Y-107705714D01*
X134454342Y-107705714D02*
X134549580Y-107658095D01*
X134549580Y-107658095D02*
X134597200Y-107610476D01*
X134597200Y-107610476D02*
X134644819Y-107515238D01*
X134644819Y-107515238D02*
X134644819Y-107277143D01*
X134644819Y-107277143D02*
X134597200Y-107181905D01*
X134597200Y-107181905D02*
X134549580Y-107134286D01*
X157227580Y-107037142D02*
X157275200Y-106989523D01*
X157275200Y-106989523D02*
X157322819Y-106846666D01*
X157322819Y-106846666D02*
X157322819Y-106751428D01*
X157322819Y-106751428D02*
X157275200Y-106608571D01*
X157275200Y-106608571D02*
X157179961Y-106513333D01*
X157179961Y-106513333D02*
X157084723Y-106465714D01*
X157084723Y-106465714D02*
X156894247Y-106418095D01*
X156894247Y-106418095D02*
X156751390Y-106418095D01*
X156751390Y-106418095D02*
X156560914Y-106465714D01*
X156560914Y-106465714D02*
X156465676Y-106513333D01*
X156465676Y-106513333D02*
X156370438Y-106608571D01*
X156370438Y-106608571D02*
X156322819Y-106751428D01*
X156322819Y-106751428D02*
X156322819Y-106846666D01*
X156322819Y-106846666D02*
X156370438Y-106989523D01*
X156370438Y-106989523D02*
X156418057Y-107037142D01*
X157322819Y-107989523D02*
X157322819Y-107418095D01*
X157322819Y-107703809D02*
X156322819Y-107703809D01*
X156322819Y-107703809D02*
X156465676Y-107608571D01*
X156465676Y-107608571D02*
X156560914Y-107513333D01*
X156560914Y-107513333D02*
X156608533Y-107418095D01*
X156322819Y-108894285D02*
X156322819Y-108418095D01*
X156322819Y-108418095D02*
X156799009Y-108370476D01*
X156799009Y-108370476D02*
X156751390Y-108418095D01*
X156751390Y-108418095D02*
X156703771Y-108513333D01*
X156703771Y-108513333D02*
X156703771Y-108751428D01*
X156703771Y-108751428D02*
X156751390Y-108846666D01*
X156751390Y-108846666D02*
X156799009Y-108894285D01*
X156799009Y-108894285D02*
X156894247Y-108941904D01*
X156894247Y-108941904D02*
X157132342Y-108941904D01*
X157132342Y-108941904D02*
X157227580Y-108894285D01*
X157227580Y-108894285D02*
X157275200Y-108846666D01*
X157275200Y-108846666D02*
X157322819Y-108751428D01*
X157322819Y-108751428D02*
X157322819Y-108513333D01*
X157322819Y-108513333D02*
X157275200Y-108418095D01*
X157275200Y-108418095D02*
X157227580Y-108370476D01*
X122206666Y-96329580D02*
X122254285Y-96377200D01*
X122254285Y-96377200D02*
X122397142Y-96424819D01*
X122397142Y-96424819D02*
X122492380Y-96424819D01*
X122492380Y-96424819D02*
X122635237Y-96377200D01*
X122635237Y-96377200D02*
X122730475Y-96281961D01*
X122730475Y-96281961D02*
X122778094Y-96186723D01*
X122778094Y-96186723D02*
X122825713Y-95996247D01*
X122825713Y-95996247D02*
X122825713Y-95853390D01*
X122825713Y-95853390D02*
X122778094Y-95662914D01*
X122778094Y-95662914D02*
X122730475Y-95567676D01*
X122730475Y-95567676D02*
X122635237Y-95472438D01*
X122635237Y-95472438D02*
X122492380Y-95424819D01*
X122492380Y-95424819D02*
X122397142Y-95424819D01*
X122397142Y-95424819D02*
X122254285Y-95472438D01*
X122254285Y-95472438D02*
X122206666Y-95520057D01*
X121349523Y-95758152D02*
X121349523Y-96424819D01*
X121587618Y-95377200D02*
X121825713Y-96091485D01*
X121825713Y-96091485D02*
X121206666Y-96091485D01*
X167557580Y-87627142D02*
X167605200Y-87579523D01*
X167605200Y-87579523D02*
X167652819Y-87436666D01*
X167652819Y-87436666D02*
X167652819Y-87341428D01*
X167652819Y-87341428D02*
X167605200Y-87198571D01*
X167605200Y-87198571D02*
X167509961Y-87103333D01*
X167509961Y-87103333D02*
X167414723Y-87055714D01*
X167414723Y-87055714D02*
X167224247Y-87008095D01*
X167224247Y-87008095D02*
X167081390Y-87008095D01*
X167081390Y-87008095D02*
X166890914Y-87055714D01*
X166890914Y-87055714D02*
X166795676Y-87103333D01*
X166795676Y-87103333D02*
X166700438Y-87198571D01*
X166700438Y-87198571D02*
X166652819Y-87341428D01*
X166652819Y-87341428D02*
X166652819Y-87436666D01*
X166652819Y-87436666D02*
X166700438Y-87579523D01*
X166700438Y-87579523D02*
X166748057Y-87627142D01*
X167652819Y-88579523D02*
X167652819Y-88008095D01*
X167652819Y-88293809D02*
X166652819Y-88293809D01*
X166652819Y-88293809D02*
X166795676Y-88198571D01*
X166795676Y-88198571D02*
X166890914Y-88103333D01*
X166890914Y-88103333D02*
X166938533Y-88008095D01*
X166652819Y-88912857D02*
X166652819Y-89579523D01*
X166652819Y-89579523D02*
X167652819Y-89150952D01*
X160272819Y-93317142D02*
X159796628Y-92983809D01*
X160272819Y-92745714D02*
X159272819Y-92745714D01*
X159272819Y-92745714D02*
X159272819Y-93126666D01*
X159272819Y-93126666D02*
X159320438Y-93221904D01*
X159320438Y-93221904D02*
X159368057Y-93269523D01*
X159368057Y-93269523D02*
X159463295Y-93317142D01*
X159463295Y-93317142D02*
X159606152Y-93317142D01*
X159606152Y-93317142D02*
X159701390Y-93269523D01*
X159701390Y-93269523D02*
X159749009Y-93221904D01*
X159749009Y-93221904D02*
X159796628Y-93126666D01*
X159796628Y-93126666D02*
X159796628Y-92745714D01*
X160272819Y-94269523D02*
X160272819Y-93698095D01*
X160272819Y-93983809D02*
X159272819Y-93983809D01*
X159272819Y-93983809D02*
X159415676Y-93888571D01*
X159415676Y-93888571D02*
X159510914Y-93793333D01*
X159510914Y-93793333D02*
X159558533Y-93698095D01*
X159272819Y-95126666D02*
X159272819Y-94936190D01*
X159272819Y-94936190D02*
X159320438Y-94840952D01*
X159320438Y-94840952D02*
X159368057Y-94793333D01*
X159368057Y-94793333D02*
X159510914Y-94698095D01*
X159510914Y-94698095D02*
X159701390Y-94650476D01*
X159701390Y-94650476D02*
X160082342Y-94650476D01*
X160082342Y-94650476D02*
X160177580Y-94698095D01*
X160177580Y-94698095D02*
X160225200Y-94745714D01*
X160225200Y-94745714D02*
X160272819Y-94840952D01*
X160272819Y-94840952D02*
X160272819Y-95031428D01*
X160272819Y-95031428D02*
X160225200Y-95126666D01*
X160225200Y-95126666D02*
X160177580Y-95174285D01*
X160177580Y-95174285D02*
X160082342Y-95221904D01*
X160082342Y-95221904D02*
X159844247Y-95221904D01*
X159844247Y-95221904D02*
X159749009Y-95174285D01*
X159749009Y-95174285D02*
X159701390Y-95126666D01*
X159701390Y-95126666D02*
X159653771Y-95031428D01*
X159653771Y-95031428D02*
X159653771Y-94840952D01*
X159653771Y-94840952D02*
X159701390Y-94745714D01*
X159701390Y-94745714D02*
X159749009Y-94698095D01*
X159749009Y-94698095D02*
X159844247Y-94650476D01*
X162707580Y-107185142D02*
X162755200Y-107137523D01*
X162755200Y-107137523D02*
X162802819Y-106994666D01*
X162802819Y-106994666D02*
X162802819Y-106899428D01*
X162802819Y-106899428D02*
X162755200Y-106756571D01*
X162755200Y-106756571D02*
X162659961Y-106661333D01*
X162659961Y-106661333D02*
X162564723Y-106613714D01*
X162564723Y-106613714D02*
X162374247Y-106566095D01*
X162374247Y-106566095D02*
X162231390Y-106566095D01*
X162231390Y-106566095D02*
X162040914Y-106613714D01*
X162040914Y-106613714D02*
X161945676Y-106661333D01*
X161945676Y-106661333D02*
X161850438Y-106756571D01*
X161850438Y-106756571D02*
X161802819Y-106899428D01*
X161802819Y-106899428D02*
X161802819Y-106994666D01*
X161802819Y-106994666D02*
X161850438Y-107137523D01*
X161850438Y-107137523D02*
X161898057Y-107185142D01*
X162802819Y-108137523D02*
X162802819Y-107566095D01*
X162802819Y-107851809D02*
X161802819Y-107851809D01*
X161802819Y-107851809D02*
X161945676Y-107756571D01*
X161945676Y-107756571D02*
X162040914Y-107661333D01*
X162040914Y-107661333D02*
X162088533Y-107566095D01*
X162136152Y-108994666D02*
X162802819Y-108994666D01*
X161755200Y-108756571D02*
X162469485Y-108518476D01*
X162469485Y-108518476D02*
X162469485Y-109137523D01*
X167578057Y-93254761D02*
X167530438Y-93159523D01*
X167530438Y-93159523D02*
X167435200Y-93064285D01*
X167435200Y-93064285D02*
X167292342Y-92921428D01*
X167292342Y-92921428D02*
X167244723Y-92826190D01*
X167244723Y-92826190D02*
X167244723Y-92730952D01*
X167482819Y-92778571D02*
X167435200Y-92683333D01*
X167435200Y-92683333D02*
X167339961Y-92588095D01*
X167339961Y-92588095D02*
X167149485Y-92540476D01*
X167149485Y-92540476D02*
X166816152Y-92540476D01*
X166816152Y-92540476D02*
X166625676Y-92588095D01*
X166625676Y-92588095D02*
X166530438Y-92683333D01*
X166530438Y-92683333D02*
X166482819Y-92778571D01*
X166482819Y-92778571D02*
X166482819Y-92969047D01*
X166482819Y-92969047D02*
X166530438Y-93064285D01*
X166530438Y-93064285D02*
X166625676Y-93159523D01*
X166625676Y-93159523D02*
X166816152Y-93207142D01*
X166816152Y-93207142D02*
X167149485Y-93207142D01*
X167149485Y-93207142D02*
X167339961Y-93159523D01*
X167339961Y-93159523D02*
X167435200Y-93064285D01*
X167435200Y-93064285D02*
X167482819Y-92969047D01*
X167482819Y-92969047D02*
X167482819Y-92778571D01*
X166816152Y-94064285D02*
X167482819Y-94064285D01*
X166435200Y-93826190D02*
X167149485Y-93588095D01*
X167149485Y-93588095D02*
X167149485Y-94207142D01*
X162772819Y-93221905D02*
X161772819Y-93221905D01*
X161772819Y-93221905D02*
X161772819Y-93460000D01*
X161772819Y-93460000D02*
X161820438Y-93602857D01*
X161820438Y-93602857D02*
X161915676Y-93698095D01*
X161915676Y-93698095D02*
X162010914Y-93745714D01*
X162010914Y-93745714D02*
X162201390Y-93793333D01*
X162201390Y-93793333D02*
X162344247Y-93793333D01*
X162344247Y-93793333D02*
X162534723Y-93745714D01*
X162534723Y-93745714D02*
X162629961Y-93698095D01*
X162629961Y-93698095D02*
X162725200Y-93602857D01*
X162725200Y-93602857D02*
X162772819Y-93460000D01*
X162772819Y-93460000D02*
X162772819Y-93221905D01*
X162772819Y-94269524D02*
X162772819Y-94460000D01*
X162772819Y-94460000D02*
X162725200Y-94555238D01*
X162725200Y-94555238D02*
X162677580Y-94602857D01*
X162677580Y-94602857D02*
X162534723Y-94698095D01*
X162534723Y-94698095D02*
X162344247Y-94745714D01*
X162344247Y-94745714D02*
X161963295Y-94745714D01*
X161963295Y-94745714D02*
X161868057Y-94698095D01*
X161868057Y-94698095D02*
X161820438Y-94650476D01*
X161820438Y-94650476D02*
X161772819Y-94555238D01*
X161772819Y-94555238D02*
X161772819Y-94364762D01*
X161772819Y-94364762D02*
X161820438Y-94269524D01*
X161820438Y-94269524D02*
X161868057Y-94221905D01*
X161868057Y-94221905D02*
X161963295Y-94174286D01*
X161963295Y-94174286D02*
X162201390Y-94174286D01*
X162201390Y-94174286D02*
X162296628Y-94221905D01*
X162296628Y-94221905D02*
X162344247Y-94269524D01*
X162344247Y-94269524D02*
X162391866Y-94364762D01*
X162391866Y-94364762D02*
X162391866Y-94555238D01*
X162391866Y-94555238D02*
X162344247Y-94650476D01*
X162344247Y-94650476D02*
X162296628Y-94698095D01*
X162296628Y-94698095D02*
X162201390Y-94745714D01*
X153560857Y-96019580D02*
X153608476Y-96067200D01*
X153608476Y-96067200D02*
X153751333Y-96114819D01*
X153751333Y-96114819D02*
X153846571Y-96114819D01*
X153846571Y-96114819D02*
X153989428Y-96067200D01*
X153989428Y-96067200D02*
X154084666Y-95971961D01*
X154084666Y-95971961D02*
X154132285Y-95876723D01*
X154132285Y-95876723D02*
X154179904Y-95686247D01*
X154179904Y-95686247D02*
X154179904Y-95543390D01*
X154179904Y-95543390D02*
X154132285Y-95352914D01*
X154132285Y-95352914D02*
X154084666Y-95257676D01*
X154084666Y-95257676D02*
X153989428Y-95162438D01*
X153989428Y-95162438D02*
X153846571Y-95114819D01*
X153846571Y-95114819D02*
X153751333Y-95114819D01*
X153751333Y-95114819D02*
X153608476Y-95162438D01*
X153608476Y-95162438D02*
X153560857Y-95210057D01*
X152608476Y-96114819D02*
X153179904Y-96114819D01*
X152894190Y-96114819D02*
X152894190Y-95114819D01*
X152894190Y-95114819D02*
X152989428Y-95257676D01*
X152989428Y-95257676D02*
X153084666Y-95352914D01*
X153084666Y-95352914D02*
X153179904Y-95400533D01*
X151751333Y-95114819D02*
X151941809Y-95114819D01*
X151941809Y-95114819D02*
X152037047Y-95162438D01*
X152037047Y-95162438D02*
X152084666Y-95210057D01*
X152084666Y-95210057D02*
X152179904Y-95352914D01*
X152179904Y-95352914D02*
X152227523Y-95543390D01*
X152227523Y-95543390D02*
X152227523Y-95924342D01*
X152227523Y-95924342D02*
X152179904Y-96019580D01*
X152179904Y-96019580D02*
X152132285Y-96067200D01*
X152132285Y-96067200D02*
X152037047Y-96114819D01*
X152037047Y-96114819D02*
X151846571Y-96114819D01*
X151846571Y-96114819D02*
X151751333Y-96067200D01*
X151751333Y-96067200D02*
X151703714Y-96019580D01*
X151703714Y-96019580D02*
X151656095Y-95924342D01*
X151656095Y-95924342D02*
X151656095Y-95686247D01*
X151656095Y-95686247D02*
X151703714Y-95591009D01*
X151703714Y-95591009D02*
X151751333Y-95543390D01*
X151751333Y-95543390D02*
X151846571Y-95495771D01*
X151846571Y-95495771D02*
X152037047Y-95495771D01*
X152037047Y-95495771D02*
X152132285Y-95543390D01*
X152132285Y-95543390D02*
X152179904Y-95591009D01*
X152179904Y-95591009D02*
X152227523Y-95686247D01*
X132344819Y-97103333D02*
X131868628Y-96770000D01*
X132344819Y-96531905D02*
X131344819Y-96531905D01*
X131344819Y-96531905D02*
X131344819Y-96912857D01*
X131344819Y-96912857D02*
X131392438Y-97008095D01*
X131392438Y-97008095D02*
X131440057Y-97055714D01*
X131440057Y-97055714D02*
X131535295Y-97103333D01*
X131535295Y-97103333D02*
X131678152Y-97103333D01*
X131678152Y-97103333D02*
X131773390Y-97055714D01*
X131773390Y-97055714D02*
X131821009Y-97008095D01*
X131821009Y-97008095D02*
X131868628Y-96912857D01*
X131868628Y-96912857D02*
X131868628Y-96531905D01*
X131678152Y-97960476D02*
X132344819Y-97960476D01*
X131297200Y-97722381D02*
X132011485Y-97484286D01*
X132011485Y-97484286D02*
X132011485Y-98103333D01*
D13*
%TO.C,C3*%
X123575000Y-108251252D02*
X123575000Y-107728748D01*
X125045000Y-108251252D02*
X125045000Y-107728748D01*
%TO.C,R17*%
X163683000Y-97717064D02*
X163683000Y-97262936D01*
X165153000Y-97717064D02*
X165153000Y-97262936D01*
%TO.C,R19*%
X157163000Y-107801064D02*
X157163000Y-107346936D01*
X158633000Y-107801064D02*
X158633000Y-107346936D01*
%TO.C,J1*%
X149150000Y-120790000D02*
X149150000Y-117730000D01*
X149150000Y-113630000D02*
X149150000Y-107570000D01*
X149150000Y-107570000D02*
X146340000Y-107570000D01*
X145040000Y-107380000D02*
X143040000Y-107380000D01*
X141740000Y-107570000D02*
X138930000Y-107570000D01*
X138930000Y-120790000D02*
X149150000Y-120790000D01*
X138930000Y-117730000D02*
X138930000Y-120790000D01*
X138930000Y-107570000D02*
X138930000Y-113630000D01*
%TO.C,D10*%
X156385500Y-104560000D02*
X152725500Y-104560000D01*
X156385500Y-102660000D02*
X156385500Y-104560000D01*
X156385500Y-102660000D02*
X152725500Y-102660000D01*
%TO.C,R6*%
X126505000Y-108537064D02*
X126505000Y-108082936D01*
X127975000Y-108537064D02*
X127975000Y-108082936D01*
%TO.C,Q1*%
X132190000Y-93020000D02*
X132190000Y-93670000D01*
X132190000Y-93020000D02*
X132190000Y-92370000D01*
X135310000Y-93020000D02*
X135310000Y-94695000D01*
X135310000Y-93020000D02*
X135310000Y-92370000D01*
%TO.C,C18*%
X173595000Y-88521252D02*
X173595000Y-87998748D01*
X175065000Y-88521252D02*
X175065000Y-87998748D01*
%TO.C,R21*%
X153861000Y-93831064D02*
X153861000Y-93376936D01*
X155331000Y-93831064D02*
X155331000Y-93376936D01*
%TO.C,R1*%
X122815000Y-93617064D02*
X122815000Y-93162936D01*
X124285000Y-93617064D02*
X124285000Y-93162936D01*
%TO.C,D2*%
X128830000Y-95955000D02*
X128830000Y-93270000D01*
X130750000Y-95955000D02*
X128830000Y-95955000D01*
X130750000Y-93270000D02*
X130750000Y-95955000D01*
%TO.C,R3*%
X126555000Y-94497064D02*
X126555000Y-94042936D01*
X128025000Y-94497064D02*
X128025000Y-94042936D01*
D14*
%TO.C,U6*%
X156668000Y-102910000D02*
X156668000Y-98510000D01*
X161668000Y-102910000D02*
X161668000Y-98510000D01*
D15*
X161228000Y-104910000D02*
G75*
G03*
X161228000Y-104910000I-100000J0D01*
G01*
D13*
%TO.C,C10*%
X139891000Y-88531252D02*
X139891000Y-88008748D01*
X141361000Y-88531252D02*
X141361000Y-88008748D01*
%TO.C,J4*%
X121330000Y-83370000D02*
X131490000Y-83370000D01*
X121330000Y-90990000D02*
X121330000Y-83370000D01*
X131490000Y-83370000D02*
X131490000Y-90990000D01*
X131490000Y-84640000D02*
X121330000Y-84640000D01*
X131490000Y-90990000D02*
X121330000Y-90990000D01*
%TO.C,C2*%
X129065000Y-108611252D02*
X129065000Y-108088748D01*
X130535000Y-108611252D02*
X130535000Y-108088748D01*
%TO.C,D3*%
X125197500Y-104870000D02*
X121537500Y-104870000D01*
X125197500Y-102970000D02*
X125197500Y-104870000D01*
X125197500Y-102970000D02*
X121537500Y-102970000D01*
%TO.C,D1*%
X130065000Y-113140000D02*
X127380000Y-113140000D01*
X130065000Y-111220000D02*
X130065000Y-113140000D01*
X127380000Y-111220000D02*
X130065000Y-111220000D01*
%TO.C,J3*%
X133380000Y-121040000D02*
X113060000Y-121040000D01*
X133380000Y-113420000D02*
X133380000Y-121040000D01*
X133380000Y-113420000D02*
X113060000Y-113420000D01*
X113060000Y-121040000D02*
X113060000Y-113420000D01*
X113060000Y-119770000D02*
X133380000Y-119770000D01*
D14*
%TO.C,U1*%
X125790000Y-103220000D02*
X125790000Y-98820000D01*
X130790000Y-103220000D02*
X130790000Y-98820000D01*
D15*
X130350000Y-105220000D02*
G75*
G03*
X130350000Y-105220000I-100000J0D01*
G01*
D13*
%TO.C,R18*%
X162497000Y-106785064D02*
X162497000Y-106330936D01*
X163967000Y-106785064D02*
X163967000Y-106330936D01*
%TO.C,D11*%
X168913000Y-110932000D02*
X171598000Y-110932000D01*
X168913000Y-112852000D02*
X168913000Y-110932000D01*
X171598000Y-112852000D02*
X168913000Y-112852000D01*
%TO.C,D12*%
X161413000Y-113060000D02*
X158728000Y-113060000D01*
X161413000Y-111140000D02*
X161413000Y-113060000D01*
X158728000Y-111140000D02*
X161413000Y-111140000D01*
%TO.C,D4*%
X119905000Y-113090000D02*
X117220000Y-113090000D01*
X119905000Y-111170000D02*
X119905000Y-113090000D01*
X117220000Y-111170000D02*
X119905000Y-111170000D01*
%TO.C,R5*%
X131805000Y-107147064D02*
X131805000Y-106692936D01*
X133275000Y-107147064D02*
X133275000Y-106692936D01*
%TO.C,C15*%
X154453000Y-107941252D02*
X154453000Y-107418748D01*
X155923000Y-107941252D02*
X155923000Y-107418748D01*
%TO.C,C4*%
X122751252Y-99630000D02*
X121328748Y-99630000D01*
X122751252Y-96910000D02*
X121328748Y-96910000D01*
%TO.C,C17*%
X164783000Y-88531252D02*
X164783000Y-88008748D01*
X166253000Y-88531252D02*
X166253000Y-88008748D01*
%TO.C,R16*%
X157433000Y-94187064D02*
X157433000Y-93732936D01*
X158903000Y-94187064D02*
X158903000Y-93732936D01*
%TO.C,C14*%
X159933000Y-108089252D02*
X159933000Y-107566748D01*
X161403000Y-108089252D02*
X161403000Y-107566748D01*
%TO.C,Q4*%
X163068000Y-93350000D02*
X163068000Y-94000000D01*
X163068000Y-93350000D02*
X163068000Y-92700000D01*
X166188000Y-93350000D02*
X166188000Y-95025000D01*
X166188000Y-93350000D02*
X166188000Y-92700000D01*
%TO.C,D9*%
X159708000Y-95645000D02*
X159708000Y-92960000D01*
X161628000Y-95645000D02*
X159708000Y-95645000D01*
X161628000Y-92960000D02*
X161628000Y-95645000D01*
%TO.C,C16*%
X153629252Y-99320000D02*
X152206748Y-99320000D01*
X153629252Y-96600000D02*
X152206748Y-96600000D01*
%TO.C,R4*%
X134275000Y-97042936D02*
X134275000Y-97497064D01*
X132805000Y-97042936D02*
X132805000Y-97497064D01*
%TD*%
M02*
