%TF.GenerationSoftware,KiCad,Pcbnew,7.0.7*%
%TF.CreationDate,2024-03-31T21:55:30-04:00*%
%TF.ProjectId,4ch-driver-v0,3463682d-6472-4697-9665-722d76302e6b,rev?*%
%TF.SameCoordinates,Original*%
%TF.FileFunction,Copper,L2,Bot*%
%TF.FilePolarity,Positive*%
%FSLAX46Y46*%
G04 Gerber Fmt 4.6, Leading zero omitted, Abs format (unit mm)*
G04 Created by KiCad (PCBNEW 7.0.7) date 2024-03-31 21:55:30*
%MOMM*%
%LPD*%
G01*
G04 APERTURE LIST*
G04 Aperture macros list*
%AMRoundRect*
0 Rectangle with rounded corners*
0 $1 Rounding radius*
0 $2 $3 $4 $5 $6 $7 $8 $9 X,Y pos of 4 corners*
0 Add a 4 corners polygon primitive as box body*
4,1,4,$2,$3,$4,$5,$6,$7,$8,$9,$2,$3,0*
0 Add four circle primitives for the rounded corners*
1,1,$1+$1,$2,$3*
1,1,$1+$1,$4,$5*
1,1,$1+$1,$6,$7*
1,1,$1+$1,$8,$9*
0 Add four rect primitives between the rounded corners*
20,1,$1+$1,$2,$3,$4,$5,0*
20,1,$1+$1,$4,$5,$6,$7,0*
20,1,$1+$1,$6,$7,$8,$9,0*
20,1,$1+$1,$8,$9,$2,$3,0*%
G04 Aperture macros list end*
%TA.AperFunction,ComponentPad*%
%ADD10C,4.400000*%
%TD*%
%TA.AperFunction,ComponentPad*%
%ADD11C,0.800000*%
%TD*%
%TA.AperFunction,ComponentPad*%
%ADD12R,3.000000X3.000000*%
%TD*%
%TA.AperFunction,ComponentPad*%
%ADD13C,3.000000*%
%TD*%
%TA.AperFunction,SMDPad,CuDef*%
%ADD14RoundRect,0.250000X0.475000X-0.250000X0.475000X0.250000X-0.475000X0.250000X-0.475000X-0.250000X0*%
%TD*%
%TA.AperFunction,SMDPad,CuDef*%
%ADD15RoundRect,0.250000X0.450000X-0.262500X0.450000X0.262500X-0.450000X0.262500X-0.450000X-0.262500X0*%
%TD*%
%TA.AperFunction,ComponentPad*%
%ADD16R,4.000000X2.000000*%
%TD*%
%TA.AperFunction,ComponentPad*%
%ADD17O,3.300000X2.000000*%
%TD*%
%TA.AperFunction,ComponentPad*%
%ADD18O,2.000000X3.500000*%
%TD*%
%TA.AperFunction,SMDPad,CuDef*%
%ADD19R,1.200000X1.200000*%
%TD*%
%TA.AperFunction,SMDPad,CuDef*%
%ADD20RoundRect,0.150000X0.150000X-0.587500X0.150000X0.587500X-0.150000X0.587500X-0.150000X-0.587500X0*%
%TD*%
%TA.AperFunction,SMDPad,CuDef*%
%ADD21RoundRect,0.243750X0.456250X-0.243750X0.456250X0.243750X-0.456250X0.243750X-0.456250X-0.243750X0*%
%TD*%
%TA.AperFunction,SMDPad,CuDef*%
%ADD22R,0.300000X1.600000*%
%TD*%
%TA.AperFunction,SMDPad,CuDef*%
%ADD23R,5.000000X3.400000*%
%TD*%
%TA.AperFunction,SMDPad,CuDef*%
%ADD24RoundRect,0.243750X0.243750X0.456250X-0.243750X0.456250X-0.243750X-0.456250X0.243750X-0.456250X0*%
%TD*%
%TA.AperFunction,SMDPad,CuDef*%
%ADD25RoundRect,0.243750X-0.243750X-0.456250X0.243750X-0.456250X0.243750X0.456250X-0.243750X0.456250X0*%
%TD*%
%TA.AperFunction,SMDPad,CuDef*%
%ADD26RoundRect,0.250000X0.325000X1.100000X-0.325000X1.100000X-0.325000X-1.100000X0.325000X-1.100000X0*%
%TD*%
%TA.AperFunction,SMDPad,CuDef*%
%ADD27RoundRect,0.250000X-0.450000X0.262500X-0.450000X-0.262500X0.450000X-0.262500X0.450000X0.262500X0*%
%TD*%
%TA.AperFunction,ViaPad*%
%ADD28C,0.800000*%
%TD*%
%TA.AperFunction,Conductor*%
%ADD29C,1.000000*%
%TD*%
%TA.AperFunction,Conductor*%
%ADD30C,0.500000*%
%TD*%
%TA.AperFunction,Conductor*%
%ADD31C,0.250000*%
%TD*%
%TA.AperFunction,Conductor*%
%ADD32C,0.720000*%
%TD*%
G04 APERTURE END LIST*
D10*
%TO.P,H1,1*%
%TO.N,N/C*%
X179040000Y-118180000D03*
%TD*%
D11*
%TO.P,U3,16*%
%TO.N,GND*%
X116550000Y-101630000D03*
%TO.P,U3,17*%
X118050000Y-101630000D03*
%TO.P,U3,18*%
X116550000Y-103130000D03*
%TO.P,U3,19*%
X118050000Y-103130000D03*
%TO.P,U3,20*%
X116550000Y-104630000D03*
%TO.P,U3,21*%
X118050000Y-104630000D03*
%TD*%
%TO.P,U5,16*%
%TO.N,GND*%
X170344000Y-99724000D03*
%TO.P,U5,17*%
X171844000Y-99724000D03*
%TO.P,U5,18*%
X170344000Y-101224000D03*
%TO.P,U5,19*%
X171844000Y-101224000D03*
%TO.P,U5,20*%
X170344000Y-102724000D03*
%TO.P,U5,21*%
X171844000Y-102724000D03*
%TD*%
D10*
%TO.P,H2,1*%
%TO.N,N/C*%
X109140000Y-118180000D03*
%TD*%
D12*
%TO.P,J2,1,Pin_1*%
%TO.N,/inverted_signal/out3*%
X172380000Y-117100000D03*
D13*
%TO.P,J2,2,Pin_2*%
%TO.N,GND*%
X167300000Y-117100000D03*
%TO.P,J2,3,Pin_3*%
%TO.N,/inverted_signal/out4*%
X162220000Y-117100000D03*
%TO.P,J2,4,Pin_4*%
%TO.N,GND*%
X157140000Y-117100000D03*
%TD*%
D14*
%TO.P,C3,1*%
%TO.N,GND*%
X124310000Y-108940000D03*
%TO.P,C3,2*%
%TO.N,Net-(U1-BOOT)*%
X124310000Y-107040000D03*
%TD*%
D15*
%TO.P,R17,1*%
%TO.N,GND*%
X164418000Y-98402500D03*
%TO.P,R17,2*%
%TO.N,/inverted_signal/in_term4*%
X164418000Y-96577500D03*
%TD*%
%TO.P,R19,1*%
%TO.N,GND*%
X157898000Y-108486500D03*
%TO.P,R19,2*%
%TO.N,/inverted_signal/freq4*%
X157898000Y-106661500D03*
%TD*%
D16*
%TO.P,J1,1*%
%TO.N,/12V_IN*%
X144040000Y-108680000D03*
D17*
%TO.P,J1,2*%
%TO.N,GND*%
X144040000Y-114680000D03*
D18*
%TO.P,J1,MP*%
%TO.N,N/C*%
X148540000Y-115680000D03*
X139540000Y-115680000D03*
%TD*%
D19*
%TO.P,D10,1,K*%
%TO.N,/inverted_signal/out4*%
X155525500Y-103610000D03*
%TO.P,D10,2,A*%
%TO.N,GND*%
X152725500Y-103610000D03*
%TD*%
D15*
%TO.P,R6,1*%
%TO.N,GND*%
X127240000Y-109222500D03*
%TO.P,R6,2*%
%TO.N,/freq1*%
X127240000Y-107397500D03*
%TD*%
D20*
%TO.P,Q1,1,G*%
%TO.N,/in_term1*%
X134700000Y-93957500D03*
%TO.P,Q1,2,S*%
%TO.N,GND*%
X132800000Y-93957500D03*
%TO.P,Q1,3,D*%
%TO.N,Net-(D1-K)*%
X133750000Y-92082500D03*
%TD*%
D14*
%TO.P,C18,1*%
%TO.N,GND*%
X174330000Y-89210000D03*
%TO.P,C18,2*%
%TO.N,+5V*%
X174330000Y-87310000D03*
%TD*%
D15*
%TO.P,R21,1*%
%TO.N,+12V*%
X154596000Y-94516500D03*
%TO.P,R21,2*%
%TO.N,Net-(D12-A)*%
X154596000Y-92691500D03*
%TD*%
%TO.P,R1,1*%
%TO.N,+12V*%
X123550000Y-94302500D03*
%TO.P,R1,2*%
%TO.N,Net-(D1-A)*%
X123550000Y-92477500D03*
%TD*%
D21*
%TO.P,D2,1,K*%
%TO.N,/fault1*%
X129790000Y-95207500D03*
%TO.P,D2,2,A*%
%TO.N,Net-(D2-A)*%
X129790000Y-93332500D03*
%TD*%
D15*
%TO.P,R3,1*%
%TO.N,+12V*%
X127290000Y-95182500D03*
%TO.P,R3,2*%
%TO.N,Net-(D2-A)*%
X127290000Y-93357500D03*
%TD*%
D22*
%TO.P,U6,1,DUTY_CYCLE_ADJ*%
%TO.N,/inverted_signal/duty4*%
X161118000Y-103510000D03*
%TO.P,U6,2,DELAY_ADJ*%
%TO.N,/inverted_signal/delay4*%
X160468000Y-103510000D03*
%TO.P,U6,3,OSC_FREQ_ADJ*%
%TO.N,/inverted_signal/freq4*%
X159818000Y-103510000D03*
%TO.P,U6,4,MASTER*%
%TO.N,unconnected-(U6-MASTER-Pad4)*%
X159168000Y-103510000D03*
%TO.P,U6,5,BOOT*%
%TO.N,Net-(U6-BOOT)*%
X158518000Y-103510000D03*
%TO.P,U6,6,OUT1*%
%TO.N,/inverted_signal/out4*%
X157868000Y-103510000D03*
%TO.P,U6,7,OUT2*%
X157218000Y-103510000D03*
%TO.P,U6,8,VPS2*%
%TO.N,+12V*%
X157218000Y-97910000D03*
%TO.P,U6,9,VPS1*%
X157868000Y-97910000D03*
%TO.P,U6,10,+VS*%
X158518000Y-97910000D03*
%TO.P,U6,11,GND*%
%TO.N,GND*%
X159168000Y-97910000D03*
%TO.P,U6,12,SYNC*%
%TO.N,unconnected-(U6-SYNC-Pad12)*%
X159818000Y-97910000D03*
%TO.P,U6,13,STATUS_OK_FLAG*%
%TO.N,/inverted_signal/fault4*%
X160468000Y-97910000D03*
%TO.P,U6,14,INPUT*%
%TO.N,/inverted_signal/in_term4*%
X161118000Y-97910000D03*
D23*
%TO.P,U6,15,EPAD*%
%TO.N,GND*%
X159168000Y-100710000D03*
D11*
%TO.P,U6,16*%
X160668000Y-101460000D03*
%TO.P,U6,17*%
X160668000Y-99960000D03*
%TO.P,U6,18*%
X159168000Y-101460000D03*
%TO.P,U6,19*%
X159168000Y-99960000D03*
%TO.P,U6,20*%
X157668000Y-101460000D03*
%TO.P,U6,21*%
X157668000Y-99960000D03*
%TD*%
D14*
%TO.P,C10,1*%
%TO.N,GND*%
X140626000Y-89220000D03*
%TO.P,C10,2*%
%TO.N,+5V*%
X140626000Y-87320000D03*
%TD*%
D12*
%TO.P,J4,1,Pin_1*%
%TO.N,/in*%
X123870000Y-87180000D03*
D13*
%TO.P,J4,2,Pin_2*%
%TO.N,GND*%
X128950000Y-87180000D03*
%TD*%
D14*
%TO.P,C2,1*%
%TO.N,GND*%
X129800000Y-109300000D03*
%TO.P,C2,2*%
%TO.N,/delay1*%
X129800000Y-107400000D03*
%TD*%
D19*
%TO.P,D3,1,K*%
%TO.N,/out1*%
X124337500Y-103920000D03*
%TO.P,D3,2,A*%
%TO.N,GND*%
X121537500Y-103920000D03*
%TD*%
D24*
%TO.P,D1,1,K*%
%TO.N,Net-(D1-K)*%
X129317500Y-112180000D03*
%TO.P,D1,2,A*%
%TO.N,Net-(D1-A)*%
X127442500Y-112180000D03*
%TD*%
D12*
%TO.P,J3,1,Pin_1*%
%TO.N,/out1*%
X130840000Y-117230000D03*
D13*
%TO.P,J3,2,Pin_2*%
%TO.N,GND*%
X125760000Y-117230000D03*
%TO.P,J3,3,Pin_3*%
%TO.N,/out2*%
X120680000Y-117230000D03*
%TO.P,J3,4,Pin_4*%
%TO.N,GND*%
X115600000Y-117230000D03*
%TD*%
D22*
%TO.P,U1,1,DUTY_CYCLE_ADJ*%
%TO.N,/duty1*%
X130240000Y-103820000D03*
%TO.P,U1,2,DELAY_ADJ*%
%TO.N,/delay1*%
X129590000Y-103820000D03*
%TO.P,U1,3,OSC_FREQ_ADJ*%
%TO.N,/freq1*%
X128940000Y-103820000D03*
%TO.P,U1,4,MASTER*%
%TO.N,unconnected-(U1-MASTER-Pad4)*%
X128290000Y-103820000D03*
%TO.P,U1,5,BOOT*%
%TO.N,Net-(U1-BOOT)*%
X127640000Y-103820000D03*
%TO.P,U1,6,OUT1*%
%TO.N,/out1*%
X126990000Y-103820000D03*
%TO.P,U1,7,OUT2*%
X126340000Y-103820000D03*
%TO.P,U1,8,VPS2*%
%TO.N,+12V*%
X126340000Y-98220000D03*
%TO.P,U1,9,VPS1*%
X126990000Y-98220000D03*
%TO.P,U1,10,+VS*%
X127640000Y-98220000D03*
%TO.P,U1,11,GND*%
%TO.N,GND*%
X128290000Y-98220000D03*
%TO.P,U1,12,SYNC*%
%TO.N,unconnected-(U1-SYNC-Pad12)*%
X128940000Y-98220000D03*
%TO.P,U1,13,STATUS_OK_FLAG*%
%TO.N,/fault1*%
X129590000Y-98220000D03*
%TO.P,U1,14,INPUT*%
%TO.N,/in_term1*%
X130240000Y-98220000D03*
D23*
%TO.P,U1,15,EPAD*%
%TO.N,GND*%
X128290000Y-101020000D03*
D11*
%TO.P,U1,16*%
X129790000Y-101770000D03*
%TO.P,U1,17*%
X129790000Y-100270000D03*
%TO.P,U1,18*%
X128290000Y-101770000D03*
%TO.P,U1,19*%
X128290000Y-100270000D03*
%TO.P,U1,20*%
X126790000Y-101770000D03*
%TO.P,U1,21*%
X126790000Y-100270000D03*
%TD*%
D15*
%TO.P,R18,1*%
%TO.N,GND*%
X163232000Y-107470500D03*
%TO.P,R18,2*%
%TO.N,/inverted_signal/duty4*%
X163232000Y-105645500D03*
%TD*%
D25*
%TO.P,D11,1,K*%
%TO.N,Net-(D11-K)*%
X169660500Y-111892000D03*
%TO.P,D11,2,A*%
%TO.N,Net-(D11-A)*%
X171535500Y-111892000D03*
%TD*%
D24*
%TO.P,D12,1,K*%
%TO.N,Net-(D12-K)*%
X160665500Y-112100000D03*
%TO.P,D12,2,A*%
%TO.N,Net-(D12-A)*%
X158790500Y-112100000D03*
%TD*%
%TO.P,D4,1,K*%
%TO.N,Net-(D4-K)*%
X119157500Y-112130000D03*
%TO.P,D4,2,A*%
%TO.N,Net-(D4-A)*%
X117282500Y-112130000D03*
%TD*%
D15*
%TO.P,R5,1*%
%TO.N,GND*%
X132540000Y-107832500D03*
%TO.P,R5,2*%
%TO.N,/duty1*%
X132540000Y-106007500D03*
%TD*%
D14*
%TO.P,C15,1*%
%TO.N,GND*%
X155188000Y-108630000D03*
%TO.P,C15,2*%
%TO.N,Net-(U6-BOOT)*%
X155188000Y-106730000D03*
%TD*%
D26*
%TO.P,C4,1*%
%TO.N,+12V*%
X123515000Y-98270000D03*
%TO.P,C4,2*%
%TO.N,GND*%
X120565000Y-98270000D03*
%TD*%
D14*
%TO.P,C17,1*%
%TO.N,GND*%
X165518000Y-89220000D03*
%TO.P,C17,2*%
%TO.N,+5V*%
X165518000Y-87320000D03*
%TD*%
D15*
%TO.P,R16,1*%
%TO.N,+12V*%
X158168000Y-94872500D03*
%TO.P,R16,2*%
%TO.N,Net-(D9-A)*%
X158168000Y-93047500D03*
%TD*%
D14*
%TO.P,C14,1*%
%TO.N,GND*%
X160668000Y-108778000D03*
%TO.P,C14,2*%
%TO.N,/inverted_signal/delay4*%
X160668000Y-106878000D03*
%TD*%
D20*
%TO.P,Q4,1,G*%
%TO.N,/inverted_signal/in_term4*%
X165578000Y-94287500D03*
%TO.P,Q4,2,S*%
%TO.N,GND*%
X163678000Y-94287500D03*
%TO.P,Q4,3,D*%
%TO.N,Net-(D12-K)*%
X164628000Y-92412500D03*
%TD*%
D21*
%TO.P,D9,1,K*%
%TO.N,/inverted_signal/fault4*%
X160668000Y-94897500D03*
%TO.P,D9,2,A*%
%TO.N,Net-(D9-A)*%
X160668000Y-93022500D03*
%TD*%
D26*
%TO.P,C16,1*%
%TO.N,+12V*%
X154393000Y-97960000D03*
%TO.P,C16,2*%
%TO.N,GND*%
X151443000Y-97960000D03*
%TD*%
D27*
%TO.P,R4,1*%
%TO.N,GND*%
X133540000Y-96357500D03*
%TO.P,R4,2*%
%TO.N,/in_term1*%
X133540000Y-98182500D03*
%TD*%
D28*
%TO.N,GND*%
X151020000Y-109850000D03*
%TO.N,+12V*%
X125220000Y-95182500D03*
X154380000Y-100080000D03*
%TO.N,GND*%
X131410000Y-109130000D03*
X125610000Y-109930000D03*
X120540000Y-112140000D03*
X118520000Y-109680000D03*
X110230000Y-110630000D03*
X121950000Y-98850000D03*
X175550000Y-101100000D03*
X154210000Y-85470000D03*
X160080000Y-89360000D03*
X121900000Y-94390000D03*
X152770000Y-91550000D03*
X160090000Y-91680000D03*
X144440000Y-88040000D03*
X162800000Y-98370000D03*
X112570000Y-96620000D03*
X165390000Y-112070000D03*
X162760000Y-100180000D03*
X170820000Y-94670000D03*
X108790000Y-100100000D03*
X121240000Y-109950000D03*
X162560000Y-108710000D03*
X138990000Y-95190000D03*
X162790000Y-103080000D03*
X121490000Y-100100000D03*
X168420000Y-93790000D03*
X169880000Y-109230000D03*
X152760000Y-95450000D03*
X137270000Y-97400000D03*
X115700000Y-95310000D03*
X155200000Y-109960000D03*
X177460000Y-88080000D03*
X138100000Y-86740000D03*
X111590000Y-109230000D03*
X149050000Y-88360000D03*
X156560000Y-88640000D03*
X108550000Y-102030000D03*
X138848000Y-89794000D03*
X172840000Y-90240000D03*
X134240000Y-107880000D03*
X133640000Y-95110000D03*
X108600000Y-104950000D03*
X170820000Y-97630000D03*
X128390000Y-110240000D03*
X116570000Y-99500000D03*
X155970000Y-95950000D03*
X159470000Y-109940000D03*
X162580000Y-94280000D03*
X127650000Y-96550000D03*
X164270000Y-90390000D03*
X175150000Y-97610000D03*
X114060000Y-95340000D03*
X174330000Y-90420000D03*
X132150000Y-92820000D03*
X130250000Y-110500000D03*
X147270000Y-90900000D03*
X165410000Y-109060000D03*
X172860000Y-86050000D03*
X115800000Y-109030000D03*
X121530000Y-102850000D03*
X157880000Y-109860000D03*
X165510000Y-90570000D03*
X158528000Y-96170000D03*
X131620000Y-97360000D03*
X165400000Y-106060000D03*
X170820000Y-105310000D03*
%TO.N,+5V*%
X142150000Y-86746000D03*
X154730000Y-90370000D03*
X175940000Y-86790000D03*
X168110000Y-87310000D03*
%TO.N,Net-(D1-A)*%
X122440000Y-112480000D03*
X126320000Y-111620000D03*
%TO.N,Net-(D4-K)*%
X119580000Y-93400000D03*
%TO.N,Net-(D4-A)*%
X116630000Y-110430000D03*
%TO.N,/in_term1*%
X135100000Y-92240000D03*
%TO.N,/inverted_signal/out3*%
X168150000Y-108950000D03*
%TO.N,Net-(D11-K)*%
X177180000Y-96560000D03*
%TO.N,Net-(D11-A)*%
X178720000Y-107830000D03*
%TO.N,Net-(D12-A)*%
X150920000Y-111790000D03*
X157180000Y-112080000D03*
%TO.N,/inverted_signal/in_term4*%
X166740000Y-93420000D03*
%TO.N,in_sig*%
X142658000Y-89794000D03*
X162310000Y-87510000D03*
X136562000Y-88016000D03*
%TO.N,/inverted_signal/inverted*%
X176040000Y-91750000D03*
X169120000Y-89250000D03*
%TD*%
D29*
%TO.N,/inverted_signal/out4*%
X162220000Y-117100000D02*
X159360000Y-114240000D01*
X159360000Y-114240000D02*
X154150000Y-114240000D01*
X154150000Y-114240000D02*
X152768000Y-112858000D01*
X152768000Y-106330000D02*
X155488000Y-103610000D01*
X152768000Y-112858000D02*
X152768000Y-106330000D01*
X155488000Y-103610000D02*
X155525500Y-103610000D01*
%TO.N,/inverted_signal/out3*%
X168150000Y-108950000D02*
X168150000Y-112870000D01*
X168150000Y-112870000D02*
X172380000Y-117100000D01*
D30*
%TO.N,+12V*%
X125220000Y-95182500D02*
X123540000Y-95182500D01*
D29*
X154380000Y-100080000D02*
X154380000Y-97973000D01*
D30*
X127290000Y-95182500D02*
X125220000Y-95182500D01*
D29*
X154418000Y-94694500D02*
X154596000Y-94516500D01*
X154418000Y-97885000D02*
X154418000Y-94694500D01*
X154380000Y-97973000D02*
X154393000Y-97960000D01*
D30*
X158168000Y-94872500D02*
X154418000Y-94872500D01*
X154443000Y-97910000D02*
X158418000Y-97910000D01*
X123565000Y-98220000D02*
X127540000Y-98220000D01*
D29*
X123540000Y-95182500D02*
X123540000Y-94432500D01*
D31*
X123515000Y-98270000D02*
X123565000Y-98220000D01*
D29*
X123540000Y-98195000D02*
X123540000Y-94432500D01*
D31*
X154393000Y-97960000D02*
X154443000Y-97910000D01*
%TO.N,GND*%
X162587500Y-94287500D02*
X162580000Y-94280000D01*
X132622500Y-96357500D02*
X131620000Y-97360000D01*
X163678000Y-94287500D02*
X162587500Y-94287500D01*
X127660000Y-96550000D02*
X127690000Y-96520000D01*
X129800000Y-109300000D02*
X129330000Y-109300000D01*
X165410000Y-112050000D02*
X165390000Y-112070000D01*
D30*
X165410000Y-109060000D02*
X165410000Y-112050000D01*
D31*
X131240000Y-109300000D02*
X131410000Y-109130000D01*
X121537500Y-102857500D02*
X121530000Y-102850000D01*
X124620000Y-108940000D02*
X125610000Y-109930000D01*
X158528000Y-96170000D02*
X158568000Y-96210000D01*
X120565000Y-98270000D02*
X120565000Y-95725000D01*
X163989500Y-107470500D02*
X165400000Y-106060000D01*
X126317500Y-109222500D02*
X125610000Y-109930000D01*
X129800000Y-110050000D02*
X130250000Y-110500000D01*
X133540000Y-96357500D02*
X132622500Y-96357500D01*
X159168000Y-96810000D02*
X158528000Y-96170000D01*
X124310000Y-108940000D02*
X124620000Y-108940000D01*
X165518000Y-89220000D02*
X165518000Y-90562000D01*
X155188000Y-108630000D02*
X155188000Y-109948000D01*
X162832500Y-98402500D02*
X162800000Y-98370000D01*
X163232000Y-108038000D02*
X162560000Y-108710000D01*
X120565000Y-98270000D02*
X121370000Y-98270000D01*
X120565000Y-98270000D02*
X120565000Y-99175000D01*
X157898000Y-108486500D02*
X157898000Y-109842000D01*
X120565000Y-95725000D02*
X121900000Y-94390000D01*
X139356000Y-89286000D02*
X140560000Y-89286000D01*
X160632000Y-108778000D02*
X159470000Y-109940000D01*
X163232000Y-107470500D02*
X163232000Y-108038000D01*
X162492000Y-108778000D02*
X162560000Y-108710000D01*
X132540000Y-108000000D02*
X131410000Y-109130000D01*
X127650000Y-96550000D02*
X127660000Y-96550000D01*
X159168000Y-97910000D02*
X159168000Y-96810000D01*
X134192500Y-107832500D02*
X134240000Y-107880000D01*
X128290000Y-97190000D02*
X128290000Y-98220000D01*
X129800000Y-109300000D02*
X129800000Y-110050000D01*
X127372500Y-109222500D02*
X128390000Y-110240000D01*
X140560000Y-89286000D02*
X140626000Y-89220000D01*
X121537500Y-103920000D02*
X121537500Y-102857500D01*
X174330000Y-89210000D02*
X174330000Y-90420000D01*
X138848000Y-89794000D02*
X139356000Y-89286000D01*
X132540000Y-107832500D02*
X134192500Y-107832500D01*
X160668000Y-108778000D02*
X162492000Y-108778000D01*
X163232000Y-107470500D02*
X163989500Y-107470500D01*
X127240000Y-109222500D02*
X126317500Y-109222500D01*
X132800000Y-93957500D02*
X132800000Y-93470000D01*
X132800000Y-93957500D02*
X132800000Y-94270000D01*
X129330000Y-109300000D02*
X128390000Y-110240000D01*
X132540000Y-107832500D02*
X132540000Y-108000000D01*
X129800000Y-109300000D02*
X131240000Y-109300000D01*
X157898000Y-109842000D02*
X157880000Y-109860000D01*
X160668000Y-108778000D02*
X160632000Y-108778000D01*
X165518000Y-90562000D02*
X165510000Y-90570000D01*
X132800000Y-93470000D02*
X132150000Y-92820000D01*
X133540000Y-95210000D02*
X133640000Y-95110000D01*
X155188000Y-109948000D02*
X155200000Y-109960000D01*
X164418000Y-98402500D02*
X162832500Y-98402500D01*
X127240000Y-109222500D02*
X127372500Y-109222500D01*
X120565000Y-99175000D02*
X121490000Y-100100000D01*
X121370000Y-98270000D02*
X121950000Y-98850000D01*
X133540000Y-96357500D02*
X133540000Y-95210000D01*
X127650000Y-96550000D02*
X128290000Y-97190000D01*
X132800000Y-94270000D02*
X133640000Y-95110000D01*
%TO.N,/delay1*%
X129800000Y-107400000D02*
X129590000Y-107190000D01*
X129590000Y-107190000D02*
X129590000Y-103820000D01*
%TO.N,Net-(U1-BOOT)*%
X127290000Y-106020000D02*
X127640000Y-105670000D01*
X124310000Y-107040000D02*
X125330000Y-106020000D01*
X125330000Y-106020000D02*
X127290000Y-106020000D01*
X127640000Y-105670000D02*
X127640000Y-103820000D01*
%TO.N,+5V*%
X165528000Y-87310000D02*
X165518000Y-87320000D01*
D29*
X168110000Y-87310000D02*
X165528000Y-87310000D01*
D32*
X161520000Y-90370000D02*
X164570000Y-87320000D01*
D29*
X174330000Y-87310000D02*
X175420000Y-87310000D01*
D32*
X154730000Y-90370000D02*
X161520000Y-90370000D01*
D29*
X175420000Y-87310000D02*
X175940000Y-86790000D01*
X174330000Y-87310000D02*
X168110000Y-87310000D01*
D30*
X141200000Y-86746000D02*
X140626000Y-87320000D01*
X142150000Y-86746000D02*
X141200000Y-86746000D01*
D32*
X164570000Y-87320000D02*
X165518000Y-87320000D01*
D31*
%TO.N,Net-(D1-K)*%
X136320000Y-107810000D02*
X131950000Y-112180000D01*
X133750000Y-92082500D02*
X134802500Y-91030000D01*
X134802500Y-91030000D02*
X135540000Y-91030000D01*
X131950000Y-112180000D02*
X129317500Y-112180000D01*
X136320000Y-91810000D02*
X136320000Y-107810000D01*
X135540000Y-91030000D02*
X136320000Y-91810000D01*
%TO.N,Net-(D1-A)*%
X126882500Y-111620000D02*
X127442500Y-112180000D01*
X119430000Y-95380000D02*
X119430000Y-109840000D01*
X122070000Y-112480000D02*
X122440000Y-112480000D01*
X122332500Y-92477500D02*
X119430000Y-95380000D01*
X126320000Y-111620000D02*
X126882500Y-111620000D01*
X123550000Y-92477500D02*
X122332500Y-92477500D01*
X119430000Y-109840000D02*
X122070000Y-112480000D01*
%TO.N,/fault1*%
X129590000Y-95407500D02*
X129790000Y-95207500D01*
X129590000Y-98220000D02*
X129590000Y-95407500D01*
%TO.N,Net-(D2-A)*%
X127315000Y-93332500D02*
X129790000Y-93332500D01*
X127290000Y-93357500D02*
X127315000Y-93332500D01*
D29*
%TO.N,/out1*%
X121890000Y-109040000D02*
X130080000Y-117230000D01*
X121890000Y-106640000D02*
X121890000Y-109040000D01*
X124337500Y-103920000D02*
X124337500Y-104192500D01*
X130080000Y-117230000D02*
X130840000Y-117230000D01*
D30*
X126790000Y-103820000D02*
X126240000Y-103820000D01*
D29*
X124337500Y-104192500D02*
X121890000Y-106640000D01*
D30*
X124437500Y-103820000D02*
X124337500Y-103920000D01*
X126340000Y-103820000D02*
X124437500Y-103820000D01*
D31*
%TO.N,Net-(D4-K)*%
X114740000Y-98240000D02*
X119580000Y-93400000D01*
X117460000Y-110432500D02*
X117460000Y-109150000D01*
X114740000Y-106430000D02*
X114740000Y-98240000D01*
X119157500Y-112130000D02*
X117460000Y-110432500D01*
X117460000Y-109150000D02*
X114740000Y-106430000D01*
%TO.N,Net-(D4-A)*%
X116630000Y-110430000D02*
X116630000Y-111477500D01*
X116630000Y-111477500D02*
X117282500Y-112130000D01*
%TO.N,/in_term1*%
X134900000Y-94157500D02*
X134900000Y-97070000D01*
X135100000Y-93557500D02*
X134700000Y-93957500D01*
X135100000Y-92240000D02*
X135100000Y-93557500D01*
X133787500Y-98182500D02*
X133540000Y-98182500D01*
X133502500Y-98220000D02*
X130240000Y-98220000D01*
X134900000Y-97070000D02*
X133787500Y-98182500D01*
X134700000Y-93957500D02*
X134900000Y-94157500D01*
%TO.N,/duty1*%
X132540000Y-106007500D02*
X130940000Y-106007500D01*
X130240000Y-105307500D02*
X130240000Y-103820000D01*
X130940000Y-106007500D02*
X130240000Y-105307500D01*
%TO.N,/freq1*%
X128940000Y-105697500D02*
X128940000Y-103820000D01*
X126952500Y-107685000D02*
X128940000Y-105697500D01*
%TO.N,/inverted_signal/delay4*%
X160468000Y-106460000D02*
X160468000Y-103510000D01*
X160668000Y-106660000D02*
X160468000Y-106460000D01*
%TO.N,Net-(U6-BOOT)*%
X155188000Y-106730000D02*
X156248000Y-106730000D01*
X156248000Y-106730000D02*
X158518000Y-104460000D01*
X158518000Y-104460000D02*
X158518000Y-103510000D01*
D29*
%TO.N,/inverted_signal/out3*%
X168150000Y-108950000D02*
X168160000Y-108960000D01*
D31*
%TO.N,/inverted_signal/fault4*%
X160468000Y-95097500D02*
X160468000Y-97910000D01*
X160668000Y-94897500D02*
X160468000Y-95097500D01*
%TO.N,Net-(D9-A)*%
X160668000Y-93022500D02*
X158193000Y-93022500D01*
X158193000Y-93022500D02*
X158168000Y-93047500D01*
D30*
%TO.N,/inverted_signal/out4*%
X157668000Y-103510000D02*
X157118000Y-103510000D01*
D29*
%TO.N,GND*%
X157030000Y-117120000D02*
X157170000Y-117120000D01*
D31*
%TO.N,/inverted_signal/out4*%
X156078000Y-103650000D02*
X156138000Y-103590000D01*
D29*
X156138000Y-103590000D02*
X156168000Y-103560000D01*
D30*
X157218000Y-103510000D02*
X156218000Y-103510000D01*
D31*
%TO.N,Net-(D11-K)*%
X177150000Y-96590000D02*
X177180000Y-96560000D01*
X169660500Y-111892000D02*
X177150000Y-104402500D01*
X177150000Y-104402500D02*
X177150000Y-96590000D01*
%TO.N,Net-(D11-A)*%
X171535500Y-111892000D02*
X174658000Y-111892000D01*
X174658000Y-111892000D02*
X178720000Y-107830000D01*
%TO.N,Net-(D12-K)*%
X161350000Y-112100000D02*
X164685000Y-108765000D01*
X168900000Y-92390000D02*
X164650500Y-92390000D01*
X169390000Y-92880000D02*
X168900000Y-92390000D01*
X165109695Y-108335000D02*
X165115000Y-108335000D01*
X165115000Y-108335000D02*
X169390000Y-104060000D01*
X164685000Y-108765000D02*
X164685000Y-108759695D01*
X164650500Y-92390000D02*
X164628000Y-92412500D01*
X169390000Y-104060000D02*
X169390000Y-92880000D01*
X160665500Y-112100000D02*
X161350000Y-112100000D01*
X164685000Y-108759695D02*
X165109695Y-108335000D01*
%TO.N,Net-(D12-A)*%
X150920000Y-111790000D02*
X148700000Y-109570000D01*
X158790500Y-112100000D02*
X157200000Y-112100000D01*
X153618500Y-92691500D02*
X154596000Y-92691500D01*
X148700000Y-109570000D02*
X148700000Y-97610000D01*
X148700000Y-97610000D02*
X153618500Y-92691500D01*
X157200000Y-112100000D02*
X157180000Y-112080000D01*
%TO.N,/inverted_signal/in_term4*%
X161118000Y-97496000D02*
X162216000Y-96398000D01*
X165565750Y-94299750D02*
X165578000Y-94287500D01*
X164418000Y-96577500D02*
X165565750Y-95429750D01*
X161118000Y-97910000D02*
X161118000Y-97496000D01*
X162216000Y-96398000D02*
X164238500Y-96398000D01*
X165565750Y-95429750D02*
X165565750Y-94299750D01*
X166740000Y-93420000D02*
X166445500Y-93420000D01*
X164238500Y-96398000D02*
X164418000Y-96577500D01*
X165565750Y-95429750D02*
X165578000Y-95417500D01*
X166445500Y-93420000D02*
X165578000Y-94287500D01*
%TO.N,/inverted_signal/duty4*%
X161118000Y-104780000D02*
X161118000Y-103510000D01*
X163232000Y-105645500D02*
X161983500Y-105645500D01*
X161983500Y-105645500D02*
X161118000Y-104780000D01*
%TO.N,/inverted_signal/freq4*%
X159818000Y-103510000D02*
X159818000Y-104560000D01*
X157898000Y-106480000D02*
X157898000Y-106661500D01*
X159818000Y-104560000D02*
X157898000Y-106480000D01*
%TO.N,in_sig*%
X142658000Y-89794000D02*
X141642000Y-90810000D01*
X151486000Y-89794000D02*
X154240000Y-87040000D01*
X136562000Y-90048000D02*
X136562000Y-88016000D01*
X141642000Y-90810000D02*
X137324000Y-90810000D01*
X154240000Y-87040000D02*
X161840000Y-87040000D01*
X137324000Y-90810000D02*
X136562000Y-90048000D01*
X161840000Y-87040000D02*
X162310000Y-87510000D01*
X142658000Y-89794000D02*
X151486000Y-89794000D01*
%TO.N,/inverted_signal/inverted*%
X169120000Y-89250000D02*
X171620000Y-91750000D01*
X171620000Y-91750000D02*
X176040000Y-91750000D01*
%TD*%
%TA.AperFunction,Conductor*%
%TO.N,GND*%
G36*
X122539944Y-93257158D02*
G01*
X122584291Y-93285659D01*
X122597070Y-93298438D01*
X122600953Y-93302321D01*
X122634436Y-93363646D01*
X122629449Y-93433337D01*
X122600951Y-93477681D01*
X122507287Y-93571345D01*
X122415187Y-93720663D01*
X122415185Y-93720668D01*
X122402593Y-93758670D01*
X122360001Y-93887203D01*
X122360001Y-93887204D01*
X122360000Y-93887204D01*
X122349500Y-93989983D01*
X122349500Y-94615001D01*
X122349501Y-94615019D01*
X122360000Y-94717796D01*
X122360001Y-94717799D01*
X122415185Y-94884331D01*
X122415187Y-94884336D01*
X122507290Y-95033659D01*
X122511766Y-95039319D01*
X122509495Y-95041114D01*
X122536666Y-95090872D01*
X122539500Y-95117230D01*
X122539500Y-96759867D01*
X122521040Y-96824961D01*
X122505187Y-96850663D01*
X122505186Y-96850665D01*
X122480089Y-96926403D01*
X122450001Y-97017203D01*
X122450001Y-97017204D01*
X122450000Y-97017204D01*
X122439500Y-97119983D01*
X122439500Y-99420001D01*
X122439501Y-99420018D01*
X122450000Y-99522796D01*
X122450001Y-99522799D01*
X122492919Y-99652315D01*
X122505186Y-99689334D01*
X122597288Y-99838656D01*
X122721344Y-99962712D01*
X122870666Y-100054814D01*
X123037203Y-100109999D01*
X123139991Y-100120500D01*
X123890008Y-100120499D01*
X123890016Y-100120498D01*
X123890019Y-100120498D01*
X123946302Y-100114748D01*
X123992797Y-100109999D01*
X124159334Y-100054814D01*
X124308656Y-99962712D01*
X124432712Y-99838656D01*
X124524814Y-99689334D01*
X124579999Y-99522797D01*
X124590500Y-99420009D01*
X124590500Y-99094500D01*
X124610185Y-99027461D01*
X124662989Y-98981706D01*
X124714500Y-98970500D01*
X125208115Y-98970500D01*
X125275154Y-98990185D01*
X125320909Y-99042989D01*
X125330853Y-99112147D01*
X125324297Y-99137833D01*
X125296403Y-99212620D01*
X125296401Y-99212627D01*
X125290000Y-99272155D01*
X125290000Y-100770000D01*
X128040000Y-100770000D01*
X128040000Y-100530255D01*
X128059685Y-100463216D01*
X128112489Y-100417461D01*
X128181647Y-100407517D01*
X128221625Y-100420458D01*
X128249331Y-100435000D01*
X128310036Y-100435000D01*
X128310036Y-100434999D01*
X128355450Y-100423806D01*
X128383594Y-100416870D01*
X128384560Y-100420790D01*
X128426878Y-100412311D01*
X128491932Y-100437801D01*
X128532878Y-100494415D01*
X128540000Y-100535833D01*
X128540000Y-100770000D01*
X131290000Y-100770000D01*
X131290000Y-99272172D01*
X131289999Y-99272155D01*
X131283598Y-99212627D01*
X131283596Y-99212620D01*
X131233354Y-99077913D01*
X131233352Y-99077910D01*
X131207826Y-99043812D01*
X131183408Y-98978348D01*
X131198259Y-98910075D01*
X131247663Y-98860669D01*
X131307092Y-98845500D01*
X132386042Y-98845500D01*
X132453081Y-98865185D01*
X132491580Y-98904402D01*
X132497288Y-98913656D01*
X132621344Y-99037712D01*
X132770666Y-99129814D01*
X132937203Y-99184999D01*
X133039991Y-99195500D01*
X134040008Y-99195499D01*
X134040016Y-99195498D01*
X134040019Y-99195498D01*
X134096302Y-99189748D01*
X134142797Y-99184999D01*
X134309334Y-99129814D01*
X134458656Y-99037712D01*
X134582712Y-98913656D01*
X134674814Y-98764334D01*
X134729999Y-98597797D01*
X134740500Y-98495009D01*
X134740499Y-98165450D01*
X134760183Y-98098412D01*
X134776813Y-98077775D01*
X135283786Y-97570802D01*
X135296048Y-97560980D01*
X135295865Y-97560759D01*
X135301867Y-97555792D01*
X135301877Y-97555786D01*
X135349241Y-97505348D01*
X135370120Y-97484470D01*
X135374373Y-97478986D01*
X135378150Y-97474563D01*
X135410062Y-97440582D01*
X135419714Y-97423023D01*
X135430389Y-97406772D01*
X135442674Y-97390936D01*
X135456698Y-97358525D01*
X135501385Y-97304818D01*
X135568017Y-97283795D01*
X135635437Y-97302133D01*
X135682240Y-97354011D01*
X135694500Y-97407770D01*
X135694500Y-107499546D01*
X135674815Y-107566585D01*
X135658181Y-107587227D01*
X131727228Y-111518181D01*
X131665905Y-111551666D01*
X131639547Y-111554500D01*
X130378755Y-111554500D01*
X130311716Y-111534815D01*
X130265961Y-111482011D01*
X130261049Y-111469504D01*
X130255000Y-111451249D01*
X130240362Y-111407075D01*
X130226013Y-111383812D01*
X130149028Y-111259000D01*
X130149025Y-111258996D01*
X130026003Y-111135974D01*
X130025999Y-111135971D01*
X129877933Y-111044642D01*
X129877927Y-111044639D01*
X129877925Y-111044638D01*
X129858831Y-111038311D01*
X129712776Y-110989913D01*
X129610855Y-110979500D01*
X129610848Y-110979500D01*
X129024152Y-110979500D01*
X129024144Y-110979500D01*
X128922223Y-110989913D01*
X128757077Y-111044637D01*
X128757066Y-111044642D01*
X128609000Y-111135971D01*
X128608996Y-111135974D01*
X128485974Y-111258996D01*
X128485970Y-111259001D01*
X128485531Y-111259714D01*
X128485102Y-111260099D01*
X128481493Y-111264664D01*
X128480712Y-111264046D01*
X128433578Y-111306433D01*
X128364614Y-111317648D01*
X128300535Y-111289798D01*
X128278657Y-111264544D01*
X128278507Y-111264664D01*
X128275846Y-111261299D01*
X128274456Y-111259694D01*
X128274026Y-111258997D01*
X128151003Y-111135974D01*
X128150999Y-111135971D01*
X128002933Y-111044642D01*
X128002927Y-111044639D01*
X128002925Y-111044638D01*
X127983831Y-111038311D01*
X127837776Y-110989913D01*
X127735855Y-110979500D01*
X127735848Y-110979500D01*
X127149152Y-110979500D01*
X127149144Y-110979500D01*
X127040491Y-110990601D01*
X127040348Y-110989201D01*
X126978227Y-110984545D01*
X126929806Y-110951482D01*
X126925871Y-110947112D01*
X126867588Y-110904767D01*
X126772734Y-110835851D01*
X126772729Y-110835848D01*
X126599807Y-110758857D01*
X126599802Y-110758855D01*
X126454001Y-110727865D01*
X126414646Y-110719500D01*
X126225354Y-110719500D01*
X126192897Y-110726398D01*
X126040197Y-110758855D01*
X126040192Y-110758857D01*
X125867270Y-110835848D01*
X125867265Y-110835851D01*
X125714129Y-110947111D01*
X125587466Y-111087785D01*
X125582334Y-111096673D01*
X125531764Y-111144886D01*
X125463156Y-111158105D01*
X125398293Y-111132133D01*
X125387269Y-111122348D01*
X124416601Y-110151680D01*
X124383116Y-110090357D01*
X124388100Y-110020665D01*
X124429972Y-109964732D01*
X124495436Y-109940315D01*
X124504282Y-109939999D01*
X124834972Y-109939999D01*
X124834986Y-109939998D01*
X124937697Y-109929505D01*
X125104119Y-109874358D01*
X125104124Y-109874356D01*
X125253345Y-109782315D01*
X125377315Y-109658345D01*
X125469356Y-109509124D01*
X125469358Y-109509119D01*
X125481492Y-109472500D01*
X126040001Y-109472500D01*
X126040001Y-109534986D01*
X126050494Y-109637697D01*
X126105641Y-109804119D01*
X126105643Y-109804124D01*
X126197684Y-109953345D01*
X126321654Y-110077315D01*
X126470875Y-110169356D01*
X126470880Y-110169358D01*
X126637302Y-110224505D01*
X126637309Y-110224506D01*
X126740019Y-110234999D01*
X126989999Y-110234999D01*
X126990000Y-110234998D01*
X126990000Y-109472500D01*
X126040001Y-109472500D01*
X125481492Y-109472500D01*
X125524505Y-109342697D01*
X125524506Y-109342690D01*
X125534999Y-109239986D01*
X125535000Y-109239973D01*
X125535000Y-109190000D01*
X124184000Y-109190000D01*
X124116961Y-109170315D01*
X124071206Y-109117511D01*
X124060000Y-109066000D01*
X124060000Y-108814000D01*
X124079685Y-108746961D01*
X124132489Y-108701206D01*
X124184000Y-108690000D01*
X125534999Y-108690000D01*
X125534999Y-108640028D01*
X125534998Y-108640013D01*
X125524505Y-108537302D01*
X125469358Y-108370880D01*
X125469356Y-108370875D01*
X125377315Y-108221654D01*
X125253344Y-108097683D01*
X125253341Y-108097681D01*
X125250339Y-108095829D01*
X125248713Y-108094021D01*
X125247677Y-108093202D01*
X125247817Y-108093024D01*
X125203617Y-108043880D01*
X125192397Y-107974917D01*
X125220243Y-107910836D01*
X125250344Y-107884754D01*
X125253656Y-107882712D01*
X125377712Y-107758656D01*
X125469814Y-107609334D01*
X125524999Y-107442797D01*
X125535500Y-107340009D01*
X125535499Y-106769499D01*
X125555183Y-106702461D01*
X125607987Y-106656706D01*
X125659499Y-106645500D01*
X125989895Y-106645500D01*
X126056934Y-106665185D01*
X126102689Y-106717989D01*
X126112633Y-106787147D01*
X126106297Y-106808426D01*
X126107458Y-106808811D01*
X126105187Y-106815664D01*
X126105186Y-106815666D01*
X126050001Y-106982203D01*
X126050001Y-106982204D01*
X126050000Y-106982204D01*
X126039500Y-107084983D01*
X126039500Y-107710001D01*
X126039501Y-107710019D01*
X126050000Y-107812796D01*
X126050001Y-107812799D01*
X126105185Y-107979331D01*
X126105187Y-107979336D01*
X126122213Y-108006939D01*
X126189799Y-108116515D01*
X126197289Y-108128657D01*
X126291304Y-108222672D01*
X126324789Y-108283995D01*
X126319805Y-108353687D01*
X126291305Y-108398034D01*
X126197682Y-108491657D01*
X126105643Y-108640875D01*
X126105641Y-108640880D01*
X126050494Y-108807302D01*
X126050493Y-108807309D01*
X126040000Y-108910013D01*
X126040000Y-108972500D01*
X127366000Y-108972500D01*
X127433039Y-108992185D01*
X127478794Y-109044989D01*
X127490000Y-109096500D01*
X127490000Y-110234999D01*
X127739972Y-110234999D01*
X127739986Y-110234998D01*
X127842697Y-110224505D01*
X128009119Y-110169358D01*
X128009124Y-110169356D01*
X128158345Y-110077315D01*
X128282315Y-109953345D01*
X128374356Y-109804124D01*
X128374357Y-109804120D01*
X128379023Y-109790041D01*
X128418794Y-109732595D01*
X128483310Y-109705770D01*
X128552086Y-109718084D01*
X128603287Y-109765626D01*
X128614436Y-109790037D01*
X128640642Y-109869121D01*
X128640643Y-109869124D01*
X128732684Y-110018345D01*
X128856654Y-110142315D01*
X129005875Y-110234356D01*
X129005880Y-110234358D01*
X129172302Y-110289505D01*
X129172309Y-110289506D01*
X129275019Y-110299999D01*
X129549999Y-110299999D01*
X129550000Y-110299998D01*
X129550000Y-109550000D01*
X130050000Y-109550000D01*
X130050000Y-110299999D01*
X130324972Y-110299999D01*
X130324986Y-110299998D01*
X130427697Y-110289505D01*
X130594119Y-110234358D01*
X130594124Y-110234356D01*
X130743345Y-110142315D01*
X130867315Y-110018345D01*
X130959356Y-109869124D01*
X130959358Y-109869119D01*
X131014505Y-109702697D01*
X131014506Y-109702690D01*
X131024999Y-109599986D01*
X131025000Y-109599973D01*
X131025000Y-109550000D01*
X130050000Y-109550000D01*
X129550000Y-109550000D01*
X129550000Y-109174000D01*
X129569685Y-109106961D01*
X129622489Y-109061206D01*
X129674000Y-109050000D01*
X131024999Y-109050000D01*
X131024999Y-109000028D01*
X131024998Y-109000013D01*
X131014505Y-108897302D01*
X130959358Y-108730880D01*
X130959356Y-108730875D01*
X130867315Y-108581654D01*
X130743344Y-108457683D01*
X130743341Y-108457681D01*
X130740339Y-108455829D01*
X130738713Y-108454021D01*
X130737677Y-108453202D01*
X130737817Y-108453024D01*
X130693617Y-108403880D01*
X130682397Y-108334917D01*
X130710243Y-108270836D01*
X130740344Y-108244754D01*
X130743656Y-108242712D01*
X130867712Y-108118656D01*
X130890013Y-108082500D01*
X131340001Y-108082500D01*
X131340001Y-108144986D01*
X131350494Y-108247697D01*
X131405641Y-108414119D01*
X131405643Y-108414124D01*
X131497684Y-108563345D01*
X131621654Y-108687315D01*
X131770875Y-108779356D01*
X131770880Y-108779358D01*
X131937302Y-108834505D01*
X131937309Y-108834506D01*
X132040019Y-108844999D01*
X132289999Y-108844999D01*
X132289999Y-108844998D01*
X132290000Y-108082500D01*
X132790000Y-108082500D01*
X132790000Y-108844999D01*
X133039972Y-108844999D01*
X133039986Y-108844998D01*
X133142697Y-108834505D01*
X133309119Y-108779358D01*
X133309124Y-108779356D01*
X133458345Y-108687315D01*
X133582315Y-108563345D01*
X133674356Y-108414124D01*
X133674358Y-108414119D01*
X133729505Y-108247697D01*
X133729506Y-108247690D01*
X133739999Y-108144986D01*
X133740000Y-108144973D01*
X133740000Y-108082500D01*
X132790000Y-108082500D01*
X132290000Y-108082500D01*
X131340001Y-108082500D01*
X130890013Y-108082500D01*
X130959814Y-107969334D01*
X131014999Y-107802797D01*
X131025500Y-107700009D01*
X131025499Y-107099992D01*
X131023651Y-107081906D01*
X131014999Y-106997203D01*
X131014998Y-106997200D01*
X131010028Y-106982203D01*
X130959814Y-106830666D01*
X130959810Y-106830660D01*
X130959809Y-106830657D01*
X130954529Y-106822097D01*
X130936088Y-106754705D01*
X130957010Y-106688041D01*
X131010652Y-106643272D01*
X131060067Y-106633000D01*
X131362912Y-106633000D01*
X131429951Y-106652685D01*
X131468449Y-106691901D01*
X131484541Y-106717989D01*
X131497289Y-106738657D01*
X131591304Y-106832672D01*
X131624789Y-106893995D01*
X131619805Y-106963687D01*
X131591305Y-107008034D01*
X131497682Y-107101657D01*
X131405643Y-107250875D01*
X131405641Y-107250880D01*
X131350494Y-107417302D01*
X131350493Y-107417309D01*
X131340000Y-107520013D01*
X131340000Y-107582500D01*
X133739999Y-107582500D01*
X133739999Y-107520028D01*
X133739998Y-107520013D01*
X133729505Y-107417302D01*
X133674358Y-107250880D01*
X133674356Y-107250875D01*
X133582315Y-107101654D01*
X133488695Y-107008034D01*
X133455210Y-106946711D01*
X133460194Y-106877019D01*
X133488691Y-106832676D01*
X133582712Y-106738656D01*
X133674814Y-106589334D01*
X133729999Y-106422797D01*
X133740500Y-106320009D01*
X133740499Y-105694992D01*
X133729999Y-105592203D01*
X133674814Y-105425666D01*
X133582712Y-105276344D01*
X133458656Y-105152288D01*
X133349122Y-105084727D01*
X133309336Y-105060187D01*
X133309331Y-105060185D01*
X133273793Y-105048409D01*
X133142797Y-105005001D01*
X133142795Y-105005000D01*
X133040010Y-104994500D01*
X132039998Y-104994500D01*
X132039980Y-104994501D01*
X131937203Y-105005000D01*
X131937200Y-105005001D01*
X131770668Y-105060185D01*
X131770663Y-105060187D01*
X131621342Y-105152289D01*
X131497289Y-105276342D01*
X131468451Y-105323097D01*
X131416503Y-105369821D01*
X131362912Y-105382000D01*
X131250453Y-105382000D01*
X131183414Y-105362315D01*
X131162772Y-105345681D01*
X130901818Y-105084727D01*
X130868333Y-105023404D01*
X130865499Y-104997053D01*
X130865499Y-104799699D01*
X130873318Y-104756364D01*
X130884091Y-104727483D01*
X130890500Y-104667873D01*
X130890499Y-103302257D01*
X130910184Y-103235219D01*
X130962987Y-103189464D01*
X130971166Y-103186076D01*
X131032086Y-103163354D01*
X131032093Y-103163350D01*
X131147187Y-103077190D01*
X131147190Y-103077187D01*
X131233350Y-102962093D01*
X131233354Y-102962086D01*
X131283596Y-102827379D01*
X131283598Y-102827372D01*
X131289999Y-102767844D01*
X131290000Y-102767827D01*
X131290000Y-101270000D01*
X125290000Y-101270000D01*
X125290000Y-102738700D01*
X125270315Y-102805739D01*
X125217511Y-102851494D01*
X125148353Y-102861438D01*
X125122668Y-102854882D01*
X125044985Y-102825909D01*
X125044983Y-102825908D01*
X124985383Y-102819501D01*
X124985381Y-102819500D01*
X124985373Y-102819500D01*
X124985364Y-102819500D01*
X123689629Y-102819500D01*
X123689623Y-102819501D01*
X123630016Y-102825908D01*
X123495171Y-102876202D01*
X123495164Y-102876206D01*
X123379955Y-102962452D01*
X123379952Y-102962455D01*
X123293706Y-103077664D01*
X123293702Y-103077671D01*
X123243408Y-103212517D01*
X123237001Y-103272116D01*
X123237000Y-103272135D01*
X123237000Y-103826716D01*
X123217315Y-103893755D01*
X123200681Y-103914397D01*
X122849181Y-104265897D01*
X122787858Y-104299382D01*
X122718166Y-104294398D01*
X122662233Y-104252526D01*
X122637816Y-104187062D01*
X122637500Y-104178216D01*
X122637500Y-104170000D01*
X121787500Y-104170000D01*
X121787500Y-105020000D01*
X121795717Y-105020000D01*
X121862756Y-105039685D01*
X121908511Y-105092489D01*
X121918455Y-105161647D01*
X121889430Y-105225203D01*
X121883398Y-105231681D01*
X121191532Y-105923546D01*
X121126946Y-105984942D01*
X121091899Y-106035294D01*
X121089062Y-106039056D01*
X121050302Y-106086592D01*
X121050299Y-106086597D01*
X121034392Y-106117047D01*
X121030324Y-106123761D01*
X121010702Y-106151954D01*
X120986509Y-106208330D01*
X120984488Y-106212584D01*
X120956091Y-106266951D01*
X120956090Y-106266952D01*
X120946640Y-106299975D01*
X120944007Y-106307371D01*
X120930459Y-106338943D01*
X120918113Y-106399019D01*
X120916990Y-106403595D01*
X120900113Y-106462577D01*
X120900113Y-106462579D01*
X120897503Y-106496841D01*
X120896414Y-106504608D01*
X120891480Y-106528624D01*
X120889500Y-106538258D01*
X120889500Y-106599597D01*
X120889321Y-106604306D01*
X120884662Y-106665474D01*
X120886562Y-106680388D01*
X120889003Y-106699560D01*
X120889500Y-106707388D01*
X120889500Y-109027283D01*
X120887243Y-109116362D01*
X120887243Y-109116370D01*
X120896380Y-109167345D01*
X120896912Y-109170315D01*
X120898064Y-109176739D01*
X120898718Y-109181404D01*
X120904925Y-109242430D01*
X120904927Y-109242444D01*
X120915208Y-109275213D01*
X120917079Y-109282837D01*
X120923142Y-109316652D01*
X120923142Y-109316655D01*
X120945894Y-109373612D01*
X120947474Y-109378051D01*
X120965841Y-109436588D01*
X120965844Y-109436595D01*
X120982509Y-109466619D01*
X120985879Y-109473714D01*
X120998283Y-109504767D01*
X120998622Y-109505614D01*
X120998627Y-109505624D01*
X121020808Y-109539280D01*
X121027873Y-109550000D01*
X121032377Y-109556833D01*
X121034818Y-109560863D01*
X121064588Y-109614498D01*
X121064589Y-109614499D01*
X121064591Y-109614502D01*
X121086968Y-109640567D01*
X121091693Y-109646835D01*
X121099279Y-109658345D01*
X121110598Y-109675519D01*
X121153978Y-109718899D01*
X121157169Y-109722343D01*
X121197131Y-109768892D01*
X121197130Y-109768892D01*
X121224299Y-109789923D01*
X121230186Y-109795107D01*
X122047254Y-110612175D01*
X122849536Y-111414457D01*
X122883021Y-111475780D01*
X122878037Y-111545472D01*
X122836165Y-111601405D01*
X122770701Y-111625822D01*
X122723540Y-111620070D01*
X122719802Y-111618855D01*
X122550877Y-111582950D01*
X122534646Y-111579500D01*
X122345354Y-111579500D01*
X122242298Y-111601405D01*
X122171003Y-111616559D01*
X122101335Y-111611243D01*
X122057541Y-111582950D01*
X120091819Y-109617228D01*
X120058334Y-109555905D01*
X120055500Y-109529547D01*
X120055500Y-104170000D01*
X120437500Y-104170000D01*
X120437500Y-104567844D01*
X120443901Y-104627372D01*
X120443903Y-104627379D01*
X120494145Y-104762086D01*
X120494149Y-104762093D01*
X120580309Y-104877187D01*
X120580312Y-104877190D01*
X120695406Y-104963350D01*
X120695413Y-104963354D01*
X120830120Y-105013596D01*
X120830127Y-105013598D01*
X120889655Y-105019999D01*
X120889672Y-105020000D01*
X121287500Y-105020000D01*
X121287500Y-104170000D01*
X120437500Y-104170000D01*
X120055500Y-104170000D01*
X120055500Y-103670000D01*
X120437500Y-103670000D01*
X121287500Y-103670000D01*
X121287500Y-102820000D01*
X121787500Y-102820000D01*
X121787500Y-103670000D01*
X122637500Y-103670000D01*
X122637500Y-103272172D01*
X122637499Y-103272155D01*
X122631098Y-103212627D01*
X122631096Y-103212620D01*
X122580854Y-103077913D01*
X122580850Y-103077906D01*
X122494690Y-102962812D01*
X122494687Y-102962809D01*
X122379593Y-102876649D01*
X122379586Y-102876645D01*
X122244879Y-102826403D01*
X122244872Y-102826401D01*
X122185344Y-102820000D01*
X121787500Y-102820000D01*
X121287500Y-102820000D01*
X120889655Y-102820000D01*
X120830127Y-102826401D01*
X120830120Y-102826403D01*
X120695413Y-102876645D01*
X120695406Y-102876649D01*
X120580312Y-102962809D01*
X120580309Y-102962812D01*
X120494149Y-103077906D01*
X120494145Y-103077913D01*
X120443903Y-103212620D01*
X120443901Y-103212627D01*
X120437500Y-103272155D01*
X120437500Y-103670000D01*
X120055500Y-103670000D01*
X120055500Y-100243570D01*
X120075185Y-100176531D01*
X120127989Y-100130776D01*
X120186798Y-100121109D01*
X120186863Y-100119839D01*
X120190025Y-100119999D01*
X120314999Y-100119999D01*
X120315000Y-100119998D01*
X120315000Y-98520000D01*
X120815000Y-98520000D01*
X120815000Y-100119999D01*
X120939972Y-100119999D01*
X120939986Y-100119998D01*
X121042697Y-100109505D01*
X121209119Y-100054358D01*
X121209124Y-100054356D01*
X121358345Y-99962315D01*
X121482315Y-99838345D01*
X121574356Y-99689124D01*
X121574358Y-99689119D01*
X121629505Y-99522697D01*
X121629506Y-99522690D01*
X121639999Y-99419986D01*
X121640000Y-99419973D01*
X121640000Y-98520000D01*
X120815000Y-98520000D01*
X120315000Y-98520000D01*
X120315000Y-96420000D01*
X120815000Y-96420000D01*
X120815000Y-98020000D01*
X121639999Y-98020000D01*
X121639999Y-97120028D01*
X121639998Y-97120013D01*
X121629505Y-97017302D01*
X121574358Y-96850880D01*
X121574356Y-96850875D01*
X121482315Y-96701654D01*
X121358345Y-96577684D01*
X121209124Y-96485643D01*
X121209119Y-96485641D01*
X121042697Y-96430494D01*
X121042690Y-96430493D01*
X120939986Y-96420000D01*
X120815000Y-96420000D01*
X120315000Y-96420000D01*
X120190027Y-96420000D01*
X120186865Y-96420162D01*
X120186796Y-96418809D01*
X120123379Y-96407003D01*
X120072508Y-96359109D01*
X120055500Y-96296430D01*
X120055500Y-95690451D01*
X120075185Y-95623412D01*
X120091814Y-95602775D01*
X122408931Y-93285657D01*
X122470252Y-93252174D01*
X122539944Y-93257158D01*
G37*
%TD.AperFunction*%
%TA.AperFunction,Conductor*%
G36*
X118719007Y-95248096D02*
G01*
X118774940Y-95289968D01*
X118799123Y-95352609D01*
X118804225Y-95406583D01*
X118804500Y-95412421D01*
X118804500Y-100822352D01*
X118784815Y-100889391D01*
X118732011Y-100935146D01*
X118662853Y-100945090D01*
X118607614Y-100922670D01*
X118502477Y-100846282D01*
X118329644Y-100769334D01*
X118144594Y-100730000D01*
X117955406Y-100730000D01*
X117770355Y-100769334D01*
X117612961Y-100839409D01*
X118041844Y-101268291D01*
X118075329Y-101329614D01*
X118070345Y-101399305D01*
X118028474Y-101455239D01*
X117983838Y-101476369D01*
X117971025Y-101479526D01*
X117910146Y-101533461D01*
X117910143Y-101533465D01*
X117892848Y-101579069D01*
X117850669Y-101634771D01*
X117847599Y-101635896D01*
X117872344Y-101654420D01*
X117889020Y-101684762D01*
X117891105Y-101690262D01*
X117916144Y-101726536D01*
X117937310Y-101757200D01*
X118009331Y-101795000D01*
X118009333Y-101795000D01*
X118010438Y-101795580D01*
X118060651Y-101844165D01*
X118076626Y-101912184D01*
X118053291Y-101978042D01*
X118040494Y-101993058D01*
X117653552Y-102379999D01*
X118041844Y-102768291D01*
X118075329Y-102829614D01*
X118070345Y-102899306D01*
X118028473Y-102955239D01*
X117983838Y-102976369D01*
X117971025Y-102979526D01*
X117910146Y-103033461D01*
X117910143Y-103033465D01*
X117892848Y-103079069D01*
X117850669Y-103134771D01*
X117847598Y-103135897D01*
X117872344Y-103154422D01*
X117889019Y-103184761D01*
X117891104Y-103190260D01*
X117891105Y-103190261D01*
X117937310Y-103257200D01*
X117937311Y-103257201D01*
X118010438Y-103295581D01*
X118060650Y-103344165D01*
X118076625Y-103412184D01*
X118053290Y-103478042D01*
X118040493Y-103493058D01*
X117653552Y-103879999D01*
X117653552Y-103880000D01*
X118041844Y-104268291D01*
X118075329Y-104329614D01*
X118070345Y-104399305D01*
X118028474Y-104455239D01*
X117983838Y-104476369D01*
X117971025Y-104479526D01*
X117910146Y-104533461D01*
X117910142Y-104533466D01*
X117892848Y-104579069D01*
X117850670Y-104634772D01*
X117847599Y-104635897D01*
X117872343Y-104654420D01*
X117889017Y-104684757D01*
X117891104Y-104690259D01*
X117891104Y-104690260D01*
X117891105Y-104690261D01*
X117937310Y-104757200D01*
X117937311Y-104757201D01*
X118010438Y-104795581D01*
X118060650Y-104844165D01*
X118076625Y-104912184D01*
X118053290Y-104978042D01*
X118040493Y-104993058D01*
X117612961Y-105420589D01*
X117770355Y-105490665D01*
X117955406Y-105530000D01*
X118144594Y-105530000D01*
X118329644Y-105490665D01*
X118502479Y-105413716D01*
X118502481Y-105413714D01*
X118607614Y-105337330D01*
X118673420Y-105313849D01*
X118741474Y-105329674D01*
X118790169Y-105379779D01*
X118804500Y-105437647D01*
X118804500Y-109757255D01*
X118802775Y-109772872D01*
X118803061Y-109772899D01*
X118802326Y-109780665D01*
X118804500Y-109849814D01*
X118804500Y-109879343D01*
X118804501Y-109879360D01*
X118805368Y-109886231D01*
X118805826Y-109892050D01*
X118807290Y-109938624D01*
X118807291Y-109938627D01*
X118812880Y-109957867D01*
X118816824Y-109976911D01*
X118819336Y-109996792D01*
X118835471Y-110037546D01*
X118836490Y-110040119D01*
X118838382Y-110045647D01*
X118851381Y-110090388D01*
X118861580Y-110107634D01*
X118870136Y-110125100D01*
X118877514Y-110143732D01*
X118899075Y-110173409D01*
X118904898Y-110181423D01*
X118908106Y-110186307D01*
X118931827Y-110226416D01*
X118931833Y-110226424D01*
X118945990Y-110240580D01*
X118958627Y-110255375D01*
X118970406Y-110271587D01*
X119004749Y-110299998D01*
X119006309Y-110301288D01*
X119010620Y-110305210D01*
X119248809Y-110543399D01*
X119423229Y-110717819D01*
X119456714Y-110779142D01*
X119451730Y-110848834D01*
X119409858Y-110904767D01*
X119344394Y-110929184D01*
X119335548Y-110929500D01*
X118892953Y-110929500D01*
X118825914Y-110909815D01*
X118805272Y-110893181D01*
X118121818Y-110209727D01*
X118088333Y-110148404D01*
X118085499Y-110122054D01*
X118085499Y-109232749D01*
X118087224Y-109217128D01*
X118086938Y-109217101D01*
X118087671Y-109209341D01*
X118087673Y-109209333D01*
X118085500Y-109140185D01*
X118085500Y-109110650D01*
X118084631Y-109103772D01*
X118084172Y-109097943D01*
X118082709Y-109051372D01*
X118077122Y-109032144D01*
X118073174Y-109013084D01*
X118070663Y-108993204D01*
X118053512Y-108949887D01*
X118051619Y-108944358D01*
X118038618Y-108899609D01*
X118038616Y-108899606D01*
X118028423Y-108882371D01*
X118019861Y-108864894D01*
X118012487Y-108846270D01*
X118008547Y-108840847D01*
X117985079Y-108808545D01*
X117981888Y-108803686D01*
X117976511Y-108794594D01*
X117958170Y-108763580D01*
X117958168Y-108763578D01*
X117958165Y-108763574D01*
X117944006Y-108749415D01*
X117931368Y-108734619D01*
X117919594Y-108718413D01*
X117885248Y-108690000D01*
X117883688Y-108688709D01*
X117879376Y-108684786D01*
X115401819Y-106207228D01*
X115368334Y-106145905D01*
X115365500Y-106119547D01*
X115365500Y-105420589D01*
X116112961Y-105420589D01*
X116270355Y-105490665D01*
X116455406Y-105530000D01*
X116644594Y-105530000D01*
X116829646Y-105490665D01*
X116829651Y-105490663D01*
X116987036Y-105420590D01*
X116987037Y-105420589D01*
X116558156Y-104991708D01*
X116551708Y-104979899D01*
X116540494Y-104993058D01*
X116112961Y-105420589D01*
X115365500Y-105420589D01*
X115365500Y-104630000D01*
X115645043Y-104630000D01*
X115664819Y-104818154D01*
X115723278Y-104998072D01*
X115723281Y-104998079D01*
X115761745Y-105064700D01*
X116185396Y-104641051D01*
X116194834Y-104635897D01*
X116347598Y-104635897D01*
X116372344Y-104654422D01*
X116389019Y-104684761D01*
X116391104Y-104690260D01*
X116411837Y-104720297D01*
X116437310Y-104757200D01*
X116509331Y-104795000D01*
X116509333Y-104795000D01*
X116510438Y-104795580D01*
X116549850Y-104833715D01*
X116571527Y-104804760D01*
X116616164Y-104783630D01*
X116628974Y-104780473D01*
X116689856Y-104726536D01*
X116707152Y-104680928D01*
X116747350Y-104627841D01*
X116898315Y-104627841D01*
X116910774Y-104637221D01*
X117299998Y-105026447D01*
X117299999Y-105026447D01*
X117685395Y-104641050D01*
X117701680Y-104632157D01*
X117689225Y-104622779D01*
X117299999Y-104233553D01*
X117299998Y-104233553D01*
X116914603Y-104618948D01*
X116898315Y-104627841D01*
X116747350Y-104627841D01*
X116749328Y-104625229D01*
X116752400Y-104624102D01*
X116727655Y-104605577D01*
X116710979Y-104575235D01*
X116708895Y-104569741D01*
X116708895Y-104569739D01*
X116662690Y-104502800D01*
X116662687Y-104502798D01*
X116589561Y-104464418D01*
X116550149Y-104426283D01*
X116528473Y-104455239D01*
X116483838Y-104476369D01*
X116471025Y-104479526D01*
X116410146Y-104533461D01*
X116410143Y-104533465D01*
X116392848Y-104579069D01*
X116350669Y-104634771D01*
X116347598Y-104635897D01*
X116194834Y-104635897D01*
X116201682Y-104632157D01*
X116189225Y-104622778D01*
X115761745Y-104195298D01*
X115723279Y-104261923D01*
X115664819Y-104441845D01*
X115645043Y-104630000D01*
X115365500Y-104630000D01*
X115365500Y-103880000D01*
X116153553Y-103880000D01*
X116541844Y-104268291D01*
X116548292Y-104280099D01*
X116559506Y-104266941D01*
X116946446Y-103880000D01*
X116946446Y-103879999D01*
X116558156Y-103491708D01*
X116551708Y-103479899D01*
X116540494Y-103493058D01*
X116153553Y-103879999D01*
X116153553Y-103880000D01*
X115365500Y-103880000D01*
X115365500Y-103130000D01*
X115645043Y-103130000D01*
X115664819Y-103318154D01*
X115723278Y-103498072D01*
X115723281Y-103498079D01*
X115761745Y-103564700D01*
X116185396Y-103141051D01*
X116194834Y-103135897D01*
X116347598Y-103135897D01*
X116372344Y-103154422D01*
X116389019Y-103184761D01*
X116391104Y-103190260D01*
X116391105Y-103190261D01*
X116437310Y-103257200D01*
X116509331Y-103295000D01*
X116509333Y-103295000D01*
X116510438Y-103295580D01*
X116549850Y-103333715D01*
X116571527Y-103304760D01*
X116616164Y-103283630D01*
X116628974Y-103280473D01*
X116689856Y-103226536D01*
X116707152Y-103180928D01*
X116747349Y-103127842D01*
X116898316Y-103127842D01*
X116910774Y-103137221D01*
X117299998Y-103526447D01*
X117299999Y-103526447D01*
X117685396Y-103141051D01*
X117701682Y-103132157D01*
X117689225Y-103122778D01*
X117300000Y-102733553D01*
X116914603Y-103118949D01*
X116898316Y-103127842D01*
X116747349Y-103127842D01*
X116749328Y-103125229D01*
X116752399Y-103124102D01*
X116727655Y-103105578D01*
X116710978Y-103075234D01*
X116708895Y-103069742D01*
X116708895Y-103069739D01*
X116662690Y-103002800D01*
X116662688Y-103002799D01*
X116662688Y-103002798D01*
X116589560Y-102964418D01*
X116550148Y-102926284D01*
X116528473Y-102955239D01*
X116483838Y-102976369D01*
X116471025Y-102979526D01*
X116410146Y-103033461D01*
X116410143Y-103033465D01*
X116392848Y-103079069D01*
X116350669Y-103134771D01*
X116347598Y-103135897D01*
X116194834Y-103135897D01*
X116201682Y-103132157D01*
X116189225Y-103122778D01*
X115761745Y-102695298D01*
X115723279Y-102761923D01*
X115664819Y-102941845D01*
X115645043Y-103130000D01*
X115365500Y-103130000D01*
X115365500Y-102380000D01*
X116153553Y-102380000D01*
X116541844Y-102768291D01*
X116548291Y-102780098D01*
X116559505Y-102766941D01*
X116946446Y-102379999D01*
X116558155Y-101991708D01*
X116551707Y-101979900D01*
X116540494Y-101993058D01*
X116153553Y-102379999D01*
X116153553Y-102380000D01*
X115365500Y-102380000D01*
X115365500Y-101630000D01*
X115645043Y-101630000D01*
X115664819Y-101818154D01*
X115723278Y-101998072D01*
X115723281Y-101998079D01*
X115761745Y-102064700D01*
X116185396Y-101641051D01*
X116194834Y-101635897D01*
X116347598Y-101635897D01*
X116372344Y-101654422D01*
X116389019Y-101684761D01*
X116391104Y-101690260D01*
X116404550Y-101709739D01*
X116437310Y-101757200D01*
X116509331Y-101795000D01*
X116509333Y-101795000D01*
X116510438Y-101795580D01*
X116549850Y-101833714D01*
X116571526Y-101804760D01*
X116616164Y-101783630D01*
X116628974Y-101780473D01*
X116689856Y-101726536D01*
X116707152Y-101680928D01*
X116747349Y-101627842D01*
X116898316Y-101627842D01*
X116910774Y-101637221D01*
X117299999Y-102026446D01*
X117685396Y-101641050D01*
X117701681Y-101632157D01*
X117689225Y-101622778D01*
X117300000Y-101233553D01*
X116914603Y-101618949D01*
X116898316Y-101627842D01*
X116747349Y-101627842D01*
X116749328Y-101625229D01*
X116752399Y-101624102D01*
X116727655Y-101605578D01*
X116710978Y-101575234D01*
X116708895Y-101569742D01*
X116708895Y-101569739D01*
X116662690Y-101502800D01*
X116662687Y-101502798D01*
X116589561Y-101464418D01*
X116550148Y-101426283D01*
X116528472Y-101455239D01*
X116483838Y-101476369D01*
X116471025Y-101479527D01*
X116410146Y-101533461D01*
X116410143Y-101533465D01*
X116392848Y-101579069D01*
X116350669Y-101634771D01*
X116347598Y-101635897D01*
X116194834Y-101635897D01*
X116201682Y-101632157D01*
X116189225Y-101622778D01*
X115761745Y-101195298D01*
X115723279Y-101261923D01*
X115664819Y-101441845D01*
X115645043Y-101630000D01*
X115365500Y-101630000D01*
X115365500Y-100839409D01*
X116112961Y-100839409D01*
X116541843Y-101268291D01*
X116548291Y-101280100D01*
X116559506Y-101266941D01*
X116987037Y-100839409D01*
X116829644Y-100769334D01*
X116644594Y-100730000D01*
X116455406Y-100730000D01*
X116270355Y-100769334D01*
X116112961Y-100839409D01*
X115365500Y-100839409D01*
X115365500Y-98550452D01*
X115385185Y-98483413D01*
X115401819Y-98462771D01*
X116986598Y-96877992D01*
X118587994Y-95276595D01*
X118649315Y-95243112D01*
X118719007Y-95248096D01*
G37*
%TD.AperFunction*%
%TA.AperFunction,Conductor*%
G36*
X128377681Y-99306485D02*
G01*
X128389267Y-99319856D01*
X128432449Y-99377541D01*
X128432451Y-99377543D01*
X128432454Y-99377546D01*
X128490311Y-99420858D01*
X128532181Y-99476790D01*
X128539999Y-99520123D01*
X128540000Y-100009744D01*
X128520316Y-100076783D01*
X128467512Y-100122538D01*
X128398353Y-100132482D01*
X128358376Y-100119542D01*
X128330669Y-100105000D01*
X128269965Y-100105000D01*
X128269963Y-100105000D01*
X128196406Y-100123130D01*
X128195440Y-100119210D01*
X128153087Y-100127685D01*
X128088040Y-100102176D01*
X128047110Y-100045550D01*
X128040000Y-100004166D01*
X128040000Y-99520123D01*
X128059685Y-99453084D01*
X128089686Y-99420859D01*
X128147546Y-99377546D01*
X128190732Y-99319856D01*
X128246667Y-99277984D01*
X128316358Y-99273000D01*
X128377681Y-99306485D01*
G37*
%TD.AperFunction*%
%TA.AperFunction,Conductor*%
G36*
X128606801Y-95709209D02*
G01*
X128651378Y-95761479D01*
X128651588Y-95761382D01*
X128651941Y-95762141D01*
X128652138Y-95762371D01*
X128652579Y-95763507D01*
X128654642Y-95767933D01*
X128745971Y-95915999D01*
X128745974Y-95916003D01*
X128868997Y-96039026D01*
X128905597Y-96061601D01*
X128952320Y-96113548D01*
X128964499Y-96167139D01*
X128964499Y-96795500D01*
X128944814Y-96862539D01*
X128892010Y-96908294D01*
X128840500Y-96919500D01*
X128742130Y-96919500D01*
X128742123Y-96919501D01*
X128682516Y-96925908D01*
X128657615Y-96935196D01*
X128587923Y-96940178D01*
X128570952Y-96935195D01*
X128547379Y-96926403D01*
X128547372Y-96926401D01*
X128487844Y-96920000D01*
X128440000Y-96920000D01*
X128440000Y-97011102D01*
X128420315Y-97078141D01*
X128415266Y-97085414D01*
X128389266Y-97120145D01*
X128333332Y-97162015D01*
X128263640Y-97166999D01*
X128202318Y-97133513D01*
X128190734Y-97120145D01*
X128164734Y-97085414D01*
X128140316Y-97019950D01*
X128140000Y-97011102D01*
X128140000Y-96920000D01*
X128092155Y-96920000D01*
X128032624Y-96926401D01*
X128032623Y-96926402D01*
X128009044Y-96935196D01*
X127939353Y-96940178D01*
X127922381Y-96935195D01*
X127897486Y-96925910D01*
X127897485Y-96925909D01*
X127897483Y-96925909D01*
X127837873Y-96919500D01*
X127837863Y-96919500D01*
X127442129Y-96919500D01*
X127442123Y-96919501D01*
X127382513Y-96925909D01*
X127358328Y-96934929D01*
X127288636Y-96939911D01*
X127271667Y-96934929D01*
X127247484Y-96925909D01*
X127242063Y-96925326D01*
X127187873Y-96919500D01*
X127187863Y-96919500D01*
X126792129Y-96919500D01*
X126792123Y-96919501D01*
X126732515Y-96925909D01*
X126708330Y-96934929D01*
X126638639Y-96939911D01*
X126621670Y-96934929D01*
X126597487Y-96925910D01*
X126597485Y-96925909D01*
X126597483Y-96925909D01*
X126537873Y-96919500D01*
X126537863Y-96919500D01*
X126142129Y-96919500D01*
X126142123Y-96919501D01*
X126082516Y-96925908D01*
X125947671Y-96976202D01*
X125947664Y-96976206D01*
X125832455Y-97062452D01*
X125832452Y-97062455D01*
X125746206Y-97177664D01*
X125746202Y-97177671D01*
X125695910Y-97312513D01*
X125695909Y-97312517D01*
X125690937Y-97358757D01*
X125664201Y-97423306D01*
X125606809Y-97463154D01*
X125567649Y-97469500D01*
X124714499Y-97469500D01*
X124647460Y-97449815D01*
X124601705Y-97397011D01*
X124590499Y-97345500D01*
X124590499Y-97119998D01*
X124590498Y-97119981D01*
X124579999Y-97017203D01*
X124579998Y-97017200D01*
X124546794Y-96916996D01*
X124540500Y-96877992D01*
X124540500Y-96057000D01*
X124560185Y-95989961D01*
X124612989Y-95944206D01*
X124664500Y-95933000D01*
X124680663Y-95933000D01*
X124747702Y-95952685D01*
X124753548Y-95956682D01*
X124767265Y-95966648D01*
X124767270Y-95966651D01*
X124940192Y-96043642D01*
X124940197Y-96043644D01*
X125125354Y-96083000D01*
X125125355Y-96083000D01*
X125314644Y-96083000D01*
X125314646Y-96083000D01*
X125499803Y-96043644D01*
X125672730Y-95966651D01*
X125674776Y-95965164D01*
X125686452Y-95956682D01*
X125752258Y-95933202D01*
X125759337Y-95933000D01*
X126215270Y-95933000D01*
X126282309Y-95952685D01*
X126302951Y-95969319D01*
X126371344Y-96037712D01*
X126520666Y-96129814D01*
X126687203Y-96184999D01*
X126789991Y-96195500D01*
X127790008Y-96195499D01*
X127790016Y-96195498D01*
X127790019Y-96195498D01*
X127846302Y-96189748D01*
X127892797Y-96184999D01*
X128059334Y-96129814D01*
X128208656Y-96037712D01*
X128332712Y-95913656D01*
X128424814Y-95764334D01*
X128424816Y-95764327D01*
X128426557Y-95760595D01*
X128428436Y-95758460D01*
X128428605Y-95758187D01*
X128428651Y-95758215D01*
X128472726Y-95708153D01*
X128539918Y-95688997D01*
X128606801Y-95709209D01*
G37*
%TD.AperFunction*%
%TA.AperFunction,Conductor*%
G36*
X168656587Y-93035185D02*
G01*
X168677229Y-93051819D01*
X168728181Y-93102771D01*
X168761666Y-93164094D01*
X168764500Y-93190452D01*
X168764500Y-103749546D01*
X168744815Y-103816585D01*
X168728181Y-103837227D01*
X164747335Y-107818073D01*
X164729397Y-107831988D01*
X164729442Y-107832046D01*
X164723273Y-107836831D01*
X164709103Y-107851000D01*
X164694318Y-107863628D01*
X164683234Y-107871682D01*
X164678107Y-107875407D01*
X164648404Y-107911310D01*
X164644472Y-107915631D01*
X164639192Y-107920910D01*
X164577869Y-107954395D01*
X164508177Y-107949411D01*
X164452244Y-107907539D01*
X164427827Y-107842075D01*
X164428153Y-107820623D01*
X164431999Y-107782978D01*
X164432000Y-107782973D01*
X164432000Y-107720500D01*
X163482000Y-107720500D01*
X163482000Y-108482999D01*
X163731972Y-108482999D01*
X163731984Y-108482998D01*
X163775535Y-108478549D01*
X163844228Y-108491318D01*
X163895113Y-108539198D01*
X163912034Y-108606988D01*
X163889619Y-108673165D01*
X163875819Y-108689588D01*
X161527097Y-111038311D01*
X161465774Y-111071796D01*
X161396082Y-111066812D01*
X161374319Y-111056169D01*
X161355624Y-111044638D01*
X161292738Y-111005849D01*
X161225927Y-110964639D01*
X161225922Y-110964637D01*
X161060776Y-110909913D01*
X160958855Y-110899500D01*
X160958848Y-110899500D01*
X160372152Y-110899500D01*
X160372144Y-110899500D01*
X160270223Y-110909913D01*
X160105077Y-110964637D01*
X160105066Y-110964642D01*
X159957000Y-111055971D01*
X159956996Y-111055974D01*
X159833974Y-111178996D01*
X159833971Y-111179000D01*
X159833538Y-111179703D01*
X159833114Y-111180083D01*
X159829493Y-111184664D01*
X159828710Y-111184045D01*
X159781590Y-111226428D01*
X159712628Y-111237649D01*
X159648546Y-111209806D01*
X159626657Y-111184544D01*
X159626507Y-111184664D01*
X159623859Y-111181315D01*
X159622462Y-111179703D01*
X159622028Y-111179000D01*
X159622025Y-111178996D01*
X159499003Y-111055974D01*
X159498999Y-111055971D01*
X159350933Y-110964642D01*
X159350927Y-110964639D01*
X159350925Y-110964638D01*
X159298029Y-110947110D01*
X159185776Y-110909913D01*
X159083855Y-110899500D01*
X159083848Y-110899500D01*
X158497152Y-110899500D01*
X158497144Y-110899500D01*
X158395223Y-110909913D01*
X158230077Y-110964637D01*
X158230066Y-110964642D01*
X158082000Y-111055971D01*
X158081996Y-111055974D01*
X157958973Y-111178997D01*
X157878460Y-111309529D01*
X157826512Y-111356253D01*
X157757549Y-111367474D01*
X157700037Y-111344750D01*
X157651559Y-111309529D01*
X157632730Y-111295849D01*
X157632728Y-111295848D01*
X157632729Y-111295848D01*
X157459807Y-111218857D01*
X157459802Y-111218855D01*
X157298376Y-111184544D01*
X157274646Y-111179500D01*
X157085354Y-111179500D01*
X157061624Y-111184544D01*
X156900197Y-111218855D01*
X156900192Y-111218857D01*
X156727270Y-111295848D01*
X156727265Y-111295851D01*
X156574129Y-111407111D01*
X156447466Y-111547785D01*
X156352821Y-111711715D01*
X156352818Y-111711722D01*
X156296522Y-111884984D01*
X156294326Y-111891744D01*
X156279981Y-112028234D01*
X156276741Y-112059063D01*
X156274540Y-112080000D01*
X156294326Y-112268256D01*
X156294327Y-112268259D01*
X156352818Y-112448277D01*
X156352821Y-112448284D01*
X156447467Y-112612216D01*
X156529549Y-112703377D01*
X156574129Y-112752888D01*
X156727265Y-112864148D01*
X156727270Y-112864151D01*
X156900192Y-112941142D01*
X156900197Y-112941144D01*
X157085354Y-112980500D01*
X157085355Y-112980500D01*
X157274644Y-112980500D01*
X157274646Y-112980500D01*
X157459803Y-112941144D01*
X157632730Y-112864151D01*
X157683440Y-112827307D01*
X157749246Y-112803827D01*
X157817300Y-112819652D01*
X157863379Y-112867065D01*
X157863846Y-112866778D01*
X157865142Y-112868879D01*
X157865995Y-112869757D01*
X157867282Y-112872348D01*
X157958971Y-113020999D01*
X157958974Y-113021003D01*
X157965790Y-113027819D01*
X157999275Y-113089142D01*
X157994291Y-113158834D01*
X157952419Y-113214767D01*
X157886955Y-113239184D01*
X157878109Y-113239500D01*
X154615783Y-113239500D01*
X154548744Y-113219815D01*
X154528102Y-113203181D01*
X153804819Y-112479898D01*
X153771334Y-112418575D01*
X153768500Y-112392217D01*
X153768500Y-109182489D01*
X153788185Y-109115450D01*
X153840989Y-109069695D01*
X153910147Y-109059751D01*
X153973703Y-109088776D01*
X154010206Y-109143485D01*
X154028641Y-109199119D01*
X154028643Y-109199124D01*
X154120684Y-109348345D01*
X154244654Y-109472315D01*
X154393875Y-109564356D01*
X154393880Y-109564358D01*
X154560302Y-109619505D01*
X154560309Y-109619506D01*
X154663019Y-109629999D01*
X154937999Y-109629999D01*
X154938000Y-109629998D01*
X155437999Y-109629998D01*
X155438000Y-109629999D01*
X155712972Y-109629999D01*
X155712986Y-109629998D01*
X155815697Y-109619505D01*
X155982119Y-109564358D01*
X155982124Y-109564356D01*
X156131345Y-109472315D01*
X156255315Y-109348345D01*
X156347356Y-109199124D01*
X156347358Y-109199119D01*
X156402505Y-109032697D01*
X156402506Y-109032690D01*
X156412999Y-108929986D01*
X156413000Y-108929973D01*
X156413000Y-108880000D01*
X155438000Y-108880000D01*
X155437999Y-109629998D01*
X154938000Y-109629998D01*
X154938000Y-108736500D01*
X156698001Y-108736500D01*
X156698001Y-108798986D01*
X156708494Y-108901697D01*
X156763641Y-109068119D01*
X156763643Y-109068124D01*
X156855684Y-109217345D01*
X156979654Y-109341315D01*
X157128875Y-109433356D01*
X157128880Y-109433358D01*
X157295302Y-109488505D01*
X157295309Y-109488506D01*
X157398019Y-109498999D01*
X157647999Y-109498999D01*
X157648000Y-109498998D01*
X157648000Y-108736500D01*
X158148000Y-108736500D01*
X158148000Y-109498999D01*
X158397972Y-109498999D01*
X158397986Y-109498998D01*
X158500697Y-109488505D01*
X158667119Y-109433358D01*
X158667124Y-109433356D01*
X158816345Y-109341315D01*
X158940315Y-109217345D01*
X159032356Y-109068124D01*
X159032358Y-109068119D01*
X159045652Y-109028000D01*
X159443001Y-109028000D01*
X159443001Y-109077986D01*
X159453494Y-109180697D01*
X159508641Y-109347119D01*
X159508643Y-109347124D01*
X159600684Y-109496345D01*
X159724654Y-109620315D01*
X159873875Y-109712356D01*
X159873880Y-109712358D01*
X160040302Y-109767505D01*
X160040309Y-109767506D01*
X160143019Y-109777999D01*
X160417999Y-109777999D01*
X160417999Y-109777998D01*
X160418000Y-109028000D01*
X160918000Y-109028000D01*
X160918000Y-109777999D01*
X161192972Y-109777999D01*
X161192986Y-109777998D01*
X161295697Y-109767505D01*
X161462119Y-109712358D01*
X161462124Y-109712356D01*
X161611345Y-109620315D01*
X161735315Y-109496345D01*
X161827356Y-109347124D01*
X161827358Y-109347119D01*
X161882505Y-109180697D01*
X161882506Y-109180690D01*
X161892999Y-109077986D01*
X161893000Y-109077973D01*
X161893000Y-109028000D01*
X160918000Y-109028000D01*
X160418000Y-109028000D01*
X159443001Y-109028000D01*
X159045652Y-109028000D01*
X159087505Y-108901697D01*
X159087506Y-108901690D01*
X159097999Y-108798986D01*
X159098000Y-108798973D01*
X159098000Y-108736500D01*
X158148000Y-108736500D01*
X157648000Y-108736500D01*
X156698001Y-108736500D01*
X154938000Y-108736500D01*
X154938000Y-108504000D01*
X154957685Y-108436961D01*
X155010489Y-108391206D01*
X155062000Y-108380000D01*
X156412999Y-108380000D01*
X156412999Y-108330028D01*
X156412998Y-108330013D01*
X156402505Y-108227302D01*
X156347358Y-108060880D01*
X156347356Y-108060875D01*
X156255315Y-107911654D01*
X156131344Y-107787683D01*
X156131341Y-107787681D01*
X156128339Y-107785829D01*
X156126713Y-107784021D01*
X156125677Y-107783202D01*
X156125817Y-107783024D01*
X156081617Y-107733880D01*
X156070397Y-107664917D01*
X156098243Y-107600836D01*
X156128344Y-107574754D01*
X156131656Y-107572712D01*
X156255712Y-107448656D01*
X156282886Y-107404597D01*
X156334832Y-107357872D01*
X156353820Y-107350619D01*
X156354756Y-107350346D01*
X156365857Y-107347121D01*
X156384914Y-107343174D01*
X156404792Y-107340664D01*
X156448122Y-107323507D01*
X156453646Y-107321617D01*
X156457396Y-107320527D01*
X156498390Y-107308618D01*
X156515629Y-107298422D01*
X156533103Y-107289862D01*
X156551727Y-107282488D01*
X156551727Y-107282487D01*
X156551732Y-107282486D01*
X156589444Y-107255085D01*
X156594300Y-107251895D01*
X156617154Y-107238380D01*
X156684877Y-107221198D01*
X156751139Y-107243358D01*
X156785810Y-107280014D01*
X156855287Y-107392654D01*
X156855289Y-107392657D01*
X156949304Y-107486672D01*
X156982789Y-107547995D01*
X156977805Y-107617687D01*
X156949305Y-107662034D01*
X156855682Y-107755657D01*
X156763643Y-107904875D01*
X156763641Y-107904880D01*
X156708494Y-108071302D01*
X156708493Y-108071309D01*
X156698000Y-108174013D01*
X156698000Y-108236500D01*
X159097999Y-108236500D01*
X159097999Y-108174028D01*
X159097998Y-108174013D01*
X159087505Y-108071302D01*
X159032358Y-107904880D01*
X159032356Y-107904875D01*
X158940315Y-107755654D01*
X158846695Y-107662034D01*
X158813210Y-107600711D01*
X158818194Y-107531019D01*
X158846691Y-107486676D01*
X158940712Y-107392656D01*
X159032814Y-107243334D01*
X159087999Y-107076797D01*
X159098500Y-106974009D01*
X159098499Y-106348992D01*
X159087999Y-106246203D01*
X159087998Y-106246200D01*
X159087349Y-106239846D01*
X159100119Y-106171153D01*
X159123023Y-106139566D01*
X159630818Y-105631770D01*
X159692142Y-105598286D01*
X159761834Y-105603270D01*
X159817767Y-105645142D01*
X159842184Y-105710606D01*
X159842500Y-105719452D01*
X159842500Y-105893201D01*
X159822815Y-105960240D01*
X159783598Y-105998739D01*
X159724344Y-106035287D01*
X159600289Y-106159342D01*
X159508187Y-106308663D01*
X159508185Y-106308668D01*
X159494823Y-106348992D01*
X159453001Y-106475203D01*
X159453001Y-106475204D01*
X159453000Y-106475204D01*
X159442500Y-106577983D01*
X159442500Y-107178001D01*
X159442501Y-107178019D01*
X159453000Y-107280796D01*
X159453001Y-107280799D01*
X159508185Y-107447331D01*
X159508187Y-107447336D01*
X159522992Y-107471338D01*
X159600288Y-107596656D01*
X159724344Y-107720712D01*
X159727628Y-107722737D01*
X159727653Y-107722753D01*
X159729445Y-107724746D01*
X159730011Y-107725193D01*
X159729934Y-107725289D01*
X159774379Y-107774699D01*
X159785603Y-107843661D01*
X159757761Y-107907744D01*
X159727665Y-107933826D01*
X159724660Y-107935679D01*
X159724655Y-107935683D01*
X159600684Y-108059654D01*
X159508643Y-108208875D01*
X159508641Y-108208880D01*
X159453494Y-108375302D01*
X159453493Y-108375309D01*
X159443000Y-108478013D01*
X159443000Y-108528000D01*
X161892999Y-108528000D01*
X161892999Y-108478028D01*
X161892998Y-108478013D01*
X161882505Y-108375302D01*
X161827358Y-108208880D01*
X161827356Y-108208875D01*
X161735315Y-108059654D01*
X161611344Y-107935683D01*
X161611341Y-107935681D01*
X161608339Y-107933829D01*
X161606713Y-107932021D01*
X161605677Y-107931202D01*
X161605817Y-107931024D01*
X161561617Y-107881880D01*
X161550397Y-107812917D01*
X161578243Y-107748836D01*
X161608344Y-107722754D01*
X161611656Y-107720712D01*
X161611868Y-107720500D01*
X162032001Y-107720500D01*
X162032001Y-107782986D01*
X162042494Y-107885697D01*
X162097641Y-108052119D01*
X162097643Y-108052124D01*
X162189684Y-108201345D01*
X162313654Y-108325315D01*
X162462875Y-108417356D01*
X162462880Y-108417358D01*
X162629302Y-108472505D01*
X162629309Y-108472506D01*
X162732019Y-108482999D01*
X162981999Y-108482999D01*
X162982000Y-108482998D01*
X162982000Y-107720500D01*
X162032001Y-107720500D01*
X161611868Y-107720500D01*
X161735712Y-107596656D01*
X161827814Y-107447334D01*
X161874815Y-107305494D01*
X161914587Y-107248051D01*
X161979102Y-107221228D01*
X161992520Y-107220500D01*
X164431999Y-107220500D01*
X164431999Y-107158028D01*
X164431998Y-107158013D01*
X164421505Y-107055302D01*
X164366358Y-106888880D01*
X164366356Y-106888875D01*
X164274315Y-106739654D01*
X164180695Y-106646034D01*
X164147210Y-106584711D01*
X164152194Y-106515019D01*
X164180691Y-106470676D01*
X164274712Y-106376656D01*
X164366814Y-106227334D01*
X164421999Y-106060797D01*
X164432500Y-105958009D01*
X164432499Y-105332992D01*
X164421999Y-105230203D01*
X164366814Y-105063666D01*
X164274712Y-104914344D01*
X164150656Y-104790288D01*
X164041978Y-104723255D01*
X164001336Y-104698187D01*
X164001331Y-104698185D01*
X163960808Y-104684757D01*
X163834797Y-104643001D01*
X163834795Y-104643000D01*
X163732010Y-104632500D01*
X162731998Y-104632500D01*
X162731980Y-104632501D01*
X162629203Y-104643000D01*
X162629200Y-104643001D01*
X162462668Y-104698185D01*
X162462663Y-104698187D01*
X162313345Y-104790287D01*
X162250792Y-104852840D01*
X162189468Y-104886324D01*
X162119777Y-104881339D01*
X162075430Y-104852839D01*
X161785293Y-104562702D01*
X161751808Y-104501379D01*
X161756791Y-104431691D01*
X161762091Y-104417483D01*
X161768500Y-104357873D01*
X161768499Y-102992257D01*
X161788184Y-102925219D01*
X161840987Y-102879464D01*
X161849166Y-102876076D01*
X161910086Y-102853354D01*
X161910093Y-102853350D01*
X162025187Y-102767190D01*
X162025190Y-102767187D01*
X162111350Y-102652093D01*
X162111354Y-102652086D01*
X162161596Y-102517379D01*
X162161598Y-102517372D01*
X162167999Y-102457844D01*
X162168000Y-102457827D01*
X162168000Y-100960000D01*
X156168000Y-100960000D01*
X156168000Y-102385500D01*
X156148315Y-102452539D01*
X156095511Y-102498294D01*
X156044000Y-102509500D01*
X154877629Y-102509500D01*
X154877623Y-102509501D01*
X154818016Y-102515908D01*
X154683171Y-102566202D01*
X154683164Y-102566206D01*
X154567955Y-102652452D01*
X154567952Y-102652455D01*
X154481706Y-102767664D01*
X154481702Y-102767671D01*
X154431408Y-102902517D01*
X154425001Y-102962116D01*
X154425000Y-102962135D01*
X154425000Y-103206716D01*
X154405315Y-103273755D01*
X154388681Y-103294397D01*
X153859397Y-103823681D01*
X153798074Y-103857166D01*
X153771716Y-103860000D01*
X152975500Y-103860000D01*
X152975500Y-104656216D01*
X152955815Y-104723255D01*
X152939181Y-104743897D01*
X152069532Y-105613546D01*
X152004946Y-105674942D01*
X151969899Y-105725294D01*
X151967062Y-105729056D01*
X151928302Y-105776592D01*
X151928299Y-105776597D01*
X151912392Y-105807047D01*
X151908324Y-105813761D01*
X151888702Y-105841954D01*
X151864509Y-105898330D01*
X151862488Y-105902584D01*
X151834091Y-105956951D01*
X151834090Y-105956952D01*
X151824640Y-105989975D01*
X151822007Y-105997371D01*
X151808459Y-106028943D01*
X151796113Y-106089019D01*
X151794990Y-106093595D01*
X151778113Y-106152577D01*
X151778113Y-106152579D01*
X151775503Y-106186841D01*
X151774414Y-106194608D01*
X151770721Y-106212584D01*
X151767500Y-106228258D01*
X151767500Y-106289597D01*
X151767321Y-106294306D01*
X151762662Y-106355474D01*
X151763605Y-106362872D01*
X151767003Y-106389560D01*
X151767500Y-106397388D01*
X151767500Y-111062437D01*
X151747815Y-111129476D01*
X151695011Y-111175231D01*
X151625853Y-111185175D01*
X151562297Y-111156150D01*
X151551356Y-111145415D01*
X151525871Y-111117112D01*
X151485506Y-111087785D01*
X151372734Y-111005851D01*
X151372729Y-111005848D01*
X151199807Y-110928857D01*
X151199802Y-110928855D01*
X151054000Y-110897865D01*
X151014646Y-110889500D01*
X151014645Y-110889500D01*
X150955452Y-110889500D01*
X150888413Y-110869815D01*
X150867771Y-110853181D01*
X149361819Y-109347228D01*
X149328334Y-109285905D01*
X149325500Y-109259547D01*
X149325500Y-103860000D01*
X151625500Y-103860000D01*
X151625500Y-104257844D01*
X151631901Y-104317372D01*
X151631903Y-104317379D01*
X151682145Y-104452086D01*
X151682149Y-104452093D01*
X151768309Y-104567187D01*
X151768312Y-104567190D01*
X151883406Y-104653350D01*
X151883413Y-104653354D01*
X152018120Y-104703596D01*
X152018127Y-104703598D01*
X152077655Y-104709999D01*
X152077672Y-104710000D01*
X152475500Y-104710000D01*
X152475500Y-103860000D01*
X151625500Y-103860000D01*
X149325500Y-103860000D01*
X149325500Y-103360000D01*
X151625500Y-103360000D01*
X152475500Y-103360000D01*
X152475500Y-102510000D01*
X152975500Y-102510000D01*
X152975500Y-103360000D01*
X153825500Y-103360000D01*
X153825500Y-102962172D01*
X153825499Y-102962155D01*
X153819098Y-102902627D01*
X153819096Y-102902620D01*
X153768854Y-102767913D01*
X153768850Y-102767906D01*
X153682690Y-102652812D01*
X153682687Y-102652809D01*
X153567593Y-102566649D01*
X153567586Y-102566645D01*
X153432879Y-102516403D01*
X153432872Y-102516401D01*
X153373344Y-102510000D01*
X152975500Y-102510000D01*
X152475500Y-102510000D01*
X152077655Y-102510000D01*
X152018127Y-102516401D01*
X152018120Y-102516403D01*
X151883413Y-102566645D01*
X151883406Y-102566649D01*
X151768312Y-102652809D01*
X151768309Y-102652812D01*
X151682149Y-102767906D01*
X151682145Y-102767913D01*
X151631903Y-102902620D01*
X151631901Y-102902627D01*
X151625500Y-102962155D01*
X151625500Y-103360000D01*
X149325500Y-103360000D01*
X149325500Y-98210000D01*
X150368001Y-98210000D01*
X150368001Y-99109986D01*
X150378494Y-99212697D01*
X150433641Y-99379119D01*
X150433643Y-99379124D01*
X150525684Y-99528345D01*
X150649654Y-99652315D01*
X150798875Y-99744356D01*
X150798880Y-99744358D01*
X150965302Y-99799505D01*
X150965309Y-99799506D01*
X151068019Y-99809999D01*
X151192999Y-99809999D01*
X151193000Y-99809998D01*
X151193000Y-98210000D01*
X151693000Y-98210000D01*
X151693000Y-99809999D01*
X151817972Y-99809999D01*
X151817986Y-99809998D01*
X151920697Y-99799505D01*
X152087119Y-99744358D01*
X152087124Y-99744356D01*
X152236345Y-99652315D01*
X152360315Y-99528345D01*
X152452356Y-99379124D01*
X152452358Y-99379119D01*
X152507505Y-99212697D01*
X152507506Y-99212690D01*
X152517999Y-99109986D01*
X152518000Y-99109973D01*
X152518000Y-98210000D01*
X151693000Y-98210000D01*
X151193000Y-98210000D01*
X150368001Y-98210000D01*
X149325500Y-98210000D01*
X149325500Y-97920451D01*
X149345185Y-97853412D01*
X149361814Y-97832775D01*
X150156321Y-97038268D01*
X150217642Y-97004785D01*
X150287334Y-97009769D01*
X150343267Y-97051641D01*
X150367684Y-97117105D01*
X150368000Y-97125951D01*
X150368000Y-97710000D01*
X151193000Y-97710000D01*
X151193000Y-96110000D01*
X151693000Y-96110000D01*
X151693000Y-97710000D01*
X152517999Y-97710000D01*
X152517999Y-96810028D01*
X152517998Y-96810013D01*
X152507505Y-96707302D01*
X152452358Y-96540880D01*
X152452356Y-96540875D01*
X152360315Y-96391654D01*
X152236345Y-96267684D01*
X152087124Y-96175643D01*
X152087119Y-96175641D01*
X151920697Y-96120494D01*
X151920690Y-96120493D01*
X151817986Y-96110000D01*
X151693000Y-96110000D01*
X151193000Y-96110000D01*
X151193000Y-96082170D01*
X151192990Y-96082152D01*
X151193000Y-96082012D01*
X151193000Y-96058638D01*
X151194672Y-96058638D01*
X151197974Y-96012460D01*
X151226471Y-95968118D01*
X153195112Y-93999477D01*
X153256431Y-93965995D01*
X153326123Y-93970979D01*
X153382056Y-94012851D01*
X153406473Y-94078315D01*
X153406147Y-94099762D01*
X153395500Y-94203979D01*
X153395500Y-94829001D01*
X153395501Y-94829019D01*
X153406000Y-94931793D01*
X153406001Y-94931799D01*
X153411206Y-94947505D01*
X153417500Y-94986508D01*
X153417500Y-96449867D01*
X153399040Y-96514961D01*
X153383187Y-96540663D01*
X153383186Y-96540665D01*
X153358089Y-96616403D01*
X153328001Y-96707203D01*
X153328001Y-96707204D01*
X153328000Y-96707204D01*
X153317500Y-96809983D01*
X153317500Y-99110001D01*
X153317501Y-99110018D01*
X153328000Y-99212797D01*
X153373206Y-99349216D01*
X153379500Y-99388220D01*
X153379500Y-100130743D01*
X153394925Y-100282439D01*
X153455837Y-100476579D01*
X153455844Y-100476594D01*
X153554589Y-100654499D01*
X153554592Y-100654504D01*
X153687132Y-100808893D01*
X153687134Y-100808895D01*
X153848037Y-100933445D01*
X153848038Y-100933445D01*
X153848042Y-100933448D01*
X154030729Y-101023060D01*
X154227715Y-101074063D01*
X154430936Y-101084369D01*
X154632071Y-101053556D01*
X154822887Y-100982886D01*
X154995571Y-100875252D01*
X155143053Y-100735059D01*
X155259295Y-100568049D01*
X155339540Y-100381058D01*
X155380500Y-100181741D01*
X155380500Y-99450677D01*
X155398963Y-99385577D01*
X155402814Y-99379334D01*
X155457999Y-99212797D01*
X155468500Y-99110009D01*
X155468500Y-98784500D01*
X155488185Y-98717461D01*
X155540989Y-98671706D01*
X155592500Y-98660500D01*
X156086115Y-98660500D01*
X156153154Y-98680185D01*
X156198909Y-98732989D01*
X156208853Y-98802147D01*
X156202297Y-98827833D01*
X156174403Y-98902620D01*
X156174401Y-98902627D01*
X156168000Y-98962155D01*
X156168000Y-100460000D01*
X158918000Y-100460000D01*
X158918000Y-100220255D01*
X158937685Y-100153216D01*
X158990489Y-100107461D01*
X159059647Y-100097517D01*
X159099625Y-100110458D01*
X159127331Y-100125000D01*
X159188036Y-100125000D01*
X159188036Y-100124999D01*
X159233450Y-100113806D01*
X159261594Y-100106870D01*
X159262560Y-100110790D01*
X159304878Y-100102311D01*
X159369932Y-100127801D01*
X159410878Y-100184415D01*
X159418000Y-100225833D01*
X159418000Y-100460000D01*
X162168000Y-100460000D01*
X162168000Y-98962172D01*
X162167999Y-98962155D01*
X162161598Y-98902627D01*
X162161596Y-98902620D01*
X162111354Y-98767913D01*
X162111350Y-98767906D01*
X162025190Y-98652812D01*
X162025187Y-98652809D01*
X162024774Y-98652500D01*
X163218001Y-98652500D01*
X163218001Y-98714986D01*
X163228494Y-98817697D01*
X163283641Y-98984119D01*
X163283643Y-98984124D01*
X163375684Y-99133345D01*
X163499654Y-99257315D01*
X163648875Y-99349356D01*
X163648880Y-99349358D01*
X163815302Y-99404505D01*
X163815309Y-99404506D01*
X163918019Y-99414999D01*
X164167999Y-99414999D01*
X164168000Y-99414998D01*
X164168000Y-98652500D01*
X164668000Y-98652500D01*
X164668000Y-99414999D01*
X164917972Y-99414999D01*
X164917986Y-99414998D01*
X165020697Y-99404505D01*
X165187119Y-99349358D01*
X165187124Y-99349356D01*
X165336345Y-99257315D01*
X165460315Y-99133345D01*
X165552356Y-98984124D01*
X165552358Y-98984119D01*
X165607505Y-98817697D01*
X165607506Y-98817690D01*
X165617999Y-98714986D01*
X165618000Y-98714973D01*
X165618000Y-98652500D01*
X164668000Y-98652500D01*
X164168000Y-98652500D01*
X163218001Y-98652500D01*
X162024774Y-98652500D01*
X161910093Y-98566649D01*
X161910087Y-98566646D01*
X161849165Y-98543923D01*
X161793231Y-98502051D01*
X161768815Y-98436586D01*
X161768499Y-98427760D01*
X161768499Y-97781451D01*
X161788184Y-97714413D01*
X161804818Y-97693771D01*
X161947574Y-97551016D01*
X162273624Y-97224966D01*
X162438772Y-97059819D01*
X162500095Y-97026334D01*
X162526453Y-97023500D01*
X163148634Y-97023500D01*
X163215673Y-97043185D01*
X163261428Y-97095989D01*
X163266337Y-97108488D01*
X163272124Y-97125951D01*
X163283186Y-97159333D01*
X163283187Y-97159336D01*
X163287914Y-97166999D01*
X163371239Y-97302092D01*
X163375289Y-97308657D01*
X163469304Y-97402672D01*
X163502789Y-97463995D01*
X163497805Y-97533687D01*
X163469305Y-97578034D01*
X163375682Y-97671657D01*
X163283643Y-97820875D01*
X163283641Y-97820880D01*
X163228494Y-97987302D01*
X163228493Y-97987309D01*
X163218000Y-98090013D01*
X163218000Y-98152500D01*
X165617999Y-98152500D01*
X165617999Y-98090028D01*
X165617998Y-98090013D01*
X165607505Y-97987302D01*
X165552358Y-97820880D01*
X165552356Y-97820875D01*
X165460315Y-97671654D01*
X165366695Y-97578034D01*
X165333210Y-97516711D01*
X165338194Y-97447019D01*
X165366691Y-97402676D01*
X165460712Y-97308656D01*
X165552814Y-97159334D01*
X165607999Y-96992797D01*
X165618500Y-96890009D01*
X165618499Y-96312950D01*
X165638183Y-96245912D01*
X165654813Y-96225275D01*
X165949536Y-95930552D01*
X165961794Y-95920734D01*
X165961611Y-95920513D01*
X165967624Y-95915538D01*
X165967624Y-95915537D01*
X165967627Y-95915536D01*
X166014981Y-95865109D01*
X166048120Y-95831971D01*
X166055924Y-95821908D01*
X166059701Y-95817487D01*
X166075812Y-95800332D01*
X166078775Y-95794941D01*
X166089455Y-95778679D01*
X166120673Y-95738436D01*
X166183437Y-95593396D01*
X166208160Y-95437304D01*
X166203069Y-95383456D01*
X166216357Y-95314865D01*
X166238835Y-95284109D01*
X166246081Y-95276865D01*
X166246240Y-95276597D01*
X166272824Y-95231645D01*
X166329744Y-95135398D01*
X166375598Y-94977569D01*
X166378500Y-94940694D01*
X166378500Y-94422951D01*
X166398185Y-94355913D01*
X166414819Y-94335271D01*
X166419806Y-94330284D01*
X166481129Y-94296799D01*
X166533266Y-94296675D01*
X166645354Y-94320500D01*
X166834644Y-94320500D01*
X166834646Y-94320500D01*
X167019803Y-94281144D01*
X167192730Y-94204151D01*
X167345871Y-94092888D01*
X167472533Y-93952216D01*
X167567179Y-93788284D01*
X167625674Y-93608256D01*
X167645460Y-93420000D01*
X167625674Y-93231744D01*
X167608151Y-93177816D01*
X167606157Y-93107978D01*
X167642237Y-93048145D01*
X167704938Y-93017316D01*
X167726083Y-93015500D01*
X168589548Y-93015500D01*
X168656587Y-93035185D01*
G37*
%TD.AperFunction*%
%TA.AperFunction,Conductor*%
G36*
X159255681Y-98996485D02*
G01*
X159267267Y-99009856D01*
X159310449Y-99067541D01*
X159310455Y-99067547D01*
X159317096Y-99072518D01*
X159368311Y-99110858D01*
X159410182Y-99166789D01*
X159418000Y-99210123D01*
X159418000Y-99699744D01*
X159398315Y-99766783D01*
X159345511Y-99812538D01*
X159276353Y-99822482D01*
X159236376Y-99809542D01*
X159208669Y-99795000D01*
X159147965Y-99795000D01*
X159147963Y-99795000D01*
X159074406Y-99813130D01*
X159073440Y-99809210D01*
X159031087Y-99817685D01*
X158966040Y-99792176D01*
X158925110Y-99735550D01*
X158918000Y-99694166D01*
X158918000Y-99210123D01*
X158937685Y-99143084D01*
X158967686Y-99110859D01*
X159025546Y-99067546D01*
X159043314Y-99043812D01*
X159068733Y-99009856D01*
X159124667Y-98967984D01*
X159194358Y-98963000D01*
X159255681Y-98996485D01*
G37*
%TD.AperFunction*%
%TA.AperFunction,Conductor*%
G36*
X159484801Y-95399209D02*
G01*
X159529378Y-95451479D01*
X159529588Y-95451382D01*
X159529941Y-95452141D01*
X159530138Y-95452371D01*
X159530579Y-95453507D01*
X159532642Y-95457933D01*
X159623971Y-95605999D01*
X159623974Y-95606003D01*
X159746997Y-95729026D01*
X159783597Y-95751601D01*
X159830321Y-95803547D01*
X159842500Y-95857139D01*
X159842500Y-96485500D01*
X159822815Y-96552539D01*
X159770011Y-96598294D01*
X159718501Y-96609500D01*
X159620130Y-96609500D01*
X159620123Y-96609501D01*
X159560516Y-96615908D01*
X159535615Y-96625196D01*
X159465923Y-96630178D01*
X159448952Y-96625195D01*
X159425379Y-96616403D01*
X159425372Y-96616401D01*
X159365844Y-96610000D01*
X159318000Y-96610000D01*
X159318000Y-96701102D01*
X159298315Y-96768141D01*
X159293266Y-96775414D01*
X159267266Y-96810145D01*
X159211332Y-96852015D01*
X159141640Y-96856999D01*
X159080318Y-96823513D01*
X159068734Y-96810145D01*
X159042734Y-96775414D01*
X159018316Y-96709950D01*
X159018000Y-96701102D01*
X159018000Y-96610000D01*
X158970155Y-96610000D01*
X158910624Y-96616401D01*
X158910623Y-96616402D01*
X158887044Y-96625196D01*
X158817353Y-96630178D01*
X158800381Y-96625195D01*
X158775486Y-96615910D01*
X158775485Y-96615909D01*
X158775483Y-96615909D01*
X158715873Y-96609500D01*
X158715863Y-96609500D01*
X158320129Y-96609500D01*
X158320123Y-96609501D01*
X158260515Y-96615909D01*
X158236330Y-96624929D01*
X158166639Y-96629911D01*
X158149670Y-96624929D01*
X158125487Y-96615910D01*
X158125485Y-96615909D01*
X158125483Y-96615909D01*
X158065873Y-96609500D01*
X158065863Y-96609500D01*
X157670129Y-96609500D01*
X157670123Y-96609501D01*
X157610513Y-96615909D01*
X157586328Y-96624929D01*
X157516636Y-96629911D01*
X157499667Y-96624929D01*
X157475484Y-96615909D01*
X157470063Y-96615326D01*
X157415873Y-96609500D01*
X157415863Y-96609500D01*
X157020129Y-96609500D01*
X157020123Y-96609501D01*
X156960516Y-96615908D01*
X156825671Y-96666202D01*
X156825664Y-96666206D01*
X156710455Y-96752452D01*
X156710452Y-96752455D01*
X156624206Y-96867664D01*
X156624202Y-96867671D01*
X156583722Y-96976206D01*
X156573909Y-97002517D01*
X156568937Y-97048757D01*
X156542201Y-97113306D01*
X156484809Y-97153154D01*
X156445649Y-97159500D01*
X155592499Y-97159500D01*
X155525460Y-97139815D01*
X155479705Y-97087011D01*
X155468499Y-97035500D01*
X155468499Y-96809998D01*
X155468498Y-96809981D01*
X155457999Y-96707203D01*
X155457998Y-96707200D01*
X155424794Y-96606996D01*
X155418500Y-96567992D01*
X155418500Y-95747000D01*
X155438185Y-95679961D01*
X155490989Y-95634206D01*
X155542500Y-95623000D01*
X157093270Y-95623000D01*
X157160309Y-95642685D01*
X157180951Y-95659319D01*
X157249344Y-95727712D01*
X157398666Y-95819814D01*
X157565203Y-95874999D01*
X157667991Y-95885500D01*
X158668008Y-95885499D01*
X158668016Y-95885498D01*
X158668019Y-95885498D01*
X158759901Y-95876112D01*
X158770797Y-95874999D01*
X158937334Y-95819814D01*
X159086656Y-95727712D01*
X159210712Y-95603656D01*
X159302814Y-95454334D01*
X159302816Y-95454327D01*
X159304557Y-95450595D01*
X159306436Y-95448460D01*
X159306605Y-95448187D01*
X159306651Y-95448215D01*
X159350726Y-95398153D01*
X159417918Y-95378997D01*
X159484801Y-95399209D01*
G37*
%TD.AperFunction*%
%TA.AperFunction,Conductor*%
G36*
X181733039Y-83449685D02*
G01*
X181778794Y-83502489D01*
X181790000Y-83554000D01*
X181790000Y-117132637D01*
X181770315Y-117199676D01*
X181717511Y-117245431D01*
X181648353Y-117255375D01*
X181584797Y-117226350D01*
X181552925Y-117183530D01*
X181435545Y-116922721D01*
X181266530Y-116643137D01*
X181266528Y-116643134D01*
X181266526Y-116643131D01*
X181065045Y-116385960D01*
X180834039Y-116154954D01*
X180576868Y-115953473D01*
X180569306Y-115948901D01*
X180297279Y-115784455D01*
X179999361Y-115650373D01*
X179999354Y-115650370D01*
X179999342Y-115650366D01*
X179687452Y-115553178D01*
X179366099Y-115494289D01*
X179040000Y-115474564D01*
X178713900Y-115494289D01*
X178392547Y-115553178D01*
X178080657Y-115650366D01*
X178080641Y-115650372D01*
X178080639Y-115650373D01*
X177782721Y-115784455D01*
X177779153Y-115786612D01*
X177503131Y-115953473D01*
X177245960Y-116154954D01*
X177014954Y-116385960D01*
X176813473Y-116643131D01*
X176709794Y-116814637D01*
X176646777Y-116918881D01*
X176644454Y-116922723D01*
X176644453Y-116922725D01*
X176623052Y-116970276D01*
X176527076Y-117183528D01*
X176510372Y-117220642D01*
X176510366Y-117220657D01*
X176413178Y-117532547D01*
X176354289Y-117853900D01*
X176334564Y-118180000D01*
X176354289Y-118506099D01*
X176413178Y-118827452D01*
X176510366Y-119139342D01*
X176510370Y-119139354D01*
X176510373Y-119139361D01*
X176644455Y-119437279D01*
X176808901Y-119709306D01*
X176813473Y-119716868D01*
X177014954Y-119974039D01*
X177245960Y-120205045D01*
X177503131Y-120406526D01*
X177503134Y-120406528D01*
X177503137Y-120406530D01*
X177641020Y-120489884D01*
X177688207Y-120541411D01*
X177700046Y-120610270D01*
X177672777Y-120674599D01*
X177615058Y-120713973D01*
X177576870Y-120720000D01*
X110603130Y-120720000D01*
X110536091Y-120700315D01*
X110490336Y-120647511D01*
X110480392Y-120578353D01*
X110509417Y-120514797D01*
X110538978Y-120489884D01*
X110676863Y-120406530D01*
X110934036Y-120205048D01*
X111165048Y-119974036D01*
X111366530Y-119716863D01*
X111535545Y-119437279D01*
X111669627Y-119139361D01*
X111766821Y-118827453D01*
X111825710Y-118506104D01*
X111845436Y-118180000D01*
X111825710Y-117853896D01*
X111766821Y-117532547D01*
X111713948Y-117362871D01*
X111672545Y-117230001D01*
X113594891Y-117230001D01*
X113615300Y-117515362D01*
X113676109Y-117794895D01*
X113776091Y-118062958D01*
X113913191Y-118314038D01*
X113913196Y-118314046D01*
X114019882Y-118456561D01*
X114019883Y-118456562D01*
X114804520Y-117671924D01*
X114865843Y-117638439D01*
X114935534Y-117643423D01*
X114991468Y-117685294D01*
X114991664Y-117685557D01*
X115043433Y-117755094D01*
X115149125Y-117843781D01*
X115187827Y-117901952D01*
X115188935Y-117971813D01*
X115157100Y-118026451D01*
X114373436Y-118810114D01*
X114373436Y-118810115D01*
X114515960Y-118916807D01*
X114515961Y-118916808D01*
X114767042Y-119053908D01*
X114767041Y-119053908D01*
X115035104Y-119153890D01*
X115314637Y-119214699D01*
X115599999Y-119235109D01*
X115600001Y-119235109D01*
X115885362Y-119214699D01*
X116164895Y-119153890D01*
X116432958Y-119053908D01*
X116684047Y-118916803D01*
X116826561Y-118810116D01*
X116826562Y-118810115D01*
X116043095Y-118026648D01*
X116009610Y-117965325D01*
X116014594Y-117895633D01*
X116056466Y-117839700D01*
X116062638Y-117835366D01*
X116062700Y-117835325D01*
X116091844Y-117816157D01*
X116213764Y-117686930D01*
X116213764Y-117686929D01*
X116218720Y-117681677D01*
X116220222Y-117683094D01*
X116267836Y-117647243D01*
X116337514Y-117642063D01*
X116398931Y-117675377D01*
X116399176Y-117675622D01*
X117180115Y-118456562D01*
X117180116Y-118456561D01*
X117286803Y-118314047D01*
X117423908Y-118062958D01*
X117523890Y-117794895D01*
X117584699Y-117515362D01*
X117605108Y-117230001D01*
X118674390Y-117230001D01*
X118694804Y-117515433D01*
X118755628Y-117795037D01*
X118755630Y-117795043D01*
X118755631Y-117795046D01*
X118828345Y-117990000D01*
X118855635Y-118063166D01*
X118992770Y-118314309D01*
X118992775Y-118314317D01*
X119164254Y-118543387D01*
X119164270Y-118543405D01*
X119366594Y-118745729D01*
X119366612Y-118745745D01*
X119595682Y-118917224D01*
X119595690Y-118917229D01*
X119846833Y-119054364D01*
X119846832Y-119054364D01*
X119846836Y-119054365D01*
X119846839Y-119054367D01*
X120114954Y-119154369D01*
X120114960Y-119154370D01*
X120114962Y-119154371D01*
X120394566Y-119215195D01*
X120394568Y-119215195D01*
X120394572Y-119215196D01*
X120648220Y-119233337D01*
X120679999Y-119235610D01*
X120680000Y-119235610D01*
X120680001Y-119235610D01*
X120708595Y-119233564D01*
X120965428Y-119215196D01*
X121143445Y-119176471D01*
X121245037Y-119154371D01*
X121245037Y-119154370D01*
X121245046Y-119154369D01*
X121513161Y-119054367D01*
X121764315Y-118917226D01*
X121993395Y-118745739D01*
X122195739Y-118543395D01*
X122367226Y-118314315D01*
X122504367Y-118063161D01*
X122604369Y-117795046D01*
X122630401Y-117675377D01*
X122665195Y-117515433D01*
X122665195Y-117515432D01*
X122665196Y-117515428D01*
X122685610Y-117230000D01*
X122684940Y-117220639D01*
X122679494Y-117144491D01*
X122665196Y-116944572D01*
X122661358Y-116926930D01*
X122604371Y-116664962D01*
X122604370Y-116664960D01*
X122604369Y-116664954D01*
X122504367Y-116396839D01*
X122483260Y-116358185D01*
X122367229Y-116145690D01*
X122367224Y-116145682D01*
X122195745Y-115916612D01*
X122195729Y-115916594D01*
X121993405Y-115714270D01*
X121993387Y-115714254D01*
X121764317Y-115542775D01*
X121764309Y-115542770D01*
X121513166Y-115405635D01*
X121513167Y-115405635D01*
X121330822Y-115337624D01*
X121245046Y-115305631D01*
X121245043Y-115305630D01*
X121245037Y-115305628D01*
X120965433Y-115244804D01*
X120680001Y-115224390D01*
X120679999Y-115224390D01*
X120394566Y-115244804D01*
X120114962Y-115305628D01*
X119846833Y-115405635D01*
X119595690Y-115542770D01*
X119595682Y-115542775D01*
X119366612Y-115714254D01*
X119366594Y-115714270D01*
X119164270Y-115916594D01*
X119164254Y-115916612D01*
X118992775Y-116145682D01*
X118992770Y-116145690D01*
X118855635Y-116396833D01*
X118755628Y-116664962D01*
X118694804Y-116944566D01*
X118674390Y-117229998D01*
X118674390Y-117230001D01*
X117605108Y-117230001D01*
X117605108Y-117229998D01*
X117584699Y-116944637D01*
X117523890Y-116665104D01*
X117423908Y-116397041D01*
X117286808Y-116145961D01*
X117286807Y-116145960D01*
X117180115Y-116003436D01*
X116395478Y-116788074D01*
X116334155Y-116821559D01*
X116264463Y-116816575D01*
X116208530Y-116774703D01*
X116208334Y-116774441D01*
X116156566Y-116704905D01*
X116108964Y-116664962D01*
X116050871Y-116616215D01*
X116012170Y-116558046D01*
X116011062Y-116488185D01*
X116042897Y-116433547D01*
X116826562Y-115649883D01*
X116826561Y-115649882D01*
X116684046Y-115543196D01*
X116684038Y-115543191D01*
X116432957Y-115406091D01*
X116432958Y-115406091D01*
X116164895Y-115306109D01*
X115885362Y-115245300D01*
X115600001Y-115224891D01*
X115599999Y-115224891D01*
X115314637Y-115245300D01*
X115035104Y-115306109D01*
X114767041Y-115406091D01*
X114515961Y-115543191D01*
X114515953Y-115543196D01*
X114373436Y-115649882D01*
X114373436Y-115649883D01*
X115156904Y-116433351D01*
X115190389Y-116494674D01*
X115185405Y-116564366D01*
X115143533Y-116620299D01*
X115137365Y-116624631D01*
X115108155Y-116643843D01*
X114981280Y-116778323D01*
X114979782Y-116776910D01*
X114932125Y-116812770D01*
X114862446Y-116817927D01*
X114801040Y-116784594D01*
X114800823Y-116784377D01*
X114019883Y-116003436D01*
X114019882Y-116003437D01*
X113913196Y-116145953D01*
X113913191Y-116145961D01*
X113776091Y-116397041D01*
X113676109Y-116665104D01*
X113615300Y-116944637D01*
X113594891Y-117229998D01*
X113594891Y-117230001D01*
X111672545Y-117230001D01*
X111669633Y-117220657D01*
X111669631Y-117220652D01*
X111669627Y-117220639D01*
X111535545Y-116922721D01*
X111366530Y-116643137D01*
X111366528Y-116643134D01*
X111366526Y-116643131D01*
X111165045Y-116385960D01*
X110934039Y-116154954D01*
X110676868Y-115953473D01*
X110669306Y-115948901D01*
X110397279Y-115784455D01*
X110099361Y-115650373D01*
X110099354Y-115650370D01*
X110099342Y-115650366D01*
X109787452Y-115553178D01*
X109466099Y-115494289D01*
X109140000Y-115474564D01*
X108813900Y-115494289D01*
X108492547Y-115553178D01*
X108180657Y-115650366D01*
X108180641Y-115650372D01*
X108180639Y-115650373D01*
X107882721Y-115784455D01*
X107879153Y-115786612D01*
X107603131Y-115953473D01*
X107345960Y-116154954D01*
X107114954Y-116385960D01*
X106913473Y-116643132D01*
X106744233Y-116923088D01*
X106692705Y-116970276D01*
X106623845Y-116982114D01*
X106559517Y-116954845D01*
X106520143Y-116897126D01*
X106514120Y-116859776D01*
X106389157Y-98220195D01*
X114109840Y-98220195D01*
X114114225Y-98266583D01*
X114114500Y-98272421D01*
X114114499Y-106347254D01*
X114112776Y-106362872D01*
X114113061Y-106362899D01*
X114112326Y-106370666D01*
X114114499Y-106439814D01*
X114114499Y-106469351D01*
X114115368Y-106476232D01*
X114115826Y-106482051D01*
X114117290Y-106528624D01*
X114117291Y-106528627D01*
X114122880Y-106547867D01*
X114126824Y-106566911D01*
X114129336Y-106586792D01*
X114136270Y-106604306D01*
X114146490Y-106630119D01*
X114148382Y-106635647D01*
X114157048Y-106665476D01*
X114161382Y-106680390D01*
X114168190Y-106691903D01*
X114171580Y-106697634D01*
X114180136Y-106715100D01*
X114187514Y-106733732D01*
X114214898Y-106771423D01*
X114218106Y-106776307D01*
X114241827Y-106816416D01*
X114241833Y-106816424D01*
X114255990Y-106830580D01*
X114268628Y-106845376D01*
X114280405Y-106861586D01*
X114280406Y-106861587D01*
X114316309Y-106891288D01*
X114320620Y-106895210D01*
X115534892Y-108109482D01*
X116743229Y-109317819D01*
X116776714Y-109379142D01*
X116771730Y-109448834D01*
X116729858Y-109504767D01*
X116664394Y-109529184D01*
X116655548Y-109529500D01*
X116535354Y-109529500D01*
X116509544Y-109534986D01*
X116350197Y-109568855D01*
X116350192Y-109568857D01*
X116177270Y-109645848D01*
X116177265Y-109645851D01*
X116024129Y-109757111D01*
X115897466Y-109897785D01*
X115802821Y-110061715D01*
X115802818Y-110061722D01*
X115744704Y-110240580D01*
X115744326Y-110241744D01*
X115724540Y-110430000D01*
X115744326Y-110618256D01*
X115744327Y-110618259D01*
X115802818Y-110798277D01*
X115802821Y-110798284D01*
X115897467Y-110962216D01*
X115928647Y-110996844D01*
X115972650Y-111045715D01*
X116002880Y-111108706D01*
X116004500Y-111128687D01*
X116004500Y-111394755D01*
X116002775Y-111410372D01*
X116003061Y-111410399D01*
X116002326Y-111418165D01*
X116004500Y-111487314D01*
X116004500Y-111516843D01*
X116004501Y-111516860D01*
X116005368Y-111523731D01*
X116005826Y-111529550D01*
X116007290Y-111576124D01*
X116007291Y-111576127D01*
X116012880Y-111595367D01*
X116016824Y-111614411D01*
X116019336Y-111634292D01*
X116026257Y-111651772D01*
X116036490Y-111677619D01*
X116038382Y-111683147D01*
X116051381Y-111727888D01*
X116061580Y-111745134D01*
X116070138Y-111762603D01*
X116077514Y-111781232D01*
X116104898Y-111818923D01*
X116108106Y-111823807D01*
X116131827Y-111863916D01*
X116131833Y-111863924D01*
X116145990Y-111878080D01*
X116158628Y-111892876D01*
X116170405Y-111909086D01*
X116170406Y-111909087D01*
X116206309Y-111938788D01*
X116210631Y-111942721D01*
X116258181Y-111990271D01*
X116291666Y-112051592D01*
X116294500Y-112077951D01*
X116294500Y-112635855D01*
X116304913Y-112737776D01*
X116359637Y-112902922D01*
X116359642Y-112902933D01*
X116450971Y-113050999D01*
X116450974Y-113051003D01*
X116573996Y-113174025D01*
X116574000Y-113174028D01*
X116722066Y-113265357D01*
X116722069Y-113265358D01*
X116722075Y-113265362D01*
X116887225Y-113320087D01*
X116989152Y-113330500D01*
X116989157Y-113330500D01*
X117575843Y-113330500D01*
X117575848Y-113330500D01*
X117677775Y-113320087D01*
X117842925Y-113265362D01*
X117991003Y-113174026D01*
X118114026Y-113051003D01*
X118114453Y-113050309D01*
X118114870Y-113049934D01*
X118118507Y-113045336D01*
X118119291Y-113045956D01*
X118166390Y-113003581D01*
X118235350Y-112992347D01*
X118299437Y-113020180D01*
X118321342Y-113045454D01*
X118321493Y-113045336D01*
X118324130Y-113048671D01*
X118325535Y-113050292D01*
X118325971Y-113051000D01*
X118448996Y-113174025D01*
X118449000Y-113174028D01*
X118597066Y-113265357D01*
X118597069Y-113265358D01*
X118597075Y-113265362D01*
X118762225Y-113320087D01*
X118864152Y-113330500D01*
X118864157Y-113330500D01*
X119450843Y-113330500D01*
X119450848Y-113330500D01*
X119552775Y-113320087D01*
X119717925Y-113265362D01*
X119866003Y-113174026D01*
X119989026Y-113051003D01*
X120080362Y-112902925D01*
X120135087Y-112737775D01*
X120145500Y-112635848D01*
X120145500Y-111739453D01*
X120165185Y-111672414D01*
X120217989Y-111626659D01*
X120287147Y-111616715D01*
X120350703Y-111645740D01*
X120357181Y-111651772D01*
X121569197Y-112863788D01*
X121579022Y-112876051D01*
X121579243Y-112875869D01*
X121584214Y-112881878D01*
X121606636Y-112902933D01*
X121634635Y-112929226D01*
X121641434Y-112936025D01*
X121655524Y-112950116D01*
X121661005Y-112954368D01*
X121665447Y-112958162D01*
X121675711Y-112967800D01*
X121698215Y-112996193D01*
X121707463Y-113012211D01*
X121707465Y-113012214D01*
X121834129Y-113152888D01*
X121987265Y-113264148D01*
X121987270Y-113264151D01*
X122160192Y-113341142D01*
X122160197Y-113341144D01*
X122345354Y-113380500D01*
X122345355Y-113380500D01*
X122534644Y-113380500D01*
X122534646Y-113380500D01*
X122719803Y-113341144D01*
X122892730Y-113264151D01*
X123045871Y-113152888D01*
X123172533Y-113012216D01*
X123267179Y-112848284D01*
X123325674Y-112668256D01*
X123345460Y-112480000D01*
X123325674Y-112291744D01*
X123292203Y-112188734D01*
X123290209Y-112118896D01*
X123326289Y-112059063D01*
X123388990Y-112028234D01*
X123458404Y-112036198D01*
X123497816Y-112062737D01*
X126585756Y-115150676D01*
X126619241Y-115211999D01*
X126614257Y-115281691D01*
X126572385Y-115337624D01*
X126506921Y-115362041D01*
X126454742Y-115354539D01*
X126324897Y-115306110D01*
X126045362Y-115245300D01*
X125760001Y-115224891D01*
X125759999Y-115224891D01*
X125474637Y-115245300D01*
X125195104Y-115306109D01*
X124927041Y-115406091D01*
X124675961Y-115543191D01*
X124675953Y-115543196D01*
X124533436Y-115649882D01*
X124533436Y-115649883D01*
X125316904Y-116433351D01*
X125350389Y-116494674D01*
X125345405Y-116564366D01*
X125303533Y-116620299D01*
X125297365Y-116624631D01*
X125268155Y-116643843D01*
X125141280Y-116778323D01*
X125139782Y-116776910D01*
X125092125Y-116812770D01*
X125022446Y-116817927D01*
X124961040Y-116784594D01*
X124960823Y-116784377D01*
X124179883Y-116003436D01*
X124179882Y-116003437D01*
X124073196Y-116145953D01*
X124073191Y-116145961D01*
X123936091Y-116397041D01*
X123836109Y-116665104D01*
X123775300Y-116944637D01*
X123754891Y-117229998D01*
X123754891Y-117230001D01*
X123775300Y-117515362D01*
X123836109Y-117794895D01*
X123936091Y-118062958D01*
X124073191Y-118314038D01*
X124073196Y-118314046D01*
X124179882Y-118456561D01*
X124179883Y-118456562D01*
X124964520Y-117671924D01*
X125025843Y-117638439D01*
X125095534Y-117643423D01*
X125151468Y-117685294D01*
X125151664Y-117685557D01*
X125203433Y-117755094D01*
X125309125Y-117843781D01*
X125347827Y-117901952D01*
X125348935Y-117971813D01*
X125317100Y-118026451D01*
X124533436Y-118810114D01*
X124533436Y-118810115D01*
X124675960Y-118916807D01*
X124675961Y-118916808D01*
X124927042Y-119053908D01*
X124927041Y-119053908D01*
X125195104Y-119153890D01*
X125474637Y-119214699D01*
X125759999Y-119235109D01*
X125760001Y-119235109D01*
X126045362Y-119214699D01*
X126324895Y-119153890D01*
X126592958Y-119053908D01*
X126844047Y-118916803D01*
X126986561Y-118810116D01*
X126986562Y-118810115D01*
X126203095Y-118026648D01*
X126169610Y-117965325D01*
X126174594Y-117895633D01*
X126216466Y-117839700D01*
X126222638Y-117835366D01*
X126222700Y-117835325D01*
X126251844Y-117816157D01*
X126373764Y-117686930D01*
X126373764Y-117686929D01*
X126378720Y-117681677D01*
X126380222Y-117683094D01*
X126427836Y-117647243D01*
X126497514Y-117642063D01*
X126558931Y-117675377D01*
X126559176Y-117675622D01*
X127340115Y-118456562D01*
X127340116Y-118456561D01*
X127446803Y-118314047D01*
X127583908Y-118062958D01*
X127683890Y-117794895D01*
X127744699Y-117515362D01*
X127765108Y-117230001D01*
X127765108Y-117229998D01*
X127744699Y-116944637D01*
X127683890Y-116665104D01*
X127635460Y-116535258D01*
X127630476Y-116465566D01*
X127663961Y-116404243D01*
X127725284Y-116370758D01*
X127794976Y-116375742D01*
X127839323Y-116404243D01*
X128803181Y-117368101D01*
X128836666Y-117429424D01*
X128839500Y-117455782D01*
X128839500Y-118777870D01*
X128839501Y-118777876D01*
X128845908Y-118837483D01*
X128896202Y-118972328D01*
X128896206Y-118972335D01*
X128982452Y-119087544D01*
X128982455Y-119087547D01*
X129097664Y-119173793D01*
X129097671Y-119173797D01*
X129232517Y-119224091D01*
X129232516Y-119224091D01*
X129239444Y-119224835D01*
X129292127Y-119230500D01*
X132387872Y-119230499D01*
X132447483Y-119224091D01*
X132582331Y-119173796D01*
X132697546Y-119087546D01*
X132783796Y-118972331D01*
X132834091Y-118837483D01*
X132840500Y-118777873D01*
X132840499Y-116492067D01*
X138039500Y-116492067D01*
X138039716Y-116494674D01*
X138054890Y-116677813D01*
X138054892Y-116677824D01*
X138115936Y-116918881D01*
X138215826Y-117146606D01*
X138351833Y-117354782D01*
X138364094Y-117368101D01*
X138520256Y-117537738D01*
X138716491Y-117690474D01*
X138935190Y-117808828D01*
X139170386Y-117889571D01*
X139415665Y-117930500D01*
X139664335Y-117930500D01*
X139909614Y-117889571D01*
X140144810Y-117808828D01*
X140363509Y-117690474D01*
X140376967Y-117679999D01*
X142984417Y-117679999D01*
X143004699Y-117885932D01*
X143023839Y-117949028D01*
X143064768Y-118083954D01*
X143162315Y-118266450D01*
X143162317Y-118266452D01*
X143293589Y-118426410D01*
X143390209Y-118505702D01*
X143453550Y-118557685D01*
X143636046Y-118655232D01*
X143834066Y-118715300D01*
X143834065Y-118715300D01*
X143872647Y-118719100D01*
X143988392Y-118730500D01*
X143988395Y-118730500D01*
X144091605Y-118730500D01*
X144091608Y-118730500D01*
X144245934Y-118715300D01*
X144443954Y-118655232D01*
X144626450Y-118557685D01*
X144786410Y-118426410D01*
X144917685Y-118266450D01*
X145015232Y-118083954D01*
X145075300Y-117885934D01*
X145095583Y-117680000D01*
X145075300Y-117474066D01*
X145015232Y-117276046D01*
X144917685Y-117093550D01*
X144849566Y-117010546D01*
X144786410Y-116933589D01*
X144641378Y-116814566D01*
X144626450Y-116802315D01*
X144443954Y-116704768D01*
X144245934Y-116644700D01*
X144245932Y-116644699D01*
X144245934Y-116644699D01*
X144126805Y-116632966D01*
X144091608Y-116629500D01*
X143988392Y-116629500D01*
X143950298Y-116633251D01*
X143834067Y-116644699D01*
X143636043Y-116704769D01*
X143525897Y-116763643D01*
X143453550Y-116802315D01*
X143453548Y-116802316D01*
X143453547Y-116802317D01*
X143293589Y-116933589D01*
X143162317Y-117093547D01*
X143162315Y-117093550D01*
X143135086Y-117144491D01*
X143064769Y-117276043D01*
X143004699Y-117474067D01*
X142984417Y-117679999D01*
X140376967Y-117679999D01*
X140559744Y-117537738D01*
X140728164Y-117354785D01*
X140864173Y-117146607D01*
X140964063Y-116918881D01*
X141025108Y-116677821D01*
X141026745Y-116658074D01*
X141038648Y-116514421D01*
X141040500Y-116492067D01*
X147039500Y-116492067D01*
X147039716Y-116494674D01*
X147054890Y-116677813D01*
X147054892Y-116677824D01*
X147115936Y-116918881D01*
X147215826Y-117146606D01*
X147351833Y-117354782D01*
X147364094Y-117368101D01*
X147520256Y-117537738D01*
X147716491Y-117690474D01*
X147935190Y-117808828D01*
X148170386Y-117889571D01*
X148415665Y-117930500D01*
X148664335Y-117930500D01*
X148909614Y-117889571D01*
X149144810Y-117808828D01*
X149363509Y-117690474D01*
X149559744Y-117537738D01*
X149728164Y-117354785D01*
X149864173Y-117146607D01*
X149964063Y-116918881D01*
X150025108Y-116677821D01*
X150026745Y-116658074D01*
X150038648Y-116514421D01*
X150040500Y-116492067D01*
X150040500Y-114867933D01*
X150033906Y-114788353D01*
X150025109Y-114682186D01*
X150025107Y-114682175D01*
X149964063Y-114441118D01*
X149864173Y-114213393D01*
X149728166Y-114005217D01*
X149706557Y-113981744D01*
X149559744Y-113822262D01*
X149363509Y-113669526D01*
X149363507Y-113669525D01*
X149363506Y-113669524D01*
X149144811Y-113551172D01*
X149144802Y-113551169D01*
X148909616Y-113470429D01*
X148664335Y-113429500D01*
X148415665Y-113429500D01*
X148170383Y-113470429D01*
X147935197Y-113551169D01*
X147935188Y-113551172D01*
X147716493Y-113669524D01*
X147520257Y-113822261D01*
X147351833Y-114005217D01*
X147215826Y-114213393D01*
X147115936Y-114441118D01*
X147054892Y-114682175D01*
X147054890Y-114682186D01*
X147046094Y-114788353D01*
X147039500Y-114867933D01*
X147039500Y-116492067D01*
X141040500Y-116492067D01*
X141040500Y-114867933D01*
X141033906Y-114788353D01*
X141025109Y-114682186D01*
X141025107Y-114682175D01*
X140964063Y-114441118D01*
X140959186Y-114429999D01*
X141910976Y-114429999D01*
X141910978Y-114430000D01*
X142776653Y-114430000D01*
X142843692Y-114449685D01*
X142889447Y-114502489D01*
X142899391Y-114571647D01*
X142895631Y-114588933D01*
X142890000Y-114608111D01*
X142890000Y-114751888D01*
X142895631Y-114771067D01*
X142895630Y-114840936D01*
X142857855Y-114899714D01*
X142794299Y-114928738D01*
X142776653Y-114930000D01*
X141910977Y-114930000D01*
X141930916Y-115049492D01*
X142011630Y-115284603D01*
X142011635Y-115284614D01*
X142129942Y-115503228D01*
X142129948Y-115503237D01*
X142282626Y-115699397D01*
X142282635Y-115699407D01*
X142465522Y-115867767D01*
X142465521Y-115867767D01*
X142673632Y-116003732D01*
X142901282Y-116103587D01*
X143142261Y-116164612D01*
X143142269Y-116164614D01*
X143327959Y-116180000D01*
X143790000Y-116180000D01*
X143790000Y-115304000D01*
X143809685Y-115236961D01*
X143862489Y-115191206D01*
X143914000Y-115180000D01*
X144166000Y-115180000D01*
X144233039Y-115199685D01*
X144278794Y-115252489D01*
X144290000Y-115304000D01*
X144290000Y-116180000D01*
X144752041Y-116180000D01*
X144937730Y-116164614D01*
X144937738Y-116164612D01*
X145178717Y-116103587D01*
X145406367Y-116003732D01*
X145614478Y-115867767D01*
X145797364Y-115699407D01*
X145797373Y-115699397D01*
X145950051Y-115503237D01*
X145950057Y-115503228D01*
X146068364Y-115284614D01*
X146068369Y-115284603D01*
X146149083Y-115049492D01*
X146169023Y-114930000D01*
X145303347Y-114930000D01*
X145236308Y-114910315D01*
X145190553Y-114857511D01*
X145180609Y-114788353D01*
X145184369Y-114771067D01*
X145190000Y-114751888D01*
X145190000Y-114608111D01*
X145184369Y-114588933D01*
X145184370Y-114519064D01*
X145222145Y-114460286D01*
X145285701Y-114431262D01*
X145303347Y-114430000D01*
X146169022Y-114430000D01*
X146169023Y-114429999D01*
X146149083Y-114310507D01*
X146068369Y-114075396D01*
X146068364Y-114075385D01*
X145950057Y-113856771D01*
X145950051Y-113856762D01*
X145797373Y-113660602D01*
X145797364Y-113660592D01*
X145614477Y-113492232D01*
X145614478Y-113492232D01*
X145406367Y-113356267D01*
X145178717Y-113256412D01*
X144937738Y-113195387D01*
X144937730Y-113195385D01*
X144752041Y-113180000D01*
X144290000Y-113180000D01*
X144290000Y-114056000D01*
X144270315Y-114123039D01*
X144217511Y-114168794D01*
X144166000Y-114180000D01*
X143914000Y-114180000D01*
X143846961Y-114160315D01*
X143801206Y-114107511D01*
X143790000Y-114056000D01*
X143790000Y-113180000D01*
X143327959Y-113180000D01*
X143142269Y-113195385D01*
X143142261Y-113195387D01*
X142901282Y-113256412D01*
X142673632Y-113356267D01*
X142465521Y-113492232D01*
X142282635Y-113660592D01*
X142282626Y-113660602D01*
X142129948Y-113856762D01*
X142129942Y-113856771D01*
X142011635Y-114075385D01*
X142011630Y-114075396D01*
X141930916Y-114310507D01*
X141910976Y-114429999D01*
X140959186Y-114429999D01*
X140864173Y-114213393D01*
X140728166Y-114005217D01*
X140706557Y-113981744D01*
X140559744Y-113822262D01*
X140363509Y-113669526D01*
X140363507Y-113669525D01*
X140363506Y-113669524D01*
X140144811Y-113551172D01*
X140144802Y-113551169D01*
X139909616Y-113470429D01*
X139664335Y-113429500D01*
X139415665Y-113429500D01*
X139170383Y-113470429D01*
X138935197Y-113551169D01*
X138935188Y-113551172D01*
X138716493Y-113669524D01*
X138520257Y-113822261D01*
X138351833Y-114005217D01*
X138215826Y-114213393D01*
X138115936Y-114441118D01*
X138054892Y-114682175D01*
X138054890Y-114682186D01*
X138046094Y-114788353D01*
X138039500Y-114867933D01*
X138039500Y-116492067D01*
X132840499Y-116492067D01*
X132840499Y-115682128D01*
X132834091Y-115622517D01*
X132819822Y-115584261D01*
X132783797Y-115487671D01*
X132783793Y-115487664D01*
X132697547Y-115372455D01*
X132697544Y-115372452D01*
X132582335Y-115286206D01*
X132582328Y-115286202D01*
X132447482Y-115235908D01*
X132447483Y-115235908D01*
X132387883Y-115229501D01*
X132387881Y-115229500D01*
X132387873Y-115229500D01*
X132387865Y-115229500D01*
X129545783Y-115229500D01*
X129478744Y-115209815D01*
X129458102Y-115193181D01*
X127827627Y-113562706D01*
X127794142Y-113501383D01*
X127799126Y-113431691D01*
X127840998Y-113375758D01*
X127876302Y-113357320D01*
X128002925Y-113315362D01*
X128151003Y-113224026D01*
X128274026Y-113101003D01*
X128274453Y-113100309D01*
X128274870Y-113099934D01*
X128278507Y-113095336D01*
X128279291Y-113095956D01*
X128326390Y-113053581D01*
X128395350Y-113042347D01*
X128459437Y-113070180D01*
X128481342Y-113095454D01*
X128481493Y-113095336D01*
X128484130Y-113098671D01*
X128485535Y-113100292D01*
X128485971Y-113101000D01*
X128608996Y-113224025D01*
X128609000Y-113224028D01*
X128757066Y-113315357D01*
X128757069Y-113315358D01*
X128757075Y-113315362D01*
X128922225Y-113370087D01*
X129024152Y-113380500D01*
X129024157Y-113380500D01*
X129610843Y-113380500D01*
X129610848Y-113380500D01*
X129712775Y-113370087D01*
X129877925Y-113315362D01*
X130026003Y-113224026D01*
X130149026Y-113101003D01*
X130240362Y-112952925D01*
X130261049Y-112890495D01*
X130300822Y-112833051D01*
X130365338Y-112806228D01*
X130378755Y-112805500D01*
X131867257Y-112805500D01*
X131882877Y-112807224D01*
X131882904Y-112806939D01*
X131890660Y-112807671D01*
X131890667Y-112807673D01*
X131959814Y-112805500D01*
X131989350Y-112805500D01*
X131996228Y-112804630D01*
X132002041Y-112804172D01*
X132048627Y-112802709D01*
X132067869Y-112797117D01*
X132086912Y-112793174D01*
X132106792Y-112790664D01*
X132150122Y-112773507D01*
X132155646Y-112771617D01*
X132159396Y-112770527D01*
X132200390Y-112758618D01*
X132217629Y-112748422D01*
X132235103Y-112739862D01*
X132253727Y-112732488D01*
X132253727Y-112732487D01*
X132253732Y-112732486D01*
X132291449Y-112705082D01*
X132296305Y-112701892D01*
X132336420Y-112678170D01*
X132350589Y-112663999D01*
X132365379Y-112651368D01*
X132381587Y-112639594D01*
X132411299Y-112603676D01*
X132415212Y-112599376D01*
X135286719Y-109727870D01*
X141539500Y-109727870D01*
X141539501Y-109727876D01*
X141545908Y-109787483D01*
X141596202Y-109922328D01*
X141596206Y-109922335D01*
X141682452Y-110037544D01*
X141682455Y-110037547D01*
X141797664Y-110123793D01*
X141797671Y-110123797D01*
X141932517Y-110174091D01*
X141932516Y-110174091D01*
X141939444Y-110174835D01*
X141992127Y-110180500D01*
X146087872Y-110180499D01*
X146147483Y-110174091D01*
X146282331Y-110123796D01*
X146397546Y-110037546D01*
X146483796Y-109922331D01*
X146534091Y-109787483D01*
X146540500Y-109727873D01*
X146540499Y-107632128D01*
X146534091Y-107572517D01*
X146518613Y-107531019D01*
X146483797Y-107437671D01*
X146483793Y-107437664D01*
X146397547Y-107322455D01*
X146397544Y-107322452D01*
X146282335Y-107236206D01*
X146282328Y-107236202D01*
X146147482Y-107185908D01*
X146147483Y-107185908D01*
X146087883Y-107179501D01*
X146087881Y-107179500D01*
X146087873Y-107179500D01*
X146087864Y-107179500D01*
X141992129Y-107179500D01*
X141992123Y-107179501D01*
X141932516Y-107185908D01*
X141797671Y-107236202D01*
X141797664Y-107236206D01*
X141682455Y-107322452D01*
X141682452Y-107322455D01*
X141596206Y-107437664D01*
X141596202Y-107437671D01*
X141545908Y-107572517D01*
X141539501Y-107632116D01*
X141539501Y-107632123D01*
X141539500Y-107632135D01*
X141539500Y-109727870D01*
X135286719Y-109727870D01*
X136703788Y-108310801D01*
X136716042Y-108300986D01*
X136715859Y-108300764D01*
X136721866Y-108295792D01*
X136721877Y-108295786D01*
X136762326Y-108252712D01*
X136769227Y-108245364D01*
X136779671Y-108234918D01*
X136790120Y-108224471D01*
X136794379Y-108218978D01*
X136798152Y-108214561D01*
X136830062Y-108180582D01*
X136839713Y-108163024D01*
X136850396Y-108146761D01*
X136862673Y-108130936D01*
X136881185Y-108088153D01*
X136883738Y-108082941D01*
X136906197Y-108042092D01*
X136911180Y-108022680D01*
X136917481Y-108004280D01*
X136925437Y-107985896D01*
X136932729Y-107939852D01*
X136933906Y-107934171D01*
X136945500Y-107889019D01*
X136945500Y-107868982D01*
X136947027Y-107849582D01*
X136947138Y-107848884D01*
X136950160Y-107829804D01*
X136945775Y-107783415D01*
X136945500Y-107777577D01*
X136945500Y-97590195D01*
X148069840Y-97590195D01*
X148074225Y-97636583D01*
X148074500Y-97642421D01*
X148074500Y-109487255D01*
X148072775Y-109502872D01*
X148073061Y-109502899D01*
X148072326Y-109510665D01*
X148074156Y-109568857D01*
X148074500Y-109579814D01*
X148074500Y-109609350D01*
X148074500Y-109609356D01*
X148074501Y-109609360D01*
X148075368Y-109616231D01*
X148075826Y-109622050D01*
X148077290Y-109668624D01*
X148077291Y-109668627D01*
X148082880Y-109687867D01*
X148086824Y-109706911D01*
X148089336Y-109726792D01*
X148089768Y-109727883D01*
X148106490Y-109770119D01*
X148108382Y-109775647D01*
X148121381Y-109820388D01*
X148131580Y-109837634D01*
X148140136Y-109855100D01*
X148147514Y-109873732D01*
X148174898Y-109911423D01*
X148178106Y-109916307D01*
X148201827Y-109956416D01*
X148201833Y-109956424D01*
X148215990Y-109970580D01*
X148228628Y-109985376D01*
X148240405Y-110001586D01*
X148240406Y-110001587D01*
X148276309Y-110031288D01*
X148280620Y-110035210D01*
X149563057Y-111317648D01*
X149981038Y-111735629D01*
X150014523Y-111796952D01*
X150016678Y-111810348D01*
X150023797Y-111878080D01*
X150034326Y-111978256D01*
X150034327Y-111978259D01*
X150092818Y-112158277D01*
X150092821Y-112158284D01*
X150187467Y-112322216D01*
X150311912Y-112460426D01*
X150314129Y-112462888D01*
X150467265Y-112574148D01*
X150467270Y-112574151D01*
X150640192Y-112651142D01*
X150640197Y-112651144D01*
X150825354Y-112690500D01*
X150825355Y-112690500D01*
X151014644Y-112690500D01*
X151014646Y-112690500D01*
X151199803Y-112651144D01*
X151372730Y-112574151D01*
X151525871Y-112462888D01*
X151551350Y-112434589D01*
X151610836Y-112397942D01*
X151680693Y-112399271D01*
X151738741Y-112438157D01*
X151766551Y-112502254D01*
X151767500Y-112517562D01*
X151767500Y-112845283D01*
X151765243Y-112934362D01*
X151765243Y-112934370D01*
X151776064Y-112994739D01*
X151776718Y-112999404D01*
X151782925Y-113060430D01*
X151782927Y-113060444D01*
X151793208Y-113093213D01*
X151795079Y-113100837D01*
X151801142Y-113134652D01*
X151801142Y-113134655D01*
X151823894Y-113191612D01*
X151825474Y-113196051D01*
X151843841Y-113254588D01*
X151843844Y-113254595D01*
X151860509Y-113284619D01*
X151863879Y-113291714D01*
X151876622Y-113323614D01*
X151876627Y-113323624D01*
X151910377Y-113374833D01*
X151912818Y-113378863D01*
X151942588Y-113432498D01*
X151942589Y-113432499D01*
X151942591Y-113432502D01*
X151964968Y-113458567D01*
X151969693Y-113464835D01*
X151977602Y-113476835D01*
X151988598Y-113493519D01*
X152031978Y-113536899D01*
X152035169Y-113540343D01*
X152075131Y-113586892D01*
X152075130Y-113586892D01*
X152102299Y-113607923D01*
X152108186Y-113613107D01*
X153433548Y-114938468D01*
X153494941Y-115003053D01*
X153494944Y-115003055D01*
X153494947Y-115003058D01*
X153529053Y-115026795D01*
X153545303Y-115038106D01*
X153549044Y-115040926D01*
X153596593Y-115079698D01*
X153627045Y-115095604D01*
X153633756Y-115099671D01*
X153661951Y-115119295D01*
X153718332Y-115143490D01*
X153722567Y-115145501D01*
X153776951Y-115173909D01*
X153809973Y-115183356D01*
X153817365Y-115185989D01*
X153848940Y-115199539D01*
X153848941Y-115199540D01*
X153862054Y-115202234D01*
X153909055Y-115211892D01*
X153913595Y-115213006D01*
X153972582Y-115229886D01*
X154006841Y-115232494D01*
X154014609Y-115233585D01*
X154048255Y-115240500D01*
X154048259Y-115240500D01*
X154109601Y-115240500D01*
X154114308Y-115240678D01*
X154149174Y-115243334D01*
X154175475Y-115245337D01*
X154175475Y-115245336D01*
X154175476Y-115245337D01*
X154209559Y-115240996D01*
X154217389Y-115240500D01*
X155914089Y-115240500D01*
X155981128Y-115260185D01*
X156026883Y-115312989D01*
X156036827Y-115382147D01*
X156007802Y-115445703D01*
X155988399Y-115463767D01*
X155913436Y-115519882D01*
X155913436Y-115519883D01*
X156696904Y-116303351D01*
X156730389Y-116364674D01*
X156725405Y-116434366D01*
X156683533Y-116490299D01*
X156677365Y-116494631D01*
X156648155Y-116513843D01*
X156521280Y-116648323D01*
X156519782Y-116646910D01*
X156472125Y-116682770D01*
X156402446Y-116687927D01*
X156341040Y-116654594D01*
X156340823Y-116654377D01*
X155559883Y-115873436D01*
X155559882Y-115873437D01*
X155453196Y-116015953D01*
X155453191Y-116015961D01*
X155316091Y-116267041D01*
X155216109Y-116535104D01*
X155155300Y-116814637D01*
X155134891Y-117099998D01*
X155134891Y-117100001D01*
X155155300Y-117385362D01*
X155216109Y-117664895D01*
X155316091Y-117932958D01*
X155453191Y-118184038D01*
X155453196Y-118184046D01*
X155559882Y-118326561D01*
X155559883Y-118326562D01*
X156344520Y-117541924D01*
X156405843Y-117508439D01*
X156475534Y-117513423D01*
X156531468Y-117555294D01*
X156531664Y-117555557D01*
X156583433Y-117625094D01*
X156689125Y-117713781D01*
X156727827Y-117771952D01*
X156728935Y-117841813D01*
X156697100Y-117896451D01*
X155913436Y-118680114D01*
X155913436Y-118680115D01*
X156055960Y-118786807D01*
X156055961Y-118786808D01*
X156307042Y-118923908D01*
X156307041Y-118923908D01*
X156575104Y-119023890D01*
X156854637Y-119084699D01*
X157139999Y-119105109D01*
X157140001Y-119105109D01*
X157425362Y-119084699D01*
X157704895Y-119023890D01*
X157972958Y-118923908D01*
X158224047Y-118786803D01*
X158366561Y-118680116D01*
X158366562Y-118680115D01*
X157583095Y-117896648D01*
X157549610Y-117835325D01*
X157554594Y-117765633D01*
X157596466Y-117709700D01*
X157602638Y-117705366D01*
X157631844Y-117686157D01*
X157753764Y-117556930D01*
X157753764Y-117556929D01*
X157758720Y-117551677D01*
X157760222Y-117553094D01*
X157807836Y-117517243D01*
X157877514Y-117512063D01*
X157938931Y-117545377D01*
X157939176Y-117545622D01*
X158720115Y-118326562D01*
X158720116Y-118326561D01*
X158826803Y-118184047D01*
X158963908Y-117932958D01*
X159063890Y-117664895D01*
X159124699Y-117385362D01*
X159145109Y-117100001D01*
X159145109Y-117099998D01*
X159124699Y-116814637D01*
X159063890Y-116535104D01*
X158963908Y-116267041D01*
X158826808Y-116015961D01*
X158826807Y-116015960D01*
X158720115Y-115873436D01*
X157935478Y-116658074D01*
X157874155Y-116691559D01*
X157804463Y-116686575D01*
X157748530Y-116644703D01*
X157748334Y-116644441D01*
X157747363Y-116643137D01*
X157696567Y-116574906D01*
X157590871Y-116486215D01*
X157552170Y-116428046D01*
X157551062Y-116358185D01*
X157582897Y-116303547D01*
X158366562Y-115519883D01*
X158291600Y-115463767D01*
X158249729Y-115407833D01*
X158244745Y-115338142D01*
X158278230Y-115276819D01*
X158339553Y-115243334D01*
X158365911Y-115240500D01*
X158894217Y-115240500D01*
X158961256Y-115260185D01*
X158981898Y-115276819D01*
X160237819Y-116532739D01*
X160271304Y-116594062D01*
X160271304Y-116646778D01*
X160234805Y-116814564D01*
X160234804Y-116814571D01*
X160214390Y-117099998D01*
X160214390Y-117100001D01*
X160234804Y-117385433D01*
X160295628Y-117665037D01*
X160295630Y-117665043D01*
X160295631Y-117665046D01*
X160395557Y-117932958D01*
X160395635Y-117933166D01*
X160532770Y-118184309D01*
X160532775Y-118184317D01*
X160704254Y-118413387D01*
X160704270Y-118413405D01*
X160906594Y-118615729D01*
X160906612Y-118615745D01*
X161135682Y-118787224D01*
X161135690Y-118787229D01*
X161386833Y-118924364D01*
X161386832Y-118924364D01*
X161386836Y-118924365D01*
X161386839Y-118924367D01*
X161654954Y-119024369D01*
X161654960Y-119024370D01*
X161654962Y-119024371D01*
X161934566Y-119085195D01*
X161934568Y-119085195D01*
X161934572Y-119085196D01*
X162188220Y-119103337D01*
X162219999Y-119105610D01*
X162220000Y-119105610D01*
X162220001Y-119105610D01*
X162248595Y-119103564D01*
X162505428Y-119085196D01*
X162695742Y-119043796D01*
X162785037Y-119024371D01*
X162785037Y-119024370D01*
X162785046Y-119024369D01*
X163053161Y-118924367D01*
X163304315Y-118787226D01*
X163533395Y-118615739D01*
X163735739Y-118413395D01*
X163907226Y-118184315D01*
X164044367Y-117933161D01*
X164144369Y-117665046D01*
X164170401Y-117545377D01*
X164205195Y-117385433D01*
X164205195Y-117385432D01*
X164205196Y-117385428D01*
X164225610Y-117100001D01*
X165294891Y-117100001D01*
X165315300Y-117385362D01*
X165376109Y-117664895D01*
X165476091Y-117932958D01*
X165613191Y-118184038D01*
X165613196Y-118184046D01*
X165719882Y-118326561D01*
X165719883Y-118326562D01*
X166504520Y-117541924D01*
X166565843Y-117508439D01*
X166635534Y-117513423D01*
X166691468Y-117555294D01*
X166691664Y-117555557D01*
X166743433Y-117625094D01*
X166849125Y-117713781D01*
X166887827Y-117771952D01*
X166888935Y-117841813D01*
X166857100Y-117896451D01*
X166073436Y-118680114D01*
X166073436Y-118680115D01*
X166215960Y-118786807D01*
X166215961Y-118786808D01*
X166467042Y-118923908D01*
X166467041Y-118923908D01*
X166735104Y-119023890D01*
X167014637Y-119084699D01*
X167299999Y-119105109D01*
X167300001Y-119105109D01*
X167585362Y-119084699D01*
X167864895Y-119023890D01*
X168132958Y-118923908D01*
X168384047Y-118786803D01*
X168526561Y-118680116D01*
X168526562Y-118680115D01*
X167743095Y-117896648D01*
X167709610Y-117835325D01*
X167714594Y-117765633D01*
X167756466Y-117709700D01*
X167762638Y-117705366D01*
X167791844Y-117686157D01*
X167913764Y-117556930D01*
X167913764Y-117556929D01*
X167918720Y-117551677D01*
X167920222Y-117553094D01*
X167967836Y-117517243D01*
X168037514Y-117512063D01*
X168098931Y-117545377D01*
X168099176Y-117545622D01*
X168880115Y-118326562D01*
X168880116Y-118326561D01*
X168986803Y-118184047D01*
X169123908Y-117932958D01*
X169223890Y-117664895D01*
X169284699Y-117385362D01*
X169305109Y-117100001D01*
X169305109Y-117099998D01*
X169284699Y-116814637D01*
X169223890Y-116535104D01*
X169123908Y-116267041D01*
X168986808Y-116015961D01*
X168986807Y-116015960D01*
X168880115Y-115873436D01*
X168095478Y-116658074D01*
X168034155Y-116691559D01*
X167964463Y-116686575D01*
X167908530Y-116644703D01*
X167908334Y-116644441D01*
X167907363Y-116643137D01*
X167856567Y-116574906D01*
X167750871Y-116486215D01*
X167712170Y-116428046D01*
X167711062Y-116358185D01*
X167742897Y-116303547D01*
X168526562Y-115519883D01*
X168526561Y-115519882D01*
X168384046Y-115413196D01*
X168384038Y-115413191D01*
X168132957Y-115276091D01*
X168132958Y-115276091D01*
X167864895Y-115176109D01*
X167585362Y-115115300D01*
X167300001Y-115094891D01*
X167299999Y-115094891D01*
X167014637Y-115115300D01*
X166735104Y-115176109D01*
X166467041Y-115276091D01*
X166215961Y-115413191D01*
X166215953Y-115413196D01*
X166073436Y-115519882D01*
X166073436Y-115519883D01*
X166856904Y-116303351D01*
X166890389Y-116364674D01*
X166885405Y-116434366D01*
X166843533Y-116490299D01*
X166837365Y-116494631D01*
X166808155Y-116513843D01*
X166681280Y-116648323D01*
X166679782Y-116646910D01*
X166632125Y-116682770D01*
X166562446Y-116687927D01*
X166501040Y-116654594D01*
X166500823Y-116654377D01*
X165719883Y-115873436D01*
X165719882Y-115873437D01*
X165613196Y-116015953D01*
X165613191Y-116015961D01*
X165476091Y-116267041D01*
X165376109Y-116535104D01*
X165315300Y-116814637D01*
X165294891Y-117099998D01*
X165294891Y-117100001D01*
X164225610Y-117100001D01*
X164225610Y-117100000D01*
X164225148Y-117093547D01*
X164214498Y-116944637D01*
X164205196Y-116814572D01*
X164205194Y-116814564D01*
X164144371Y-116534962D01*
X164144370Y-116534960D01*
X164144369Y-116534954D01*
X164044367Y-116266839D01*
X163978362Y-116145961D01*
X163907229Y-116015690D01*
X163907224Y-116015682D01*
X163735745Y-115786612D01*
X163735729Y-115786594D01*
X163533405Y-115584270D01*
X163533387Y-115584254D01*
X163304317Y-115412775D01*
X163304309Y-115412770D01*
X163053166Y-115275635D01*
X163053167Y-115275635D01*
X162938303Y-115232793D01*
X162785046Y-115175631D01*
X162785043Y-115175630D01*
X162785037Y-115175628D01*
X162505433Y-115114804D01*
X162220001Y-115094390D01*
X162219999Y-115094390D01*
X161934571Y-115114804D01*
X161934564Y-115114805D01*
X161766778Y-115151304D01*
X161697086Y-115146320D01*
X161652739Y-115117819D01*
X160076452Y-113541532D01*
X160015061Y-113476949D01*
X160015060Y-113476948D01*
X160015059Y-113476947D01*
X159964704Y-113441899D01*
X159960946Y-113439064D01*
X159948474Y-113428895D01*
X159908958Y-113371274D01*
X159908442Y-113354065D01*
X159898400Y-113359217D01*
X159828860Y-113352435D01*
X159826279Y-113351362D01*
X159791681Y-113336515D01*
X159787424Y-113334493D01*
X159733057Y-113306094D01*
X159733050Y-113306091D01*
X159733049Y-113306091D01*
X159724742Y-113303714D01*
X159700030Y-113296642D01*
X159692630Y-113294008D01*
X159661059Y-113280460D01*
X159638966Y-113275919D01*
X159577263Y-113243140D01*
X159543076Y-113182205D01*
X159547260Y-113112461D01*
X159576250Y-113066778D01*
X159622026Y-113021003D01*
X159622458Y-113020301D01*
X159622881Y-113019921D01*
X159626507Y-113015336D01*
X159627290Y-113015955D01*
X159674402Y-112973575D01*
X159743364Y-112962349D01*
X159807448Y-112990188D01*
X159829342Y-113015455D01*
X159829493Y-113015336D01*
X159832143Y-113018687D01*
X159833540Y-113020299D01*
X159833972Y-113020999D01*
X159833975Y-113021004D01*
X159962104Y-113149133D01*
X159959957Y-113151279D01*
X159992441Y-113197091D01*
X159993333Y-113216653D01*
X160005523Y-113210639D01*
X160074949Y-113218508D01*
X160091924Y-113227250D01*
X160105075Y-113235362D01*
X160270225Y-113290087D01*
X160372152Y-113300500D01*
X160372157Y-113300500D01*
X160958843Y-113300500D01*
X160958848Y-113300500D01*
X161060775Y-113290087D01*
X161225925Y-113235362D01*
X161374003Y-113144026D01*
X161497026Y-113021003D01*
X161588362Y-112872925D01*
X161643087Y-112707775D01*
X161643087Y-112707769D01*
X161644503Y-112701159D01*
X161646914Y-112701675D01*
X161669023Y-112647461D01*
X161702880Y-112618005D01*
X161712672Y-112612214D01*
X161736420Y-112598170D01*
X161750589Y-112583999D01*
X161765379Y-112571368D01*
X161781587Y-112559594D01*
X161811299Y-112523676D01*
X161815212Y-112519376D01*
X165068788Y-109265801D01*
X165081042Y-109255986D01*
X165080859Y-109255764D01*
X165086866Y-109250792D01*
X165086877Y-109250786D01*
X165125805Y-109209332D01*
X165134227Y-109200364D01*
X165144671Y-109189918D01*
X165155120Y-109179471D01*
X165159379Y-109173978D01*
X165163152Y-109169561D01*
X165195062Y-109135582D01*
X165195062Y-109135580D01*
X165199185Y-109131191D01*
X165205570Y-109123714D01*
X165302923Y-109026361D01*
X167147242Y-109026361D01*
X167147555Y-109028105D01*
X167149500Y-109049979D01*
X167149500Y-112857283D01*
X167147243Y-112946362D01*
X167147243Y-112946370D01*
X167158064Y-113006739D01*
X167158718Y-113011404D01*
X167164925Y-113072430D01*
X167164927Y-113072444D01*
X167175208Y-113105213D01*
X167177079Y-113112837D01*
X167180991Y-113134653D01*
X167182671Y-113144028D01*
X167183142Y-113146652D01*
X167183142Y-113146655D01*
X167196462Y-113180000D01*
X167205721Y-113203181D01*
X167205894Y-113203612D01*
X167207474Y-113208051D01*
X167225841Y-113266588D01*
X167225844Y-113266595D01*
X167242509Y-113296619D01*
X167245879Y-113303714D01*
X167253828Y-113323614D01*
X167258609Y-113335583D01*
X167258622Y-113335614D01*
X167258627Y-113335624D01*
X167274176Y-113359217D01*
X167289570Y-113382575D01*
X167292377Y-113386833D01*
X167294818Y-113390863D01*
X167324588Y-113444498D01*
X167324589Y-113444499D01*
X167324591Y-113444502D01*
X167346968Y-113470567D01*
X167351693Y-113476835D01*
X167361841Y-113492232D01*
X167370598Y-113505519D01*
X167413978Y-113548899D01*
X167417169Y-113552343D01*
X167446832Y-113586895D01*
X167457134Y-113598895D01*
X167471906Y-113610329D01*
X167484294Y-113619918D01*
X167490190Y-113625111D01*
X170343181Y-116478102D01*
X170376666Y-116539425D01*
X170379500Y-116565783D01*
X170379500Y-118647870D01*
X170379501Y-118647876D01*
X170385908Y-118707483D01*
X170436202Y-118842328D01*
X170436206Y-118842335D01*
X170522452Y-118957544D01*
X170522455Y-118957547D01*
X170637664Y-119043793D01*
X170637671Y-119043797D01*
X170772517Y-119094091D01*
X170772516Y-119094091D01*
X170779444Y-119094835D01*
X170832127Y-119100500D01*
X173927872Y-119100499D01*
X173987483Y-119094091D01*
X174122331Y-119043796D01*
X174237546Y-118957546D01*
X174323796Y-118842331D01*
X174374091Y-118707483D01*
X174380500Y-118647873D01*
X174380499Y-115552128D01*
X174374282Y-115494290D01*
X174374091Y-115492516D01*
X174323797Y-115357671D01*
X174323793Y-115357664D01*
X174237547Y-115242455D01*
X174237544Y-115242452D01*
X174122335Y-115156206D01*
X174122328Y-115156202D01*
X173987482Y-115105908D01*
X173987483Y-115105908D01*
X173927883Y-115099501D01*
X173927881Y-115099500D01*
X173927873Y-115099500D01*
X173927865Y-115099500D01*
X171845783Y-115099500D01*
X171778744Y-115079815D01*
X171758102Y-115063181D01*
X170874921Y-114180000D01*
X169987363Y-113292443D01*
X169953879Y-113231121D01*
X169958863Y-113161429D01*
X170000735Y-113105496D01*
X170049837Y-113086678D01*
X170049158Y-113083504D01*
X170055771Y-113082088D01*
X170055773Y-113082087D01*
X170055775Y-113082087D01*
X170220925Y-113027362D01*
X170369003Y-112936026D01*
X170492026Y-112813003D01*
X170492458Y-112812301D01*
X170492881Y-112811921D01*
X170496507Y-112807336D01*
X170497290Y-112807955D01*
X170544402Y-112765575D01*
X170613364Y-112754349D01*
X170677448Y-112782188D01*
X170699342Y-112807455D01*
X170699493Y-112807336D01*
X170702143Y-112810687D01*
X170703540Y-112812299D01*
X170703972Y-112812999D01*
X170703975Y-112813004D01*
X170826996Y-112936025D01*
X170827000Y-112936028D01*
X170975066Y-113027357D01*
X170975069Y-113027358D01*
X170975075Y-113027362D01*
X171140225Y-113082087D01*
X171242152Y-113092500D01*
X171242157Y-113092500D01*
X171828843Y-113092500D01*
X171828848Y-113092500D01*
X171930775Y-113082087D01*
X172095925Y-113027362D01*
X172244003Y-112936026D01*
X172367026Y-112813003D01*
X172458362Y-112664925D01*
X172479049Y-112602495D01*
X172518822Y-112545051D01*
X172583338Y-112518228D01*
X172596755Y-112517500D01*
X174575257Y-112517500D01*
X174590877Y-112519224D01*
X174590904Y-112518939D01*
X174598660Y-112519671D01*
X174598667Y-112519673D01*
X174667814Y-112517500D01*
X174697350Y-112517500D01*
X174704228Y-112516630D01*
X174710041Y-112516172D01*
X174756627Y-112514709D01*
X174775869Y-112509117D01*
X174794912Y-112505174D01*
X174814792Y-112502664D01*
X174858122Y-112485507D01*
X174863646Y-112483617D01*
X174867396Y-112482527D01*
X174908390Y-112470618D01*
X174925629Y-112460422D01*
X174943103Y-112451862D01*
X174961727Y-112444488D01*
X174961727Y-112444487D01*
X174961732Y-112444486D01*
X174999449Y-112417082D01*
X175004305Y-112413892D01*
X175044420Y-112390170D01*
X175058589Y-112375999D01*
X175073379Y-112363368D01*
X175089587Y-112351594D01*
X175119299Y-112315676D01*
X175123212Y-112311376D01*
X178667771Y-108766819D01*
X178729095Y-108733334D01*
X178755453Y-108730500D01*
X178814644Y-108730500D01*
X178814646Y-108730500D01*
X178999803Y-108691144D01*
X179172730Y-108614151D01*
X179325871Y-108502888D01*
X179452533Y-108362216D01*
X179547179Y-108198284D01*
X179605674Y-108018256D01*
X179625460Y-107830000D01*
X179605674Y-107641744D01*
X179547179Y-107461716D01*
X179452533Y-107297784D01*
X179325871Y-107157112D01*
X179295749Y-107135227D01*
X179172734Y-107045851D01*
X179172729Y-107045848D01*
X178999807Y-106968857D01*
X178999802Y-106968855D01*
X178854001Y-106937865D01*
X178814646Y-106929500D01*
X178625354Y-106929500D01*
X178592897Y-106936398D01*
X178440197Y-106968855D01*
X178440192Y-106968857D01*
X178267270Y-107045848D01*
X178267265Y-107045851D01*
X178114129Y-107157111D01*
X177987466Y-107297785D01*
X177892821Y-107461715D01*
X177892818Y-107461722D01*
X177837450Y-107632128D01*
X177834326Y-107641744D01*
X177818988Y-107787679D01*
X177816679Y-107809649D01*
X177790094Y-107874263D01*
X177781039Y-107884368D01*
X174435228Y-111230181D01*
X174373905Y-111263666D01*
X174347547Y-111266500D01*
X172596755Y-111266500D01*
X172529716Y-111246815D01*
X172483961Y-111194011D01*
X172479049Y-111181504D01*
X172470647Y-111156150D01*
X172458362Y-111119075D01*
X172457151Y-111117112D01*
X172367028Y-110971000D01*
X172367025Y-110970996D01*
X172244003Y-110847974D01*
X172243999Y-110847971D01*
X172095933Y-110756642D01*
X172095927Y-110756639D01*
X172095925Y-110756638D01*
X172026813Y-110733736D01*
X171974688Y-110716464D01*
X171917244Y-110676691D01*
X171890421Y-110612175D01*
X171902736Y-110543399D01*
X171926009Y-110511080D01*
X177533788Y-104903301D01*
X177546042Y-104893486D01*
X177545859Y-104893264D01*
X177551866Y-104888292D01*
X177551877Y-104888286D01*
X177585164Y-104852839D01*
X177599227Y-104837864D01*
X177609671Y-104827418D01*
X177620120Y-104816971D01*
X177624379Y-104811478D01*
X177628152Y-104807061D01*
X177660062Y-104773082D01*
X177669713Y-104755524D01*
X177680396Y-104739261D01*
X177692673Y-104723436D01*
X177711185Y-104680653D01*
X177713738Y-104675441D01*
X177736197Y-104634592D01*
X177741180Y-104615180D01*
X177747481Y-104596780D01*
X177755437Y-104578396D01*
X177762729Y-104532352D01*
X177763906Y-104526671D01*
X177775500Y-104481519D01*
X177775500Y-104461482D01*
X177777027Y-104442082D01*
X177777065Y-104441845D01*
X177780160Y-104422304D01*
X177775775Y-104375915D01*
X177775500Y-104370077D01*
X177775500Y-97292005D01*
X177795185Y-97224966D01*
X177807350Y-97209033D01*
X177818201Y-97196982D01*
X177912533Y-97092216D01*
X178007179Y-96928284D01*
X178065674Y-96748256D01*
X178085460Y-96560000D01*
X178065674Y-96371744D01*
X178007179Y-96191716D01*
X177912533Y-96027784D01*
X177785871Y-95887112D01*
X177785870Y-95887111D01*
X177632734Y-95775851D01*
X177632729Y-95775848D01*
X177459807Y-95698857D01*
X177459802Y-95698855D01*
X177314001Y-95667865D01*
X177274646Y-95659500D01*
X177085354Y-95659500D01*
X177052897Y-95666398D01*
X176900197Y-95698855D01*
X176900192Y-95698857D01*
X176727270Y-95775848D01*
X176727265Y-95775851D01*
X176574129Y-95887111D01*
X176447466Y-96027785D01*
X176352821Y-96191715D01*
X176352818Y-96191722D01*
X176302888Y-96345392D01*
X176294326Y-96371744D01*
X176274540Y-96560000D01*
X176294326Y-96748256D01*
X176294327Y-96748259D01*
X176352818Y-96928277D01*
X176352821Y-96928284D01*
X176447465Y-97092214D01*
X176447467Y-97092216D01*
X176477842Y-97125951D01*
X176492649Y-97142395D01*
X176522879Y-97205387D01*
X176524500Y-97225368D01*
X176524500Y-104092046D01*
X176504815Y-104159085D01*
X176488181Y-104179727D01*
X170012727Y-110655181D01*
X169951404Y-110688666D01*
X169925046Y-110691500D01*
X169367139Y-110691500D01*
X169287101Y-110699677D01*
X169218408Y-110686907D01*
X169167524Y-110639026D01*
X169150500Y-110576319D01*
X169150500Y-109131857D01*
X169153710Y-109103825D01*
X169157602Y-109087052D01*
X169162757Y-108883642D01*
X169162756Y-108883641D01*
X169162757Y-108883637D01*
X169130059Y-108701206D01*
X169126859Y-108683351D01*
X169126857Y-108683345D01*
X169112461Y-108647305D01*
X169051377Y-108494383D01*
X168989426Y-108400384D01*
X168986988Y-108396359D01*
X168975410Y-108375500D01*
X168975407Y-108375495D01*
X168967710Y-108366529D01*
X168962981Y-108360258D01*
X168958207Y-108353014D01*
X168939402Y-108324481D01*
X168886016Y-108271095D01*
X168882825Y-108267652D01*
X168882282Y-108267019D01*
X168842866Y-108221105D01*
X168842865Y-108221104D01*
X168842864Y-108221103D01*
X168772426Y-108166580D01*
X168703405Y-108110300D01*
X168701838Y-108109482D01*
X168683356Y-108097634D01*
X168681960Y-108096553D01*
X168681952Y-108096548D01*
X168601979Y-108057320D01*
X168523051Y-108016092D01*
X168523050Y-108016091D01*
X168523049Y-108016091D01*
X168521347Y-108015604D01*
X168500851Y-108007715D01*
X168499276Y-108006942D01*
X168499268Y-108006939D01*
X168413054Y-107984617D01*
X168394591Y-107979334D01*
X168327418Y-107960113D01*
X168327415Y-107960112D01*
X168327413Y-107960112D01*
X168325642Y-107959977D01*
X168303992Y-107956379D01*
X168302286Y-107955937D01*
X168213345Y-107951426D01*
X168186881Y-107949411D01*
X168124524Y-107944663D01*
X168124523Y-107944663D01*
X168124522Y-107944663D01*
X168122754Y-107944888D01*
X168100844Y-107945721D01*
X168099068Y-107945631D01*
X168099059Y-107945631D01*
X168011042Y-107959115D01*
X167922680Y-107970368D01*
X167922661Y-107970372D01*
X167920978Y-107970948D01*
X167899685Y-107976174D01*
X167897940Y-107976441D01*
X167897930Y-107976443D01*
X167897929Y-107976444D01*
X167897927Y-107976444D01*
X167897926Y-107976445D01*
X167814427Y-108007369D01*
X167730127Y-108036184D01*
X167730124Y-108036185D01*
X167728596Y-108037085D01*
X167708781Y-108046495D01*
X167707121Y-108047109D01*
X167707115Y-108047112D01*
X167670806Y-108069744D01*
X167631511Y-108094236D01*
X167598164Y-108113866D01*
X167554770Y-108139411D01*
X167554769Y-108139412D01*
X167553463Y-108140593D01*
X167535938Y-108153807D01*
X167534431Y-108154745D01*
X167499805Y-108187659D01*
X167469852Y-108216133D01*
X167410850Y-108269440D01*
X167403786Y-108275822D01*
X167403774Y-108275835D01*
X167402730Y-108277258D01*
X167388241Y-108293710D01*
X167386947Y-108294939D01*
X167353018Y-108343685D01*
X167336055Y-108368058D01*
X167319944Y-108389999D01*
X167283347Y-108439837D01*
X167282608Y-108441447D01*
X167271722Y-108460488D01*
X167270709Y-108461943D01*
X167270702Y-108461955D01*
X167235572Y-108543818D01*
X167198394Y-108624733D01*
X167197995Y-108626455D01*
X167191162Y-108647305D01*
X167190461Y-108648938D01*
X167172534Y-108736168D01*
X167152397Y-108822940D01*
X167152396Y-108822946D01*
X167152351Y-108824744D01*
X167149858Y-108846515D01*
X167149500Y-108848255D01*
X167149500Y-108937284D01*
X167147242Y-109026359D01*
X167147242Y-109026361D01*
X165302923Y-109026361D01*
X165477363Y-108851921D01*
X165495302Y-108838008D01*
X165495257Y-108837950D01*
X165501417Y-108833172D01*
X165501417Y-108833171D01*
X165501420Y-108833170D01*
X165515589Y-108818999D01*
X165530379Y-108806368D01*
X165546587Y-108794594D01*
X165576299Y-108758676D01*
X165580212Y-108754376D01*
X169773788Y-104560801D01*
X169786042Y-104550986D01*
X169785859Y-104550764D01*
X169791866Y-104545792D01*
X169791877Y-104545786D01*
X169822775Y-104512882D01*
X169839227Y-104495364D01*
X169849671Y-104484918D01*
X169860120Y-104474471D01*
X169864379Y-104468978D01*
X169868152Y-104464561D01*
X169900062Y-104430582D01*
X169909715Y-104413020D01*
X169920389Y-104396770D01*
X169932673Y-104380936D01*
X169951180Y-104338167D01*
X169953749Y-104332924D01*
X169976196Y-104292093D01*
X169976197Y-104292092D01*
X169981177Y-104272691D01*
X169987478Y-104254288D01*
X169995438Y-104235896D01*
X170002730Y-104189849D01*
X170003911Y-104184152D01*
X170015500Y-104139019D01*
X170015500Y-104118974D01*
X170017025Y-104099591D01*
X170020160Y-104079804D01*
X170015775Y-104033415D01*
X170015500Y-104027577D01*
X170015500Y-103727408D01*
X170035185Y-103660369D01*
X170087989Y-103614614D01*
X170157147Y-103604670D01*
X170165282Y-103606118D01*
X170249407Y-103624000D01*
X170438594Y-103624000D01*
X170623646Y-103584665D01*
X170623651Y-103584663D01*
X170781036Y-103514590D01*
X170781037Y-103514589D01*
X171406961Y-103514589D01*
X171564355Y-103584665D01*
X171749406Y-103624000D01*
X171938594Y-103624000D01*
X172123646Y-103584665D01*
X172123651Y-103584663D01*
X172281036Y-103514590D01*
X172281037Y-103514589D01*
X171852156Y-103085708D01*
X171845708Y-103073899D01*
X171834494Y-103087058D01*
X171406961Y-103514589D01*
X170781037Y-103514589D01*
X170352156Y-103085708D01*
X170318671Y-103024385D01*
X170323655Y-102954693D01*
X170365527Y-102898760D01*
X170410164Y-102877630D01*
X170422974Y-102874473D01*
X170483856Y-102820536D01*
X170501152Y-102774928D01*
X170541349Y-102721842D01*
X170692316Y-102721842D01*
X170704774Y-102731221D01*
X171093999Y-103120446D01*
X171479396Y-102735050D01*
X171488834Y-102729896D01*
X171641599Y-102729896D01*
X171666344Y-102748420D01*
X171683020Y-102778762D01*
X171685105Y-102784262D01*
X171709774Y-102820000D01*
X171731310Y-102851200D01*
X171803331Y-102889000D01*
X171803333Y-102889000D01*
X171804438Y-102889580D01*
X171843850Y-102927715D01*
X171865527Y-102898760D01*
X171910164Y-102877630D01*
X171922974Y-102874473D01*
X171983856Y-102820536D01*
X172001152Y-102774928D01*
X172041350Y-102721841D01*
X172192315Y-102721841D01*
X172204774Y-102731221D01*
X172632253Y-103158701D01*
X172670720Y-103092076D01*
X172729180Y-102912154D01*
X172748956Y-102724000D01*
X172729180Y-102535845D01*
X172670721Y-102355927D01*
X172670718Y-102355920D01*
X172632253Y-102289297D01*
X172208603Y-102712948D01*
X172192315Y-102721841D01*
X172041350Y-102721841D01*
X172043328Y-102719229D01*
X172046400Y-102718102D01*
X172021655Y-102699577D01*
X172004979Y-102669235D01*
X172002895Y-102663741D01*
X172002895Y-102663739D01*
X171956690Y-102596800D01*
X171956688Y-102596799D01*
X171956688Y-102596798D01*
X171883560Y-102558418D01*
X171844148Y-102520284D01*
X171822473Y-102549239D01*
X171777838Y-102570369D01*
X171765025Y-102573526D01*
X171704146Y-102627461D01*
X171704143Y-102627465D01*
X171686848Y-102673069D01*
X171644669Y-102728771D01*
X171641599Y-102729896D01*
X171488834Y-102729896D01*
X171495681Y-102726157D01*
X171483225Y-102716778D01*
X171094000Y-102327553D01*
X170708603Y-102712949D01*
X170692316Y-102721842D01*
X170541349Y-102721842D01*
X170543328Y-102719229D01*
X170546399Y-102718102D01*
X170521655Y-102699578D01*
X170504978Y-102669234D01*
X170502895Y-102663742D01*
X170502895Y-102663739D01*
X170456690Y-102596800D01*
X170456688Y-102596799D01*
X170456688Y-102596798D01*
X170383560Y-102558418D01*
X170333348Y-102509834D01*
X170317373Y-102441815D01*
X170340708Y-102375957D01*
X170353505Y-102360941D01*
X170740446Y-101973999D01*
X171447553Y-101973999D01*
X171835844Y-102362291D01*
X171842291Y-102374098D01*
X171853505Y-102360941D01*
X172240446Y-101973999D01*
X171852155Y-101585708D01*
X171845707Y-101573900D01*
X171834494Y-101587058D01*
X171447553Y-101973999D01*
X170740446Y-101973999D01*
X170352155Y-101585708D01*
X170318670Y-101524385D01*
X170323654Y-101454693D01*
X170365526Y-101398760D01*
X170410164Y-101377630D01*
X170422974Y-101374473D01*
X170483856Y-101320536D01*
X170501152Y-101274928D01*
X170541351Y-101221840D01*
X170692315Y-101221840D01*
X170704774Y-101231221D01*
X171093999Y-101620446D01*
X171479396Y-101235050D01*
X171488834Y-101229896D01*
X171641599Y-101229896D01*
X171666344Y-101248420D01*
X171683020Y-101278762D01*
X171685105Y-101284262D01*
X171702545Y-101309527D01*
X171731310Y-101351200D01*
X171803331Y-101389000D01*
X171803333Y-101389000D01*
X171804438Y-101389580D01*
X171843850Y-101427714D01*
X171865526Y-101398760D01*
X171910164Y-101377630D01*
X171922974Y-101374473D01*
X171983856Y-101320536D01*
X172001152Y-101274928D01*
X172041350Y-101221841D01*
X172192315Y-101221841D01*
X172204774Y-101231221D01*
X172632253Y-101658701D01*
X172670720Y-101592076D01*
X172729180Y-101412154D01*
X172748956Y-101223999D01*
X172729180Y-101035845D01*
X172670721Y-100855927D01*
X172670718Y-100855920D01*
X172632253Y-100789297D01*
X172208603Y-101212948D01*
X172192315Y-101221841D01*
X172041350Y-101221841D01*
X172043328Y-101219229D01*
X172046400Y-101218102D01*
X172021655Y-101199577D01*
X172004979Y-101169235D01*
X172002895Y-101163741D01*
X172002895Y-101163739D01*
X171956690Y-101096800D01*
X171956688Y-101096799D01*
X171956688Y-101096798D01*
X171883560Y-101058418D01*
X171844148Y-101020284D01*
X171822473Y-101049239D01*
X171777838Y-101070369D01*
X171765025Y-101073526D01*
X171704146Y-101127461D01*
X171704143Y-101127465D01*
X171686848Y-101173069D01*
X171644669Y-101228771D01*
X171641599Y-101229896D01*
X171488834Y-101229896D01*
X171495681Y-101226157D01*
X171483225Y-101216778D01*
X171093999Y-100827552D01*
X170708603Y-101212947D01*
X170692315Y-101221840D01*
X170541351Y-101221840D01*
X170543328Y-101219229D01*
X170546401Y-101218101D01*
X170521655Y-101199576D01*
X170504980Y-101169236D01*
X170502895Y-101163739D01*
X170502895Y-101163738D01*
X170456690Y-101096800D01*
X170456688Y-101096799D01*
X170456688Y-101096798D01*
X170383560Y-101058418D01*
X170333348Y-101009834D01*
X170317373Y-100941815D01*
X170340708Y-100875957D01*
X170353505Y-100860941D01*
X170740446Y-100473999D01*
X171447552Y-100473999D01*
X171835844Y-100862291D01*
X171842291Y-100874098D01*
X171853505Y-100860941D01*
X172240447Y-100473999D01*
X171852156Y-100085708D01*
X171845708Y-100073899D01*
X171834494Y-100087058D01*
X171447552Y-100473998D01*
X171447552Y-100473999D01*
X170740446Y-100473999D01*
X170740446Y-100473997D01*
X170352156Y-100085708D01*
X170318671Y-100024385D01*
X170323655Y-99954693D01*
X170365527Y-99898760D01*
X170410164Y-99877630D01*
X170422974Y-99874473D01*
X170483856Y-99820536D01*
X170501151Y-99774932D01*
X170541351Y-99721841D01*
X170692315Y-99721841D01*
X170704774Y-99731222D01*
X171093999Y-100120446D01*
X171479396Y-99735050D01*
X171488834Y-99729896D01*
X171641599Y-99729896D01*
X171666344Y-99748421D01*
X171683020Y-99778762D01*
X171685105Y-99784262D01*
X171702326Y-99809210D01*
X171731310Y-99851200D01*
X171803331Y-99889000D01*
X171803333Y-99889000D01*
X171804438Y-99889580D01*
X171843850Y-99927715D01*
X171865527Y-99898760D01*
X171910164Y-99877630D01*
X171922974Y-99874473D01*
X171983856Y-99820536D01*
X172001152Y-99774928D01*
X172041350Y-99721841D01*
X172192315Y-99721841D01*
X172204774Y-99731221D01*
X172632253Y-100158701D01*
X172670720Y-100092076D01*
X172729180Y-99912154D01*
X172748956Y-99723999D01*
X172729180Y-99535845D01*
X172670721Y-99355927D01*
X172670718Y-99355920D01*
X172632253Y-99289297D01*
X172208603Y-99712948D01*
X172192315Y-99721841D01*
X172041350Y-99721841D01*
X172043328Y-99719229D01*
X172046400Y-99718102D01*
X172021655Y-99699577D01*
X172004979Y-99669235D01*
X172002895Y-99663741D01*
X172002895Y-99663739D01*
X171956690Y-99596800D01*
X171956688Y-99596799D01*
X171956688Y-99596798D01*
X171883560Y-99558418D01*
X171844148Y-99520284D01*
X171822474Y-99549238D01*
X171777842Y-99570367D01*
X171765027Y-99573526D01*
X171765025Y-99573526D01*
X171704146Y-99627461D01*
X171704141Y-99627468D01*
X171686847Y-99673069D01*
X171644669Y-99728771D01*
X171641599Y-99729896D01*
X171488834Y-99729896D01*
X171495683Y-99726156D01*
X171483225Y-99716777D01*
X171094000Y-99327552D01*
X170708603Y-99712948D01*
X170692315Y-99721841D01*
X170541351Y-99721841D01*
X170543328Y-99719230D01*
X170546401Y-99718102D01*
X170521655Y-99699577D01*
X170504979Y-99669235D01*
X170502895Y-99663741D01*
X170502895Y-99663739D01*
X170456690Y-99596800D01*
X170456688Y-99596799D01*
X170456688Y-99596798D01*
X170383560Y-99558418D01*
X170333348Y-99509834D01*
X170317373Y-99441815D01*
X170340708Y-99375957D01*
X170353505Y-99360941D01*
X170781037Y-98933409D01*
X171406961Y-98933409D01*
X171835844Y-99362290D01*
X171842291Y-99374098D01*
X171853505Y-99360941D01*
X172281037Y-98933409D01*
X172123644Y-98863334D01*
X171938594Y-98824000D01*
X171749406Y-98824000D01*
X171564355Y-98863334D01*
X171406961Y-98933409D01*
X170781037Y-98933409D01*
X170623644Y-98863334D01*
X170438594Y-98824000D01*
X170249406Y-98824000D01*
X170165281Y-98841881D01*
X170095614Y-98836565D01*
X170039880Y-98794428D01*
X170015775Y-98728848D01*
X170015500Y-98720591D01*
X170015500Y-92962742D01*
X170017224Y-92947122D01*
X170016939Y-92947095D01*
X170017673Y-92939333D01*
X170015500Y-92870172D01*
X170015500Y-92840656D01*
X170015500Y-92840650D01*
X170014631Y-92833779D01*
X170014173Y-92827952D01*
X170012981Y-92790016D01*
X170012710Y-92781373D01*
X170007119Y-92762130D01*
X170003173Y-92743078D01*
X170000664Y-92723208D01*
X169983504Y-92679867D01*
X169981624Y-92674379D01*
X169968618Y-92629610D01*
X169967206Y-92627223D01*
X169958423Y-92612371D01*
X169949861Y-92594894D01*
X169942487Y-92576270D01*
X169942486Y-92576268D01*
X169915079Y-92538545D01*
X169911888Y-92533686D01*
X169888172Y-92493583D01*
X169888165Y-92493574D01*
X169874006Y-92479415D01*
X169861368Y-92464619D01*
X169859513Y-92462066D01*
X169849594Y-92448413D01*
X169818739Y-92422888D01*
X169813688Y-92418709D01*
X169809376Y-92414786D01*
X169400806Y-92006216D01*
X169390981Y-91993952D01*
X169390760Y-91994136D01*
X169385785Y-91988121D01*
X169356204Y-91960343D01*
X169335364Y-91940773D01*
X169324919Y-91930328D01*
X169314475Y-91919883D01*
X169308986Y-91915625D01*
X169304561Y-91911847D01*
X169270582Y-91879938D01*
X169270580Y-91879936D01*
X169270577Y-91879935D01*
X169253029Y-91870288D01*
X169236763Y-91859604D01*
X169220936Y-91847327D01*
X169220935Y-91847326D01*
X169220933Y-91847325D01*
X169178168Y-91828818D01*
X169172922Y-91826248D01*
X169132093Y-91803803D01*
X169132092Y-91803802D01*
X169112693Y-91798822D01*
X169094281Y-91792518D01*
X169075898Y-91784562D01*
X169075892Y-91784560D01*
X169029874Y-91777272D01*
X169024152Y-91776087D01*
X168979021Y-91764500D01*
X168979019Y-91764500D01*
X168958984Y-91764500D01*
X168939586Y-91762973D01*
X168932162Y-91761797D01*
X168919805Y-91759840D01*
X168919804Y-91759840D01*
X168873416Y-91764225D01*
X168867578Y-91764500D01*
X165530922Y-91764500D01*
X165463883Y-91744815D01*
X165418128Y-91692011D01*
X165411846Y-91675095D01*
X165379745Y-91564606D01*
X165379744Y-91564603D01*
X165379744Y-91564602D01*
X165296081Y-91423135D01*
X165296079Y-91423133D01*
X165296076Y-91423129D01*
X165179870Y-91306923D01*
X165179862Y-91306917D01*
X165099246Y-91259241D01*
X165038398Y-91223256D01*
X165038397Y-91223255D01*
X165038396Y-91223255D01*
X165038393Y-91223254D01*
X164880573Y-91177402D01*
X164880567Y-91177401D01*
X164843696Y-91174500D01*
X164843694Y-91174500D01*
X164412306Y-91174500D01*
X164412304Y-91174500D01*
X164375432Y-91177401D01*
X164375426Y-91177402D01*
X164217606Y-91223254D01*
X164217603Y-91223255D01*
X164076137Y-91306917D01*
X164076129Y-91306923D01*
X163959923Y-91423129D01*
X163959917Y-91423137D01*
X163876255Y-91564603D01*
X163876254Y-91564606D01*
X163830402Y-91722426D01*
X163830401Y-91722432D01*
X163827500Y-91759304D01*
X163827500Y-93065696D01*
X163830401Y-93102567D01*
X163830402Y-93102573D01*
X163876254Y-93260393D01*
X163876255Y-93260396D01*
X163876256Y-93260398D01*
X163910732Y-93318694D01*
X163928000Y-93381814D01*
X163928000Y-94037500D01*
X164478000Y-94037500D01*
X164478000Y-93774500D01*
X164497685Y-93707461D01*
X164550489Y-93661706D01*
X164602000Y-93650500D01*
X164653500Y-93650500D01*
X164720539Y-93670185D01*
X164766294Y-93722989D01*
X164777500Y-93774500D01*
X164777500Y-94940696D01*
X164780401Y-94977567D01*
X164780402Y-94977573D01*
X164826254Y-95135393D01*
X164826254Y-95135395D01*
X164832763Y-95146401D01*
X164849942Y-95214126D01*
X164827780Y-95280388D01*
X164813709Y-95297199D01*
X164582727Y-95528181D01*
X164521404Y-95561666D01*
X164495046Y-95564500D01*
X164357101Y-95564500D01*
X164290062Y-95544815D01*
X164244307Y-95492011D01*
X164234363Y-95422853D01*
X164263388Y-95359297D01*
X164269420Y-95352818D01*
X164345681Y-95276557D01*
X164345685Y-95276552D01*
X164429282Y-95135196D01*
X164429283Y-95135193D01*
X164475099Y-94977495D01*
X164475100Y-94977489D01*
X164478000Y-94940644D01*
X164478000Y-94537500D01*
X162878000Y-94537500D01*
X162878000Y-94940644D01*
X162880899Y-94977489D01*
X162880900Y-94977495D01*
X162926716Y-95135193D01*
X162926717Y-95135196D01*
X163010314Y-95276552D01*
X163010321Y-95276561D01*
X163126438Y-95392678D01*
X163126447Y-95392685D01*
X163267803Y-95476282D01*
X163267806Y-95476283D01*
X163431593Y-95523868D01*
X163431193Y-95525243D01*
X163487037Y-95553346D01*
X163522561Y-95613511D01*
X163519919Y-95683330D01*
X163490039Y-95731593D01*
X163485458Y-95736173D01*
X163424141Y-95769663D01*
X163397770Y-95772500D01*
X162298737Y-95772500D01*
X162283120Y-95770776D01*
X162283093Y-95771062D01*
X162275331Y-95770327D01*
X162206203Y-95772500D01*
X162176650Y-95772500D01*
X162175929Y-95772590D01*
X162169757Y-95773369D01*
X162163945Y-95773826D01*
X162117372Y-95775290D01*
X162117369Y-95775291D01*
X162098126Y-95780881D01*
X162079083Y-95784825D01*
X162059204Y-95787336D01*
X162059203Y-95787337D01*
X162015878Y-95804490D01*
X162010352Y-95806382D01*
X161965608Y-95819383D01*
X161965604Y-95819385D01*
X161948365Y-95829580D01*
X161930898Y-95838137D01*
X161912269Y-95845512D01*
X161912267Y-95845513D01*
X161874564Y-95872906D01*
X161869682Y-95876112D01*
X161829580Y-95899828D01*
X161815408Y-95914000D01*
X161800623Y-95926628D01*
X161784412Y-95938407D01*
X161754709Y-95974310D01*
X161750777Y-95978631D01*
X161305181Y-96424227D01*
X161243858Y-96457712D01*
X161174167Y-96452728D01*
X161118233Y-96410857D01*
X161093816Y-96345392D01*
X161093500Y-96336546D01*
X161093500Y-96005686D01*
X161113185Y-95938647D01*
X161165989Y-95892892D01*
X161204898Y-95882328D01*
X161211918Y-95881610D01*
X161275775Y-95875087D01*
X161440925Y-95820362D01*
X161589003Y-95729026D01*
X161712026Y-95606003D01*
X161803362Y-95457925D01*
X161858087Y-95292775D01*
X161868500Y-95190848D01*
X161868500Y-94604152D01*
X161858087Y-94502225D01*
X161803362Y-94337075D01*
X161803358Y-94337069D01*
X161803357Y-94337066D01*
X161712028Y-94189000D01*
X161712025Y-94188996D01*
X161589003Y-94065974D01*
X161588998Y-94065970D01*
X161588286Y-94065531D01*
X161587900Y-94065102D01*
X161583336Y-94061493D01*
X161583953Y-94060712D01*
X161563079Y-94037500D01*
X162878000Y-94037500D01*
X163428000Y-94037500D01*
X163428000Y-93052703D01*
X163425503Y-93052900D01*
X163267806Y-93098716D01*
X163267803Y-93098717D01*
X163126447Y-93182314D01*
X163126438Y-93182321D01*
X163010321Y-93298438D01*
X163010314Y-93298447D01*
X162926717Y-93439803D01*
X162926716Y-93439806D01*
X162880900Y-93597504D01*
X162880899Y-93597510D01*
X162878000Y-93634356D01*
X162878000Y-94037500D01*
X161563079Y-94037500D01*
X161541567Y-94013578D01*
X161530352Y-93944614D01*
X161558202Y-93880535D01*
X161583455Y-93858657D01*
X161583336Y-93858507D01*
X161586700Y-93855846D01*
X161588305Y-93854456D01*
X161589003Y-93854026D01*
X161712026Y-93731003D01*
X161803362Y-93582925D01*
X161858087Y-93417775D01*
X161868500Y-93315848D01*
X161868500Y-92729152D01*
X161858087Y-92627225D01*
X161803362Y-92462075D01*
X161803358Y-92462069D01*
X161803357Y-92462066D01*
X161712028Y-92314000D01*
X161712025Y-92313996D01*
X161589003Y-92190974D01*
X161588999Y-92190971D01*
X161440933Y-92099642D01*
X161440927Y-92099639D01*
X161440925Y-92099638D01*
X161377047Y-92078471D01*
X161275776Y-92044913D01*
X161173855Y-92034500D01*
X161173848Y-92034500D01*
X160162152Y-92034500D01*
X160162144Y-92034500D01*
X160060223Y-92044913D01*
X159895077Y-92099637D01*
X159895066Y-92099642D01*
X159747000Y-92190971D01*
X159746996Y-92190974D01*
X159623973Y-92313997D01*
X159622524Y-92316347D01*
X159610281Y-92336198D01*
X159609110Y-92338096D01*
X159557163Y-92384821D01*
X159503571Y-92397000D01*
X159329668Y-92397000D01*
X159262629Y-92377315D01*
X159224130Y-92338097D01*
X159210714Y-92316347D01*
X159210711Y-92316343D01*
X159086657Y-92192289D01*
X159086656Y-92192288D01*
X158991812Y-92133788D01*
X158937336Y-92100187D01*
X158937331Y-92100185D01*
X158897390Y-92086950D01*
X158770797Y-92045001D01*
X158770795Y-92045000D01*
X158668010Y-92034500D01*
X157667998Y-92034500D01*
X157667980Y-92034501D01*
X157565203Y-92045000D01*
X157565200Y-92045001D01*
X157398668Y-92100185D01*
X157398663Y-92100187D01*
X157249342Y-92192289D01*
X157125289Y-92316342D01*
X157033187Y-92465663D01*
X157033185Y-92465668D01*
X157008933Y-92538856D01*
X156978001Y-92632203D01*
X156978001Y-92632204D01*
X156978000Y-92632204D01*
X156967500Y-92734983D01*
X156967500Y-93360001D01*
X156967501Y-93360019D01*
X156978000Y-93462796D01*
X156978001Y-93462799D01*
X157033185Y-93629331D01*
X157033187Y-93629336D01*
X157058383Y-93670185D01*
X157121675Y-93772799D01*
X157125289Y-93778657D01*
X157218951Y-93872319D01*
X157252436Y-93933642D01*
X157247452Y-94003334D01*
X157218951Y-94047681D01*
X157180951Y-94085681D01*
X157119628Y-94119166D01*
X157093270Y-94122000D01*
X155882432Y-94122000D01*
X155815393Y-94102315D01*
X155769638Y-94049511D01*
X155764726Y-94037005D01*
X155749144Y-93989983D01*
X155730814Y-93934666D01*
X155638712Y-93785344D01*
X155545049Y-93691681D01*
X155511564Y-93630358D01*
X155516548Y-93560666D01*
X155545049Y-93516319D01*
X155583688Y-93477680D01*
X155638712Y-93422656D01*
X155730814Y-93273334D01*
X155785999Y-93106797D01*
X155796500Y-93004009D01*
X155796499Y-92378992D01*
X155796170Y-92375775D01*
X155785999Y-92276203D01*
X155785998Y-92276200D01*
X155768821Y-92224364D01*
X155730814Y-92109666D01*
X155638712Y-91960344D01*
X155514656Y-91836288D01*
X155408239Y-91770650D01*
X155365336Y-91744187D01*
X155365331Y-91744185D01*
X155363862Y-91743698D01*
X155198797Y-91689001D01*
X155198795Y-91689000D01*
X155096010Y-91678500D01*
X154095998Y-91678500D01*
X154095980Y-91678501D01*
X153993203Y-91689000D01*
X153993200Y-91689001D01*
X153826668Y-91744185D01*
X153826663Y-91744187D01*
X153677342Y-91836289D01*
X153553288Y-91960343D01*
X153553285Y-91960347D01*
X153506157Y-92036754D01*
X153454209Y-92083479D01*
X153446264Y-92086950D01*
X153418379Y-92097990D01*
X153412853Y-92099882D01*
X153368108Y-92112883D01*
X153368104Y-92112885D01*
X153350865Y-92123080D01*
X153333398Y-92131637D01*
X153314769Y-92139012D01*
X153314767Y-92139013D01*
X153277064Y-92166406D01*
X153272182Y-92169612D01*
X153232080Y-92193328D01*
X153217908Y-92207500D01*
X153203123Y-92220128D01*
X153186912Y-92231907D01*
X153157209Y-92267810D01*
X153153277Y-92272131D01*
X148316208Y-97109199D01*
X148303951Y-97119020D01*
X148304134Y-97119241D01*
X148298123Y-97124213D01*
X148250772Y-97174636D01*
X148229889Y-97195519D01*
X148229877Y-97195532D01*
X148225621Y-97201017D01*
X148221837Y-97205447D01*
X148189937Y-97239418D01*
X148189936Y-97239420D01*
X148180284Y-97256976D01*
X148169610Y-97273226D01*
X148157329Y-97289061D01*
X148157324Y-97289068D01*
X148138815Y-97331838D01*
X148136245Y-97337084D01*
X148113803Y-97377906D01*
X148108822Y-97397307D01*
X148102521Y-97415710D01*
X148094562Y-97434102D01*
X148094561Y-97434105D01*
X148087271Y-97480127D01*
X148086087Y-97485846D01*
X148074501Y-97530972D01*
X148074500Y-97530982D01*
X148074500Y-97551016D01*
X148072973Y-97570415D01*
X148069840Y-97590194D01*
X148069840Y-97590195D01*
X136945500Y-97590195D01*
X136945500Y-91892742D01*
X136947224Y-91877122D01*
X136946939Y-91877095D01*
X136947673Y-91869333D01*
X136945500Y-91800172D01*
X136945500Y-91770656D01*
X136945500Y-91770650D01*
X136944631Y-91763779D01*
X136944173Y-91757952D01*
X136943923Y-91749999D01*
X136942710Y-91711373D01*
X136937119Y-91692130D01*
X136933173Y-91673078D01*
X136930664Y-91653208D01*
X136913504Y-91609867D01*
X136911624Y-91604379D01*
X136898618Y-91559610D01*
X136893032Y-91550165D01*
X136875848Y-91482444D01*
X136898005Y-91416180D01*
X136952470Y-91372415D01*
X137021949Y-91365043D01*
X137059499Y-91378379D01*
X137091908Y-91396197D01*
X137111312Y-91401179D01*
X137129710Y-91407478D01*
X137148105Y-91415438D01*
X137194129Y-91422726D01*
X137199832Y-91423907D01*
X137244981Y-91435500D01*
X137265016Y-91435500D01*
X137284413Y-91437026D01*
X137304196Y-91440160D01*
X137350583Y-91435775D01*
X137356422Y-91435500D01*
X141559257Y-91435500D01*
X141574877Y-91437224D01*
X141574904Y-91436939D01*
X141582660Y-91437671D01*
X141582667Y-91437673D01*
X141651814Y-91435500D01*
X141681350Y-91435500D01*
X141688228Y-91434630D01*
X141694041Y-91434172D01*
X141740627Y-91432709D01*
X141759869Y-91427117D01*
X141778912Y-91423174D01*
X141798792Y-91420664D01*
X141842122Y-91403507D01*
X141847646Y-91401617D01*
X141851396Y-91400527D01*
X141892390Y-91388618D01*
X141909629Y-91378422D01*
X141927103Y-91369862D01*
X141945727Y-91362488D01*
X141945727Y-91362487D01*
X141945732Y-91362486D01*
X141983449Y-91335082D01*
X141988305Y-91331892D01*
X142028420Y-91308170D01*
X142042589Y-91293999D01*
X142057379Y-91281368D01*
X142073587Y-91269594D01*
X142103299Y-91233676D01*
X142107212Y-91229376D01*
X142605773Y-90730816D01*
X142667095Y-90697334D01*
X142693453Y-90694500D01*
X142752644Y-90694500D01*
X142752646Y-90694500D01*
X142937803Y-90655144D01*
X143110730Y-90578151D01*
X143263871Y-90466888D01*
X143266788Y-90463647D01*
X143269600Y-90460526D01*
X143329087Y-90423879D01*
X143361748Y-90419500D01*
X151403257Y-90419500D01*
X151418877Y-90421224D01*
X151418904Y-90420939D01*
X151426660Y-90421671D01*
X151426667Y-90421673D01*
X151495814Y-90419500D01*
X151525350Y-90419500D01*
X151532228Y-90418630D01*
X151538041Y-90418172D01*
X151584627Y-90416709D01*
X151603869Y-90411117D01*
X151622912Y-90407174D01*
X151642792Y-90404664D01*
X151686122Y-90387507D01*
X151691646Y-90385617D01*
X151695396Y-90384527D01*
X151736390Y-90372618D01*
X151753629Y-90362422D01*
X151771103Y-90353862D01*
X151789727Y-90346488D01*
X151789727Y-90346487D01*
X151789732Y-90346486D01*
X151827449Y-90319082D01*
X151832305Y-90315892D01*
X151872420Y-90292170D01*
X151886589Y-90277999D01*
X151901379Y-90265368D01*
X151917587Y-90253594D01*
X151947299Y-90217676D01*
X151951212Y-90213376D01*
X154462771Y-87701819D01*
X154524095Y-87668334D01*
X154550453Y-87665500D01*
X161323592Y-87665500D01*
X161390631Y-87685185D01*
X161436386Y-87737989D01*
X161441523Y-87751182D01*
X161482818Y-87878278D01*
X161482821Y-87878284D01*
X161577467Y-88042216D01*
X161687797Y-88164749D01*
X161704129Y-88182888D01*
X161857265Y-88294148D01*
X161857270Y-88294151D01*
X162030192Y-88371142D01*
X162030193Y-88371142D01*
X162030197Y-88371144D01*
X162030898Y-88371293D01*
X162031265Y-88371491D01*
X162036374Y-88373151D01*
X162036070Y-88374085D01*
X162092381Y-88404483D01*
X162126160Y-88465645D01*
X162121510Y-88535360D01*
X162092803Y-88580265D01*
X161199888Y-89473181D01*
X161138565Y-89506666D01*
X161112207Y-89509500D01*
X155025863Y-89509500D01*
X155000084Y-89506790D01*
X154824646Y-89469500D01*
X154635354Y-89469500D01*
X154602897Y-89476398D01*
X154450197Y-89508855D01*
X154450192Y-89508857D01*
X154277270Y-89585848D01*
X154277265Y-89585851D01*
X154124129Y-89697111D01*
X153997466Y-89837785D01*
X153902821Y-90001715D01*
X153902818Y-90001722D01*
X153844327Y-90181740D01*
X153844326Y-90181744D01*
X153824540Y-90370000D01*
X153844326Y-90558256D01*
X153844327Y-90558259D01*
X153902818Y-90738277D01*
X153902821Y-90738284D01*
X153997467Y-90902216D01*
X154064730Y-90976919D01*
X154124129Y-91042888D01*
X154277265Y-91154148D01*
X154277270Y-91154151D01*
X154450192Y-91231142D01*
X154450197Y-91231144D01*
X154635354Y-91270500D01*
X154635355Y-91270500D01*
X154824644Y-91270500D01*
X154824646Y-91270500D01*
X155000084Y-91233209D01*
X155025863Y-91230500D01*
X161482498Y-91230500D01*
X161487533Y-91230705D01*
X161511559Y-91232661D01*
X161543439Y-91235257D01*
X161624626Y-91224195D01*
X161706073Y-91215337D01*
X161706082Y-91215333D01*
X161706275Y-91215291D01*
X161728717Y-91210032D01*
X161728887Y-91209989D01*
X161728896Y-91209988D01*
X161805796Y-91181736D01*
X161883445Y-91155574D01*
X161883448Y-91155571D01*
X161883608Y-91155498D01*
X161904434Y-91145518D01*
X161904577Y-91145446D01*
X161904585Y-91145444D01*
X161973632Y-91101309D01*
X162043823Y-91059077D01*
X162043829Y-91059070D01*
X162043983Y-91058954D01*
X162062127Y-91044771D01*
X162062288Y-91044642D01*
X162062288Y-91044641D01*
X162062291Y-91044640D01*
X162091258Y-91015671D01*
X162120228Y-90986703D01*
X162142244Y-90965848D01*
X162179708Y-90930361D01*
X162179713Y-90930352D01*
X162179830Y-90930216D01*
X162194649Y-90912280D01*
X163636928Y-89470000D01*
X164293001Y-89470000D01*
X164293001Y-89519986D01*
X164303494Y-89622697D01*
X164358641Y-89789119D01*
X164358643Y-89789124D01*
X164450684Y-89938345D01*
X164574654Y-90062315D01*
X164723875Y-90154356D01*
X164723880Y-90154358D01*
X164890302Y-90209505D01*
X164890309Y-90209506D01*
X164993019Y-90219999D01*
X165267999Y-90219999D01*
X165268000Y-90219998D01*
X165268000Y-89470000D01*
X165768000Y-89470000D01*
X165768000Y-90219999D01*
X166042972Y-90219999D01*
X166042986Y-90219998D01*
X166145697Y-90209505D01*
X166312119Y-90154358D01*
X166312124Y-90154356D01*
X166461345Y-90062315D01*
X166585315Y-89938345D01*
X166677356Y-89789124D01*
X166677358Y-89789119D01*
X166732505Y-89622697D01*
X166732506Y-89622690D01*
X166742999Y-89519986D01*
X166743000Y-89519973D01*
X166743000Y-89470000D01*
X165768000Y-89470000D01*
X165268000Y-89470000D01*
X164293001Y-89470000D01*
X163636928Y-89470000D01*
X164127285Y-88979643D01*
X164188606Y-88946160D01*
X164258298Y-88951144D01*
X164287638Y-88970000D01*
X166742999Y-88970000D01*
X166742999Y-88920028D01*
X166742998Y-88920013D01*
X166732505Y-88817302D01*
X166677358Y-88650880D01*
X166677356Y-88650875D01*
X166584047Y-88499597D01*
X166565607Y-88432204D01*
X166586530Y-88365541D01*
X166640172Y-88320771D01*
X166689586Y-88310500D01*
X168008259Y-88310500D01*
X168499456Y-88310500D01*
X168566495Y-88330185D01*
X168612250Y-88382989D01*
X168622194Y-88452147D01*
X168593169Y-88515703D01*
X168572342Y-88534818D01*
X168514127Y-88577113D01*
X168387466Y-88717785D01*
X168292821Y-88881715D01*
X168292818Y-88881722D01*
X168251187Y-89009851D01*
X168234326Y-89061744D01*
X168214540Y-89250000D01*
X168234326Y-89438256D01*
X168234327Y-89438259D01*
X168292818Y-89618277D01*
X168292821Y-89618284D01*
X168387467Y-89782216D01*
X168437501Y-89837784D01*
X168514129Y-89922888D01*
X168667265Y-90034148D01*
X168667270Y-90034151D01*
X168840192Y-90111142D01*
X168840197Y-90111144D01*
X169025354Y-90150500D01*
X169084548Y-90150500D01*
X169151587Y-90170185D01*
X169172228Y-90186818D01*
X170159909Y-91174500D01*
X171119197Y-92133788D01*
X171129022Y-92146051D01*
X171129243Y-92145869D01*
X171134214Y-92151878D01*
X171160217Y-92176295D01*
X171184635Y-92199226D01*
X171205529Y-92220120D01*
X171211011Y-92224373D01*
X171215443Y-92228157D01*
X171249418Y-92260062D01*
X171266976Y-92269714D01*
X171283233Y-92280393D01*
X171299064Y-92292673D01*
X171318737Y-92301186D01*
X171341833Y-92311182D01*
X171347077Y-92313750D01*
X171387908Y-92336197D01*
X171395305Y-92338096D01*
X171407305Y-92341177D01*
X171425719Y-92347481D01*
X171444104Y-92355438D01*
X171490157Y-92362732D01*
X171495826Y-92363906D01*
X171540981Y-92375500D01*
X171561016Y-92375500D01*
X171580413Y-92377026D01*
X171600196Y-92380160D01*
X171646583Y-92375775D01*
X171652422Y-92375500D01*
X175336252Y-92375500D01*
X175403291Y-92395185D01*
X175428400Y-92416526D01*
X175434126Y-92422885D01*
X175434130Y-92422889D01*
X175587265Y-92534148D01*
X175587270Y-92534151D01*
X175760192Y-92611142D01*
X175760197Y-92611144D01*
X175945354Y-92650500D01*
X175945355Y-92650500D01*
X176134644Y-92650500D01*
X176134646Y-92650500D01*
X176319803Y-92611144D01*
X176492730Y-92534151D01*
X176645871Y-92422888D01*
X176772533Y-92282216D01*
X176867179Y-92118284D01*
X176925674Y-91938256D01*
X176945460Y-91750000D01*
X176925674Y-91561744D01*
X176867179Y-91381716D01*
X176772533Y-91217784D01*
X176645871Y-91077112D01*
X176645870Y-91077111D01*
X176492734Y-90965851D01*
X176492729Y-90965848D01*
X176319807Y-90888857D01*
X176319802Y-90888855D01*
X176142079Y-90851080D01*
X176134646Y-90849500D01*
X175945354Y-90849500D01*
X175937921Y-90851080D01*
X175760197Y-90888855D01*
X175760192Y-90888857D01*
X175587270Y-90965848D01*
X175587265Y-90965851D01*
X175434130Y-91077110D01*
X175434126Y-91077114D01*
X175428400Y-91083474D01*
X175368913Y-91120121D01*
X175336252Y-91124500D01*
X171930452Y-91124500D01*
X171863413Y-91104815D01*
X171842771Y-91088181D01*
X170214591Y-89460000D01*
X173105001Y-89460000D01*
X173105001Y-89509986D01*
X173115494Y-89612697D01*
X173170641Y-89779119D01*
X173170643Y-89779124D01*
X173262684Y-89928345D01*
X173386654Y-90052315D01*
X173535875Y-90144356D01*
X173535880Y-90144358D01*
X173702302Y-90199505D01*
X173702309Y-90199506D01*
X173805019Y-90209999D01*
X174079999Y-90209999D01*
X174080000Y-90209998D01*
X174080000Y-89460000D01*
X174580000Y-89460000D01*
X174580000Y-90209999D01*
X174854972Y-90209999D01*
X174854986Y-90209998D01*
X174957697Y-90199505D01*
X175124119Y-90144358D01*
X175124124Y-90144356D01*
X175273345Y-90052315D01*
X175397315Y-89928345D01*
X175489356Y-89779124D01*
X175489358Y-89779119D01*
X175544505Y-89612697D01*
X175544506Y-89612690D01*
X175554999Y-89509986D01*
X175555000Y-89509973D01*
X175555000Y-89460000D01*
X174580000Y-89460000D01*
X174080000Y-89460000D01*
X173105001Y-89460000D01*
X170214591Y-89460000D01*
X170058960Y-89304369D01*
X170025475Y-89243046D01*
X170023323Y-89229668D01*
X170005674Y-89061744D01*
X169947179Y-88881716D01*
X169852533Y-88717784D01*
X169725871Y-88577112D01*
X169667657Y-88534817D01*
X169624993Y-88479488D01*
X169619014Y-88409874D01*
X169651620Y-88348079D01*
X169712459Y-88313722D01*
X169740544Y-88310500D01*
X173152246Y-88310500D01*
X173219285Y-88330185D01*
X173265040Y-88382989D01*
X173274984Y-88452147D01*
X173257785Y-88499597D01*
X173170643Y-88640875D01*
X173170641Y-88640880D01*
X173115494Y-88807302D01*
X173115493Y-88807309D01*
X173105000Y-88910013D01*
X173105000Y-88960000D01*
X175554999Y-88960000D01*
X175554999Y-88910028D01*
X175554998Y-88910013D01*
X175544505Y-88807302D01*
X175489358Y-88640880D01*
X175489356Y-88640875D01*
X175403244Y-88501266D01*
X175384804Y-88433873D01*
X175405727Y-88367210D01*
X175459368Y-88322440D01*
X175490335Y-88314769D01*
X175490174Y-88313866D01*
X175496361Y-88312756D01*
X175496363Y-88312757D01*
X175556753Y-88301932D01*
X175561412Y-88301280D01*
X175603607Y-88296988D01*
X175622438Y-88295074D01*
X175655227Y-88284786D01*
X175662840Y-88282918D01*
X175696653Y-88276858D01*
X175753621Y-88254101D01*
X175758053Y-88252524D01*
X175816588Y-88234159D01*
X175846627Y-88217484D01*
X175853708Y-88214122D01*
X175885617Y-88201377D01*
X175936854Y-88167608D01*
X175940851Y-88165187D01*
X175994502Y-88135409D01*
X176020568Y-88113030D01*
X176026843Y-88108300D01*
X176055519Y-88089402D01*
X176098885Y-88046034D01*
X176102343Y-88042830D01*
X176130971Y-88018252D01*
X176148895Y-88002866D01*
X176169928Y-87975691D01*
X176175098Y-87969821D01*
X176683340Y-87461580D01*
X176779698Y-87343407D01*
X176873909Y-87163049D01*
X176929887Y-86967418D01*
X176945337Y-86764524D01*
X176944715Y-86759642D01*
X176919631Y-86562678D01*
X176919630Y-86562676D01*
X176919630Y-86562672D01*
X176853816Y-86370128D01*
X176840225Y-86347041D01*
X176750593Y-86194778D01*
X176750592Y-86194777D01*
X176750590Y-86194773D01*
X176614179Y-86043787D01*
X176566853Y-86009035D01*
X176450171Y-85923353D01*
X176450164Y-85923349D01*
X176265274Y-85838397D01*
X176265261Y-85838392D01*
X176067054Y-85792397D01*
X175863642Y-85787242D01*
X175663351Y-85823140D01*
X175663345Y-85823142D01*
X175474383Y-85898623D01*
X175474371Y-85898629D01*
X175304482Y-86010596D01*
X175304478Y-86010599D01*
X175041898Y-86273181D01*
X174980575Y-86306666D01*
X174954217Y-86309500D01*
X165477257Y-86309500D01*
X165418806Y-86315443D01*
X165382039Y-86319182D01*
X165375765Y-86319500D01*
X164992998Y-86319500D01*
X164992980Y-86319501D01*
X164890203Y-86330000D01*
X164890200Y-86330001D01*
X164769141Y-86370117D01*
X164723666Y-86385186D01*
X164652089Y-86429334D01*
X164638010Y-86438018D01*
X164570617Y-86456457D01*
X164562852Y-86456069D01*
X164546565Y-86454742D01*
X164518549Y-86458559D01*
X164465373Y-86465804D01*
X164412280Y-86471579D01*
X164383923Y-86474663D01*
X164361103Y-86480011D01*
X164284217Y-86508258D01*
X164206546Y-86534429D01*
X164206517Y-86534442D01*
X164185504Y-86544512D01*
X164185420Y-86544553D01*
X164116381Y-86588681D01*
X164046180Y-86630920D01*
X164046116Y-86630969D01*
X164027717Y-86645354D01*
X164027711Y-86645357D01*
X163969770Y-86703297D01*
X163910293Y-86759636D01*
X163910289Y-86759642D01*
X163895348Y-86777719D01*
X163376927Y-87296140D01*
X163315604Y-87329625D01*
X163245912Y-87324641D01*
X163189979Y-87282769D01*
X163171315Y-87246776D01*
X163137182Y-87141724D01*
X163137180Y-87141720D01*
X163137179Y-87141716D01*
X163042533Y-86977784D01*
X162915871Y-86837112D01*
X162861230Y-86797413D01*
X162762734Y-86725851D01*
X162762729Y-86725848D01*
X162589807Y-86648857D01*
X162589802Y-86648855D01*
X162431011Y-86615104D01*
X162404646Y-86609500D01*
X162404645Y-86609500D01*
X162345454Y-86609500D01*
X162278415Y-86589815D01*
X162257773Y-86573181D01*
X162254476Y-86569884D01*
X162248986Y-86565625D01*
X162244561Y-86561847D01*
X162210582Y-86529938D01*
X162210580Y-86529936D01*
X162210577Y-86529935D01*
X162193029Y-86520288D01*
X162176763Y-86509604D01*
X162175028Y-86508258D01*
X162160936Y-86497327D01*
X162160935Y-86497326D01*
X162160933Y-86497325D01*
X162118168Y-86478818D01*
X162112922Y-86476248D01*
X162072093Y-86453803D01*
X162072092Y-86453802D01*
X162052693Y-86448822D01*
X162034281Y-86442518D01*
X162015898Y-86434562D01*
X162015892Y-86434560D01*
X161969874Y-86427272D01*
X161964152Y-86426087D01*
X161919021Y-86414500D01*
X161919019Y-86414500D01*
X161898984Y-86414500D01*
X161879586Y-86412973D01*
X161872162Y-86411797D01*
X161859805Y-86409840D01*
X161859804Y-86409840D01*
X161813416Y-86414225D01*
X161807578Y-86414500D01*
X154322738Y-86414500D01*
X154307121Y-86412776D01*
X154307094Y-86413062D01*
X154299332Y-86412327D01*
X154230204Y-86414500D01*
X154200650Y-86414500D01*
X154199929Y-86414590D01*
X154193757Y-86415369D01*
X154187945Y-86415826D01*
X154141373Y-86417290D01*
X154141372Y-86417290D01*
X154122129Y-86422881D01*
X154103079Y-86426825D01*
X154083211Y-86429334D01*
X154083209Y-86429335D01*
X154039884Y-86446488D01*
X154034357Y-86448380D01*
X153989610Y-86461381D01*
X153989609Y-86461382D01*
X153972367Y-86471579D01*
X153954899Y-86480137D01*
X153936269Y-86487513D01*
X153936267Y-86487514D01*
X153898576Y-86514898D01*
X153893694Y-86518105D01*
X153853579Y-86541830D01*
X153839408Y-86556000D01*
X153824623Y-86568628D01*
X153808412Y-86580407D01*
X153778709Y-86616310D01*
X153774776Y-86620631D01*
X152506073Y-87889336D01*
X151263228Y-89132181D01*
X151201905Y-89165666D01*
X151175547Y-89168500D01*
X143361748Y-89168500D01*
X143294709Y-89148815D01*
X143269600Y-89127474D01*
X143263873Y-89121114D01*
X143263869Y-89121110D01*
X143110734Y-89009851D01*
X143110729Y-89009848D01*
X142937807Y-88932857D01*
X142937802Y-88932855D01*
X142792000Y-88901865D01*
X142752646Y-88893500D01*
X142563354Y-88893500D01*
X142530897Y-88900398D01*
X142378197Y-88932855D01*
X142378192Y-88932857D01*
X142205270Y-89009848D01*
X142205265Y-89009851D01*
X142047884Y-89124196D01*
X141982078Y-89147676D01*
X141914024Y-89131850D01*
X141865329Y-89081745D01*
X141850999Y-89023878D01*
X141850999Y-88920028D01*
X141850998Y-88920013D01*
X141840505Y-88817302D01*
X141785358Y-88650880D01*
X141785356Y-88650875D01*
X141693315Y-88501654D01*
X141569344Y-88377683D01*
X141569341Y-88377681D01*
X141566339Y-88375829D01*
X141564713Y-88374021D01*
X141563677Y-88373202D01*
X141563817Y-88373024D01*
X141519617Y-88323880D01*
X141508397Y-88254917D01*
X141536243Y-88190836D01*
X141566344Y-88164754D01*
X141569656Y-88162712D01*
X141693712Y-88038656D01*
X141785814Y-87889334D01*
X141840999Y-87722797D01*
X141840999Y-87722795D01*
X141843128Y-87716371D01*
X141845536Y-87717169D01*
X141873282Y-87665914D01*
X141934482Y-87632205D01*
X141987061Y-87631984D01*
X142055354Y-87646500D01*
X142055356Y-87646500D01*
X142244644Y-87646500D01*
X142244646Y-87646500D01*
X142429803Y-87607144D01*
X142602730Y-87530151D01*
X142755871Y-87418888D01*
X142882533Y-87278216D01*
X142977179Y-87114284D01*
X143035674Y-86934256D01*
X143055460Y-86746000D01*
X143035674Y-86557744D01*
X142981112Y-86389823D01*
X142977181Y-86377722D01*
X142977180Y-86377721D01*
X142977179Y-86377716D01*
X142882533Y-86213784D01*
X142755871Y-86073112D01*
X142755870Y-86073111D01*
X142602734Y-85961851D01*
X142602729Y-85961848D01*
X142429807Y-85884857D01*
X142429802Y-85884855D01*
X142284001Y-85853865D01*
X142244646Y-85845500D01*
X142055354Y-85845500D01*
X142022897Y-85852398D01*
X141870197Y-85884855D01*
X141870192Y-85884857D01*
X141697270Y-85961848D01*
X141697265Y-85961851D01*
X141683548Y-85971818D01*
X141617742Y-85995298D01*
X141610663Y-85995500D01*
X141263705Y-85995500D01*
X141245735Y-85994191D01*
X141221972Y-85990710D01*
X141176533Y-85994686D01*
X141169931Y-85995264D01*
X141164530Y-85995500D01*
X141156289Y-85995500D01*
X141134579Y-85998037D01*
X141123724Y-85999306D01*
X141108419Y-86000645D01*
X141047199Y-86006001D01*
X141040132Y-86007460D01*
X141040120Y-86007404D01*
X141032763Y-86009035D01*
X141032777Y-86009092D01*
X141025743Y-86010759D01*
X140953575Y-86037025D01*
X140880675Y-86061181D01*
X140874126Y-86064236D01*
X140874101Y-86064183D01*
X140867308Y-86067471D01*
X140867334Y-86067523D01*
X140860880Y-86070764D01*
X140796708Y-86112971D01*
X140731347Y-86153285D01*
X140725683Y-86157765D01*
X140725647Y-86157719D01*
X140719798Y-86162484D01*
X140719835Y-86162528D01*
X140714310Y-86167163D01*
X140693730Y-86188976D01*
X140661599Y-86223033D01*
X140631524Y-86253107D01*
X140601449Y-86283182D01*
X140540126Y-86316666D01*
X140513769Y-86319500D01*
X140100998Y-86319500D01*
X140100980Y-86319501D01*
X139998203Y-86330000D01*
X139998200Y-86330001D01*
X139831668Y-86385185D01*
X139831663Y-86385187D01*
X139682342Y-86477289D01*
X139558289Y-86601342D01*
X139466187Y-86750663D01*
X139466185Y-86750668D01*
X139438349Y-86834670D01*
X139411001Y-86917203D01*
X139411001Y-86917204D01*
X139411000Y-86917204D01*
X139400500Y-87019983D01*
X139400500Y-87620001D01*
X139400501Y-87620019D01*
X139411000Y-87722796D01*
X139411001Y-87722799D01*
X139462522Y-87878278D01*
X139466186Y-87889334D01*
X139558288Y-88038656D01*
X139682344Y-88162712D01*
X139685628Y-88164737D01*
X139685653Y-88164753D01*
X139687445Y-88166746D01*
X139688011Y-88167193D01*
X139687934Y-88167289D01*
X139732379Y-88216699D01*
X139743603Y-88285661D01*
X139715761Y-88349744D01*
X139685665Y-88375826D01*
X139682660Y-88377679D01*
X139682655Y-88377683D01*
X139558684Y-88501654D01*
X139466643Y-88650875D01*
X139466641Y-88650880D01*
X139411494Y-88817302D01*
X139411493Y-88817309D01*
X139401000Y-88920013D01*
X139401000Y-88970000D01*
X140752000Y-88970000D01*
X140819039Y-88989685D01*
X140864794Y-89042489D01*
X140876000Y-89094000D01*
X140876000Y-89346000D01*
X140856315Y-89413039D01*
X140803511Y-89458794D01*
X140752000Y-89470000D01*
X139401001Y-89470000D01*
X139401001Y-89519986D01*
X139411494Y-89622697D01*
X139466641Y-89789119D01*
X139466643Y-89789124D01*
X139558684Y-89938345D01*
X139593158Y-89972819D01*
X139626643Y-90034142D01*
X139621659Y-90103834D01*
X139579787Y-90159767D01*
X139514323Y-90184184D01*
X139505477Y-90184500D01*
X137634452Y-90184500D01*
X137567413Y-90164815D01*
X137546771Y-90148181D01*
X137223819Y-89825228D01*
X137190334Y-89763905D01*
X137187500Y-89737547D01*
X137187500Y-88714687D01*
X137207185Y-88647648D01*
X137219350Y-88631715D01*
X137237891Y-88611122D01*
X137294533Y-88548216D01*
X137389179Y-88384284D01*
X137447674Y-88204256D01*
X137467460Y-88016000D01*
X137447674Y-87827744D01*
X137389179Y-87647716D01*
X137294533Y-87483784D01*
X137167871Y-87343112D01*
X137142448Y-87324641D01*
X137014734Y-87231851D01*
X137014729Y-87231848D01*
X136841807Y-87154857D01*
X136841802Y-87154855D01*
X136696000Y-87123865D01*
X136656646Y-87115500D01*
X136467354Y-87115500D01*
X136434897Y-87122398D01*
X136282197Y-87154855D01*
X136282192Y-87154857D01*
X136109270Y-87231848D01*
X136109265Y-87231851D01*
X135956129Y-87343111D01*
X135829466Y-87483785D01*
X135734821Y-87647715D01*
X135734818Y-87647722D01*
X135676327Y-87827740D01*
X135676326Y-87827744D01*
X135656540Y-88016000D01*
X135676326Y-88204256D01*
X135676327Y-88204259D01*
X135734818Y-88384277D01*
X135734821Y-88384284D01*
X135829467Y-88548216D01*
X135872772Y-88596310D01*
X135904650Y-88631715D01*
X135934880Y-88694706D01*
X135936500Y-88714687D01*
X135936500Y-89965255D01*
X135934775Y-89980872D01*
X135935061Y-89980899D01*
X135934326Y-89988665D01*
X135936500Y-90057814D01*
X135936500Y-90087343D01*
X135936501Y-90087360D01*
X135937368Y-90094231D01*
X135937826Y-90100050D01*
X135939290Y-90146624D01*
X135939291Y-90146627D01*
X135944880Y-90165867D01*
X135948824Y-90184911D01*
X135951336Y-90204792D01*
X135957357Y-90219999D01*
X135968490Y-90248119D01*
X135970382Y-90253647D01*
X135983381Y-90298390D01*
X135986479Y-90305548D01*
X135984303Y-90306489D01*
X135998579Y-90362760D01*
X135976419Y-90429023D01*
X135921952Y-90472785D01*
X135852472Y-90480153D01*
X135825404Y-90471950D01*
X135818160Y-90468814D01*
X135812920Y-90466247D01*
X135772093Y-90443803D01*
X135772092Y-90443802D01*
X135752693Y-90438822D01*
X135734281Y-90432518D01*
X135715898Y-90424562D01*
X135715892Y-90424560D01*
X135669874Y-90417272D01*
X135664152Y-90416087D01*
X135619021Y-90404500D01*
X135619019Y-90404500D01*
X135598984Y-90404500D01*
X135579586Y-90402973D01*
X135572162Y-90401797D01*
X135559805Y-90399840D01*
X135559804Y-90399840D01*
X135513416Y-90404225D01*
X135507578Y-90404500D01*
X134885243Y-90404500D01*
X134869622Y-90402775D01*
X134869595Y-90403061D01*
X134861833Y-90402326D01*
X134792672Y-90404500D01*
X134763149Y-90404500D01*
X134756278Y-90405367D01*
X134750459Y-90405825D01*
X134703874Y-90407289D01*
X134703868Y-90407290D01*
X134684626Y-90412880D01*
X134665587Y-90416823D01*
X134645717Y-90419334D01*
X134645703Y-90419337D01*
X134602383Y-90436488D01*
X134596858Y-90438380D01*
X134552113Y-90451380D01*
X134552110Y-90451381D01*
X134534866Y-90461579D01*
X134517405Y-90470133D01*
X134498774Y-90477510D01*
X134498762Y-90477517D01*
X134461070Y-90504902D01*
X134456187Y-90508109D01*
X134416080Y-90531829D01*
X134401914Y-90545995D01*
X134387124Y-90558627D01*
X134370914Y-90570404D01*
X134370911Y-90570407D01*
X134341210Y-90606309D01*
X134337277Y-90610631D01*
X134130313Y-90817595D01*
X134068990Y-90851080D01*
X134008041Y-90848992D01*
X134002569Y-90847402D01*
X134002562Y-90847401D01*
X133965696Y-90844500D01*
X133965694Y-90844500D01*
X133534306Y-90844500D01*
X133534304Y-90844500D01*
X133497432Y-90847401D01*
X133497426Y-90847402D01*
X133339606Y-90893254D01*
X133339603Y-90893255D01*
X133198137Y-90976917D01*
X133198129Y-90976923D01*
X133081923Y-91093129D01*
X133081917Y-91093137D01*
X132998255Y-91234603D01*
X132998254Y-91234606D01*
X132952402Y-91392426D01*
X132952401Y-91392432D01*
X132949500Y-91429304D01*
X132949500Y-92735696D01*
X132952401Y-92772567D01*
X132952402Y-92772573D01*
X132998254Y-92930393D01*
X132998255Y-92930396D01*
X132998256Y-92930398D01*
X133032732Y-92988694D01*
X133050000Y-93051814D01*
X133050000Y-93707500D01*
X133600000Y-93707500D01*
X133600000Y-93444500D01*
X133619685Y-93377461D01*
X133672489Y-93331706D01*
X133724000Y-93320500D01*
X133775500Y-93320500D01*
X133842539Y-93340185D01*
X133888294Y-93392989D01*
X133899500Y-93444500D01*
X133899500Y-94610696D01*
X133902401Y-94647567D01*
X133902402Y-94647573D01*
X133948254Y-94805393D01*
X133948255Y-94805396D01*
X133948256Y-94805398D01*
X133962215Y-94829001D01*
X134031917Y-94946862D01*
X134031923Y-94946870D01*
X134148129Y-95063076D01*
X134148133Y-95063079D01*
X134148135Y-95063081D01*
X134213620Y-95101808D01*
X134261304Y-95152875D01*
X134274500Y-95208540D01*
X134274500Y-95231645D01*
X134254815Y-95298684D01*
X134202011Y-95344439D01*
X134137898Y-95355003D01*
X134039988Y-95345000D01*
X133790000Y-95345000D01*
X133790000Y-96483500D01*
X133770315Y-96550539D01*
X133717511Y-96596294D01*
X133666000Y-96607500D01*
X132340001Y-96607500D01*
X132340001Y-96669986D01*
X132350494Y-96772697D01*
X132405641Y-96939119D01*
X132405643Y-96939124D01*
X132497684Y-97088345D01*
X132591304Y-97181965D01*
X132624789Y-97243288D01*
X132619805Y-97312980D01*
X132591305Y-97357327D01*
X132497287Y-97451345D01*
X132477751Y-97483018D01*
X132448174Y-97530972D01*
X132445321Y-97535597D01*
X132393373Y-97582321D01*
X132339782Y-97594500D01*
X131014499Y-97594500D01*
X130947460Y-97574815D01*
X130901705Y-97522011D01*
X130890499Y-97470500D01*
X130890499Y-97372129D01*
X130890498Y-97372123D01*
X130887636Y-97345500D01*
X130884091Y-97312517D01*
X130882651Y-97308657D01*
X130833797Y-97177671D01*
X130833793Y-97177664D01*
X130747547Y-97062455D01*
X130747544Y-97062452D01*
X130632335Y-96976206D01*
X130632328Y-96976202D01*
X130497482Y-96925908D01*
X130497483Y-96925908D01*
X130437883Y-96919501D01*
X130437881Y-96919500D01*
X130437873Y-96919500D01*
X130437865Y-96919500D01*
X130339500Y-96919500D01*
X130272461Y-96899815D01*
X130226706Y-96847011D01*
X130215500Y-96795500D01*
X130215500Y-96315686D01*
X130235185Y-96248647D01*
X130287989Y-96202892D01*
X130326898Y-96192328D01*
X130333918Y-96191610D01*
X130397775Y-96185087D01*
X130562925Y-96130362D01*
X130711003Y-96039026D01*
X130834026Y-95916003D01*
X130925362Y-95767925D01*
X130980087Y-95602775D01*
X130990500Y-95500848D01*
X130990500Y-94914152D01*
X130980087Y-94812225D01*
X130925362Y-94647075D01*
X130925358Y-94647069D01*
X130925357Y-94647066D01*
X130834028Y-94499000D01*
X130834025Y-94498996D01*
X130711004Y-94375975D01*
X130711003Y-94375974D01*
X130710301Y-94375541D01*
X130709921Y-94375118D01*
X130705336Y-94371493D01*
X130705955Y-94370709D01*
X130663575Y-94323598D01*
X130652349Y-94254636D01*
X130672826Y-94207500D01*
X132000000Y-94207500D01*
X132000000Y-94610644D01*
X132002899Y-94647489D01*
X132002900Y-94647495D01*
X132048716Y-94805193D01*
X132048717Y-94805196D01*
X132132314Y-94946552D01*
X132132321Y-94946561D01*
X132248438Y-95062678D01*
X132248447Y-95062685D01*
X132389803Y-95146282D01*
X132389806Y-95146283D01*
X132547504Y-95192099D01*
X132547510Y-95192100D01*
X132584356Y-95195000D01*
X132683251Y-95195000D01*
X132750290Y-95214685D01*
X132796045Y-95267489D01*
X132805989Y-95336647D01*
X132776964Y-95400203D01*
X132748348Y-95424539D01*
X132621654Y-95502684D01*
X132497684Y-95626654D01*
X132405643Y-95775875D01*
X132405641Y-95775880D01*
X132350494Y-95942302D01*
X132350493Y-95942309D01*
X132340000Y-96045013D01*
X132340000Y-96107500D01*
X133289999Y-96107500D01*
X133289999Y-95345000D01*
X133274429Y-95329430D01*
X133260412Y-95325315D01*
X133214657Y-95272511D01*
X133204713Y-95203353D01*
X133233738Y-95139797D01*
X133264330Y-95114268D01*
X133351553Y-95062684D01*
X133351561Y-95062678D01*
X133467678Y-94946561D01*
X133467685Y-94946552D01*
X133551282Y-94805196D01*
X133551283Y-94805193D01*
X133597099Y-94647495D01*
X133597100Y-94647489D01*
X133600000Y-94610644D01*
X133600000Y-94207500D01*
X132000000Y-94207500D01*
X130672826Y-94207500D01*
X130680188Y-94190552D01*
X130705455Y-94168657D01*
X130705336Y-94168507D01*
X130708687Y-94165856D01*
X130710299Y-94164459D01*
X130711003Y-94164026D01*
X130834026Y-94041003D01*
X130925362Y-93892925D01*
X130980087Y-93727775D01*
X130982158Y-93707500D01*
X132000000Y-93707500D01*
X132550000Y-93707500D01*
X132550000Y-92722703D01*
X132547503Y-92722900D01*
X132389806Y-92768716D01*
X132389803Y-92768717D01*
X132248447Y-92852314D01*
X132248438Y-92852321D01*
X132132321Y-92968438D01*
X132132314Y-92968447D01*
X132048717Y-93109803D01*
X132048716Y-93109806D01*
X132002900Y-93267504D01*
X132002899Y-93267510D01*
X132000000Y-93304356D01*
X132000000Y-93707500D01*
X130982158Y-93707500D01*
X130990500Y-93625848D01*
X130990500Y-93039152D01*
X130980087Y-92937225D01*
X130925362Y-92772075D01*
X130925358Y-92772069D01*
X130925357Y-92772066D01*
X130834028Y-92624000D01*
X130834025Y-92623996D01*
X130711003Y-92500974D01*
X130710999Y-92500971D01*
X130562933Y-92409642D01*
X130562927Y-92409639D01*
X130562925Y-92409638D01*
X130473963Y-92380159D01*
X130397776Y-92354913D01*
X130295855Y-92344500D01*
X130295848Y-92344500D01*
X129284152Y-92344500D01*
X129284144Y-92344500D01*
X129182223Y-92354913D01*
X129017077Y-92409637D01*
X129017066Y-92409642D01*
X128869000Y-92500971D01*
X128868996Y-92500974D01*
X128745973Y-92623997D01*
X128731110Y-92648096D01*
X128679163Y-92694821D01*
X128625571Y-92707000D01*
X128451668Y-92707000D01*
X128384629Y-92687315D01*
X128346130Y-92648097D01*
X128332714Y-92626347D01*
X128332711Y-92626343D01*
X128208657Y-92502289D01*
X128208656Y-92502288D01*
X128079929Y-92422889D01*
X128059336Y-92410187D01*
X128059331Y-92410185D01*
X128014064Y-92395185D01*
X127892797Y-92355001D01*
X127892795Y-92355000D01*
X127790010Y-92344500D01*
X126789998Y-92344500D01*
X126789980Y-92344501D01*
X126687203Y-92355000D01*
X126687200Y-92355001D01*
X126520668Y-92410185D01*
X126520663Y-92410187D01*
X126371342Y-92502289D01*
X126247289Y-92626342D01*
X126155187Y-92775663D01*
X126155185Y-92775668D01*
X126133652Y-92840650D01*
X126100001Y-92942203D01*
X126100001Y-92942204D01*
X126100000Y-92942204D01*
X126089500Y-93044983D01*
X126089500Y-93670001D01*
X126089501Y-93670019D01*
X126100000Y-93772796D01*
X126100001Y-93772799D01*
X126155185Y-93939331D01*
X126155187Y-93939336D01*
X126177414Y-93975372D01*
X126233295Y-94065970D01*
X126247289Y-94088657D01*
X126340951Y-94182319D01*
X126374436Y-94243642D01*
X126369452Y-94313334D01*
X126340951Y-94357681D01*
X126302951Y-94395681D01*
X126241628Y-94429166D01*
X126215270Y-94432000D01*
X125759337Y-94432000D01*
X125692298Y-94412315D01*
X125686452Y-94408318D01*
X125672734Y-94398351D01*
X125672729Y-94398348D01*
X125499807Y-94321357D01*
X125499802Y-94321355D01*
X125330510Y-94285372D01*
X125314646Y-94282000D01*
X125125354Y-94282000D01*
X125109490Y-94285372D01*
X124940197Y-94321355D01*
X124940192Y-94321357D01*
X124924933Y-94328151D01*
X124855682Y-94337435D01*
X124792406Y-94307805D01*
X124755194Y-94248670D01*
X124750499Y-94214871D01*
X124750499Y-94108376D01*
X124750499Y-93989992D01*
X124745324Y-93939336D01*
X124739999Y-93887203D01*
X124739998Y-93887200D01*
X124729005Y-93854025D01*
X124684814Y-93720666D01*
X124592712Y-93571344D01*
X124499048Y-93477680D01*
X124465564Y-93416356D01*
X124470548Y-93346665D01*
X124499045Y-93302322D01*
X124592712Y-93208656D01*
X124684814Y-93059334D01*
X124739999Y-92892797D01*
X124750500Y-92790009D01*
X124750499Y-92164992D01*
X124749159Y-92151878D01*
X124739999Y-92062203D01*
X124739998Y-92062200D01*
X124725320Y-92017904D01*
X124684814Y-91895666D01*
X124592712Y-91746344D01*
X124468656Y-91622288D01*
X124370498Y-91561744D01*
X124319336Y-91530187D01*
X124319331Y-91530185D01*
X124247154Y-91506268D01*
X124152797Y-91475001D01*
X124152795Y-91475000D01*
X124050010Y-91464500D01*
X123049998Y-91464500D01*
X123049980Y-91464501D01*
X122947203Y-91475000D01*
X122947200Y-91475001D01*
X122780668Y-91530185D01*
X122780663Y-91530187D01*
X122631342Y-91622289D01*
X122507287Y-91746344D01*
X122479481Y-91791425D01*
X122427532Y-91838149D01*
X122377840Y-91850266D01*
X122324930Y-91851929D01*
X122322686Y-91852000D01*
X122293149Y-91852000D01*
X122286266Y-91852869D01*
X122280449Y-91853326D01*
X122233873Y-91854790D01*
X122214629Y-91860381D01*
X122195579Y-91864325D01*
X122175711Y-91866834D01*
X122132384Y-91883988D01*
X122126858Y-91885879D01*
X122082114Y-91898879D01*
X122082110Y-91898881D01*
X122064866Y-91909079D01*
X122047405Y-91917633D01*
X122028774Y-91925010D01*
X122028762Y-91925017D01*
X121991070Y-91952402D01*
X121986187Y-91955609D01*
X121946080Y-91979329D01*
X121931914Y-91993495D01*
X121917124Y-92006127D01*
X121900914Y-92017904D01*
X121900911Y-92017907D01*
X121871210Y-92053809D01*
X121867277Y-92058131D01*
X120669573Y-93255835D01*
X120608250Y-93289320D01*
X120538558Y-93284336D01*
X120482625Y-93242464D01*
X120463961Y-93206472D01*
X120407181Y-93031722D01*
X120407180Y-93031721D01*
X120407179Y-93031716D01*
X120312533Y-92867784D01*
X120185871Y-92727112D01*
X120185870Y-92727111D01*
X120032734Y-92615851D01*
X120032729Y-92615848D01*
X119859807Y-92538857D01*
X119859802Y-92538855D01*
X119687767Y-92502289D01*
X119674646Y-92499500D01*
X119485354Y-92499500D01*
X119472233Y-92502289D01*
X119300197Y-92538855D01*
X119300192Y-92538857D01*
X119127270Y-92615848D01*
X119127265Y-92615851D01*
X118974129Y-92727111D01*
X118847466Y-92867785D01*
X118752821Y-93031715D01*
X118752818Y-93031722D01*
X118701244Y-93190452D01*
X118694326Y-93211744D01*
X118688466Y-93267504D01*
X118676678Y-93379651D01*
X118650093Y-93444266D01*
X118641038Y-93454370D01*
X114356208Y-97739199D01*
X114343951Y-97749020D01*
X114344134Y-97749241D01*
X114338123Y-97754213D01*
X114290772Y-97804636D01*
X114269889Y-97825519D01*
X114269877Y-97825532D01*
X114265621Y-97831017D01*
X114261837Y-97835447D01*
X114229937Y-97869418D01*
X114229936Y-97869420D01*
X114220284Y-97886976D01*
X114209610Y-97903226D01*
X114197329Y-97919061D01*
X114197324Y-97919068D01*
X114178815Y-97961838D01*
X114176245Y-97967084D01*
X114153803Y-98007906D01*
X114148822Y-98027307D01*
X114142521Y-98045710D01*
X114134562Y-98064102D01*
X114134561Y-98064105D01*
X114127271Y-98110127D01*
X114126087Y-98115846D01*
X114114501Y-98160972D01*
X114114500Y-98160982D01*
X114114500Y-98181016D01*
X114112973Y-98200415D01*
X114109840Y-98220194D01*
X114109840Y-98220195D01*
X106389157Y-98220195D01*
X106325518Y-88727870D01*
X121869500Y-88727870D01*
X121869501Y-88727876D01*
X121875908Y-88787483D01*
X121926202Y-88922328D01*
X121926206Y-88922335D01*
X122012452Y-89037544D01*
X122012455Y-89037547D01*
X122127664Y-89123793D01*
X122127671Y-89123797D01*
X122262517Y-89174091D01*
X122262516Y-89174091D01*
X122269444Y-89174835D01*
X122322127Y-89180500D01*
X125417872Y-89180499D01*
X125477483Y-89174091D01*
X125612331Y-89123796D01*
X125727546Y-89037546D01*
X125813796Y-88922331D01*
X125864091Y-88787483D01*
X125870500Y-88727873D01*
X125870500Y-87180001D01*
X126944891Y-87180001D01*
X126965300Y-87465362D01*
X127026109Y-87744895D01*
X127126091Y-88012958D01*
X127263191Y-88264038D01*
X127263196Y-88264046D01*
X127369882Y-88406561D01*
X127369883Y-88406562D01*
X128154520Y-87621924D01*
X128215843Y-87588439D01*
X128285534Y-87593423D01*
X128341468Y-87635294D01*
X128341664Y-87635557D01*
X128393433Y-87705094D01*
X128499125Y-87793781D01*
X128537827Y-87851952D01*
X128538935Y-87921813D01*
X128507100Y-87976451D01*
X127723436Y-88760114D01*
X127723436Y-88760115D01*
X127865960Y-88866807D01*
X127865961Y-88866808D01*
X128117042Y-89003908D01*
X128117041Y-89003908D01*
X128385104Y-89103890D01*
X128664637Y-89164699D01*
X128949999Y-89185109D01*
X128950001Y-89185109D01*
X129235362Y-89164699D01*
X129514895Y-89103890D01*
X129782958Y-89003908D01*
X130034047Y-88866803D01*
X130176561Y-88760116D01*
X130176562Y-88760115D01*
X129393095Y-87976648D01*
X129359610Y-87915325D01*
X129364594Y-87845633D01*
X129406466Y-87789700D01*
X129412638Y-87785366D01*
X129441844Y-87766157D01*
X129563764Y-87636930D01*
X129563764Y-87636929D01*
X129568720Y-87631677D01*
X129570222Y-87633094D01*
X129617836Y-87597243D01*
X129687514Y-87592063D01*
X129748931Y-87625377D01*
X129749176Y-87625622D01*
X130530115Y-88406562D01*
X130530116Y-88406561D01*
X130636803Y-88264047D01*
X130773908Y-88012958D01*
X130873890Y-87744895D01*
X130934699Y-87465362D01*
X130955108Y-87180001D01*
X130955108Y-87179998D01*
X130934699Y-86894637D01*
X130873890Y-86615104D01*
X130773908Y-86347041D01*
X130636808Y-86095961D01*
X130636807Y-86095960D01*
X130530115Y-85953436D01*
X129745478Y-86738074D01*
X129684155Y-86771559D01*
X129614463Y-86766575D01*
X129558530Y-86724703D01*
X129558334Y-86724441D01*
X129506566Y-86654905D01*
X129463248Y-86618557D01*
X129400871Y-86566215D01*
X129362170Y-86508046D01*
X129361062Y-86438185D01*
X129392897Y-86383547D01*
X130176562Y-85599883D01*
X130176561Y-85599882D01*
X130034046Y-85493196D01*
X130034038Y-85493191D01*
X129782957Y-85356091D01*
X129782958Y-85356091D01*
X129514895Y-85256109D01*
X129235362Y-85195300D01*
X128950001Y-85174891D01*
X128949999Y-85174891D01*
X128664637Y-85195300D01*
X128385104Y-85256109D01*
X128117041Y-85356091D01*
X127865961Y-85493191D01*
X127865953Y-85493196D01*
X127723436Y-85599882D01*
X127723436Y-85599883D01*
X128506904Y-86383351D01*
X128540389Y-86444674D01*
X128535405Y-86514366D01*
X128493533Y-86570299D01*
X128487365Y-86574631D01*
X128458155Y-86593843D01*
X128331280Y-86728323D01*
X128329782Y-86726910D01*
X128282125Y-86762770D01*
X128212446Y-86767927D01*
X128151040Y-86734594D01*
X128150823Y-86734377D01*
X127369883Y-85953436D01*
X127369882Y-85953437D01*
X127263196Y-86095953D01*
X127263191Y-86095961D01*
X127126091Y-86347041D01*
X127026109Y-86615104D01*
X126965300Y-86894637D01*
X126944891Y-87179998D01*
X126944891Y-87180001D01*
X125870500Y-87180001D01*
X125870499Y-85632128D01*
X125864091Y-85572517D01*
X125834506Y-85493196D01*
X125813797Y-85437671D01*
X125813793Y-85437664D01*
X125727547Y-85322455D01*
X125727544Y-85322452D01*
X125612335Y-85236206D01*
X125612328Y-85236202D01*
X125477482Y-85185908D01*
X125477483Y-85185908D01*
X125417883Y-85179501D01*
X125417881Y-85179500D01*
X125417873Y-85179500D01*
X125417864Y-85179500D01*
X122322129Y-85179500D01*
X122322123Y-85179501D01*
X122262516Y-85185908D01*
X122127671Y-85236202D01*
X122127664Y-85236206D01*
X122012455Y-85322452D01*
X122012452Y-85322455D01*
X121926206Y-85437664D01*
X121926202Y-85437671D01*
X121875908Y-85572517D01*
X121869501Y-85632116D01*
X121869501Y-85632123D01*
X121869500Y-85632135D01*
X121869500Y-88727870D01*
X106325518Y-88727870D01*
X106304764Y-85632129D01*
X106290837Y-83554831D01*
X106310071Y-83487661D01*
X106362568Y-83441554D01*
X106414834Y-83430000D01*
X181666000Y-83430000D01*
X181733039Y-83449685D01*
G37*
%TD.AperFunction*%
%TD*%
M02*
