%TF.GenerationSoftware,KiCad,Pcbnew,7.0.7*%
%TF.CreationDate,2024-03-31T21:20:54-04:00*%
%TF.ProjectId,4ch-driver-v0,3463682d-6472-4697-9665-722d76302e6b,rev?*%
%TF.SameCoordinates,Original*%
%TF.FileFunction,Paste,Bot*%
%TF.FilePolarity,Positive*%
%FSLAX46Y46*%
G04 Gerber Fmt 4.6, Leading zero omitted, Abs format (unit mm)*
G04 Created by KiCad (PCBNEW 7.0.7) date 2024-03-31 21:20:54*
%MOMM*%
%LPD*%
G01*
G04 APERTURE LIST*
G04 Aperture macros list*
%AMRoundRect*
0 Rectangle with rounded corners*
0 $1 Rounding radius*
0 $2 $3 $4 $5 $6 $7 $8 $9 X,Y pos of 4 corners*
0 Add a 4 corners polygon primitive as box body*
4,1,4,$2,$3,$4,$5,$6,$7,$8,$9,$2,$3,0*
0 Add four circle primitives for the rounded corners*
1,1,$1+$1,$2,$3*
1,1,$1+$1,$4,$5*
1,1,$1+$1,$6,$7*
1,1,$1+$1,$8,$9*
0 Add four rect primitives between the rounded corners*
20,1,$1+$1,$2,$3,$4,$5,0*
20,1,$1+$1,$4,$5,$6,$7,0*
20,1,$1+$1,$6,$7,$8,$9,0*
20,1,$1+$1,$8,$9,$2,$3,0*%
G04 Aperture macros list end*
%ADD10C,0.010000*%
%ADD11RoundRect,0.250000X0.475000X-0.250000X0.475000X0.250000X-0.475000X0.250000X-0.475000X-0.250000X0*%
%ADD12RoundRect,0.250000X0.450000X-0.262500X0.450000X0.262500X-0.450000X0.262500X-0.450000X-0.262500X0*%
%ADD13R,1.200000X1.200000*%
%ADD14RoundRect,0.150000X0.150000X-0.587500X0.150000X0.587500X-0.150000X0.587500X-0.150000X-0.587500X0*%
%ADD15RoundRect,0.243750X0.456250X-0.243750X0.456250X0.243750X-0.456250X0.243750X-0.456250X-0.243750X0*%
%ADD16RoundRect,0.243750X0.243750X0.456250X-0.243750X0.456250X-0.243750X-0.456250X0.243750X-0.456250X0*%
%ADD17RoundRect,0.243750X-0.243750X-0.456250X0.243750X-0.456250X0.243750X0.456250X-0.243750X0.456250X0*%
%ADD18RoundRect,0.250000X0.325000X1.100000X-0.325000X1.100000X-0.325000X-1.100000X0.325000X-1.100000X0*%
%ADD19RoundRect,0.250000X-0.450000X0.262500X-0.450000X-0.262500X0.450000X-0.262500X0.450000X0.262500X0*%
G04 APERTURE END LIST*
%TO.C,U6*%
D10*
X157343000Y-104285000D02*
X157093000Y-104285000D01*
X157093000Y-102735000D01*
X157343000Y-102735000D01*
X157343000Y-104285000D01*
G36*
X157343000Y-104285000D02*
G01*
X157093000Y-104285000D01*
X157093000Y-102735000D01*
X157343000Y-102735000D01*
X157343000Y-104285000D01*
G37*
X157993000Y-104285000D02*
X157743000Y-104285000D01*
X157743000Y-102735000D01*
X157993000Y-102735000D01*
X157993000Y-104285000D01*
G36*
X157993000Y-104285000D02*
G01*
X157743000Y-104285000D01*
X157743000Y-102735000D01*
X157993000Y-102735000D01*
X157993000Y-104285000D01*
G37*
X158643000Y-104285000D02*
X158393000Y-104285000D01*
X158393000Y-102735000D01*
X158643000Y-102735000D01*
X158643000Y-104285000D01*
G36*
X158643000Y-104285000D02*
G01*
X158393000Y-104285000D01*
X158393000Y-102735000D01*
X158643000Y-102735000D01*
X158643000Y-104285000D01*
G37*
X159293000Y-104285000D02*
X159043000Y-104285000D01*
X159043000Y-102735000D01*
X159293000Y-102735000D01*
X159293000Y-104285000D01*
G36*
X159293000Y-104285000D02*
G01*
X159043000Y-104285000D01*
X159043000Y-102735000D01*
X159293000Y-102735000D01*
X159293000Y-104285000D01*
G37*
X159943000Y-104285000D02*
X159693000Y-104285000D01*
X159693000Y-102735000D01*
X159943000Y-102735000D01*
X159943000Y-104285000D01*
G36*
X159943000Y-104285000D02*
G01*
X159693000Y-104285000D01*
X159693000Y-102735000D01*
X159943000Y-102735000D01*
X159943000Y-104285000D01*
G37*
X160593000Y-104285000D02*
X160343000Y-104285000D01*
X160343000Y-102735000D01*
X160593000Y-102735000D01*
X160593000Y-104285000D01*
G36*
X160593000Y-104285000D02*
G01*
X160343000Y-104285000D01*
X160343000Y-102735000D01*
X160593000Y-102735000D01*
X160593000Y-104285000D01*
G37*
X161243000Y-104285000D02*
X160993000Y-104285000D01*
X160993000Y-102735000D01*
X161243000Y-102735000D01*
X161243000Y-104285000D01*
G36*
X161243000Y-104285000D02*
G01*
X160993000Y-104285000D01*
X160993000Y-102735000D01*
X161243000Y-102735000D01*
X161243000Y-104285000D01*
G37*
X160323000Y-101940000D02*
X158013000Y-101940000D01*
X158013000Y-99480000D01*
X160323000Y-99480000D01*
X160323000Y-101940000D01*
G36*
X160323000Y-101940000D02*
G01*
X158013000Y-101940000D01*
X158013000Y-99480000D01*
X160323000Y-99480000D01*
X160323000Y-101940000D01*
G37*
X157343000Y-98685000D02*
X157093000Y-98685000D01*
X157093000Y-97135000D01*
X157343000Y-97135000D01*
X157343000Y-98685000D01*
G36*
X157343000Y-98685000D02*
G01*
X157093000Y-98685000D01*
X157093000Y-97135000D01*
X157343000Y-97135000D01*
X157343000Y-98685000D01*
G37*
X157993000Y-98685000D02*
X157743000Y-98685000D01*
X157743000Y-97135000D01*
X157993000Y-97135000D01*
X157993000Y-98685000D01*
G36*
X157993000Y-98685000D02*
G01*
X157743000Y-98685000D01*
X157743000Y-97135000D01*
X157993000Y-97135000D01*
X157993000Y-98685000D01*
G37*
X158643000Y-98685000D02*
X158393000Y-98685000D01*
X158393000Y-97135000D01*
X158643000Y-97135000D01*
X158643000Y-98685000D01*
G36*
X158643000Y-98685000D02*
G01*
X158393000Y-98685000D01*
X158393000Y-97135000D01*
X158643000Y-97135000D01*
X158643000Y-98685000D01*
G37*
X159293000Y-98685000D02*
X159043000Y-98685000D01*
X159043000Y-97135000D01*
X159293000Y-97135000D01*
X159293000Y-98685000D01*
G36*
X159293000Y-98685000D02*
G01*
X159043000Y-98685000D01*
X159043000Y-97135000D01*
X159293000Y-97135000D01*
X159293000Y-98685000D01*
G37*
X159943000Y-98685000D02*
X159693000Y-98685000D01*
X159693000Y-97135000D01*
X159943000Y-97135000D01*
X159943000Y-98685000D01*
G36*
X159943000Y-98685000D02*
G01*
X159693000Y-98685000D01*
X159693000Y-97135000D01*
X159943000Y-97135000D01*
X159943000Y-98685000D01*
G37*
X160593000Y-98685000D02*
X160343000Y-98685000D01*
X160343000Y-97135000D01*
X160593000Y-97135000D01*
X160593000Y-98685000D01*
G36*
X160593000Y-98685000D02*
G01*
X160343000Y-98685000D01*
X160343000Y-97135000D01*
X160593000Y-97135000D01*
X160593000Y-98685000D01*
G37*
X161243000Y-98685000D02*
X160993000Y-98685000D01*
X160993000Y-97135000D01*
X161243000Y-97135000D01*
X161243000Y-98685000D01*
G36*
X161243000Y-98685000D02*
G01*
X160993000Y-98685000D01*
X160993000Y-97135000D01*
X161243000Y-97135000D01*
X161243000Y-98685000D01*
G37*
%TO.C,U1*%
X126465000Y-104595000D02*
X126215000Y-104595000D01*
X126215000Y-103045000D01*
X126465000Y-103045000D01*
X126465000Y-104595000D01*
G36*
X126465000Y-104595000D02*
G01*
X126215000Y-104595000D01*
X126215000Y-103045000D01*
X126465000Y-103045000D01*
X126465000Y-104595000D01*
G37*
X127115000Y-104595000D02*
X126865000Y-104595000D01*
X126865000Y-103045000D01*
X127115000Y-103045000D01*
X127115000Y-104595000D01*
G36*
X127115000Y-104595000D02*
G01*
X126865000Y-104595000D01*
X126865000Y-103045000D01*
X127115000Y-103045000D01*
X127115000Y-104595000D01*
G37*
X127765000Y-104595000D02*
X127515000Y-104595000D01*
X127515000Y-103045000D01*
X127765000Y-103045000D01*
X127765000Y-104595000D01*
G36*
X127765000Y-104595000D02*
G01*
X127515000Y-104595000D01*
X127515000Y-103045000D01*
X127765000Y-103045000D01*
X127765000Y-104595000D01*
G37*
X128415000Y-104595000D02*
X128165000Y-104595000D01*
X128165000Y-103045000D01*
X128415000Y-103045000D01*
X128415000Y-104595000D01*
G36*
X128415000Y-104595000D02*
G01*
X128165000Y-104595000D01*
X128165000Y-103045000D01*
X128415000Y-103045000D01*
X128415000Y-104595000D01*
G37*
X129065000Y-104595000D02*
X128815000Y-104595000D01*
X128815000Y-103045000D01*
X129065000Y-103045000D01*
X129065000Y-104595000D01*
G36*
X129065000Y-104595000D02*
G01*
X128815000Y-104595000D01*
X128815000Y-103045000D01*
X129065000Y-103045000D01*
X129065000Y-104595000D01*
G37*
X129715000Y-104595000D02*
X129465000Y-104595000D01*
X129465000Y-103045000D01*
X129715000Y-103045000D01*
X129715000Y-104595000D01*
G36*
X129715000Y-104595000D02*
G01*
X129465000Y-104595000D01*
X129465000Y-103045000D01*
X129715000Y-103045000D01*
X129715000Y-104595000D01*
G37*
X130365000Y-104595000D02*
X130115000Y-104595000D01*
X130115000Y-103045000D01*
X130365000Y-103045000D01*
X130365000Y-104595000D01*
G36*
X130365000Y-104595000D02*
G01*
X130115000Y-104595000D01*
X130115000Y-103045000D01*
X130365000Y-103045000D01*
X130365000Y-104595000D01*
G37*
X129445000Y-102250000D02*
X127135000Y-102250000D01*
X127135000Y-99790000D01*
X129445000Y-99790000D01*
X129445000Y-102250000D01*
G36*
X129445000Y-102250000D02*
G01*
X127135000Y-102250000D01*
X127135000Y-99790000D01*
X129445000Y-99790000D01*
X129445000Y-102250000D01*
G37*
X126465000Y-98995000D02*
X126215000Y-98995000D01*
X126215000Y-97445000D01*
X126465000Y-97445000D01*
X126465000Y-98995000D01*
G36*
X126465000Y-98995000D02*
G01*
X126215000Y-98995000D01*
X126215000Y-97445000D01*
X126465000Y-97445000D01*
X126465000Y-98995000D01*
G37*
X127115000Y-98995000D02*
X126865000Y-98995000D01*
X126865000Y-97445000D01*
X127115000Y-97445000D01*
X127115000Y-98995000D01*
G36*
X127115000Y-98995000D02*
G01*
X126865000Y-98995000D01*
X126865000Y-97445000D01*
X127115000Y-97445000D01*
X127115000Y-98995000D01*
G37*
X127765000Y-98995000D02*
X127515000Y-98995000D01*
X127515000Y-97445000D01*
X127765000Y-97445000D01*
X127765000Y-98995000D01*
G36*
X127765000Y-98995000D02*
G01*
X127515000Y-98995000D01*
X127515000Y-97445000D01*
X127765000Y-97445000D01*
X127765000Y-98995000D01*
G37*
X128415000Y-98995000D02*
X128165000Y-98995000D01*
X128165000Y-97445000D01*
X128415000Y-97445000D01*
X128415000Y-98995000D01*
G36*
X128415000Y-98995000D02*
G01*
X128165000Y-98995000D01*
X128165000Y-97445000D01*
X128415000Y-97445000D01*
X128415000Y-98995000D01*
G37*
X129065000Y-98995000D02*
X128815000Y-98995000D01*
X128815000Y-97445000D01*
X129065000Y-97445000D01*
X129065000Y-98995000D01*
G36*
X129065000Y-98995000D02*
G01*
X128815000Y-98995000D01*
X128815000Y-97445000D01*
X129065000Y-97445000D01*
X129065000Y-98995000D01*
G37*
X129715000Y-98995000D02*
X129465000Y-98995000D01*
X129465000Y-97445000D01*
X129715000Y-97445000D01*
X129715000Y-98995000D01*
G36*
X129715000Y-98995000D02*
G01*
X129465000Y-98995000D01*
X129465000Y-97445000D01*
X129715000Y-97445000D01*
X129715000Y-98995000D01*
G37*
X130365000Y-98995000D02*
X130115000Y-98995000D01*
X130115000Y-97445000D01*
X130365000Y-97445000D01*
X130365000Y-98995000D01*
G36*
X130365000Y-98995000D02*
G01*
X130115000Y-98995000D01*
X130115000Y-97445000D01*
X130365000Y-97445000D01*
X130365000Y-98995000D01*
G37*
%TD*%
D11*
%TO.C,C3*%
X124310000Y-108940000D03*
X124310000Y-107040000D03*
%TD*%
D12*
%TO.C,R17*%
X164418000Y-98402500D03*
X164418000Y-96577500D03*
%TD*%
%TO.C,R19*%
X157898000Y-108486500D03*
X157898000Y-106661500D03*
%TD*%
D13*
%TO.C,D10*%
X155525500Y-103610000D03*
X152725500Y-103610000D03*
%TD*%
D12*
%TO.C,R6*%
X127240000Y-109222500D03*
X127240000Y-107397500D03*
%TD*%
D14*
%TO.C,Q1*%
X134700000Y-93957500D03*
X132800000Y-93957500D03*
X133750000Y-92082500D03*
%TD*%
D11*
%TO.C,C18*%
X174330000Y-89210000D03*
X174330000Y-87310000D03*
%TD*%
D12*
%TO.C,R21*%
X154596000Y-94516500D03*
X154596000Y-92691500D03*
%TD*%
%TO.C,R1*%
X123550000Y-94302500D03*
X123550000Y-92477500D03*
%TD*%
D15*
%TO.C,D2*%
X129790000Y-95207500D03*
X129790000Y-93332500D03*
%TD*%
D12*
%TO.C,R3*%
X127290000Y-95182500D03*
X127290000Y-93357500D03*
%TD*%
D11*
%TO.C,C10*%
X140626000Y-89220000D03*
X140626000Y-87320000D03*
%TD*%
%TO.C,C2*%
X129800000Y-109300000D03*
X129800000Y-107400000D03*
%TD*%
D13*
%TO.C,D3*%
X124337500Y-103920000D03*
X121537500Y-103920000D03*
%TD*%
D16*
%TO.C,D1*%
X129317500Y-112180000D03*
X127442500Y-112180000D03*
%TD*%
D12*
%TO.C,R18*%
X163232000Y-107470500D03*
X163232000Y-105645500D03*
%TD*%
D17*
%TO.C,D11*%
X169660500Y-111892000D03*
X171535500Y-111892000D03*
%TD*%
D16*
%TO.C,D12*%
X160665500Y-112100000D03*
X158790500Y-112100000D03*
%TD*%
%TO.C,D4*%
X119157500Y-112130000D03*
X117282500Y-112130000D03*
%TD*%
D12*
%TO.C,R5*%
X132540000Y-107832500D03*
X132540000Y-106007500D03*
%TD*%
D11*
%TO.C,C15*%
X155188000Y-108630000D03*
X155188000Y-106730000D03*
%TD*%
D18*
%TO.C,C4*%
X123515000Y-98270000D03*
X120565000Y-98270000D03*
%TD*%
D11*
%TO.C,C17*%
X165518000Y-89220000D03*
X165518000Y-87320000D03*
%TD*%
D12*
%TO.C,R16*%
X158168000Y-94872500D03*
X158168000Y-93047500D03*
%TD*%
D11*
%TO.C,C14*%
X160668000Y-108778000D03*
X160668000Y-106878000D03*
%TD*%
D14*
%TO.C,Q4*%
X165578000Y-94287500D03*
X163678000Y-94287500D03*
X164628000Y-92412500D03*
%TD*%
D15*
%TO.C,D9*%
X160668000Y-94897500D03*
X160668000Y-93022500D03*
%TD*%
D18*
%TO.C,C16*%
X154393000Y-97960000D03*
X151443000Y-97960000D03*
%TD*%
D19*
%TO.C,R4*%
X133540000Y-96357500D03*
X133540000Y-98182500D03*
%TD*%
M02*
