%TF.GenerationSoftware,KiCad,Pcbnew,7.0.7*%
%TF.CreationDate,2024-03-31T21:20:54-04:00*%
%TF.ProjectId,4ch-driver-v0,3463682d-6472-4697-9665-722d76302e6b,rev?*%
%TF.SameCoordinates,Original*%
%TF.FileFunction,Paste,Top*%
%TF.FilePolarity,Positive*%
%FSLAX46Y46*%
G04 Gerber Fmt 4.6, Leading zero omitted, Abs format (unit mm)*
G04 Created by KiCad (PCBNEW 7.0.7) date 2024-03-31 21:20:54*
%MOMM*%
%LPD*%
G01*
G04 APERTURE LIST*
G04 Aperture macros list*
%AMRoundRect*
0 Rectangle with rounded corners*
0 $1 Rounding radius*
0 $2 $3 $4 $5 $6 $7 $8 $9 X,Y pos of 4 corners*
0 Add a 4 corners polygon primitive as box body*
4,1,4,$2,$3,$4,$5,$6,$7,$8,$9,$2,$3,0*
0 Add four circle primitives for the rounded corners*
1,1,$1+$1,$2,$3*
1,1,$1+$1,$4,$5*
1,1,$1+$1,$6,$7*
1,1,$1+$1,$8,$9*
0 Add four rect primitives between the rounded corners*
20,1,$1+$1,$2,$3,$4,$5,0*
20,1,$1+$1,$4,$5,$6,$7,0*
20,1,$1+$1,$6,$7,$8,$9,0*
20,1,$1+$1,$8,$9,$2,$3,0*%
G04 Aperture macros list end*
%ADD10C,0.010000*%
%ADD11RoundRect,0.250000X-0.262500X-0.450000X0.262500X-0.450000X0.262500X0.450000X-0.262500X0.450000X0*%
%ADD12RoundRect,0.250000X-1.100000X0.325000X-1.100000X-0.325000X1.100000X-0.325000X1.100000X0.325000X0*%
%ADD13R,0.800000X0.300000*%
%ADD14RoundRect,0.243750X-0.243750X-0.456250X0.243750X-0.456250X0.243750X0.456250X-0.243750X0.456250X0*%
%ADD15RoundRect,0.250000X-0.450000X0.262500X-0.450000X-0.262500X0.450000X-0.262500X0.450000X0.262500X0*%
%ADD16RoundRect,0.250000X-0.250000X-0.475000X0.250000X-0.475000X0.250000X0.475000X-0.250000X0.475000X0*%
%ADD17RoundRect,0.250000X0.712500X2.475000X-0.712500X2.475000X-0.712500X-2.475000X0.712500X-2.475000X0*%
%ADD18R,1.200000X1.200000*%
%ADD19RoundRect,0.150000X-0.587500X-0.150000X0.587500X-0.150000X0.587500X0.150000X-0.587500X0.150000X0*%
%ADD20RoundRect,0.150000X-0.512500X-0.150000X0.512500X-0.150000X0.512500X0.150000X-0.512500X0.150000X0*%
%ADD21RoundRect,0.250000X0.325000X1.100000X-0.325000X1.100000X-0.325000X-1.100000X0.325000X-1.100000X0*%
%ADD22RoundRect,0.250000X-0.475000X0.250000X-0.475000X-0.250000X0.475000X-0.250000X0.475000X0.250000X0*%
%ADD23RoundRect,0.250000X0.875000X1.025000X-0.875000X1.025000X-0.875000X-1.025000X0.875000X-1.025000X0*%
%ADD24R,1.500000X2.000000*%
%ADD25R,3.800000X2.000000*%
G04 APERTURE END LIST*
%TO.C,U3*%
D10*
X115275000Y-101305000D02*
X113725000Y-101305000D01*
X113725000Y-101055000D01*
X115275000Y-101055000D01*
X115275000Y-101305000D01*
G36*
X115275000Y-101305000D02*
G01*
X113725000Y-101305000D01*
X113725000Y-101055000D01*
X115275000Y-101055000D01*
X115275000Y-101305000D01*
G37*
X115275000Y-101955000D02*
X113725000Y-101955000D01*
X113725000Y-101705000D01*
X115275000Y-101705000D01*
X115275000Y-101955000D01*
G36*
X115275000Y-101955000D02*
G01*
X113725000Y-101955000D01*
X113725000Y-101705000D01*
X115275000Y-101705000D01*
X115275000Y-101955000D01*
G37*
X115275000Y-102605000D02*
X113725000Y-102605000D01*
X113725000Y-102355000D01*
X115275000Y-102355000D01*
X115275000Y-102605000D01*
G36*
X115275000Y-102605000D02*
G01*
X113725000Y-102605000D01*
X113725000Y-102355000D01*
X115275000Y-102355000D01*
X115275000Y-102605000D01*
G37*
X115275000Y-103255000D02*
X113725000Y-103255000D01*
X113725000Y-103005000D01*
X115275000Y-103005000D01*
X115275000Y-103255000D01*
G36*
X115275000Y-103255000D02*
G01*
X113725000Y-103255000D01*
X113725000Y-103005000D01*
X115275000Y-103005000D01*
X115275000Y-103255000D01*
G37*
X115275000Y-103905000D02*
X113725000Y-103905000D01*
X113725000Y-103655000D01*
X115275000Y-103655000D01*
X115275000Y-103905000D01*
G36*
X115275000Y-103905000D02*
G01*
X113725000Y-103905000D01*
X113725000Y-103655000D01*
X115275000Y-103655000D01*
X115275000Y-103905000D01*
G37*
X115275000Y-104555000D02*
X113725000Y-104555000D01*
X113725000Y-104305000D01*
X115275000Y-104305000D01*
X115275000Y-104555000D01*
G36*
X115275000Y-104555000D02*
G01*
X113725000Y-104555000D01*
X113725000Y-104305000D01*
X115275000Y-104305000D01*
X115275000Y-104555000D01*
G37*
X115275000Y-105205000D02*
X113725000Y-105205000D01*
X113725000Y-104955000D01*
X115275000Y-104955000D01*
X115275000Y-105205000D01*
G36*
X115275000Y-105205000D02*
G01*
X113725000Y-105205000D01*
X113725000Y-104955000D01*
X115275000Y-104955000D01*
X115275000Y-105205000D01*
G37*
X118530000Y-104285000D02*
X116070000Y-104285000D01*
X116070000Y-101975000D01*
X118530000Y-101975000D01*
X118530000Y-104285000D01*
G36*
X118530000Y-104285000D02*
G01*
X116070000Y-104285000D01*
X116070000Y-101975000D01*
X118530000Y-101975000D01*
X118530000Y-104285000D01*
G37*
X120875000Y-101305000D02*
X119325000Y-101305000D01*
X119325000Y-101055000D01*
X120875000Y-101055000D01*
X120875000Y-101305000D01*
G36*
X120875000Y-101305000D02*
G01*
X119325000Y-101305000D01*
X119325000Y-101055000D01*
X120875000Y-101055000D01*
X120875000Y-101305000D01*
G37*
X120875000Y-101955000D02*
X119325000Y-101955000D01*
X119325000Y-101705000D01*
X120875000Y-101705000D01*
X120875000Y-101955000D01*
G36*
X120875000Y-101955000D02*
G01*
X119325000Y-101955000D01*
X119325000Y-101705000D01*
X120875000Y-101705000D01*
X120875000Y-101955000D01*
G37*
X120875000Y-102605000D02*
X119325000Y-102605000D01*
X119325000Y-102355000D01*
X120875000Y-102355000D01*
X120875000Y-102605000D01*
G36*
X120875000Y-102605000D02*
G01*
X119325000Y-102605000D01*
X119325000Y-102355000D01*
X120875000Y-102355000D01*
X120875000Y-102605000D01*
G37*
X120875000Y-103255000D02*
X119325000Y-103255000D01*
X119325000Y-103005000D01*
X120875000Y-103005000D01*
X120875000Y-103255000D01*
G36*
X120875000Y-103255000D02*
G01*
X119325000Y-103255000D01*
X119325000Y-103005000D01*
X120875000Y-103005000D01*
X120875000Y-103255000D01*
G37*
X120875000Y-103905000D02*
X119325000Y-103905000D01*
X119325000Y-103655000D01*
X120875000Y-103655000D01*
X120875000Y-103905000D01*
G36*
X120875000Y-103905000D02*
G01*
X119325000Y-103905000D01*
X119325000Y-103655000D01*
X120875000Y-103655000D01*
X120875000Y-103905000D01*
G37*
X120875000Y-104555000D02*
X119325000Y-104555000D01*
X119325000Y-104305000D01*
X120875000Y-104305000D01*
X120875000Y-104555000D01*
G36*
X120875000Y-104555000D02*
G01*
X119325000Y-104555000D01*
X119325000Y-104305000D01*
X120875000Y-104305000D01*
X120875000Y-104555000D01*
G37*
X120875000Y-105205000D02*
X119325000Y-105205000D01*
X119325000Y-104955000D01*
X120875000Y-104955000D01*
X120875000Y-105205000D01*
G36*
X120875000Y-105205000D02*
G01*
X119325000Y-105205000D01*
X119325000Y-104955000D01*
X120875000Y-104955000D01*
X120875000Y-105205000D01*
G37*
%TO.C,U5*%
X169069000Y-99399000D02*
X167519000Y-99399000D01*
X167519000Y-99149000D01*
X169069000Y-99149000D01*
X169069000Y-99399000D01*
G36*
X169069000Y-99399000D02*
G01*
X167519000Y-99399000D01*
X167519000Y-99149000D01*
X169069000Y-99149000D01*
X169069000Y-99399000D01*
G37*
X169069000Y-100049000D02*
X167519000Y-100049000D01*
X167519000Y-99799000D01*
X169069000Y-99799000D01*
X169069000Y-100049000D01*
G36*
X169069000Y-100049000D02*
G01*
X167519000Y-100049000D01*
X167519000Y-99799000D01*
X169069000Y-99799000D01*
X169069000Y-100049000D01*
G37*
X169069000Y-100699000D02*
X167519000Y-100699000D01*
X167519000Y-100449000D01*
X169069000Y-100449000D01*
X169069000Y-100699000D01*
G36*
X169069000Y-100699000D02*
G01*
X167519000Y-100699000D01*
X167519000Y-100449000D01*
X169069000Y-100449000D01*
X169069000Y-100699000D01*
G37*
X169069000Y-101349000D02*
X167519000Y-101349000D01*
X167519000Y-101099000D01*
X169069000Y-101099000D01*
X169069000Y-101349000D01*
G36*
X169069000Y-101349000D02*
G01*
X167519000Y-101349000D01*
X167519000Y-101099000D01*
X169069000Y-101099000D01*
X169069000Y-101349000D01*
G37*
X169069000Y-101999000D02*
X167519000Y-101999000D01*
X167519000Y-101749000D01*
X169069000Y-101749000D01*
X169069000Y-101999000D01*
G36*
X169069000Y-101999000D02*
G01*
X167519000Y-101999000D01*
X167519000Y-101749000D01*
X169069000Y-101749000D01*
X169069000Y-101999000D01*
G37*
X169069000Y-102649000D02*
X167519000Y-102649000D01*
X167519000Y-102399000D01*
X169069000Y-102399000D01*
X169069000Y-102649000D01*
G36*
X169069000Y-102649000D02*
G01*
X167519000Y-102649000D01*
X167519000Y-102399000D01*
X169069000Y-102399000D01*
X169069000Y-102649000D01*
G37*
X169069000Y-103299000D02*
X167519000Y-103299000D01*
X167519000Y-103049000D01*
X169069000Y-103049000D01*
X169069000Y-103299000D01*
G36*
X169069000Y-103299000D02*
G01*
X167519000Y-103299000D01*
X167519000Y-103049000D01*
X169069000Y-103049000D01*
X169069000Y-103299000D01*
G37*
X172324000Y-102379000D02*
X169864000Y-102379000D01*
X169864000Y-100069000D01*
X172324000Y-100069000D01*
X172324000Y-102379000D01*
G36*
X172324000Y-102379000D02*
G01*
X169864000Y-102379000D01*
X169864000Y-100069000D01*
X172324000Y-100069000D01*
X172324000Y-102379000D01*
G37*
X174669000Y-99399000D02*
X173119000Y-99399000D01*
X173119000Y-99149000D01*
X174669000Y-99149000D01*
X174669000Y-99399000D01*
G36*
X174669000Y-99399000D02*
G01*
X173119000Y-99399000D01*
X173119000Y-99149000D01*
X174669000Y-99149000D01*
X174669000Y-99399000D01*
G37*
X174669000Y-100049000D02*
X173119000Y-100049000D01*
X173119000Y-99799000D01*
X174669000Y-99799000D01*
X174669000Y-100049000D01*
G36*
X174669000Y-100049000D02*
G01*
X173119000Y-100049000D01*
X173119000Y-99799000D01*
X174669000Y-99799000D01*
X174669000Y-100049000D01*
G37*
X174669000Y-100699000D02*
X173119000Y-100699000D01*
X173119000Y-100449000D01*
X174669000Y-100449000D01*
X174669000Y-100699000D01*
G36*
X174669000Y-100699000D02*
G01*
X173119000Y-100699000D01*
X173119000Y-100449000D01*
X174669000Y-100449000D01*
X174669000Y-100699000D01*
G37*
X174669000Y-101349000D02*
X173119000Y-101349000D01*
X173119000Y-101099000D01*
X174669000Y-101099000D01*
X174669000Y-101349000D01*
G36*
X174669000Y-101349000D02*
G01*
X173119000Y-101349000D01*
X173119000Y-101099000D01*
X174669000Y-101099000D01*
X174669000Y-101349000D01*
G37*
X174669000Y-101999000D02*
X173119000Y-101999000D01*
X173119000Y-101749000D01*
X174669000Y-101749000D01*
X174669000Y-101999000D01*
G36*
X174669000Y-101999000D02*
G01*
X173119000Y-101999000D01*
X173119000Y-101749000D01*
X174669000Y-101749000D01*
X174669000Y-101999000D01*
G37*
X174669000Y-102649000D02*
X173119000Y-102649000D01*
X173119000Y-102399000D01*
X174669000Y-102399000D01*
X174669000Y-102649000D01*
G36*
X174669000Y-102649000D02*
G01*
X173119000Y-102649000D01*
X173119000Y-102399000D01*
X174669000Y-102399000D01*
X174669000Y-102649000D01*
G37*
X174669000Y-103299000D02*
X173119000Y-103299000D01*
X173119000Y-103049000D01*
X174669000Y-103049000D01*
X174669000Y-103299000D01*
G36*
X174669000Y-103299000D02*
G01*
X173119000Y-103299000D01*
X173119000Y-103049000D01*
X174669000Y-103049000D01*
X174669000Y-103299000D01*
G37*
%TD*%
D11*
%TO.C,R12*%
X109807500Y-102070000D03*
X111632500Y-102070000D03*
%TD*%
D12*
%TO.C,C9*%
X119600000Y-107905000D03*
X119600000Y-110855000D03*
%TD*%
D13*
%TO.C,U4*%
X139076000Y-87520000D03*
X139076000Y-88020000D03*
X139076000Y-88520000D03*
X139076000Y-89020000D03*
X142176000Y-89020000D03*
X142176000Y-88520000D03*
X142176000Y-88020000D03*
X142176000Y-87520000D03*
%TD*%
D14*
%TO.C,D5*%
X122712500Y-101620000D03*
X124587500Y-101620000D03*
%TD*%
D15*
%TO.C,R14*%
X168254000Y-94721500D03*
X168254000Y-96546500D03*
%TD*%
D16*
%TO.C,C8*%
X109770000Y-104950000D03*
X111670000Y-104950000D03*
%TD*%
D17*
%TO.C,F1*%
X143927500Y-102900000D03*
X137152500Y-102900000D03*
%TD*%
D14*
%TO.C,D7*%
X176876500Y-99724000D03*
X178751500Y-99724000D03*
%TD*%
D18*
%TO.C,D6*%
X114407500Y-110610000D03*
X111607500Y-110610000D03*
%TD*%
D19*
%TO.C,Q2*%
X120642500Y-96340000D03*
X120642500Y-98240000D03*
X122517500Y-97290000D03*
%TD*%
D20*
%TO.C,U8*%
X164312500Y-87390000D03*
X164312500Y-88340000D03*
X164312500Y-89290000D03*
X166587500Y-89290000D03*
X166587500Y-87390000D03*
%TD*%
D21*
%TO.C,C13*%
X173795000Y-107250000D03*
X170845000Y-107250000D03*
%TD*%
D22*
%TO.C,C5*%
X149050000Y-89510000D03*
X149050000Y-91410000D03*
%TD*%
D11*
%TO.C,R8*%
X176901500Y-102224000D03*
X178726500Y-102224000D03*
%TD*%
D16*
%TO.C,C7*%
X109770000Y-99060000D03*
X111670000Y-99060000D03*
%TD*%
D11*
%TO.C,R13*%
X170811500Y-96164000D03*
X172636500Y-96164000D03*
%TD*%
D18*
%TO.C,D8*%
X168188000Y-107574000D03*
X165388000Y-107574000D03*
%TD*%
D23*
%TO.C,C1*%
X143650000Y-95210000D03*
X137250000Y-95210000D03*
%TD*%
D12*
%TO.C,C6*%
X160090000Y-90525000D03*
X160090000Y-93475000D03*
%TD*%
D11*
%TO.C,R15*%
X164021500Y-100164000D03*
X165846500Y-100164000D03*
%TD*%
D15*
%TO.C,R11*%
X114040000Y-96627500D03*
X114040000Y-98452500D03*
%TD*%
D11*
%TO.C,R20*%
X133587500Y-89080000D03*
X135412500Y-89080000D03*
%TD*%
%TO.C,R9*%
X122687500Y-104130000D03*
X124512500Y-104130000D03*
%TD*%
%TO.C,R7*%
X123437500Y-107880000D03*
X125262500Y-107880000D03*
%TD*%
%TO.C,R10*%
X116597500Y-98070000D03*
X118422500Y-98070000D03*
%TD*%
D24*
%TO.C,U2*%
X151880000Y-93470000D03*
X154180000Y-93470000D03*
D25*
X154180000Y-87170000D03*
D24*
X156480000Y-93470000D03*
%TD*%
D16*
%TO.C,C12*%
X163984000Y-103074000D03*
X165884000Y-103074000D03*
%TD*%
%TO.C,C11*%
X163914000Y-97144000D03*
X165814000Y-97144000D03*
%TD*%
D13*
%TO.C,U7*%
X172870000Y-87820000D03*
X172870000Y-88320000D03*
X172870000Y-88820000D03*
X172870000Y-89320000D03*
X175970000Y-89320000D03*
X175970000Y-88820000D03*
X175970000Y-88320000D03*
X175970000Y-87820000D03*
%TD*%
D19*
%TO.C,Q3*%
X174856500Y-94434000D03*
X174856500Y-96334000D03*
X176731500Y-95384000D03*
%TD*%
D11*
%TO.C,R2*%
X176927500Y-105950000D03*
X178752500Y-105950000D03*
%TD*%
M02*
