%TF.GenerationSoftware,KiCad,Pcbnew,8.0.1*%
%TF.CreationDate,2024-08-26T16:05:16-04:00*%
%TF.ProjectId,16ch-driver-v1,31366368-2d64-4726-9976-65722d76312e,rev?*%
%TF.SameCoordinates,Original*%
%TF.FileFunction,Paste,Bot*%
%TF.FilePolarity,Positive*%
%FSLAX46Y46*%
G04 Gerber Fmt 4.6, Leading zero omitted, Abs format (unit mm)*
G04 Created by KiCad (PCBNEW 8.0.1) date 2024-08-26 16:05:16*
%MOMM*%
%LPD*%
G01*
G04 APERTURE LIST*
G04 Aperture macros list*
%AMRoundRect*
0 Rectangle with rounded corners*
0 $1 Rounding radius*
0 $2 $3 $4 $5 $6 $7 $8 $9 X,Y pos of 4 corners*
0 Add a 4 corners polygon primitive as box body*
4,1,4,$2,$3,$4,$5,$6,$7,$8,$9,$2,$3,0*
0 Add four circle primitives for the rounded corners*
1,1,$1+$1,$2,$3*
1,1,$1+$1,$4,$5*
1,1,$1+$1,$6,$7*
1,1,$1+$1,$8,$9*
0 Add four rect primitives between the rounded corners*
20,1,$1+$1,$2,$3,$4,$5,0*
20,1,$1+$1,$4,$5,$6,$7,0*
20,1,$1+$1,$6,$7,$8,$9,0*
20,1,$1+$1,$8,$9,$2,$3,0*%
G04 Aperture macros list end*
%ADD10C,0.010000*%
%ADD11RoundRect,0.250000X0.312500X0.625000X-0.312500X0.625000X-0.312500X-0.625000X0.312500X-0.625000X0*%
%ADD12RoundRect,0.150000X-0.150000X0.587500X-0.150000X-0.587500X0.150000X-0.587500X0.150000X0.587500X0*%
%ADD13RoundRect,0.250000X0.325000X1.100000X-0.325000X1.100000X-0.325000X-1.100000X0.325000X-1.100000X0*%
%ADD14RoundRect,0.250000X-0.325000X-0.650000X0.325000X-0.650000X0.325000X0.650000X-0.325000X0.650000X0*%
%ADD15R,1.200000X1.200000*%
%ADD16RoundRect,0.250000X-0.312500X-0.625000X0.312500X-0.625000X0.312500X0.625000X-0.312500X0.625000X0*%
G04 APERTURE END LIST*
D10*
%TO.C,U12*%
X124561503Y-91104999D02*
X123011503Y-91104999D01*
X123011503Y-90854999D01*
X124561503Y-90854999D01*
X124561503Y-91104999D01*
G36*
X124561503Y-91104999D02*
G01*
X123011503Y-91104999D01*
X123011503Y-90854999D01*
X124561503Y-90854999D01*
X124561503Y-91104999D01*
G37*
X124561503Y-91754999D02*
X123011503Y-91754999D01*
X123011503Y-91504999D01*
X124561503Y-91504999D01*
X124561503Y-91754999D01*
G36*
X124561503Y-91754999D02*
G01*
X123011503Y-91754999D01*
X123011503Y-91504999D01*
X124561503Y-91504999D01*
X124561503Y-91754999D01*
G37*
X124561503Y-92404999D02*
X123011503Y-92404999D01*
X123011503Y-92154999D01*
X124561503Y-92154999D01*
X124561503Y-92404999D01*
G36*
X124561503Y-92404999D02*
G01*
X123011503Y-92404999D01*
X123011503Y-92154999D01*
X124561503Y-92154999D01*
X124561503Y-92404999D01*
G37*
X124561503Y-93054999D02*
X123011503Y-93054999D01*
X123011503Y-92804999D01*
X124561503Y-92804999D01*
X124561503Y-93054999D01*
G36*
X124561503Y-93054999D02*
G01*
X123011503Y-93054999D01*
X123011503Y-92804999D01*
X124561503Y-92804999D01*
X124561503Y-93054999D01*
G37*
X124561503Y-93704999D02*
X123011503Y-93704999D01*
X123011503Y-93454999D01*
X124561503Y-93454999D01*
X124561503Y-93704999D01*
G36*
X124561503Y-93704999D02*
G01*
X123011503Y-93704999D01*
X123011503Y-93454999D01*
X124561503Y-93454999D01*
X124561503Y-93704999D01*
G37*
X124561503Y-94354999D02*
X123011503Y-94354999D01*
X123011503Y-94104999D01*
X124561503Y-94104999D01*
X124561503Y-94354999D01*
G36*
X124561503Y-94354999D02*
G01*
X123011503Y-94354999D01*
X123011503Y-94104999D01*
X124561503Y-94104999D01*
X124561503Y-94354999D01*
G37*
X124561503Y-95004999D02*
X123011503Y-95004999D01*
X123011503Y-94754999D01*
X124561503Y-94754999D01*
X124561503Y-95004999D01*
G36*
X124561503Y-95004999D02*
G01*
X123011503Y-95004999D01*
X123011503Y-94754999D01*
X124561503Y-94754999D01*
X124561503Y-95004999D01*
G37*
X127816503Y-94084999D02*
X125356503Y-94084999D01*
X125356503Y-91774999D01*
X127816503Y-91774999D01*
X127816503Y-94084999D01*
G36*
X127816503Y-94084999D02*
G01*
X125356503Y-94084999D01*
X125356503Y-91774999D01*
X127816503Y-91774999D01*
X127816503Y-94084999D01*
G37*
X130161503Y-91104999D02*
X128611503Y-91104999D01*
X128611503Y-90854999D01*
X130161503Y-90854999D01*
X130161503Y-91104999D01*
G36*
X130161503Y-91104999D02*
G01*
X128611503Y-91104999D01*
X128611503Y-90854999D01*
X130161503Y-90854999D01*
X130161503Y-91104999D01*
G37*
X130161503Y-91754999D02*
X128611503Y-91754999D01*
X128611503Y-91504999D01*
X130161503Y-91504999D01*
X130161503Y-91754999D01*
G36*
X130161503Y-91754999D02*
G01*
X128611503Y-91754999D01*
X128611503Y-91504999D01*
X130161503Y-91504999D01*
X130161503Y-91754999D01*
G37*
X130161503Y-92404999D02*
X128611503Y-92404999D01*
X128611503Y-92154999D01*
X130161503Y-92154999D01*
X130161503Y-92404999D01*
G36*
X130161503Y-92404999D02*
G01*
X128611503Y-92404999D01*
X128611503Y-92154999D01*
X130161503Y-92154999D01*
X130161503Y-92404999D01*
G37*
X130161503Y-93054999D02*
X128611503Y-93054999D01*
X128611503Y-92804999D01*
X130161503Y-92804999D01*
X130161503Y-93054999D01*
G36*
X130161503Y-93054999D02*
G01*
X128611503Y-93054999D01*
X128611503Y-92804999D01*
X130161503Y-92804999D01*
X130161503Y-93054999D01*
G37*
X130161503Y-93704999D02*
X128611503Y-93704999D01*
X128611503Y-93454999D01*
X130161503Y-93454999D01*
X130161503Y-93704999D01*
G36*
X130161503Y-93704999D02*
G01*
X128611503Y-93704999D01*
X128611503Y-93454999D01*
X130161503Y-93454999D01*
X130161503Y-93704999D01*
G37*
X130161503Y-94354999D02*
X128611503Y-94354999D01*
X128611503Y-94104999D01*
X130161503Y-94104999D01*
X130161503Y-94354999D01*
G36*
X130161503Y-94354999D02*
G01*
X128611503Y-94354999D01*
X128611503Y-94104999D01*
X130161503Y-94104999D01*
X130161503Y-94354999D01*
G37*
X130161503Y-95004999D02*
X128611503Y-95004999D01*
X128611503Y-94754999D01*
X130161503Y-94754999D01*
X130161503Y-95004999D01*
G36*
X130161503Y-95004999D02*
G01*
X128611503Y-95004999D01*
X128611503Y-94754999D01*
X130161503Y-94754999D01*
X130161503Y-95004999D01*
G37*
%TO.C,U13*%
X124561503Y-105429999D02*
X123011503Y-105429999D01*
X123011503Y-105179999D01*
X124561503Y-105179999D01*
X124561503Y-105429999D01*
G36*
X124561503Y-105429999D02*
G01*
X123011503Y-105429999D01*
X123011503Y-105179999D01*
X124561503Y-105179999D01*
X124561503Y-105429999D01*
G37*
X124561503Y-106079999D02*
X123011503Y-106079999D01*
X123011503Y-105829999D01*
X124561503Y-105829999D01*
X124561503Y-106079999D01*
G36*
X124561503Y-106079999D02*
G01*
X123011503Y-106079999D01*
X123011503Y-105829999D01*
X124561503Y-105829999D01*
X124561503Y-106079999D01*
G37*
X124561503Y-106729999D02*
X123011503Y-106729999D01*
X123011503Y-106479999D01*
X124561503Y-106479999D01*
X124561503Y-106729999D01*
G36*
X124561503Y-106729999D02*
G01*
X123011503Y-106729999D01*
X123011503Y-106479999D01*
X124561503Y-106479999D01*
X124561503Y-106729999D01*
G37*
X124561503Y-107379999D02*
X123011503Y-107379999D01*
X123011503Y-107129999D01*
X124561503Y-107129999D01*
X124561503Y-107379999D01*
G36*
X124561503Y-107379999D02*
G01*
X123011503Y-107379999D01*
X123011503Y-107129999D01*
X124561503Y-107129999D01*
X124561503Y-107379999D01*
G37*
X124561503Y-108029999D02*
X123011503Y-108029999D01*
X123011503Y-107779999D01*
X124561503Y-107779999D01*
X124561503Y-108029999D01*
G36*
X124561503Y-108029999D02*
G01*
X123011503Y-108029999D01*
X123011503Y-107779999D01*
X124561503Y-107779999D01*
X124561503Y-108029999D01*
G37*
X124561503Y-108679999D02*
X123011503Y-108679999D01*
X123011503Y-108429999D01*
X124561503Y-108429999D01*
X124561503Y-108679999D01*
G36*
X124561503Y-108679999D02*
G01*
X123011503Y-108679999D01*
X123011503Y-108429999D01*
X124561503Y-108429999D01*
X124561503Y-108679999D01*
G37*
X124561503Y-109329999D02*
X123011503Y-109329999D01*
X123011503Y-109079999D01*
X124561503Y-109079999D01*
X124561503Y-109329999D01*
G36*
X124561503Y-109329999D02*
G01*
X123011503Y-109329999D01*
X123011503Y-109079999D01*
X124561503Y-109079999D01*
X124561503Y-109329999D01*
G37*
X127816503Y-108409999D02*
X125356503Y-108409999D01*
X125356503Y-106099999D01*
X127816503Y-106099999D01*
X127816503Y-108409999D01*
G36*
X127816503Y-108409999D02*
G01*
X125356503Y-108409999D01*
X125356503Y-106099999D01*
X127816503Y-106099999D01*
X127816503Y-108409999D01*
G37*
X130161503Y-105429999D02*
X128611503Y-105429999D01*
X128611503Y-105179999D01*
X130161503Y-105179999D01*
X130161503Y-105429999D01*
G36*
X130161503Y-105429999D02*
G01*
X128611503Y-105429999D01*
X128611503Y-105179999D01*
X130161503Y-105179999D01*
X130161503Y-105429999D01*
G37*
X130161503Y-106079999D02*
X128611503Y-106079999D01*
X128611503Y-105829999D01*
X130161503Y-105829999D01*
X130161503Y-106079999D01*
G36*
X130161503Y-106079999D02*
G01*
X128611503Y-106079999D01*
X128611503Y-105829999D01*
X130161503Y-105829999D01*
X130161503Y-106079999D01*
G37*
X130161503Y-106729999D02*
X128611503Y-106729999D01*
X128611503Y-106479999D01*
X130161503Y-106479999D01*
X130161503Y-106729999D01*
G36*
X130161503Y-106729999D02*
G01*
X128611503Y-106729999D01*
X128611503Y-106479999D01*
X130161503Y-106479999D01*
X130161503Y-106729999D01*
G37*
X130161503Y-107379999D02*
X128611503Y-107379999D01*
X128611503Y-107129999D01*
X130161503Y-107129999D01*
X130161503Y-107379999D01*
G36*
X130161503Y-107379999D02*
G01*
X128611503Y-107379999D01*
X128611503Y-107129999D01*
X130161503Y-107129999D01*
X130161503Y-107379999D01*
G37*
X130161503Y-108029999D02*
X128611503Y-108029999D01*
X128611503Y-107779999D01*
X130161503Y-107779999D01*
X130161503Y-108029999D01*
G36*
X130161503Y-108029999D02*
G01*
X128611503Y-108029999D01*
X128611503Y-107779999D01*
X130161503Y-107779999D01*
X130161503Y-108029999D01*
G37*
X130161503Y-108679999D02*
X128611503Y-108679999D01*
X128611503Y-108429999D01*
X130161503Y-108429999D01*
X130161503Y-108679999D01*
G36*
X130161503Y-108679999D02*
G01*
X128611503Y-108679999D01*
X128611503Y-108429999D01*
X130161503Y-108429999D01*
X130161503Y-108679999D01*
G37*
X130161503Y-109329999D02*
X128611503Y-109329999D01*
X128611503Y-109079999D01*
X130161503Y-109079999D01*
X130161503Y-109329999D01*
G36*
X130161503Y-109329999D02*
G01*
X128611503Y-109329999D01*
X128611503Y-109079999D01*
X130161503Y-109079999D01*
X130161503Y-109329999D01*
G37*
%TO.C,U9*%
X124486503Y-48167499D02*
X122936503Y-48167499D01*
X122936503Y-47917499D01*
X124486503Y-47917499D01*
X124486503Y-48167499D01*
G36*
X124486503Y-48167499D02*
G01*
X122936503Y-48167499D01*
X122936503Y-47917499D01*
X124486503Y-47917499D01*
X124486503Y-48167499D01*
G37*
X124486503Y-48817499D02*
X122936503Y-48817499D01*
X122936503Y-48567499D01*
X124486503Y-48567499D01*
X124486503Y-48817499D01*
G36*
X124486503Y-48817499D02*
G01*
X122936503Y-48817499D01*
X122936503Y-48567499D01*
X124486503Y-48567499D01*
X124486503Y-48817499D01*
G37*
X124486503Y-49467499D02*
X122936503Y-49467499D01*
X122936503Y-49217499D01*
X124486503Y-49217499D01*
X124486503Y-49467499D01*
G36*
X124486503Y-49467499D02*
G01*
X122936503Y-49467499D01*
X122936503Y-49217499D01*
X124486503Y-49217499D01*
X124486503Y-49467499D01*
G37*
X124486503Y-50117499D02*
X122936503Y-50117499D01*
X122936503Y-49867499D01*
X124486503Y-49867499D01*
X124486503Y-50117499D01*
G36*
X124486503Y-50117499D02*
G01*
X122936503Y-50117499D01*
X122936503Y-49867499D01*
X124486503Y-49867499D01*
X124486503Y-50117499D01*
G37*
X124486503Y-50767499D02*
X122936503Y-50767499D01*
X122936503Y-50517499D01*
X124486503Y-50517499D01*
X124486503Y-50767499D01*
G36*
X124486503Y-50767499D02*
G01*
X122936503Y-50767499D01*
X122936503Y-50517499D01*
X124486503Y-50517499D01*
X124486503Y-50767499D01*
G37*
X124486503Y-51417499D02*
X122936503Y-51417499D01*
X122936503Y-51167499D01*
X124486503Y-51167499D01*
X124486503Y-51417499D01*
G36*
X124486503Y-51417499D02*
G01*
X122936503Y-51417499D01*
X122936503Y-51167499D01*
X124486503Y-51167499D01*
X124486503Y-51417499D01*
G37*
X124486503Y-52067499D02*
X122936503Y-52067499D01*
X122936503Y-51817499D01*
X124486503Y-51817499D01*
X124486503Y-52067499D01*
G36*
X124486503Y-52067499D02*
G01*
X122936503Y-52067499D01*
X122936503Y-51817499D01*
X124486503Y-51817499D01*
X124486503Y-52067499D01*
G37*
X127741503Y-51147499D02*
X125281503Y-51147499D01*
X125281503Y-48837499D01*
X127741503Y-48837499D01*
X127741503Y-51147499D01*
G36*
X127741503Y-51147499D02*
G01*
X125281503Y-51147499D01*
X125281503Y-48837499D01*
X127741503Y-48837499D01*
X127741503Y-51147499D01*
G37*
X130086503Y-48167499D02*
X128536503Y-48167499D01*
X128536503Y-47917499D01*
X130086503Y-47917499D01*
X130086503Y-48167499D01*
G36*
X130086503Y-48167499D02*
G01*
X128536503Y-48167499D01*
X128536503Y-47917499D01*
X130086503Y-47917499D01*
X130086503Y-48167499D01*
G37*
X130086503Y-48817499D02*
X128536503Y-48817499D01*
X128536503Y-48567499D01*
X130086503Y-48567499D01*
X130086503Y-48817499D01*
G36*
X130086503Y-48817499D02*
G01*
X128536503Y-48817499D01*
X128536503Y-48567499D01*
X130086503Y-48567499D01*
X130086503Y-48817499D01*
G37*
X130086503Y-49467499D02*
X128536503Y-49467499D01*
X128536503Y-49217499D01*
X130086503Y-49217499D01*
X130086503Y-49467499D01*
G36*
X130086503Y-49467499D02*
G01*
X128536503Y-49467499D01*
X128536503Y-49217499D01*
X130086503Y-49217499D01*
X130086503Y-49467499D01*
G37*
X130086503Y-50117499D02*
X128536503Y-50117499D01*
X128536503Y-49867499D01*
X130086503Y-49867499D01*
X130086503Y-50117499D01*
G36*
X130086503Y-50117499D02*
G01*
X128536503Y-50117499D01*
X128536503Y-49867499D01*
X130086503Y-49867499D01*
X130086503Y-50117499D01*
G37*
X130086503Y-50767499D02*
X128536503Y-50767499D01*
X128536503Y-50517499D01*
X130086503Y-50517499D01*
X130086503Y-50767499D01*
G36*
X130086503Y-50767499D02*
G01*
X128536503Y-50767499D01*
X128536503Y-50517499D01*
X130086503Y-50517499D01*
X130086503Y-50767499D01*
G37*
X130086503Y-51417499D02*
X128536503Y-51417499D01*
X128536503Y-51167499D01*
X130086503Y-51167499D01*
X130086503Y-51417499D01*
G36*
X130086503Y-51417499D02*
G01*
X128536503Y-51417499D01*
X128536503Y-51167499D01*
X130086503Y-51167499D01*
X130086503Y-51417499D01*
G37*
X130086503Y-52067499D02*
X128536503Y-52067499D01*
X128536503Y-51817499D01*
X130086503Y-51817499D01*
X130086503Y-52067499D01*
G36*
X130086503Y-52067499D02*
G01*
X128536503Y-52067499D01*
X128536503Y-51817499D01*
X130086503Y-51817499D01*
X130086503Y-52067499D01*
G37*
%TO.C,U16*%
X124592502Y-148399999D02*
X123042502Y-148399999D01*
X123042502Y-148149999D01*
X124592502Y-148149999D01*
X124592502Y-148399999D01*
G36*
X124592502Y-148399999D02*
G01*
X123042502Y-148399999D01*
X123042502Y-148149999D01*
X124592502Y-148149999D01*
X124592502Y-148399999D01*
G37*
X124592502Y-149049999D02*
X123042502Y-149049999D01*
X123042502Y-148799999D01*
X124592502Y-148799999D01*
X124592502Y-149049999D01*
G36*
X124592502Y-149049999D02*
G01*
X123042502Y-149049999D01*
X123042502Y-148799999D01*
X124592502Y-148799999D01*
X124592502Y-149049999D01*
G37*
X124592502Y-149699999D02*
X123042502Y-149699999D01*
X123042502Y-149449999D01*
X124592502Y-149449999D01*
X124592502Y-149699999D01*
G36*
X124592502Y-149699999D02*
G01*
X123042502Y-149699999D01*
X123042502Y-149449999D01*
X124592502Y-149449999D01*
X124592502Y-149699999D01*
G37*
X124592502Y-150349999D02*
X123042502Y-150349999D01*
X123042502Y-150099999D01*
X124592502Y-150099999D01*
X124592502Y-150349999D01*
G36*
X124592502Y-150349999D02*
G01*
X123042502Y-150349999D01*
X123042502Y-150099999D01*
X124592502Y-150099999D01*
X124592502Y-150349999D01*
G37*
X124592502Y-150999999D02*
X123042502Y-150999999D01*
X123042502Y-150749999D01*
X124592502Y-150749999D01*
X124592502Y-150999999D01*
G36*
X124592502Y-150999999D02*
G01*
X123042502Y-150999999D01*
X123042502Y-150749999D01*
X124592502Y-150749999D01*
X124592502Y-150999999D01*
G37*
X124592502Y-151649999D02*
X123042502Y-151649999D01*
X123042502Y-151399999D01*
X124592502Y-151399999D01*
X124592502Y-151649999D01*
G36*
X124592502Y-151649999D02*
G01*
X123042502Y-151649999D01*
X123042502Y-151399999D01*
X124592502Y-151399999D01*
X124592502Y-151649999D01*
G37*
X124592502Y-152299999D02*
X123042502Y-152299999D01*
X123042502Y-152049999D01*
X124592502Y-152049999D01*
X124592502Y-152299999D01*
G36*
X124592502Y-152299999D02*
G01*
X123042502Y-152299999D01*
X123042502Y-152049999D01*
X124592502Y-152049999D01*
X124592502Y-152299999D01*
G37*
X127847502Y-151379999D02*
X125387502Y-151379999D01*
X125387502Y-149069999D01*
X127847502Y-149069999D01*
X127847502Y-151379999D01*
G36*
X127847502Y-151379999D02*
G01*
X125387502Y-151379999D01*
X125387502Y-149069999D01*
X127847502Y-149069999D01*
X127847502Y-151379999D01*
G37*
X130192502Y-148399999D02*
X128642502Y-148399999D01*
X128642502Y-148149999D01*
X130192502Y-148149999D01*
X130192502Y-148399999D01*
G36*
X130192502Y-148399999D02*
G01*
X128642502Y-148399999D01*
X128642502Y-148149999D01*
X130192502Y-148149999D01*
X130192502Y-148399999D01*
G37*
X130192502Y-149049999D02*
X128642502Y-149049999D01*
X128642502Y-148799999D01*
X130192502Y-148799999D01*
X130192502Y-149049999D01*
G36*
X130192502Y-149049999D02*
G01*
X128642502Y-149049999D01*
X128642502Y-148799999D01*
X130192502Y-148799999D01*
X130192502Y-149049999D01*
G37*
X130192502Y-149699999D02*
X128642502Y-149699999D01*
X128642502Y-149449999D01*
X130192502Y-149449999D01*
X130192502Y-149699999D01*
G36*
X130192502Y-149699999D02*
G01*
X128642502Y-149699999D01*
X128642502Y-149449999D01*
X130192502Y-149449999D01*
X130192502Y-149699999D01*
G37*
X130192502Y-150349999D02*
X128642502Y-150349999D01*
X128642502Y-150099999D01*
X130192502Y-150099999D01*
X130192502Y-150349999D01*
G36*
X130192502Y-150349999D02*
G01*
X128642502Y-150349999D01*
X128642502Y-150099999D01*
X130192502Y-150099999D01*
X130192502Y-150349999D01*
G37*
X130192502Y-150999999D02*
X128642502Y-150999999D01*
X128642502Y-150749999D01*
X130192502Y-150749999D01*
X130192502Y-150999999D01*
G36*
X130192502Y-150999999D02*
G01*
X128642502Y-150999999D01*
X128642502Y-150749999D01*
X130192502Y-150749999D01*
X130192502Y-150999999D01*
G37*
X130192502Y-151649999D02*
X128642502Y-151649999D01*
X128642502Y-151399999D01*
X130192502Y-151399999D01*
X130192502Y-151649999D01*
G36*
X130192502Y-151649999D02*
G01*
X128642502Y-151649999D01*
X128642502Y-151399999D01*
X130192502Y-151399999D01*
X130192502Y-151649999D01*
G37*
X130192502Y-152299999D02*
X128642502Y-152299999D01*
X128642502Y-152049999D01*
X130192502Y-152049999D01*
X130192502Y-152299999D01*
G36*
X130192502Y-152299999D02*
G01*
X128642502Y-152299999D01*
X128642502Y-152049999D01*
X130192502Y-152049999D01*
X130192502Y-152299999D01*
G37*
%TO.C,U10*%
X124511503Y-62454999D02*
X122961503Y-62454999D01*
X122961503Y-62204999D01*
X124511503Y-62204999D01*
X124511503Y-62454999D01*
G36*
X124511503Y-62454999D02*
G01*
X122961503Y-62454999D01*
X122961503Y-62204999D01*
X124511503Y-62204999D01*
X124511503Y-62454999D01*
G37*
X124511503Y-63104999D02*
X122961503Y-63104999D01*
X122961503Y-62854999D01*
X124511503Y-62854999D01*
X124511503Y-63104999D01*
G36*
X124511503Y-63104999D02*
G01*
X122961503Y-63104999D01*
X122961503Y-62854999D01*
X124511503Y-62854999D01*
X124511503Y-63104999D01*
G37*
X124511503Y-63754999D02*
X122961503Y-63754999D01*
X122961503Y-63504999D01*
X124511503Y-63504999D01*
X124511503Y-63754999D01*
G36*
X124511503Y-63754999D02*
G01*
X122961503Y-63754999D01*
X122961503Y-63504999D01*
X124511503Y-63504999D01*
X124511503Y-63754999D01*
G37*
X124511503Y-64404999D02*
X122961503Y-64404999D01*
X122961503Y-64154999D01*
X124511503Y-64154999D01*
X124511503Y-64404999D01*
G36*
X124511503Y-64404999D02*
G01*
X122961503Y-64404999D01*
X122961503Y-64154999D01*
X124511503Y-64154999D01*
X124511503Y-64404999D01*
G37*
X124511503Y-65054999D02*
X122961503Y-65054999D01*
X122961503Y-64804999D01*
X124511503Y-64804999D01*
X124511503Y-65054999D01*
G36*
X124511503Y-65054999D02*
G01*
X122961503Y-65054999D01*
X122961503Y-64804999D01*
X124511503Y-64804999D01*
X124511503Y-65054999D01*
G37*
X124511503Y-65704999D02*
X122961503Y-65704999D01*
X122961503Y-65454999D01*
X124511503Y-65454999D01*
X124511503Y-65704999D01*
G36*
X124511503Y-65704999D02*
G01*
X122961503Y-65704999D01*
X122961503Y-65454999D01*
X124511503Y-65454999D01*
X124511503Y-65704999D01*
G37*
X124511503Y-66354999D02*
X122961503Y-66354999D01*
X122961503Y-66104999D01*
X124511503Y-66104999D01*
X124511503Y-66354999D01*
G36*
X124511503Y-66354999D02*
G01*
X122961503Y-66354999D01*
X122961503Y-66104999D01*
X124511503Y-66104999D01*
X124511503Y-66354999D01*
G37*
X127766503Y-65434999D02*
X125306503Y-65434999D01*
X125306503Y-63124999D01*
X127766503Y-63124999D01*
X127766503Y-65434999D01*
G36*
X127766503Y-65434999D02*
G01*
X125306503Y-65434999D01*
X125306503Y-63124999D01*
X127766503Y-63124999D01*
X127766503Y-65434999D01*
G37*
X130111503Y-62454999D02*
X128561503Y-62454999D01*
X128561503Y-62204999D01*
X130111503Y-62204999D01*
X130111503Y-62454999D01*
G36*
X130111503Y-62454999D02*
G01*
X128561503Y-62454999D01*
X128561503Y-62204999D01*
X130111503Y-62204999D01*
X130111503Y-62454999D01*
G37*
X130111503Y-63104999D02*
X128561503Y-63104999D01*
X128561503Y-62854999D01*
X130111503Y-62854999D01*
X130111503Y-63104999D01*
G36*
X130111503Y-63104999D02*
G01*
X128561503Y-63104999D01*
X128561503Y-62854999D01*
X130111503Y-62854999D01*
X130111503Y-63104999D01*
G37*
X130111503Y-63754999D02*
X128561503Y-63754999D01*
X128561503Y-63504999D01*
X130111503Y-63504999D01*
X130111503Y-63754999D01*
G36*
X130111503Y-63754999D02*
G01*
X128561503Y-63754999D01*
X128561503Y-63504999D01*
X130111503Y-63504999D01*
X130111503Y-63754999D01*
G37*
X130111503Y-64404999D02*
X128561503Y-64404999D01*
X128561503Y-64154999D01*
X130111503Y-64154999D01*
X130111503Y-64404999D01*
G36*
X130111503Y-64404999D02*
G01*
X128561503Y-64404999D01*
X128561503Y-64154999D01*
X130111503Y-64154999D01*
X130111503Y-64404999D01*
G37*
X130111503Y-65054999D02*
X128561503Y-65054999D01*
X128561503Y-64804999D01*
X130111503Y-64804999D01*
X130111503Y-65054999D01*
G36*
X130111503Y-65054999D02*
G01*
X128561503Y-65054999D01*
X128561503Y-64804999D01*
X130111503Y-64804999D01*
X130111503Y-65054999D01*
G37*
X130111503Y-65704999D02*
X128561503Y-65704999D01*
X128561503Y-65454999D01*
X130111503Y-65454999D01*
X130111503Y-65704999D01*
G36*
X130111503Y-65704999D02*
G01*
X128561503Y-65704999D01*
X128561503Y-65454999D01*
X130111503Y-65454999D01*
X130111503Y-65704999D01*
G37*
X130111503Y-66354999D02*
X128561503Y-66354999D01*
X128561503Y-66104999D01*
X130111503Y-66104999D01*
X130111503Y-66354999D01*
G36*
X130111503Y-66354999D02*
G01*
X128561503Y-66354999D01*
X128561503Y-66104999D01*
X130111503Y-66104999D01*
X130111503Y-66354999D01*
G37*
%TO.C,U14*%
X124561503Y-119754999D02*
X123011503Y-119754999D01*
X123011503Y-119504999D01*
X124561503Y-119504999D01*
X124561503Y-119754999D01*
G36*
X124561503Y-119754999D02*
G01*
X123011503Y-119754999D01*
X123011503Y-119504999D01*
X124561503Y-119504999D01*
X124561503Y-119754999D01*
G37*
X124561503Y-120404999D02*
X123011503Y-120404999D01*
X123011503Y-120154999D01*
X124561503Y-120154999D01*
X124561503Y-120404999D01*
G36*
X124561503Y-120404999D02*
G01*
X123011503Y-120404999D01*
X123011503Y-120154999D01*
X124561503Y-120154999D01*
X124561503Y-120404999D01*
G37*
X124561503Y-121054999D02*
X123011503Y-121054999D01*
X123011503Y-120804999D01*
X124561503Y-120804999D01*
X124561503Y-121054999D01*
G36*
X124561503Y-121054999D02*
G01*
X123011503Y-121054999D01*
X123011503Y-120804999D01*
X124561503Y-120804999D01*
X124561503Y-121054999D01*
G37*
X124561503Y-121704999D02*
X123011503Y-121704999D01*
X123011503Y-121454999D01*
X124561503Y-121454999D01*
X124561503Y-121704999D01*
G36*
X124561503Y-121704999D02*
G01*
X123011503Y-121704999D01*
X123011503Y-121454999D01*
X124561503Y-121454999D01*
X124561503Y-121704999D01*
G37*
X124561503Y-122354999D02*
X123011503Y-122354999D01*
X123011503Y-122104999D01*
X124561503Y-122104999D01*
X124561503Y-122354999D01*
G36*
X124561503Y-122354999D02*
G01*
X123011503Y-122354999D01*
X123011503Y-122104999D01*
X124561503Y-122104999D01*
X124561503Y-122354999D01*
G37*
X124561503Y-123004999D02*
X123011503Y-123004999D01*
X123011503Y-122754999D01*
X124561503Y-122754999D01*
X124561503Y-123004999D01*
G36*
X124561503Y-123004999D02*
G01*
X123011503Y-123004999D01*
X123011503Y-122754999D01*
X124561503Y-122754999D01*
X124561503Y-123004999D01*
G37*
X124561503Y-123654999D02*
X123011503Y-123654999D01*
X123011503Y-123404999D01*
X124561503Y-123404999D01*
X124561503Y-123654999D01*
G36*
X124561503Y-123654999D02*
G01*
X123011503Y-123654999D01*
X123011503Y-123404999D01*
X124561503Y-123404999D01*
X124561503Y-123654999D01*
G37*
X127816503Y-122734999D02*
X125356503Y-122734999D01*
X125356503Y-120424999D01*
X127816503Y-120424999D01*
X127816503Y-122734999D01*
G36*
X127816503Y-122734999D02*
G01*
X125356503Y-122734999D01*
X125356503Y-120424999D01*
X127816503Y-120424999D01*
X127816503Y-122734999D01*
G37*
X130161503Y-119754999D02*
X128611503Y-119754999D01*
X128611503Y-119504999D01*
X130161503Y-119504999D01*
X130161503Y-119754999D01*
G36*
X130161503Y-119754999D02*
G01*
X128611503Y-119754999D01*
X128611503Y-119504999D01*
X130161503Y-119504999D01*
X130161503Y-119754999D01*
G37*
X130161503Y-120404999D02*
X128611503Y-120404999D01*
X128611503Y-120154999D01*
X130161503Y-120154999D01*
X130161503Y-120404999D01*
G36*
X130161503Y-120404999D02*
G01*
X128611503Y-120404999D01*
X128611503Y-120154999D01*
X130161503Y-120154999D01*
X130161503Y-120404999D01*
G37*
X130161503Y-121054999D02*
X128611503Y-121054999D01*
X128611503Y-120804999D01*
X130161503Y-120804999D01*
X130161503Y-121054999D01*
G36*
X130161503Y-121054999D02*
G01*
X128611503Y-121054999D01*
X128611503Y-120804999D01*
X130161503Y-120804999D01*
X130161503Y-121054999D01*
G37*
X130161503Y-121704999D02*
X128611503Y-121704999D01*
X128611503Y-121454999D01*
X130161503Y-121454999D01*
X130161503Y-121704999D01*
G36*
X130161503Y-121704999D02*
G01*
X128611503Y-121704999D01*
X128611503Y-121454999D01*
X130161503Y-121454999D01*
X130161503Y-121704999D01*
G37*
X130161503Y-122354999D02*
X128611503Y-122354999D01*
X128611503Y-122104999D01*
X130161503Y-122104999D01*
X130161503Y-122354999D01*
G36*
X130161503Y-122354999D02*
G01*
X128611503Y-122354999D01*
X128611503Y-122104999D01*
X130161503Y-122104999D01*
X130161503Y-122354999D01*
G37*
X130161503Y-123004999D02*
X128611503Y-123004999D01*
X128611503Y-122754999D01*
X130161503Y-122754999D01*
X130161503Y-123004999D01*
G36*
X130161503Y-123004999D02*
G01*
X128611503Y-123004999D01*
X128611503Y-122754999D01*
X130161503Y-122754999D01*
X130161503Y-123004999D01*
G37*
X130161503Y-123654999D02*
X128611503Y-123654999D01*
X128611503Y-123404999D01*
X130161503Y-123404999D01*
X130161503Y-123654999D01*
G36*
X130161503Y-123654999D02*
G01*
X128611503Y-123654999D01*
X128611503Y-123404999D01*
X130161503Y-123404999D01*
X130161503Y-123654999D01*
G37*
%TO.C,U15*%
X124550000Y-134085000D02*
X123000000Y-134085000D01*
X123000000Y-133835000D01*
X124550000Y-133835000D01*
X124550000Y-134085000D01*
G36*
X124550000Y-134085000D02*
G01*
X123000000Y-134085000D01*
X123000000Y-133835000D01*
X124550000Y-133835000D01*
X124550000Y-134085000D01*
G37*
X124550000Y-134735000D02*
X123000000Y-134735000D01*
X123000000Y-134485000D01*
X124550000Y-134485000D01*
X124550000Y-134735000D01*
G36*
X124550000Y-134735000D02*
G01*
X123000000Y-134735000D01*
X123000000Y-134485000D01*
X124550000Y-134485000D01*
X124550000Y-134735000D01*
G37*
X124550000Y-135385000D02*
X123000000Y-135385000D01*
X123000000Y-135135000D01*
X124550000Y-135135000D01*
X124550000Y-135385000D01*
G36*
X124550000Y-135385000D02*
G01*
X123000000Y-135385000D01*
X123000000Y-135135000D01*
X124550000Y-135135000D01*
X124550000Y-135385000D01*
G37*
X124550000Y-136035000D02*
X123000000Y-136035000D01*
X123000000Y-135785000D01*
X124550000Y-135785000D01*
X124550000Y-136035000D01*
G36*
X124550000Y-136035000D02*
G01*
X123000000Y-136035000D01*
X123000000Y-135785000D01*
X124550000Y-135785000D01*
X124550000Y-136035000D01*
G37*
X124550000Y-136685000D02*
X123000000Y-136685000D01*
X123000000Y-136435000D01*
X124550000Y-136435000D01*
X124550000Y-136685000D01*
G36*
X124550000Y-136685000D02*
G01*
X123000000Y-136685000D01*
X123000000Y-136435000D01*
X124550000Y-136435000D01*
X124550000Y-136685000D01*
G37*
X124550000Y-137335000D02*
X123000000Y-137335000D01*
X123000000Y-137085000D01*
X124550000Y-137085000D01*
X124550000Y-137335000D01*
G36*
X124550000Y-137335000D02*
G01*
X123000000Y-137335000D01*
X123000000Y-137085000D01*
X124550000Y-137085000D01*
X124550000Y-137335000D01*
G37*
X124550000Y-137985000D02*
X123000000Y-137985000D01*
X123000000Y-137735000D01*
X124550000Y-137735000D01*
X124550000Y-137985000D01*
G36*
X124550000Y-137985000D02*
G01*
X123000000Y-137985000D01*
X123000000Y-137735000D01*
X124550000Y-137735000D01*
X124550000Y-137985000D01*
G37*
X127805000Y-137065000D02*
X125345000Y-137065000D01*
X125345000Y-134755000D01*
X127805000Y-134755000D01*
X127805000Y-137065000D01*
G36*
X127805000Y-137065000D02*
G01*
X125345000Y-137065000D01*
X125345000Y-134755000D01*
X127805000Y-134755000D01*
X127805000Y-137065000D01*
G37*
X130150000Y-134085000D02*
X128600000Y-134085000D01*
X128600000Y-133835000D01*
X130150000Y-133835000D01*
X130150000Y-134085000D01*
G36*
X130150000Y-134085000D02*
G01*
X128600000Y-134085000D01*
X128600000Y-133835000D01*
X130150000Y-133835000D01*
X130150000Y-134085000D01*
G37*
X130150000Y-134735000D02*
X128600000Y-134735000D01*
X128600000Y-134485000D01*
X130150000Y-134485000D01*
X130150000Y-134735000D01*
G36*
X130150000Y-134735000D02*
G01*
X128600000Y-134735000D01*
X128600000Y-134485000D01*
X130150000Y-134485000D01*
X130150000Y-134735000D01*
G37*
X130150000Y-135385000D02*
X128600000Y-135385000D01*
X128600000Y-135135000D01*
X130150000Y-135135000D01*
X130150000Y-135385000D01*
G36*
X130150000Y-135385000D02*
G01*
X128600000Y-135385000D01*
X128600000Y-135135000D01*
X130150000Y-135135000D01*
X130150000Y-135385000D01*
G37*
X130150000Y-136035000D02*
X128600000Y-136035000D01*
X128600000Y-135785000D01*
X130150000Y-135785000D01*
X130150000Y-136035000D01*
G36*
X130150000Y-136035000D02*
G01*
X128600000Y-136035000D01*
X128600000Y-135785000D01*
X130150000Y-135785000D01*
X130150000Y-136035000D01*
G37*
X130150000Y-136685000D02*
X128600000Y-136685000D01*
X128600000Y-136435000D01*
X130150000Y-136435000D01*
X130150000Y-136685000D01*
G36*
X130150000Y-136685000D02*
G01*
X128600000Y-136685000D01*
X128600000Y-136435000D01*
X130150000Y-136435000D01*
X130150000Y-136685000D01*
G37*
X130150000Y-137335000D02*
X128600000Y-137335000D01*
X128600000Y-137085000D01*
X130150000Y-137085000D01*
X130150000Y-137335000D01*
G36*
X130150000Y-137335000D02*
G01*
X128600000Y-137335000D01*
X128600000Y-137085000D01*
X130150000Y-137085000D01*
X130150000Y-137335000D01*
G37*
X130150000Y-137985000D02*
X128600000Y-137985000D01*
X128600000Y-137735000D01*
X130150000Y-137735000D01*
X130150000Y-137985000D01*
G36*
X130150000Y-137985000D02*
G01*
X128600000Y-137985000D01*
X128600000Y-137735000D01*
X130150000Y-137735000D01*
X130150000Y-137985000D01*
G37*
%TO.C,U11*%
X124561503Y-76779999D02*
X123011503Y-76779999D01*
X123011503Y-76529999D01*
X124561503Y-76529999D01*
X124561503Y-76779999D01*
G36*
X124561503Y-76779999D02*
G01*
X123011503Y-76779999D01*
X123011503Y-76529999D01*
X124561503Y-76529999D01*
X124561503Y-76779999D01*
G37*
X124561503Y-77429999D02*
X123011503Y-77429999D01*
X123011503Y-77179999D01*
X124561503Y-77179999D01*
X124561503Y-77429999D01*
G36*
X124561503Y-77429999D02*
G01*
X123011503Y-77429999D01*
X123011503Y-77179999D01*
X124561503Y-77179999D01*
X124561503Y-77429999D01*
G37*
X124561503Y-78079999D02*
X123011503Y-78079999D01*
X123011503Y-77829999D01*
X124561503Y-77829999D01*
X124561503Y-78079999D01*
G36*
X124561503Y-78079999D02*
G01*
X123011503Y-78079999D01*
X123011503Y-77829999D01*
X124561503Y-77829999D01*
X124561503Y-78079999D01*
G37*
X124561503Y-78729999D02*
X123011503Y-78729999D01*
X123011503Y-78479999D01*
X124561503Y-78479999D01*
X124561503Y-78729999D01*
G36*
X124561503Y-78729999D02*
G01*
X123011503Y-78729999D01*
X123011503Y-78479999D01*
X124561503Y-78479999D01*
X124561503Y-78729999D01*
G37*
X124561503Y-79379999D02*
X123011503Y-79379999D01*
X123011503Y-79129999D01*
X124561503Y-79129999D01*
X124561503Y-79379999D01*
G36*
X124561503Y-79379999D02*
G01*
X123011503Y-79379999D01*
X123011503Y-79129999D01*
X124561503Y-79129999D01*
X124561503Y-79379999D01*
G37*
X124561503Y-80029999D02*
X123011503Y-80029999D01*
X123011503Y-79779999D01*
X124561503Y-79779999D01*
X124561503Y-80029999D01*
G36*
X124561503Y-80029999D02*
G01*
X123011503Y-80029999D01*
X123011503Y-79779999D01*
X124561503Y-79779999D01*
X124561503Y-80029999D01*
G37*
X124561503Y-80679999D02*
X123011503Y-80679999D01*
X123011503Y-80429999D01*
X124561503Y-80429999D01*
X124561503Y-80679999D01*
G36*
X124561503Y-80679999D02*
G01*
X123011503Y-80679999D01*
X123011503Y-80429999D01*
X124561503Y-80429999D01*
X124561503Y-80679999D01*
G37*
X127816503Y-79759999D02*
X125356503Y-79759999D01*
X125356503Y-77449999D01*
X127816503Y-77449999D01*
X127816503Y-79759999D01*
G36*
X127816503Y-79759999D02*
G01*
X125356503Y-79759999D01*
X125356503Y-77449999D01*
X127816503Y-77449999D01*
X127816503Y-79759999D01*
G37*
X130161503Y-76779999D02*
X128611503Y-76779999D01*
X128611503Y-76529999D01*
X130161503Y-76529999D01*
X130161503Y-76779999D01*
G36*
X130161503Y-76779999D02*
G01*
X128611503Y-76779999D01*
X128611503Y-76529999D01*
X130161503Y-76529999D01*
X130161503Y-76779999D01*
G37*
X130161503Y-77429999D02*
X128611503Y-77429999D01*
X128611503Y-77179999D01*
X130161503Y-77179999D01*
X130161503Y-77429999D01*
G36*
X130161503Y-77429999D02*
G01*
X128611503Y-77429999D01*
X128611503Y-77179999D01*
X130161503Y-77179999D01*
X130161503Y-77429999D01*
G37*
X130161503Y-78079999D02*
X128611503Y-78079999D01*
X128611503Y-77829999D01*
X130161503Y-77829999D01*
X130161503Y-78079999D01*
G36*
X130161503Y-78079999D02*
G01*
X128611503Y-78079999D01*
X128611503Y-77829999D01*
X130161503Y-77829999D01*
X130161503Y-78079999D01*
G37*
X130161503Y-78729999D02*
X128611503Y-78729999D01*
X128611503Y-78479999D01*
X130161503Y-78479999D01*
X130161503Y-78729999D01*
G36*
X130161503Y-78729999D02*
G01*
X128611503Y-78729999D01*
X128611503Y-78479999D01*
X130161503Y-78479999D01*
X130161503Y-78729999D01*
G37*
X130161503Y-79379999D02*
X128611503Y-79379999D01*
X128611503Y-79129999D01*
X130161503Y-79129999D01*
X130161503Y-79379999D01*
G36*
X130161503Y-79379999D02*
G01*
X128611503Y-79379999D01*
X128611503Y-79129999D01*
X130161503Y-79129999D01*
X130161503Y-79379999D01*
G37*
X130161503Y-80029999D02*
X128611503Y-80029999D01*
X128611503Y-79779999D01*
X130161503Y-79779999D01*
X130161503Y-80029999D01*
G36*
X130161503Y-80029999D02*
G01*
X128611503Y-80029999D01*
X128611503Y-79779999D01*
X130161503Y-79779999D01*
X130161503Y-80029999D01*
G37*
X130161503Y-80679999D02*
X128611503Y-80679999D01*
X128611503Y-80429999D01*
X130161503Y-80429999D01*
X130161503Y-80679999D01*
G36*
X130161503Y-80679999D02*
G01*
X128611503Y-80679999D01*
X128611503Y-80429999D01*
X130161503Y-80429999D01*
X130161503Y-80679999D01*
G37*
%TD*%
D11*
%TO.C,R78*%
X135830000Y-105595000D03*
X132905004Y-105594998D03*
%TD*%
%TO.C,R55*%
X135800000Y-69460000D03*
X132875004Y-69459998D03*
%TD*%
%TO.C,R67*%
X135850000Y-98110000D03*
X132925004Y-98109998D03*
%TD*%
D12*
%TO.C,Q9*%
X129342503Y-53925001D03*
X131242504Y-53925001D03*
X130292500Y-55799998D03*
%TD*%
D11*
%TO.C,R60*%
X135780000Y-62620000D03*
X132855004Y-62619998D03*
%TD*%
D13*
%TO.C,C38*%
X128417503Y-102749997D03*
X125467501Y-102750001D03*
%TD*%
%TO.C,C32*%
X128417503Y-74099997D03*
X125467501Y-74100001D03*
%TD*%
D14*
%TO.C,C27*%
X117757501Y-54022501D03*
X120707503Y-54022497D03*
%TD*%
D12*
%TO.C,Q16*%
X129448502Y-154157501D03*
X131348503Y-154157501D03*
X130398499Y-156032498D03*
%TD*%
D11*
%TO.C,R70*%
X135848801Y-95808300D03*
X132923805Y-95808298D03*
%TD*%
D13*
%TO.C,C35*%
X128417503Y-88424997D03*
X125467501Y-88425001D03*
%TD*%
D11*
%TO.C,R57*%
X135796501Y-64900000D03*
X132871505Y-64899998D03*
%TD*%
%TO.C,R92*%
X126750999Y-154305000D03*
X123826003Y-154304998D03*
%TD*%
%TO.C,R76*%
X135848801Y-110133300D03*
X132923805Y-110133298D03*
%TD*%
%TO.C,R90*%
X135818497Y-134250001D03*
X132893501Y-134249999D03*
%TD*%
D14*
%TO.C,C49*%
X117863500Y-149685001D03*
X120813502Y-149684997D03*
%TD*%
%TO.C,C39*%
X117832501Y-111285001D03*
X120782503Y-111284997D03*
%TD*%
D11*
%TO.C,R74*%
X126720000Y-111335000D03*
X123795004Y-111334998D03*
%TD*%
%TO.C,R63*%
X135846501Y-79225000D03*
X132921505Y-79224998D03*
%TD*%
D12*
%TO.C,Q15*%
X129406000Y-139842502D03*
X131306001Y-139842502D03*
X130355997Y-141717499D03*
%TD*%
D11*
%TO.C,R62*%
X126720000Y-82685000D03*
X123795004Y-82684998D03*
%TD*%
D15*
%TO.C,D28*%
X120645002Y-61469999D03*
X117845002Y-61469999D03*
%TD*%
D14*
%TO.C,C30*%
X117782501Y-68310001D03*
X120732503Y-68309997D03*
%TD*%
D15*
%TO.C,D25*%
X120620002Y-47182499D03*
X117820002Y-47182499D03*
%TD*%
D11*
%TO.C,R69*%
X135846501Y-93550000D03*
X132921505Y-93549998D03*
%TD*%
%TO.C,R61*%
X135850000Y-83785000D03*
X132925004Y-83784998D03*
%TD*%
%TO.C,R68*%
X126720000Y-97010000D03*
X123795004Y-97009998D03*
%TD*%
D13*
%TO.C,C29*%
X128367503Y-59774997D03*
X125417501Y-59775001D03*
%TD*%
D11*
%TO.C,R94*%
X135879800Y-153103300D03*
X132954804Y-153103298D03*
%TD*%
%TO.C,R85*%
X135838497Y-141090001D03*
X132913501Y-141089999D03*
%TD*%
%TO.C,R64*%
X135848801Y-81483300D03*
X132923805Y-81483298D03*
%TD*%
D16*
%TO.C,R59*%
X117786505Y-66029998D03*
X120711501Y-66030000D03*
%TD*%
D11*
%TO.C,R84*%
X135830000Y-119920000D03*
X132905004Y-119919998D03*
%TD*%
%TO.C,R54*%
X135755000Y-48332500D03*
X132830004Y-48332498D03*
%TD*%
D14*
%TO.C,C40*%
X117832501Y-106715001D03*
X120782503Y-106714997D03*
%TD*%
D15*
%TO.C,D37*%
X120695002Y-104444999D03*
X117895002Y-104444999D03*
%TD*%
D11*
%TO.C,R49*%
X135775000Y-55172500D03*
X132850004Y-55172498D03*
%TD*%
%TO.C,R50*%
X126645000Y-54072500D03*
X123720004Y-54072498D03*
%TD*%
%TO.C,R73*%
X135850000Y-112435000D03*
X132925004Y-112434998D03*
%TD*%
D12*
%TO.C,Q10*%
X129367503Y-68212501D03*
X131267504Y-68212501D03*
X130317500Y-70087498D03*
%TD*%
D13*
%TO.C,C26*%
X128342503Y-45487497D03*
X125392501Y-45487501D03*
%TD*%
D15*
%TO.C,D34*%
X120695002Y-90119999D03*
X117895002Y-90119999D03*
%TD*%
D11*
%TO.C,R72*%
X135830000Y-91270000D03*
X132905004Y-91269998D03*
%TD*%
D14*
%TO.C,C45*%
X117820998Y-139940002D03*
X120771000Y-139939998D03*
%TD*%
%TO.C,C37*%
X117832501Y-92390001D03*
X120782503Y-92389997D03*
%TD*%
D11*
%TO.C,R66*%
X135830000Y-76945000D03*
X132905004Y-76944998D03*
%TD*%
D14*
%TO.C,C31*%
X117782501Y-63740001D03*
X120732503Y-63739997D03*
%TD*%
D11*
%TO.C,R96*%
X135860999Y-148565000D03*
X132936003Y-148564998D03*
%TD*%
D14*
%TO.C,C43*%
X117832501Y-121040001D03*
X120782503Y-121039997D03*
%TD*%
%TO.C,C46*%
X117820998Y-135370002D03*
X120771000Y-135369998D03*
%TD*%
D16*
%TO.C,R71*%
X117836505Y-94679998D03*
X120761501Y-94680000D03*
%TD*%
D11*
%TO.C,R75*%
X135846501Y-107875000D03*
X132921505Y-107874998D03*
%TD*%
D15*
%TO.C,D40*%
X120695002Y-118769999D03*
X117895002Y-118769999D03*
%TD*%
D13*
%TO.C,C41*%
X128417503Y-117074997D03*
X125467501Y-117075001D03*
%TD*%
D11*
%TO.C,R93*%
X135877500Y-150845000D03*
X132952504Y-150844998D03*
%TD*%
%TO.C,R51*%
X135771501Y-50612500D03*
X132846505Y-50612498D03*
%TD*%
D16*
%TO.C,R77*%
X117836505Y-109004998D03*
X120761501Y-109005000D03*
%TD*%
D15*
%TO.C,D43*%
X120683499Y-133100000D03*
X117883499Y-133100000D03*
%TD*%
D14*
%TO.C,C42*%
X117832501Y-125610001D03*
X120782503Y-125609997D03*
%TD*%
%TO.C,C36*%
X117832501Y-96960001D03*
X120782503Y-96959997D03*
%TD*%
D13*
%TO.C,C47*%
X128448502Y-145719997D03*
X125498500Y-145720001D03*
%TD*%
D14*
%TO.C,C34*%
X117832501Y-78065001D03*
X120782503Y-78064997D03*
%TD*%
D11*
%TO.C,R91*%
X135880999Y-155405000D03*
X132956003Y-155404998D03*
%TD*%
%TO.C,R58*%
X135798801Y-67158300D03*
X132873805Y-67158298D03*
%TD*%
D16*
%TO.C,R65*%
X117836505Y-80354998D03*
X120761501Y-80355000D03*
%TD*%
D12*
%TO.C,Q11*%
X129417503Y-82537501D03*
X131317504Y-82537501D03*
X130367500Y-84412498D03*
%TD*%
%TO.C,Q14*%
X129417503Y-125512501D03*
X131317504Y-125512501D03*
X130367500Y-127387498D03*
%TD*%
D16*
%TO.C,R89*%
X117825002Y-137659999D03*
X120749998Y-137660001D03*
%TD*%
D11*
%TO.C,R80*%
X126720000Y-125660000D03*
X123795004Y-125659998D03*
%TD*%
D14*
%TO.C,C28*%
X117757501Y-49452501D03*
X120707503Y-49452497D03*
%TD*%
D15*
%TO.C,D46*%
X120726001Y-147414999D03*
X117926001Y-147414999D03*
%TD*%
D11*
%TO.C,R81*%
X135846501Y-122200000D03*
X132921505Y-122199998D03*
%TD*%
%TO.C,R52*%
X135773801Y-52870800D03*
X132848805Y-52870798D03*
%TD*%
%TO.C,R56*%
X126670000Y-68360000D03*
X123745004Y-68359998D03*
%TD*%
%TO.C,R82*%
X135848801Y-124458300D03*
X132923805Y-124458298D03*
%TD*%
D16*
%TO.C,R95*%
X117867504Y-151974998D03*
X120792500Y-151975000D03*
%TD*%
D11*
%TO.C,R79*%
X135850000Y-126760000D03*
X132925004Y-126759998D03*
%TD*%
D13*
%TO.C,C44*%
X128406000Y-131404998D03*
X125455998Y-131405002D03*
%TD*%
D11*
%TO.C,R86*%
X126708497Y-139990001D03*
X123783501Y-139989999D03*
%TD*%
D12*
%TO.C,Q12*%
X129417503Y-96862501D03*
X131317504Y-96862501D03*
X130367500Y-98737498D03*
%TD*%
D11*
%TO.C,R88*%
X135837298Y-138788301D03*
X132912302Y-138788299D03*
%TD*%
D12*
%TO.C,Q13*%
X129417503Y-111187501D03*
X131317504Y-111187501D03*
X130367500Y-113062498D03*
%TD*%
D16*
%TO.C,R83*%
X117836505Y-123329998D03*
X120761501Y-123330000D03*
%TD*%
D11*
%TO.C,R87*%
X135834998Y-136530001D03*
X132910002Y-136529999D03*
%TD*%
D16*
%TO.C,R53*%
X117761505Y-51742498D03*
X120686501Y-51742500D03*
%TD*%
D15*
%TO.C,D31*%
X120695002Y-75794999D03*
X117895002Y-75794999D03*
%TD*%
D14*
%TO.C,C33*%
X117832501Y-82635001D03*
X120782503Y-82634997D03*
%TD*%
%TO.C,C48*%
X117863500Y-154255001D03*
X120813502Y-154254997D03*
%TD*%
M02*
