%TF.GenerationSoftware,KiCad,Pcbnew,8.0.1*%
%TF.CreationDate,2024-08-26T16:05:16-04:00*%
%TF.ProjectId,16ch-driver-v1,31366368-2d64-4726-9976-65722d76312e,rev?*%
%TF.SameCoordinates,Original*%
%TF.FileFunction,Paste,Top*%
%TF.FilePolarity,Positive*%
%FSLAX46Y46*%
G04 Gerber Fmt 4.6, Leading zero omitted, Abs format (unit mm)*
G04 Created by KiCad (PCBNEW 8.0.1) date 2024-08-26 16:05:16*
%MOMM*%
%LPD*%
G01*
G04 APERTURE LIST*
G04 Aperture macros list*
%AMRoundRect*
0 Rectangle with rounded corners*
0 $1 Rounding radius*
0 $2 $3 $4 $5 $6 $7 $8 $9 X,Y pos of 4 corners*
0 Add a 4 corners polygon primitive as box body*
4,1,4,$2,$3,$4,$5,$6,$7,$8,$9,$2,$3,0*
0 Add four circle primitives for the rounded corners*
1,1,$1+$1,$2,$3*
1,1,$1+$1,$4,$5*
1,1,$1+$1,$6,$7*
1,1,$1+$1,$8,$9*
0 Add four rect primitives between the rounded corners*
20,1,$1+$1,$2,$3,$4,$5,0*
20,1,$1+$1,$4,$5,$6,$7,0*
20,1,$1+$1,$6,$7,$8,$9,0*
20,1,$1+$1,$8,$9,$2,$3,0*%
G04 Aperture macros list end*
%ADD10C,0.010000*%
%ADD11RoundRect,0.250000X-0.312500X-0.625000X0.312500X-0.625000X0.312500X0.625000X-0.312500X0.625000X0*%
%ADD12RoundRect,0.250000X-0.325000X-0.650000X0.325000X-0.650000X0.325000X0.650000X-0.325000X0.650000X0*%
%ADD13RoundRect,0.250000X0.312500X0.625000X-0.312500X0.625000X-0.312500X-0.625000X0.312500X-0.625000X0*%
%ADD14RoundRect,0.250000X0.325000X1.100000X-0.325000X1.100000X-0.325000X-1.100000X0.325000X-1.100000X0*%
%ADD15RoundRect,0.243750X-0.243750X-0.456250X0.243750X-0.456250X0.243750X0.456250X-0.243750X0.456250X0*%
%ADD16R,1.200000X1.200000*%
%ADD17RoundRect,0.250000X-0.875000X-1.025000X0.875000X-1.025000X0.875000X1.025000X-0.875000X1.025000X0*%
%ADD18RoundRect,0.150000X0.150000X-0.587500X0.150000X0.587500X-0.150000X0.587500X-0.150000X-0.587500X0*%
%ADD19RoundRect,0.250000X0.712500X2.475000X-0.712500X2.475000X-0.712500X-2.475000X0.712500X-2.475000X0*%
G04 APERTURE END LIST*
D10*
%TO.C,U3*%
X124561503Y-76783213D02*
X123011503Y-76783213D01*
X123011503Y-76533213D01*
X124561503Y-76533213D01*
X124561503Y-76783213D01*
G36*
X124561503Y-76783213D02*
G01*
X123011503Y-76783213D01*
X123011503Y-76533213D01*
X124561503Y-76533213D01*
X124561503Y-76783213D01*
G37*
X124561503Y-77433213D02*
X123011503Y-77433213D01*
X123011503Y-77183213D01*
X124561503Y-77183213D01*
X124561503Y-77433213D01*
G36*
X124561503Y-77433213D02*
G01*
X123011503Y-77433213D01*
X123011503Y-77183213D01*
X124561503Y-77183213D01*
X124561503Y-77433213D01*
G37*
X124561503Y-78083213D02*
X123011503Y-78083213D01*
X123011503Y-77833213D01*
X124561503Y-77833213D01*
X124561503Y-78083213D01*
G36*
X124561503Y-78083213D02*
G01*
X123011503Y-78083213D01*
X123011503Y-77833213D01*
X124561503Y-77833213D01*
X124561503Y-78083213D01*
G37*
X124561503Y-78733213D02*
X123011503Y-78733213D01*
X123011503Y-78483213D01*
X124561503Y-78483213D01*
X124561503Y-78733213D01*
G36*
X124561503Y-78733213D02*
G01*
X123011503Y-78733213D01*
X123011503Y-78483213D01*
X124561503Y-78483213D01*
X124561503Y-78733213D01*
G37*
X124561503Y-79383213D02*
X123011503Y-79383213D01*
X123011503Y-79133213D01*
X124561503Y-79133213D01*
X124561503Y-79383213D01*
G36*
X124561503Y-79383213D02*
G01*
X123011503Y-79383213D01*
X123011503Y-79133213D01*
X124561503Y-79133213D01*
X124561503Y-79383213D01*
G37*
X124561503Y-80033213D02*
X123011503Y-80033213D01*
X123011503Y-79783213D01*
X124561503Y-79783213D01*
X124561503Y-80033213D01*
G36*
X124561503Y-80033213D02*
G01*
X123011503Y-80033213D01*
X123011503Y-79783213D01*
X124561503Y-79783213D01*
X124561503Y-80033213D01*
G37*
X124561503Y-80683213D02*
X123011503Y-80683213D01*
X123011503Y-80433213D01*
X124561503Y-80433213D01*
X124561503Y-80683213D01*
G36*
X124561503Y-80683213D02*
G01*
X123011503Y-80683213D01*
X123011503Y-80433213D01*
X124561503Y-80433213D01*
X124561503Y-80683213D01*
G37*
X127816503Y-79763213D02*
X125356503Y-79763213D01*
X125356503Y-77453213D01*
X127816503Y-77453213D01*
X127816503Y-79763213D01*
G36*
X127816503Y-79763213D02*
G01*
X125356503Y-79763213D01*
X125356503Y-77453213D01*
X127816503Y-77453213D01*
X127816503Y-79763213D01*
G37*
X130161503Y-76783213D02*
X128611503Y-76783213D01*
X128611503Y-76533213D01*
X130161503Y-76533213D01*
X130161503Y-76783213D01*
G36*
X130161503Y-76783213D02*
G01*
X128611503Y-76783213D01*
X128611503Y-76533213D01*
X130161503Y-76533213D01*
X130161503Y-76783213D01*
G37*
X130161503Y-77433213D02*
X128611503Y-77433213D01*
X128611503Y-77183213D01*
X130161503Y-77183213D01*
X130161503Y-77433213D01*
G36*
X130161503Y-77433213D02*
G01*
X128611503Y-77433213D01*
X128611503Y-77183213D01*
X130161503Y-77183213D01*
X130161503Y-77433213D01*
G37*
X130161503Y-78083213D02*
X128611503Y-78083213D01*
X128611503Y-77833213D01*
X130161503Y-77833213D01*
X130161503Y-78083213D01*
G36*
X130161503Y-78083213D02*
G01*
X128611503Y-78083213D01*
X128611503Y-77833213D01*
X130161503Y-77833213D01*
X130161503Y-78083213D01*
G37*
X130161503Y-78733213D02*
X128611503Y-78733213D01*
X128611503Y-78483213D01*
X130161503Y-78483213D01*
X130161503Y-78733213D01*
G36*
X130161503Y-78733213D02*
G01*
X128611503Y-78733213D01*
X128611503Y-78483213D01*
X130161503Y-78483213D01*
X130161503Y-78733213D01*
G37*
X130161503Y-79383213D02*
X128611503Y-79383213D01*
X128611503Y-79133213D01*
X130161503Y-79133213D01*
X130161503Y-79383213D01*
G36*
X130161503Y-79383213D02*
G01*
X128611503Y-79383213D01*
X128611503Y-79133213D01*
X130161503Y-79133213D01*
X130161503Y-79383213D01*
G37*
X130161503Y-80033213D02*
X128611503Y-80033213D01*
X128611503Y-79783213D01*
X130161503Y-79783213D01*
X130161503Y-80033213D01*
G36*
X130161503Y-80033213D02*
G01*
X128611503Y-80033213D01*
X128611503Y-79783213D01*
X130161503Y-79783213D01*
X130161503Y-80033213D01*
G37*
X130161503Y-80683213D02*
X128611503Y-80683213D01*
X128611503Y-80433213D01*
X130161503Y-80433213D01*
X130161503Y-80683213D01*
G36*
X130161503Y-80683213D02*
G01*
X128611503Y-80683213D01*
X128611503Y-80433213D01*
X130161503Y-80433213D01*
X130161503Y-80683213D01*
G37*
%TO.C,U8*%
X124581503Y-148411783D02*
X123031503Y-148411783D01*
X123031503Y-148161783D01*
X124581503Y-148161783D01*
X124581503Y-148411783D01*
G36*
X124581503Y-148411783D02*
G01*
X123031503Y-148411783D01*
X123031503Y-148161783D01*
X124581503Y-148161783D01*
X124581503Y-148411783D01*
G37*
X124581503Y-149061783D02*
X123031503Y-149061783D01*
X123031503Y-148811783D01*
X124581503Y-148811783D01*
X124581503Y-149061783D01*
G36*
X124581503Y-149061783D02*
G01*
X123031503Y-149061783D01*
X123031503Y-148811783D01*
X124581503Y-148811783D01*
X124581503Y-149061783D01*
G37*
X124581503Y-149711783D02*
X123031503Y-149711783D01*
X123031503Y-149461783D01*
X124581503Y-149461783D01*
X124581503Y-149711783D01*
G36*
X124581503Y-149711783D02*
G01*
X123031503Y-149711783D01*
X123031503Y-149461783D01*
X124581503Y-149461783D01*
X124581503Y-149711783D01*
G37*
X124581503Y-150361783D02*
X123031503Y-150361783D01*
X123031503Y-150111783D01*
X124581503Y-150111783D01*
X124581503Y-150361783D01*
G36*
X124581503Y-150361783D02*
G01*
X123031503Y-150361783D01*
X123031503Y-150111783D01*
X124581503Y-150111783D01*
X124581503Y-150361783D01*
G37*
X124581503Y-151011783D02*
X123031503Y-151011783D01*
X123031503Y-150761783D01*
X124581503Y-150761783D01*
X124581503Y-151011783D01*
G36*
X124581503Y-151011783D02*
G01*
X123031503Y-151011783D01*
X123031503Y-150761783D01*
X124581503Y-150761783D01*
X124581503Y-151011783D01*
G37*
X124581503Y-151661783D02*
X123031503Y-151661783D01*
X123031503Y-151411783D01*
X124581503Y-151411783D01*
X124581503Y-151661783D01*
G36*
X124581503Y-151661783D02*
G01*
X123031503Y-151661783D01*
X123031503Y-151411783D01*
X124581503Y-151411783D01*
X124581503Y-151661783D01*
G37*
X124581503Y-152311783D02*
X123031503Y-152311783D01*
X123031503Y-152061783D01*
X124581503Y-152061783D01*
X124581503Y-152311783D01*
G36*
X124581503Y-152311783D02*
G01*
X123031503Y-152311783D01*
X123031503Y-152061783D01*
X124581503Y-152061783D01*
X124581503Y-152311783D01*
G37*
X127836503Y-151391783D02*
X125376503Y-151391783D01*
X125376503Y-149081783D01*
X127836503Y-149081783D01*
X127836503Y-151391783D01*
G36*
X127836503Y-151391783D02*
G01*
X125376503Y-151391783D01*
X125376503Y-149081783D01*
X127836503Y-149081783D01*
X127836503Y-151391783D01*
G37*
X130181503Y-148411783D02*
X128631503Y-148411783D01*
X128631503Y-148161783D01*
X130181503Y-148161783D01*
X130181503Y-148411783D01*
G36*
X130181503Y-148411783D02*
G01*
X128631503Y-148411783D01*
X128631503Y-148161783D01*
X130181503Y-148161783D01*
X130181503Y-148411783D01*
G37*
X130181503Y-149061783D02*
X128631503Y-149061783D01*
X128631503Y-148811783D01*
X130181503Y-148811783D01*
X130181503Y-149061783D01*
G36*
X130181503Y-149061783D02*
G01*
X128631503Y-149061783D01*
X128631503Y-148811783D01*
X130181503Y-148811783D01*
X130181503Y-149061783D01*
G37*
X130181503Y-149711783D02*
X128631503Y-149711783D01*
X128631503Y-149461783D01*
X130181503Y-149461783D01*
X130181503Y-149711783D01*
G36*
X130181503Y-149711783D02*
G01*
X128631503Y-149711783D01*
X128631503Y-149461783D01*
X130181503Y-149461783D01*
X130181503Y-149711783D01*
G37*
X130181503Y-150361783D02*
X128631503Y-150361783D01*
X128631503Y-150111783D01*
X130181503Y-150111783D01*
X130181503Y-150361783D01*
G36*
X130181503Y-150361783D02*
G01*
X128631503Y-150361783D01*
X128631503Y-150111783D01*
X130181503Y-150111783D01*
X130181503Y-150361783D01*
G37*
X130181503Y-151011783D02*
X128631503Y-151011783D01*
X128631503Y-150761783D01*
X130181503Y-150761783D01*
X130181503Y-151011783D01*
G36*
X130181503Y-151011783D02*
G01*
X128631503Y-151011783D01*
X128631503Y-150761783D01*
X130181503Y-150761783D01*
X130181503Y-151011783D01*
G37*
X130181503Y-151661783D02*
X128631503Y-151661783D01*
X128631503Y-151411783D01*
X130181503Y-151411783D01*
X130181503Y-151661783D01*
G36*
X130181503Y-151661783D02*
G01*
X128631503Y-151661783D01*
X128631503Y-151411783D01*
X130181503Y-151411783D01*
X130181503Y-151661783D01*
G37*
X130181503Y-152311783D02*
X128631503Y-152311783D01*
X128631503Y-152061783D01*
X130181503Y-152061783D01*
X130181503Y-152311783D01*
G36*
X130181503Y-152311783D02*
G01*
X128631503Y-152311783D01*
X128631503Y-152061783D01*
X130181503Y-152061783D01*
X130181503Y-152311783D01*
G37*
%TO.C,U1*%
X124486503Y-48169999D02*
X122936503Y-48169999D01*
X122936503Y-47919999D01*
X124486503Y-47919999D01*
X124486503Y-48169999D01*
G36*
X124486503Y-48169999D02*
G01*
X122936503Y-48169999D01*
X122936503Y-47919999D01*
X124486503Y-47919999D01*
X124486503Y-48169999D01*
G37*
X124486503Y-48819999D02*
X122936503Y-48819999D01*
X122936503Y-48569999D01*
X124486503Y-48569999D01*
X124486503Y-48819999D01*
G36*
X124486503Y-48819999D02*
G01*
X122936503Y-48819999D01*
X122936503Y-48569999D01*
X124486503Y-48569999D01*
X124486503Y-48819999D01*
G37*
X124486503Y-49469999D02*
X122936503Y-49469999D01*
X122936503Y-49219999D01*
X124486503Y-49219999D01*
X124486503Y-49469999D01*
G36*
X124486503Y-49469999D02*
G01*
X122936503Y-49469999D01*
X122936503Y-49219999D01*
X124486503Y-49219999D01*
X124486503Y-49469999D01*
G37*
X124486503Y-50119999D02*
X122936503Y-50119999D01*
X122936503Y-49869999D01*
X124486503Y-49869999D01*
X124486503Y-50119999D01*
G36*
X124486503Y-50119999D02*
G01*
X122936503Y-50119999D01*
X122936503Y-49869999D01*
X124486503Y-49869999D01*
X124486503Y-50119999D01*
G37*
X124486503Y-50769999D02*
X122936503Y-50769999D01*
X122936503Y-50519999D01*
X124486503Y-50519999D01*
X124486503Y-50769999D01*
G36*
X124486503Y-50769999D02*
G01*
X122936503Y-50769999D01*
X122936503Y-50519999D01*
X124486503Y-50519999D01*
X124486503Y-50769999D01*
G37*
X124486503Y-51419999D02*
X122936503Y-51419999D01*
X122936503Y-51169999D01*
X124486503Y-51169999D01*
X124486503Y-51419999D01*
G36*
X124486503Y-51419999D02*
G01*
X122936503Y-51419999D01*
X122936503Y-51169999D01*
X124486503Y-51169999D01*
X124486503Y-51419999D01*
G37*
X124486503Y-52069999D02*
X122936503Y-52069999D01*
X122936503Y-51819999D01*
X124486503Y-51819999D01*
X124486503Y-52069999D01*
G36*
X124486503Y-52069999D02*
G01*
X122936503Y-52069999D01*
X122936503Y-51819999D01*
X124486503Y-51819999D01*
X124486503Y-52069999D01*
G37*
X127741503Y-51149999D02*
X125281503Y-51149999D01*
X125281503Y-48839999D01*
X127741503Y-48839999D01*
X127741503Y-51149999D01*
G36*
X127741503Y-51149999D02*
G01*
X125281503Y-51149999D01*
X125281503Y-48839999D01*
X127741503Y-48839999D01*
X127741503Y-51149999D01*
G37*
X130086503Y-48169999D02*
X128536503Y-48169999D01*
X128536503Y-47919999D01*
X130086503Y-47919999D01*
X130086503Y-48169999D01*
G36*
X130086503Y-48169999D02*
G01*
X128536503Y-48169999D01*
X128536503Y-47919999D01*
X130086503Y-47919999D01*
X130086503Y-48169999D01*
G37*
X130086503Y-48819999D02*
X128536503Y-48819999D01*
X128536503Y-48569999D01*
X130086503Y-48569999D01*
X130086503Y-48819999D01*
G36*
X130086503Y-48819999D02*
G01*
X128536503Y-48819999D01*
X128536503Y-48569999D01*
X130086503Y-48569999D01*
X130086503Y-48819999D01*
G37*
X130086503Y-49469999D02*
X128536503Y-49469999D01*
X128536503Y-49219999D01*
X130086503Y-49219999D01*
X130086503Y-49469999D01*
G36*
X130086503Y-49469999D02*
G01*
X128536503Y-49469999D01*
X128536503Y-49219999D01*
X130086503Y-49219999D01*
X130086503Y-49469999D01*
G37*
X130086503Y-50119999D02*
X128536503Y-50119999D01*
X128536503Y-49869999D01*
X130086503Y-49869999D01*
X130086503Y-50119999D01*
G36*
X130086503Y-50119999D02*
G01*
X128536503Y-50119999D01*
X128536503Y-49869999D01*
X130086503Y-49869999D01*
X130086503Y-50119999D01*
G37*
X130086503Y-50769999D02*
X128536503Y-50769999D01*
X128536503Y-50519999D01*
X130086503Y-50519999D01*
X130086503Y-50769999D01*
G36*
X130086503Y-50769999D02*
G01*
X128536503Y-50769999D01*
X128536503Y-50519999D01*
X130086503Y-50519999D01*
X130086503Y-50769999D01*
G37*
X130086503Y-51419999D02*
X128536503Y-51419999D01*
X128536503Y-51169999D01*
X130086503Y-51169999D01*
X130086503Y-51419999D01*
G36*
X130086503Y-51419999D02*
G01*
X128536503Y-51419999D01*
X128536503Y-51169999D01*
X130086503Y-51169999D01*
X130086503Y-51419999D01*
G37*
X130086503Y-52069999D02*
X128536503Y-52069999D01*
X128536503Y-51819999D01*
X130086503Y-51819999D01*
X130086503Y-52069999D01*
G36*
X130086503Y-52069999D02*
G01*
X128536503Y-52069999D01*
X128536503Y-51819999D01*
X130086503Y-51819999D01*
X130086503Y-52069999D01*
G37*
%TO.C,U2*%
X124511503Y-62457499D02*
X122961503Y-62457499D01*
X122961503Y-62207499D01*
X124511503Y-62207499D01*
X124511503Y-62457499D01*
G36*
X124511503Y-62457499D02*
G01*
X122961503Y-62457499D01*
X122961503Y-62207499D01*
X124511503Y-62207499D01*
X124511503Y-62457499D01*
G37*
X124511503Y-63107499D02*
X122961503Y-63107499D01*
X122961503Y-62857499D01*
X124511503Y-62857499D01*
X124511503Y-63107499D01*
G36*
X124511503Y-63107499D02*
G01*
X122961503Y-63107499D01*
X122961503Y-62857499D01*
X124511503Y-62857499D01*
X124511503Y-63107499D01*
G37*
X124511503Y-63757499D02*
X122961503Y-63757499D01*
X122961503Y-63507499D01*
X124511503Y-63507499D01*
X124511503Y-63757499D01*
G36*
X124511503Y-63757499D02*
G01*
X122961503Y-63757499D01*
X122961503Y-63507499D01*
X124511503Y-63507499D01*
X124511503Y-63757499D01*
G37*
X124511503Y-64407499D02*
X122961503Y-64407499D01*
X122961503Y-64157499D01*
X124511503Y-64157499D01*
X124511503Y-64407499D01*
G36*
X124511503Y-64407499D02*
G01*
X122961503Y-64407499D01*
X122961503Y-64157499D01*
X124511503Y-64157499D01*
X124511503Y-64407499D01*
G37*
X124511503Y-65057499D02*
X122961503Y-65057499D01*
X122961503Y-64807499D01*
X124511503Y-64807499D01*
X124511503Y-65057499D01*
G36*
X124511503Y-65057499D02*
G01*
X122961503Y-65057499D01*
X122961503Y-64807499D01*
X124511503Y-64807499D01*
X124511503Y-65057499D01*
G37*
X124511503Y-65707499D02*
X122961503Y-65707499D01*
X122961503Y-65457499D01*
X124511503Y-65457499D01*
X124511503Y-65707499D01*
G36*
X124511503Y-65707499D02*
G01*
X122961503Y-65707499D01*
X122961503Y-65457499D01*
X124511503Y-65457499D01*
X124511503Y-65707499D01*
G37*
X124511503Y-66357499D02*
X122961503Y-66357499D01*
X122961503Y-66107499D01*
X124511503Y-66107499D01*
X124511503Y-66357499D01*
G36*
X124511503Y-66357499D02*
G01*
X122961503Y-66357499D01*
X122961503Y-66107499D01*
X124511503Y-66107499D01*
X124511503Y-66357499D01*
G37*
X127766503Y-65437499D02*
X125306503Y-65437499D01*
X125306503Y-63127499D01*
X127766503Y-63127499D01*
X127766503Y-65437499D01*
G36*
X127766503Y-65437499D02*
G01*
X125306503Y-65437499D01*
X125306503Y-63127499D01*
X127766503Y-63127499D01*
X127766503Y-65437499D01*
G37*
X130111503Y-62457499D02*
X128561503Y-62457499D01*
X128561503Y-62207499D01*
X130111503Y-62207499D01*
X130111503Y-62457499D01*
G36*
X130111503Y-62457499D02*
G01*
X128561503Y-62457499D01*
X128561503Y-62207499D01*
X130111503Y-62207499D01*
X130111503Y-62457499D01*
G37*
X130111503Y-63107499D02*
X128561503Y-63107499D01*
X128561503Y-62857499D01*
X130111503Y-62857499D01*
X130111503Y-63107499D01*
G36*
X130111503Y-63107499D02*
G01*
X128561503Y-63107499D01*
X128561503Y-62857499D01*
X130111503Y-62857499D01*
X130111503Y-63107499D01*
G37*
X130111503Y-63757499D02*
X128561503Y-63757499D01*
X128561503Y-63507499D01*
X130111503Y-63507499D01*
X130111503Y-63757499D01*
G36*
X130111503Y-63757499D02*
G01*
X128561503Y-63757499D01*
X128561503Y-63507499D01*
X130111503Y-63507499D01*
X130111503Y-63757499D01*
G37*
X130111503Y-64407499D02*
X128561503Y-64407499D01*
X128561503Y-64157499D01*
X130111503Y-64157499D01*
X130111503Y-64407499D01*
G36*
X130111503Y-64407499D02*
G01*
X128561503Y-64407499D01*
X128561503Y-64157499D01*
X130111503Y-64157499D01*
X130111503Y-64407499D01*
G37*
X130111503Y-65057499D02*
X128561503Y-65057499D01*
X128561503Y-64807499D01*
X130111503Y-64807499D01*
X130111503Y-65057499D01*
G36*
X130111503Y-65057499D02*
G01*
X128561503Y-65057499D01*
X128561503Y-64807499D01*
X130111503Y-64807499D01*
X130111503Y-65057499D01*
G37*
X130111503Y-65707499D02*
X128561503Y-65707499D01*
X128561503Y-65457499D01*
X130111503Y-65457499D01*
X130111503Y-65707499D01*
G36*
X130111503Y-65707499D02*
G01*
X128561503Y-65707499D01*
X128561503Y-65457499D01*
X130111503Y-65457499D01*
X130111503Y-65707499D01*
G37*
X130111503Y-66357499D02*
X128561503Y-66357499D01*
X128561503Y-66107499D01*
X130111503Y-66107499D01*
X130111503Y-66357499D01*
G36*
X130111503Y-66357499D02*
G01*
X128561503Y-66357499D01*
X128561503Y-66107499D01*
X130111503Y-66107499D01*
X130111503Y-66357499D01*
G37*
%TO.C,U5*%
X124561503Y-105434641D02*
X123011503Y-105434641D01*
X123011503Y-105184641D01*
X124561503Y-105184641D01*
X124561503Y-105434641D01*
G36*
X124561503Y-105434641D02*
G01*
X123011503Y-105434641D01*
X123011503Y-105184641D01*
X124561503Y-105184641D01*
X124561503Y-105434641D01*
G37*
X124561503Y-106084641D02*
X123011503Y-106084641D01*
X123011503Y-105834641D01*
X124561503Y-105834641D01*
X124561503Y-106084641D01*
G36*
X124561503Y-106084641D02*
G01*
X123011503Y-106084641D01*
X123011503Y-105834641D01*
X124561503Y-105834641D01*
X124561503Y-106084641D01*
G37*
X124561503Y-106734641D02*
X123011503Y-106734641D01*
X123011503Y-106484641D01*
X124561503Y-106484641D01*
X124561503Y-106734641D01*
G36*
X124561503Y-106734641D02*
G01*
X123011503Y-106734641D01*
X123011503Y-106484641D01*
X124561503Y-106484641D01*
X124561503Y-106734641D01*
G37*
X124561503Y-107384641D02*
X123011503Y-107384641D01*
X123011503Y-107134641D01*
X124561503Y-107134641D01*
X124561503Y-107384641D01*
G36*
X124561503Y-107384641D02*
G01*
X123011503Y-107384641D01*
X123011503Y-107134641D01*
X124561503Y-107134641D01*
X124561503Y-107384641D01*
G37*
X124561503Y-108034641D02*
X123011503Y-108034641D01*
X123011503Y-107784641D01*
X124561503Y-107784641D01*
X124561503Y-108034641D01*
G36*
X124561503Y-108034641D02*
G01*
X123011503Y-108034641D01*
X123011503Y-107784641D01*
X124561503Y-107784641D01*
X124561503Y-108034641D01*
G37*
X124561503Y-108684641D02*
X123011503Y-108684641D01*
X123011503Y-108434641D01*
X124561503Y-108434641D01*
X124561503Y-108684641D01*
G36*
X124561503Y-108684641D02*
G01*
X123011503Y-108684641D01*
X123011503Y-108434641D01*
X124561503Y-108434641D01*
X124561503Y-108684641D01*
G37*
X124561503Y-109334641D02*
X123011503Y-109334641D01*
X123011503Y-109084641D01*
X124561503Y-109084641D01*
X124561503Y-109334641D01*
G36*
X124561503Y-109334641D02*
G01*
X123011503Y-109334641D01*
X123011503Y-109084641D01*
X124561503Y-109084641D01*
X124561503Y-109334641D01*
G37*
X127816503Y-108414641D02*
X125356503Y-108414641D01*
X125356503Y-106104641D01*
X127816503Y-106104641D01*
X127816503Y-108414641D01*
G36*
X127816503Y-108414641D02*
G01*
X125356503Y-108414641D01*
X125356503Y-106104641D01*
X127816503Y-106104641D01*
X127816503Y-108414641D01*
G37*
X130161503Y-105434641D02*
X128611503Y-105434641D01*
X128611503Y-105184641D01*
X130161503Y-105184641D01*
X130161503Y-105434641D01*
G36*
X130161503Y-105434641D02*
G01*
X128611503Y-105434641D01*
X128611503Y-105184641D01*
X130161503Y-105184641D01*
X130161503Y-105434641D01*
G37*
X130161503Y-106084641D02*
X128611503Y-106084641D01*
X128611503Y-105834641D01*
X130161503Y-105834641D01*
X130161503Y-106084641D01*
G36*
X130161503Y-106084641D02*
G01*
X128611503Y-106084641D01*
X128611503Y-105834641D01*
X130161503Y-105834641D01*
X130161503Y-106084641D01*
G37*
X130161503Y-106734641D02*
X128611503Y-106734641D01*
X128611503Y-106484641D01*
X130161503Y-106484641D01*
X130161503Y-106734641D01*
G36*
X130161503Y-106734641D02*
G01*
X128611503Y-106734641D01*
X128611503Y-106484641D01*
X130161503Y-106484641D01*
X130161503Y-106734641D01*
G37*
X130161503Y-107384641D02*
X128611503Y-107384641D01*
X128611503Y-107134641D01*
X130161503Y-107134641D01*
X130161503Y-107384641D01*
G36*
X130161503Y-107384641D02*
G01*
X128611503Y-107384641D01*
X128611503Y-107134641D01*
X130161503Y-107134641D01*
X130161503Y-107384641D01*
G37*
X130161503Y-108034641D02*
X128611503Y-108034641D01*
X128611503Y-107784641D01*
X130161503Y-107784641D01*
X130161503Y-108034641D01*
G36*
X130161503Y-108034641D02*
G01*
X128611503Y-108034641D01*
X128611503Y-107784641D01*
X130161503Y-107784641D01*
X130161503Y-108034641D01*
G37*
X130161503Y-108684641D02*
X128611503Y-108684641D01*
X128611503Y-108434641D01*
X130161503Y-108434641D01*
X130161503Y-108684641D01*
G36*
X130161503Y-108684641D02*
G01*
X128611503Y-108684641D01*
X128611503Y-108434641D01*
X130161503Y-108434641D01*
X130161503Y-108684641D01*
G37*
X130161503Y-109334641D02*
X128611503Y-109334641D01*
X128611503Y-109084641D01*
X130161503Y-109084641D01*
X130161503Y-109334641D01*
G36*
X130161503Y-109334641D02*
G01*
X128611503Y-109334641D01*
X128611503Y-109084641D01*
X130161503Y-109084641D01*
X130161503Y-109334641D01*
G37*
%TO.C,U4*%
X124561503Y-91108927D02*
X123011503Y-91108927D01*
X123011503Y-90858927D01*
X124561503Y-90858927D01*
X124561503Y-91108927D01*
G36*
X124561503Y-91108927D02*
G01*
X123011503Y-91108927D01*
X123011503Y-90858927D01*
X124561503Y-90858927D01*
X124561503Y-91108927D01*
G37*
X124561503Y-91758927D02*
X123011503Y-91758927D01*
X123011503Y-91508927D01*
X124561503Y-91508927D01*
X124561503Y-91758927D01*
G36*
X124561503Y-91758927D02*
G01*
X123011503Y-91758927D01*
X123011503Y-91508927D01*
X124561503Y-91508927D01*
X124561503Y-91758927D01*
G37*
X124561503Y-92408927D02*
X123011503Y-92408927D01*
X123011503Y-92158927D01*
X124561503Y-92158927D01*
X124561503Y-92408927D01*
G36*
X124561503Y-92408927D02*
G01*
X123011503Y-92408927D01*
X123011503Y-92158927D01*
X124561503Y-92158927D01*
X124561503Y-92408927D01*
G37*
X124561503Y-93058927D02*
X123011503Y-93058927D01*
X123011503Y-92808927D01*
X124561503Y-92808927D01*
X124561503Y-93058927D01*
G36*
X124561503Y-93058927D02*
G01*
X123011503Y-93058927D01*
X123011503Y-92808927D01*
X124561503Y-92808927D01*
X124561503Y-93058927D01*
G37*
X124561503Y-93708927D02*
X123011503Y-93708927D01*
X123011503Y-93458927D01*
X124561503Y-93458927D01*
X124561503Y-93708927D01*
G36*
X124561503Y-93708927D02*
G01*
X123011503Y-93708927D01*
X123011503Y-93458927D01*
X124561503Y-93458927D01*
X124561503Y-93708927D01*
G37*
X124561503Y-94358927D02*
X123011503Y-94358927D01*
X123011503Y-94108927D01*
X124561503Y-94108927D01*
X124561503Y-94358927D01*
G36*
X124561503Y-94358927D02*
G01*
X123011503Y-94358927D01*
X123011503Y-94108927D01*
X124561503Y-94108927D01*
X124561503Y-94358927D01*
G37*
X124561503Y-95008927D02*
X123011503Y-95008927D01*
X123011503Y-94758927D01*
X124561503Y-94758927D01*
X124561503Y-95008927D01*
G36*
X124561503Y-95008927D02*
G01*
X123011503Y-95008927D01*
X123011503Y-94758927D01*
X124561503Y-94758927D01*
X124561503Y-95008927D01*
G37*
X127816503Y-94088927D02*
X125356503Y-94088927D01*
X125356503Y-91778927D01*
X127816503Y-91778927D01*
X127816503Y-94088927D01*
G36*
X127816503Y-94088927D02*
G01*
X125356503Y-94088927D01*
X125356503Y-91778927D01*
X127816503Y-91778927D01*
X127816503Y-94088927D01*
G37*
X130161503Y-91108927D02*
X128611503Y-91108927D01*
X128611503Y-90858927D01*
X130161503Y-90858927D01*
X130161503Y-91108927D01*
G36*
X130161503Y-91108927D02*
G01*
X128611503Y-91108927D01*
X128611503Y-90858927D01*
X130161503Y-90858927D01*
X130161503Y-91108927D01*
G37*
X130161503Y-91758927D02*
X128611503Y-91758927D01*
X128611503Y-91508927D01*
X130161503Y-91508927D01*
X130161503Y-91758927D01*
G36*
X130161503Y-91758927D02*
G01*
X128611503Y-91758927D01*
X128611503Y-91508927D01*
X130161503Y-91508927D01*
X130161503Y-91758927D01*
G37*
X130161503Y-92408927D02*
X128611503Y-92408927D01*
X128611503Y-92158927D01*
X130161503Y-92158927D01*
X130161503Y-92408927D01*
G36*
X130161503Y-92408927D02*
G01*
X128611503Y-92408927D01*
X128611503Y-92158927D01*
X130161503Y-92158927D01*
X130161503Y-92408927D01*
G37*
X130161503Y-93058927D02*
X128611503Y-93058927D01*
X128611503Y-92808927D01*
X130161503Y-92808927D01*
X130161503Y-93058927D01*
G36*
X130161503Y-93058927D02*
G01*
X128611503Y-93058927D01*
X128611503Y-92808927D01*
X130161503Y-92808927D01*
X130161503Y-93058927D01*
G37*
X130161503Y-93708927D02*
X128611503Y-93708927D01*
X128611503Y-93458927D01*
X130161503Y-93458927D01*
X130161503Y-93708927D01*
G36*
X130161503Y-93708927D02*
G01*
X128611503Y-93708927D01*
X128611503Y-93458927D01*
X130161503Y-93458927D01*
X130161503Y-93708927D01*
G37*
X130161503Y-94358927D02*
X128611503Y-94358927D01*
X128611503Y-94108927D01*
X130161503Y-94108927D01*
X130161503Y-94358927D01*
G36*
X130161503Y-94358927D02*
G01*
X128611503Y-94358927D01*
X128611503Y-94108927D01*
X130161503Y-94108927D01*
X130161503Y-94358927D01*
G37*
X130161503Y-95008927D02*
X128611503Y-95008927D01*
X128611503Y-94758927D01*
X130161503Y-94758927D01*
X130161503Y-95008927D01*
G36*
X130161503Y-95008927D02*
G01*
X128611503Y-95008927D01*
X128611503Y-94758927D01*
X130161503Y-94758927D01*
X130161503Y-95008927D01*
G37*
%TO.C,U6*%
X124561503Y-119760355D02*
X123011503Y-119760355D01*
X123011503Y-119510355D01*
X124561503Y-119510355D01*
X124561503Y-119760355D01*
G36*
X124561503Y-119760355D02*
G01*
X123011503Y-119760355D01*
X123011503Y-119510355D01*
X124561503Y-119510355D01*
X124561503Y-119760355D01*
G37*
X124561503Y-120410355D02*
X123011503Y-120410355D01*
X123011503Y-120160355D01*
X124561503Y-120160355D01*
X124561503Y-120410355D01*
G36*
X124561503Y-120410355D02*
G01*
X123011503Y-120410355D01*
X123011503Y-120160355D01*
X124561503Y-120160355D01*
X124561503Y-120410355D01*
G37*
X124561503Y-121060355D02*
X123011503Y-121060355D01*
X123011503Y-120810355D01*
X124561503Y-120810355D01*
X124561503Y-121060355D01*
G36*
X124561503Y-121060355D02*
G01*
X123011503Y-121060355D01*
X123011503Y-120810355D01*
X124561503Y-120810355D01*
X124561503Y-121060355D01*
G37*
X124561503Y-121710355D02*
X123011503Y-121710355D01*
X123011503Y-121460355D01*
X124561503Y-121460355D01*
X124561503Y-121710355D01*
G36*
X124561503Y-121710355D02*
G01*
X123011503Y-121710355D01*
X123011503Y-121460355D01*
X124561503Y-121460355D01*
X124561503Y-121710355D01*
G37*
X124561503Y-122360355D02*
X123011503Y-122360355D01*
X123011503Y-122110355D01*
X124561503Y-122110355D01*
X124561503Y-122360355D01*
G36*
X124561503Y-122360355D02*
G01*
X123011503Y-122360355D01*
X123011503Y-122110355D01*
X124561503Y-122110355D01*
X124561503Y-122360355D01*
G37*
X124561503Y-123010355D02*
X123011503Y-123010355D01*
X123011503Y-122760355D01*
X124561503Y-122760355D01*
X124561503Y-123010355D01*
G36*
X124561503Y-123010355D02*
G01*
X123011503Y-123010355D01*
X123011503Y-122760355D01*
X124561503Y-122760355D01*
X124561503Y-123010355D01*
G37*
X124561503Y-123660355D02*
X123011503Y-123660355D01*
X123011503Y-123410355D01*
X124561503Y-123410355D01*
X124561503Y-123660355D01*
G36*
X124561503Y-123660355D02*
G01*
X123011503Y-123660355D01*
X123011503Y-123410355D01*
X124561503Y-123410355D01*
X124561503Y-123660355D01*
G37*
X127816503Y-122740355D02*
X125356503Y-122740355D01*
X125356503Y-120430355D01*
X127816503Y-120430355D01*
X127816503Y-122740355D01*
G36*
X127816503Y-122740355D02*
G01*
X125356503Y-122740355D01*
X125356503Y-120430355D01*
X127816503Y-120430355D01*
X127816503Y-122740355D01*
G37*
X130161503Y-119760355D02*
X128611503Y-119760355D01*
X128611503Y-119510355D01*
X130161503Y-119510355D01*
X130161503Y-119760355D01*
G36*
X130161503Y-119760355D02*
G01*
X128611503Y-119760355D01*
X128611503Y-119510355D01*
X130161503Y-119510355D01*
X130161503Y-119760355D01*
G37*
X130161503Y-120410355D02*
X128611503Y-120410355D01*
X128611503Y-120160355D01*
X130161503Y-120160355D01*
X130161503Y-120410355D01*
G36*
X130161503Y-120410355D02*
G01*
X128611503Y-120410355D01*
X128611503Y-120160355D01*
X130161503Y-120160355D01*
X130161503Y-120410355D01*
G37*
X130161503Y-121060355D02*
X128611503Y-121060355D01*
X128611503Y-120810355D01*
X130161503Y-120810355D01*
X130161503Y-121060355D01*
G36*
X130161503Y-121060355D02*
G01*
X128611503Y-121060355D01*
X128611503Y-120810355D01*
X130161503Y-120810355D01*
X130161503Y-121060355D01*
G37*
X130161503Y-121710355D02*
X128611503Y-121710355D01*
X128611503Y-121460355D01*
X130161503Y-121460355D01*
X130161503Y-121710355D01*
G36*
X130161503Y-121710355D02*
G01*
X128611503Y-121710355D01*
X128611503Y-121460355D01*
X130161503Y-121460355D01*
X130161503Y-121710355D01*
G37*
X130161503Y-122360355D02*
X128611503Y-122360355D01*
X128611503Y-122110355D01*
X130161503Y-122110355D01*
X130161503Y-122360355D01*
G36*
X130161503Y-122360355D02*
G01*
X128611503Y-122360355D01*
X128611503Y-122110355D01*
X130161503Y-122110355D01*
X130161503Y-122360355D01*
G37*
X130161503Y-123010355D02*
X128611503Y-123010355D01*
X128611503Y-122760355D01*
X130161503Y-122760355D01*
X130161503Y-123010355D01*
G36*
X130161503Y-123010355D02*
G01*
X128611503Y-123010355D01*
X128611503Y-122760355D01*
X130161503Y-122760355D01*
X130161503Y-123010355D01*
G37*
X130161503Y-123660355D02*
X128611503Y-123660355D01*
X128611503Y-123410355D01*
X130161503Y-123410355D01*
X130161503Y-123660355D01*
G36*
X130161503Y-123660355D02*
G01*
X128611503Y-123660355D01*
X128611503Y-123410355D01*
X130161503Y-123410355D01*
X130161503Y-123660355D01*
G37*
%TO.C,U7*%
X124561503Y-134086069D02*
X123011503Y-134086069D01*
X123011503Y-133836069D01*
X124561503Y-133836069D01*
X124561503Y-134086069D01*
G36*
X124561503Y-134086069D02*
G01*
X123011503Y-134086069D01*
X123011503Y-133836069D01*
X124561503Y-133836069D01*
X124561503Y-134086069D01*
G37*
X124561503Y-134736069D02*
X123011503Y-134736069D01*
X123011503Y-134486069D01*
X124561503Y-134486069D01*
X124561503Y-134736069D01*
G36*
X124561503Y-134736069D02*
G01*
X123011503Y-134736069D01*
X123011503Y-134486069D01*
X124561503Y-134486069D01*
X124561503Y-134736069D01*
G37*
X124561503Y-135386069D02*
X123011503Y-135386069D01*
X123011503Y-135136069D01*
X124561503Y-135136069D01*
X124561503Y-135386069D01*
G36*
X124561503Y-135386069D02*
G01*
X123011503Y-135386069D01*
X123011503Y-135136069D01*
X124561503Y-135136069D01*
X124561503Y-135386069D01*
G37*
X124561503Y-136036069D02*
X123011503Y-136036069D01*
X123011503Y-135786069D01*
X124561503Y-135786069D01*
X124561503Y-136036069D01*
G36*
X124561503Y-136036069D02*
G01*
X123011503Y-136036069D01*
X123011503Y-135786069D01*
X124561503Y-135786069D01*
X124561503Y-136036069D01*
G37*
X124561503Y-136686069D02*
X123011503Y-136686069D01*
X123011503Y-136436069D01*
X124561503Y-136436069D01*
X124561503Y-136686069D01*
G36*
X124561503Y-136686069D02*
G01*
X123011503Y-136686069D01*
X123011503Y-136436069D01*
X124561503Y-136436069D01*
X124561503Y-136686069D01*
G37*
X124561503Y-137336069D02*
X123011503Y-137336069D01*
X123011503Y-137086069D01*
X124561503Y-137086069D01*
X124561503Y-137336069D01*
G36*
X124561503Y-137336069D02*
G01*
X123011503Y-137336069D01*
X123011503Y-137086069D01*
X124561503Y-137086069D01*
X124561503Y-137336069D01*
G37*
X124561503Y-137986069D02*
X123011503Y-137986069D01*
X123011503Y-137736069D01*
X124561503Y-137736069D01*
X124561503Y-137986069D01*
G36*
X124561503Y-137986069D02*
G01*
X123011503Y-137986069D01*
X123011503Y-137736069D01*
X124561503Y-137736069D01*
X124561503Y-137986069D01*
G37*
X127816503Y-137066069D02*
X125356503Y-137066069D01*
X125356503Y-134756069D01*
X127816503Y-134756069D01*
X127816503Y-137066069D01*
G36*
X127816503Y-137066069D02*
G01*
X125356503Y-137066069D01*
X125356503Y-134756069D01*
X127816503Y-134756069D01*
X127816503Y-137066069D01*
G37*
X130161503Y-134086069D02*
X128611503Y-134086069D01*
X128611503Y-133836069D01*
X130161503Y-133836069D01*
X130161503Y-134086069D01*
G36*
X130161503Y-134086069D02*
G01*
X128611503Y-134086069D01*
X128611503Y-133836069D01*
X130161503Y-133836069D01*
X130161503Y-134086069D01*
G37*
X130161503Y-134736069D02*
X128611503Y-134736069D01*
X128611503Y-134486069D01*
X130161503Y-134486069D01*
X130161503Y-134736069D01*
G36*
X130161503Y-134736069D02*
G01*
X128611503Y-134736069D01*
X128611503Y-134486069D01*
X130161503Y-134486069D01*
X130161503Y-134736069D01*
G37*
X130161503Y-135386069D02*
X128611503Y-135386069D01*
X128611503Y-135136069D01*
X130161503Y-135136069D01*
X130161503Y-135386069D01*
G36*
X130161503Y-135386069D02*
G01*
X128611503Y-135386069D01*
X128611503Y-135136069D01*
X130161503Y-135136069D01*
X130161503Y-135386069D01*
G37*
X130161503Y-136036069D02*
X128611503Y-136036069D01*
X128611503Y-135786069D01*
X130161503Y-135786069D01*
X130161503Y-136036069D01*
G36*
X130161503Y-136036069D02*
G01*
X128611503Y-136036069D01*
X128611503Y-135786069D01*
X130161503Y-135786069D01*
X130161503Y-136036069D01*
G37*
X130161503Y-136686069D02*
X128611503Y-136686069D01*
X128611503Y-136436069D01*
X130161503Y-136436069D01*
X130161503Y-136686069D01*
G36*
X130161503Y-136686069D02*
G01*
X128611503Y-136686069D01*
X128611503Y-136436069D01*
X130161503Y-136436069D01*
X130161503Y-136686069D01*
G37*
X130161503Y-137336069D02*
X128611503Y-137336069D01*
X128611503Y-137086069D01*
X130161503Y-137086069D01*
X130161503Y-137336069D01*
G36*
X130161503Y-137336069D02*
G01*
X128611503Y-137336069D01*
X128611503Y-137086069D01*
X130161503Y-137086069D01*
X130161503Y-137336069D01*
G37*
X130161503Y-137986069D02*
X128611503Y-137986069D01*
X128611503Y-137736069D01*
X130161503Y-137736069D01*
X130161503Y-137986069D01*
G36*
X130161503Y-137986069D02*
G01*
X128611503Y-137986069D01*
X128611503Y-137736069D01*
X130161503Y-137736069D01*
X130161503Y-137986069D01*
G37*
%TD*%
D11*
%TO.C,R23*%
X117836503Y-91183927D03*
X120761503Y-91183927D03*
%TD*%
D12*
%TO.C,C3*%
X117757502Y-45965000D03*
X120707502Y-45964998D03*
%TD*%
D13*
%TO.C,R16*%
X135848803Y-75729913D03*
X132923803Y-75729913D03*
%TD*%
D14*
%TO.C,C23*%
X128437502Y-154741783D03*
X125487502Y-154741783D03*
%TD*%
D15*
%TO.C,D33*%
X161003481Y-97457731D03*
X162878481Y-97457731D03*
%TD*%
D12*
%TO.C,C4*%
X117757502Y-50534999D03*
X120707502Y-50534999D03*
%TD*%
%TO.C,C16*%
X117832502Y-107799641D03*
X120782502Y-107799641D03*
%TD*%
D15*
%TO.C,D38*%
X167053481Y-111557731D03*
X168928481Y-111557731D03*
%TD*%
D13*
%TO.C,R3*%
X135771503Y-49374999D03*
X132846503Y-49374999D03*
%TD*%
D15*
%TO.C,D42*%
X161003481Y-118607731D03*
X162878481Y-118607731D03*
%TD*%
%TO.C,D29*%
X167053481Y-90407731D03*
X168928481Y-90407731D03*
%TD*%
%TO.C,D39*%
X161003481Y-111557731D03*
X162878481Y-111557731D03*
%TD*%
D13*
%TO.C,R9*%
X135796503Y-63662499D03*
X132871503Y-63662499D03*
%TD*%
D16*
%TO.C,D13*%
X120695002Y-110069641D03*
X117895002Y-110069641D03*
%TD*%
D13*
%TO.C,R40*%
X135848803Y-133032769D03*
X132923803Y-133032769D03*
%TD*%
D12*
%TO.C,C13*%
X117832502Y-93473927D03*
X120782502Y-93473927D03*
%TD*%
%TO.C,C6*%
X117782502Y-60252499D03*
X120732502Y-60252499D03*
%TD*%
D11*
%TO.C,R11*%
X117786503Y-62532499D03*
X120711503Y-62532499D03*
%TD*%
D15*
%TO.C,D5*%
X179087500Y-90410000D03*
X180962500Y-90410000D03*
%TD*%
D13*
%TO.C,R37*%
X135850002Y-130731069D03*
X132925002Y-130731069D03*
%TD*%
D15*
%TO.C,D41*%
X167053481Y-118607731D03*
X168928481Y-118607731D03*
%TD*%
D12*
%TO.C,C18*%
X117832502Y-117555355D03*
X120782502Y-117555355D03*
%TD*%
D16*
%TO.C,D22*%
X120715002Y-153046783D03*
X117915002Y-153046783D03*
%TD*%
%TO.C,D7*%
X120695002Y-81418213D03*
X117895002Y-81418213D03*
%TD*%
D11*
%TO.C,R35*%
X117836503Y-119835355D03*
X120761503Y-119835355D03*
%TD*%
D12*
%TO.C,C19*%
X117832502Y-122125355D03*
X120782502Y-122125355D03*
%TD*%
D17*
%TO.C,C1*%
X155906489Y-144837928D03*
X162306489Y-144837932D03*
%TD*%
D15*
%TO.C,D11*%
X179087500Y-104510000D03*
X180962500Y-104510000D03*
%TD*%
D16*
%TO.C,D10*%
X120695002Y-95743927D03*
X117895002Y-95743927D03*
%TD*%
D14*
%TO.C,C11*%
X128417502Y-97438927D03*
X125467502Y-97438927D03*
%TD*%
D15*
%TO.C,D26*%
X167053481Y-83357731D03*
X168928481Y-83357731D03*
%TD*%
D16*
%TO.C,D4*%
X120645002Y-67092499D03*
X117845002Y-67092499D03*
%TD*%
D13*
%TO.C,R19*%
X135850002Y-87753927D03*
X132925002Y-87753927D03*
%TD*%
D15*
%TO.C,D24*%
X173037500Y-132710000D03*
X174912500Y-132710000D03*
%TD*%
D13*
%TO.C,R28*%
X135848803Y-104381341D03*
X132923803Y-104381341D03*
%TD*%
D18*
%TO.C,Q6*%
X129417502Y-117652855D03*
X131317502Y-117652855D03*
X130367502Y-115777855D03*
%TD*%
D13*
%TO.C,R48*%
X135850002Y-151896783D03*
X132925002Y-151896783D03*
%TD*%
%TO.C,R33*%
X135846503Y-120965355D03*
X132921503Y-120965355D03*
%TD*%
D18*
%TO.C,Q2*%
X129367502Y-60349999D03*
X131267502Y-60349999D03*
X130317502Y-58474999D03*
%TD*%
D12*
%TO.C,C12*%
X117832502Y-88903927D03*
X120782502Y-88903927D03*
%TD*%
D13*
%TO.C,R45*%
X135866503Y-149616783D03*
X132941503Y-149616783D03*
%TD*%
D15*
%TO.C,D23*%
X179087500Y-132710000D03*
X180962500Y-132710000D03*
%TD*%
D12*
%TO.C,C7*%
X117782502Y-64822499D03*
X120732502Y-64822499D03*
%TD*%
D13*
%TO.C,R4*%
X135773803Y-47116699D03*
X132848803Y-47116699D03*
%TD*%
D15*
%TO.C,D47*%
X167053481Y-132707731D03*
X168928481Y-132707731D03*
%TD*%
%TO.C,D27*%
X161003481Y-83357731D03*
X162878481Y-83357731D03*
%TD*%
D13*
%TO.C,R46*%
X135868803Y-147358483D03*
X132943803Y-147358483D03*
%TD*%
D16*
%TO.C,D16*%
X120695002Y-124395355D03*
X117895002Y-124395355D03*
%TD*%
D13*
%TO.C,R14*%
X126720002Y-74528213D03*
X123795002Y-74528213D03*
%TD*%
D14*
%TO.C,C14*%
X128417502Y-111764641D03*
X125467502Y-111764641D03*
%TD*%
%TO.C,C17*%
X128417502Y-126090355D03*
X125467502Y-126090355D03*
%TD*%
D19*
%TO.C,F1*%
X162537499Y-153184999D03*
X155762501Y-153185001D03*
%TD*%
D11*
%TO.C,R29*%
X117836503Y-105509641D03*
X120761503Y-105509641D03*
%TD*%
D13*
%TO.C,R30*%
X135830002Y-108919641D03*
X132905002Y-108919641D03*
%TD*%
%TO.C,R39*%
X135846503Y-135291069D03*
X132921503Y-135291069D03*
%TD*%
D15*
%TO.C,D45*%
X161003481Y-125657731D03*
X162878481Y-125657731D03*
%TD*%
D14*
%TO.C,C2*%
X128342502Y-54499999D03*
X125392502Y-54499999D03*
%TD*%
D18*
%TO.C,Q7*%
X129417502Y-131978569D03*
X131317502Y-131978569D03*
X130367502Y-130103569D03*
%TD*%
D13*
%TO.C,R1*%
X135775000Y-44815000D03*
X132850004Y-44814998D03*
%TD*%
D12*
%TO.C,C24*%
X117852502Y-146206783D03*
X120802502Y-146206783D03*
%TD*%
D15*
%TO.C,D3*%
X173037500Y-83360000D03*
X174912500Y-83360000D03*
%TD*%
D13*
%TO.C,R8*%
X126670002Y-60202499D03*
X123745002Y-60202499D03*
%TD*%
%TO.C,R34*%
X135848803Y-118707055D03*
X132923803Y-118707055D03*
%TD*%
%TO.C,R44*%
X126740002Y-146156783D03*
X123815002Y-146156783D03*
%TD*%
D15*
%TO.C,D44*%
X167053481Y-125657731D03*
X168928481Y-125657731D03*
%TD*%
D12*
%TO.C,C25*%
X117852502Y-150776783D03*
X120802502Y-150776783D03*
%TD*%
D13*
%TO.C,R38*%
X126720002Y-131831069D03*
X123795002Y-131831069D03*
%TD*%
D18*
%TO.C,Q4*%
X129417502Y-89001427D03*
X131317502Y-89001427D03*
X130367502Y-87126427D03*
%TD*%
D15*
%TO.C,D9*%
X173037500Y-97460000D03*
X174912500Y-97460000D03*
%TD*%
%TO.C,D20*%
X179087500Y-125660000D03*
X180962500Y-125660000D03*
%TD*%
D13*
%TO.C,R43*%
X135870002Y-145056783D03*
X132945002Y-145056783D03*
%TD*%
D15*
%TO.C,D30*%
X161003481Y-90407731D03*
X162878481Y-90407731D03*
%TD*%
D18*
%TO.C,Q3*%
X129417502Y-74675713D03*
X131317502Y-74675713D03*
X130367502Y-72800713D03*
%TD*%
%TO.C,Q1*%
X129342502Y-46062499D03*
X131242502Y-46062499D03*
X130292502Y-44187499D03*
%TD*%
D11*
%TO.C,R47*%
X117856503Y-148486783D03*
X120781503Y-148486783D03*
%TD*%
D13*
%TO.C,R15*%
X135846503Y-77988213D03*
X132921503Y-77988213D03*
%TD*%
%TO.C,R10*%
X135798803Y-61404199D03*
X132873803Y-61404199D03*
%TD*%
D14*
%TO.C,C20*%
X128417502Y-140416069D03*
X125467502Y-140416069D03*
%TD*%
D16*
%TO.C,D19*%
X120695002Y-138721069D03*
X117895002Y-138721069D03*
%TD*%
D13*
%TO.C,R6*%
X135755000Y-51655000D03*
X132830004Y-51654998D03*
%TD*%
D15*
%TO.C,D18*%
X173037500Y-118610000D03*
X174912500Y-118610000D03*
%TD*%
D13*
%TO.C,R7*%
X135800002Y-59102499D03*
X132875002Y-59102499D03*
%TD*%
D15*
%TO.C,D15*%
X173062500Y-111560000D03*
X174937500Y-111560000D03*
%TD*%
D14*
%TO.C,C5*%
X128367502Y-68787499D03*
X125417502Y-68787499D03*
%TD*%
D13*
%TO.C,R18*%
X135830002Y-80268213D03*
X132905002Y-80268213D03*
%TD*%
D18*
%TO.C,Q8*%
X129437502Y-146304283D03*
X131337502Y-146304283D03*
X130387502Y-144429283D03*
%TD*%
D13*
%TO.C,R24*%
X135830002Y-94593927D03*
X132905002Y-94593927D03*
%TD*%
D16*
%TO.C,D1*%
X120620002Y-52804999D03*
X117820002Y-52804999D03*
%TD*%
D13*
%TO.C,R13*%
X135850002Y-73428213D03*
X132925002Y-73428213D03*
%TD*%
%TO.C,R27*%
X135846503Y-106639641D03*
X132921503Y-106639641D03*
%TD*%
D15*
%TO.C,D2*%
X179087500Y-83360000D03*
X180962500Y-83360000D03*
%TD*%
D13*
%TO.C,R21*%
X135846503Y-92313927D03*
X132921503Y-92313927D03*
%TD*%
D15*
%TO.C,D14*%
X179087500Y-111560000D03*
X180962500Y-111560000D03*
%TD*%
D13*
%TO.C,R42*%
X135830002Y-137571069D03*
X132905002Y-137571069D03*
%TD*%
D15*
%TO.C,D21*%
X173037500Y-125660000D03*
X174912500Y-125660000D03*
%TD*%
D13*
%TO.C,R12*%
X135780002Y-65942499D03*
X132855002Y-65942499D03*
%TD*%
%TO.C,R31*%
X135850002Y-116405355D03*
X132925002Y-116405355D03*
%TD*%
D18*
%TO.C,Q5*%
X129417502Y-103327141D03*
X131317502Y-103327141D03*
X130367502Y-101452141D03*
%TD*%
D15*
%TO.C,D48*%
X161006830Y-132708222D03*
X162881830Y-132708222D03*
%TD*%
D13*
%TO.C,R20*%
X126720002Y-88853927D03*
X123795002Y-88853927D03*
%TD*%
%TO.C,R32*%
X126720002Y-117505355D03*
X123795002Y-117505355D03*
%TD*%
D12*
%TO.C,C9*%
X117832502Y-74578213D03*
X120782502Y-74578213D03*
%TD*%
D13*
%TO.C,R2*%
X126645002Y-45914999D03*
X123720002Y-45914999D03*
%TD*%
D12*
%TO.C,C22*%
X117832502Y-136451069D03*
X120782502Y-136451069D03*
%TD*%
D11*
%TO.C,R5*%
X117761503Y-48244999D03*
X120686503Y-48244999D03*
%TD*%
D15*
%TO.C,D8*%
X179087500Y-97460000D03*
X180962500Y-97460000D03*
%TD*%
%TO.C,D32*%
X167053481Y-97457731D03*
X168928481Y-97457731D03*
%TD*%
D12*
%TO.C,C21*%
X117832502Y-131881069D03*
X120782502Y-131881069D03*
%TD*%
D13*
%TO.C,R26*%
X126720002Y-103179641D03*
X123795002Y-103179641D03*
%TD*%
D15*
%TO.C,D36*%
X161003481Y-104507731D03*
X162878481Y-104507731D03*
%TD*%
%TO.C,D12*%
X173037500Y-104510000D03*
X174912500Y-104510000D03*
%TD*%
D11*
%TO.C,R17*%
X117836503Y-76858213D03*
X120761503Y-76858213D03*
%TD*%
D13*
%TO.C,R22*%
X135848803Y-90055627D03*
X132923803Y-90055627D03*
%TD*%
%TO.C,R36*%
X135830002Y-123245355D03*
X132905002Y-123245355D03*
%TD*%
D12*
%TO.C,C10*%
X117832502Y-79148213D03*
X120782502Y-79148213D03*
%TD*%
%TO.C,C15*%
X117832502Y-103229641D03*
X120782502Y-103229641D03*
%TD*%
D15*
%TO.C,D35*%
X167053481Y-104507731D03*
X168928481Y-104507731D03*
%TD*%
D11*
%TO.C,R41*%
X117836503Y-134161069D03*
X120761503Y-134161069D03*
%TD*%
D13*
%TO.C,R25*%
X135850002Y-102079641D03*
X132925002Y-102079641D03*
%TD*%
D15*
%TO.C,D17*%
X179087500Y-118610000D03*
X180962500Y-118610000D03*
%TD*%
D14*
%TO.C,C8*%
X128417502Y-83113213D03*
X125467502Y-83113213D03*
%TD*%
D15*
%TO.C,D6*%
X173037500Y-90410000D03*
X174912500Y-90410000D03*
%TD*%
M02*
