%TF.GenerationSoftware,KiCad,Pcbnew,8.0.1*%
%TF.CreationDate,2024-08-26T16:05:16-04:00*%
%TF.ProjectId,16ch-driver-v1,31366368-2d64-4726-9976-65722d76312e,rev?*%
%TF.SameCoordinates,Original*%
%TF.FileFunction,Soldermask,Bot*%
%TF.FilePolarity,Negative*%
%FSLAX46Y46*%
G04 Gerber Fmt 4.6, Leading zero omitted, Abs format (unit mm)*
G04 Created by KiCad (PCBNEW 8.0.1) date 2024-08-26 16:05:16*
%MOMM*%
%LPD*%
G01*
G04 APERTURE LIST*
G04 Aperture macros list*
%AMRoundRect*
0 Rectangle with rounded corners*
0 $1 Rounding radius*
0 $2 $3 $4 $5 $6 $7 $8 $9 X,Y pos of 4 corners*
0 Add a 4 corners polygon primitive as box body*
4,1,4,$2,$3,$4,$5,$6,$7,$8,$9,$2,$3,0*
0 Add four circle primitives for the rounded corners*
1,1,$1+$1,$2,$3*
1,1,$1+$1,$4,$5*
1,1,$1+$1,$6,$7*
1,1,$1+$1,$8,$9*
0 Add four rect primitives between the rounded corners*
20,1,$1+$1,$2,$3,$4,$5,0*
20,1,$1+$1,$4,$5,$6,$7,0*
20,1,$1+$1,$6,$7,$8,$9,0*
20,1,$1+$1,$8,$9,$2,$3,0*%
G04 Aperture macros list end*
%ADD10C,0.010000*%
%ADD11C,3.200000*%
%ADD12C,1.250000*%
%ADD13RoundRect,0.102000X-0.754000X0.754000X-0.754000X-0.754000X0.754000X-0.754000X0.754000X0.754000X0*%
%ADD14C,1.712000*%
%ADD15C,1.600000*%
%ADD16O,2.454000X4.704000*%
%ADD17O,2.204000X4.204000*%
%ADD18O,4.204000X2.204000*%
%ADD19RoundRect,0.250000X0.312500X0.625000X-0.312500X0.625000X-0.312500X-0.625000X0.312500X-0.625000X0*%
%ADD20RoundRect,0.150000X-0.150000X0.587500X-0.150000X-0.587500X0.150000X-0.587500X0.150000X0.587500X0*%
%ADD21RoundRect,0.250000X0.325000X1.100000X-0.325000X1.100000X-0.325000X-1.100000X0.325000X-1.100000X0*%
%ADD22RoundRect,0.250000X-0.325000X-0.650000X0.325000X-0.650000X0.325000X0.650000X-0.325000X0.650000X0*%
%ADD23RoundRect,0.102000X-0.800000X-0.150000X0.800000X-0.150000X0.800000X0.150000X-0.800000X0.150000X0*%
%ADD24R,1.200000X1.200000*%
%ADD25RoundRect,0.250000X-0.312500X-0.625000X0.312500X-0.625000X0.312500X0.625000X-0.312500X0.625000X0*%
G04 APERTURE END LIST*
D10*
%TO.C,U12*%
X127816503Y-94084999D02*
X125356503Y-94084999D01*
X125356503Y-91774999D01*
X127816503Y-91774999D01*
X127816503Y-94084999D01*
G36*
X127816503Y-94084999D02*
G01*
X125356503Y-94084999D01*
X125356503Y-91774999D01*
X127816503Y-91774999D01*
X127816503Y-94084999D01*
G37*
%TO.C,U13*%
X127816503Y-108409999D02*
X125356503Y-108409999D01*
X125356503Y-106099999D01*
X127816503Y-106099999D01*
X127816503Y-108409999D01*
G36*
X127816503Y-108409999D02*
G01*
X125356503Y-108409999D01*
X125356503Y-106099999D01*
X127816503Y-106099999D01*
X127816503Y-108409999D01*
G37*
%TO.C,U9*%
X127741503Y-51147499D02*
X125281503Y-51147499D01*
X125281503Y-48837499D01*
X127741503Y-48837499D01*
X127741503Y-51147499D01*
G36*
X127741503Y-51147499D02*
G01*
X125281503Y-51147499D01*
X125281503Y-48837499D01*
X127741503Y-48837499D01*
X127741503Y-51147499D01*
G37*
%TO.C,U16*%
X127847502Y-151379999D02*
X125387502Y-151379999D01*
X125387502Y-149069999D01*
X127847502Y-149069999D01*
X127847502Y-151379999D01*
G36*
X127847502Y-151379999D02*
G01*
X125387502Y-151379999D01*
X125387502Y-149069999D01*
X127847502Y-149069999D01*
X127847502Y-151379999D01*
G37*
%TO.C,U10*%
X127766503Y-65434999D02*
X125306503Y-65434999D01*
X125306503Y-63124999D01*
X127766503Y-63124999D01*
X127766503Y-65434999D01*
G36*
X127766503Y-65434999D02*
G01*
X125306503Y-65434999D01*
X125306503Y-63124999D01*
X127766503Y-63124999D01*
X127766503Y-65434999D01*
G37*
%TO.C,U14*%
X127816503Y-122734999D02*
X125356503Y-122734999D01*
X125356503Y-120424999D01*
X127816503Y-120424999D01*
X127816503Y-122734999D01*
G36*
X127816503Y-122734999D02*
G01*
X125356503Y-122734999D01*
X125356503Y-120424999D01*
X127816503Y-120424999D01*
X127816503Y-122734999D01*
G37*
%TO.C,U15*%
X127805000Y-137065000D02*
X125345000Y-137065000D01*
X125345000Y-134755000D01*
X127805000Y-134755000D01*
X127805000Y-137065000D01*
G36*
X127805000Y-137065000D02*
G01*
X125345000Y-137065000D01*
X125345000Y-134755000D01*
X127805000Y-134755000D01*
X127805000Y-137065000D01*
G37*
%TO.C,U11*%
X127816503Y-79759999D02*
X125356503Y-79759999D01*
X125356503Y-77449999D01*
X127816503Y-77449999D01*
X127816503Y-79759999D01*
G36*
X127816503Y-79759999D02*
G01*
X125356503Y-79759999D01*
X125356503Y-77449999D01*
X127816503Y-77449999D01*
X127816503Y-79759999D01*
G37*
%TD*%
D11*
%TO.C,H3*%
X97075000Y-44835000D03*
%TD*%
D12*
%TO.C,LP4*%
X181980000Y-101910000D03*
X159980000Y-107110000D03*
%TD*%
D13*
%TO.C,J3*%
X106637502Y-60639998D03*
X101557503Y-60640002D03*
D14*
X106637502Y-63179998D03*
X101557504Y-63179998D03*
X106637506Y-65719997D03*
X101557500Y-65719998D03*
X106637502Y-68259998D03*
X101557505Y-68259999D03*
X106637501Y-70799998D03*
X101557502Y-70800000D03*
X106637506Y-73339997D03*
X101557502Y-73339997D03*
X106637502Y-75879998D03*
X101557505Y-75879998D03*
X106637505Y-78420001D03*
X101557498Y-78419999D03*
X106637500Y-80960001D03*
X101557502Y-80959998D03*
X106637498Y-83499998D03*
X101557500Y-83499999D03*
X106637502Y-86039998D03*
X101557502Y-86039998D03*
X106637502Y-88579998D03*
X101557506Y-88579999D03*
X106637500Y-91119999D03*
X101557502Y-91119998D03*
X106637502Y-93659999D03*
X101557498Y-93659997D03*
X106637502Y-96199998D03*
X101557504Y-96199994D03*
X106637502Y-98739997D03*
X101557505Y-98739998D03*
%TD*%
D12*
%TO.C,LP7*%
X181979997Y-123060001D03*
X159979997Y-128260001D03*
%TD*%
%TO.C,LP5*%
X181979998Y-108959998D03*
X159979998Y-114159998D03*
%TD*%
D15*
%TO.C,J1*%
X179955088Y-146253587D03*
D16*
X170955086Y-146253591D03*
D17*
X176955086Y-146253591D03*
D18*
X177955085Y-141753590D03*
X177955086Y-150753591D03*
%TD*%
D11*
%TO.C,H1*%
X97075000Y-156060000D03*
%TD*%
D13*
%TO.C,J4*%
X106662502Y-103439998D03*
X101582503Y-103440002D03*
D14*
X106662502Y-105979998D03*
X101582504Y-105979998D03*
X106662506Y-108519997D03*
X101582500Y-108519997D03*
X106662502Y-111059998D03*
X101582505Y-111059999D03*
X106662501Y-113599998D03*
X101582502Y-113599999D03*
X106662506Y-116139997D03*
X101582502Y-116139997D03*
X106662502Y-118679998D03*
X101582505Y-118679998D03*
X106662505Y-121220001D03*
X101582498Y-121219999D03*
X106662500Y-123760001D03*
X101582502Y-123759998D03*
X106662498Y-126299998D03*
X101582500Y-126299999D03*
X106662502Y-128839998D03*
X101582502Y-128839998D03*
X106662502Y-131379998D03*
X101582506Y-131379999D03*
X106662500Y-133919999D03*
X101582502Y-133919998D03*
X106662502Y-136459999D03*
X101582498Y-136459996D03*
X106662502Y-138999998D03*
X101582504Y-138999994D03*
X106662502Y-141539997D03*
X101582505Y-141539998D03*
%TD*%
D11*
%TO.C,H2*%
X180025000Y-156060000D03*
%TD*%
D13*
%TO.C,U18*%
X179697061Y-49188985D03*
D14*
X179697064Y-51728988D03*
X177157064Y-49188988D03*
X177157065Y-51728987D03*
X174617064Y-49188983D03*
X174617064Y-51728984D03*
X172077066Y-49188983D03*
X172077064Y-51728987D03*
X169537064Y-49188987D03*
X169537064Y-51728986D03*
X166997064Y-49188987D03*
X166997064Y-51728987D03*
X164457064Y-49188987D03*
X164457064Y-51728987D03*
X161917064Y-49188987D03*
X161917064Y-51728987D03*
X159377064Y-49188987D03*
X159377064Y-51728987D03*
X156837067Y-49188988D03*
X156837064Y-51728987D03*
X154297063Y-49188987D03*
X154297064Y-51728987D03*
X151757068Y-49188981D03*
X151757060Y-51728985D03*
X149217064Y-49188987D03*
X149217064Y-51728987D03*
D13*
X179697064Y-72078987D03*
D14*
X179687070Y-74618982D03*
X177157064Y-72078987D03*
X177157064Y-74618987D03*
X174617068Y-72078989D03*
X174617060Y-74618993D03*
X172077064Y-72078987D03*
X172077065Y-74618987D03*
X169537064Y-72078987D03*
X169537061Y-74618986D03*
X166997064Y-72078987D03*
X166997064Y-74618987D03*
X164457064Y-72078987D03*
X164457064Y-74618987D03*
X161917064Y-72078987D03*
X161917064Y-74618987D03*
X159377064Y-72078987D03*
X159377064Y-74618987D03*
X156837064Y-72078988D03*
X156837064Y-74618987D03*
X154297064Y-72078987D03*
X154297062Y-74618991D03*
X151757064Y-72078990D03*
X151757064Y-74618991D03*
X149217063Y-72078987D03*
X149217064Y-74618986D03*
%TD*%
D12*
%TO.C,LP8*%
X181980000Y-130110000D03*
X159980000Y-135310000D03*
%TD*%
%TO.C,LP2*%
X181979997Y-87810002D03*
X159979997Y-93010002D03*
%TD*%
D11*
%TO.C,H4*%
X180025000Y-44835000D03*
%TD*%
D12*
%TO.C,LP6*%
X181980000Y-116010002D03*
X159980000Y-121210002D03*
%TD*%
%TO.C,LP1*%
X181979997Y-80759998D03*
X159979997Y-85959998D03*
%TD*%
%TO.C,LP3*%
X181980000Y-94860000D03*
X159980000Y-100060000D03*
%TD*%
D19*
%TO.C,R78*%
X135830000Y-105595000D03*
X132905004Y-105594998D03*
%TD*%
%TO.C,R55*%
X135800000Y-69460000D03*
X132875004Y-69459998D03*
%TD*%
%TO.C,R67*%
X135850000Y-98110000D03*
X132925004Y-98109998D03*
%TD*%
D20*
%TO.C,Q9*%
X129342503Y-53925001D03*
X131242504Y-53925001D03*
X130292500Y-55799998D03*
%TD*%
D19*
%TO.C,R60*%
X135780000Y-62620000D03*
X132855004Y-62619998D03*
%TD*%
D21*
%TO.C,C38*%
X128417503Y-102749997D03*
X125467501Y-102750001D03*
%TD*%
%TO.C,C32*%
X128417503Y-74099997D03*
X125467501Y-74100001D03*
%TD*%
D22*
%TO.C,C27*%
X117757501Y-54022501D03*
X120707503Y-54022497D03*
%TD*%
D20*
%TO.C,Q16*%
X129448502Y-154157501D03*
X131348503Y-154157501D03*
X130398499Y-156032498D03*
%TD*%
D19*
%TO.C,R70*%
X135848801Y-95808300D03*
X132923805Y-95808298D03*
%TD*%
D21*
%TO.C,C35*%
X128417503Y-88424997D03*
X125467501Y-88425001D03*
%TD*%
D19*
%TO.C,R57*%
X135796501Y-64900000D03*
X132871505Y-64899998D03*
%TD*%
D23*
%TO.C,U12*%
X123786503Y-94879999D03*
X123786503Y-94229999D03*
X123786503Y-93579999D03*
X123786503Y-92929999D03*
X123786503Y-92279999D03*
X123786503Y-91629999D03*
X123786503Y-90979999D03*
X129386503Y-90979999D03*
X129386503Y-91629999D03*
X129386503Y-92279999D03*
X129386503Y-92929999D03*
X129386503Y-93579999D03*
X129386503Y-94229999D03*
X129386503Y-94879999D03*
%TD*%
D19*
%TO.C,R92*%
X126750999Y-154305000D03*
X123826003Y-154304998D03*
%TD*%
%TO.C,R76*%
X135848801Y-110133300D03*
X132923805Y-110133298D03*
%TD*%
%TO.C,R90*%
X135818497Y-134250001D03*
X132893501Y-134249999D03*
%TD*%
D22*
%TO.C,C49*%
X117863500Y-149685001D03*
X120813502Y-149684997D03*
%TD*%
%TO.C,C39*%
X117832501Y-111285001D03*
X120782503Y-111284997D03*
%TD*%
D19*
%TO.C,R74*%
X126720000Y-111335000D03*
X123795004Y-111334998D03*
%TD*%
%TO.C,R63*%
X135846501Y-79225000D03*
X132921505Y-79224998D03*
%TD*%
D20*
%TO.C,Q15*%
X129406000Y-139842502D03*
X131306001Y-139842502D03*
X130355997Y-141717499D03*
%TD*%
D19*
%TO.C,R62*%
X126720000Y-82685000D03*
X123795004Y-82684998D03*
%TD*%
D24*
%TO.C,D28*%
X120645002Y-61469999D03*
X117845002Y-61469999D03*
%TD*%
D23*
%TO.C,U13*%
X123786503Y-109204999D03*
X123786503Y-108554999D03*
X123786503Y-107904999D03*
X123786503Y-107254999D03*
X123786503Y-106604999D03*
X123786503Y-105954999D03*
X123786503Y-105304999D03*
X129386503Y-105304999D03*
X129386503Y-105954999D03*
X129386503Y-106604999D03*
X129386503Y-107254999D03*
X129386503Y-107904999D03*
X129386503Y-108554999D03*
X129386503Y-109204999D03*
%TD*%
D22*
%TO.C,C30*%
X117782501Y-68310001D03*
X120732503Y-68309997D03*
%TD*%
D24*
%TO.C,D25*%
X120620002Y-47182499D03*
X117820002Y-47182499D03*
%TD*%
D19*
%TO.C,R69*%
X135846501Y-93550000D03*
X132921505Y-93549998D03*
%TD*%
%TO.C,R61*%
X135850000Y-83785000D03*
X132925004Y-83784998D03*
%TD*%
%TO.C,R68*%
X126720000Y-97010000D03*
X123795004Y-97009998D03*
%TD*%
D21*
%TO.C,C29*%
X128367503Y-59774997D03*
X125417501Y-59775001D03*
%TD*%
D19*
%TO.C,R94*%
X135879800Y-153103300D03*
X132954804Y-153103298D03*
%TD*%
%TO.C,R85*%
X135838497Y-141090001D03*
X132913501Y-141089999D03*
%TD*%
%TO.C,R64*%
X135848801Y-81483300D03*
X132923805Y-81483298D03*
%TD*%
D25*
%TO.C,R59*%
X117786505Y-66029998D03*
X120711501Y-66030000D03*
%TD*%
D19*
%TO.C,R84*%
X135830000Y-119920000D03*
X132905004Y-119919998D03*
%TD*%
%TO.C,R54*%
X135755000Y-48332500D03*
X132830004Y-48332498D03*
%TD*%
D22*
%TO.C,C40*%
X117832501Y-106715001D03*
X120782503Y-106714997D03*
%TD*%
D24*
%TO.C,D37*%
X120695002Y-104444999D03*
X117895002Y-104444999D03*
%TD*%
D19*
%TO.C,R49*%
X135775000Y-55172500D03*
X132850004Y-55172498D03*
%TD*%
D23*
%TO.C,U9*%
X123711503Y-51942499D03*
X123711503Y-51292499D03*
X123711503Y-50642499D03*
X123711503Y-49992499D03*
X123711503Y-49342499D03*
X123711503Y-48692499D03*
X123711503Y-48042499D03*
X129311503Y-48042499D03*
X129311503Y-48692499D03*
X129311503Y-49342499D03*
X129311503Y-49992499D03*
X129311503Y-50642499D03*
X129311503Y-51292499D03*
X129311503Y-51942499D03*
%TD*%
D19*
%TO.C,R50*%
X126645000Y-54072500D03*
X123720004Y-54072498D03*
%TD*%
%TO.C,R73*%
X135850000Y-112435000D03*
X132925004Y-112434998D03*
%TD*%
D20*
%TO.C,Q10*%
X129367503Y-68212501D03*
X131267504Y-68212501D03*
X130317500Y-70087498D03*
%TD*%
D21*
%TO.C,C26*%
X128342503Y-45487497D03*
X125392501Y-45487501D03*
%TD*%
D24*
%TO.C,D34*%
X120695002Y-90119999D03*
X117895002Y-90119999D03*
%TD*%
D19*
%TO.C,R72*%
X135830000Y-91270000D03*
X132905004Y-91269998D03*
%TD*%
D22*
%TO.C,C45*%
X117820998Y-139940002D03*
X120771000Y-139939998D03*
%TD*%
%TO.C,C37*%
X117832501Y-92390001D03*
X120782503Y-92389997D03*
%TD*%
D19*
%TO.C,R66*%
X135830000Y-76945000D03*
X132905004Y-76944998D03*
%TD*%
D22*
%TO.C,C31*%
X117782501Y-63740001D03*
X120732503Y-63739997D03*
%TD*%
D19*
%TO.C,R96*%
X135860999Y-148565000D03*
X132936003Y-148564998D03*
%TD*%
D22*
%TO.C,C43*%
X117832501Y-121040001D03*
X120782503Y-121039997D03*
%TD*%
%TO.C,C46*%
X117820998Y-135370002D03*
X120771000Y-135369998D03*
%TD*%
D25*
%TO.C,R71*%
X117836505Y-94679998D03*
X120761501Y-94680000D03*
%TD*%
D19*
%TO.C,R75*%
X135846501Y-107875000D03*
X132921505Y-107874998D03*
%TD*%
D24*
%TO.C,D40*%
X120695002Y-118769999D03*
X117895002Y-118769999D03*
%TD*%
D23*
%TO.C,U16*%
X123817502Y-152174999D03*
X123817502Y-151524999D03*
X123817502Y-150874999D03*
X123817502Y-150224999D03*
X123817502Y-149574999D03*
X123817502Y-148924999D03*
X123817502Y-148274999D03*
X129417502Y-148274999D03*
X129417502Y-148924999D03*
X129417502Y-149574999D03*
X129417502Y-150224999D03*
X129417502Y-150874999D03*
X129417502Y-151524999D03*
X129417502Y-152174999D03*
%TD*%
D21*
%TO.C,C41*%
X128417503Y-117074997D03*
X125467501Y-117075001D03*
%TD*%
D19*
%TO.C,R93*%
X135877500Y-150845000D03*
X132952504Y-150844998D03*
%TD*%
D23*
%TO.C,U10*%
X123736503Y-66229999D03*
X123736503Y-65579999D03*
X123736503Y-64929999D03*
X123736503Y-64279999D03*
X123736503Y-63629999D03*
X123736503Y-62979999D03*
X123736503Y-62329999D03*
X129336503Y-62329999D03*
X129336503Y-62979999D03*
X129336503Y-63629999D03*
X129336503Y-64279999D03*
X129336503Y-64929999D03*
X129336503Y-65579999D03*
X129336503Y-66229999D03*
%TD*%
D19*
%TO.C,R51*%
X135771501Y-50612500D03*
X132846505Y-50612498D03*
%TD*%
D25*
%TO.C,R77*%
X117836505Y-109004998D03*
X120761501Y-109005000D03*
%TD*%
D24*
%TO.C,D43*%
X120683499Y-133100000D03*
X117883499Y-133100000D03*
%TD*%
D22*
%TO.C,C42*%
X117832501Y-125610001D03*
X120782503Y-125609997D03*
%TD*%
%TO.C,C36*%
X117832501Y-96960001D03*
X120782503Y-96959997D03*
%TD*%
D21*
%TO.C,C47*%
X128448502Y-145719997D03*
X125498500Y-145720001D03*
%TD*%
D22*
%TO.C,C34*%
X117832501Y-78065001D03*
X120782503Y-78064997D03*
%TD*%
D19*
%TO.C,R91*%
X135880999Y-155405000D03*
X132956003Y-155404998D03*
%TD*%
D23*
%TO.C,U14*%
X123786503Y-123529999D03*
X123786503Y-122879999D03*
X123786503Y-122229999D03*
X123786503Y-121579999D03*
X123786503Y-120929999D03*
X123786503Y-120279999D03*
X123786503Y-119629999D03*
X129386503Y-119629999D03*
X129386503Y-120279999D03*
X129386503Y-120929999D03*
X129386503Y-121579999D03*
X129386503Y-122229999D03*
X129386503Y-122879999D03*
X129386503Y-123529999D03*
%TD*%
D19*
%TO.C,R58*%
X135798801Y-67158300D03*
X132873805Y-67158298D03*
%TD*%
D25*
%TO.C,R65*%
X117836505Y-80354998D03*
X120761501Y-80355000D03*
%TD*%
D20*
%TO.C,Q11*%
X129417503Y-82537501D03*
X131317504Y-82537501D03*
X130367500Y-84412498D03*
%TD*%
%TO.C,Q14*%
X129417503Y-125512501D03*
X131317504Y-125512501D03*
X130367500Y-127387498D03*
%TD*%
D25*
%TO.C,R89*%
X117825002Y-137659999D03*
X120749998Y-137660001D03*
%TD*%
D19*
%TO.C,R80*%
X126720000Y-125660000D03*
X123795004Y-125659998D03*
%TD*%
D22*
%TO.C,C28*%
X117757501Y-49452501D03*
X120707503Y-49452497D03*
%TD*%
D23*
%TO.C,U15*%
X123775000Y-137860000D03*
X123775000Y-137210000D03*
X123775000Y-136560000D03*
X123775000Y-135910000D03*
X123775000Y-135260000D03*
X123775000Y-134610000D03*
X123775000Y-133960000D03*
X129375000Y-133960000D03*
X129375000Y-134610000D03*
X129375000Y-135260000D03*
X129375000Y-135910000D03*
X129375000Y-136560000D03*
X129375000Y-137210000D03*
X129375000Y-137860000D03*
%TD*%
D24*
%TO.C,D46*%
X120726001Y-147414999D03*
X117926001Y-147414999D03*
%TD*%
D19*
%TO.C,R81*%
X135846501Y-122200000D03*
X132921505Y-122199998D03*
%TD*%
%TO.C,R52*%
X135773801Y-52870800D03*
X132848805Y-52870798D03*
%TD*%
%TO.C,R56*%
X126670000Y-68360000D03*
X123745004Y-68359998D03*
%TD*%
%TO.C,R82*%
X135848801Y-124458300D03*
X132923805Y-124458298D03*
%TD*%
D25*
%TO.C,R95*%
X117867504Y-151974998D03*
X120792500Y-151975000D03*
%TD*%
D19*
%TO.C,R79*%
X135850000Y-126760000D03*
X132925004Y-126759998D03*
%TD*%
D21*
%TO.C,C44*%
X128406000Y-131404998D03*
X125455998Y-131405002D03*
%TD*%
D23*
%TO.C,U11*%
X123786503Y-80554999D03*
X123786503Y-79904999D03*
X123786503Y-79254999D03*
X123786503Y-78604999D03*
X123786503Y-77954999D03*
X123786503Y-77304999D03*
X123786503Y-76654999D03*
X129386503Y-76654999D03*
X129386503Y-77304999D03*
X129386503Y-77954999D03*
X129386503Y-78604999D03*
X129386503Y-79254999D03*
X129386503Y-79904999D03*
X129386503Y-80554999D03*
%TD*%
D19*
%TO.C,R86*%
X126708497Y-139990001D03*
X123783501Y-139989999D03*
%TD*%
D20*
%TO.C,Q12*%
X129417503Y-96862501D03*
X131317504Y-96862501D03*
X130367500Y-98737498D03*
%TD*%
D19*
%TO.C,R88*%
X135837298Y-138788301D03*
X132912302Y-138788299D03*
%TD*%
D20*
%TO.C,Q13*%
X129417503Y-111187501D03*
X131317504Y-111187501D03*
X130367500Y-113062498D03*
%TD*%
D25*
%TO.C,R83*%
X117836505Y-123329998D03*
X120761501Y-123330000D03*
%TD*%
D19*
%TO.C,R87*%
X135834998Y-136530001D03*
X132910002Y-136529999D03*
%TD*%
D25*
%TO.C,R53*%
X117761505Y-51742498D03*
X120686501Y-51742500D03*
%TD*%
D24*
%TO.C,D31*%
X120695002Y-75794999D03*
X117895002Y-75794999D03*
%TD*%
D22*
%TO.C,C33*%
X117832501Y-82635001D03*
X120782503Y-82634997D03*
%TD*%
%TO.C,C48*%
X117863500Y-154255001D03*
X120813502Y-154254997D03*
%TD*%
M02*
