M48
; DRILL file {KiCad 8.0.1} date 2024-08-26T16:05:10-0400
; FORMAT={-:-/ absolute / inch / decimal}
; #@! TF.CreationDate,2024-08-26T16:05:10-04:00
; #@! TF.GenerationSoftware,Kicad,Pcbnew,8.0.1
; #@! TF.FileFunction,Plated,1,4,PTH
FMAT,2
INCH
; #@! TA.AperFunction,Plated,PTH,ViaDrill
T1C0.0157
; #@! TA.AperFunction,Plated,PTH,ComponentDrill
T2C0.0394
%
G90
G05
T1
X4.5777Y-1.8627
X4.5777Y-2.0738
X4.5784Y-1.9462
X4.5784Y-1.9904
X4.5786Y-2.4252
X4.5786Y-2.6363
X4.5788Y-1.81
X4.5788Y-2.1265
X4.5794Y-2.5087
X4.5794Y-2.5529
X4.5796Y-1.899
X4.5796Y-2.0375
X4.5798Y-2.3725
X4.5798Y-2.689
X4.5802Y-5.2453
X4.5806Y-2.4615
X4.5806Y-2.6
X4.5806Y-2.9892
X4.5806Y-3.2003
X4.5806Y-3.5531
X4.5806Y-3.7643
X4.5806Y-4.1171
X4.5806Y-4.3283
X4.5806Y-4.6811
X4.5806Y-4.8923
X4.5806Y-5.4563
X4.5809Y-5.3287
X4.5813Y-5.5091
X4.5814Y-3.0726
X4.5814Y-3.1169
X4.5814Y-3.6366
X4.5814Y-3.6809
X4.5814Y-4.2006
X4.5814Y-4.2449
X4.5814Y-4.7646
X4.5814Y-4.8089
X4.5814Y-5.3729
X4.5814Y-6.0203
X4.5818Y-2.9365
X4.5818Y-3.253
X4.5818Y-3.5005
X4.5818Y-3.8169
X4.5818Y-4.0646
X4.5818Y-4.3809
X4.5818Y-4.6286
X4.5818Y-4.9449
X4.5818Y-5.1926
X4.5818Y-5.8089
X4.5821Y-5.4201
X4.5822Y-5.9369
X4.5826Y-3.0255
X4.5826Y-3.164
X4.5826Y-3.5895
X4.5826Y-3.728
X4.5826Y-4.1535
X4.5826Y-4.2919
X4.5826Y-4.7175
X4.5826Y-4.8559
X4.5826Y-5.2815
X4.5826Y-5.7566
X4.5826Y-5.8923
X4.583Y-6.0726
X4.5834Y-5.8455
X4.5838Y-5.9837
X4.9543Y-2.5339
X4.9543Y-2.587
X4.9551Y-2.4803
X4.9551Y-5.9173
X4.9551Y-5.9705
X4.9555Y-1.9689
X4.9555Y-2.022
X4.9559Y-3.6614
X4.9559Y-3.7146
X4.9559Y-5.3508
X4.9559Y-5.4039
X4.9559Y-5.8638
X4.9563Y-1.9154
X4.9567Y-3.0992
X4.9567Y-3.1524
X4.9567Y-3.6079
X4.9567Y-4.2232
X4.9567Y-4.2764
X4.9567Y-5.2972
X4.9575Y-3.0457
X4.9575Y-4.1697
X4.9583Y-4.7886
X4.9583Y-4.8417
X4.9591Y-4.735
X5.0087Y-2.5343
X5.0087Y-2.5874
X5.0094Y-2.4807
X5.0094Y-5.9177
X5.0094Y-5.9709
X5.0098Y-1.9693
X5.0098Y-2.0224
X5.0102Y-3.6618
X5.0102Y-3.715
X5.0102Y-5.3512
X5.0102Y-5.4043
X5.0102Y-5.8642
X5.0106Y-1.9157
X5.011Y-3.0996
X5.011Y-3.1528
X5.011Y-3.6083
X5.011Y-4.2236
X5.011Y-4.2768
X5.011Y-5.2976
X5.0118Y-3.0461
X5.0118Y-4.1701
X5.0126Y-4.789
X5.0126Y-4.8421
X5.0134Y-4.7354
X5.0145Y-1.7092
X5.0145Y-2.2274
X5.0155Y-2.2717
X5.0155Y-2.7899
X5.017Y-5.0917
X5.0174Y-2.8356
X5.0174Y-3.3539
X5.0174Y-3.3996
X5.0174Y-3.9179
X5.0174Y-3.9636
X5.0174Y-4.4819
X5.0174Y-4.5276
X5.0174Y-5.0459
X5.0174Y-5.6099
X5.0182Y-6.1739
X5.0186Y-5.6553
X5.0479Y-1.7092
X5.0479Y-2.2274
X5.0489Y-2.2717
X5.0489Y-2.7899
X5.0504Y-5.0917
X5.0509Y-2.8356
X5.0509Y-3.3539
X5.0509Y-3.3996
X5.0509Y-3.9179
X5.0509Y-3.9636
X5.0509Y-4.4819
X5.0509Y-4.5276
X5.0509Y-5.0459
X5.0509Y-5.6099
X5.0517Y-6.1739
X5.0521Y-5.6553
X5.0814Y-1.7092
X5.0814Y-2.2274
X5.0824Y-2.2717
X5.0824Y-2.7899
X5.0839Y-5.0917
X5.0844Y-2.8356
X5.0844Y-3.3539
X5.0844Y-3.3996
X5.0844Y-3.9179
X5.0844Y-3.9636
X5.0844Y-4.4819
X5.0844Y-4.5276
X5.0844Y-5.0459
X5.0844Y-5.6099
X5.0851Y-6.1739
X5.0856Y-5.6553
X5.167Y-1.8663
X5.167Y-2.0702
X5.168Y-2.4288
X5.168Y-2.6327
X5.1695Y-5.4528
X5.17Y-2.9928
X5.17Y-3.1967
X5.17Y-3.5568
X5.17Y-3.7606
X5.17Y-4.1209
X5.17Y-4.3246
X5.17Y-4.6849
X5.17Y-4.8886
X5.17Y-5.2489
X5.1708Y-5.8129
X5.1712Y-6.0163
X5.3958Y-1.8549
X5.3958Y-2.0816
X5.3968Y-2.4174
X5.3968Y-2.6441
X5.3983Y-5.4642
X5.3987Y-2.9814
X5.3987Y-3.2081
X5.3987Y-3.5454
X5.3987Y-3.772
X5.3987Y-4.1094
X5.3987Y-4.336
X5.3987Y-4.6734
X5.3987Y-4.9
X5.3987Y-5.2374
X5.3995Y-5.8014
X5.3999Y-6.0278
X5.4104Y-4.4246
X5.415Y-3.6835
X5.4163Y-1.9906
X5.4173Y-4.2437
X5.4193Y-5.9382
X5.4213Y-2.5535
X5.4264Y-5.3752
X5.435Y-4.0585
X5.437Y-3.1156
X5.4406Y-4.7213
X5.4675Y-4.1077
X5.4843Y-4.3931
X5.4892Y-4.8557
X5.5059Y-3.7543
X5.5413Y-3.8252
X5.5659Y-3.4876
X5.5817Y-4.774
X5.5817Y-4.9807
X5.5935Y-3.5693
X5.6368Y-3.2022
X5.6535Y-5.0299
X5.6781Y-3.2652
X5.7303Y-3.0704
X5.7303Y-5.2287
X5.7776Y-3.1156
X5.7894Y-5.3026
X5.8474Y-5.4925
X5.8484Y-4.239
X5.8917Y-3.6333
X5.8988Y-4.1984
X5.9094Y-5.4961
X5.924Y-5.8559
X5.924Y-5.9228
X5.9244Y-5.9878
X5.9244Y-6.0476
X5.9248Y-6.1028
X5.9307Y-3.6835
X5.9439Y-5.1392
X5.9622Y-4.7094
X5.9626Y-4.8557
X5.9695Y-2.5535
X5.987Y-5.8559
X5.987Y-5.9228
X5.9874Y-5.9878
X5.9874Y-6.0476
X5.9878Y-6.1028
X5.9911Y-5.1766
X6.05Y-5.8559
X6.05Y-5.9228
X6.0504Y-5.9878
X6.0504Y-6.0476
X6.0508Y-6.1028
X6.0541Y-2.5033
X6.3197Y-5.5406
X6.3217Y-5.5811
X6.3217Y-5.6236
X6.3827Y-5.5406
X6.3846Y-5.5811
X6.3846Y-5.6236
X6.4457Y-5.5406
X6.4476Y-5.5811
X6.4476Y-5.6236
X6.4585Y-3.2819
X6.4585Y-4.9472
X6.4594Y-3.5585
X6.4594Y-3.837
X6.4594Y-4.1146
X6.4594Y-4.3911
X6.4594Y-4.6687
X6.4606Y-5.2248
X6.6965Y-3.2819
X6.6965Y-4.9472
X6.6974Y-3.5585
X6.6974Y-3.837
X6.6974Y-4.1146
X6.6974Y-4.3911
X6.6974Y-4.6687
X6.6986Y-5.2248
X6.7205Y-2.6264
X6.7264Y-3.7238
X6.7264Y-5.4866
X6.75Y-4.9482
X6.7579Y-4.1126
X6.7579Y-5.2652
X6.7589Y-3.4846
X6.8022Y-3.1608
X6.812Y-3.7622
X6.8145Y-5.4162
X6.8219Y-2.1736
X6.8425Y-3.2022
X6.924Y-2.1358
X6.9327Y-3.2819
X6.9327Y-4.9472
X6.9337Y-3.5585
X6.9337Y-3.837
X6.9337Y-4.1146
X6.9337Y-4.3911
X6.9337Y-4.6687
X6.9348Y-5.2248
X6.9626Y-4.0181
X6.9813Y-3.4571
X6.9852Y-3.1835
X6.9961Y-4.3862
X7.002Y-4.1136
X7.0236Y-2.3291
X7.0492Y-3.0211
X7.0492Y-3.4886
X7.0507Y-3.7647
X7.1719Y-3.2829
X7.1719Y-4.9482
X7.1728Y-3.5594
X7.1728Y-3.838
X7.1728Y-4.1156
X7.1728Y-4.3921
X7.1728Y-4.6697
X7.174Y-5.2258
T2
X3.9983Y-3.0874
X3.9983Y-3.6874
X3.9983Y-2.5874
X3.9983Y-3.2874
X3.9983Y-2.7874
X3.9983Y-2.8874
X3.9983Y-3.1874
X3.9983Y-3.3874
X3.9983Y-3.5874
X3.9983Y-2.3874
X3.9983Y-2.4874
X3.9983Y-3.7874
X3.9983Y-2.6874
X3.9983Y-2.9874
X3.9983Y-3.8874
X3.9983Y-3.4874
X3.9993Y-4.7724
X3.9993Y-5.3724
X3.9993Y-4.2724
X3.9993Y-4.9724
X3.9993Y-4.4724
X3.9993Y-4.5724
X3.9993Y-4.8724
X3.9993Y-5.0724
X3.9993Y-5.2724
X3.9993Y-4.0724
X3.9993Y-4.1724
X3.9993Y-5.4724
X3.9993Y-4.3724
X3.9993Y-4.6724
X3.9993Y-5.5724
X3.9993Y-5.1724
X4.1983Y-3.2874
X4.1983Y-3.1874
X4.1983Y-3.5874
X4.1983Y-2.7874
X4.1983Y-2.3874
X4.1983Y-2.4874
X4.1983Y-2.6874
X4.1983Y-2.9874
X4.1983Y-3.3874
X4.1983Y-3.4874
X4.1983Y-3.6874
X4.1983Y-3.7874
X4.1983Y-3.8874
X4.1983Y-3.0874
X4.1983Y-2.5874
X4.1983Y-2.8874
X4.1993Y-4.9724
X4.1993Y-4.8724
X4.1993Y-5.2724
X4.1993Y-4.4724
X4.1993Y-4.0724
X4.1993Y-4.1724
X4.1993Y-4.3724
X4.1993Y-4.6724
X4.1993Y-5.0724
X4.1993Y-5.1724
X4.1993Y-5.3724
X4.1993Y-5.4724
X4.1993Y-5.5724
X4.1993Y-4.7724
X4.1993Y-4.2724
X4.1993Y-4.5724
X5.8747Y-2.8378
X5.8747Y-1.9366
X5.8747Y-2.0366
X5.8747Y-2.9378
X5.9747Y-2.0366
X5.9747Y-2.8378
X5.9747Y-2.9378
X5.9747Y-1.9366
X6.0747Y-2.9378
X6.0747Y-1.9366
X6.0747Y-2.0366
X6.0747Y-2.8378
X6.1747Y-2.0366
X6.1747Y-2.8378
X6.1747Y-2.9378
X6.1747Y-1.9366
X6.2747Y-1.9366
X6.2747Y-2.0366
X6.2747Y-2.8378
X6.2747Y-2.9378
X6.3747Y-1.9366
X6.3747Y-2.0366
X6.3747Y-2.8378
X6.3747Y-2.9378
X6.4747Y-1.9366
X6.4747Y-2.0366
X6.4747Y-2.8378
X6.4747Y-2.9378
X6.5747Y-1.9366
X6.5747Y-2.0366
X6.5747Y-2.8378
X6.5747Y-2.9378
X6.6747Y-2.9378
X6.6747Y-1.9366
X6.6747Y-2.0366
X6.6747Y-2.8378
X6.7747Y-2.0366
X6.7747Y-2.8378
X6.7747Y-2.9378
X6.7747Y-1.9366
X6.8747Y-2.9378
X6.8747Y-1.9366
X6.8747Y-2.0366
X6.8747Y-2.8378
X6.9747Y-1.9366
X6.9747Y-2.8378
X6.9747Y-2.9378
X6.9747Y-2.0366
X7.0743Y-2.9378
X7.0747Y-1.9366
X7.0747Y-2.0366
X7.0747Y-2.8378
T2
G00X6.7305Y-5.7186
M15
G01X6.7305Y-5.7974
M16
G05
G00X6.9667Y-5.7324
M15
G01X6.9667Y-5.7836
M16
G05
G00X6.9766Y-5.5808
M15
G01X7.0356Y-5.5808
M16
G05
G00X6.9766Y-5.9352
M15
G01X7.0356Y-5.9352
M16
G05
M30
