%TF.GenerationSoftware,KiCad,Pcbnew,8.0.1*%
%TF.CreationDate,2024-08-26T16:59:54-04:00*%
%TF.ProjectId,16ch-driver-v1,31366368-2d64-4726-9976-65722d76312e,rev?*%
%TF.SameCoordinates,Original*%
%TF.FileFunction,Component,L1,Top*%
%TF.FilePolarity,Positive*%
%FSLAX46Y46*%
G04 Gerber Fmt 4.6, Leading zero omitted, Abs format (unit mm)*
G04 Created by KiCad (PCBNEW 8.0.1) date 2024-08-26 16:59:54*
%MOMM*%
%LPD*%
G01*
G04 APERTURE LIST*
%TA.AperFunction,ComponentMain*%
%ADD10C,0.300000*%
%TD*%
%TA.AperFunction,ComponentOutline,Courtyard*%
%ADD11C,0.100000*%
%TD*%
%TA.AperFunction,ComponentPin*%
%ADD12P,0.360000X4X0.000000*%
%TD*%
%TA.AperFunction,ComponentPin*%
%ADD13C,0.100000*%
%TD*%
%TA.AperFunction,ComponentOutline,Footprint*%
%ADD14C,0.100000*%
%TD*%
G04 APERTURE END LIST*
D10*
%TO.C,R23*%
%TO.CFtp,R_1206_3216Metric*%
%TO.CVal,191k*%
%TO.CLbN,Resistor_SMD*%
%TO.CMnt,SMD*%
%TO.CRot,0*%
X119299003Y-91183927D03*
D11*
X121579002Y-90063928D02*
X121579002Y-92303926D01*
X117019004Y-92303926D01*
X117019004Y-90063928D01*
X121579002Y-90063928D01*
D12*
%TO.P,R23,1*%
X117836503Y-91183927D03*
D13*
%TO.P,R23,2*%
X120761503Y-91183927D03*
%TD*%
D10*
%TO.C,C3*%
%TO.CFtp,C_1206_3216Metric*%
%TO.CVal,0.18uF*%
%TO.CLbN,Capacitor_SMD*%
%TO.CMnt,SMD*%
%TO.CRot,0*%
X119232502Y-45964999D03*
D11*
X121532500Y-44814999D02*
X121532502Y-47114998D01*
X116932503Y-47114998D01*
X116932501Y-44814999D01*
X121532500Y-44814999D01*
D12*
%TO.P,C3,1*%
X117757502Y-45965000D03*
D13*
%TO.P,C3,2*%
X120707502Y-45964998D03*
%TD*%
D10*
%TO.C,R16*%
%TO.CFtp,R_1206_3216Metric*%
%TO.CVal,4k7*%
%TO.CLbN,Resistor_SMD*%
%TO.CMnt,SMD*%
%TO.CRot,180*%
X134386303Y-75729913D03*
D11*
X136666302Y-74609914D02*
X136666302Y-76849912D01*
X132106304Y-76849912D01*
X132106304Y-74609914D01*
X136666302Y-74609914D01*
D12*
%TO.P,R16,1*%
X135848803Y-75729913D03*
D13*
%TO.P,R16,2*%
X132923803Y-75729913D03*
%TD*%
D10*
%TO.C,C23*%
%TO.CFtp,C_1210_3225Metric*%
%TO.CVal,10uF*%
%TO.CLbN,Capacitor_SMD*%
%TO.CMnt,SMD*%
%TO.CRot,180*%
X126962502Y-154741783D03*
D11*
X129262501Y-153141784D02*
X129262501Y-156341782D01*
X124662503Y-156341782D01*
X124662503Y-153141784D01*
X129262501Y-153141784D01*
D12*
%TO.P,C23,1*%
X128437502Y-154741783D03*
D13*
%TO.P,C23,2*%
X125487502Y-154741783D03*
%TD*%
D10*
%TO.C,D33*%
%TO.CFtp,LED_0805_2012Metric*%
%TO.CVal,LED*%
%TO.CLbN,LED_SMD*%
%TO.CMnt,SMD*%
%TO.CRot,0*%
X161940981Y-97457731D03*
D11*
X163620980Y-98407730D02*
X160260982Y-98407730D01*
X160260982Y-96507731D01*
X163620980Y-96507731D01*
X163620980Y-98407730D01*
D12*
%TO.P,D33,1,K*%
X161003481Y-97457731D03*
D13*
%TO.P,D33,2,A*%
X162878481Y-97457731D03*
%TD*%
D10*
%TO.C,C4*%
%TO.CFtp,C_1206_3216Metric*%
%TO.CVal,470pF*%
%TO.CLbN,Capacitor_SMD*%
%TO.CMnt,SMD*%
%TO.CRot,0*%
X119232502Y-50534999D03*
D11*
X121532501Y-49385000D02*
X121532501Y-51684998D01*
X116932503Y-51684998D01*
X116932503Y-49385000D01*
X121532501Y-49385000D01*
D12*
%TO.P,C4,1*%
X117757502Y-50534999D03*
D13*
%TO.P,C4,2*%
X120707502Y-50534999D03*
%TD*%
D10*
%TO.C,C16*%
%TO.CFtp,C_1206_3216Metric*%
%TO.CVal,470pF*%
%TO.CLbN,Capacitor_SMD*%
%TO.CMnt,SMD*%
%TO.CRot,0*%
X119307502Y-107799641D03*
D11*
X121607501Y-106649642D02*
X121607501Y-108949640D01*
X117007503Y-108949640D01*
X117007503Y-106649642D01*
X121607501Y-106649642D01*
D12*
%TO.P,C16,1*%
X117832502Y-107799641D03*
D13*
%TO.P,C16,2*%
X120782502Y-107799641D03*
%TD*%
D10*
%TO.C,D38*%
%TO.CFtp,LED_0805_2012Metric*%
%TO.CVal,LED Green*%
%TO.CLbN,LED_SMD*%
%TO.CMnt,SMD*%
%TO.CRot,0*%
X167990981Y-111557731D03*
D11*
X169670980Y-112507730D02*
X166310982Y-112507730D01*
X166310982Y-110607731D01*
X169670980Y-110607731D01*
X169670980Y-112507730D01*
D12*
%TO.P,D38,1,K*%
X167053481Y-111557731D03*
D13*
%TO.P,D38,2,A*%
X168928481Y-111557731D03*
%TD*%
D10*
%TO.C,R3*%
%TO.CFtp,R_1206_3216Metric*%
%TO.CVal,49R9*%
%TO.CLbN,Resistor_SMD*%
%TO.CMnt,SMD*%
%TO.CRot,180*%
X134309003Y-49374999D03*
D11*
X136589002Y-48255000D02*
X136589002Y-50494998D01*
X132029004Y-50494998D01*
X132029004Y-48255000D01*
X136589002Y-48255000D01*
D12*
%TO.P,R3,1*%
X135771503Y-49374999D03*
D13*
%TO.P,R3,2*%
X132846503Y-49374999D03*
%TD*%
D10*
%TO.C,D42*%
%TO.CFtp,LED_0805_2012Metric*%
%TO.CVal,LED*%
%TO.CLbN,LED_SMD*%
%TO.CMnt,SMD*%
%TO.CRot,0*%
X161940981Y-118607731D03*
D11*
X163620980Y-119557730D02*
X160260982Y-119557730D01*
X160260982Y-117657731D01*
X163620980Y-117657731D01*
X163620980Y-119557730D01*
D12*
%TO.P,D42,1,K*%
X161003481Y-118607731D03*
D13*
%TO.P,D42,2,A*%
X162878481Y-118607731D03*
%TD*%
D10*
%TO.C,D29*%
%TO.CFtp,LED_0805_2012Metric*%
%TO.CVal,LED Green*%
%TO.CLbN,LED_SMD*%
%TO.CMnt,SMD*%
%TO.CRot,0*%
X167990981Y-90407731D03*
D11*
X169670980Y-91357730D02*
X166310982Y-91357730D01*
X166310982Y-89457731D01*
X169670980Y-89457731D01*
X169670980Y-91357730D01*
D12*
%TO.P,D29,1,K*%
X167053481Y-90407731D03*
D13*
%TO.P,D29,2,A*%
X168928481Y-90407731D03*
%TD*%
D10*
%TO.C,U3*%
%TO.CFtp,IC_TPS27S100BPWPR*%
%TO.CVal,DRV104PWP*%
%TO.CLbN,footprint*%
%TO.CMnt,SMD*%
%TO.CRot,0*%
X126586503Y-78608213D03*
D11*
X130436502Y-75858214D02*
X130436502Y-81358212D01*
X122736504Y-81358212D01*
X122736504Y-75858214D01*
X130436502Y-75858214D01*
D12*
%TO.P,U3,1,DUTY_CYCLE_ADJ*%
X123786503Y-76658213D03*
D13*
%TO.P,U3,2,DELAY_ADJ*%
X123786503Y-77308213D03*
%TO.P,U3,3,OSC_FREQ_ADJ*%
X123786503Y-77958213D03*
%TO.P,U3,4,MASTER*%
X123786503Y-78608213D03*
%TO.P,U3,5,BOOT*%
X123786503Y-79258213D03*
%TO.P,U3,6,OUT1*%
X123786503Y-79908213D03*
%TO.P,U3,7,OUT2*%
X123786503Y-80558213D03*
%TO.P,U3,8,VPS2*%
X129386503Y-80558213D03*
%TO.P,U3,9,VPS1*%
X129386503Y-79908213D03*
%TO.P,U3,10,+VS*%
X129386503Y-79258213D03*
%TO.P,U3,11,GND*%
X129386503Y-78608213D03*
%TO.P,U3,12,SYNC*%
X129386503Y-77958213D03*
%TO.P,U3,13,STATUS_OK_FLAG*%
X129386503Y-77308213D03*
%TO.P,U3,14,INPUT*%
X129386503Y-76658213D03*
%TO.P,U3,15,EPAD*%
X126586503Y-78608213D03*
%TD*%
D10*
%TO.C,D39*%
%TO.CFtp,LED_0805_2012Metric*%
%TO.CVal,LED*%
%TO.CLbN,LED_SMD*%
%TO.CMnt,SMD*%
%TO.CRot,0*%
X161940981Y-111557731D03*
D11*
X163620980Y-112507730D02*
X160260982Y-112507730D01*
X160260982Y-110607731D01*
X163620980Y-110607731D01*
X163620980Y-112507730D01*
D12*
%TO.P,D39,1,K*%
X161003481Y-111557731D03*
D13*
%TO.P,D39,2,A*%
X162878481Y-111557731D03*
%TD*%
D10*
%TO.C,R9*%
%TO.CFtp,R_1206_3216Metric*%
%TO.CVal,49R9*%
%TO.CLbN,Resistor_SMD*%
%TO.CMnt,SMD*%
%TO.CRot,180*%
X134334003Y-63662499D03*
D11*
X136614002Y-62542500D02*
X136614002Y-64782498D01*
X132054004Y-64782498D01*
X132054004Y-62542500D01*
X136614002Y-62542500D01*
D12*
%TO.P,R9,1*%
X135796503Y-63662499D03*
D13*
%TO.P,R9,2*%
X132871503Y-63662499D03*
%TD*%
D10*
%TO.C,D13*%
%TO.CFtp,Nexperia_CFP3_SOD-123W*%
%TO.CVal,PMEG10010ELRX*%
%TO.CLbN,Diode_SMD*%
%TO.CMnt,SMD*%
%TO.CRot,180*%
X119295002Y-110069641D03*
D11*
X121545001Y-108969642D02*
X121545001Y-111169640D01*
X117045003Y-111169640D01*
X117045003Y-108969642D01*
X121545001Y-108969642D01*
D12*
%TO.P,D13,1,K*%
X120695002Y-110069641D03*
D13*
%TO.P,D13,2,A*%
X117895002Y-110069641D03*
%TD*%
D10*
%TO.C,R40*%
%TO.CFtp,R_1206_3216Metric*%
%TO.CVal,4k7*%
%TO.CLbN,Resistor_SMD*%
%TO.CMnt,SMD*%
%TO.CRot,180*%
X134386303Y-133032769D03*
D11*
X136666302Y-131912770D02*
X136666302Y-134152768D01*
X132106304Y-134152768D01*
X132106304Y-131912770D01*
X136666302Y-131912770D01*
D12*
%TO.P,R40,1*%
X135848803Y-133032769D03*
D13*
%TO.P,R40,2*%
X132923803Y-133032769D03*
%TD*%
D10*
%TO.C,U8*%
%TO.CFtp,IC_TPS27S100BPWPR*%
%TO.CVal,DRV104PWP*%
%TO.CLbN,footprint*%
%TO.CMnt,SMD*%
%TO.CRot,0*%
X126606503Y-150236783D03*
D11*
X130456502Y-147486784D02*
X130456502Y-152986782D01*
X122756504Y-152986782D01*
X122756504Y-147486784D01*
X130456502Y-147486784D01*
D12*
%TO.P,U8,1,DUTY_CYCLE_ADJ*%
X123806503Y-148286783D03*
D13*
%TO.P,U8,2,DELAY_ADJ*%
X123806503Y-148936783D03*
%TO.P,U8,3,OSC_FREQ_ADJ*%
X123806503Y-149586783D03*
%TO.P,U8,4,MASTER*%
X123806503Y-150236783D03*
%TO.P,U8,5,BOOT*%
X123806503Y-150886783D03*
%TO.P,U8,6,OUT1*%
X123806503Y-151536783D03*
%TO.P,U8,7,OUT2*%
X123806503Y-152186783D03*
%TO.P,U8,8,VPS2*%
X129406503Y-152186783D03*
%TO.P,U8,9,VPS1*%
X129406503Y-151536783D03*
%TO.P,U8,10,+VS*%
X129406503Y-150886783D03*
%TO.P,U8,11,GND*%
X129406503Y-150236783D03*
%TO.P,U8,12,SYNC*%
X129406503Y-149586783D03*
%TO.P,U8,13,STATUS_OK_FLAG*%
X129406503Y-148936783D03*
%TO.P,U8,14,INPUT*%
X129406503Y-148286783D03*
%TO.P,U8,15,EPAD*%
X126606503Y-150236783D03*
%TD*%
D10*
%TO.C,C13*%
%TO.CFtp,C_1206_3216Metric*%
%TO.CVal,470pF*%
%TO.CLbN,Capacitor_SMD*%
%TO.CMnt,SMD*%
%TO.CRot,0*%
X119307502Y-93473927D03*
D11*
X121607501Y-92323928D02*
X121607501Y-94623926D01*
X117007503Y-94623926D01*
X117007503Y-92323928D01*
X121607501Y-92323928D01*
D12*
%TO.P,C13,1*%
X117832502Y-93473927D03*
D13*
%TO.P,C13,2*%
X120782502Y-93473927D03*
%TD*%
D10*
%TO.C,C6*%
%TO.CFtp,C_1206_3216Metric*%
%TO.CVal,0.18uF*%
%TO.CLbN,Capacitor_SMD*%
%TO.CMnt,SMD*%
%TO.CRot,0*%
X119257502Y-60252499D03*
D11*
X121557501Y-59102500D02*
X121557501Y-61402498D01*
X116957503Y-61402498D01*
X116957503Y-59102500D01*
X121557501Y-59102500D01*
D12*
%TO.P,C6,1*%
X117782502Y-60252499D03*
D13*
%TO.P,C6,2*%
X120732502Y-60252499D03*
%TD*%
D10*
%TO.C,R11*%
%TO.CFtp,R_1206_3216Metric*%
%TO.CVal,191k*%
%TO.CLbN,Resistor_SMD*%
%TO.CMnt,SMD*%
%TO.CRot,0*%
X119249003Y-62532499D03*
D11*
X121529002Y-61412500D02*
X121529002Y-63652498D01*
X116969004Y-63652498D01*
X116969004Y-61412500D01*
X121529002Y-61412500D01*
D12*
%TO.P,R11,1*%
X117786503Y-62532499D03*
D13*
%TO.P,R11,2*%
X120711503Y-62532499D03*
%TD*%
D10*
%TO.C,D5*%
%TO.CFtp,LED_0805_2012Metric*%
%TO.CVal,LED Green*%
%TO.CLbN,LED_SMD*%
%TO.CMnt,SMD*%
%TO.CRot,0*%
X180025000Y-90410000D03*
D11*
X181704999Y-89460001D02*
X181704999Y-91359999D01*
X178345001Y-91359999D01*
X178345001Y-89460001D01*
X181704999Y-89460001D01*
D12*
%TO.P,D5,1,K*%
X179087500Y-90410000D03*
D13*
%TO.P,D5,2,A*%
X180962500Y-90410000D03*
%TD*%
D10*
%TO.C,R37*%
%TO.CFtp,R_1206_3216Metric*%
%TO.CVal,4k7*%
%TO.CLbN,Resistor_SMD*%
%TO.CMnt,SMD*%
%TO.CRot,180*%
X134387502Y-130731069D03*
D11*
X136667501Y-129611070D02*
X136667501Y-131851068D01*
X132107503Y-131851068D01*
X132107503Y-129611070D01*
X136667501Y-129611070D01*
D12*
%TO.P,R37,1*%
X135850002Y-130731069D03*
D13*
%TO.P,R37,2*%
X132925002Y-130731069D03*
%TD*%
D10*
%TO.C,D41*%
%TO.CFtp,LED_0805_2012Metric*%
%TO.CVal,LED Green*%
%TO.CLbN,LED_SMD*%
%TO.CMnt,SMD*%
%TO.CRot,0*%
X167990981Y-118607731D03*
D11*
X169670980Y-119557730D02*
X166310982Y-119557730D01*
X166310982Y-117657731D01*
X169670980Y-117657731D01*
X169670980Y-119557730D01*
D12*
%TO.P,D41,1,K*%
X167053481Y-118607731D03*
D13*
%TO.P,D41,2,A*%
X168928481Y-118607731D03*
%TD*%
D10*
%TO.C,C18*%
%TO.CFtp,C_1206_3216Metric*%
%TO.CVal,0.18uF*%
%TO.CLbN,Capacitor_SMD*%
%TO.CMnt,SMD*%
%TO.CRot,0*%
X119307502Y-117555355D03*
D11*
X121607501Y-116405356D02*
X121607501Y-118705354D01*
X117007503Y-118705354D01*
X117007503Y-116405356D01*
X121607501Y-116405356D01*
D12*
%TO.P,C18,1*%
X117832502Y-117555355D03*
D13*
%TO.P,C18,2*%
X120782502Y-117555355D03*
%TD*%
D10*
%TO.C,D22*%
%TO.CFtp,Nexperia_CFP3_SOD-123W*%
%TO.CVal,PMEG10010ELRX*%
%TO.CLbN,Diode_SMD*%
%TO.CMnt,SMD*%
%TO.CRot,180*%
X119315002Y-153046783D03*
D11*
X121565001Y-151946784D02*
X121565001Y-154146782D01*
X117065003Y-154146782D01*
X117065003Y-151946784D01*
X121565001Y-151946784D01*
D12*
%TO.P,D22,1,K*%
X120715002Y-153046783D03*
D13*
%TO.P,D22,2,A*%
X117915002Y-153046783D03*
%TD*%
D10*
%TO.C,D7*%
%TO.CFtp,Nexperia_CFP3_SOD-123W*%
%TO.CVal,PMEG10010ELRX*%
%TO.CLbN,Diode_SMD*%
%TO.CMnt,SMD*%
%TO.CRot,180*%
X119295002Y-81418213D03*
D11*
X121545001Y-80318214D02*
X121545001Y-82518212D01*
X117045003Y-82518212D01*
X117045003Y-80318214D01*
X121545001Y-80318214D01*
D12*
%TO.P,D7,1,K*%
X120695002Y-81418213D03*
D13*
%TO.P,D7,2,A*%
X117895002Y-81418213D03*
%TD*%
D10*
%TO.C,R35*%
%TO.CFtp,R_1206_3216Metric*%
%TO.CVal,191k*%
%TO.CLbN,Resistor_SMD*%
%TO.CMnt,SMD*%
%TO.CRot,0*%
X119299003Y-119835355D03*
D11*
X121579002Y-118715356D02*
X121579002Y-120955354D01*
X117019004Y-120955354D01*
X117019004Y-118715356D01*
X121579002Y-118715356D01*
D12*
%TO.P,R35,1*%
X117836503Y-119835355D03*
D13*
%TO.P,R35,2*%
X120761503Y-119835355D03*
%TD*%
D10*
%TO.C,C19*%
%TO.CFtp,C_1206_3216Metric*%
%TO.CVal,470pF*%
%TO.CLbN,Capacitor_SMD*%
%TO.CMnt,SMD*%
%TO.CRot,0*%
X119307502Y-122125355D03*
D11*
X121607501Y-120975356D02*
X121607501Y-123275354D01*
X117007503Y-123275354D01*
X117007503Y-120975356D01*
X121607501Y-120975356D01*
D12*
%TO.P,C19,1*%
X117832502Y-122125355D03*
D13*
%TO.P,C19,2*%
X120782502Y-122125355D03*
%TD*%
D10*
%TO.C,C1*%
%TO.CFtp,CP_EIA-7343-43_Kemet-X_Pad2.25x2.55mm_HandSolder*%
%TO.CVal,47uF*%
%TO.CLbN,Capacitor_Tantalum_SMD*%
%TO.CMnt,SMD*%
%TO.CRot,0*%
X159106489Y-144837930D03*
D11*
X163686487Y-147237927D02*
X154526492Y-147237927D01*
X154526490Y-142437932D01*
X163686485Y-142437932D01*
X163686487Y-147237927D01*
D12*
%TO.P,C1,1*%
X155906489Y-144837928D03*
D13*
%TO.P,C1,2*%
X162306489Y-144837932D03*
%TD*%
D10*
%TO.C,D11*%
%TO.CFtp,LED_0805_2012Metric*%
%TO.CVal,LED Green*%
%TO.CLbN,LED_SMD*%
%TO.CMnt,SMD*%
%TO.CRot,0*%
X180025000Y-104510000D03*
D11*
X181704999Y-103560001D02*
X181704999Y-105459999D01*
X178345001Y-105459999D01*
X178345001Y-103560001D01*
X181704999Y-103560001D01*
D12*
%TO.P,D11,1,K*%
X179087500Y-104510000D03*
D13*
%TO.P,D11,2,A*%
X180962500Y-104510000D03*
%TD*%
D10*
%TO.C,D10*%
%TO.CFtp,Nexperia_CFP3_SOD-123W*%
%TO.CVal,PMEG10010ELRX*%
%TO.CLbN,Diode_SMD*%
%TO.CMnt,SMD*%
%TO.CRot,180*%
X119295002Y-95743927D03*
D11*
X121545001Y-94643928D02*
X121545001Y-96843926D01*
X117045003Y-96843926D01*
X117045003Y-94643928D01*
X121545001Y-94643928D01*
D12*
%TO.P,D10,1,K*%
X120695002Y-95743927D03*
D13*
%TO.P,D10,2,A*%
X117895002Y-95743927D03*
%TD*%
D10*
%TO.C,C11*%
%TO.CFtp,C_1210_3225Metric*%
%TO.CVal,10uF*%
%TO.CLbN,Capacitor_SMD*%
%TO.CMnt,SMD*%
%TO.CRot,180*%
X126942502Y-97438927D03*
D11*
X129242501Y-95838928D02*
X129242501Y-99038926D01*
X124642503Y-99038926D01*
X124642503Y-95838928D01*
X129242501Y-95838928D01*
D12*
%TO.P,C11,1*%
X128417502Y-97438927D03*
D13*
%TO.P,C11,2*%
X125467502Y-97438927D03*
%TD*%
D10*
%TO.C,D26*%
%TO.CFtp,LED_0805_2012Metric*%
%TO.CVal,LED Green*%
%TO.CLbN,LED_SMD*%
%TO.CMnt,SMD*%
%TO.CRot,0*%
X167990981Y-83357731D03*
D11*
X169670980Y-84307730D02*
X166310982Y-84307730D01*
X166310982Y-82407731D01*
X169670980Y-82407731D01*
X169670980Y-84307730D01*
D12*
%TO.P,D26,1,K*%
X167053481Y-83357731D03*
D13*
%TO.P,D26,2,A*%
X168928481Y-83357731D03*
%TD*%
D10*
%TO.C,D4*%
%TO.CFtp,Nexperia_CFP3_SOD-123W*%
%TO.CVal,PMEG10010ELRX*%
%TO.CLbN,Diode_SMD*%
%TO.CMnt,SMD*%
%TO.CRot,180*%
X119245002Y-67092499D03*
D11*
X121495001Y-65992500D02*
X121495001Y-68192498D01*
X116995003Y-68192498D01*
X116995003Y-65992500D01*
X121495001Y-65992500D01*
D12*
%TO.P,D4,1,K*%
X120645002Y-67092499D03*
D13*
%TO.P,D4,2,A*%
X117845002Y-67092499D03*
%TD*%
D10*
%TO.C,R19*%
%TO.CFtp,R_1206_3216Metric*%
%TO.CVal,4k7*%
%TO.CLbN,Resistor_SMD*%
%TO.CMnt,SMD*%
%TO.CRot,180*%
X134387502Y-87753927D03*
D11*
X136667501Y-86633928D02*
X136667501Y-88873926D01*
X132107503Y-88873926D01*
X132107503Y-86633928D01*
X136667501Y-86633928D01*
D12*
%TO.P,R19,1*%
X135850002Y-87753927D03*
D13*
%TO.P,R19,2*%
X132925002Y-87753927D03*
%TD*%
D10*
%TO.C,D24*%
%TO.CFtp,LED_0805_2012Metric*%
%TO.CVal,LED*%
%TO.CLbN,LED_SMD*%
%TO.CMnt,SMD*%
%TO.CRot,0*%
X173975000Y-132710000D03*
D11*
X175654999Y-131760001D02*
X175654999Y-133659999D01*
X172295001Y-133659999D01*
X172295001Y-131760001D01*
X175654999Y-131760001D01*
D12*
%TO.P,D24,1,K*%
X173037500Y-132710000D03*
D13*
%TO.P,D24,2,A*%
X174912500Y-132710000D03*
%TD*%
D10*
%TO.C,J3*%
%TO.CFtp,CUI_TBL009-254-16GY-2GY*%
%TO.CVal,TBL009-254-16GY-2GY*%
%TO.CLbN,footprint*%
%TO.CMnt,TH*%
%TO.CRot,-90*%
X106637502Y-60639998D03*
D11*
X108337499Y-99829999D02*
X92037500Y-99829999D01*
X92037500Y-57190000D01*
X108337499Y-57190000D01*
X108337499Y-99829999D01*
D13*
%TO.P,J3,1_A,1*%
X106637502Y-60639998D03*
%TO.P,J3,1_B,1*%
X101557503Y-60640002D03*
%TO.P,J3,2_A,2*%
X106637502Y-63179998D03*
%TO.P,J3,2_B,2*%
X101557504Y-63179998D03*
%TO.P,J3,3_A,3*%
X106637506Y-65719997D03*
%TO.P,J3,3_B,3*%
X101557500Y-65719998D03*
%TO.P,J3,4_A,4*%
X106637502Y-68259998D03*
%TO.P,J3,4_B,4*%
X101557505Y-68259999D03*
%TO.P,J3,5_A,5*%
X106637501Y-70799998D03*
%TO.P,J3,5_B,5*%
X101557502Y-70800000D03*
%TO.P,J3,6_A,6*%
X106637506Y-73339997D03*
%TO.P,J3,6_B,6*%
X101557502Y-73339997D03*
%TO.P,J3,7_A,7*%
X106637502Y-75879998D03*
%TO.P,J3,7_B,7*%
X101557505Y-75879998D03*
%TO.P,J3,8_A,8*%
X106637505Y-78420001D03*
%TO.P,J3,8_B,8*%
X101557498Y-78419999D03*
%TO.P,J3,9_A,9*%
X106637500Y-80960001D03*
%TO.P,J3,9_B,9*%
X101557502Y-80959998D03*
%TO.P,J3,10_A,10*%
X106637498Y-83499998D03*
%TO.P,J3,10_B,10*%
X101557500Y-83499999D03*
%TO.P,J3,11_A,11*%
X106637502Y-86039998D03*
%TO.P,J3,11_B,11*%
X101557502Y-86039998D03*
%TO.P,J3,12_A,12*%
X106637502Y-88579998D03*
%TO.P,J3,12_B,12*%
X101557506Y-88579999D03*
%TO.P,J3,13_A,13*%
X106637500Y-91119999D03*
%TO.P,J3,13_B,13*%
X101557502Y-91119998D03*
%TO.P,J3,14_A,14*%
X106637502Y-93659999D03*
%TO.P,J3,14_B,14*%
X101557498Y-93659997D03*
%TO.P,J3,15_A,15*%
X106637502Y-96199998D03*
%TO.P,J3,15_B,15*%
X101557504Y-96199994D03*
%TO.P,J3,16_A,16*%
X106637502Y-98739997D03*
%TO.P,J3,16_B,16*%
X101557505Y-98739998D03*
%TD*%
D10*
%TO.C,R28*%
%TO.CFtp,R_1206_3216Metric*%
%TO.CVal,4k7*%
%TO.CLbN,Resistor_SMD*%
%TO.CMnt,SMD*%
%TO.CRot,180*%
X134386303Y-104381341D03*
D11*
X136666302Y-103261342D02*
X136666302Y-105501340D01*
X132106304Y-105501340D01*
X132106304Y-103261342D01*
X136666302Y-103261342D01*
D12*
%TO.P,R28,1*%
X135848803Y-104381341D03*
D13*
%TO.P,R28,2*%
X132923803Y-104381341D03*
%TD*%
D10*
%TO.C,Q6*%
%TO.CFtp,SOT-23*%
%TO.CVal,2N7002E*%
%TO.CLbN,Package_TO_SOT_SMD*%
%TO.CMnt,SMD*%
%TO.CRot,90*%
X130367502Y-116715355D03*
D11*
X132067501Y-114795356D02*
X132067501Y-118635354D01*
X128667503Y-118635354D01*
X128667503Y-114795356D01*
X132067501Y-114795356D01*
D12*
%TO.P,Q6,1,G*%
X129417502Y-117652855D03*
D13*
%TO.P,Q6,2,S*%
X131317502Y-117652855D03*
%TO.P,Q6,3,D*%
X130367502Y-115777855D03*
%TD*%
D10*
%TO.C,R48*%
%TO.CFtp,R_1206_3216Metric*%
%TO.CVal,4k7*%
%TO.CLbN,Resistor_SMD*%
%TO.CMnt,SMD*%
%TO.CRot,180*%
X134387502Y-151896783D03*
D11*
X136667501Y-150776784D02*
X136667501Y-153016782D01*
X132107503Y-153016782D01*
X132107503Y-150776784D01*
X136667501Y-150776784D01*
D12*
%TO.P,R48,1*%
X135850002Y-151896783D03*
D13*
%TO.P,R48,2*%
X132925002Y-151896783D03*
%TD*%
D10*
%TO.C,R33*%
%TO.CFtp,R_1206_3216Metric*%
%TO.CVal,49R9*%
%TO.CLbN,Resistor_SMD*%
%TO.CMnt,SMD*%
%TO.CRot,180*%
X134384003Y-120965355D03*
D11*
X136664002Y-119845356D02*
X136664002Y-122085354D01*
X132104004Y-122085354D01*
X132104004Y-119845356D01*
X136664002Y-119845356D01*
D12*
%TO.P,R33,1*%
X135846503Y-120965355D03*
D13*
%TO.P,R33,2*%
X132921503Y-120965355D03*
%TD*%
D10*
%TO.C,Q2*%
%TO.CFtp,SOT-23*%
%TO.CVal,2N7002E*%
%TO.CLbN,Package_TO_SOT_SMD*%
%TO.CMnt,SMD*%
%TO.CRot,90*%
X130317502Y-59412499D03*
D11*
X132017501Y-57492500D02*
X132017501Y-61332498D01*
X128617503Y-61332498D01*
X128617503Y-57492500D01*
X132017501Y-57492500D01*
D12*
%TO.P,Q2,1,G*%
X129367502Y-60349999D03*
D13*
%TO.P,Q2,2,S*%
X131267502Y-60349999D03*
%TO.P,Q2,3,D*%
X130317502Y-58474999D03*
%TD*%
D10*
%TO.C,C12*%
%TO.CFtp,C_1206_3216Metric*%
%TO.CVal,0.18uF*%
%TO.CLbN,Capacitor_SMD*%
%TO.CMnt,SMD*%
%TO.CRot,0*%
X119307502Y-88903927D03*
D11*
X121607501Y-87753928D02*
X121607501Y-90053926D01*
X117007503Y-90053926D01*
X117007503Y-87753928D01*
X121607501Y-87753928D01*
D12*
%TO.P,C12,1*%
X117832502Y-88903927D03*
D13*
%TO.P,C12,2*%
X120782502Y-88903927D03*
%TD*%
D10*
%TO.C,R45*%
%TO.CFtp,R_1206_3216Metric*%
%TO.CVal,49R9*%
%TO.CLbN,Resistor_SMD*%
%TO.CMnt,SMD*%
%TO.CRot,180*%
X134404003Y-149616783D03*
D11*
X136684002Y-148496784D02*
X136684002Y-150736782D01*
X132124004Y-150736782D01*
X132124004Y-148496784D01*
X136684002Y-148496784D01*
D12*
%TO.P,R45,1*%
X135866503Y-149616783D03*
D13*
%TO.P,R45,2*%
X132941503Y-149616783D03*
%TD*%
D10*
%TO.C,D23*%
%TO.CFtp,LED_0805_2012Metric*%
%TO.CVal,LED Green*%
%TO.CLbN,LED_SMD*%
%TO.CMnt,SMD*%
%TO.CRot,0*%
X180025000Y-132710000D03*
D11*
X181704999Y-131760001D02*
X181704999Y-133659999D01*
X178345001Y-133659999D01*
X178345001Y-131760001D01*
X181704999Y-131760001D01*
D12*
%TO.P,D23,1,K*%
X179087500Y-132710000D03*
D13*
%TO.P,D23,2,A*%
X180962500Y-132710000D03*
%TD*%
D10*
%TO.C,C7*%
%TO.CFtp,C_1206_3216Metric*%
%TO.CVal,470pF*%
%TO.CLbN,Capacitor_SMD*%
%TO.CMnt,SMD*%
%TO.CRot,0*%
X119257502Y-64822499D03*
D11*
X121557501Y-63672500D02*
X121557501Y-65972498D01*
X116957503Y-65972498D01*
X116957503Y-63672500D01*
X121557501Y-63672500D01*
D12*
%TO.P,C7,1*%
X117782502Y-64822499D03*
D13*
%TO.P,C7,2*%
X120732502Y-64822499D03*
%TD*%
D10*
%TO.C,R4*%
%TO.CFtp,R_1206_3216Metric*%
%TO.CVal,4k7*%
%TO.CLbN,Resistor_SMD*%
%TO.CMnt,SMD*%
%TO.CRot,180*%
X134311303Y-47116699D03*
D11*
X136591302Y-45996700D02*
X136591302Y-48236698D01*
X132031304Y-48236698D01*
X132031304Y-45996700D01*
X136591302Y-45996700D01*
D12*
%TO.P,R4,1*%
X135773803Y-47116699D03*
D13*
%TO.P,R4,2*%
X132848803Y-47116699D03*
%TD*%
D10*
%TO.C,D47*%
%TO.CFtp,LED_0805_2012Metric*%
%TO.CVal,LED Green*%
%TO.CLbN,LED_SMD*%
%TO.CMnt,SMD*%
%TO.CRot,0*%
X167990981Y-132707731D03*
D11*
X169670980Y-133657730D02*
X166310982Y-133657730D01*
X166310982Y-131757731D01*
X169670980Y-131757731D01*
X169670980Y-133657730D01*
D12*
%TO.P,D47,1,K*%
X167053481Y-132707731D03*
D13*
%TO.P,D47,2,A*%
X168928481Y-132707731D03*
%TD*%
D10*
%TO.C,D27*%
%TO.CFtp,LED_0805_2012Metric*%
%TO.CVal,LED*%
%TO.CLbN,LED_SMD*%
%TO.CMnt,SMD*%
%TO.CRot,0*%
X161940981Y-83357731D03*
D11*
X163620980Y-84307730D02*
X160260982Y-84307730D01*
X160260982Y-82407731D01*
X163620980Y-82407731D01*
X163620980Y-84307730D01*
D12*
%TO.P,D27,1,K*%
X161003481Y-83357731D03*
D13*
%TO.P,D27,2,A*%
X162878481Y-83357731D03*
%TD*%
D10*
%TO.C,R46*%
%TO.CFtp,R_1206_3216Metric*%
%TO.CVal,4k7*%
%TO.CLbN,Resistor_SMD*%
%TO.CMnt,SMD*%
%TO.CRot,180*%
X134406303Y-147358483D03*
D11*
X136686302Y-146238484D02*
X136686302Y-148478482D01*
X132126304Y-148478482D01*
X132126304Y-146238484D01*
X136686302Y-146238484D01*
D12*
%TO.P,R46,1*%
X135868803Y-147358483D03*
D13*
%TO.P,R46,2*%
X132943803Y-147358483D03*
%TD*%
D10*
%TO.C,D16*%
%TO.CFtp,Nexperia_CFP3_SOD-123W*%
%TO.CVal,PMEG10010ELRX*%
%TO.CLbN,Diode_SMD*%
%TO.CMnt,SMD*%
%TO.CRot,180*%
X119295002Y-124395355D03*
D11*
X121545001Y-123295356D02*
X121545001Y-125495354D01*
X117045003Y-125495354D01*
X117045003Y-123295356D01*
X121545001Y-123295356D01*
D12*
%TO.P,D16,1,K*%
X120695002Y-124395355D03*
D13*
%TO.P,D16,2,A*%
X117895002Y-124395355D03*
%TD*%
D10*
%TO.C,R14*%
%TO.CFtp,R_1206_3216Metric*%
%TO.CVal,162k*%
%TO.CLbN,Resistor_SMD*%
%TO.CMnt,SMD*%
%TO.CRot,180*%
X125257502Y-74528213D03*
D11*
X127537501Y-73408214D02*
X127537501Y-75648212D01*
X122977503Y-75648212D01*
X122977503Y-73408214D01*
X127537501Y-73408214D01*
D12*
%TO.P,R14,1*%
X126720002Y-74528213D03*
D13*
%TO.P,R14,2*%
X123795002Y-74528213D03*
%TD*%
D10*
%TO.C,C14*%
%TO.CFtp,C_1210_3225Metric*%
%TO.CVal,10uF*%
%TO.CLbN,Capacitor_SMD*%
%TO.CMnt,SMD*%
%TO.CRot,180*%
X126942502Y-111764641D03*
D11*
X129242501Y-110164642D02*
X129242501Y-113364640D01*
X124642503Y-113364640D01*
X124642503Y-110164642D01*
X129242501Y-110164642D01*
D12*
%TO.P,C14,1*%
X128417502Y-111764641D03*
D13*
%TO.P,C14,2*%
X125467502Y-111764641D03*
%TD*%
D10*
%TO.C,C17*%
%TO.CFtp,C_1210_3225Metric*%
%TO.CVal,10uF*%
%TO.CLbN,Capacitor_SMD*%
%TO.CMnt,SMD*%
%TO.CRot,180*%
X126942502Y-126090355D03*
D11*
X129242501Y-124490356D02*
X129242501Y-127690354D01*
X124642503Y-127690354D01*
X124642503Y-124490356D01*
X129242501Y-124490356D01*
D12*
%TO.P,C17,1*%
X128417502Y-126090355D03*
D13*
%TO.P,C17,2*%
X125467502Y-126090355D03*
%TD*%
D10*
%TO.C,F1*%
%TO.CFtp,Fuse_2920_7451Metric*%
%TO.CVal,0ZCF0125FF2C*%
%TO.CLbN,Fuse*%
%TO.CMnt,SMD*%
%TO.CRot,180*%
X159150000Y-153185000D03*
D11*
X163749999Y-150205000D02*
X163749999Y-156164999D01*
X154550000Y-156164999D01*
X154550000Y-150205000D01*
X163749999Y-150205000D01*
D12*
%TO.P,F1,1*%
X162537499Y-153184999D03*
D13*
%TO.P,F1,2*%
X155762501Y-153185001D03*
%TD*%
D10*
%TO.C,J1*%
%TO.CFtp,CUI_PJ-063AH*%
%TO.CVal,PJ-063AH*%
%TO.CLbN,footprint*%
%TO.CMnt,TH*%
%TO.CRot,0*%
X170955086Y-146253591D03*
D11*
X180405083Y-141003589D02*
X183205085Y-141003593D01*
X183205084Y-151503591D01*
X180205084Y-151503594D01*
X180205081Y-152053589D01*
X175705088Y-152053589D01*
X175705087Y-151503594D01*
X169705088Y-151503594D01*
X169705086Y-148503592D01*
X169555089Y-148503588D01*
X169555089Y-143803588D01*
X169705088Y-143803591D01*
X169705089Y-141003590D01*
X175705090Y-141003594D01*
X175705087Y-140403591D01*
X180405085Y-140403590D01*
X180405083Y-141003589D01*
D12*
%TO.P,J1,1*%
X170955086Y-146253591D03*
D13*
%TO.P,J1,*%
X179955088Y-146253587D03*
%TO.P,J1,2*%
X176955086Y-146253591D03*
%TO.P,J1,S1,SHIELD*%
X177955085Y-141753590D03*
%TO.P,J1,S2,SHIELD*%
X177955086Y-150753591D03*
%TD*%
D10*
%TO.C,R29*%
%TO.CFtp,R_1206_3216Metric*%
%TO.CVal,191k*%
%TO.CLbN,Resistor_SMD*%
%TO.CMnt,SMD*%
%TO.CRot,0*%
X119299003Y-105509641D03*
D11*
X121579002Y-104389642D02*
X121579002Y-106629640D01*
X117019004Y-106629640D01*
X117019004Y-104389642D01*
X121579002Y-104389642D01*
D12*
%TO.P,R29,1*%
X117836503Y-105509641D03*
D13*
%TO.P,R29,2*%
X120761503Y-105509641D03*
%TD*%
D10*
%TO.C,R30*%
%TO.CFtp,R_1206_3216Metric*%
%TO.CVal,4k7*%
%TO.CLbN,Resistor_SMD*%
%TO.CMnt,SMD*%
%TO.CRot,180*%
X134367502Y-108919641D03*
D11*
X136647501Y-107799642D02*
X136647501Y-110039640D01*
X132087503Y-110039640D01*
X132087503Y-107799642D01*
X136647501Y-107799642D01*
D12*
%TO.P,R30,1*%
X135830002Y-108919641D03*
D13*
%TO.P,R30,2*%
X132905002Y-108919641D03*
%TD*%
D10*
%TO.C,R39*%
%TO.CFtp,R_1206_3216Metric*%
%TO.CVal,49R9*%
%TO.CLbN,Resistor_SMD*%
%TO.CMnt,SMD*%
%TO.CRot,180*%
X134384003Y-135291069D03*
D11*
X136664002Y-134171070D02*
X136664002Y-136411068D01*
X132104004Y-136411068D01*
X132104004Y-134171070D01*
X136664002Y-134171070D01*
D12*
%TO.P,R39,1*%
X135846503Y-135291069D03*
D13*
%TO.P,R39,2*%
X132921503Y-135291069D03*
%TD*%
D10*
%TO.C,D45*%
%TO.CFtp,LED_0805_2012Metric*%
%TO.CVal,LED*%
%TO.CLbN,LED_SMD*%
%TO.CMnt,SMD*%
%TO.CRot,0*%
X161940981Y-125657731D03*
D11*
X163620980Y-126607730D02*
X160260982Y-126607730D01*
X160260982Y-124707731D01*
X163620980Y-124707731D01*
X163620980Y-126607730D01*
D12*
%TO.P,D45,1,K*%
X161003481Y-125657731D03*
D13*
%TO.P,D45,2,A*%
X162878481Y-125657731D03*
%TD*%
D10*
%TO.C,C2*%
%TO.CFtp,C_1210_3225Metric*%
%TO.CVal,10uF*%
%TO.CLbN,Capacitor_SMD*%
%TO.CMnt,SMD*%
%TO.CRot,180*%
X126867502Y-54499999D03*
D11*
X129167501Y-52900000D02*
X129167501Y-56099998D01*
X124567503Y-56099998D01*
X124567503Y-52900000D01*
X129167501Y-52900000D01*
D12*
%TO.P,C2,1*%
X128342502Y-54499999D03*
D13*
%TO.P,C2,2*%
X125392502Y-54499999D03*
%TD*%
D10*
%TO.C,Q7*%
%TO.CFtp,SOT-23*%
%TO.CVal,2N7002E*%
%TO.CLbN,Package_TO_SOT_SMD*%
%TO.CMnt,SMD*%
%TO.CRot,90*%
X130367502Y-131041069D03*
D11*
X132067501Y-129121070D02*
X132067501Y-132961068D01*
X128667503Y-132961068D01*
X128667503Y-129121070D01*
X132067501Y-129121070D01*
D12*
%TO.P,Q7,1,G*%
X129417502Y-131978569D03*
D13*
%TO.P,Q7,2,S*%
X131317502Y-131978569D03*
%TO.P,Q7,3,D*%
X130367502Y-130103569D03*
%TD*%
D10*
%TO.C,U1*%
%TO.CFtp,IC_TPS27S100BPWPR*%
%TO.CVal,DRV104PWP*%
%TO.CLbN,footprint*%
%TO.CMnt,SMD*%
%TO.CRot,0*%
X126511503Y-49994999D03*
D11*
X130361502Y-47245000D02*
X130361502Y-52744998D01*
X122661504Y-52744998D01*
X122661504Y-47245000D01*
X130361502Y-47245000D01*
D12*
%TO.P,U1,1,DUTY_CYCLE_ADJ*%
X123711503Y-48044999D03*
D13*
%TO.P,U1,2,DELAY_ADJ*%
X123711503Y-48694999D03*
%TO.P,U1,3,OSC_FREQ_ADJ*%
X123711503Y-49344999D03*
%TO.P,U1,4,MASTER*%
X123711503Y-49994999D03*
%TO.P,U1,5,BOOT*%
X123711503Y-50644999D03*
%TO.P,U1,6,OUT1*%
X123711503Y-51294999D03*
%TO.P,U1,7,OUT2*%
X123711503Y-51944999D03*
%TO.P,U1,8,VPS2*%
X129311503Y-51944999D03*
%TO.P,U1,9,VPS1*%
X129311503Y-51294999D03*
%TO.P,U1,10,+VS*%
X129311503Y-50644999D03*
%TO.P,U1,11,GND*%
X129311503Y-49994999D03*
%TO.P,U1,12,SYNC*%
X129311503Y-49344999D03*
%TO.P,U1,13,STATUS_OK_FLAG*%
X129311503Y-48694999D03*
%TO.P,U1,14,INPUT*%
X129311503Y-48044999D03*
%TO.P,U1,15,EPAD*%
X126511503Y-49994999D03*
%TD*%
D10*
%TO.C,U2*%
%TO.CFtp,IC_TPS27S100BPWPR*%
%TO.CVal,DRV104PWP*%
%TO.CLbN,footprint*%
%TO.CMnt,SMD*%
%TO.CRot,0*%
X126536503Y-64282499D03*
D11*
X130386502Y-61532500D02*
X130386502Y-67032498D01*
X122686504Y-67032498D01*
X122686504Y-61532500D01*
X130386502Y-61532500D01*
D12*
%TO.P,U2,1,DUTY_CYCLE_ADJ*%
X123736503Y-62332499D03*
D13*
%TO.P,U2,2,DELAY_ADJ*%
X123736503Y-62982499D03*
%TO.P,U2,3,OSC_FREQ_ADJ*%
X123736503Y-63632499D03*
%TO.P,U2,4,MASTER*%
X123736503Y-64282499D03*
%TO.P,U2,5,BOOT*%
X123736503Y-64932499D03*
%TO.P,U2,6,OUT1*%
X123736503Y-65582499D03*
%TO.P,U2,7,OUT2*%
X123736503Y-66232499D03*
%TO.P,U2,8,VPS2*%
X129336503Y-66232499D03*
%TO.P,U2,9,VPS1*%
X129336503Y-65582499D03*
%TO.P,U2,10,+VS*%
X129336503Y-64932499D03*
%TO.P,U2,11,GND*%
X129336503Y-64282499D03*
%TO.P,U2,12,SYNC*%
X129336503Y-63632499D03*
%TO.P,U2,13,STATUS_OK_FLAG*%
X129336503Y-62982499D03*
%TO.P,U2,14,INPUT*%
X129336503Y-62332499D03*
%TO.P,U2,15,EPAD*%
X126536503Y-64282499D03*
%TD*%
D10*
%TO.C,R1*%
%TO.CFtp,R_1206_3216Metric*%
%TO.CVal,4k7*%
%TO.CLbN,Resistor_SMD*%
%TO.CMnt,SMD*%
%TO.CRot,180*%
X134312502Y-44814999D03*
D11*
X136592500Y-43694999D02*
X136592499Y-45934998D01*
X132032503Y-45934998D01*
X132032504Y-43694999D01*
X136592500Y-43694999D01*
D12*
%TO.P,R1,1*%
X135775000Y-44815000D03*
D13*
%TO.P,R1,2*%
X132850004Y-44814998D03*
%TD*%
D10*
%TO.C,C24*%
%TO.CFtp,C_1206_3216Metric*%
%TO.CVal,0.18uF*%
%TO.CLbN,Capacitor_SMD*%
%TO.CMnt,SMD*%
%TO.CRot,0*%
X119327502Y-146206783D03*
D11*
X121627501Y-145056784D02*
X121627501Y-147356782D01*
X117027503Y-147356782D01*
X117027503Y-145056784D01*
X121627501Y-145056784D01*
D12*
%TO.P,C24,1*%
X117852502Y-146206783D03*
D13*
%TO.P,C24,2*%
X120802502Y-146206783D03*
%TD*%
D10*
%TO.C,D3*%
%TO.CFtp,LED_0805_2012Metric*%
%TO.CVal,LED*%
%TO.CLbN,LED_SMD*%
%TO.CMnt,SMD*%
%TO.CRot,0*%
X173975000Y-83360000D03*
D11*
X175654999Y-82410001D02*
X175654999Y-84309999D01*
X172295001Y-84309999D01*
X172295001Y-82410001D01*
X175654999Y-82410001D01*
D12*
%TO.P,D3,1,K*%
X173037500Y-83360000D03*
D13*
%TO.P,D3,2,A*%
X174912500Y-83360000D03*
%TD*%
D10*
%TO.C,R8*%
%TO.CFtp,R_1206_3216Metric*%
%TO.CVal,162k*%
%TO.CLbN,Resistor_SMD*%
%TO.CMnt,SMD*%
%TO.CRot,180*%
X125207502Y-60202499D03*
D11*
X127487501Y-59082500D02*
X127487501Y-61322498D01*
X122927503Y-61322498D01*
X122927503Y-59082500D01*
X127487501Y-59082500D01*
D12*
%TO.P,R8,1*%
X126670002Y-60202499D03*
D13*
%TO.P,R8,2*%
X123745002Y-60202499D03*
%TD*%
D10*
%TO.C,R34*%
%TO.CFtp,R_1206_3216Metric*%
%TO.CVal,4k7*%
%TO.CLbN,Resistor_SMD*%
%TO.CMnt,SMD*%
%TO.CRot,180*%
X134386303Y-118707055D03*
D11*
X136666302Y-117587056D02*
X136666302Y-119827054D01*
X132106304Y-119827054D01*
X132106304Y-117587056D01*
X136666302Y-117587056D01*
D12*
%TO.P,R34,1*%
X135848803Y-118707055D03*
D13*
%TO.P,R34,2*%
X132923803Y-118707055D03*
%TD*%
D10*
%TO.C,R44*%
%TO.CFtp,R_1206_3216Metric*%
%TO.CVal,162k*%
%TO.CLbN,Resistor_SMD*%
%TO.CMnt,SMD*%
%TO.CRot,180*%
X125277502Y-146156783D03*
D11*
X127557501Y-145036784D02*
X127557501Y-147276782D01*
X122997503Y-147276782D01*
X122997503Y-145036784D01*
X127557501Y-145036784D01*
D12*
%TO.P,R44,1*%
X126740002Y-146156783D03*
D13*
%TO.P,R44,2*%
X123815002Y-146156783D03*
%TD*%
D10*
%TO.C,D44*%
%TO.CFtp,LED_0805_2012Metric*%
%TO.CVal,LED Green*%
%TO.CLbN,LED_SMD*%
%TO.CMnt,SMD*%
%TO.CRot,0*%
X167990981Y-125657731D03*
D11*
X169670980Y-126607730D02*
X166310982Y-126607730D01*
X166310982Y-124707731D01*
X169670980Y-124707731D01*
X169670980Y-126607730D01*
D12*
%TO.P,D44,1,K*%
X167053481Y-125657731D03*
D13*
%TO.P,D44,2,A*%
X168928481Y-125657731D03*
%TD*%
D10*
%TO.C,C25*%
%TO.CFtp,C_1206_3216Metric*%
%TO.CVal,470pF*%
%TO.CLbN,Capacitor_SMD*%
%TO.CMnt,SMD*%
%TO.CRot,0*%
X119327502Y-150776783D03*
D11*
X121627501Y-149626784D02*
X121627501Y-151926782D01*
X117027503Y-151926782D01*
X117027503Y-149626784D01*
X121627501Y-149626784D01*
D12*
%TO.P,C25,1*%
X117852502Y-150776783D03*
D13*
%TO.P,C25,2*%
X120802502Y-150776783D03*
%TD*%
D10*
%TO.C,R38*%
%TO.CFtp,R_1206_3216Metric*%
%TO.CVal,162k*%
%TO.CLbN,Resistor_SMD*%
%TO.CMnt,SMD*%
%TO.CRot,180*%
X125257502Y-131831069D03*
D11*
X127537501Y-130711070D02*
X127537501Y-132951068D01*
X122977503Y-132951068D01*
X122977503Y-130711070D01*
X127537501Y-130711070D01*
D12*
%TO.P,R38,1*%
X126720002Y-131831069D03*
D13*
%TO.P,R38,2*%
X123795002Y-131831069D03*
%TD*%
D10*
%TO.C,Q4*%
%TO.CFtp,SOT-23*%
%TO.CVal,2N7002E*%
%TO.CLbN,Package_TO_SOT_SMD*%
%TO.CMnt,SMD*%
%TO.CRot,90*%
X130367502Y-88063927D03*
D11*
X132067501Y-86143928D02*
X132067501Y-89983926D01*
X128667503Y-89983926D01*
X128667503Y-86143928D01*
X132067501Y-86143928D01*
D12*
%TO.P,Q4,1,G*%
X129417502Y-89001427D03*
D13*
%TO.P,Q4,2,S*%
X131317502Y-89001427D03*
%TO.P,Q4,3,D*%
X130367502Y-87126427D03*
%TD*%
D10*
%TO.C,D9*%
%TO.CFtp,LED_0805_2012Metric*%
%TO.CVal,LED*%
%TO.CLbN,LED_SMD*%
%TO.CMnt,SMD*%
%TO.CRot,0*%
X173975000Y-97460000D03*
D11*
X175654999Y-96510001D02*
X175654999Y-98409999D01*
X172295001Y-98409999D01*
X172295001Y-96510001D01*
X175654999Y-96510001D01*
D12*
%TO.P,D9,1,K*%
X173037500Y-97460000D03*
D13*
%TO.P,D9,2,A*%
X174912500Y-97460000D03*
%TD*%
D10*
%TO.C,D20*%
%TO.CFtp,LED_0805_2012Metric*%
%TO.CVal,LED Green*%
%TO.CLbN,LED_SMD*%
%TO.CMnt,SMD*%
%TO.CRot,0*%
X180025000Y-125660000D03*
D11*
X181704999Y-124710001D02*
X181704999Y-126609999D01*
X178345001Y-126609999D01*
X178345001Y-124710001D01*
X181704999Y-124710001D01*
D12*
%TO.P,D20,1,K*%
X179087500Y-125660000D03*
D13*
%TO.P,D20,2,A*%
X180962500Y-125660000D03*
%TD*%
D10*
%TO.C,J4*%
%TO.CFtp,CUI_TBL009-254-16GY-2GY*%
%TO.CVal,TBL009-254-16GY-2GY*%
%TO.CLbN,footprint*%
%TO.CMnt,TH*%
%TO.CRot,-90*%
X106662502Y-103439998D03*
D11*
X108362499Y-142629999D02*
X92062500Y-142629999D01*
X92062500Y-99990000D01*
X108362499Y-99990000D01*
X108362499Y-142629999D01*
D13*
%TO.P,J4,1_A,1*%
X106662502Y-103439998D03*
%TO.P,J4,1_B,1*%
X101582503Y-103440002D03*
%TO.P,J4,2_A,2*%
X106662502Y-105979998D03*
%TO.P,J4,2_B,2*%
X101582504Y-105979998D03*
%TO.P,J4,3_A,3*%
X106662506Y-108519997D03*
%TO.P,J4,3_B,3*%
X101582500Y-108519997D03*
%TO.P,J4,4_A,4*%
X106662502Y-111059998D03*
%TO.P,J4,4_B,4*%
X101582505Y-111059999D03*
%TO.P,J4,5_A,5*%
X106662501Y-113599998D03*
%TO.P,J4,5_B,5*%
X101582502Y-113599999D03*
%TO.P,J4,6_A,6*%
X106662506Y-116139997D03*
%TO.P,J4,6_B,6*%
X101582502Y-116139997D03*
%TO.P,J4,7_A,7*%
X106662502Y-118679998D03*
%TO.P,J4,7_B,7*%
X101582505Y-118679998D03*
%TO.P,J4,8_A,8*%
X106662505Y-121220001D03*
%TO.P,J4,8_B,8*%
X101582498Y-121219999D03*
%TO.P,J4,9_A,9*%
X106662500Y-123760001D03*
%TO.P,J4,9_B,9*%
X101582502Y-123759998D03*
%TO.P,J4,10_A,10*%
X106662498Y-126299998D03*
%TO.P,J4,10_B,10*%
X101582500Y-126299999D03*
%TO.P,J4,11_A,11*%
X106662502Y-128839998D03*
%TO.P,J4,11_B,11*%
X101582502Y-128839998D03*
%TO.P,J4,12_A,12*%
X106662502Y-131379998D03*
%TO.P,J4,12_B,12*%
X101582506Y-131379999D03*
%TO.P,J4,13_A,13*%
X106662500Y-133919999D03*
%TO.P,J4,13_B,13*%
X101582502Y-133919998D03*
%TO.P,J4,14_A,14*%
X106662502Y-136459999D03*
%TO.P,J4,14_B,14*%
X101582498Y-136459996D03*
%TO.P,J4,15_A,15*%
X106662502Y-138999998D03*
%TO.P,J4,15_B,15*%
X101582504Y-138999994D03*
%TO.P,J4,16_A,16*%
X106662502Y-141539997D03*
%TO.P,J4,16_B,16*%
X101582505Y-141539998D03*
%TD*%
D10*
%TO.C,R43*%
%TO.CFtp,R_1206_3216Metric*%
%TO.CVal,4k7*%
%TO.CLbN,Resistor_SMD*%
%TO.CMnt,SMD*%
%TO.CRot,180*%
X134407502Y-145056783D03*
D11*
X136687501Y-143936784D02*
X136687501Y-146176782D01*
X132127503Y-146176782D01*
X132127503Y-143936784D01*
X136687501Y-143936784D01*
D12*
%TO.P,R43,1*%
X135870002Y-145056783D03*
D13*
%TO.P,R43,2*%
X132945002Y-145056783D03*
%TD*%
D10*
%TO.C,D30*%
%TO.CFtp,LED_0805_2012Metric*%
%TO.CVal,LED*%
%TO.CLbN,LED_SMD*%
%TO.CMnt,SMD*%
%TO.CRot,0*%
X161940981Y-90407731D03*
D11*
X163620980Y-91357730D02*
X160260982Y-91357730D01*
X160260982Y-89457731D01*
X163620980Y-89457731D01*
X163620980Y-91357730D01*
D12*
%TO.P,D30,1,K*%
X161003481Y-90407731D03*
D13*
%TO.P,D30,2,A*%
X162878481Y-90407731D03*
%TD*%
D10*
%TO.C,Q3*%
%TO.CFtp,SOT-23*%
%TO.CVal,2N7002E*%
%TO.CLbN,Package_TO_SOT_SMD*%
%TO.CMnt,SMD*%
%TO.CRot,90*%
X130367502Y-73738213D03*
D11*
X132067501Y-71818214D02*
X132067501Y-75658212D01*
X128667503Y-75658212D01*
X128667503Y-71818214D01*
X132067501Y-71818214D01*
D12*
%TO.P,Q3,1,G*%
X129417502Y-74675713D03*
D13*
%TO.P,Q3,2,S*%
X131317502Y-74675713D03*
%TO.P,Q3,3,D*%
X130367502Y-72800713D03*
%TD*%
D10*
%TO.C,Q1*%
%TO.CFtp,SOT-23*%
%TO.CVal,2N7002E*%
%TO.CLbN,Package_TO_SOT_SMD*%
%TO.CMnt,SMD*%
%TO.CRot,90*%
X130292502Y-45124999D03*
D11*
X131992501Y-43205000D02*
X131992501Y-47044998D01*
X128592503Y-47044998D01*
X128592503Y-43205000D01*
X131992501Y-43205000D01*
D12*
%TO.P,Q1,1,G*%
X129342502Y-46062499D03*
D13*
%TO.P,Q1,2,S*%
X131242502Y-46062499D03*
%TO.P,Q1,3,D*%
X130292502Y-44187499D03*
%TD*%
D10*
%TO.C,R47*%
%TO.CFtp,R_1206_3216Metric*%
%TO.CVal,191k*%
%TO.CLbN,Resistor_SMD*%
%TO.CMnt,SMD*%
%TO.CRot,0*%
X119319003Y-148486783D03*
D11*
X121599002Y-147366784D02*
X121599002Y-149606782D01*
X117039004Y-149606782D01*
X117039004Y-147366784D01*
X121599002Y-147366784D01*
D12*
%TO.P,R47,1*%
X117856503Y-148486783D03*
D13*
%TO.P,R47,2*%
X120781503Y-148486783D03*
%TD*%
D10*
%TO.C,U5*%
%TO.CFtp,IC_TPS27S100BPWPR*%
%TO.CVal,DRV104PWP*%
%TO.CLbN,footprint*%
%TO.CMnt,SMD*%
%TO.CRot,0*%
X126586503Y-107259641D03*
D11*
X130436502Y-104509642D02*
X130436502Y-110009640D01*
X122736504Y-110009640D01*
X122736504Y-104509642D01*
X130436502Y-104509642D01*
D12*
%TO.P,U5,1,DUTY_CYCLE_ADJ*%
X123786503Y-105309641D03*
D13*
%TO.P,U5,2,DELAY_ADJ*%
X123786503Y-105959641D03*
%TO.P,U5,3,OSC_FREQ_ADJ*%
X123786503Y-106609641D03*
%TO.P,U5,4,MASTER*%
X123786503Y-107259641D03*
%TO.P,U5,5,BOOT*%
X123786503Y-107909641D03*
%TO.P,U5,6,OUT1*%
X123786503Y-108559641D03*
%TO.P,U5,7,OUT2*%
X123786503Y-109209641D03*
%TO.P,U5,8,VPS2*%
X129386503Y-109209641D03*
%TO.P,U5,9,VPS1*%
X129386503Y-108559641D03*
%TO.P,U5,10,+VS*%
X129386503Y-107909641D03*
%TO.P,U5,11,GND*%
X129386503Y-107259641D03*
%TO.P,U5,12,SYNC*%
X129386503Y-106609641D03*
%TO.P,U5,13,STATUS_OK_FLAG*%
X129386503Y-105959641D03*
%TO.P,U5,14,INPUT*%
X129386503Y-105309641D03*
%TO.P,U5,15,EPAD*%
X126586503Y-107259641D03*
%TD*%
D10*
%TO.C,R15*%
%TO.CFtp,R_1206_3216Metric*%
%TO.CVal,49R9*%
%TO.CLbN,Resistor_SMD*%
%TO.CMnt,SMD*%
%TO.CRot,180*%
X134384003Y-77988213D03*
D11*
X136664002Y-76868214D02*
X136664002Y-79108212D01*
X132104004Y-79108212D01*
X132104004Y-76868214D01*
X136664002Y-76868214D01*
D12*
%TO.P,R15,1*%
X135846503Y-77988213D03*
D13*
%TO.P,R15,2*%
X132921503Y-77988213D03*
%TD*%
D10*
%TO.C,U18*%
%TO.CFtp,FT4232H_MINI_MODULE*%
%TO.CVal,FT4232H MINI MODULE*%
%TO.CLbN,footprint*%
%TO.CMnt,TH*%
%TO.CRot,-90*%
X163187064Y-61903987D03*
D14*
X180451064Y-48434981D02*
X148463063Y-48434981D01*
X148463063Y-75372993D01*
X180451064Y-75372993D01*
X180451064Y-48434981D01*
D13*
%TO.P,U18,CN2-1,V3V3*%
X179697061Y-49188985D03*
%TO.P,U18,CN2-2,GND*%
X179697064Y-51728988D03*
%TO.P,U18,CN2-3,V3V3*%
X177157064Y-49188988D03*
%TO.P,U18,CN2-4,GND*%
X177157065Y-51728987D03*
%TO.P,U18,CN2-5,V3V3*%
X174617064Y-49188983D03*
%TO.P,U18,CN2-6,GND*%
X174617064Y-51728984D03*
%TO.P,U18,CN2-7,AD0*%
X172077066Y-49188983D03*
%TO.P,U18,CN2-8,RESET#*%
X172077064Y-51728987D03*
%TO.P,U18,CN2-9,AD2*%
X169537064Y-49188987D03*
%TO.P,U18,CN2-10,AD1*%
X169537064Y-51728986D03*
%TO.P,U18,CN2-11,VIO*%
X166997064Y-49188987D03*
%TO.P,U18,CN2-12,AD3*%
X166997064Y-51728987D03*
%TO.P,U18,CN2-13,AD5*%
X164457064Y-49188987D03*
%TO.P,U18,CN2-14,AD4*%
X164457064Y-51728987D03*
%TO.P,U18,CN2-15,AD7*%
X161917064Y-49188987D03*
%TO.P,U18,CN2-16,AD6*%
X161917064Y-51728987D03*
%TO.P,U18,CN2-17,BD1*%
X159377064Y-49188987D03*
%TO.P,U18,CN2-18,BD0*%
X159377064Y-51728987D03*
%TO.P,U18,CN2-19,BD3*%
X156837067Y-49188988D03*
%TO.P,U18,CN2-20,BD2*%
X156837064Y-51728987D03*
%TO.P,U18,CN2-21,VIO*%
X154297063Y-49188987D03*
%TO.P,U18,CN2-22,BD4*%
X154297064Y-51728987D03*
%TO.P,U18,CN2-23,BD6*%
X151757068Y-49188981D03*
%TO.P,U18,CN2-24,BD5*%
X151757060Y-51728985D03*
%TO.P,U18,CN2-25,SUSPEND#*%
X149217064Y-49188987D03*
%TO.P,U18,CN2-26,BD7*%
X149217064Y-51728987D03*
%TO.P,U18,CN3-1,VBUS*%
X179697064Y-72078987D03*
%TO.P,U18,CN3-2,GND*%
X179687070Y-74618982D03*
%TO.P,U18,CN3-3,VCC*%
X177157064Y-72078987D03*
%TO.P,U18,CN3-4,GND*%
X177157064Y-74618987D03*
%TO.P,U18,CN3-5,CS*%
X174617068Y-72078989D03*
%TO.P,U18,CN3-6,CLK*%
X174617060Y-74618993D03*
%TO.P,U18,CN3-7,DATA*%
X172077064Y-72078987D03*
%TO.P,U18,CN3-8,PWREN#*%
X172077065Y-74618987D03*
%TO.P,U18,CN3-9,DD7*%
X169537064Y-72078987D03*
%TO.P,U18,CN3-10,DD6*%
X169537061Y-74618986D03*
%TO.P,U18,CN3-11,DD5*%
X166997064Y-72078987D03*
%TO.P,U18,CN3-12,VIO*%
X166997064Y-74618987D03*
%TO.P,U18,CN3-13,DD4*%
X164457064Y-72078987D03*
%TO.P,U18,CN3-14,DD3*%
X164457064Y-74618987D03*
%TO.P,U18,CN3-15,DD2*%
X161917064Y-72078987D03*
%TO.P,U18,CN3-16,DD1*%
X161917064Y-74618987D03*
%TO.P,U18,CN3-17,DD0*%
X159377064Y-72078987D03*
%TO.P,U18,CN3-18,CD7*%
X159377064Y-74618987D03*
%TO.P,U18,CN3-19,CD6*%
X156837064Y-72078988D03*
%TO.P,U18,CN3-20,CD5*%
X156837064Y-74618987D03*
%TO.P,U18,CN3-21,CD4*%
X154297064Y-72078987D03*
%TO.P,U18,CN3-22,VIO*%
X154297062Y-74618991D03*
%TO.P,U18,CN3-23,CD3*%
X151757064Y-72078990D03*
%TO.P,U18,CN3-24,CD2*%
X151757064Y-74618991D03*
%TO.P,U18,CN3-25,CD1*%
X149217063Y-72078987D03*
%TO.P,U18,CN3-26,CD0*%
X149217064Y-74618986D03*
%TD*%
D10*
%TO.C,R10*%
%TO.CFtp,R_1206_3216Metric*%
%TO.CVal,4k7*%
%TO.CLbN,Resistor_SMD*%
%TO.CMnt,SMD*%
%TO.CRot,180*%
X134336303Y-61404199D03*
D11*
X136616302Y-60284200D02*
X136616302Y-62524198D01*
X132056304Y-62524198D01*
X132056304Y-60284200D01*
X136616302Y-60284200D01*
D12*
%TO.P,R10,1*%
X135798803Y-61404199D03*
D13*
%TO.P,R10,2*%
X132873803Y-61404199D03*
%TD*%
D10*
%TO.C,C20*%
%TO.CFtp,C_1210_3225Metric*%
%TO.CVal,10uF*%
%TO.CLbN,Capacitor_SMD*%
%TO.CMnt,SMD*%
%TO.CRot,180*%
X126942502Y-140416069D03*
D11*
X129242501Y-138816070D02*
X129242501Y-142016068D01*
X124642503Y-142016068D01*
X124642503Y-138816070D01*
X129242501Y-138816070D01*
D12*
%TO.P,C20,1*%
X128417502Y-140416069D03*
D13*
%TO.P,C20,2*%
X125467502Y-140416069D03*
%TD*%
D10*
%TO.C,D19*%
%TO.CFtp,Nexperia_CFP3_SOD-123W*%
%TO.CVal,PMEG10010ELRX*%
%TO.CLbN,Diode_SMD*%
%TO.CMnt,SMD*%
%TO.CRot,180*%
X119295002Y-138721069D03*
D11*
X121545001Y-137621070D02*
X121545001Y-139821068D01*
X117045003Y-139821068D01*
X117045003Y-137621070D01*
X121545001Y-137621070D01*
D12*
%TO.P,D19,1,K*%
X120695002Y-138721069D03*
D13*
%TO.P,D19,2,A*%
X117895002Y-138721069D03*
%TD*%
D10*
%TO.C,R6*%
%TO.CFtp,R_1206_3216Metric*%
%TO.CVal,4k7*%
%TO.CLbN,Resistor_SMD*%
%TO.CMnt,SMD*%
%TO.CRot,180*%
X134292502Y-51654999D03*
D11*
X136572500Y-50534999D02*
X136572499Y-52774998D01*
X132012503Y-52774998D01*
X132012504Y-50534999D01*
X136572500Y-50534999D01*
D12*
%TO.P,R6,1*%
X135755000Y-51655000D03*
D13*
%TO.P,R6,2*%
X132830004Y-51654998D03*
%TD*%
D10*
%TO.C,D18*%
%TO.CFtp,LED_0805_2012Metric*%
%TO.CVal,LED*%
%TO.CLbN,LED_SMD*%
%TO.CMnt,SMD*%
%TO.CRot,0*%
X173975000Y-118610000D03*
D11*
X175654999Y-117660001D02*
X175654999Y-119559999D01*
X172295001Y-119559999D01*
X172295001Y-117660001D01*
X175654999Y-117660001D01*
D12*
%TO.P,D18,1,K*%
X173037500Y-118610000D03*
D13*
%TO.P,D18,2,A*%
X174912500Y-118610000D03*
%TD*%
D10*
%TO.C,R7*%
%TO.CFtp,R_1206_3216Metric*%
%TO.CVal,4k7*%
%TO.CLbN,Resistor_SMD*%
%TO.CMnt,SMD*%
%TO.CRot,180*%
X134337502Y-59102499D03*
D11*
X136617501Y-57982500D02*
X136617501Y-60222498D01*
X132057503Y-60222498D01*
X132057503Y-57982500D01*
X136617501Y-57982500D01*
D12*
%TO.P,R7,1*%
X135800002Y-59102499D03*
D13*
%TO.P,R7,2*%
X132875002Y-59102499D03*
%TD*%
D10*
%TO.C,D15*%
%TO.CFtp,LED_0805_2012Metric*%
%TO.CVal,LED*%
%TO.CLbN,LED_SMD*%
%TO.CMnt,SMD*%
%TO.CRot,0*%
X174000000Y-111560000D03*
D11*
X175679999Y-110610001D02*
X175679999Y-112509999D01*
X172320001Y-112509999D01*
X172320001Y-110610001D01*
X175679999Y-110610001D01*
D12*
%TO.P,D15,1,K*%
X173062500Y-111560000D03*
D13*
%TO.P,D15,2,A*%
X174937500Y-111560000D03*
%TD*%
D10*
%TO.C,C5*%
%TO.CFtp,C_1210_3225Metric*%
%TO.CVal,10uF*%
%TO.CLbN,Capacitor_SMD*%
%TO.CMnt,SMD*%
%TO.CRot,180*%
X126892502Y-68787499D03*
D11*
X129192501Y-67187500D02*
X129192501Y-70387498D01*
X124592503Y-70387498D01*
X124592503Y-67187500D01*
X129192501Y-67187500D01*
D12*
%TO.P,C5,1*%
X128367502Y-68787499D03*
D13*
%TO.P,C5,2*%
X125417502Y-68787499D03*
%TD*%
D10*
%TO.C,U4*%
%TO.CFtp,IC_TPS27S100BPWPR*%
%TO.CVal,DRV104PWP*%
%TO.CLbN,footprint*%
%TO.CMnt,SMD*%
%TO.CRot,0*%
X126586503Y-92933927D03*
D11*
X130436502Y-90183928D02*
X130436502Y-95683926D01*
X122736504Y-95683926D01*
X122736504Y-90183928D01*
X130436502Y-90183928D01*
D12*
%TO.P,U4,1,DUTY_CYCLE_ADJ*%
X123786503Y-90983927D03*
D13*
%TO.P,U4,2,DELAY_ADJ*%
X123786503Y-91633927D03*
%TO.P,U4,3,OSC_FREQ_ADJ*%
X123786503Y-92283927D03*
%TO.P,U4,4,MASTER*%
X123786503Y-92933927D03*
%TO.P,U4,5,BOOT*%
X123786503Y-93583927D03*
%TO.P,U4,6,OUT1*%
X123786503Y-94233927D03*
%TO.P,U4,7,OUT2*%
X123786503Y-94883927D03*
%TO.P,U4,8,VPS2*%
X129386503Y-94883927D03*
%TO.P,U4,9,VPS1*%
X129386503Y-94233927D03*
%TO.P,U4,10,+VS*%
X129386503Y-93583927D03*
%TO.P,U4,11,GND*%
X129386503Y-92933927D03*
%TO.P,U4,12,SYNC*%
X129386503Y-92283927D03*
%TO.P,U4,13,STATUS_OK_FLAG*%
X129386503Y-91633927D03*
%TO.P,U4,14,INPUT*%
X129386503Y-90983927D03*
%TO.P,U4,15,EPAD*%
X126586503Y-92933927D03*
%TD*%
D10*
%TO.C,R18*%
%TO.CFtp,R_1206_3216Metric*%
%TO.CVal,4k7*%
%TO.CLbN,Resistor_SMD*%
%TO.CMnt,SMD*%
%TO.CRot,180*%
X134367502Y-80268213D03*
D11*
X136647501Y-79148214D02*
X136647501Y-81388212D01*
X132087503Y-81388212D01*
X132087503Y-79148214D01*
X136647501Y-79148214D01*
D12*
%TO.P,R18,1*%
X135830002Y-80268213D03*
D13*
%TO.P,R18,2*%
X132905002Y-80268213D03*
%TD*%
D10*
%TO.C,Q8*%
%TO.CFtp,SOT-23*%
%TO.CVal,2N7002E*%
%TO.CLbN,Package_TO_SOT_SMD*%
%TO.CMnt,SMD*%
%TO.CRot,90*%
X130387502Y-145366783D03*
D11*
X132087501Y-143446784D02*
X132087501Y-147286782D01*
X128687503Y-147286782D01*
X128687503Y-143446784D01*
X132087501Y-143446784D01*
D12*
%TO.P,Q8,1,G*%
X129437502Y-146304283D03*
D13*
%TO.P,Q8,2,S*%
X131337502Y-146304283D03*
%TO.P,Q8,3,D*%
X130387502Y-144429283D03*
%TD*%
D10*
%TO.C,R24*%
%TO.CFtp,R_1206_3216Metric*%
%TO.CVal,4k7*%
%TO.CLbN,Resistor_SMD*%
%TO.CMnt,SMD*%
%TO.CRot,180*%
X134367502Y-94593927D03*
D11*
X136647501Y-93473928D02*
X136647501Y-95713926D01*
X132087503Y-95713926D01*
X132087503Y-93473928D01*
X136647501Y-93473928D01*
D12*
%TO.P,R24,1*%
X135830002Y-94593927D03*
D13*
%TO.P,R24,2*%
X132905002Y-94593927D03*
%TD*%
D10*
%TO.C,D1*%
%TO.CFtp,Nexperia_CFP3_SOD-123W*%
%TO.CVal,PMEG10010ELRX*%
%TO.CLbN,Diode_SMD*%
%TO.CMnt,SMD*%
%TO.CRot,180*%
X119220002Y-52804999D03*
D11*
X121470001Y-51705000D02*
X121470001Y-53904998D01*
X116970003Y-53904998D01*
X116970003Y-51705000D01*
X121470001Y-51705000D01*
D12*
%TO.P,D1,1,K*%
X120620002Y-52804999D03*
D13*
%TO.P,D1,2,A*%
X117820002Y-52804999D03*
%TD*%
D10*
%TO.C,R13*%
%TO.CFtp,R_1206_3216Metric*%
%TO.CVal,4k7*%
%TO.CLbN,Resistor_SMD*%
%TO.CMnt,SMD*%
%TO.CRot,180*%
X134387502Y-73428213D03*
D11*
X136667501Y-72308214D02*
X136667501Y-74548212D01*
X132107503Y-74548212D01*
X132107503Y-72308214D01*
X136667501Y-72308214D01*
D12*
%TO.P,R13,1*%
X135850002Y-73428213D03*
D13*
%TO.P,R13,2*%
X132925002Y-73428213D03*
%TD*%
D10*
%TO.C,R27*%
%TO.CFtp,R_1206_3216Metric*%
%TO.CVal,49R9*%
%TO.CLbN,Resistor_SMD*%
%TO.CMnt,SMD*%
%TO.CRot,180*%
X134384003Y-106639641D03*
D11*
X136664002Y-105519642D02*
X136664002Y-107759640D01*
X132104004Y-107759640D01*
X132104004Y-105519642D01*
X136664002Y-105519642D01*
D12*
%TO.P,R27,1*%
X135846503Y-106639641D03*
D13*
%TO.P,R27,2*%
X132921503Y-106639641D03*
%TD*%
D10*
%TO.C,D2*%
%TO.CFtp,LED_0805_2012Metric*%
%TO.CVal,LED Green*%
%TO.CLbN,LED_SMD*%
%TO.CMnt,SMD*%
%TO.CRot,0*%
X180025000Y-83360000D03*
D11*
X181704999Y-82410001D02*
X181704999Y-84309999D01*
X178345001Y-84309999D01*
X178345001Y-82410001D01*
X181704999Y-82410001D01*
D12*
%TO.P,D2,1,K*%
X179087500Y-83360000D03*
D13*
%TO.P,D2,2,A*%
X180962500Y-83360000D03*
%TD*%
D10*
%TO.C,R21*%
%TO.CFtp,R_1206_3216Metric*%
%TO.CVal,49R9*%
%TO.CLbN,Resistor_SMD*%
%TO.CMnt,SMD*%
%TO.CRot,180*%
X134384003Y-92313927D03*
D11*
X136664002Y-91193928D02*
X136664002Y-93433926D01*
X132104004Y-93433926D01*
X132104004Y-91193928D01*
X136664002Y-91193928D01*
D12*
%TO.P,R21,1*%
X135846503Y-92313927D03*
D13*
%TO.P,R21,2*%
X132921503Y-92313927D03*
%TD*%
D10*
%TO.C,D14*%
%TO.CFtp,LED_0805_2012Metric*%
%TO.CVal,LED Green*%
%TO.CLbN,LED_SMD*%
%TO.CMnt,SMD*%
%TO.CRot,0*%
X180025000Y-111560000D03*
D11*
X181704999Y-110610001D02*
X181704999Y-112509999D01*
X178345001Y-112509999D01*
X178345001Y-110610001D01*
X181704999Y-110610001D01*
D12*
%TO.P,D14,1,K*%
X179087500Y-111560000D03*
D13*
%TO.P,D14,2,A*%
X180962500Y-111560000D03*
%TD*%
D10*
%TO.C,R42*%
%TO.CFtp,R_1206_3216Metric*%
%TO.CVal,4k7*%
%TO.CLbN,Resistor_SMD*%
%TO.CMnt,SMD*%
%TO.CRot,180*%
X134367502Y-137571069D03*
D11*
X136647501Y-136451070D02*
X136647501Y-138691068D01*
X132087503Y-138691068D01*
X132087503Y-136451070D01*
X136647501Y-136451070D01*
D12*
%TO.P,R42,1*%
X135830002Y-137571069D03*
D13*
%TO.P,R42,2*%
X132905002Y-137571069D03*
%TD*%
D10*
%TO.C,D21*%
%TO.CFtp,LED_0805_2012Metric*%
%TO.CVal,LED*%
%TO.CLbN,LED_SMD*%
%TO.CMnt,SMD*%
%TO.CRot,0*%
X173975000Y-125660000D03*
D11*
X175654999Y-124710001D02*
X175654999Y-126609999D01*
X172295001Y-126609999D01*
X172295001Y-124710001D01*
X175654999Y-124710001D01*
D12*
%TO.P,D21,1,K*%
X173037500Y-125660000D03*
D13*
%TO.P,D21,2,A*%
X174912500Y-125660000D03*
%TD*%
D10*
%TO.C,R12*%
%TO.CFtp,R_1206_3216Metric*%
%TO.CVal,4k7*%
%TO.CLbN,Resistor_SMD*%
%TO.CMnt,SMD*%
%TO.CRot,180*%
X134317502Y-65942499D03*
D11*
X136597501Y-64822500D02*
X136597501Y-67062498D01*
X132037503Y-67062498D01*
X132037503Y-64822500D01*
X136597501Y-64822500D01*
D12*
%TO.P,R12,1*%
X135780002Y-65942499D03*
D13*
%TO.P,R12,2*%
X132855002Y-65942499D03*
%TD*%
D10*
%TO.C,R31*%
%TO.CFtp,R_1206_3216Metric*%
%TO.CVal,4k7*%
%TO.CLbN,Resistor_SMD*%
%TO.CMnt,SMD*%
%TO.CRot,180*%
X134387502Y-116405355D03*
D11*
X136667501Y-115285356D02*
X136667501Y-117525354D01*
X132107503Y-117525354D01*
X132107503Y-115285356D01*
X136667501Y-115285356D01*
D12*
%TO.P,R31,1*%
X135850002Y-116405355D03*
D13*
%TO.P,R31,2*%
X132925002Y-116405355D03*
%TD*%
D10*
%TO.C,Q5*%
%TO.CFtp,SOT-23*%
%TO.CVal,2N7002E*%
%TO.CLbN,Package_TO_SOT_SMD*%
%TO.CMnt,SMD*%
%TO.CRot,90*%
X130367502Y-102389641D03*
D11*
X132067501Y-100469642D02*
X132067501Y-104309640D01*
X128667503Y-104309640D01*
X128667503Y-100469642D01*
X132067501Y-100469642D01*
D12*
%TO.P,Q5,1,G*%
X129417502Y-103327141D03*
D13*
%TO.P,Q5,2,S*%
X131317502Y-103327141D03*
%TO.P,Q5,3,D*%
X130367502Y-101452141D03*
%TD*%
D10*
%TO.C,D48*%
%TO.CFtp,LED_0805_2012Metric*%
%TO.CVal,LED*%
%TO.CLbN,LED_SMD*%
%TO.CMnt,SMD*%
%TO.CRot,0*%
X161944330Y-132708222D03*
D11*
X163624329Y-133658221D02*
X160264331Y-133658221D01*
X160264331Y-131758222D01*
X163624329Y-131758222D01*
X163624329Y-133658221D01*
D12*
%TO.P,D48,1,K*%
X161006830Y-132708222D03*
D13*
%TO.P,D48,2,A*%
X162881830Y-132708222D03*
%TD*%
D10*
%TO.C,R20*%
%TO.CFtp,R_1206_3216Metric*%
%TO.CVal,162k*%
%TO.CLbN,Resistor_SMD*%
%TO.CMnt,SMD*%
%TO.CRot,180*%
X125257502Y-88853927D03*
D11*
X127537501Y-87733928D02*
X127537501Y-89973926D01*
X122977503Y-89973926D01*
X122977503Y-87733928D01*
X127537501Y-87733928D01*
D12*
%TO.P,R20,1*%
X126720002Y-88853927D03*
D13*
%TO.P,R20,2*%
X123795002Y-88853927D03*
%TD*%
D10*
%TO.C,R32*%
%TO.CFtp,R_1206_3216Metric*%
%TO.CVal,162k*%
%TO.CLbN,Resistor_SMD*%
%TO.CMnt,SMD*%
%TO.CRot,180*%
X125257502Y-117505355D03*
D11*
X127537501Y-116385356D02*
X127537501Y-118625354D01*
X122977503Y-118625354D01*
X122977503Y-116385356D01*
X127537501Y-116385356D01*
D12*
%TO.P,R32,1*%
X126720002Y-117505355D03*
D13*
%TO.P,R32,2*%
X123795002Y-117505355D03*
%TD*%
D10*
%TO.C,C9*%
%TO.CFtp,C_1206_3216Metric*%
%TO.CVal,0.18uF*%
%TO.CLbN,Capacitor_SMD*%
%TO.CMnt,SMD*%
%TO.CRot,0*%
X119307502Y-74578213D03*
D11*
X121607501Y-73428214D02*
X121607501Y-75728212D01*
X117007503Y-75728212D01*
X117007503Y-73428214D01*
X121607501Y-73428214D01*
D12*
%TO.P,C9,1*%
X117832502Y-74578213D03*
D13*
%TO.P,C9,2*%
X120782502Y-74578213D03*
%TD*%
D10*
%TO.C,R2*%
%TO.CFtp,R_1206_3216Metric*%
%TO.CVal,162k*%
%TO.CLbN,Resistor_SMD*%
%TO.CMnt,SMD*%
%TO.CRot,180*%
X125182502Y-45914999D03*
D11*
X127462501Y-44795000D02*
X127462501Y-47034998D01*
X122902503Y-47034998D01*
X122902503Y-44795000D01*
X127462501Y-44795000D01*
D12*
%TO.P,R2,1*%
X126645002Y-45914999D03*
D13*
%TO.P,R2,2*%
X123720002Y-45914999D03*
%TD*%
D10*
%TO.C,C22*%
%TO.CFtp,C_1206_3216Metric*%
%TO.CVal,470pF*%
%TO.CLbN,Capacitor_SMD*%
%TO.CMnt,SMD*%
%TO.CRot,0*%
X119307502Y-136451069D03*
D11*
X121607501Y-135301070D02*
X121607501Y-137601068D01*
X117007503Y-137601068D01*
X117007503Y-135301070D01*
X121607501Y-135301070D01*
D12*
%TO.P,C22,1*%
X117832502Y-136451069D03*
D13*
%TO.P,C22,2*%
X120782502Y-136451069D03*
%TD*%
D10*
%TO.C,R5*%
%TO.CFtp,R_1206_3216Metric*%
%TO.CVal,191k*%
%TO.CLbN,Resistor_SMD*%
%TO.CMnt,SMD*%
%TO.CRot,0*%
X119224003Y-48244999D03*
D11*
X121504002Y-47125000D02*
X121504002Y-49364998D01*
X116944004Y-49364998D01*
X116944004Y-47125000D01*
X121504002Y-47125000D01*
D12*
%TO.P,R5,1*%
X117761503Y-48244999D03*
D13*
%TO.P,R5,2*%
X120686503Y-48244999D03*
%TD*%
D10*
%TO.C,D8*%
%TO.CFtp,LED_0805_2012Metric*%
%TO.CVal,LED Green*%
%TO.CLbN,LED_SMD*%
%TO.CMnt,SMD*%
%TO.CRot,0*%
X180025000Y-97460000D03*
D11*
X181704999Y-96510001D02*
X181704999Y-98409999D01*
X178345001Y-98409999D01*
X178345001Y-96510001D01*
X181704999Y-96510001D01*
D12*
%TO.P,D8,1,K*%
X179087500Y-97460000D03*
D13*
%TO.P,D8,2,A*%
X180962500Y-97460000D03*
%TD*%
D10*
%TO.C,D32*%
%TO.CFtp,LED_0805_2012Metric*%
%TO.CVal,LED Green*%
%TO.CLbN,LED_SMD*%
%TO.CMnt,SMD*%
%TO.CRot,0*%
X167990981Y-97457731D03*
D11*
X169670980Y-98407730D02*
X166310982Y-98407730D01*
X166310982Y-96507731D01*
X169670980Y-96507731D01*
X169670980Y-98407730D01*
D12*
%TO.P,D32,1,K*%
X167053481Y-97457731D03*
D13*
%TO.P,D32,2,A*%
X168928481Y-97457731D03*
%TD*%
D10*
%TO.C,C21*%
%TO.CFtp,C_1206_3216Metric*%
%TO.CVal,0.18uF*%
%TO.CLbN,Capacitor_SMD*%
%TO.CMnt,SMD*%
%TO.CRot,0*%
X119307502Y-131881069D03*
D11*
X121607501Y-130731070D02*
X121607501Y-133031068D01*
X117007503Y-133031068D01*
X117007503Y-130731070D01*
X121607501Y-130731070D01*
D12*
%TO.P,C21,1*%
X117832502Y-131881069D03*
D13*
%TO.P,C21,2*%
X120782502Y-131881069D03*
%TD*%
D10*
%TO.C,R26*%
%TO.CFtp,R_1206_3216Metric*%
%TO.CVal,162k*%
%TO.CLbN,Resistor_SMD*%
%TO.CMnt,SMD*%
%TO.CRot,180*%
X125257502Y-103179641D03*
D11*
X127537501Y-102059642D02*
X127537501Y-104299640D01*
X122977503Y-104299640D01*
X122977503Y-102059642D01*
X127537501Y-102059642D01*
D12*
%TO.P,R26,1*%
X126720002Y-103179641D03*
D13*
%TO.P,R26,2*%
X123795002Y-103179641D03*
%TD*%
D10*
%TO.C,D36*%
%TO.CFtp,LED_0805_2012Metric*%
%TO.CVal,LED*%
%TO.CLbN,LED_SMD*%
%TO.CMnt,SMD*%
%TO.CRot,0*%
X161940981Y-104507731D03*
D11*
X163620980Y-105457730D02*
X160260982Y-105457730D01*
X160260982Y-103557731D01*
X163620980Y-103557731D01*
X163620980Y-105457730D01*
D12*
%TO.P,D36,1,K*%
X161003481Y-104507731D03*
D13*
%TO.P,D36,2,A*%
X162878481Y-104507731D03*
%TD*%
D10*
%TO.C,D12*%
%TO.CFtp,LED_0805_2012Metric*%
%TO.CVal,LED*%
%TO.CLbN,LED_SMD*%
%TO.CMnt,SMD*%
%TO.CRot,0*%
X173975000Y-104510000D03*
D11*
X175654999Y-103560001D02*
X175654999Y-105459999D01*
X172295001Y-105459999D01*
X172295001Y-103560001D01*
X175654999Y-103560001D01*
D12*
%TO.P,D12,1,K*%
X173037500Y-104510000D03*
D13*
%TO.P,D12,2,A*%
X174912500Y-104510000D03*
%TD*%
D10*
%TO.C,R17*%
%TO.CFtp,R_1206_3216Metric*%
%TO.CVal,191k*%
%TO.CLbN,Resistor_SMD*%
%TO.CMnt,SMD*%
%TO.CRot,0*%
X119299003Y-76858213D03*
D11*
X121579002Y-75738214D02*
X121579002Y-77978212D01*
X117019004Y-77978212D01*
X117019004Y-75738214D01*
X121579002Y-75738214D01*
D12*
%TO.P,R17,1*%
X117836503Y-76858213D03*
D13*
%TO.P,R17,2*%
X120761503Y-76858213D03*
%TD*%
D10*
%TO.C,U6*%
%TO.CFtp,IC_TPS27S100BPWPR*%
%TO.CVal,DRV104PWP*%
%TO.CLbN,footprint*%
%TO.CMnt,SMD*%
%TO.CRot,0*%
X126586503Y-121585355D03*
D11*
X130436502Y-118835356D02*
X130436502Y-124335354D01*
X122736504Y-124335354D01*
X122736504Y-118835356D01*
X130436502Y-118835356D01*
D12*
%TO.P,U6,1,DUTY_CYCLE_ADJ*%
X123786503Y-119635355D03*
D13*
%TO.P,U6,2,DELAY_ADJ*%
X123786503Y-120285355D03*
%TO.P,U6,3,OSC_FREQ_ADJ*%
X123786503Y-120935355D03*
%TO.P,U6,4,MASTER*%
X123786503Y-121585355D03*
%TO.P,U6,5,BOOT*%
X123786503Y-122235355D03*
%TO.P,U6,6,OUT1*%
X123786503Y-122885355D03*
%TO.P,U6,7,OUT2*%
X123786503Y-123535355D03*
%TO.P,U6,8,VPS2*%
X129386503Y-123535355D03*
%TO.P,U6,9,VPS1*%
X129386503Y-122885355D03*
%TO.P,U6,10,+VS*%
X129386503Y-122235355D03*
%TO.P,U6,11,GND*%
X129386503Y-121585355D03*
%TO.P,U6,12,SYNC*%
X129386503Y-120935355D03*
%TO.P,U6,13,STATUS_OK_FLAG*%
X129386503Y-120285355D03*
%TO.P,U6,14,INPUT*%
X129386503Y-119635355D03*
%TO.P,U6,15,EPAD*%
X126586503Y-121585355D03*
%TD*%
D10*
%TO.C,R22*%
%TO.CFtp,R_1206_3216Metric*%
%TO.CVal,4k7*%
%TO.CLbN,Resistor_SMD*%
%TO.CMnt,SMD*%
%TO.CRot,180*%
X134386303Y-90055627D03*
D11*
X136666302Y-88935628D02*
X136666302Y-91175626D01*
X132106304Y-91175626D01*
X132106304Y-88935628D01*
X136666302Y-88935628D01*
D12*
%TO.P,R22,1*%
X135848803Y-90055627D03*
D13*
%TO.P,R22,2*%
X132923803Y-90055627D03*
%TD*%
D10*
%TO.C,R36*%
%TO.CFtp,R_1206_3216Metric*%
%TO.CVal,4k7*%
%TO.CLbN,Resistor_SMD*%
%TO.CMnt,SMD*%
%TO.CRot,180*%
X134367502Y-123245355D03*
D11*
X136647501Y-122125356D02*
X136647501Y-124365354D01*
X132087503Y-124365354D01*
X132087503Y-122125356D01*
X136647501Y-122125356D01*
D12*
%TO.P,R36,1*%
X135830002Y-123245355D03*
D13*
%TO.P,R36,2*%
X132905002Y-123245355D03*
%TD*%
D10*
%TO.C,C10*%
%TO.CFtp,C_1206_3216Metric*%
%TO.CVal,470pF*%
%TO.CLbN,Capacitor_SMD*%
%TO.CMnt,SMD*%
%TO.CRot,0*%
X119307502Y-79148213D03*
D11*
X121607501Y-77998214D02*
X121607501Y-80298212D01*
X117007503Y-80298212D01*
X117007503Y-77998214D01*
X121607501Y-77998214D01*
D12*
%TO.P,C10,1*%
X117832502Y-79148213D03*
D13*
%TO.P,C10,2*%
X120782502Y-79148213D03*
%TD*%
D10*
%TO.C,C15*%
%TO.CFtp,C_1206_3216Metric*%
%TO.CVal,0.18uF*%
%TO.CLbN,Capacitor_SMD*%
%TO.CMnt,SMD*%
%TO.CRot,0*%
X119307502Y-103229641D03*
D11*
X121607501Y-102079642D02*
X121607501Y-104379640D01*
X117007503Y-104379640D01*
X117007503Y-102079642D01*
X121607501Y-102079642D01*
D12*
%TO.P,C15,1*%
X117832502Y-103229641D03*
D13*
%TO.P,C15,2*%
X120782502Y-103229641D03*
%TD*%
D10*
%TO.C,U7*%
%TO.CFtp,IC_TPS27S100BPWPR*%
%TO.CVal,DRV104PWP*%
%TO.CLbN,footprint*%
%TO.CMnt,SMD*%
%TO.CRot,0*%
X126586503Y-135911069D03*
D11*
X130436502Y-133161070D02*
X130436502Y-138661068D01*
X122736504Y-138661068D01*
X122736504Y-133161070D01*
X130436502Y-133161070D01*
D12*
%TO.P,U7,1,DUTY_CYCLE_ADJ*%
X123786503Y-133961069D03*
D13*
%TO.P,U7,2,DELAY_ADJ*%
X123786503Y-134611069D03*
%TO.P,U7,3,OSC_FREQ_ADJ*%
X123786503Y-135261069D03*
%TO.P,U7,4,MASTER*%
X123786503Y-135911069D03*
%TO.P,U7,5,BOOT*%
X123786503Y-136561069D03*
%TO.P,U7,6,OUT1*%
X123786503Y-137211069D03*
%TO.P,U7,7,OUT2*%
X123786503Y-137861069D03*
%TO.P,U7,8,VPS2*%
X129386503Y-137861069D03*
%TO.P,U7,9,VPS1*%
X129386503Y-137211069D03*
%TO.P,U7,10,+VS*%
X129386503Y-136561069D03*
%TO.P,U7,11,GND*%
X129386503Y-135911069D03*
%TO.P,U7,12,SYNC*%
X129386503Y-135261069D03*
%TO.P,U7,13,STATUS_OK_FLAG*%
X129386503Y-134611069D03*
%TO.P,U7,14,INPUT*%
X129386503Y-133961069D03*
%TO.P,U7,15,EPAD*%
X126586503Y-135911069D03*
%TD*%
D10*
%TO.C,D35*%
%TO.CFtp,LED_0805_2012Metric*%
%TO.CVal,LED Green*%
%TO.CLbN,LED_SMD*%
%TO.CMnt,SMD*%
%TO.CRot,0*%
X167990981Y-104507731D03*
D11*
X169670980Y-105457730D02*
X166310982Y-105457730D01*
X166310982Y-103557731D01*
X169670980Y-103557731D01*
X169670980Y-105457730D01*
D12*
%TO.P,D35,1,K*%
X167053481Y-104507731D03*
D13*
%TO.P,D35,2,A*%
X168928481Y-104507731D03*
%TD*%
D10*
%TO.C,R41*%
%TO.CFtp,R_1206_3216Metric*%
%TO.CVal,191k*%
%TO.CLbN,Resistor_SMD*%
%TO.CMnt,SMD*%
%TO.CRot,0*%
X119299003Y-134161069D03*
D11*
X121579002Y-133041070D02*
X121579002Y-135281068D01*
X117019004Y-135281068D01*
X117019004Y-133041070D01*
X121579002Y-133041070D01*
D12*
%TO.P,R41,1*%
X117836503Y-134161069D03*
D13*
%TO.P,R41,2*%
X120761503Y-134161069D03*
%TD*%
D10*
%TO.C,R25*%
%TO.CFtp,R_1206_3216Metric*%
%TO.CVal,4k7*%
%TO.CLbN,Resistor_SMD*%
%TO.CMnt,SMD*%
%TO.CRot,180*%
X134387502Y-102079641D03*
D11*
X136667501Y-100959642D02*
X136667501Y-103199640D01*
X132107503Y-103199640D01*
X132107503Y-100959642D01*
X136667501Y-100959642D01*
D12*
%TO.P,R25,1*%
X135850002Y-102079641D03*
D13*
%TO.P,R25,2*%
X132925002Y-102079641D03*
%TD*%
D10*
%TO.C,D17*%
%TO.CFtp,LED_0805_2012Metric*%
%TO.CVal,LED Green*%
%TO.CLbN,LED_SMD*%
%TO.CMnt,SMD*%
%TO.CRot,0*%
X180025000Y-118610000D03*
D11*
X181704999Y-117660001D02*
X181704999Y-119559999D01*
X178345001Y-119559999D01*
X178345001Y-117660001D01*
X181704999Y-117660001D01*
D12*
%TO.P,D17,1,K*%
X179087500Y-118610000D03*
D13*
%TO.P,D17,2,A*%
X180962500Y-118610000D03*
%TD*%
D10*
%TO.C,C8*%
%TO.CFtp,C_1210_3225Metric*%
%TO.CVal,10uF*%
%TO.CLbN,Capacitor_SMD*%
%TO.CMnt,SMD*%
%TO.CRot,180*%
X126942502Y-83113213D03*
D11*
X129242501Y-81513214D02*
X129242501Y-84713212D01*
X124642503Y-84713212D01*
X124642503Y-81513214D01*
X129242501Y-81513214D01*
D12*
%TO.P,C8,1*%
X128417502Y-83113213D03*
D13*
%TO.P,C8,2*%
X125467502Y-83113213D03*
%TD*%
D10*
%TO.C,D6*%
%TO.CFtp,LED_0805_2012Metric*%
%TO.CVal,LED*%
%TO.CLbN,LED_SMD*%
%TO.CMnt,SMD*%
%TO.CRot,0*%
X173975000Y-90410000D03*
D11*
X175654999Y-89460001D02*
X175654999Y-91359999D01*
X172295001Y-91359999D01*
X172295001Y-89460001D01*
X175654999Y-89460001D01*
D12*
%TO.P,D6,1,K*%
X173037500Y-90410000D03*
D13*
%TO.P,D6,2,A*%
X174912500Y-90410000D03*
%TD*%
M02*
